<svg xmlns="http://www.w3.org/2000/svg" width="118" height="118" viewBox="0 0 118 118">
  <g id="Grupo_1102616" data-name="Grupo 1102616" transform="translate(-194 -995)">
    <circle id="Elipse_11492" data-name="Elipse 11492" cx="59" cy="59" r="59" transform="translate(194 995)" fill="#5e3552"/>
    <g id="desarrollador-de-software" transform="translate(214 1015)">
      <path id="Trazado_881469" data-name="Trazado 881469" d="M60.935,44.1V11H11.9V44.1L7,55.129H65.839Z" transform="translate(0.226 2.258)" fill="#596c80"/>
      <path id="Trazado_881470" data-name="Trazado 881470" d="M11,11H60.032V44.1H11Z" transform="translate(1.129 2.258)" fill="#bce1fb"/>
      <path id="Trazado_881471" data-name="Trazado 881471" d="M51.206,16.125a4.393,4.393,0,0,1-2.452-3.931A4.145,4.145,0,0,1,48.946,11H41.469a11.475,11.475,0,0,0-.069,1.226,11.687,11.687,0,0,0,4.5,9.194v2.487a7.283,7.283,0,0,0,7.273,7.279V18.643a3.677,3.677,0,0,0-1.961-2.518Z" transform="translate(7.994 2.258)" fill="#b2d5ed"/>
      <path id="Trazado_881472" data-name="Trazado 881472" d="M60.581,13.452a8.09,8.09,0,0,0-8.335-8.09A8.179,8.179,0,0,0,44.4,13.478a8.083,8.083,0,0,0,4.5,7.21v4.494a3.6,3.6,0,1,0,7.191,0V20.692a8.082,8.082,0,0,0,4.5-7.24Z" transform="translate(8.671 0.984)" fill="#ffeb8c"/>
      <path id="Trazado_881473" data-name="Trazado 881473" d="M55.253,19.33v2.7a3.592,3.592,0,1,1-7.183,0v-2.7Z" transform="translate(9.5 4.139)" fill="#748ca6"/>
      <path id="Trazado_881474" data-name="Trazado 881474" d="M51.963,46.4a1.839,1.839,0,0,0-1.839,1.839V45.79a1.839,1.839,0,1,0-3.677,0V43.339a1.839,1.839,0,1,0-3.677,0v2.422a1.839,1.839,0,1,0-3.677.029V55.6l-1.863-1.573a2.188,2.188,0,0,0-3.849.588,2.242,2.242,0,0,0,.11,1.643l3.3,5.716a3.892,3.892,0,0,0,3.506,2.206v3.677H50.1V64.177a6.987,6.987,0,0,0,3.7-6.129V48.242A1.839,1.839,0,0,0,51.963,46.4Z" transform="translate(6.159 9.145)" fill="#e6cdad"/>
      <path id="Trazado_881475" data-name="Trazado 881475" d="M30.314,53.117a2.168,2.168,0,0,0-1.765.907L26.69,55.6V45.79a1.839,1.839,0,1,0-3.677-.029V43.339a1.839,1.839,0,1,0-3.677,0V45.79a1.839,1.839,0,0,0-3.677,0v2.452a1.839,1.839,0,0,0-3.677,0v9.806a6.987,6.987,0,0,0,3.7,6.129v3.677h9.806V64.177a3.892,3.892,0,0,0,3.506-2.206l3.294-5.716a2.242,2.242,0,0,0,.11-1.643,2.157,2.157,0,0,0-2.084-1.5Z" transform="translate(1.35 9.145)" fill="#e6cdad"/>
      <path id="Trazado_881476" data-name="Trazado 881476" d="M10.9,12.5V45.336l-4.8,10.794a1.226,1.226,0,0,0,1.12,1.723H12.1v8.581a8.107,8.107,0,0,0,3.7,6.808v3h2.452V72.564a1.226,1.226,0,0,0-.613-1.063,5.786,5.786,0,0,1-3.089-5.066V56.628a.613.613,0,1,1,1.226,0v3.677h2.452V54.177a.613.613,0,1,1,1.226,0v6.129h2.452V51.725a.613.613,0,1,1,1.226,0v8.581h2.452V54.162a.613.613,0,1,1,1.226.015v9.806a1.226,1.226,0,0,0,2.018.937l1.86-1.574a1.236,1.236,0,0,0,.2-.219.941.941,0,0,1,.77-.4.932.932,0,0,1,.916.641,1.014,1.014,0,0,1,0,.659l-3.337,5.788a2.676,2.676,0,0,1-2.405,1.52,1.226,1.226,0,0,0-1.226,1.226v3.677h2.452v-2.6a5.042,5.042,0,0,0,3.342-2.672l3.339-5.8a3.462,3.462,0,0,0,.169-2.55,3.414,3.414,0,0,0-5.649-1.348V57.854H44.025V61.27a3.414,3.414,0,0,0-5.651,1.364,3.491,3.491,0,0,0,.217,2.624L41.846,70.9a5.123,5.123,0,0,0,3.38,2.745v2.6h2.452V72.564a1.226,1.226,0,0,0-1.226-1.226,2.72,2.72,0,0,1-2.444-1.594l-3.248-5.633a1,1,0,0,1-.051-.735.961.961,0,0,1,1.688-.253,1.236,1.236,0,0,0,.2.219l1.86,1.574a1.226,1.226,0,0,0,2.018-.934V54.177a.613.613,0,1,1,1.226-.015v6.144h2.452V51.725a.613.613,0,0,1,1.226,0v8.581h2.452V54.177a.613.613,0,1,1,1.226,0v6.129h2.452V56.628a.613.613,0,0,1,1.226,0v9.806A5.786,5.786,0,0,1,55.645,71.5a1.226,1.226,0,0,0-.613,1.063v3.677h2.452v-3a8.108,8.108,0,0,0,3.7-6.808V57.854h4.879a1.226,1.226,0,0,0,1.12-1.723l-4.8-10.794V30.055a4.817,4.817,0,0,0,3.6-4.645V21.64a9.31,9.31,0,1,0-13.8-10.385l-40.051.018A1.226,1.226,0,0,0,10.9,12.5ZM63.531,25.411a2.369,2.369,0,1,1-4.739,0V23.94h4.739ZM60.949,6.816h.215a6.865,6.865,0,0,1,3.047,13.006,1.226,1.226,0,0,0-.68,1.1v.572H58.792v-.572a1.226,1.226,0,0,0-.68-1.1A6.83,6.83,0,0,1,54.3,13.7a6.987,6.987,0,0,1,6.652-6.884ZM13.355,13.725l38.49-.018a9.259,9.259,0,0,0,4.5,7.93v3.771a4.817,4.817,0,0,0,3.6,4.648V44.37H13.355Zm47.01,33.1L64.178,55.4H60.926a3.034,3.034,0,0,0-3.474-1.76,3.065,3.065,0,0,0-3.011-2.53,3,3,0,0,0-.668.078,3.056,3.056,0,0,0-6.02,0,3.047,3.047,0,0,0-3.729,2.986V55.4H29.266V54.177a3.047,3.047,0,0,0-3.729-2.987,3.056,3.056,0,0,0-6.02,0,3,3,0,0,0-.668-.078,3.065,3.065,0,0,0-3.011,2.53A3.034,3.034,0,0,0,12.364,55.4H9.112l3.813-8.581Z" transform="translate(0 0.759)"/>
      <path id="Trazado_881477" data-name="Trazado 881477" d="M27.223,20.643,21.094,24.32a1.226,1.226,0,0,0,0,2.1L27.223,30.1,28.486,28l-4.377-2.627,4.377-2.627Z" transform="translate(3.274 4.436)"/>
      <path id="Trazado_881478" data-name="Trazado 881478" d="M42.377,24.32l-6.129-3.677-1.263,2.1,4.377,2.627L34.985,28l1.263,2.1,6.129-3.677a1.226,1.226,0,0,0,0-2.1Z" transform="translate(6.545 4.436)"/>
      <path id="Trazado_881479" data-name="Trazado 881479" d="M0,0H10.473V2.453H0Z" transform="translate(33.636 34.272) rotate(-69.444)"/>
      <path id="Trazado_881480" data-name="Trazado 881480" d="M50,1h2.452V3.7H50Z" transform="translate(9.936)"/>
      <path id="Trazado_881481" data-name="Trazado 881481" d="M0,0H2.452V2.7H0Z" transform="translate(50.754 5.821) rotate(-45)"/>
      <path id="Trazado_881482" data-name="Trazado 881482" d="M0,0H2.7V2.452H0Z" transform="translate(67.915 5.997) rotate(-45)"/>
    </g>
  </g>
</svg>
