<svg xmlns="http://www.w3.org/2000/svg" width="85" height="85" viewBox="0 0 85 85">
  <g id="Grupo_1102586" data-name="Grupo 1102586" transform="translate(-180.051 -385)">
    <circle id="Elipse_11504" data-name="Elipse 11504" cx="42.5" cy="42.5" r="42.5" transform="translate(180.051 385)" fill="#13de61"/>
    <g id="Artboard111" transform="translate(189.051 394)">
      <g id="Grupo_1102879" data-name="Grupo 1102879" transform="translate(7 7)">
        <g id="Grupo_1102878" data-name="Grupo 1102878" transform="translate(0.854 0.854)">
          <g id="Grupo_1102876" data-name="Grupo 1102876" transform="translate(0 9.657)">
            <path id="Trazado_882376" data-name="Trazado 882376" d="M161.859,385.636h14.387v8.194H161.859Z" transform="translate(-146.166 -355.688)" fill="#a79ba7" fill-rule="evenodd"/>
            <path id="Trazado_882377" data-name="Trazado 882377" d="M286.055,385.636h1.117v8.194h-1.117Z" transform="translate(-257.091 -355.688)" fill="#837683" fill-rule="evenodd"/>
            <path id="Trazado_882378" data-name="Trazado 882378" d="M83.657,454.92h31.1v-2.4c0-1.317-1.352-2.4-3-2.4h-25.1c-1.652,0-3,1.081-3,2.4Z" transform="translate(-76.32 -413.285)" fill="#eceff1" fill-rule="evenodd"/>
            <path id="Trazado_882379" data-name="Trazado 882379" d="M83.657,458.92h31.1v-2.4a2.287,2.287,0,0,0-1.211-1.919,1.977,1.977,0,0,1,.257.968v2.4H83.657Z" transform="translate(-76.32 -417.285)" fill="#d1d1d6" fill-rule="evenodd"/>
            <path id="Trazado_882380" data-name="Trazado 882380" d="M18.511,105.365h38.74a3.531,3.531,0,0,1,3.52,3.52v24.209a3.531,3.531,0,0,1-3.52,3.52H18.511a3.528,3.528,0,0,1-3.517-3.52V108.885A3.528,3.528,0,0,1,18.511,105.365Z" transform="translate(-14.994 -105.365)" fill="#eceff1" fill-rule="evenodd"/>
            <path id="Trazado_882381" data-name="Trazado 882381" d="M64.229,111.007a3.523,3.523,0,0,1,1.557,2.917v24.209a3.531,3.531,0,0,1-3.52,3.52H23.527A3.531,3.531,0,0,1,20.61,140.1a3.506,3.506,0,0,0,1.963.6h38.74a3.528,3.528,0,0,0,3.52-3.517V112.97A3.487,3.487,0,0,0,64.229,111.007Z" transform="translate(-20.01 -110.404)" fill="#d1d1d6" fill-rule="evenodd"/>
            <path id="Trazado_882382" data-name="Trazado 882382" d="M43.009,132.917H81.925a.488.488,0,0,1,.487.487V155.32H42.52V133.4A.489.489,0,0,1,43.009,132.917Z" transform="translate(-39.579 -129.973)" fill="#d8ecfe" fill-rule="evenodd"/>
            <path id="Trazado_882383" data-name="Trazado 882383" d="M393.427,132.917h1.909a.488.488,0,0,1,.487.487V155.32h-1.906V133.4A.49.49,0,0,0,393.427,132.917Z" transform="translate(-352.99 -129.973)" fill="#c4e2ff" fill-rule="evenodd"/>
          </g>
          <g id="Grupo_1102877" data-name="Grupo 1102877" transform="translate(27.025)">
            <path id="Trazado_882384" data-name="Trazado 882384" d="M282.455,17a10.348,10.348,0,0,1,3.032,1.257l1.971-.874,2.322,2.322-.874,1.971a10.346,10.346,0,0,1,1.257,3.032l2.011.774V28.77l-2.011.774a10.352,10.352,0,0,1-1.257,3.031l.874,1.971-2.322,2.323-1.971-.876a10.349,10.349,0,0,1-3.032,1.258l-.774,2.009H278.4l-.774-2.011a10.351,10.351,0,0,1-3.031-1.257l-1.97.876L270.3,34.546l.876-1.969a10.383,10.383,0,0,1-1.258-3.032l-2.009-.774V25.486l2.009-.774a10.352,10.352,0,0,1,1.258-3.032l-.876-1.971,2.323-2.322,1.969.874A10.382,10.382,0,0,1,277.622,17l.774-2.011h3.285Z" transform="translate(-267.906 -14.994)" fill="#ffe177" fill-rule="evenodd"/>
            <path id="Trazado_882385" data-name="Trazado 882385" d="M323.75,17.681l.662-.294,2.322,2.322-.874,1.971a10.347,10.347,0,0,1,1.257,3.032l2.011.774V28.77l-2.011.774a10.353,10.353,0,0,1-1.257,3.031l.874,1.971-2.322,2.323-.662-.294,2.029-2.029-.876-1.971a10.35,10.35,0,0,0,1.257-3.031l2.011-.774V25.486l-2.011-.774a10.344,10.344,0,0,0-1.257-3.032l.876-1.971Zm-14.469,0,.294-.294,1.969.874c-.139.077-.277.158-.411.242ZM319.409,17a10.348,10.348,0,0,1,3.032,1.257l-.543.242a13.534,13.534,0,0,0-3.445-1.5l-.774-2.011h.956Zm-7.863,18.989-1.97.876-.294-.294,1.852-.823Q311.335,35.877,311.545,35.993Zm10.9,0a10.349,10.349,0,0,1-3.032,1.258l-.774,2.009h-.956l.774-2.009a13.564,13.564,0,0,0,3.447-1.5Z" transform="translate(-304.86 -14.994)" fill="#ffd064" fill-rule="evenodd"/>
            <path id="Trazado_882386" data-name="Trazado 882386" d="M321.659,61.594a7.154,7.154,0,1,1-7.153,7.155A7.154,7.154,0,0,1,321.659,61.594Z" transform="translate(-309.527 -56.615)" fill="#eceff1" fill-rule="evenodd"/>
            <path id="Trazado_882387" data-name="Trazado 882387" d="M321.659,61.594c.163,0,.324.006.485.017a7.154,7.154,0,0,0,0,14.274c-.161.01-.323.016-.485.016a7.154,7.154,0,0,1,0-14.308Z" transform="translate(-309.527 -56.615)" fill="#d1d1d6" fill-rule="evenodd"/>
          </g>
        </g>
        <path id="Trazado_882388" data-name="Trazado 882388" d="M22.693,49.614H11.375A4.389,4.389,0,0,1,7,45.239V21.029a4.389,4.389,0,0,1,4.375-4.375H36.257a11.145,11.145,0,0,1,.932-2.171l-.695-1.569a.855.855,0,0,1,.177-.951l2.321-2.321a.855.855,0,0,1,.952-.177l1.569.7a11.17,11.17,0,0,1,2.445-1.013l.616-1.6a.855.855,0,0,1,.8-.548h3.282a.855.855,0,0,1,.8.547l.619,1.6a11.171,11.171,0,0,1,2.446,1.014l1.569-.7a.855.855,0,0,1,.952.177l2.321,2.321a.855.855,0,0,1,.177.952l-.7,1.568a11.247,11.247,0,0,1,1.016,2.449l1.6.616a.855.855,0,0,1,.548.8v3.282a.855.855,0,0,1-.548.8l-1.6.616a11.238,11.238,0,0,1-1.015,2.446l.7,1.568a.855.855,0,0,1-.177.952l-2.321,2.321a.855.855,0,0,1-.549.249V45.239a4.389,4.389,0,0,1-4.375,4.375H38.791V53.5h4.5a3.613,3.613,0,0,1,3.856,3.25v2.4a.855.855,0,0,1-.855.855H15.19a.855.855,0,0,1-.855-.855v-2.4a3.613,3.613,0,0,1,3.856-3.25h4.5ZM34.027,18.364H11.375A2.674,2.674,0,0,0,8.71,21.029V45.239A2.674,2.674,0,0,0,11.375,47.9H50.112a2.674,2.674,0,0,0,2.665-2.665V29.927l-.262-.116q-.474.265-.97.484V42.831a.855.855,0,0,1-.855.855H10.8a.855.855,0,0,1-.855-.855V20.942A1.345,1.345,0,0,1,11.285,19.6H34.027Zm3.054,31.249H24.4V53.5H37.081ZM49.835,31.426l-.384,1a.855.855,0,0,1-.8.548H45.371a.855.855,0,0,1-.8-.548l-.616-1.6a11.141,11.141,0,0,1-2.447-1.014l-1.568.695a.855.855,0,0,1-.951-.177l-2.321-2.321a.855.855,0,0,1-.177-.951l.7-1.57a11.261,11.261,0,0,1-1.014-2.445l-1.6-.616a.855.855,0,0,1-.548-.8v-.32H11.652V41.976H49.835Zm-2.895,6.3a.855.855,0,0,1,0,1.209L45.163,40.71A.855.855,0,1,1,43.954,39.5l1.174-1.174-1.174-1.174a.855.855,0,1,1,1.209-1.209Zm-22.8-13.2a.855.855,0,0,1,0,1.209l-1.778,1.778A.855.855,0,1,1,21.156,26.3l1.174-1.174-1.174-1.174a.855.855,0,1,1,1.209-1.209Zm-4.91-2.031a.855.855,0,1,1,1.565.688l-2.013,4.583a.855.855,0,0,1-1.565-.688Zm-5.57,9.1a.855.855,0,1,1,0-1.71H25.438a.855.855,0,1,1,0,1.71Zm0,2.758a.855.855,0,1,1,0-1.71h15.81a.855.855,0,1,1,0,1.71ZM42.03,35.692a.855.855,0,1,1,1.565.688l-2.013,4.583a.855.855,0,0,1-1.565-.688ZM13.662,37.113a.855.855,0,0,1,0-1.71H32.487a.855.855,0,1,1,0,1.71Zm-.069-12.589,1.778-1.778a.855.855,0,0,1,1.209,1.209l-1.174,1.174L16.58,26.3a.855.855,0,0,1-1.209,1.209l-1.778-1.778A.855.855,0,0,1,13.593,24.524Zm22.8,13.2,1.778-1.778a.855.855,0,1,1,1.209,1.209L38.2,38.327,39.378,39.5a.855.855,0,0,1-1.209,1.209l-1.778-1.778a.855.855,0,0,1,0-1.209Zm8.4-27.023a9.468,9.468,0,0,0-2.78,1.152.855.855,0,0,1-.8.053l-1.434-.637-1.491,1.491.635,1.434a.855.855,0,0,1-.054.795,9.453,9.453,0,0,0-1.152,2.783.854.854,0,0,1-.525.6l-1.462.563v2.109l1.462.563a.855.855,0,0,1,.525.6,9.559,9.559,0,0,0,1.153,2.782.855.855,0,0,1,.053.793l-.635,1.434,1.491,1.491,1.434-.635a.855.855,0,0,1,.8.055,9.432,9.432,0,0,0,2.779,1.151.855.855,0,0,1,.6.525l.563,1.462h2.109l.563-1.462a.854.854,0,0,1,.6-.525,9.54,9.54,0,0,0,2.785-1.153.855.855,0,0,1,.793-.053l1.434.635,1.491-1.491-.637-1.434a.855.855,0,0,1,.054-.8A9.526,9.526,0,0,0,56.3,22.2a.855.855,0,0,1,.524-.6l1.462-.563V18.934l-1.462-.563a.855.855,0,0,1-.524-.6,9.547,9.547,0,0,0-1.156-2.786.855.855,0,0,1-.053-.8l.637-1.434-1.49-1.49-1.434.637a.855.855,0,0,1-.8-.053,9.468,9.468,0,0,0-2.78-1.152.855.855,0,0,1-.6-.524L48.067,8.71H45.958L45.4,10.175a.855.855,0,0,1-.6.525Zm2.221,1.279a8.007,8.007,0,1,1-8.009,8.005A8,8,0,0,1,47.016,11.979Zm0,1.71a6.3,6.3,0,1,0,6.3,6.3A6.3,6.3,0,0,0,47.016,13.689Zm-1.577,44.6V56.747c0-.906-1.011-1.541-2.146-1.541h-25.1c-1.135,0-2.146.634-2.146,1.541V58.29Z" transform="translate(-7 -7)" fill-rule="evenodd"/>
      </g>
    </g>
  </g>
</svg>
