<svg xmlns="http://www.w3.org/2000/svg" width="85" height="85" viewBox="0 0 85 85">
  <g id="Grupo_1102571" data-name="Grupo 1102571" transform="translate(-180.051 -385)">
    <circle id="Elipse_11504" data-name="Elipse 11504" cx="42.5" cy="42.5" r="42.5" transform="translate(180.051 385)" fill="#5e3552"/>
    <g id="coding-programer-web_design-programing-developer" data-name="coding-programer-web design-programing-developer" transform="translate(191.051 396)">
      <path id="Trazado_882279" data-name="Trazado 882279" d="M61,51v2a2.006,2.006,0,0,1-2,2H5a2.006,2.006,0,0,1-2-2V51Z" fill="#004fac"/>
      <path id="Trazado_882280" data-name="Trazado 882280" d="M61,51H3L7,39H57Z" fill="#a7a9ac"/>
      <path id="Trazado_882281" data-name="Trazado 882281" d="M57,39H53.461a9.116,9.116,0,0,1-9.11,9H4L3,51H61Z" fill="#939598"/>
      <path id="Trazado_882282" data-name="Trazado 882282" d="M51,46.5v9.67a2.006,2.006,0,0,1-.59,1.42l-.82.82A2.006,2.006,0,0,0,49,59.83V62H38V59.83a2.006,2.006,0,0,0-.59-1.42l-.82-.82A2.006,2.006,0,0,1,36,56.17V50.5A1.5,1.5,0,0,1,37.5,49H39V44.5a1.5,1.5,0,0,1,3,0v-1a1.5,1.5,0,0,1,3,0v1a1.5,1.5,0,0,1,3,0v2a1.5,1.5,0,0,1,3,0Z" fill="#ffb8a5"/>
      <path id="Trazado_882283" data-name="Trazado 882283" d="M49.5,45a1.507,1.507,0,0,0-.5.091A1.494,1.494,0,0,1,50,46.5v9.67a2.006,2.006,0,0,1-.59,1.42l-.82.82A2.006,2.006,0,0,0,48,59.83V62h1V59.83a2.006,2.006,0,0,1,.59-1.42l.82-.82A2.006,2.006,0,0,0,51,56.17V46.5A1.5,1.5,0,0,0,49.5,45Z" fill="#ff9478"/>
      <path id="Trazado_882284" data-name="Trazado 882284" d="M46.5,43a1.507,1.507,0,0,0-.5.091A1.494,1.494,0,0,1,47,44.5V48h1V44.5A1.5,1.5,0,0,0,46.5,43Z" fill="#ff9478"/>
      <path id="Trazado_882285" data-name="Trazado 882285" d="M43.5,42a1.507,1.507,0,0,0-.5.091A1.494,1.494,0,0,1,44,43.5V48h1V43.5A1.5,1.5,0,0,0,43.5,42Z" fill="#ff9478"/>
      <path id="Trazado_882286" data-name="Trazado 882286" d="M40.5,43a1.507,1.507,0,0,0-.5.091A1.494,1.494,0,0,1,41,44.5V48h1V44.5A1.5,1.5,0,0,0,40.5,43Z" fill="#ff9478"/>
      <path id="Trazado_882287" data-name="Trazado 882287" d="M38,49h1v4H38Z" fill="#ff9478"/>
      <path id="Trazado_882288" data-name="Trazado 882288" d="M13,46.5v9.67a2.006,2.006,0,0,0,.59,1.42l.82.82A2.006,2.006,0,0,1,15,59.83V62H26V59.83a2.006,2.006,0,0,1,.59-1.42l.82-.82A2.006,2.006,0,0,0,28,56.17V50.5A1.5,1.5,0,0,0,26.5,49H25V44.5a1.5,1.5,0,1,0-3,0v-1a1.5,1.5,0,0,0-3,0v1a1.5,1.5,0,0,0-3,0v2a1.5,1.5,0,0,0-3,0Z" fill="#ffb8a5"/>
      <path id="Trazado_882289" data-name="Trazado 882289" d="M14.5,45a1.507,1.507,0,0,1,.5.091A1.494,1.494,0,0,0,14,46.5v9.67a2.006,2.006,0,0,0,.59,1.42l.82.82A2.006,2.006,0,0,1,16,59.83V62H15V59.83a2.006,2.006,0,0,0-.59-1.42l-.82-.82A2.006,2.006,0,0,1,13,56.17V46.5A1.5,1.5,0,0,1,14.5,45Z" fill="#ff9478"/>
      <path id="Trazado_882290" data-name="Trazado 882290" d="M17.5,43a1.507,1.507,0,0,1,.5.091A1.494,1.494,0,0,0,17,44.5V48H16V44.5A1.5,1.5,0,0,1,17.5,43Z" fill="#ff9478"/>
      <path id="Trazado_882291" data-name="Trazado 882291" d="M20.5,42a1.507,1.507,0,0,1,.5.091A1.494,1.494,0,0,0,20,43.5V48H19V43.5A1.5,1.5,0,0,1,20.5,42Z" fill="#ff9478"/>
      <path id="Trazado_882292" data-name="Trazado 882292" d="M23.5,43a1.507,1.507,0,0,1,.5.091A1.494,1.494,0,0,0,23,44.5V48H22V44.5A1.5,1.5,0,0,1,23.5,43Z" fill="#ff9478"/>
      <path id="Trazado_882293" data-name="Trazado 882293" d="M25,49h1v4H25Z" transform="translate(51 102) rotate(180)" fill="#ff9478"/>
      <path id="Trazado_882294" data-name="Trazado 882294" d="M57,5V39H7V5A2.006,2.006,0,0,1,9,3H55a2.006,2.006,0,0,1,2,2Z" fill="#006df0"/>
      <path id="Trazado_882295" data-name="Trazado 882295" d="M11,7H53V35H11Z" fill="#ffeb99"/>
      <path id="Trazado_882296" data-name="Trazado 882296" d="M25,35H53V7A28,28,0,0,1,25,35Z" fill="#ffe477"/>
      <g id="Grupo_1102874" data-name="Grupo 1102874">
        <path id="Trazado_882297" data-name="Trazado 882297" d="M29.168,17.555a1,1,0,0,0,1.387.277l3-2a1,1,0,0,0,0-1.664l-3-2a1,1,0,1,0-1.11,1.664L31.2,15l-1.752,1.168a1,1,0,0,0-.28,1.387Z" fill="#231f20"/>
        <path id="Trazado_882298" data-name="Trazado 882298" d="M22.5,18.868A.988.988,0,0,0,23,19a1,1,0,0,0,.869-.5l4-7a1,1,0,1,0-1.736-.992l-4,7A1,1,0,0,0,22.5,18.868Z" fill="#231f20"/>
        <path id="Trazado_882299" data-name="Trazado 882299" d="M22,23h2a1,1,0,0,0,0-2H22a1,1,0,0,0,0,2Z" fill="#231f20"/>
        <path id="Trazado_882300" data-name="Trazado 882300" d="M22,27H36a1,1,0,0,0,0-2H22a1,1,0,0,0,0,2Z" fill="#231f20"/>
        <path id="Trazado_882301" data-name="Trazado 882301" d="M27,22a1,1,0,0,0,1,1H42a1,1,0,0,0,0-2H28A1,1,0,0,0,27,22Z" fill="#231f20"/>
        <path id="Trazado_882302" data-name="Trazado 882302" d="M42,25H40a1,1,0,0,0,0,2h2a1,1,0,0,0,0-2Z" fill="#231f20"/>
        <path id="Trazado_882303" data-name="Trazado 882303" d="M22,31h2a1,1,0,0,0,0-2H22a1,1,0,0,0,0,2Z" fill="#231f20"/>
        <path id="Trazado_882304" data-name="Trazado 882304" d="M42,29H28a1,1,0,0,0,0,2H42a1,1,0,0,0,0-2Z" fill="#231f20"/>
        <path id="Trazado_882305" data-name="Trazado 882305" d="M58,38.84V5a3.009,3.009,0,0,0-3-3H9A3.009,3.009,0,0,0,6,5V38.84l-4,12V53a3.009,3.009,0,0,0,3,3h7v.17a2.956,2.956,0,0,0,.88,2.12l.83.83a.99.99,0,0,1,.29.71V61a1,1,0,1,0,2,0V59.83a2.956,2.956,0,0,0-.88-2.12l-.83-.83a.99.99,0,0,1-.29-.71V46.5a.5.5,0,0,1,1,0V50a1,1,0,0,0,2,0V44.5a.5.5,0,0,1,1,0V50a1,1,0,0,0,2,0V43.5a.5.5,0,0,1,1,0V50a1,1,0,0,0,2,0V44.5a.5.5,0,0,1,1,0V53a1,1,0,0,0,2,0V50h.5a.5.5,0,0,1,.5.5v5.67a.99.99,0,0,1-.29.71l-.83.83A2.956,2.956,0,0,0,25,59.83V61a1,1,0,1,0,2,0V59.83a.99.99,0,0,1,.29-.71l.83-.83A2.956,2.956,0,0,0,29,56.17V56h6v.17a2.956,2.956,0,0,0,.88,2.12l.83.83a.99.99,0,0,1,.29.71V61a1,1,0,0,0,2,0V59.83a2.956,2.956,0,0,0-.88-2.12l-.83-.83a.99.99,0,0,1-.29-.71V50.5a.5.5,0,0,1,.5-.5H38v3a1,1,0,0,0,2,0V44.5a.5.5,0,0,1,1,0V50a1,1,0,0,0,2,0V43.5a.5.5,0,0,1,1,0V50a1,1,0,0,0,2,0V44.5a.5.5,0,0,1,1,0V50a1,1,0,0,0,2,0V46.5a.5.5,0,0,1,1,0v9.67a.99.99,0,0,1-.29.71l-.83.83A2.956,2.956,0,0,0,48,59.83V61a1,1,0,0,0,2,0V59.83a.99.99,0,0,1,.29-.71l.83-.83A2.956,2.956,0,0,0,52,56.17V56h7a3.009,3.009,0,0,0,3-3V50.84ZM8,5A1,1,0,0,1,9,4H55a1,1,0,0,1,1,1V38H8Zm4,49H5a1,1,0,0,1-1-1V52h8Zm23,0H29V52h6ZM49.5,44a2.352,2.352,0,0,0-.54.06A2.5,2.5,0,0,0,46.5,42a2.429,2.429,0,0,0-.89.17,2.488,2.488,0,0,0-4.22,0A2.429,2.429,0,0,0,40.5,42,2.5,2.5,0,0,0,38,44.5V48h-.5a2.5,2.5,0,0,0-2.45,2h-6.1a2.5,2.5,0,0,0-2.45-2H26V44.5A2.5,2.5,0,0,0,23.5,42a2.429,2.429,0,0,0-.89.17,2.488,2.488,0,0,0-4.22,0A2.429,2.429,0,0,0,17.5,42a2.5,2.5,0,0,0-2.46,2.06A2.352,2.352,0,0,0,14.5,44,2.5,2.5,0,0,0,12,46.5V50H4.39L7.72,40H56.28l3.33,10H52V46.5A2.5,2.5,0,0,0,49.5,44ZM60,53a1,1,0,0,1-1,1H52V52h8Z" fill="#231f20"/>
        <path id="Trazado_882306" data-name="Trazado 882306" d="M53,6H11a1,1,0,0,0-1,1V35a1,1,0,0,0,1,1H53a1,1,0,0,0,1-1V7A1,1,0,0,0,53,6ZM52,34H12V8H52Z" fill="#231f20"/>
        <path id="Trazado_882307" data-name="Trazado 882307" d="M11,42H10a1,1,0,0,0,0,2h1a1,1,0,0,0,0-2Z" fill="#231f20"/>
        <path id="Trazado_882308" data-name="Trazado 882308" d="M10,46H9a1,1,0,0,0,0,2h1a1,1,0,0,0,0-2Z" fill="#231f20"/>
        <path id="Trazado_882309" data-name="Trazado 882309" d="M53,44h1a1,1,0,0,0,0-2H53a1,1,0,0,0,0,2Z" fill="#231f20"/>
        <path id="Trazado_882310" data-name="Trazado 882310" d="M54,46a1,1,0,0,0,0,2h1a1,1,0,0,0,0-2Z" fill="#231f20"/>
        <path id="Trazado_882311" data-name="Trazado 882311" d="M30,42H29a1,1,0,0,0,0,2h1a1,1,0,0,0,0-2Z" fill="#231f20"/>
        <path id="Trazado_882312" data-name="Trazado 882312" d="M35,42H34a1,1,0,0,0,0,2h1a1,1,0,0,0,0-2Z" fill="#231f20"/>
        <path id="Trazado_882313" data-name="Trazado 882313" d="M30,46H29a1,1,0,0,0,0,2h1a1,1,0,0,0,0-2Z" fill="#231f20"/>
        <path id="Trazado_882314" data-name="Trazado 882314" d="M35,46H34a1,1,0,0,0,0,2h1a1,1,0,0,0,0-2Z" fill="#231f20"/>
        <path id="Trazado_882315" data-name="Trazado 882315" d="M20.832,17.555a1,1,0,0,1-1.387.277l-3-2a1,1,0,0,1,0-1.664l3-2a1,1,0,0,1,1.11,1.664L18.8,15l1.752,1.168a1,1,0,0,1,.28,1.387Z" fill="#231f20"/>
      </g>
    </g>
  </g>
</svg>
