<svg xmlns="http://www.w3.org/2000/svg" width="100" height="100" viewBox="0 0 100 100">
  <g id="Grupo_1102438" data-name="Grupo 1102438" transform="translate(-201.523 -3061)">
    <g id="Elipse_11539" data-name="Elipse 11539" transform="translate(201.523 3061)" fill="#5e3552" stroke="#707070" stroke-width="1">
      <circle cx="50" cy="50" r="50" stroke="none"/>
      <circle cx="50" cy="50" r="49.5" fill="none"/>
    </g>
    <g id="back-end_2_" data-name="back-end (2)" transform="translate(218.523 3066.47)">
      <g id="Grupo_1102436" data-name="Grupo 1102436" transform="translate(0.959 14.444)">
        <g id="Grupo_1102435" data-name="Grupo 1102435">
          <g id="Grupo_1102434" data-name="Grupo 1102434">
            <g id="Grupo_1102433" data-name="Grupo 1102433">
              <g id="Grupo_1102429" data-name="Grupo 1102429" transform="translate(0 13.994)">
                <path id="Trazado_880550" data-name="Trazado 880550" d="M27.432,172.186l.017-40.166a1.918,1.918,0,0,1,1.919-1.917l54.606.025a1.918,1.918,0,0,1,1.917,1.919l-.017,40.166Z" transform="translate(-24.883 -130.103)" fill="#8abbd5"/>
                <path id="Trazado_880551" data-name="Trazado 880551" d="M440.8,132.212l-.016,40.166h-3.694l.016-39.507a2.576,2.576,0,0,0-2.576-2.577h4.424A1.882,1.882,0,0,1,440.8,132.212Z" transform="translate(-379.922 -130.268)" fill="#6cabca"/>
                <path id="Trazado_880552" data-name="Trazado 880552" d="M69.158,450.967c.706,0,1.2.257,1.2.963,0,2.119-2.551,2.961-4.67,2.961l-2.734.425H11.337A3.836,3.836,0,0,1,7.5,451.479,1.279,1.279,0,0,1,8.779,450.2H64.8Z" transform="translate(-7.5 -409.265)" fill="#918291"/>
                <path id="Trazado_880553" data-name="Trazado 880553" d="M441.051,451.465a3.838,3.838,0,0,1-3.837,3.852h-5.467a2.917,2.917,0,0,0,2.917-2.916v-2.2h5.107A1.276,1.276,0,0,1,441.051,451.465Z" transform="translate(-377.493 -409.266)" fill="#7a6d79"/>
              </g>
              <g id="Grupo_1102432" data-name="Grupo 1102432" transform="translate(9.38)">
                <g id="Grupo_1102430" data-name="Grupo 1102430" transform="translate(0 0.41)">
                  <path id="Trazado_880554" data-name="Trazado 880554" d="M82.763,72.064a1.918,1.918,0,0,1-1.918-1.918V31.7l1.279-5.9a1.918,1.918,0,0,1,1.918-1.918l37.516.395c1.059,0,2.807.859,2.807,1.412v41.8c0,1.566-1.9,4.2-2.958,4.2l-1.16.378H82.763Z" transform="translate(-80.845 -23.878)" fill="#f9f7f8"/>
                </g>
                <path id="Trazado_880555" data-name="Trazado 880555" d="M125.14,23.056v5.427l-3.406.408L80.845,28.9v-6.31a1.918,1.918,0,0,1,1.918-1.918H119.9l2.987.133A2.53,2.53,0,0,1,125.14,23.056Z" transform="translate(-80.845 -20.675)" fill="#8abbd5"/>
                <g id="Grupo_1102431" data-name="Grupo 1102431" transform="translate(38.676)">
                  <path id="Trazado_880556" data-name="Trazado 880556" d="M389.781,76.26l1.95,1.107v38.461a2.284,2.284,0,0,1-2.3,1.918h-3.479l.4-.239a2.208,2.208,0,0,0,1.083-1.9V77.367Z" transform="translate(-385.607 -69.152)" fill="#efedef"/>
                  <path id="Trazado_880557" data-name="Trazado 880557" d="M389.016,22.593v6.3h-3.91v-5.73a2.512,2.512,0,0,0-1.318-2.21l-.511-.276H387.1A1.918,1.918,0,0,1,389.016,22.593Z" transform="translate(-383.277 -20.675)" fill="#6cabca"/>
                </g>
              </g>
            </g>
          </g>
        </g>
      </g>
      <g id="Grupo_1102437" data-name="Grupo 1102437" transform="translate(0 13.53)">
        <path id="Trazado_880558" data-name="Trazado 880558" d="M63.239,68.512H62.91l.016-38.031A2.876,2.876,0,0,0,60.051,27.6l-3.953,0V16.575a3.048,3.048,0,0,0-3.045-3.045H44.2a.959.959,0,1,0,0,1.918h8.857a1.128,1.128,0,0,1,1.127,1.127v5.094H11.3V16.575a1.128,1.128,0,0,1,1.127-1.127h27.3a.959.959,0,1,0,0-1.918h-27.3a3.048,3.048,0,0,0-3.045,3.045v11H5.442a2.881,2.881,0,0,0-2.876,2.876l0,7.21a.959.959,0,0,0,.959.959h0a.959.959,0,0,0,.959-.959l0-7.209a.96.96,0,0,1,.959-.959H9.379V60.953A3.048,3.048,0,0,0,12.424,64H53.053A3.048,3.048,0,0,0,56.1,60.953V54.66a.959.959,0,1,0-1.918,0v6.293a1.128,1.128,0,0,1-1.127,1.127H12.424A1.128,1.128,0,0,1,11.3,60.953V23.587H54.179v26.6a.959.959,0,1,0,1.918,0V29.52l3.953,0a.958.958,0,0,1,.958.959l-.016,38.032h-35.9a.959.959,0,1,0,0,1.918H63.239a.32.32,0,0,1,.32.32,2.879,2.879,0,0,1-2.877,2.877H4.8A2.881,2.881,0,0,1,1.918,70.75a.32.32,0,0,1,.32-.32H20.615a.959.959,0,0,0,0-1.918H4.467l.011-26.372a.959.959,0,0,0-.959-.96h0a.959.959,0,0,0-.959.959L2.549,68.512H2.238A2.238,2.238,0,0,0,0,70.75a4.8,4.8,0,0,0,4.8,4.8H60.681a4.8,4.8,0,0,0,4.8-4.8A2.241,2.241,0,0,0,63.239,68.512Z" transform="translate(0 -13.53)"/>
        <path id="Trazado_880559" data-name="Trazado 880559" d="M175.018,137.234v25.521a.959.959,0,1,0,1.918,0V137.234a.959.959,0,1,0-1.918,0Z" transform="translate(-152.636 -120.578)"/>
        <path id="Trazado_880560" data-name="Trazado 880560" d="M118.355,136.275H114.3a.959.959,0,1,0,0,1.918h4.05a.959.959,0,1,0,0-1.918Z" transform="translate(-98.85 -120.578)"/>
        <path id="Trazado_880561" data-name="Trazado 880561" d="M118.355,186.167H114.3a.959.959,0,1,0,0,1.918h4.05a.959.959,0,1,0,0-1.918Z" transform="translate(-98.85 -164.09)"/>
        <path id="Trazado_880562" data-name="Trazado 880562" d="M118.355,236.058H114.3a.959.959,0,1,0,0,1.918h4.05a.959.959,0,1,0,0-1.918Z" transform="translate(-98.85 -207.6)"/>
        <path id="Trazado_880563" data-name="Trazado 880563" d="M118.355,335.84H114.3a.959.959,0,0,0,0,1.918h4.05a.959.959,0,0,0,0-1.918Z" transform="translate(-98.85 -294.622)"/>
        <path id="Trazado_880564" data-name="Trazado 880564" d="M210.626,136.275h-4.649a.959.959,0,0,0,0,1.918h4.649a.959.959,0,0,0,0-1.918Z" transform="translate(-178.799 -120.578)"/>
        <path id="Trazado_880565" data-name="Trazado 880565" d="M226.806,186.167h-3.322a.959.959,0,1,0,0,1.918h3.322a.959.959,0,1,0,0-1.918Z" transform="translate(-194.068 -164.09)"/>
        <path id="Trazado_880566" data-name="Trazado 880566" d="M222.525,237.017a.959.959,0,0,0,.959.959h18.188a.959.959,0,1,0,0-1.918H223.484A.959.959,0,0,0,222.525,237.017Z" transform="translate(-194.068 -207.6)"/>
        <path id="Trazado_880567" data-name="Trazado 880567" d="M245.049,286.908a.959.959,0,0,0-.959-.959H223.484a.959.959,0,1,0,0,1.918H244.09A.959.959,0,0,0,245.049,286.908Z" transform="translate(-194.068 -251.111)"/>
        <path id="Trazado_880568" data-name="Trazado 880568" d="M223,335.84a.959.959,0,0,0,0,1.918h10.846a.959.959,0,0,0,0-1.918Z" transform="translate(-193.646 -294.622)"/>
        <path id="Trazado_880569" data-name="Trazado 880569" d="M276.051,141.458a.959.959,0,0,0-1.356.028l-2.459,2.562a.959.959,0,0,0,0,1.329l2.459,2.562a.959.959,0,1,0,1.384-1.328l-1.822-1.9,1.822-1.9A.959.959,0,0,0,276.051,141.458Z" transform="translate(-237.188 -124.865)"/>
        <path id="Trazado_880570" data-name="Trazado 880570" d="M368.534,144.047l-2.459-2.562a.959.959,0,1,0-1.384,1.328l1.822,1.9-1.822,1.9a.959.959,0,1,0,1.384,1.328l2.459-2.562a.959.959,0,0,0,0-1.328Z" transform="translate(-317.82 -124.865)"/>
        <path id="Trazado_880571" data-name="Trazado 880571" d="M320.122,144.572a.96.96,0,0,0,.906-.645l2.212-6.38a.959.959,0,1,0-1.812-.628l-2.212,6.38a.96.96,0,0,0,.906,1.273Z" transform="translate(-278.347 -120.577)"/>
        <circle id="Elipse_11551" data-name="Elipse 11551" cx="0.959" cy="0.959" r="0.959" transform="translate(13.801 4.069)"/>
        <circle id="Elipse_11552" data-name="Elipse 11552" cx="0.959" cy="0.959" r="0.959" transform="translate(18.164 4.069)"/>
        <circle id="Elipse_11553" data-name="Elipse 11553" cx="0.959" cy="0.959" r="0.959" transform="translate(22.527 4.069)"/>
      </g>
    </g>
  </g>
</svg>
