<svg xmlns="http://www.w3.org/2000/svg" xmlns:xlink="http://www.w3.org/1999/xlink" width="399.764" height="264.755" viewBox="0 0 399.764 264.755">
  <defs>
    <clipPath id="clip-path">
      <rect id="Rectángulo_401766" data-name="Rectángulo 401766" width="399.764" height="264.755" transform="translate(180.051 399)" fill="#9fc3f4"/>
    </clipPath>
    <clipPath id="clip-path-2">
      <rect id="Rectángulo_375667" data-name="Rectángulo 375667" width="259.446" height="261.543" fill="none"/>
    </clipPath>
    <clipPath id="clip-path-5">
      <rect id="Rectángulo_357036" data-name="Rectángulo 357036" width="51.687" height="52.536" fill="none"/>
    </clipPath>
    <clipPath id="clip-path-6">
      <rect id="Rectángulo_357037" data-name="Rectángulo 357037" width="40.7" height="25.063" fill="none"/>
    </clipPath>
  </defs>
  <g id="Grupo_1102936" data-name="Grupo 1102936" transform="translate(-180.523 -399)">
    <rect id="Rectángulo_35205" data-name="Rectángulo 35205" width="399.764" height="264.755" transform="translate(180.523 399)" fill="#9fc3f4"/>
    <g id="Enmascarar_grupo_1098683" data-name="Enmascarar grupo 1098683" transform="translate(0.473)" clip-path="url(#clip-path)">
      <g id="Grupo_1099900" data-name="Grupo 1099900" transform="translate(-290.134 91.985)">
        <g id="Grupo_1071765" data-name="Grupo 1071765" transform="translate(546.671 313.016)">
          <g id="Elipse_9657" data-name="Elipse 9657" transform="translate(10.817 35.998)" fill="#90d0ff" stroke="#707070" stroke-width="1">
            <ellipse cx="117.016" cy="117.277" rx="117.016" ry="117.277" stroke="none"/>
            <ellipse cx="117.016" cy="117.277" rx="116.516" ry="116.777" fill="none"/>
          </g>
          <g id="Grupo_1071753" data-name="Grupo 1071753" transform="translate(0 35.998)">
            <g id="Grupo_1071746" data-name="Grupo 1071746">
              <g id="Grupo_1071745" data-name="Grupo 1071745" clip-path="url(#clip-path-2)">
                <path id="Trazado_818484" data-name="Trazado 818484" d="M252.738,213.907H92.952V108.8a4.376,4.376,0,0,1,4.376-4.376H248.362a4.376,4.376,0,0,1,4.376,4.376Z" transform="translate(-41.92 -47.093)" fill="#263238"/>
                <path id="Trazado_818485" data-name="Trazado 818485" d="M252.738,213.907H92.952V108.8a4.376,4.376,0,0,1,4.376-4.376H248.362a4.376,4.376,0,0,1,4.376,4.376Z" transform="translate(-41.92 -47.093)" fill="none" stroke="#263238" stroke-linecap="round" stroke-linejoin="round" stroke-width="1"/>
                <path id="Trazado_818486" data-name="Trazado 818486" d="M257.018,352.24H49.3l23.968-48.4H233.05Z" transform="translate(-22.232 -137.027)" fill="#fff"/>
                <path id="Trazado_818487" data-name="Trazado 818487" d="M257.018,352.24H49.3l23.968-48.4H233.05Z" transform="translate(-22.232 -137.027)" fill="none" stroke="#263238" stroke-linecap="round" stroke-linejoin="round" stroke-width="1"/>
                <path id="Trazado_818691" data-name="Trazado 818691" d="M0,0H140.429V92.145H0Z" transform="translate(60.71 66)" fill="#dadcfd"/>
                <rect id="Rectángulo_375664" data-name="Rectángulo 375664" width="140.429" height="92.145" transform="translate(60.71 66)" fill="none" stroke="#263238" stroke-linecap="round" stroke-linejoin="round" stroke-width="1"/>
                <path id="Trazado_818488" data-name="Trazado 818488" d="M219.164,326.9l.277-5.9H211l-.559,5.9Z" transform="translate(-94.905 -144.767)" fill="#263238"/>
                <path id="Trazado_818489" data-name="Trazado 818489" d="M219.164,326.9l.277-5.9H211l-.559,5.9Z" transform="translate(-94.905 -144.767)" fill="none" stroke="#fff" stroke-linecap="round" stroke-linejoin="round" stroke-width="1"/>
                <path id="Trazado_818490" data-name="Trazado 818490" d="M250.945,326.9l-.288-5.9h-8.443l.006,5.9Z" transform="translate(-109.234 -144.767)" fill="#263238"/>
                <path id="Trazado_818491" data-name="Trazado 818491" d="M250.945,326.9l-.288-5.9h-8.443l.006,5.9Z" transform="translate(-109.234 -144.767)" fill="none" stroke="#fff" stroke-linecap="round" stroke-linejoin="round" stroke-width="1"/>
                <path id="Trazado_818492" data-name="Trazado 818492" d="M339.394,338.052h9.027l-2.119-6.306h-8.725Z" transform="translate(-152.241 -149.612)" fill="#263238"/>
                <path id="Trazado_818493" data-name="Trazado 818493" d="M339.394,338.052h9.027l-2.119-6.306h-8.725Z" transform="translate(-152.241 -149.612)" fill="none" stroke="#fff" stroke-linecap="round" stroke-linejoin="round" stroke-width="1"/>
                <path id="Trazado_818494" data-name="Trazado 818494" d="M203.272,326.9l.559-5.9h-8.443l-.842,5.9Z" transform="translate(-87.737 -144.767)" fill="#263238"/>
                <path id="Trazado_818495" data-name="Trazado 818495" d="M203.272,326.9l.559-5.9h-8.443l-.842,5.9Z" transform="translate(-87.737 -144.767)" fill="none" stroke="#fff" stroke-linecap="round" stroke-linejoin="round" stroke-width="1"/>
                <path id="Trazado_818496" data-name="Trazado 818496" d="M171.488,326.9l1.124-5.9h-8.443l-1.407,5.9Z" transform="translate(-73.403 -144.767)" fill="#263238"/>
                <path id="Trazado_818497" data-name="Trazado 818497" d="M171.488,326.9l1.124-5.9h-8.443l-1.407,5.9Z" transform="translate(-73.403 -144.767)" fill="none" stroke="#fff" stroke-linecap="round" stroke-linejoin="round" stroke-width="1"/>
                <path id="Trazado_818498" data-name="Trazado 818498" d="M313.586,326.9l-1.417-5.9h-8.443l1.135,5.9Z" transform="translate(-136.975 -144.767)" fill="#263238"/>
                <path id="Trazado_818499" data-name="Trazado 818499" d="M313.586,326.9l-1.417-5.9h-8.443l1.135,5.9Z" transform="translate(-136.975 -144.767)" fill="none" stroke="#fff" stroke-linecap="round" stroke-linejoin="round" stroke-width="1"/>
                <path id="Trazado_818500" data-name="Trazado 818500" d="M329.246,326.9l-1.7-5.9H319.1l1.418,5.9Z" transform="translate(-143.91 -144.767)" fill="#263238"/>
                <path id="Trazado_818501" data-name="Trazado 818501" d="M329.246,326.9l-1.7-5.9H319.1l1.418,5.9Z" transform="translate(-143.91 -144.767)" fill="none" stroke="#fff" stroke-linecap="round" stroke-linejoin="round" stroke-width="1"/>
                <path id="Trazado_818502" data-name="Trazado 818502" d="M155.6,326.9,157,321h-8.442l-1.689,5.9Z" transform="translate(-66.236 -144.767)" fill="#263238"/>
                <path id="Trazado_818503" data-name="Trazado 818503" d="M155.6,326.9,157,321h-8.442l-1.689,5.9Z" transform="translate(-66.236 -144.767)" fill="none" stroke="#fff" stroke-linecap="round" stroke-linejoin="round" stroke-width="1"/>
                <path id="Trazado_818504" data-name="Trazado 818504" d="M266.6,326.9l-.57-5.9h-8.443l.288,5.9Z" transform="translate(-116.17 -144.767)" fill="#263238"/>
                <path id="Trazado_818505" data-name="Trazado 818505" d="M266.6,326.9l-.57-5.9h-8.443l.288,5.9Z" transform="translate(-116.17 -144.767)" fill="none" stroke="#fff" stroke-linecap="round" stroke-linejoin="round" stroke-width="1"/>
                <path id="Trazado_818506" data-name="Trazado 818506" d="M344.906,326.9l-1.982-5.9h-8.442l1.7,5.9Z" transform="translate(-150.846 -144.767)" fill="#263238"/>
                <path id="Trazado_818507" data-name="Trazado 818507" d="M344.906,326.9l-1.982-5.9h-8.442l1.7,5.9Z" transform="translate(-150.846 -144.767)" fill="none" stroke="#fff" stroke-linecap="round" stroke-linejoin="round" stroke-width="1"/>
                <path id="Trazado_818508" data-name="Trazado 818508" d="M297.925,326.9,296.79,321h-8.443l.853,5.9Z" transform="translate(-130.04 -144.767)" fill="#263238"/>
                <path id="Trazado_818509" data-name="Trazado 818509" d="M297.925,326.9,296.79,321h-8.443l.853,5.9Z" transform="translate(-130.04 -144.767)" fill="none" stroke="#fff" stroke-linecap="round" stroke-linejoin="round" stroke-width="1"/>
                <path id="Trazado_818510" data-name="Trazado 818510" d="M282.265,326.9l-.852-5.9h-8.443l.57,5.9Z" transform="translate(-123.104 -144.767)" fill="#263238"/>
                <path id="Trazado_818511" data-name="Trazado 818511" d="M282.265,326.9l-.852-5.9h-8.443l.57,5.9Z" transform="translate(-123.104 -144.767)" fill="none" stroke="#fff" stroke-linecap="round" stroke-linejoin="round" stroke-width="1"/>
                <path id="Trazado_818512" data-name="Trazado 818512" d="M235.057,326.9l-.005-5.9h-8.443l-.277,5.9Z" transform="translate(-102.072 -144.767)" fill="#263238"/>
                <path id="Trazado_818513" data-name="Trazado 818513" d="M235.057,326.9l-.005-5.9h-8.443l-.277,5.9Z" transform="translate(-102.072 -144.767)" fill="none" stroke="#fff" stroke-linecap="round" stroke-linejoin="round" stroke-width="1"/>
                <path id="Trazado_818514" data-name="Trazado 818514" d="M121.832,331.746h-8.725l-2.409,6.306h9.026Z" transform="translate(-49.923 -149.612)" fill="#263238"/>
                <path id="Trazado_818515" data-name="Trazado 818515" d="M121.832,331.746h-8.725l-2.409,6.306h9.026Z" transform="translate(-49.923 -149.612)" fill="none" stroke="#fff" stroke-linecap="round" stroke-linejoin="round" stroke-width="1"/>
                <path id="Trazado_818516" data-name="Trazado 818516" d="M125.782,321h-8.443l-2.253,5.9h8.725Z" transform="translate(-51.902 -144.767)" fill="#263238"/>
                <path id="Trazado_818517" data-name="Trazado 818517" d="M125.782,321h-8.443l-2.253,5.9h8.725Z" transform="translate(-51.902 -144.767)" fill="none" stroke="#fff" stroke-linecap="round" stroke-linejoin="round" stroke-width="1"/>
                <path id="Trazado_818518" data-name="Trazado 818518" d="M139.7,326.9l1.688-5.9h-8.442l-1.971,5.9Z" transform="translate(-59.069 -144.767)" fill="#263238"/>
                <path id="Trazado_818519" data-name="Trazado 818519" d="M139.7,326.9l1.688-5.9h-8.442l-1.971,5.9Z" transform="translate(-59.069 -144.767)" fill="none" stroke="#fff" stroke-linecap="round" stroke-linejoin="round" stroke-width="1"/>
                <path id="Trazado_818520" data-name="Trazado 818520" d="M103.717,355.541l-2.774,7.26h9.7l2.426-7.26Z" transform="translate(-45.524 -160.343)" fill="#263238"/>
                <path id="Trazado_818521" data-name="Trazado 818521" d="M103.717,355.541l-2.774,7.26h9.7l2.426-7.26Z" transform="translate(-45.524 -160.343)" fill="none" stroke="#fff" stroke-linecap="round" stroke-linejoin="round" stroke-width="1"/>
                <path id="Trazado_818522" data-name="Trazado 818522" d="M117.6,343.232h-9.027l-2.582,6.758h9.351Z" transform="translate(-47.802 -154.792)" fill="#263238"/>
                <path id="Trazado_818523" data-name="Trazado 818523" d="M117.6,343.232h-9.027l-2.582,6.758h9.351Z" transform="translate(-47.802 -154.792)" fill="none" stroke="#fff" stroke-linecap="round" stroke-linejoin="round" stroke-width="1"/>
                <path id="Trazado_818524" data-name="Trazado 818524" d="M121.034,355.541l-2.426,7.26h9.7l2.079-7.26Z" transform="translate(-53.49 -160.343)" fill="#263238"/>
                <path id="Trazado_818525" data-name="Trazado 818525" d="M121.034,355.541l-2.426,7.26h9.7l2.079-7.26Z" transform="translate(-53.49 -160.343)" fill="none" stroke="#fff" stroke-linecap="round" stroke-linejoin="round" stroke-width="1"/>
                <path id="Trazado_818526" data-name="Trazado 818526" d="M187.38,326.9l.842-5.9h-8.443l-1.124,5.9Z" transform="translate(-80.57 -144.767)" fill="#263238"/>
                <path id="Trazado_818527" data-name="Trazado 818527" d="M187.38,326.9l.842-5.9h-8.443l-1.124,5.9Z" transform="translate(-80.57 -144.767)" fill="none" stroke="#fff" stroke-linecap="round" stroke-linejoin="round" stroke-width="1"/>
                <path id="Trazado_818528" data-name="Trazado 818528" d="M185.493,338.052l.9-6.306h-8.725l-1.2,6.306Z" transform="translate(-79.583 -149.612)" fill="#263238"/>
                <path id="Trazado_818529" data-name="Trazado 818529" d="M185.493,338.052l.9-6.306h-8.725l-1.2,6.306Z" transform="translate(-79.583 -149.612)" fill="none" stroke="#fff" stroke-linecap="round" stroke-linejoin="round" stroke-width="1"/>
                <path id="Trazado_818530" data-name="Trazado 818530" d="M169.051,338.052l1.2-6.306h-8.726l-1.5,6.306Z" transform="translate(-72.168 -149.612)" fill="#263238"/>
                <path id="Trazado_818531" data-name="Trazado 818531" d="M169.051,338.052l1.2-6.306h-8.726l-1.5,6.306Z" transform="translate(-72.168 -149.612)" fill="none" stroke="#fff" stroke-linecap="round" stroke-linejoin="round" stroke-width="1"/>
                <path id="Trazado_818532" data-name="Trazado 818532" d="M201.935,338.052l.6-6.306h-8.725l-.9,6.306Z" transform="translate(-86.998 -149.612)" fill="#263238"/>
                <path id="Trazado_818533" data-name="Trazado 818533" d="M201.935,338.052l.6-6.306h-8.725l-.9,6.306Z" transform="translate(-86.998 -149.612)" fill="none" stroke="#fff" stroke-linecap="round" stroke-linejoin="round" stroke-width="1"/>
                <path id="Trazado_818534" data-name="Trazado 818534" d="M137.972,331.746h-8.725l-2.108,6.306h9.027Z" transform="translate(-57.338 -149.612)" fill="#263238"/>
                <path id="Trazado_818535" data-name="Trazado 818535" d="M137.972,331.746h-8.725l-2.108,6.306h9.027Z" transform="translate(-57.338 -149.612)" fill="none" stroke="#fff" stroke-linecap="round" stroke-linejoin="round" stroke-width="1"/>
                <path id="Trazado_818536" data-name="Trazado 818536" d="M342.834,349.99h9.35l-2.271-6.758h-9.027Z" transform="translate(-153.734 -154.792)" fill="#263238"/>
                <path id="Trazado_818537" data-name="Trazado 818537" d="M342.834,349.99h9.35l-2.271-6.758h-9.027Z" transform="translate(-153.734 -154.792)" fill="none" stroke="#fff" stroke-linecap="round" stroke-linejoin="round" stroke-width="1"/>
                <path id="Trazado_818538" data-name="Trazado 818538" d="M152.609,338.052l1.5-6.306h-8.725l-1.805,6.306Z" transform="translate(-64.753 -149.612)" fill="#263238"/>
                <path id="Trazado_818539" data-name="Trazado 818539" d="M152.609,338.052l1.5-6.306h-8.725l-1.805,6.306Z" transform="translate(-64.753 -149.612)" fill="none" stroke="#fff" stroke-linecap="round" stroke-linejoin="round" stroke-width="1"/>
                <path id="Trazado_818540" data-name="Trazado 818540" d="M125.285,343.232l-2.258,6.758h9.35l1.935-6.758Z" transform="translate(-55.483 -154.792)" fill="#263238"/>
                <path id="Trazado_818541" data-name="Trazado 818541" d="M125.285,343.232l-2.258,6.758h9.35l1.935-6.758Z" transform="translate(-55.483 -154.792)" fill="none" stroke="#fff" stroke-linecap="round" stroke-linejoin="round" stroke-width="1"/>
                <path id="Trazado_818542" data-name="Trazado 818542" d="M299.839,338.052l-1.213-6.306H289.9l.911,6.306Z" transform="translate(-130.74 -149.612)" fill="#263238"/>
                <path id="Trazado_818543" data-name="Trazado 818543" d="M299.839,338.052l-1.213-6.306H289.9l.911,6.306Z" transform="translate(-130.74 -149.612)" fill="none" stroke="#fff" stroke-linecap="round" stroke-linejoin="round" stroke-width="1"/>
                <path id="Trazado_818544" data-name="Trazado 818544" d="M283.645,338.052l-.911-6.306h-8.726l.61,6.306Z" transform="translate(-123.573 -149.612)" fill="#263238"/>
                <path id="Trazado_818545" data-name="Trazado 818545" d="M283.645,338.052l-.911-6.306h-8.726l.61,6.306Z" transform="translate(-123.573 -149.612)" fill="none" stroke="#fff" stroke-linecap="round" stroke-linejoin="round" stroke-width="1"/>
                <path id="Trazado_818546" data-name="Trazado 818546" d="M332.227,338.052l-1.817-6.306h-8.725l1.515,6.306Z" transform="translate(-145.074 -149.612)" fill="#263238"/>
                <path id="Trazado_818547" data-name="Trazado 818547" d="M332.227,338.052l-1.817-6.306h-8.725l1.515,6.306Z" transform="translate(-145.074 -149.612)" fill="none" stroke="#fff" stroke-linecap="round" stroke-linejoin="round" stroke-width="1"/>
                <path id="Trazado_818548" data-name="Trazado 818548" d="M234.819,338.052l-.005-6.306h-8.726l-.3,6.306Z" transform="translate(-101.828 -149.612)" fill="#263238"/>
                <path id="Trazado_818549" data-name="Trazado 818549" d="M234.819,338.052l-.005-6.306h-8.726l-.3,6.306Z" transform="translate(-101.828 -149.612)" fill="none" stroke="#fff" stroke-linecap="round" stroke-linejoin="round" stroke-width="1"/>
                <path id="Trazado_818550" data-name="Trazado 818550" d="M267.451,338.052l-.609-6.306h-8.725l.307,6.306Z" transform="translate(-116.406 -149.612)" fill="#263238"/>
                <path id="Trazado_818551" data-name="Trazado 818551" d="M267.451,338.052l-.609-6.306h-8.725l.307,6.306Z" transform="translate(-116.406 -149.612)" fill="none" stroke="#fff" stroke-linecap="round" stroke-linejoin="round" stroke-width="1"/>
                <path id="Trazado_818552" data-name="Trazado 818552" d="M251.257,338.052l-.308-6.306h-8.725l.006,6.306Z" transform="translate(-109.239 -149.612)" fill="#263238"/>
                <path id="Trazado_818553" data-name="Trazado 818553" d="M251.257,338.052l-.308-6.306h-8.725l.006,6.306Z" transform="translate(-109.239 -149.612)" fill="none" stroke="#fff" stroke-linecap="round" stroke-linejoin="round" stroke-width="1"/>
                <path id="Trazado_818554" data-name="Trazado 818554" d="M218.377,338.052l.3-6.306h-8.725l-.6,6.306Z" transform="translate(-94.413 -149.612)" fill="#263238"/>
                <path id="Trazado_818555" data-name="Trazado 818555" d="M218.377,338.052l.3-6.306h-8.725l-.6,6.306Z" transform="translate(-94.413 -149.612)" fill="none" stroke="#fff" stroke-linecap="round" stroke-linejoin="round" stroke-width="1"/>
                <path id="Trazado_818556" data-name="Trazado 818556" d="M275.118,343.232l.653,6.758h9.35l-.977-6.758Z" transform="translate(-124.074 -154.792)" fill="#263238"/>
                <path id="Trazado_818557" data-name="Trazado 818557" d="M275.118,343.232l.653,6.758h9.35l-.977-6.758Z" transform="translate(-124.074 -154.792)" fill="none" stroke="#fff" stroke-linecap="round" stroke-linejoin="round" stroke-width="1"/>
                <path id="Trazado_818558" data-name="Trazado 818558" d="M291.561,343.232l.977,6.758h9.35l-1.3-6.758Z" transform="translate(-131.489 -154.792)" fill="#263238"/>
                <path id="Trazado_818559" data-name="Trazado 818559" d="M291.561,343.232l.977,6.758h9.35l-1.3-6.758Z" transform="translate(-131.489 -154.792)" fill="none" stroke="#fff" stroke-linecap="round" stroke-linejoin="round" stroke-width="1"/>
                <path id="Trazado_818560" data-name="Trazado 818560" d="M141.993,343.232l-1.935,6.758h9.35l1.611-6.758Z" transform="translate(-63.164 -154.792)" fill="#263238"/>
                <path id="Trazado_818561" data-name="Trazado 818561" d="M141.993,343.232l-1.935,6.758h9.35l1.611-6.758Z" transform="translate(-63.164 -154.792)" fill="none" stroke="#fff" stroke-linecap="round" stroke-linejoin="round" stroke-width="1"/>
                <path id="Trazado_818562" data-name="Trazado 818562" d="M308,343.232l1.3,6.758h9.351l-1.624-6.758Z" transform="translate(-138.904 -154.792)" fill="#263238"/>
                <path id="Trazado_818563" data-name="Trazado 818563" d="M308,343.232l1.3,6.758h9.351l-1.624-6.758Z" transform="translate(-138.904 -154.792)" fill="none" stroke="#fff" stroke-linecap="round" stroke-linejoin="round" stroke-width="1"/>
                <path id="Trazado_818564" data-name="Trazado 818564" d="M242.234,343.232l.007,6.758h9.35l-.33-6.758Z" transform="translate(-109.243 -154.792)" fill="#263238"/>
                <path id="Trazado_818565" data-name="Trazado 818565" d="M242.234,343.232l.007,6.758h9.35l-.33-6.758Z" transform="translate(-109.243 -154.792)" fill="none" stroke="#fff" stroke-linecap="round" stroke-linejoin="round" stroke-width="1"/>
                <path id="Trazado_818566" data-name="Trazado 818566" d="M324.445,343.232l1.624,6.758h9.35l-1.947-6.758Z" transform="translate(-146.319 -154.792)" fill="#263238"/>
                <path id="Trazado_818567" data-name="Trazado 818567" d="M324.445,343.232l1.624,6.758h9.35l-1.947-6.758Z" transform="translate(-146.319 -154.792)" fill="none" stroke="#fff" stroke-linecap="round" stroke-linejoin="round" stroke-width="1"/>
                <path id="Trazado_818568" data-name="Trazado 818568" d="M258.677,343.232l.329,6.758h9.351l-.653-6.758Z" transform="translate(-116.659 -154.792)" fill="#263238"/>
                <path id="Trazado_818569" data-name="Trazado 818569" d="M258.677,343.232l.329,6.758h9.351l-.653-6.758Z" transform="translate(-116.659 -154.792)" fill="none" stroke="#fff" stroke-linecap="round" stroke-linejoin="round" stroke-width="1"/>
                <path id="Trazado_818570" data-name="Trazado 818570" d="M175.408,343.232l-1.288,6.758h9.351l.964-6.758Z" transform="translate(-78.525 -154.792)" fill="#263238"/>
                <path id="Trazado_818571" data-name="Trazado 818571" d="M175.408,343.232l-1.288,6.758h9.351l.964-6.758Z" transform="translate(-78.525 -154.792)" fill="none" stroke="#fff" stroke-linecap="round" stroke-linejoin="round" stroke-width="1"/>
                <path id="Trazado_818572" data-name="Trazado 818572" d="M158.7,343.232l-1.611,6.758h9.35l1.288-6.758Z" transform="translate(-70.844 -154.792)" fill="#263238"/>
                <path id="Trazado_818573" data-name="Trazado 818573" d="M158.7,343.232l-1.611,6.758h9.35l1.288-6.758Z" transform="translate(-70.844 -154.792)" fill="none" stroke="#fff" stroke-linecap="round" stroke-linejoin="round" stroke-width="1"/>
                <path id="Trazado_818574" data-name="Trazado 818574" d="M225.531,343.232l-.317,6.758h9.351l-.007-6.758Z" transform="translate(-101.568 -154.792)" fill="#263238"/>
                <path id="Trazado_818575" data-name="Trazado 818575" d="M225.531,343.232l-.317,6.758h9.351l-.007-6.758Z" transform="translate(-101.568 -154.792)" fill="none" stroke="#fff" stroke-linecap="round" stroke-linejoin="round" stroke-width="1"/>
                <path id="Trazado_818576" data-name="Trazado 818576" d="M208.824,343.232l-.641,6.758h9.35l.317-6.758Z" transform="translate(-93.887 -154.792)" fill="#263238"/>
                <path id="Trazado_818577" data-name="Trazado 818577" d="M208.824,343.232l-.641,6.758h9.35l.317-6.758Z" transform="translate(-93.887 -154.792)" fill="none" stroke="#fff" stroke-linecap="round" stroke-linejoin="round" stroke-width="1"/>
                <path id="Trazado_818578" data-name="Trazado 818578" d="M192.116,343.232l-.964,6.758h9.35l.641-6.758Z" transform="translate(-86.206 -154.792)" fill="#263238"/>
                <path id="Trazado_818579" data-name="Trazado 818579" d="M192.116,343.232l-.964,6.758h9.35l.641-6.758Z" transform="translate(-86.206 -154.792)" fill="none" stroke="#fff" stroke-linecap="round" stroke-linejoin="round" stroke-width="1"/>
                <path id="Trazado_818580" data-name="Trazado 818580" d="M316.033,338.052l-1.515-6.306h-8.725l1.213,6.306Z" transform="translate(-137.907 -149.612)" fill="#263238"/>
                <path id="Trazado_818581" data-name="Trazado 818581" d="M316.033,338.052l-1.515-6.306h-8.725l1.213,6.306Z" transform="translate(-137.907 -149.612)" fill="none" stroke="#fff" stroke-linecap="round" stroke-linejoin="round" stroke-width="1"/>
                <path id="Trazado_818582" data-name="Trazado 818582" d="M127.633,316.045l2.017-6.036H121.5l-2.306,6.036Z" transform="translate(-53.753 -139.809)" fill="#263238"/>
                <path id="Trazado_818583" data-name="Trazado 818583" d="M127.633,316.045l2.017-6.036H121.5l-2.306,6.036Z" transform="translate(-53.753 -139.809)" fill="none" stroke="#fff" stroke-linecap="round" stroke-linejoin="round" stroke-width="1"/>
                <path id="Trazado_818584" data-name="Trazado 818584" d="M110.723,321H102.93l-2.514,5.9h8.054Z" transform="translate(-45.286 -144.767)" fill="#263238"/>
                <path id="Trazado_818585" data-name="Trazado 818585" d="M110.723,321H102.93l-2.514,5.9h8.054Z" transform="translate(-45.286 -144.767)" fill="none" stroke="#fff" stroke-linecap="round" stroke-linejoin="round" stroke-width="1"/>
                <path id="Trazado_818586" data-name="Trazado 818586" d="M115.095,310.009h-7.526l-2.573,6.036h7.793Z" transform="translate(-47.351 -139.809)" fill="#263238"/>
                <path id="Trazado_818587" data-name="Trazado 818587" d="M115.095,310.009h-7.526l-2.573,6.036h7.793Z" transform="translate(-47.351 -139.809)" fill="none" stroke="#fff" stroke-linecap="round" stroke-linejoin="round" stroke-width="1"/>
                <path id="Trazado_818588" data-name="Trazado 818588" d="M106.262,331.746H98.208l-2.688,6.306h8.333Z" transform="translate(-43.078 -149.612)" fill="#263238"/>
                <path id="Trazado_818589" data-name="Trazado 818589" d="M106.262,331.746H98.208l-2.688,6.306h8.333Z" transform="translate(-43.078 -149.612)" fill="none" stroke="#fff" stroke-linecap="round" stroke-linejoin="round" stroke-width="1"/>
                <path id="Trazado_818590" data-name="Trazado 818590" d="M101.487,343.232H93.154l-2.88,6.758H98.9Z" transform="translate(-40.712 -154.792)" fill="#263238"/>
                <path id="Trazado_818591" data-name="Trazado 818591" d="M101.487,343.232H93.154l-2.88,6.758H98.9Z" transform="translate(-40.712 -154.792)" fill="none" stroke="#fff" stroke-linecap="round" stroke-linejoin="round" stroke-width="1"/>
                <path id="Trazado_818592" data-name="Trazado 818592" d="M96.363,355.541H87.732l-3.095,7.26h8.952Z" transform="translate(-38.17 -160.343)" fill="#263238"/>
                <path id="Trazado_818593" data-name="Trazado 818593" d="M96.363,355.541H87.732l-3.095,7.26h8.952Z" transform="translate(-38.17 -160.343)" fill="none" stroke="#fff" stroke-linecap="round" stroke-linejoin="round" stroke-width="1"/>
                <path id="Trazado_818594" data-name="Trazado 818594" d="M369.361,331.746l2.421,6.306h7.985l-2.687-6.306Z" transform="translate(-166.576 -149.612)" fill="#263238"/>
                <path id="Trazado_818595" data-name="Trazado 818595" d="M369.361,331.746l2.421,6.306h7.985l-2.687-6.306Z" transform="translate(-166.576 -149.612)" fill="none" stroke="#fff" stroke-linecap="round" stroke-linejoin="round" stroke-width="1"/>
                <path id="Trazado_818596" data-name="Trazado 818596" d="M376.365,349.99h8.272l-2.88-6.758h-7.985Z" transform="translate(-168.564 -154.792)" fill="#263238"/>
                <path id="Trazado_818597" data-name="Trazado 818597" d="M376.365,349.99h8.272l-2.88-6.758h-7.985Z" transform="translate(-168.564 -154.792)" fill="none" stroke="#fff" stroke-linecap="round" stroke-linejoin="round" stroke-width="1"/>
                <path id="Trazado_818598" data-name="Trazado 818598" d="M381.283,362.8h8.579l-3.094-7.26H378.5Z" transform="translate(-170.695 -160.343)" fill="#263238"/>
                <path id="Trazado_818599" data-name="Trazado 818599" d="M381.283,362.8h8.579l-3.094-7.26H378.5Z" transform="translate(-170.695 -160.343)" fill="none" stroke="#fff" stroke-linecap="round" stroke-linejoin="round" stroke-width="1"/>
                <path id="Trazado_818600" data-name="Trazado 818600" d="M250.652,316.045l-.294-6.036H242.2l.006,6.036Z" transform="translate(-109.23 -139.809)" fill="#263238"/>
                <path id="Trazado_818601" data-name="Trazado 818601" d="M250.652,316.045l-.294-6.036H242.2l.006,6.036Z" transform="translate(-109.23 -139.809)" fill="none" stroke="#fff" stroke-linecap="round" stroke-linejoin="round" stroke-width="1"/>
                <path id="Trazado_818602" data-name="Trazado 818602" d="M367.5,326.9h7.719l-2.514-5.9h-7.469Z" transform="translate(-164.716 -144.767)" fill="#263238"/>
                <path id="Trazado_818603" data-name="Trazado 818603" d="M367.5,326.9h7.719l-2.514-5.9h-7.469Z" transform="translate(-164.716 -144.767)" fill="none" stroke="#fff" stroke-linecap="round" stroke-linejoin="round" stroke-width="1"/>
                <path id="Trazado_818604" data-name="Trazado 818604" d="M359.6,349.99h9.35l-2.594-6.758h-9.027Z" transform="translate(-161.149 -154.792)" fill="#263238"/>
                <path id="Trazado_818605" data-name="Trazado 818605" d="M359.6,349.99h9.35l-2.594-6.758h-9.027Z" transform="translate(-161.149 -154.792)" fill="none" stroke="#fff" stroke-linecap="round" stroke-linejoin="round" stroke-width="1"/>
                <path id="Trazado_818606" data-name="Trazado 818606" d="M143.011,316.045l1.728-6.036h-8.154l-2.017,6.036Z" transform="translate(-60.688 -139.809)" fill="#263238"/>
                <path id="Trazado_818607" data-name="Trazado 818607" d="M143.011,316.045l1.728-6.036h-8.154l-2.017,6.036Z" transform="translate(-60.688 -139.809)" fill="none" stroke="#fff" stroke-linecap="round" stroke-linejoin="round" stroke-width="1"/>
                <path id="Trazado_818608" data-name="Trazado 818608" d="M349.86,321l1.982,5.9h8.725L358.3,321Z" transform="translate(-157.781 -144.767)" fill="#263238"/>
                <path id="Trazado_818609" data-name="Trazado 818609" d="M349.86,321l1.982,5.9h8.725L358.3,321Z" transform="translate(-157.781 -144.767)" fill="none" stroke="#fff" stroke-linecap="round" stroke-linejoin="round" stroke-width="1"/>
                <path id="Trazado_818610" data-name="Trazado 818610" d="M370.8,316.045l-2.573-6.036h-7.213l2.317,6.036Z" transform="translate(-162.812 -139.809)" fill="#263238"/>
                <path id="Trazado_818611" data-name="Trazado 818611" d="M370.8,316.045l-2.573-6.036h-7.213l2.317,6.036Z" transform="translate(-162.812 -139.809)" fill="none" stroke="#fff" stroke-linecap="round" stroke-linejoin="round" stroke-width="1"/>
                <path id="Trazado_818612" data-name="Trazado 818612" d="M356.636,316.045l-2.317-6.036h-8.154l2.029,6.036Z" transform="translate(-156.114 -139.809)" fill="#263238"/>
                <path id="Trazado_818613" data-name="Trazado 818613" d="M356.636,316.045l-2.317-6.036h-8.154l2.029,6.036Z" transform="translate(-156.114 -139.809)" fill="none" stroke="#fff" stroke-linecap="round" stroke-linejoin="round" stroke-width="1"/>
                <path id="Trazado_818614" data-name="Trazado 818614" d="M310.371,355.541l1.4,7.26h9.7l-1.745-7.26Z" transform="translate(-139.972 -160.343)" fill="#263238"/>
                <path id="Trazado_818615" data-name="Trazado 818615" d="M310.371,355.541l1.4,7.26h9.7l-1.745-7.26Z" transform="translate(-139.972 -160.343)" fill="none" stroke="#fff" stroke-linecap="round" stroke-linejoin="round" stroke-width="1"/>
                <path id="Trazado_818616" data-name="Trazado 818616" d="M363.9,362.8h9.7l-2.787-7.26h-9.35Z" transform="translate(-163.015 -160.343)" fill="#263238"/>
                <path id="Trazado_818617" data-name="Trazado 818617" d="M363.9,362.8h9.7l-2.787-7.26h-9.35Z" transform="translate(-163.015 -160.343)" fill="none" stroke="#fff" stroke-linecap="round" stroke-linejoin="round" stroke-width="1"/>
                <path id="Trazado_818618" data-name="Trazado 818618" d="M341.5,316.045l-2.028-6.036h-8.154l1.739,6.036Z" transform="translate(-149.417 -139.809)" fill="#263238"/>
                <path id="Trazado_818619" data-name="Trazado 818619" d="M341.5,316.045l-2.028-6.036h-8.154l1.739,6.036Z" transform="translate(-149.417 -139.809)" fill="none" stroke="#fff" stroke-linecap="round" stroke-linejoin="round" stroke-width="1"/>
                <path id="Trazado_818620" data-name="Trazado 818620" d="M344.434,355.541l2.092,7.26h9.7l-2.44-7.26Z" transform="translate(-155.334 -160.343)" fill="#263238"/>
                <path id="Trazado_818621" data-name="Trazado 818621" d="M344.434,355.541l2.092,7.26h9.7l-2.44-7.26Z" transform="translate(-155.334 -160.343)" fill="none" stroke="#fff" stroke-linecap="round" stroke-linejoin="round" stroke-width="1"/>
                <path id="Trazado_818622" data-name="Trazado 818622" d="M327.4,355.541l1.745,7.26h9.7l-2.092-7.26Z" transform="translate(-147.653 -160.343)" fill="#263238"/>
                <path id="Trazado_818623" data-name="Trazado 818623" d="M327.4,355.541l1.745,7.26h9.7l-2.092-7.26Z" transform="translate(-147.653 -160.343)" fill="none" stroke="#fff" stroke-linecap="round" stroke-linejoin="round" stroke-width="1"/>
                <path id="Trazado_818624" data-name="Trazado 818624" d="M355.588,338.052h9.027l-2.421-6.306h-8.726Z" transform="translate(-159.408 -149.612)" fill="#263238"/>
                <path id="Trazado_818625" data-name="Trazado 818625" d="M355.588,338.052h9.027l-2.421-6.306h-8.726Z" transform="translate(-159.408 -149.612)" fill="none" stroke="#fff" stroke-linecap="round" stroke-linejoin="round" stroke-width="1"/>
                <path id="Trazado_818626" data-name="Trazado 818626" d="M204.523,316.045l.573-6.036h-8.154l-.861,6.036Z" transform="translate(-88.429 -139.809)" fill="#263238"/>
                <path id="Trazado_818627" data-name="Trazado 818627" d="M204.523,316.045l.573-6.036h-8.154l-.861,6.036Z" transform="translate(-88.429 -139.809)" fill="none" stroke="#fff" stroke-linecap="round" stroke-linejoin="round" stroke-width="1"/>
                <path id="Trazado_818628" data-name="Trazado 818628" d="M326.355,316.045l-1.739-6.036h-8.154l1.451,6.036Z" transform="translate(-142.719 -139.809)" fill="#263238"/>
                <path id="Trazado_818629" data-name="Trazado 818629" d="M326.355,316.045l-1.739-6.036h-8.154l1.451,6.036Z" transform="translate(-142.719 -139.809)" fill="none" stroke="#fff" stroke-linecap="round" stroke-linejoin="round" stroke-width="1"/>
                <path id="Trazado_818630" data-name="Trazado 818630" d="M189.145,316.045l.861-6.036h-8.154l-1.15,6.036Z" transform="translate(-81.493 -139.809)" fill="#263238"/>
                <path id="Trazado_818631" data-name="Trazado 818631" d="M189.145,316.045l.861-6.036h-8.154l-1.15,6.036Z" transform="translate(-81.493 -139.809)" fill="none" stroke="#fff" stroke-linecap="round" stroke-linejoin="round" stroke-width="1"/>
                <path id="Trazado_818632" data-name="Trazado 818632" d="M235.278,316.045l-.005-6.036h-8.154l-.283,6.036Z" transform="translate(-102.299 -139.809)" fill="#263238"/>
                <path id="Trazado_818633" data-name="Trazado 818633" d="M235.278,316.045l-.005-6.036h-8.154l-.283,6.036Z" transform="translate(-102.299 -139.809)" fill="none" stroke="#fff" stroke-linecap="round" stroke-linejoin="round" stroke-width="1"/>
                <path id="Trazado_818634" data-name="Trazado 818634" d="M173.767,316.045l1.15-6.036h-8.153l-1.44,6.036Z" transform="translate(-74.558 -139.809)" fill="#263238"/>
                <path id="Trazado_818635" data-name="Trazado 818635" d="M173.767,316.045l1.15-6.036h-8.153l-1.44,6.036Z" transform="translate(-74.558 -139.809)" fill="none" stroke="#fff" stroke-linecap="round" stroke-linejoin="round" stroke-width="1"/>
                <path id="Trazado_818636" data-name="Trazado 818636" d="M158.388,316.045l1.44-6.036h-8.154l-1.728,6.036Z" transform="translate(-67.623 -139.809)" fill="#263238"/>
                <path id="Trazado_818637" data-name="Trazado 818637" d="M158.388,316.045l1.44-6.036h-8.154l-1.728,6.036Z" transform="translate(-67.623 -139.809)" fill="none" stroke="#fff" stroke-linecap="round" stroke-linejoin="round" stroke-width="1"/>
                <path id="Trazado_818638" data-name="Trazado 818638" d="M219.9,316.045l.283-6.036h-8.153l-.573,6.036Z" transform="translate(-95.364 -139.809)" fill="#263238"/>
                <path id="Trazado_818639" data-name="Trazado 818639" d="M219.9,316.045l.283-6.036h-8.153l-.573,6.036Z" transform="translate(-95.364 -139.809)" fill="none" stroke="#fff" stroke-linecap="round" stroke-linejoin="round" stroke-width="1"/>
                <path id="Trazado_818640" data-name="Trazado 818640" d="M311.215,316.045l-1.451-6.036h-8.153l1.161,6.036Z" transform="translate(-136.021 -139.809)" fill="#263238"/>
                <path id="Trazado_818641" data-name="Trazado 818641" d="M311.215,316.045l-1.451-6.036h-8.153l1.161,6.036Z" transform="translate(-136.021 -139.809)" fill="none" stroke="#fff" stroke-linecap="round" stroke-linejoin="round" stroke-width="1"/>
                <path id="Trazado_818642" data-name="Trazado 818642" d="M296.074,316.045l-1.162-6.036h-8.153l.872,6.036Z" transform="translate(-129.323 -139.809)" fill="#263238"/>
                <path id="Trazado_818643" data-name="Trazado 818643" d="M296.074,316.045l-1.162-6.036h-8.153l.872,6.036Z" transform="translate(-129.323 -139.809)" fill="none" stroke="#fff" stroke-linecap="round" stroke-linejoin="round" stroke-width="1"/>
                <path id="Trazado_818644" data-name="Trazado 818644" d="M265.793,316.045l-.584-6.036h-8.153l.294,6.036Z" transform="translate(-115.928 -139.809)" fill="#263238"/>
                <path id="Trazado_818645" data-name="Trazado 818645" d="M265.793,316.045l-.584-6.036h-8.153l.294,6.036Z" transform="translate(-115.928 -139.809)" fill="none" stroke="#fff" stroke-linecap="round" stroke-linejoin="round" stroke-width="1"/>
                <path id="Trazado_818646" data-name="Trazado 818646" d="M231.855,355.541h-93.5l-2.079,7.26h96.98Z" transform="translate(-61.456 -160.343)" fill="#263238"/>
                <path id="Trazado_818647" data-name="Trazado 818647" d="M231.855,355.541h-93.5l-2.079,7.26h96.98Z" transform="translate(-61.456 -160.343)" fill="none" stroke="#fff" stroke-linecap="round" stroke-linejoin="round" stroke-width="1"/>
                <path id="Trazado_818648" data-name="Trazado 818648" d="M280.933,316.045l-.872-6.036h-8.154l.584,6.036Z" transform="translate(-122.625 -139.809)" fill="#263238"/>
                <path id="Trazado_818649" data-name="Trazado 818649" d="M280.933,316.045l-.872-6.036h-8.154l.584,6.036Z" transform="translate(-122.625 -139.809)" fill="none" stroke="#fff" stroke-linecap="round" stroke-linejoin="round" stroke-width="1"/>
                <rect id="Rectángulo_375665" data-name="Rectángulo 375665" width="207.817" height="2.949" transform="translate(27.064 215.213)" fill="#263238"/>
                <rect id="Rectángulo_375666" data-name="Rectángulo 375666" width="207.817" height="2.949" transform="translate(27.064 215.213)" fill="none" stroke="#263238" stroke-linecap="round" stroke-linejoin="round" stroke-width="1"/>
              </g>
            </g>
            <line id="Línea_3726" data-name="Línea 3726" x2="9.053" transform="translate(69.764 73.266)" fill="none" stroke="#263238" stroke-linecap="round" stroke-linejoin="round" stroke-width="3"/>
            <line id="Línea_3727" data-name="Línea 3727" x2="34.012" transform="translate(69.764 77.916)" fill="none" stroke="#fff" stroke-linecap="round" stroke-linejoin="round" stroke-width="3"/>
            <line id="Línea_3728" data-name="Línea 3728" x2="34.012" transform="translate(122.372 77.916)" fill="none" stroke="#fff" stroke-linecap="round" stroke-linejoin="round" stroke-width="3"/>
            <line id="Línea_3729" data-name="Línea 3729" x2="13.458" transform="translate(105.978 77.916)" fill="none" stroke="#263238" stroke-linecap="round" stroke-linejoin="round" stroke-width="3"/>
            <line id="Línea_3730" data-name="Línea 3730" x2="19.575" transform="translate(69.764 82.565)" fill="none" stroke="#263238" stroke-linecap="round" stroke-linejoin="round" stroke-width="3"/>
            <line id="Línea_3731" data-name="Línea 3731" x2="19.575" transform="translate(91.786 82.565)" fill="none" stroke="#263238" stroke-linecap="round" stroke-linejoin="round" stroke-width="3"/>
            <line id="Línea_3732" data-name="Línea 3732" x2="19.575" transform="translate(113.808 82.565)" fill="none" stroke="#263238" stroke-linecap="round" stroke-linejoin="round" stroke-width="3"/>
            <line id="Línea_3733" data-name="Línea 3733" x2="8.319" transform="translate(135.83 82.565)" fill="none" stroke="#263238" stroke-linecap="round" stroke-linejoin="round" stroke-width="3"/>
            <line id="Línea_3734" data-name="Línea 3734" x2="9.053" transform="translate(81.265 73.266)" fill="none" stroke="#263238" stroke-linecap="round" stroke-linejoin="round" stroke-width="3"/>
            <line id="Línea_3735" data-name="Línea 3735" x2="9.053" transform="translate(135.096 73.266)" fill="none" stroke="#263238" stroke-linecap="round" stroke-linejoin="round" stroke-width="3"/>
            <line id="Línea_3736" data-name="Línea 3736" x2="9.053" transform="translate(123.106 73.266)" fill="none" stroke="#fff" stroke-linecap="round" stroke-linejoin="round" stroke-width="3"/>
            <line id="Línea_3737" data-name="Línea 3737" x2="26.426" transform="translate(92.765 73.266)" fill="none" stroke="#263238" stroke-linecap="round" stroke-linejoin="round" stroke-width="3"/>
            <line id="Línea_3738" data-name="Línea 3738" x2="9.053" transform="translate(69.764 101.65)" fill="none" stroke="#263238" stroke-linecap="round" stroke-linejoin="round" stroke-width="3"/>
            <line id="Línea_3739" data-name="Línea 3739" x2="34.012" transform="translate(69.764 106.3)" fill="none" stroke="#fff" stroke-linecap="round" stroke-linejoin="round" stroke-width="3"/>
            <line id="Línea_3740" data-name="Línea 3740" x2="34.012" transform="translate(122.372 106.3)" fill="none" stroke="#263238" stroke-linecap="round" stroke-linejoin="round" stroke-width="3"/>
            <line id="Línea_3741" data-name="Línea 3741" x2="13.458" transform="translate(105.978 106.3)" fill="none" stroke="#263238" stroke-linecap="round" stroke-linejoin="round" stroke-width="3"/>
            <line id="Línea_3742" data-name="Línea 3742" x2="19.575" transform="translate(69.764 110.949)" fill="none" stroke="#263238" stroke-linecap="round" stroke-linejoin="round" stroke-width="3"/>
            <line id="Línea_3743" data-name="Línea 3743" x2="19.575" transform="translate(91.786 110.949)" fill="none" stroke="#263238" stroke-linecap="round" stroke-linejoin="round" stroke-width="3"/>
            <line id="Línea_3744" data-name="Línea 3744" x2="19.575" transform="translate(113.808 110.949)" fill="none" stroke="#fff" stroke-linecap="round" stroke-linejoin="round" stroke-width="3"/>
            <line id="Línea_3745" data-name="Línea 3745" x2="8.319" transform="translate(135.83 110.949)" fill="none" stroke="#263238" stroke-linecap="round" stroke-linejoin="round" stroke-width="3"/>
            <line id="Línea_3746" data-name="Línea 3746" x2="9.053" transform="translate(81.265 101.65)" fill="none" stroke="#263238" stroke-linecap="round" stroke-linejoin="round" stroke-width="3"/>
            <line id="Línea_3747" data-name="Línea 3747" x2="9.053" transform="translate(135.096 101.65)" fill="none" stroke="#263238" stroke-linecap="round" stroke-linejoin="round" stroke-width="3"/>
            <line id="Línea_3748" data-name="Línea 3748" x2="9.053" transform="translate(123.106 101.65)" fill="none" stroke="#fff" stroke-linecap="round" stroke-linejoin="round" stroke-width="3"/>
            <line id="Línea_3749" data-name="Línea 3749" x2="26.426" transform="translate(92.765 101.65)" fill="none" stroke="#263238" stroke-linecap="round" stroke-linejoin="round" stroke-width="3"/>
            <line id="Línea_3750" data-name="Línea 3750" x2="9.053" transform="translate(69.764 143.492)" fill="none" stroke="#263238" stroke-linecap="round" stroke-linejoin="round" stroke-width="3"/>
            <line id="Línea_3751" data-name="Línea 3751" x2="34.012" transform="translate(69.764 148.141)" fill="none" stroke="#fff" stroke-linecap="round" stroke-linejoin="round" stroke-width="3"/>
            <line id="Línea_3752" data-name="Línea 3752" x2="34.012" transform="translate(122.372 148.141)" fill="none" stroke="#263238" stroke-linecap="round" stroke-linejoin="round" stroke-width="3"/>
            <line id="Línea_3753" data-name="Línea 3753" x2="13.458" transform="translate(105.978 148.141)" fill="none" stroke="#263238" stroke-linecap="round" stroke-linejoin="round" stroke-width="3"/>
            <line id="Línea_3754" data-name="Línea 3754" x2="19.575" transform="translate(69.764 152.79)" fill="none" stroke="#263238" stroke-linecap="round" stroke-linejoin="round" stroke-width="3"/>
            <line id="Línea_3755" data-name="Línea 3755" x2="19.575" transform="translate(91.786 152.79)" fill="none" stroke="#263238" stroke-linecap="round" stroke-linejoin="round" stroke-width="3"/>
            <line id="Línea_3756" data-name="Línea 3756" x2="19.575" transform="translate(113.808 152.79)" fill="none" stroke="#fff" stroke-linecap="round" stroke-linejoin="round" stroke-width="3"/>
            <line id="Línea_3757" data-name="Línea 3757" x2="8.319" transform="translate(135.83 152.79)" fill="none" stroke="#263238" stroke-linecap="round" stroke-linejoin="round" stroke-width="3"/>
            <line id="Línea_3758" data-name="Línea 3758" x2="9.053" transform="translate(81.265 143.492)" fill="none" stroke="#263238" stroke-linecap="round" stroke-linejoin="round" stroke-width="3"/>
            <line id="Línea_3759" data-name="Línea 3759" x2="9.053" transform="translate(135.096 143.492)" fill="none" stroke="#263238" stroke-linecap="round" stroke-linejoin="round" stroke-width="3"/>
            <line id="Línea_3760" data-name="Línea 3760" x2="9.053" transform="translate(123.106 143.492)" fill="none" stroke="#fff" stroke-linecap="round" stroke-linejoin="round" stroke-width="3"/>
            <line id="Línea_3761" data-name="Línea 3761" x2="26.426" transform="translate(92.765 143.492)" fill="none" stroke="#263238" stroke-linecap="round" stroke-linejoin="round" stroke-width="3"/>
            <line id="Línea_3762" data-name="Línea 3762" x2="9.053" transform="translate(120.659 87.458)" fill="none" stroke="#263238" stroke-linecap="round" stroke-linejoin="round" stroke-width="3"/>
            <line id="Línea_3763" data-name="Línea 3763" x2="9.053" transform="translate(108.67 87.458)" fill="none" stroke="#263238" stroke-linecap="round" stroke-linejoin="round" stroke-width="3"/>
            <line id="Línea_3764" data-name="Línea 3764" x2="26.426" transform="translate(78.328 87.458)" fill="none" stroke="#263238" stroke-linecap="round" stroke-linejoin="round" stroke-width="3"/>
            <line id="Línea_3765" data-name="Línea 3765" x2="9.053" transform="translate(120.659 95.778)" fill="none" stroke="#263238" stroke-linecap="round" stroke-linejoin="round" stroke-width="3"/>
            <line id="Línea_3766" data-name="Línea 3766" x2="9.053" transform="translate(108.67 95.778)" fill="none" stroke="#263238" stroke-linecap="round" stroke-linejoin="round" stroke-width="3"/>
            <line id="Línea_3767" data-name="Línea 3767" x2="26.426" transform="translate(78.328 95.778)" fill="none" stroke="#fff" stroke-linecap="round" stroke-linejoin="round" stroke-width="3"/>
            <line id="Línea_3768" data-name="Línea 3768" x1="9.053" transform="translate(78.328 91.618)" fill="none" stroke="#263238" stroke-linecap="round" stroke-linejoin="round" stroke-width="3"/>
            <line id="Línea_3769" data-name="Línea 3769" x1="9.053" transform="translate(90.318 91.618)" fill="none" stroke="#263238" stroke-linecap="round" stroke-linejoin="round" stroke-width="3"/>
            <line id="Línea_3770" data-name="Línea 3770" x1="26.426" transform="translate(103.287 91.618)" fill="none" stroke="#fff" stroke-linecap="round" stroke-linejoin="round" stroke-width="3"/>
            <line id="Línea_3771" data-name="Línea 3771" x2="9.053" transform="translate(120.659 116.576)" fill="none" stroke="#263238" stroke-linecap="round" stroke-linejoin="round" stroke-width="3"/>
            <line id="Línea_3772" data-name="Línea 3772" x2="9.053" transform="translate(108.67 116.576)" fill="none" stroke="#263238" stroke-linecap="round" stroke-linejoin="round" stroke-width="3"/>
            <line id="Línea_3773" data-name="Línea 3773" x2="26.426" transform="translate(78.328 116.576)" fill="none" stroke="#263238" stroke-linecap="round" stroke-linejoin="round" stroke-width="3"/>
            <line id="Línea_3774" data-name="Línea 3774" x2="9.053" transform="translate(120.659 124.896)" fill="none" stroke="#263238" stroke-linecap="round" stroke-linejoin="round" stroke-width="3"/>
            <line id="Línea_3775" data-name="Línea 3775" x2="9.053" transform="translate(108.67 124.896)" fill="none" stroke="#263238" stroke-linecap="round" stroke-linejoin="round" stroke-width="3"/>
            <line id="Línea_3776" data-name="Línea 3776" x2="26.426" transform="translate(78.328 124.896)" fill="none" stroke="#fff" stroke-linecap="round" stroke-linejoin="round" stroke-width="3"/>
            <line id="Línea_3777" data-name="Línea 3777" x1="9.053" transform="translate(78.328 120.736)" fill="none" stroke="#263238" stroke-linecap="round" stroke-linejoin="round" stroke-width="3"/>
            <line id="Línea_3778" data-name="Línea 3778" x1="9.053" transform="translate(90.318 120.736)" fill="none" stroke="#263238" stroke-linecap="round" stroke-linejoin="round" stroke-width="3"/>
            <line id="Línea_3779" data-name="Línea 3779" x1="26.426" transform="translate(103.287 120.736)" fill="none" stroke="#fff" stroke-linecap="round" stroke-linejoin="round" stroke-width="3"/>
            <line id="Línea_3780" data-name="Línea 3780" x1="9.053" transform="translate(78.328 129.79)" fill="none" stroke="#263238" stroke-linecap="round" stroke-linejoin="round" stroke-width="3"/>
            <line id="Línea_3781" data-name="Línea 3781" x1="9.053" transform="translate(90.318 129.79)" fill="none" stroke="#263238" stroke-linecap="round" stroke-linejoin="round" stroke-width="3"/>
            <line id="Línea_3782" data-name="Línea 3782" x1="26.426" transform="translate(103.287 129.79)" fill="none" stroke="#fff" stroke-linecap="round" stroke-linejoin="round" stroke-width="3"/>
            <line id="Línea_3783" data-name="Línea 3783" x1="9.053" transform="translate(78.328 138.109)" fill="none" stroke="#263238" stroke-linecap="round" stroke-linejoin="round" stroke-width="3"/>
            <line id="Línea_3784" data-name="Línea 3784" x1="9.053" transform="translate(90.318 138.109)" fill="none" stroke="#263238" stroke-linecap="round" stroke-linejoin="round" stroke-width="3"/>
            <line id="Línea_3785" data-name="Línea 3785" x1="26.426" transform="translate(103.287 138.109)" fill="none" stroke="#fff" stroke-linecap="round" stroke-linejoin="round" stroke-width="3"/>
            <line id="Línea_3786" data-name="Línea 3786" x2="9.053" transform="translate(120.659 133.949)" fill="none" stroke="#263238" stroke-linecap="round" stroke-linejoin="round" stroke-width="3"/>
            <line id="Línea_3787" data-name="Línea 3787" x2="9.053" transform="translate(108.67 133.949)" fill="none" stroke="#263238" stroke-linecap="round" stroke-linejoin="round" stroke-width="3"/>
            <line id="Línea_3788" data-name="Línea 3788" x2="26.426" transform="translate(78.328 133.949)" fill="none" stroke="#fff" stroke-linecap="round" stroke-linejoin="round" stroke-width="3"/>
            <rect id="Rectángulo_375668" data-name="Rectángulo 375668" width="2.891" height="2.855" transform="translate(63.515 71.652)" fill="#263238"/>
            <rect id="Rectángulo_375669" data-name="Rectángulo 375669" width="2.891" height="2.855" transform="translate(63.515 76.342)" fill="#263238"/>
            <rect id="Rectángulo_375670" data-name="Rectángulo 375670" width="2.891" height="2.855" transform="translate(63.515 81.033)" fill="#263238"/>
            <rect id="Rectángulo_375671" data-name="Rectángulo 375671" width="2.891" height="2.855" transform="translate(63.515 85.723)" fill="#263238"/>
            <rect id="Rectángulo_375672" data-name="Rectángulo 375672" width="2.891" height="2.855" transform="translate(63.515 90.413)" fill="#263238"/>
            <rect id="Rectángulo_375673" data-name="Rectángulo 375673" width="2.891" height="2.855" transform="translate(63.515 95.104)" fill="#263238"/>
            <rect id="Rectángulo_375674" data-name="Rectángulo 375674" width="2.891" height="2.855" transform="translate(63.515 99.794)" fill="#263238"/>
            <rect id="Rectángulo_375675" data-name="Rectángulo 375675" width="2.891" height="2.855" transform="translate(63.515 104.485)" fill="#263238"/>
            <rect id="Rectángulo_375676" data-name="Rectángulo 375676" width="2.891" height="2.855" transform="translate(63.515 109.175)" fill="#263238"/>
            <rect id="Rectángulo_375677" data-name="Rectángulo 375677" width="2.891" height="2.855" transform="translate(63.515 113.865)" fill="#263238"/>
            <rect id="Rectángulo_375678" data-name="Rectángulo 375678" width="2.891" height="2.855" transform="translate(63.515 118.556)" fill="#263238"/>
            <rect id="Rectángulo_375679" data-name="Rectángulo 375679" width="2.891" height="2.855" transform="translate(63.515 123.246)" fill="#263238"/>
            <rect id="Rectángulo_375680" data-name="Rectángulo 375680" width="2.891" height="2.855" transform="translate(63.515 127.936)" fill="#263238"/>
            <rect id="Rectángulo_375681" data-name="Rectángulo 375681" width="2.891" height="2.855" transform="translate(63.515 132.627)" fill="#263238"/>
            <rect id="Rectángulo_375682" data-name="Rectángulo 375682" width="2.891" height="2.855" transform="translate(63.515 137.317)" fill="#263238"/>
            <rect id="Rectángulo_375683" data-name="Rectángulo 375683" width="2.891" height="2.855" transform="translate(63.515 142.007)" fill="#263238"/>
            <rect id="Rectángulo_375684" data-name="Rectángulo 375684" width="2.891" height="2.855" transform="translate(63.515 146.698)" fill="#263238"/>
            <rect id="Rectángulo_375685" data-name="Rectángulo 375685" width="2.891" height="2.855" transform="translate(63.515 151.388)" fill="#263238"/>
            <g id="Grupo_1071748" data-name="Grupo 1071748">
              <g id="Grupo_1071747" data-name="Grupo 1071747" clip-path="url(#clip-path-2)">
                <path id="Trazado_818650" data-name="Trazado 818650" d="M310.9,4.585a31.391,31.391,0,0,0-21.7,54.084l-4.469,8.342,10.959-3.554A31.4,31.4,0,1,0,310.9,4.585" transform="translate(-126.051 -2.068)" fill="#263238"/>
                <path id="Trazado_818651" data-name="Trazado 818651" d="M310.9,4.585a31.391,31.391,0,0,0-21.7,54.084l-4.469,8.342,10.959-3.554A31.4,31.4,0,1,0,310.9,4.585Z" transform="translate(-126.051 -2.068)" fill="none" stroke="#263238" stroke-linecap="round" stroke-linejoin="round" stroke-width="1"/>
                <path id="Trazado_818652" data-name="Trazado 818652" d="M308.179.5a31.391,31.391,0,0,0-21.7,54.084l-4.469,8.342,10.959-3.554A31.4,31.4,0,1,0,308.179.5" transform="translate(-124.823 -0.225)" fill="#fff"/>
                <path id="Trazado_818653" data-name="Trazado 818653" d="M308.179.5a31.391,31.391,0,0,0-21.7,54.084l-4.469,8.342,10.959-3.554A31.4,31.4,0,1,0,308.179.5Z" transform="translate(-124.823 -0.225)" fill="none" stroke="#263238" stroke-linecap="round" stroke-linejoin="round" stroke-width="1"/>
              </g>
            </g>
            <path id="Trazado_818654" data-name="Trazado 818654" d="M304.909,63.484l-12.066-8.522V50.448l12.066-8.606V46.4l-8.649,6.286,8.649,6.286Z" transform="translate(-132.067 -18.87)" fill="#949af8"/>
            <path id="Trazado_818655" data-name="Trazado 818655" d="M321.505,55.959l9.2-34.172h3.924l-9.239,34.172Z" transform="translate(-144.993 -9.825)" fill="#949af8"/>
            <path id="Trazado_818656" data-name="Trazado 818656" d="M352.088,63.484V58.97l8.691-6.329L352.088,46.4V41.841L364.2,50.406V54.92Z" transform="translate(-158.786 -18.87)" fill="#949af8"/>
            <path id="Trazado_818657" data-name="Trazado 818657" d="M307.633,60.08l-12.066-8.522V47.043l12.066-8.606v4.556l-8.649,6.286,8.649,6.286Z" transform="translate(-133.296 -17.334)" fill="#263238"/>
            <path id="Trazado_818658" data-name="Trazado 818658" d="M324.229,52.554l9.2-34.172h3.923L328.11,52.554Z" transform="translate(-146.222 -8.29)" fill="#263238"/>
            <path id="Trazado_818659" data-name="Trazado 818659" d="M354.812,60.08V55.566l8.691-6.329-8.691-6.244V38.437L366.92,47v4.513Z" transform="translate(-160.014 -17.334)" fill="#263238"/>
            <g id="Grupo_1071750" data-name="Grupo 1071750">
              <g id="Grupo_1071749" data-name="Grupo 1071749" clip-path="url(#clip-path-2)">
                <path id="Trazado_818660" data-name="Trazado 818660" d="M319.85,395.19l19.012,15.7a27,27,0,0,0,3.738,6.354c2.617,3.364,33.269,16.074,33.269,16.074l5.233,1.495L323.91,391.821Z" transform="translate(-144.247 -176.704)" fill="#263238"/>
                <path id="Trazado_818661" data-name="Trazado 818661" d="M319.85,395.19l19.012,15.7a27,27,0,0,0,3.738,6.354c2.617,3.364,33.269,16.074,33.269,16.074l5.233,1.495L323.91,391.821Z" transform="translate(-144.247 -176.704)" fill="none" stroke="#263238" stroke-linecap="round" stroke-linejoin="round" stroke-width="1"/>
                <path id="Trazado_818662" data-name="Trazado 818662" d="M329.558,343.261a100.973,100.973,0,0,1-7.367-10.2c-2.267-3.967-5.479-13.224-7.934-18.7s-6.045-7.178-10.39-8.879-6.045-1.322-6.045-.189,1.7,3.211,1.7,3.211l-7.367,1.323s-3.022-1.7-4.912-1.134-5.479,4.156-5.479,4.156-3.778-1.322-6.045-.755-8.5,3.589-11.146,4.912-5.479,1.511-5.29,2.645,2.833,3.022,5.29,2.645,6.612-1.889,9.256-1.889a8.03,8.03,0,0,1,5.29,1.511c1.322.944,6.8,8.69,7.556,9.634s1.511,4.723,1.511,4.723a22.918,22.918,0,0,1-5.409-3.313c-2.078-1.889-5.051-6.32-8.452-6.7s-7.109,2.642-5.22,4.154,3.778,2.456,5.1,4.156,3.4,6.8,6.99,12.279,11.334,8.879,11.334,8.879l16.058,6.612s4.156-9.823,11.9-12.468a98.544,98.544,0,0,0,10.012-3.778Z" transform="translate(-116.928 -137.243)" fill="#fff"/>
                <path id="Trazado_818663" data-name="Trazado 818663" d="M329.558,343.261a100.973,100.973,0,0,1-7.367-10.2c-2.267-3.967-5.479-13.224-7.934-18.7s-6.045-7.178-10.39-8.879-6.045-1.322-6.045-.189,1.7,3.211,1.7,3.211l-7.367,1.323s-3.022-1.7-4.912-1.134-5.479,4.156-5.479,4.156-3.778-1.322-6.045-.755-8.5,3.589-11.146,4.912-5.479,1.511-5.29,2.645,2.833,3.022,5.29,2.645,6.612-1.889,9.256-1.889a8.03,8.03,0,0,1,5.29,1.511c1.322.944,6.8,8.69,7.556,9.634s1.511,4.723,1.511,4.723a22.918,22.918,0,0,1-5.409-3.313c-2.078-1.889-5.051-6.32-8.452-6.7s-7.109,2.642-5.22,4.154,3.778,2.456,5.1,4.156,3.4,6.8,6.99,12.279,11.334,8.879,11.334,8.879l16.058,6.612s4.156-9.823,11.9-12.468a98.544,98.544,0,0,0,10.012-3.778Z" transform="translate(-116.928 -137.243)" fill="none" stroke="#263238" stroke-linecap="round" stroke-linejoin="round" stroke-width="1"/>
                <path id="Trazado_818664" data-name="Trazado 818664" d="M259.29,331.124s1.842-.468,2.372-.645a4.344,4.344,0,0,0,1.15-.708" transform="translate(-116.935 -148.721)" fill="none" stroke="#263238" stroke-linecap="round" stroke-linejoin="round" stroke-width="1"/>
                <path id="Trazado_818665" data-name="Trazado 818665" d="M300.237,319.849s8.7,4.867,11.158,6.19c1.01.544,3.4,1.662,4.14,4.14a10.525,10.525,0,0,0,2.634,4.516" transform="translate(-135.402 -144.246)" fill="none" stroke="#263238" stroke-linecap="round" stroke-linejoin="round" stroke-width="1"/>
                <path id="Trazado_818666" data-name="Trazado 818666" d="M319.162,314.344s8.5,6.612,9.068,6.8,2.645.378,3.589,2.078,1.889,3.589,1.889,3.589" transform="translate(-143.937 -141.764)" fill="none" stroke="#263238" stroke-linecap="round" stroke-linejoin="round" stroke-width="1"/>
                <path id="Trazado_818667" data-name="Trazado 818667" d="M332.582,311.883s3.022-.567,4.156,1.7,6.046,7.746,6.046,7.746" transform="translate(-149.989 -140.626)" fill="none" stroke="#263238" stroke-linecap="round" stroke-linejoin="round" stroke-width="1"/>
                <path id="Trazado_818668" data-name="Trazado 818668" d="M281.514,352.6s2.267-1.134,1.133-2.833a4.41,4.41,0,0,0-3.4-1.7" transform="translate(-125.936 -156.971)" fill="none" stroke="#263238" stroke-linecap="round" stroke-linejoin="round" stroke-width="1"/>
                <path id="Trazado_818669" data-name="Trazado 818669" d="M367.949,370.689s-10.2,2.645-16.624,9.824-6.423,13.224-5.856,14.168,12.846,7.556,12.846,7.556,7.557-14.546,12.847-18.136a31.9,31.9,0,0,1,9.068-4.534s-9.446-6.045-9.824-6.8-1.133-2.645-2.456-2.078" transform="translate(-155.697 -167.127)" fill="#949af8"/>
                <path id="Trazado_818670" data-name="Trazado 818670" d="M367.949,370.689s-10.2,2.645-16.624,9.824-6.423,13.224-5.856,14.168,12.846,7.556,12.846,7.556,7.557-14.546,12.847-18.136a31.9,31.9,0,0,1,9.068-4.534s-9.446-6.045-9.824-6.8S369.271,370.123,367.949,370.689Z" transform="translate(-155.697 -167.127)" fill="none" stroke="#263238" stroke-linecap="round" stroke-linejoin="round" stroke-width="1"/>
                <path id="Trazado_818671" data-name="Trazado 818671" d="M406.814,433.3s-10.39-5.29-12.846-6.612S374.7,416.3,374.7,416.3a22.758,22.758,0,0,1-3.211-1.134c-1.134-.567-2.834-.378-3.589-4.345s1.134-11.9,9.635-19.836,13.79-7.557,13.79-7.557,3.589-.378,4.534.378,1.133,3.023,2.078,3.4,27.084,8.213,27.084,8.213" transform="translate(-165.847 -172.877)" fill="#eff0fe"/>
                <path id="Trazado_818672" data-name="Trazado 818672" d="M406.814,433.3s-10.39-5.29-12.846-6.612S374.7,416.3,374.7,416.3a22.758,22.758,0,0,1-3.211-1.134c-1.134-.567-2.834-.378-3.589-4.345s1.134-11.9,9.635-19.836,13.79-7.557,13.79-7.557,3.589-.378,4.534.378,1.133,3.023,2.078,3.4,27.084,8.213,27.084,8.213" transform="translate(-165.847 -172.877)" fill="none" stroke="#263238" stroke-linecap="round" stroke-linejoin="round" stroke-width="1"/>
                <path id="Trazado_818673" data-name="Trazado 818673" d="M384.685,421.356s-1.134,5.667,1.511,10.39" transform="translate(-173.377 -190.024)" fill="none" stroke="#263238" stroke-linecap="round" stroke-linejoin="round" stroke-width="1"/>
                <path id="Trazado_818674" data-name="Trazado 818674" d="M389.53,434.776s-1.134.378,1.889,5.29" transform="translate(-175.577 -196.076)" fill="none" stroke="#263238" stroke-linecap="round" stroke-linejoin="round" stroke-width="1"/>
              </g>
            </g>
            <g id="Grupo_1071752" data-name="Grupo 1071752" transform="translate(0.275 166.313)">
              <g id="Grupo_1071767" data-name="Grupo 1071767">
                <path id="Trazado_818675" data-name="Trazado 818675" d="M115.544,367.591s-12.451,14.8-16.189,17.789a57.2,57.2,0,0,1-7.1,4.859L78.8,403.7s.374,1.869-3.364,4.112-11.214,4.859-13.083,5.607S39.92,423.508,39.92,423.508Z" transform="translate(-18.278 -332.09)" fill="#263238"/>
                <path id="Trazado_818676" data-name="Trazado 818676" d="M115.544,367.591s-12.451,14.8-16.189,17.789a57.2,57.2,0,0,1-7.1,4.859L78.8,403.7s.374,1.869-3.364,4.112-11.214,4.859-13.083,5.607S39.92,423.508,39.92,423.508Z" transform="translate(-18.278 -332.09)" fill="none" stroke="#263238" stroke-linecap="round" stroke-linejoin="round" stroke-width="1"/>
                <path id="Trazado_818677" data-name="Trazado 818677" d="M156.372,315.782c-1.309.393-6.022.131-6.022.131s-2.88-2.226-4.32-3.535-5.105-9.033-6.938-9.426-9.557,4.058-9.557,4.058-6.284-2.749-7.854-2.488S115,309.368,115,309.368s-7.069-1.047-8.378,1.047-3.4,8.771-5.5,12.96-9.687,15.316-9.687,15.316l-1.047,1.44a57.956,57.956,0,0,1,6.415,3.011c4.843,2.488,12.567,14.269,12.567,14.269s10.734-4.974,16.757-7.724a30.242,30.242,0,0,0,12.174-11.258,24.012,24.012,0,0,1,6.284-7.069c2.749-2.225,7.855-3.142,9.033-4.713s-.785-3.927-.785-3.927a19.663,19.663,0,0,0,2.094-1.309c.655-.524,3.273-1.964,3.535-3.535s-.785-2.487-2.095-2.094m-20.16,12.568,2.487-7.593a41.788,41.788,0,0,0,5.63,2.488c-3.011.785-8.117,5.105-8.117,5.105" transform="translate(-41.041 -302.928)" fill="#fff"/>
                <path id="Trazado_818678" data-name="Trazado 818678" d="M156.372,315.782c-1.309.393-6.022.131-6.022.131s-2.88-2.226-4.32-3.535-5.105-9.033-6.938-9.426-9.557,4.058-9.557,4.058-6.284-2.749-7.854-2.488S115,309.368,115,309.368s-7.069-1.047-8.378,1.047-3.4,8.771-5.5,12.96-9.687,15.316-9.687,15.316l-1.047,1.44a57.956,57.956,0,0,1,6.415,3.011c4.843,2.488,12.567,14.269,12.567,14.269s10.734-4.974,16.757-7.724a30.242,30.242,0,0,0,12.174-11.258,24.012,24.012,0,0,1,6.284-7.069c2.749-2.225,7.855-3.142,9.033-4.713s-.785-3.927-.785-3.927a19.663,19.663,0,0,0,2.094-1.309c.655-.524,3.273-1.964,3.535-3.535S157.682,315.389,156.372,315.782Zm-20.16,12.568,2.487-7.593a41.788,41.788,0,0,0,5.63,2.488C141.318,324.029,136.212,328.349,136.212,328.349Z" transform="translate(-41.041 -302.928)" fill="none" stroke="#263238" stroke-linecap="round" stroke-linejoin="round" stroke-width="1"/>
                <path id="Trazado_818679" data-name="Trazado 818679" d="M125.979,323.3a9.919,9.919,0,0,1-.131-3.011c.261-.786,5.105-5.629,5.105-5.629" transform="translate(-56.989 -308.218)" fill="none" stroke="#263238" stroke-linecap="round" stroke-linejoin="round" stroke-width="1"/>
                <path id="Trazado_818680" data-name="Trazado 818680" d="M133.79,323.979l1.048-3.4,14.269-10.211" transform="translate(-60.612 -306.282)" fill="none" stroke="#263238" stroke-linecap="round" stroke-linejoin="round" stroke-width="1"/>
                <path id="Trazado_818681" data-name="Trazado 818681" d="M146.666,329.8s.524-3.273,1.178-3.8,5.629-1.7,5.629-1.7,7.593-6.545,8.9-6.545,10.866,5.105,13.353,4.843" transform="translate(-66.418 -309.615)" fill="none" stroke="#263238" stroke-linecap="round" stroke-linejoin="round" stroke-width="1"/>
                <path id="Trazado_818682" data-name="Trazado 818682" d="M206.361,327.532s-1.7.005-.788,1.052,2.88.524,3.8.262" transform="translate(-92.862 -314.024)" fill="none" stroke="#263238" stroke-linecap="round" stroke-linejoin="round" stroke-width="1"/>
                <path id="Trazado_818683" data-name="Trazado 818683" d="M188.632,338.787s4.713-2.749,8.509-.524" transform="translate(-85.344 -318.472)" fill="none" stroke="#263238" stroke-linecap="round" stroke-linejoin="round" stroke-width="1"/>
                <path id="Trazado_818684" data-name="Trazado 818684" d="M199.834,340.408l-2.618.916a17.681,17.681,0,0,1,1.178,2.88l.131.785" transform="translate(-89.216 -319.831)" fill="none" stroke="#263238" stroke-linecap="round" stroke-linejoin="round" stroke-width="1"/>
                <line id="Línea_3789" data-name="Línea 3789" x1="2.356" y2="5.237" transform="translate(92.815 25.421)" fill="none" stroke="#263238" stroke-linecap="round" stroke-linejoin="round" stroke-width="1"/>
                <path id="Trazado_818685" data-name="Trazado 818685" d="M60.588,377.959s8.247-5.367,11.258-7.592,4.582-1.833,6.153-2.356,9.426,1.833,14.662,8.378,4.713,11.389,4.058,12.7S79.57,400.345,79.57,400.345s-2.356-9.425-9.294-15.054a113.758,113.758,0,0,0-9.687-7.332" transform="translate(-27.599 -332.247)" fill="#949af8"/>
                <path id="Trazado_818686" data-name="Trazado 818686" d="M60.588,377.959s8.247-5.367,11.258-7.592,4.582-1.833,6.153-2.356,9.426,1.833,14.662,8.378,4.713,11.389,4.058,12.7S79.57,400.345,79.57,400.345s-2.356-9.425-9.294-15.054A113.758,113.758,0,0,0,60.588,377.959Z" transform="translate(-27.599 -332.247)" fill="none" stroke="#263238" stroke-linecap="round" stroke-linejoin="round" stroke-width="1"/>
                <path id="Trazado_818687" data-name="Trazado 818687" d="M.5,399.372s15.278-9.336,17.824-10.869,5.495-3.623,5.495-3.623.8-4.041,4.691-4.18,7.639,1.393,12.732,4.18,11.391,12.959,12.061,17,2.01,5.3.938,7.943-5.092,2.787-5.9,2.787-2.68,1.672-2.68,1.672l-28.68,18.672" transform="translate(-0.5 -337.998)" fill="#dadcfd"/>
                <path id="Trazado_818688" data-name="Trazado 818688" d="M.5,399.372s15.278-9.336,17.824-10.869,5.495-3.623,5.495-3.623.8-4.041,4.691-4.18,7.639,1.393,12.732,4.18,11.391,12.959,12.061,17,2.01,5.3.938,7.943-5.092,2.787-5.9,2.787-2.68,1.672-2.68,1.672l-28.68,18.672" transform="translate(-0.5 -337.998)" fill="none" stroke="#263238" stroke-linecap="round" stroke-linejoin="round" stroke-width="1"/>
                <path id="Trazado_818689" data-name="Trazado 818689" d="M85.862,425.9s1.2.891-1.2,4.63" transform="translate(-38.456 -358.389)" fill="none" stroke="#263238" stroke-linecap="round" stroke-linejoin="round" stroke-width="1"/>
                <path id="Trazado_818690" data-name="Trazado 818690" d="M80.632,429.149a12.278,12.278,0,0,1-3.768,7.48" transform="translate(-34.939 -359.852)" fill="none" stroke="#263238" stroke-linecap="round" stroke-linejoin="round" stroke-width="1"/>
              </g>
            </g>
          </g>
          <g id="Grupo_1071755" data-name="Grupo 1071755" transform="translate(15.936 57.327)">
            <path id="Trazado_773140" data-name="Trazado 773140" d="M278.96,259.131H253.231a6.048,6.048,0,0,0-6.048,6.048V277.7a6.048,6.048,0,0,0,6.048,6.048h6.725l5.1,11.55,7.184-11.55h6.725a6.048,6.048,0,0,0,6.048-6.048V265.179a6.048,6.048,0,0,0-6.048-6.048" transform="translate(-247.183 -259.131)" fill="#fee9b5"/>
            <path id="Trazado_773141" data-name="Trazado 773141" d="M278.96,259.131H253.231a6.048,6.048,0,0,0-6.048,6.048V277.7a6.048,6.048,0,0,0,6.048,6.048h6.725l5.1,11.55,7.184-11.55h6.725a6.048,6.048,0,0,0,6.048-6.048V265.179A6.048,6.048,0,0,0,278.96,259.131Z" transform="translate(-247.183 -259.131)" fill="none" stroke="#263238" stroke-linecap="round" stroke-linejoin="round" stroke-width="1"/>
            <path id="Trazado_773142" data-name="Trazado 773142" d="M259.95,266.758h7.224v1.567H259.95Zm0,3.792h7.224v1.567H259.95Z" transform="translate(-244.379 -257.455)" fill="#263238"/>
          </g>
          <g id="Grupo_1071756" data-name="Grupo 1071756" transform="translate(58.534 79.107)">
            <path id="Trazado_773151" data-name="Trazado 773151" d="M242.929,244.123H221.353a5.072,5.072,0,0,0-5.072,5.072v10.5a5.072,5.072,0,0,0,5.072,5.072h5.64l4.273,9.686,6.024-9.686h5.639A5.072,5.072,0,0,0,248,259.693v-10.5a5.072,5.072,0,0,0-5.072-5.072" transform="translate(-216.281 -244.123)" fill="#fff"/>
            <path id="Trazado_773152" data-name="Trazado 773152" d="M242.929,244.123H221.353a5.072,5.072,0,0,0-5.072,5.072v10.5a5.072,5.072,0,0,0,5.072,5.072h5.64l4.273,9.686,6.024-9.686h5.639A5.072,5.072,0,0,0,248,259.693v-10.5A5.072,5.072,0,0,0,242.929,244.123Z" transform="translate(-216.281 -244.123)" fill="none" stroke="#263238" stroke-linecap="round" stroke-linejoin="round" stroke-width="1"/>
            <path id="Trazado_773153" data-name="Trazado 773153" d="M230.949,251.744a1.078,1.078,0,1,1,2.155,0,1.078,1.078,0,1,1-2.155,0m2.155,5.006a2.95,2.95,0,0,1-.3,1.13l-.67,1.853h-1.064l.525-2.011a1.011,1.011,0,0,1-.617-.973,1.065,1.065,0,1,1,2.128,0" transform="translate(-215.948 -243.974)" fill="#263238"/>
          </g>
          <g id="Grupo_1071757" data-name="Grupo 1071757" transform="translate(90.254 43.664)">
            <path id="Trazado_773135" data-name="Trazado 773135" d="M209.833,259.959h-19.44a4.57,4.57,0,0,0-4.57,4.57v9.458a4.57,4.57,0,0,0,4.57,4.57h5.081l3.85,8.727,5.428-8.727h5.081a4.57,4.57,0,0,0,4.57-4.57v-9.458a4.57,4.57,0,0,0-4.57-4.57" transform="translate(-185.823 -259.959)" fill="#fee9b5"/>
            <path id="Trazado_773136" data-name="Trazado 773136" d="M209.833,259.959h-19.44a4.57,4.57,0,0,0-4.57,4.57v9.458a4.57,4.57,0,0,0,4.57,4.57h5.081l3.85,8.727,5.428-8.727h5.081a4.57,4.57,0,0,0,4.57-4.57v-9.458A4.57,4.57,0,0,0,209.833,259.959Z" transform="translate(-185.823 -259.959)" fill="none" stroke="#263238" stroke-linecap="round" stroke-linejoin="round" stroke-width="1"/>
            <path id="Trazado_773137" data-name="Trazado 773137" d="M195.41,267.377v.379h1.741v1.184h-1.693v5.091h-1.481v-5.091h-1.041v-1.184h1.041v-.4a2.043,2.043,0,0,1,2.261-2.19,2.37,2.37,0,0,1,1.339.343l-.416,1.113a1.451,1.451,0,0,0-.815-.261c-.616,0-.936.344-.936,1.018" transform="translate(-186.38 -260.369)" fill="#263238"/>
            <path id="Trazado_773138" data-name="Trazado 773138" d="M197.919,271.08a3.371,3.371,0,1,1,3.362,3.244,3.182,3.182,0,0,1-3.362-3.244m5.244,0a1.879,1.879,0,1,0-1.883,1.977,1.842,1.842,0,0,0,1.883-1.977" transform="translate(-186.772 -260.579)" fill="#263238"/>
            <path id="Trazado_773139" data-name="Trazado 773139" d="M210.423,267.848v1.409a1.855,1.855,0,0,0-.343-.035,1.723,1.723,0,0,0-1.836,1.954v3.066h-1.48v-6.323h1.409v.924a2.486,2.486,0,0,1,2.249-1" transform="translate(-187.466 -260.579)" fill="#263238"/>
          </g>
          <g id="Grupo_1071758" data-name="Grupo 1071758" transform="translate(124.432 70.989)">
            <path id="Trazado_773126" data-name="Trazado 773126" d="M79.638,259.131H63.21a3.861,3.861,0,0,0-3.862,3.862v7.993a3.861,3.861,0,0,0,3.862,3.862H67.5l3.253,7.374,4.587-7.374h4.294a3.861,3.861,0,0,0,3.862-3.862v-7.993a3.861,3.861,0,0,0-3.862-3.862" transform="translate(-59.348 -259.131)" fill="#fee9b5"/>
            <path id="Trazado_773127" data-name="Trazado 773127" d="M79.638,259.131H63.21a3.861,3.861,0,0,0-3.862,3.862v7.993a3.861,3.861,0,0,0,3.862,3.862H67.5l3.253,7.374,4.587-7.374h4.294a3.861,3.861,0,0,0,3.862-3.862v-7.993A3.861,3.861,0,0,0,79.638,259.131Z" transform="translate(-59.348 -259.131)" fill="none" stroke="#263238" stroke-linecap="round" stroke-linejoin="round" stroke-width="1"/>
            <path id="Trazado_773128" data-name="Trazado 773128" d="M71.922,264.789a.762.762,0,0,1,.8-.751.744.744,0,0,1,.8.72.8.8,0,0,1-1.6.03m.171,1.631h1.251v5.343H72.093Z" transform="translate(-62.131 -260.216)" fill="#263238"/>
            <path id="Trazado_773129" data-name="Trazado 773129" d="M77.031,266.2v.32H78.5v1H77.071v4.3H75.82v-4.3h-.88v-1h.88v-.34a1.726,1.726,0,0,1,1.911-1.851,2,2,0,0,1,1.131.29l-.35.941a1.231,1.231,0,0,0-.69-.22c-.52,0-.79.29-.79.86" transform="translate(-62.799 -260.282)" fill="#263238"/>
          </g>
          <g id="Grupo_1071759" data-name="Grupo 1071759" transform="translate(38.516 128.491)">
            <path id="Trazado_773159" data-name="Trazado 773159" d="M27.18,357.444H54.412a6.4,6.4,0,0,0,6.4-6.4v-13.25a6.4,6.4,0,0,0-6.4-6.4H47.294l1.552-12.225L34.3,331.391H27.18a6.4,6.4,0,0,0-6.4,6.4v13.25a6.4,6.4,0,0,0,6.4,6.4" transform="translate(-20.778 -319.166)" fill="#fee9b5"/>
            <path id="Trazado_773160" data-name="Trazado 773160" d="M27.18,357.444H54.412a6.4,6.4,0,0,0,6.4-6.4v-13.25a6.4,6.4,0,0,0-6.4-6.4H47.294l1.552-12.225L34.3,331.391H27.18a6.4,6.4,0,0,0-6.4,6.4v13.25A6.4,6.4,0,0,0,27.18,357.444Z" transform="translate(-20.778 -319.166)" fill="none" stroke="#263238" stroke-linecap="round" stroke-linejoin="round" stroke-width="1"/>
            <path id="Trazado_773161" data-name="Trazado 773161" d="M31.992,344.66a1.283,1.283,0,0,1,1.344-1.277,1.263,1.263,0,0,1,1.309,1.277,1.277,1.277,0,0,1-1.309,1.294,1.3,1.3,0,0,1-1.344-1.294m.116-10.432h2.454l-.414,7.762H32.506Z" transform="translate(-17.515 -314.784)" fill="#263238"/>
            <path id="Trazado_773162" data-name="Trazado 773162" d="M35.638,336.528h7.646v1.658H35.638Zm0,4.012h7.646V342.2H35.638Z" transform="translate(-16.454 -314.115)" fill="#263238"/>
          </g>
          <g id="Grupo_1071760" data-name="Grupo 1071760" transform="translate(129.723 15.706)">
            <path id="Trazado_773143" data-name="Trazado 773143" d="M116.07,247.252H96.18a4.675,4.675,0,0,0-4.676,4.676v9.678a4.675,4.675,0,0,0,4.676,4.676h5.2l3.939,8.929,5.553-8.929h5.2a4.675,4.675,0,0,0,4.676-4.676v-9.678a4.675,4.675,0,0,0-4.676-4.676" transform="translate(-91.504 -247.252)" fill="#fff"/>
            <path id="Trazado_773144" data-name="Trazado 773144" d="M116.07,247.252H96.18a4.675,4.675,0,0,0-4.676,4.676v9.678a4.675,4.675,0,0,0,4.676,4.676h5.2l3.939,8.929,5.553-8.929h5.2a4.675,4.675,0,0,0,4.676-4.676v-9.678A4.675,4.675,0,0,0,116.07,247.252Z" transform="translate(-91.504 -247.252)" fill="none" stroke="#263238" stroke-linecap="round" stroke-linejoin="round" stroke-width="1"/>
            <path id="Trazado_773145" data-name="Trazado 773145" d="M102.048,251.518h2.9v1.212h-1.381v8.916h1.381v1.212h-2.9Z" transform="translate(-92.107 -247.496)" fill="#263238"/>
            <path id="Trazado_773146" data-name="Trazado 773146" d="M109.1,262.857v-1.212h1.369V252.73H109.1v-1.212h2.883v11.339Z" transform="translate(-92.509 -247.496)" fill="#263238"/>
          </g>
          <g id="Grupo_1071762" data-name="Grupo 1071762" transform="translate(166.559 0)">
            <path id="Trazado_773147" data-name="Trazado 773147" d="M173.811,246.2H157.953a3.728,3.728,0,0,0-3.728,3.728v7.716a3.728,3.728,0,0,0,3.728,3.728H162.1l3.141,7.119,4.428-7.119h4.145a3.728,3.728,0,0,0,3.728-3.728v-7.716a3.728,3.728,0,0,0-3.728-3.728" transform="translate(-154.225 -246.203)" fill="#fff"/>
            <path id="Trazado_773148" data-name="Trazado 773148" d="M173.811,246.2H157.953a3.728,3.728,0,0,0-3.728,3.728v7.716a3.728,3.728,0,0,0,3.728,3.728H162.1l3.141,7.119,4.428-7.119h4.145a3.728,3.728,0,0,0,3.728-3.728v-7.716A3.728,3.728,0,0,0,173.811,246.2Z" transform="translate(-154.225 -246.203)" fill="none" stroke="#263238" stroke-linecap="round" stroke-linejoin="round" stroke-width="1"/>
            <path id="Trazado_773149" data-name="Trazado 773149" d="M164.979,254.946c.386.125.57.386.57.986v1.835a.648.648,0,0,0,.715.734h.2v.966h-.483a1.434,1.434,0,0,1-1.642-1.574V255.9c0-.319-.164-.464-.435-.464h-.319v-.985h.319c.271,0,.435-.145.435-.464V252a1.434,1.434,0,0,1,1.642-1.574h.483v.966h-.2a.648.648,0,0,0-.715.734v1.834c0,.6-.183.86-.57.986" transform="translate(-156.55 -247.251)" fill="#263238"/>
            <path id="Trazado_773150" data-name="Trazado 773150" d="M174.282,254.454v.986h-.328c-.26,0-.425.144-.425.463v1.99a1.441,1.441,0,0,1-1.652,1.575H171.4V258.5h.2a.651.651,0,0,0,.725-.734v-1.835c0-.6.173-.86.56-.986-.387-.126-.56-.386-.56-.985v-1.835a.651.651,0,0,0-.725-.734h-.2v-.965h.483A1.441,1.441,0,0,1,173.529,252v1.989c0,.319.165.464.425.464Z" transform="translate(-158.487 -247.252)" fill="#263238"/>
          </g>
          <g id="Grupo_1071761" data-name="Grupo 1071761" transform="translate(58.534 29.685)">
            <path id="Trazado_773130" data-name="Trazado 773130" d="M147.852,260.568H128.187a4.622,4.622,0,0,0-4.623,4.623v9.568a4.622,4.622,0,0,0,4.623,4.623h5.14l3.895,8.828,5.491-8.828h5.14a4.622,4.622,0,0,0,4.623-4.623v-9.568a4.622,4.622,0,0,0-4.623-4.623" transform="translate(-123.564 -260.568)" fill="#fff6df"/>
            <path id="Trazado_773131" data-name="Trazado 773131" d="M147.852,260.568H128.187a4.622,4.622,0,0,0-4.623,4.623v9.568a4.622,4.622,0,0,0,4.623,4.623h5.14l3.895,8.828,5.491-8.828h5.14a4.622,4.622,0,0,0,4.623-4.623v-9.568A4.622,4.622,0,0,0,147.852,260.568Z" transform="translate(-123.564 -260.568)" fill="none" stroke="#263238" stroke-linecap="round" stroke-linejoin="round" stroke-width="1"/>
            <path id="Trazado_773132" data-name="Trazado 773132" d="M132.483,272.205h-5.018a1.935,1.935,0,0,0,2.071,1.533,2.289,2.289,0,0,0,1.737-.7l.8.923a3.592,3.592,0,0,1-6.108-2.24,3.181,3.181,0,0,1,3.306-3.27,3.119,3.119,0,0,1,3.233,3.307c0,.119-.011.3-.023.443m-5.03-.994h3.628a1.74,1.74,0,0,0-1.808-1.558,1.767,1.767,0,0,0-1.821,1.558" transform="translate(-123.726 -261.103)" fill="#263238"/>
            <rect id="Rectángulo_357240" data-name="Rectángulo 357240" width="1.497" height="8.887" transform="translate(10.213 4.934)" fill="#263238"/>
            <path id="Trazado_773133" data-name="Trazado 773133" d="M137.446,274.289l.575-1.138a4.291,4.291,0,0,0,2.227.635c.946,0,1.341-.263,1.341-.707,0-1.221-3.952-.072-3.952-2.623,0-1.209,1.089-2,2.814-2a5.085,5.085,0,0,1,2.395.551l-.575,1.137a3.5,3.5,0,0,0-1.832-.479c-.911,0-1.341.3-1.341.72,0,1.293,3.952.143,3.952,2.646,0,1.2-1.1,1.977-2.9,1.977a5.08,5.08,0,0,1-2.706-.719" transform="translate(-124.505 -261.103)" fill="#263238"/>
            <path id="Trazado_773134" data-name="Trazado 773134" d="M150.793,272.205h-5.018a1.936,1.936,0,0,0,2.071,1.533,2.289,2.289,0,0,0,1.737-.7l.8.923a3.592,3.592,0,0,1-6.108-2.24,3.181,3.181,0,0,1,3.306-3.27,3.119,3.119,0,0,1,3.233,3.307c0,.119-.011.3-.023.443m-5.03-.994h3.629a1.742,1.742,0,0,0-1.808-1.558,1.767,1.767,0,0,0-1.821,1.558" transform="translate(-124.968 -261.103)" fill="#263238"/>
          </g>
          <g id="Grupo_1071764" data-name="Grupo 1071764" transform="translate(181.12 128.491)">
            <path id="Trazado_773154" data-name="Trazado 773154" d="M183.341,426.28H160.311a5.413,5.413,0,0,1-5.413-5.413v-11.2a5.413,5.413,0,0,1,5.413-5.413h6.019l1.758-10.338,9.233,10.338h6.019a5.413,5.413,0,0,1,5.413,5.413v11.2a5.413,5.413,0,0,1-5.413,5.413" transform="translate(-154.898 -393.911)" fill="#2b5cf9"/>
            <path id="Trazado_773155" data-name="Trazado 773155" d="M183.341,426.28H160.311a5.413,5.413,0,0,1-5.413-5.413v-11.2a5.413,5.413,0,0,1,5.413-5.413h6.019l1.758-10.338,9.233,10.338h6.019a5.413,5.413,0,0,1,5.413,5.413v11.2A5.413,5.413,0,0,1,183.341,426.28Z" transform="translate(-154.898 -393.911)" fill="none" stroke="#263238" stroke-linecap="round" stroke-linejoin="round" stroke-width="1"/>
            <path id="Trazado_773156" data-name="Trazado 773156" d="M161.35,411.485l4.838,1.809L161.35,415.1v1.459l6.466-2.51v-1.515l-6.466-2.511Z" transform="translate(-141.004 -392.434)" fill="#f3f9ff"/>
            <path id="Trazado_773157" data-name="Trazado 773157" d="M169.276,406.7h-1.57l4.627,13.213H173.9Z" transform="translate(-154.029 -392.739)" fill="#f3f9ff"/>
            <path id="Trazado_773158" data-name="Trazado 773158" d="M173.69,412.537v1.515l6.466,2.511V415.1l-4.839-1.81,4.839-1.809v-1.459Z" transform="translate(-166.813 -392.434)" fill="#f3f9ff"/>
          </g>
        </g>
        <g id="Grupo_1071766" data-name="Grupo 1071766" transform="translate(502.784 484.875)">
          <g id="Grupo_1046034" data-name="Grupo 1046034" transform="translate(3.317 0.175)" opacity="0.2">
            <g id="Grupo_1046033" data-name="Grupo 1046033">
              <g id="Grupo_1046032" data-name="Grupo 1046032" clip-path="url(#clip-path-5)">
                <path id="Trazado_772936" data-name="Trazado 772936" d="M57.443,36.348a10.382,10.382,0,0,1-7.121,8.2L48.917,45C43.863,52.16,35,55.214,27.45,50.778l-2.21-1.3-6.187-7.354-.074.017a6.315,6.315,0,0,1-5.626-1.275,2.025,2.025,0,0,1-2.872,1.3,2.025,2.025,0,0,1-.249-3.144c-1.246,1.1-3.173.595-4.374-.606a37.79,37.79,0,0,1,1.1-9.8,39.5,39.5,0,0,1,1.955-5.807,40.909,40.909,0,0,1,2.034-4.158c.057-.113.125-.232.193-.346a49.785,49.785,0,0,1,3.768-5.677l.714-.646c.538-.493,1.082-.974,1.632-1.462.034-.028.068-.062.1-.091q1.317-1.156,2.668-2.283c1.388-1.161,2.8-2.3,4.221-3.433.045-.04.1-.074.142-.113,1.218-.963,2.447-1.921,3.671-2.872C28.68,1.262,29.292.786,29.909.31A5.065,5.065,0,0,1,31,.565c1.513.527,1.773,1.915,2.821,2.867,1.394,1.275,2.731-.867,4.878-.8,6.6.2,4.039,6.974,7.263,6.124,13.92-3.671,11.58,14.135,5.53,18.044,3.569,2.957,6.646,4.912,5.954,9.546" transform="translate(-5.854 -0.31)"/>
              </g>
            </g>
          </g>
          <path id="Trazado_772937" data-name="Trazado 772937" d="M49.6,35.128A23.333,23.333,0,0,1,26.119,58.315a23.188,23.188,0,1,1,0-46.373A23.333,23.333,0,0,1,49.6,35.128" transform="translate(-1.145 -5.176)" fill="#fff6df"/>
          <ellipse id="Elipse_6132" data-name="Elipse 6132" cx="23.477" cy="23.186" rx="23.477" ry="23.186" transform="translate(1.497 6.765)" fill="none" stroke="#263238" stroke-miterlimit="10" stroke-width="1"/>
          <path id="Trazado_772938" data-name="Trazado 772938" d="M49.109,35.037A21.408,21.408,0,1,1,27.7,13.9,21.275,21.275,0,0,1,49.109,35.037" transform="translate(-2.729 -6.024)" fill="#263238"/>
          <ellipse id="Elipse_6133" data-name="Elipse 6133" cx="21.406" cy="21.141" rx="21.406" ry="21.141" transform="translate(3.567 7.872)" fill="none" stroke="#fff" stroke-miterlimit="10" stroke-width="1"/>
          <path id="Trazado_772939" data-name="Trazado 772939" d="M1.971,37.348C.623,38.185.237,41,1.3,42.224S4.392,42.5,4.807,40.6a.633.633,0,0,0,1.144.16,1.305,1.305,0,0,0,.079-1.192c-.1-.086-.065-.147,0,0,.689.548,1.879-.05,2.044-1.221-.5,3.114,2.326,5.834,4.413,4.25a2.623,2.623,0,0,0,1.27,3.4c1.074.335,2.233-.3,3.265-1.007a6.835,6.835,0,0,1,3.213-1.561,7.815,7.815,0,0,1,2.83.837c2.98,1.037,6.468-.337,8.747-3.462,1.506,2.578,5.218,1.629,6.213-1.581a2.815,2.815,0,0,0,2.385,2.662,3.176,3.176,0,0,0,2.7-2.593v.02c.026,1.422,1.293,2.119,2.2,1.2a5.3,5.3,0,0,0,1.306-5.026c1.545-.062,3.038-1.853,3.272-3.927S49.077,27.4,47.588,27c2.556-1.062,4.559-4.543,4.655-8.1S50.511,12.051,48,11.221a2.673,2.673,0,0,0-2.882.6A6.883,6.883,0,0,0,42.55,7.087C40.4,5.632,37.4,6.629,35.8,9.338a5.328,5.328,0,0,0,.124-4.75,2.472,2.472,0,0,0-3.327-1.227C32.333,1.192,30.658-.352,29.02.07S26.063,2.81,26.2,5a1.575,1.575,0,0,0-2.991-.722c.064.134-.032.054,0,0-1.04-2.186-3.16-3.31-5.127-2.671-2.091.686-3.847,3.313-4.116,6.176a3.7,3.7,0,0,0-5.1.142A7.886,7.886,0,0,0,6.7,14.347c-1.627-1.606-4.365-.73-5.48,1.752s-.347,6,1.538,7.036c-1.3.2-2.443,1.921-2.444,3.666s1.15,3.242,2.452,3.2C1.455,30.111.218,31.663.026,33.426s.687,3.534,1.945,3.922" transform="translate(0.001 0)" fill="#949af8"/>
          <g id="Grupo_1046037" data-name="Grupo 1046037" transform="translate(4.825 8.624)" opacity="0.2">
            <g id="Grupo_1046036" data-name="Grupo 1046036">
              <g id="Grupo_1046035" data-name="Grupo 1046035" clip-path="url(#clip-path-6)">
                <path id="Trazado_772940" data-name="Trazado 772940" d="M38.477,49.624a2.438,2.438,0,0,0-2.293-.565,2.718,2.718,0,0,0-1.717,2.105,2.034,2.034,0,0,0,1.077,2.351c.955.237,1.935-.831,2.91-.715a6.955,6.955,0,0,1,1,.329c1.4.393,2.812-.863,4-2.044a5.489,5.489,0,0,0,1.13-1.412,2.3,2.3,0,0,0,.152-1.863,1.575,1.575,0,0,0-1.9-.68,7.618,7.618,0,0,0-3.947,2.322l.126-.858Z" transform="translate(-19.747 -29.025)" fill="#fff"/>
                <path id="Trazado_772941" data-name="Trazado 772941" d="M75.627,46.057a3.15,3.15,0,0,0-1.214-.748,1.168,1.168,0,0,0-1.281.533,1.866,1.866,0,0,0,.316,2.13,2.967,2.967,0,0,0,1.777.664c.646.088,1.462.068,1.8-.681a1.632,1.632,0,0,0-.273-1.632,2.749,2.749,0,0,0-1.259-.723Z" transform="translate(-36.434 -28.249)" fill="#fff"/>
                <path id="Trazado_772942" data-name="Trazado 772942" d="M19.053,24.076a6.191,6.191,0,0,0-2.683,4.145c-.1.535-.1,1.2.258,1.461a.946.946,0,0,0,.881-.025l3.762-1.362a5.657,5.657,0,0,0-1.706,1.244,2.832,2.832,0,0,0-.681,2.219,1.631,1.631,0,0,0,1.706,1.381,3.675,3.675,0,0,0,2.081-1.174,3.823,3.823,0,0,0,1.345-2.523c.031-1.023-.961-1.909-1.589-1.216a13.935,13.935,0,0,0,4.059-2.578,4.836,4.836,0,0,0,1.187-1.457,2.488,2.488,0,0,0,.154-1.952c-1.225-2.884-2.919,1.56-3.714,1.995-1.505.825-3.148-1.282-5.06-.156" transform="translate(-11.895 -17.844)" fill="#fff"/>
                <path id="Trazado_772943" data-name="Trazado 772943" d="M9.628,46.614a1.8,1.8,0,0,0,.3,1.634.739.739,0,0,0,1.2-.386,4.563,4.563,0,0,0-2.277,1.749c-.537.929-.437,2.488.388,2.784.515.185,1.075-.174,1.56-.538a32.227,32.227,0,0,0,3.924-3.484,1.8,1.8,0,0,0,1.408,2.346A4.277,4.277,0,0,0,18.75,49.4c.993-.819,2.136-2.046,1.9-3.453a1.694,1.694,0,0,0-2.4-1.275,6.66,6.66,0,0,0-2.385,2.43,1.785,1.785,0,0,0-1.092-2.51,2.84,2.84,0,0,0-2.365,1.521c1.053-.791,1.321-2.7-.068-2.837-.9-.088-2.484,2.359-2.721,3.335" transform="translate(-8.516 -27.382)" fill="#fff"/>
                <path id="Trazado_772944" data-name="Trazado 772944" d="M58.875,38.5c-.779-.326-1.775.386-2.006,1.434a1.879,1.879,0,0,0,1.184,2.3,2.492,2.492,0,0,0-1.605,1.151,1.963,1.963,0,0,0-.355,1.21,1.106,1.106,0,0,0,1.1,1.019,3.024,3.024,0,0,0,1.466-.61,2.474,2.474,0,0,0-1.442.616,1.443,1.443,0,0,0-.244,1.695c.292.361.786.268,1.194.1a6.452,6.452,0,0,0,2.483-1.909,1.992,1.992,0,0,0,2.032.977,1.969,1.969,0,0,0,1.213-2.208,1.423,1.423,0,0,0-1.248-1.1,3.259,3.259,0,0,0-1.63.424,4.179,4.179,0,0,0,1.339-1.913c.211-.815-.194-1.867-.854-1.762-.741.119-1.143,1.427-1.735,1.924-.705-.818.677-2.693-.89-3.349" transform="translate(-29.136 -25.279)" fill="#fff"/>
                <path id="Trazado_772945" data-name="Trazado 772945" d="M36.735,32.749A4.723,4.723,0,0,0,35.6,36.268c.039,1.424.52,2.919,1.538,3.43,1.338.671,3.054-.867,3.336-2.738a4.581,4.581,0,0,0-1.932-4.486,1.623,1.623,0,0,0-1.8.274" transform="translate(-20.253 -22.631)" fill="#fff"/>
                <path id="Trazado_772946" data-name="Trazado 772946" d="M52.287,28.137l.341.362a1.489,1.489,0,0,0-2.46-.1,2.7,2.7,0,0,0-.066,3.154,1.536,1.536,0,0,0,2.471-.378,2.263,2.263,0,0,0,2.963-.884c.706-1.1.585-2.931-.339-3.551s-2.366.483-2.291,1.844l-.4-.552Z" transform="translate(-26.335 -20.139)" fill="#fff"/>
                <path id="Trazado_772947" data-name="Trazado 772947" d="M71.316,31.909A7.8,7.8,0,0,0,69.654,34.9c-.266,1.169.112,2.615,1.015,2.854s1.772-.765,2.305-1.786a4.571,4.571,0,0,0,.608-3.059c-.249-1-1.387-1.533-1.976-.714Z" transform="translate(-34.981 -22.404)" fill="#fff"/>
                <path id="Trazado_772948" data-name="Trazado 772948" d="M44.121,18.674a1.309,1.309,0,0,0-2.112-.616,2.9,2.9,0,0,0-.71,2.85,2.231,2.231,0,0,0,1.9,1.651,2.093,2.093,0,0,0,2.045-2.317,1.819,1.819,0,0,0,1.945.825,5.013,5.013,0,0,0,2.054-1.1A3.8,3.8,0,0,0,50.979,17a1.81,1.81,0,0,0-1.587-1.77,2.911,2.911,0,0,0-2.182,1.16c-.482.543-.887,1.2-1.406,1.684a1.5,1.5,0,0,1-1.759.424Z" transform="translate(-22.677 -15.222)" fill="#fff"/>
              </g>
            </g>
          </g>
        </g>
      </g>
    </g>
  </g>
</svg>
