<svg xmlns="http://www.w3.org/2000/svg" xmlns:xlink="http://www.w3.org/1999/xlink" width="233.513" height="217.569" viewBox="0 0 233.513 217.569">
  <defs>
    <clipPath id="clip-path">
      <rect id="Rectángulo_405671" data-name="Rectángulo 405671" width="232.998" height="212.466" rx="14" transform="translate(0 0)" fill="#b0c8cb"/>
    </clipPath>
  </defs>
  <g id="Grupo_1102875" data-name="Grupo 1102875" transform="translate(-198.01 -3338.274)">
    <g id="Enmascarar_grupo_1098702" data-name="Enmascarar grupo 1098702" transform="translate(198.524 3343.378)" clip-path="url(#clip-path)">
      <path id="Rectángulo_401740" data-name="Rectángulo 401740" d="M58.741,18.747A40.039,40.039,0,0,0,18.747,58.741V62.49a39.994,39.994,0,0,0,79.987,0V58.741A40.039,40.039,0,0,0,58.741,18.747M58.741,0a58.74,58.74,0,0,1,58.741,58.741V62.49A58.741,58.741,0,1,1,0,62.49V58.741A58.74,58.74,0,0,1,58.741,0Z" transform="translate(-58.741 155.6)" fill="#13de61"/>
      <path id="Rectángulo_401740-2" data-name="Rectángulo 401740" d="M58.741,18.747A40.039,40.039,0,0,0,18.747,58.741V62.49a39.994,39.994,0,0,0,79.987,0V58.741A40.039,40.039,0,0,0,58.741,18.747M58.741,0a58.74,58.74,0,0,1,58.741,58.741V62.49A58.741,58.741,0,1,1,0,62.49V58.741A58.74,58.74,0,0,1,58.741,0Z" transform="translate(138.728 -47.403)" fill="#fff"/>
    </g>
    <g id="Version_control-bro" data-name="Version control-bro" transform="translate(198.524 3338.789)">
      <g id="freepik--Graphics--inject-9" transform="translate(0 0)">
        <rect id="Rectángulo_406364" data-name="Rectángulo 406364" width="107.402" height="107.402" rx="11.22" transform="translate(50.929 51.51)" fill="#fff" stroke="#263238" stroke-miterlimit="10" stroke-width="1.029"/>
        <path id="Trazado_882324" data-name="Trazado 882324" d="M126.418,301.39,112.51,328.43h63.043" transform="translate(-35.219 -188.56)" fill="none" stroke="#263238" stroke-linecap="round" stroke-linejoin="round" stroke-width="1.029"/>
        <path id="Trazado_882325" data-name="Trazado 882325" d="M179.594,255.63,150.17,275.189l29.424,8.856" transform="translate(-39.259 -183.651)" fill="none" stroke="#263238" stroke-linecap="round" stroke-linejoin="round" stroke-width="1.029"/>
        <rect id="Rectángulo_406365" data-name="Rectángulo 406365" width="13.908" height="13.908" transform="translate(133.38 65.025)" fill="#1169e3" stroke="#263238" stroke-miterlimit="10" stroke-width="1.029"/>
        <rect id="Rectángulo_406366" data-name="Rectángulo 406366" width="13.908" height="13.908" transform="translate(133.38 93.44)" fill="#1169e3" stroke="#263238" stroke-miterlimit="10" stroke-width="1.029"/>
        <rect id="Rectángulo_406367" data-name="Rectángulo 406367" width="13.908" height="13.908" transform="translate(103.956 84.585)" fill="#1169e3" stroke="#263238" stroke-miterlimit="10" stroke-width="1.029"/>
        <rect id="Rectángulo_406368" data-name="Rectángulo 406368" width="13.908" height="13.908" transform="translate(84.245 105.876)" fill="#1169e3" stroke="#263238" stroke-miterlimit="10" stroke-width="1.029"/>
        <rect id="Rectángulo_406369" data-name="Rectángulo 406369" width="13.908" height="13.908" transform="translate(70.337 132.907)" fill="#1169e3" stroke="#263238" stroke-miterlimit="10" stroke-width="1.029"/>
        <rect id="Rectángulo_406370" data-name="Rectángulo 406370" width="13.908" height="13.908" transform="translate(133.38 132.907)" fill="#1169e3" stroke="#263238" stroke-miterlimit="10" stroke-width="1.029"/>
        <rect id="Rectángulo_406371" data-name="Rectángulo 406371" width="107.402" height="107.402" rx="11.22" transform="translate(0 9.418)" fill="#fff" stroke="#263238" stroke-miterlimit="10" stroke-width="1.029"/>
        <rect id="Rectángulo_406372" data-name="Rectángulo 406372" width="71.444" height="5.535" transform="translate(11.364 19.809)" fill="#1169e3"/>
        <rect id="Rectángulo_406373" data-name="Rectángulo 406373" width="41.279" height="5.535" transform="translate(11.364 28.924)" fill="#1169e3"/>
        <rect id="Rectángulo_406374" data-name="Rectángulo 406374" width="24.041" height="5.535" transform="translate(11.364 38.039)" fill="#1169e3"/>
        <rect id="Rectángulo_406375" data-name="Rectángulo 406375" width="39.565" height="5.535" transform="translate(11.364 47.144)" fill="#1169e3"/>
        <rect id="Rectángulo_406376" data-name="Rectángulo 406376" width="61.678" height="5.535" transform="translate(11.364 56.259)" fill="#1169e3"/>
        <rect id="Rectángulo_406377" data-name="Rectángulo 406377" width="41.279" height="5.535" transform="translate(11.364 65.364)" fill="#1169e3"/>
        <rect id="Rectángulo_406378" data-name="Rectángulo 406378" width="28.799" height="5.535" transform="translate(11.364 74.479)" fill="#1169e3"/>
        <rect id="Rectángulo_406379" data-name="Rectángulo 406379" width="46.626" height="5.535" transform="translate(11.364 83.594)" fill="#1169e3"/>
        <rect id="Rectángulo_406380" data-name="Rectángulo 406380" width="56.527" height="5.535" transform="translate(11.364 92.699)" fill="#1169e3"/>
        <rect id="Rectángulo_406381" data-name="Rectángulo 406381" width="71.444" height="5.535" transform="translate(11.364 101.814)" fill="#1169e3"/>
        <rect id="Rectángulo_406382" data-name="Rectángulo 406382" width="71.444" height="5.535" transform="translate(11.364 19.809)" opacity="0.3"/>
        <rect id="Rectángulo_406383" data-name="Rectángulo 406383" width="41.279" height="5.535" transform="translate(11.364 28.924)" opacity="0.3"/>
        <rect id="Rectángulo_406384" data-name="Rectángulo 406384" width="24.041" height="5.535" transform="translate(11.364 38.039)" opacity="0.3"/>
        <rect id="Rectángulo_406385" data-name="Rectángulo 406385" width="39.565" height="5.535" transform="translate(11.364 47.144)" opacity="0.3"/>
        <rect id="Rectángulo_406386" data-name="Rectángulo 406386" width="61.678" height="5.535" transform="translate(11.364 56.259)" opacity="0.3"/>
        <rect id="Rectángulo_406387" data-name="Rectángulo 406387" width="41.279" height="5.535" transform="translate(11.364 65.364)" opacity="0.3"/>
        <rect id="Rectángulo_406388" data-name="Rectángulo 406388" width="28.799" height="5.535" transform="translate(11.364 74.479)" opacity="0.3"/>
        <rect id="Rectángulo_406389" data-name="Rectángulo 406389" width="46.626" height="5.535" transform="translate(11.364 83.594)" opacity="0.3"/>
        <rect id="Rectángulo_406390" data-name="Rectángulo 406390" width="56.527" height="5.535" transform="translate(11.364 92.699)" opacity="0.3"/>
        <rect id="Rectángulo_406391" data-name="Rectángulo 406391" width="71.444" height="5.535" transform="translate(11.364 101.814)" opacity="0.3"/>
        <path id="Trazado_882326" data-name="Trazado 882326" d="M89.621,175h26a4.731,4.731,0,0,1,4.731,4.731v4.7H84.89v-4.7A4.731,4.731,0,0,1,89.621,175Z" transform="translate(-32.256 -175)" fill="#fff" stroke="#263238" stroke-miterlimit="10" stroke-width="1.029"/>
        <path id="Trazado_882327" data-name="Trazado 882327" d="M69.91,175H95.6a4.892,4.892,0,0,1,4.892,4.892v4.553H65v-4.553A4.892,4.892,0,0,1,69.91,175Z" transform="translate(-30.122 -175)" fill="#1169e3" stroke="#263238" stroke-miterlimit="10" stroke-width="1.029"/>
        <path id="Trazado_882328" data-name="Trazado 882328" d="M47.821,175H74.138a4.58,4.58,0,0,1,4.6,4.553v4.865H43.25v-4.865A4.58,4.58,0,0,1,47.821,175Z" transform="translate(-27.788 -175)" fill="#fff" stroke="#263238" stroke-miterlimit="10" stroke-width="1.029"/>
      </g>
      <g id="freepik--Character--inject-9" transform="translate(87.614 33.477)">
        <path id="Trazado_882340" data-name="Trazado 882340" d="M262.94,379.945a29.539,29.539,0,0,1-11.605,2.678c-6.178,0-18.747-12.766-18.747-12.766s-.455-1.375.527-6.517,10.213-52.322,10.213-52.322,1.089-10.98,7.329-17.72,18.488-9.141,18.488-9.141,27.085-11.793,42.279-8.15c15.176,6.026,31.754,12.15,37.289,16.9s19.14,42.85,23.853,62.418c0,0-10.382,22.059-20.068,28.254s-33.03,4.178-33.03,4.178Z" transform="translate(-232.117 -206.74)" fill="#1169e3"/>
        <path id="Trazado_882341" data-name="Trazado 882341" d="M259.5,343.321l-3.919-52a17.069,17.069,0,0,0-10.257,12.132c-2.026,9.3-14.283,66.552-12.766,68.141s9.507,8.436,9.507,8.436,8.615,7.365,17.435,2.964S259.5,343.321,259.5,343.321Z" transform="translate(-232.111 -208.458)" opacity="0.3"/>
        <path id="Trazado_882342" data-name="Trazado 882342" d="M298.348,294.915c-.455,1.553-2.41,2.053-4.035,2.071a19.229,19.229,0,0,1-12.739-4.642c-.643-.562-12.132,6.535-13.453,7.24-2.089,1.125-4.133,2.357-6.249,3.4-1.982.973-3.857,1.455-5.151,3.419a17.641,17.641,0,0,0-1.919,4.642c-2.785,9.124-5.722,18.22-8.258,27.406-2.2,7.954-5.151,16.756-5.026,25.1a13.239,13.239,0,0,0,.125,1.785c1.785,10.668,21.264,15.1,21.264,15.1s-6.892,4.223-11.605,2.678-15.73-7.847-19.2-13.739l9.561-49.992s-.116-24.1,17.256-31.245,24.193-8.24,24.193-8.24Z" transform="translate(-232.076 -207.233)" opacity="0.3"/>
        <path id="Trazado_882343" data-name="Trazado 882343" d="M375.4,374.942s7.588-8.383,10.043-17.72c0,0-11.605-38.333-14.623-45.528s-7.9-15.364-11.32-18.863l-5.553,78.9-1.169,16.6s6.249.259,10.579-1.785S375.4,374.942,375.4,374.942Z" transform="translate(-245.023 -208.62)" opacity="0.3"/>
        <path id="Trazado_882344" data-name="Trazado 882344" d="M342.659,386.352l6.722-95.52s-32.548-15.176-41.065-16.622-49.876,14.855-49.876,14.855l6.017,91.61" transform="translate(-234.902 -206.613)" fill="none" stroke="#263238" stroke-linecap="round" stroke-linejoin="round" stroke-width="1.029"/>
        <path id="Trazado_882345" data-name="Trazado 882345" d="M286.014,221.788l-3.339,16.024s-4.285-3.026-5.2.393,1.875,8.124,7.258,8.383c0,0,1.464,7.258,6.249,12.186a89.024,89.024,0,0,0,7.142,6.82s1.884,12.168,8.034,12.632,7.347-5.071,8.588-12.766c0,0,5.312-9.213,6.865-14.194,0,0,6.517-4.544,2.169-11.177,0,0,2.151-15.864-1.589-18.542S292.54,220.235,286.014,221.788Z" transform="translate(-236.926 -200.81)" fill="#fff"/>
        <path id="Trazado_882346" data-name="Trazado 882346" d="M307.131,284.621s-2.062,10.391-3.348,10.65-6.374-4.6-10.82-10.65-3.758-6.062-3.758-6.062,2.062-7.945,3.758-9.106,7.811-1.018,7.811-1.018l13.391-.509s4.464-.634,7.222,1.143,4.1,9.49,4.1,9.49-8.034,14.81-14.587,16.712a97.393,97.393,0,0,1-3.767-10.65Z" transform="translate(-238.199 -205.937)" fill="#fff"/>
        <line id="Línea_3843" data-name="Línea 3843" y1="24.925" x2="1.776" transform="translate(25.038 131.782)" fill="none" stroke="#263238" stroke-miterlimit="10" stroke-width="1.029"/>
        <path id="Trazado_882347" data-name="Trazado 882347" d="M324.216,226.481s-7.606,2.946-14.328,2.384c0,0-7.1,7.142-16.185,2.9,0,0-8.2,22.193,10.6,36.708a32.138,32.138,0,0,1-19.559-21.791s-5.356.83-7.258-7.142c0,0-1.544-3.08,5.5-3.1l-.3-15.444,18.1,3.633,12.989-1.9Z" transform="translate(-236.93 -200.914)" fill="#1169e3"/>
        <path id="Trazado_882348" data-name="Trazado 882348" d="M324.215,226.477s-7.606,2.946-14.328,2.384c0,0-7.1,7.142-16.185,2.9,0,0-6.624,23.764,9.82,36.307,0,0-14.917-5.169-18.792-21.425,0,0-5.3-.562-7.258-7.142,0,0-1.544-3.08,5.5-3.1l-.3-15.444,18.1,3.633,12.989-1.9Z" transform="translate(-236.929 -200.91)" fill="#fff" opacity="0.4"/>
        <path id="Trazado_882349" data-name="Trazado 882349" d="M306.68,260.124a19.289,19.289,0,0,0,1.848,1.321c.42.268,1.053.482,1.348.089a.991.991,0,0,0,.152-.536c.268-4.383-.759-8.811-.134-13.159" transform="translate(-240.077 -203.794)" fill="none" stroke="#263238" stroke-linecap="round" stroke-linejoin="round" stroke-width="1.029"/>
        <path id="Trazado_882350" data-name="Trazado 882350" d="M313.51,244.775s2.178-4.8,7.793-.491" transform="translate(-240.81 -203.219)" fill="none" stroke="#263238" stroke-linecap="round" stroke-linejoin="round" stroke-width="2.059"/>
        <path id="Trazado_882351" data-name="Trazado 882351" d="M304.495,245.733s-4.106-5.106-9.195.161" transform="translate(-238.857 -203.329)" fill="none" stroke="#263238" stroke-linecap="round" stroke-linejoin="round" stroke-width="2.059"/>
        <path id="Trazado_882352" data-name="Trazado 882352" d="M299.39,270.1s2.187,13.1,9.9,13.5c6.249.321,7.481-10.507,7.722-14.382" transform="translate(-239.295 -206.087)" fill="none" stroke="#263238" stroke-linecap="round" stroke-linejoin="round" stroke-width="1.029"/>
        <path id="Trazado_882353" data-name="Trazado 882353" d="M283.728,241.265s-3.4-4.062-5.7-2.08,1.152,10.713,6.713,9.391" transform="translate(-236.925 -202.806)" fill="none" stroke="#263238" stroke-linecap="round" stroke-linejoin="round" stroke-width="1.029"/>
        <path id="Trazado_882354" data-name="Trazado 882354" d="M301,263.42a12.016,12.016,0,0,0,6.535,4.035" transform="translate(-239.468 -205.465)" fill="none" stroke="#263238" stroke-linecap="round" stroke-linejoin="round" stroke-width="1.029"/>
        <ellipse id="Elipse_11567" data-name="Elipse 11567" cx="0.884" cy="1.875" rx="0.884" ry="1.875" transform="translate(60.273 46.609)" fill="#263238"/>
        <path id="Trazado_882355" data-name="Trazado 882355" d="M317.405,252.584c0,1.036-.4,1.875-.893,1.875s-.893-.839-.893-1.875.393-1.884.893-1.884S317.405,251.548,317.405,252.584Z" transform="translate(-241.037 -204.1)" fill="#263238"/>
        <path id="Trazado_882356" data-name="Trazado 882356" d="M307.389,283.443s-2.143,11.668-3.571,11.927-12.418-9.7-14.578-16.712c0,0,2.321-9.159,4.464-9.49,1.009-.161,2.169-.312,3.089-.428" transform="translate(-238.206 -206.036)" fill="none" stroke="#263238" stroke-linecap="round" stroke-linejoin="round" stroke-width="1.029"/>
        <path id="Trazado_882357" data-name="Trazado 882357" d="M309.57,283.316s2.071,11.668,3.517,11.927,12.427-9.7,14.587-16.712c0,0-2.625-9.1-4.615-9.864a24.568,24.568,0,0,0-3.91-1.107" transform="translate(-240.388 -205.909)" fill="none" stroke="#263238" stroke-linecap="round" stroke-linejoin="round" stroke-width="1.029"/>
        <path id="Trazado_882358" data-name="Trazado 882358" d="M285.809,247.43c1.41,2.446,3.16-6.169,2.419-8.927-.5-1.785-1.473-3.517-1.562-5.356-.089-2.089.893-4.044,1.66-6s1.169-4.285,0-6.035a27.29,27.29,0,0,0,13.766,4.937,8.65,8.65,0,0,0,3.767-.3,3.7,3.7,0,0,0,2.446-2.678c4.642.589,9.24,1.2,13.864.562,3.883-.527,9.918-1.509,11.909-5.472,2.919-5.785-4.6-11.793-9.034-13.819-10.713-4.9-25.192-5.731-34.869,1.964a35.362,35.362,0,0,1-3.116,2.41c-2.134,1.339-6.99,2.375-8.7,4.24-2.285,2.509.58,21.88.58,21.88s3.732-1.732,5.267,4.044C285.282,242.77,284.381,244.967,285.809,247.43Z" transform="translate(-236.945 -198.724)" fill="#263238"/>
        <path id="Trazado_882359" data-name="Trazado 882359" d="M326.113,224.283a4.329,4.329,0,0,0-.125.732,20.059,20.059,0,0,0,.777,6.508c.241.946.589,1.866.741,2.83.357,2.294.357,4.508,2.053,6.374,0,0,3.249-11.364,1.937-19.488-.152-.893-.446-3.3-1.884-2.866-1.053.321-1.785,2.125-2.25,3a15.05,15.05,0,0,0-1.25,2.91Z" transform="translate(-242.147 -200.627)" fill="#263238"/>
        <path id="Trazado_882360" data-name="Trazado 882360" d="M275.89,211.444a11.034,11.034,0,0,1,9.972-1.339A34.905,34.905,0,0,1,296.422,198.5" transform="translate(-236.774 -198.5)" fill="none" stroke="#263238" stroke-linecap="round" stroke-linejoin="round" stroke-width="1.029"/>
        <path id="Trazado_882361" data-name="Trazado 882361" d="M291.53,209.6s17.5,12.444,28.094,9.365,7.633-12.194,7.633-12.194" transform="translate(-238.452 -199.387)" fill="none" stroke="#fff" stroke-linecap="round" stroke-linejoin="round" stroke-width="1.029" opacity="0.47"/>
        <path id="Trazado_882362" data-name="Trazado 882362" d="M293.42,207.1s21.97,10.1,25.665-4.2" transform="translate(-238.655 -198.972)" fill="none" stroke="#fff" stroke-linecap="round" stroke-linejoin="round" stroke-width="1.029" opacity="0.47"/>
        <path id="Trazado_882363" data-name="Trazado 882363" d="M299.39,270.1s4.178,8.115,7.454,7.981,9.284-8.865,9.284-8.865-3.241,4.178-8.159,4.606C304.728,274.112,299.39,270.1,299.39,270.1Z" transform="translate(-239.295 -206.087)" fill="#263238"/>
        <path id="Trazado_882364" data-name="Trazado 882364" d="M323.7,334.465l.678-.312a1.839,1.839,0,0,0,1.062-2.026l-.134-.821a1.83,1.83,0,0,0-1.687-1.535l-.821-.071a1.83,1.83,0,0,1-1.527-1.044c-.223-.464-.455-.893-.714-1.357a1.83,1.83,0,0,1,0-1.839l.42-.714a1.9,1.9,0,0,0-.295-2.276l-.589-.58a1.785,1.785,0,0,0-2.276-.277l-.723.429a1.83,1.83,0,0,1-1.839,0,14.852,14.852,0,0,0-3.741-1.527,1.839,1.839,0,0,1-1.321-1.339l-.214-.893a1.785,1.785,0,0,0-1.839-1.41h-.821a1.785,1.785,0,0,0-1.839,1.4l-.232.893a1.785,1.785,0,0,1-1.294,1.321c-.464.134-.893.268-1.357.437a1.848,1.848,0,0,1-1.83-.339l-.741-.634a1.785,1.785,0,0,0-2.259-.134l-.652.446a1.785,1.785,0,0,0-.687,2.214l.33.893a1.848,1.848,0,0,1-.286,1.839,12.642,12.642,0,0,0-.83,1.1,1.83,1.83,0,0,1-1.705.786l-.893-.08a1.785,1.785,0,0,0-1.937,1.223l-.295.8a1.839,1.839,0,0,0,.67,2.151l.893.6a1.866,1.866,0,0,1,.768,1.687,10.984,10.984,0,0,0-.071,1.437h0a1.9,1.9,0,0,1-.893,1.562l-.893.482a1.839,1.839,0,0,0-.893,2.116l.214.8a1.83,1.83,0,0,0,1.839,1.375h.893a1.857,1.857,0,0,1,1.607.893,11.914,11.914,0,0,0,.795,1.277,1.839,1.839,0,0,1,.143,1.839l-.375.786a1.839,1.839,0,0,0,.482,2.241l.634.536a1.839,1.839,0,0,0,2.285.08l.661-.464a1.785,1.785,0,0,1,1.785-.17c.473.223.946.42,1.437.607a1.83,1.83,0,0,1,1.169,1.41l.134.8a1.848,1.848,0,0,0,1.7,1.535l.839.071a1.83,1.83,0,0,0,1.91-1.241l.259-.714a1.848,1.848,0,0,1,1.428-1.205,15.322,15.322,0,0,0,1.544-.33,1.848,1.848,0,0,1,1.785.482l.545.553a1.839,1.839,0,0,0,2.25.3l.732-.411a1.839,1.839,0,0,0,.893-2.125l-.205-.714a1.848,1.848,0,0,1,.464-1.839,15.184,15.184,0,0,0,1.089-1.187,1.839,1.839,0,0,1,1.785-.625l.741.143a1.839,1.839,0,0,0,2.026-1.053l.348-.75a1.83,1.83,0,0,0-.518-2.241l-.553-.455a1.785,1.785,0,0,1-.678-1.705,14.794,14.794,0,0,0,.17-1.652,1.839,1.839,0,0,1,1.053-1.464Zm-11.061.473a4.856,4.856,0,1,1-4.856-4.847h0a4.838,4.838,0,0,1,4.847,4.821Z" transform="translate(-238.323 -211.199)" fill="#263238"/>
        <path id="Trazado_882365" data-name="Trazado 882365" d="M259.388,370.28A18.6,18.6,0,0,1,257,372.485a20,20,0,0,0-5.08,8.106,6.615,6.615,0,0,0,0,4.392c1.08,2.678,4.508,5.356,7.249,3.642" transform="translate(-234.163 -216.93)" fill="none" stroke="#263238" stroke-linecap="round" stroke-linejoin="round" stroke-width="1.029"/>
        <path id="Trazado_882366" data-name="Trazado 882366" d="M258.693,364.992c-2.616-.411-5.187,1.107-6.972,3.044s-3.026,4.33-4.651,6.41" transform="translate(-233.682 -216.355)" fill="none" stroke="#263238" stroke-linecap="round" stroke-linejoin="round" stroke-width="1.029"/>
        <path id="Trazado_882367" data-name="Trazado 882367" d="M256.879,383.895a17.684,17.684,0,0,1-10.347-1.107,29.263,29.263,0,0,1-5.731-4.035l-6.785-5.606c-1.089-.893-2.294-2.187-1.848-3.526,0,0,11.337-59.749,13.114-66.212,2.062-7.454,10.364-12.5,10.364-12.5" transform="translate(-232.073 -208.414)" fill="none" stroke="#263238" stroke-linecap="round" stroke-linejoin="round" stroke-width="1.029"/>
        <path id="Trazado_882368" data-name="Trazado 882368" d="M355.15,371a19.2,19.2,0,0,1,6.436,8.6,47.5,47.5,0,0,1,2.026,9.757c-1.785.982-5.356,3.571-8.463,3.571" transform="translate(-245.278 -217.007)" fill="none" stroke="#263238" stroke-linecap="round" stroke-linejoin="round" stroke-width="1.029"/>
        <path id="Trazado_882369" data-name="Trazado 882369" d="M355.58,365.411c2.75-.732,5.472,1.143,7.552,3.089s4.214,4.2,7.044,4.508" transform="translate(-245.324 -216.39)" fill="none" stroke="#263238" stroke-linecap="round" stroke-linejoin="round" stroke-width="1.029"/>
        <path id="Trazado_882370" data-name="Trazado 882370" d="M356.17,388.689c5.356-.562,10.177-3.482,14.033-7.2s6.82-8.24,9.757-12.712c2.384-3.624,4.8-7.347,5.847-11.552,0,0-9.4-31.075-14.623-45.528-5.446-15.024-11.32-18.863-11.32-18.863" transform="translate(-245.387 -208.62)" fill="none" stroke="#263238" stroke-linecap="round" stroke-linejoin="round" stroke-width="1.029"/>
        <path id="Trazado_882371" data-name="Trazado 882371" d="M355.58,365.2c4.847-4.071,12.284-.777,17.5,1.955" transform="translate(-245.324 -216.18)" fill="none" stroke="#263238" stroke-linecap="round" stroke-linejoin="round" stroke-width="1.029"/>
        <rect id="Rectángulo_406394" data-name="Rectángulo 406394" width="84.638" height="48.644" transform="translate(25.225 132.389)" fill="#fff"/>
        <rect id="Rectángulo_406395" data-name="Rectángulo 406395" width="85.45" height="2.544" transform="translate(24.806 181.033)" fill="#263238"/>
        <path id="Trazado_882372" data-name="Trazado 882372" d="M259.86,395.444,344.927,346.8l.384,48.644Z" transform="translate(-235.054 -214.411)" fill="#263238"/>
        <path id="Trazado_882373" data-name="Trazado 882373" d="M259.86,395.444,344.927,346.8l.384,48.644Z" transform="translate(-235.054 -214.411)" fill="#fff" opacity="0.9"/>
        <circle id="Elipse_11568" data-name="Elipse 11568" cx="7.213" cy="7.213" r="7.213" transform="translate(58.487 155.916) rotate(-45)" fill="#263238"/>
        <rect id="Rectángulo_406396" data-name="Rectángulo 406396" width="84.638" height="48.644" transform="translate(25.225 132.389)" fill="none" stroke="#263238" stroke-linecap="round" stroke-linejoin="round" stroke-width="1.029"/>
        <path id="Trazado_882374" data-name="Trazado 882374" d="M284.06,236.06s1.857,16.962,4.214,20.024,9.927,14.141,18.176,13.971,13.632-10.775,14.98-15.319a78.754,78.754,0,0,0,3.026-17.667" transform="translate(-237.651 -202.53)" fill="none" stroke="#263238" stroke-linecap="round" stroke-linejoin="round" stroke-width="1.029"/>
        <path id="Trazado_882375" data-name="Trazado 882375" d="M326.88,253.657s6.115-3.16,2.169-11.177" transform="translate(-242.245 -203.218)" fill="none" stroke="#263238" stroke-linecap="round" stroke-linejoin="round" stroke-width="1.029"/>
      </g>
    </g>
  </g>
</svg>
