<svg xmlns="http://www.w3.org/2000/svg" xmlns:xlink="http://www.w3.org/1999/xlink" width="85" height="85" viewBox="0 0 85 85">
  <defs>
    <clipPath id="clip-path">
      <rect id="Rectángulo_405639" data-name="Rectángulo 405639" width="62" height="62" transform="translate(296.523 3174)" fill="#fff" stroke="#707070" stroke-width="1"/>
    </clipPath>
  </defs>
  <g id="Grupo_1102938" data-name="Grupo 1102938" transform="translate(-285.523 -3162)">
    <circle id="Elipse_11498" data-name="Elipse 11498" cx="42.5" cy="42.5" r="42.5" transform="translate(285.523 3162)" fill="#1169e3"/>
    <g id="Enmascarar_grupo_1098704" data-name="Enmascarar grupo 1098704" clip-path="url(#clip-path)">
      <g id="datos2" transform="translate(296.523 3173.973)">
        <path id="Trazado_882018" data-name="Trazado 882018" d="M57.938,51.045H3.994A3.086,3.086,0,0,1,.907,47.959V4.054A3.086,3.086,0,0,1,3.994.968H57.938a3.086,3.086,0,0,1,3.086,3.086v43.9A3.086,3.086,0,0,1,57.938,51.045Zm0,0" fill="#ffd86e"/>
        <path id="Trazado_882019" data-name="Trazado 882019" d="M61.025,4.054v43.9a3.086,3.086,0,0,1-3.086,3.086h-3.77a3.086,3.086,0,0,0,3.086-3.086V4.054A3.086,3.086,0,0,0,54.169.968h3.77A3.086,3.086,0,0,1,61.025,4.054Zm0,0" fill="#ffb509"/>
        <path id="Trazado_882020" data-name="Trazado 882020" d="M61.024,43.61H.907v4.349a3.086,3.086,0,0,0,3.086,3.086H57.938a3.086,3.086,0,0,0,3.086-3.086Zm0,0" fill="#838383"/>
        <path id="Trazado_882021" data-name="Trazado 882021" d="M61.025,43.61v4.349a3.086,3.086,0,0,1-3.086,3.086h-3.77a3.086,3.086,0,0,0,3.086-3.086V43.61Zm0,0" fill="#5a5a5a"/>
        <path id="Trazado_882022" data-name="Trazado 882022" d="M61.093,11.5H.974V4.054A3.086,3.086,0,0,1,4.06.968H58.007a3.086,3.086,0,0,1,3.086,3.086Zm0,0" fill="#acacac"/>
        <path id="Trazado_882023" data-name="Trazado 882023" d="M61.094,4.053V11.5H57.255V4.053A3.086,3.086,0,0,0,54.169.968h3.839A3.086,3.086,0,0,1,61.094,4.053Zm0,0" fill="#9c9c9c"/>
        <path id="Trazado_882024" data-name="Trazado 882024" d="M22.557,51.045H39.374v5.069H22.557Zm0,0" fill="#5a5a5a"/>
        <path id="Trazado_882025" data-name="Trazado 882025" d="M44.823,61.087H17.108a.605.605,0,0,1-.6-.6v-1.96a2.408,2.408,0,0,1,2.407-2.407H43.022a2.407,2.407,0,0,1,2.407,2.407v1.96a.6.6,0,0,1-.6.6Zm0,0" fill="#838383"/>
        <path id="Trazado_882026" data-name="Trazado 882026" d="M45.428,58.521v1.961a.605.605,0,0,1-.6.6H42.688V58.521a2.407,2.407,0,0,0-2.406-2.406h2.74A2.407,2.407,0,0,1,45.428,58.521Zm0,0" fill="#5a5a5a"/>
        <path id="Trazado_882027" data-name="Trazado 882027" d="M35.781,33.375H55.429V37.1H35.781Zm0,0" fill="#64dcfc"/>
        <path id="Trazado_882028" data-name="Trazado 882028" d="M35.781,43.264H55.429v3.725H35.781Zm0,0" fill="#64dcfc"/>
        <path id="Trazado_882029" data-name="Trazado 882029" d="M53.106,33.375h2.323V37.1H53.106Zm0,0" fill="#00d1fc"/>
        <path id="Trazado_882030" data-name="Trazado 882030" d="M53.106,43.264h2.323v3.725H53.106Zm0,0" fill="#00d1fc"/>
        <g id="Grupo_1102848" data-name="Grupo 1102848">
          <path id="Trazado_882031" data-name="Trazado 882031" d="M57.056,33.375h-22.9a.877.877,0,0,1-.877-.877v-4.41a.878.878,0,0,1,.877-.877h22.9a.878.878,0,0,1,.877.877V32.5A.877.877,0,0,1,57.056,33.375Zm0,0" fill="#0396fd"/>
          <path id="Trazado_882032" data-name="Trazado 882032" d="M57.056,43.264h-22.9a.877.877,0,0,1-.877-.877v-4.41a.878.878,0,0,1,.877-.877h22.9a.878.878,0,0,1,.877.877v4.41A.877.877,0,0,1,57.056,43.264Zm0,0" fill="#0396fd"/>
          <path id="Trazado_882033" data-name="Trazado 882033" d="M57.056,53.153h-22.9a.877.877,0,0,1-.877-.877v-4.41a.877.877,0,0,1,.877-.877h22.9a.877.877,0,0,1,.877.877v4.41A.877.877,0,0,1,57.056,53.153Zm0,0" fill="#0396fd"/>
        </g>
        <path id="Trazado_882034" data-name="Trazado 882034" d="M57.933,28.088V32.5a.877.877,0,0,1-.877.877H55.021A.877.877,0,0,0,55.9,32.5v-4.41a.877.877,0,0,0-.877-.877h2.035A.877.877,0,0,1,57.933,28.088Zm0,0" fill="#0077f0"/>
        <path id="Trazado_882035" data-name="Trazado 882035" d="M57.933,37.976v4.41a.876.876,0,0,1-.877.877H55.021a.876.876,0,0,0,.877-.877v-4.41a.877.877,0,0,0-.877-.877h2.035A.877.877,0,0,1,57.933,37.976Zm0,0" fill="#0077f0"/>
        <path id="Trazado_882036" data-name="Trazado 882036" d="M57.933,47.866v4.41a.877.877,0,0,1-.877.877H55.021a.877.877,0,0,0,.877-.877v-4.41a.876.876,0,0,0-.877-.877h2.035A.876.876,0,0,1,57.933,47.866Zm0,0" fill="#0077f0"/>
        <path id="Trazado_882037" data-name="Trazado 882037" d="M8.447,6.206A1.755,1.755,0,1,1,6.692,4.451,1.756,1.756,0,0,1,8.447,6.206Zm0,0" fill="#ff6b81"/>
        <path id="Trazado_882038" data-name="Trazado 882038" d="M15.227,6.206a1.756,1.756,0,1,1-1.755-1.755A1.756,1.756,0,0,1,15.227,6.206Zm0,0" fill="#ffd86e"/>
        <path id="Trazado_882039" data-name="Trazado 882039" d="M22.007,6.206a1.755,1.755,0,1,1-1.755-1.755A1.756,1.756,0,0,1,22.007,6.206Zm0,0" fill="#80e0dc"/>
        <path id="Trazado_882040" data-name="Trazado 882040" d="M8.447,6.207A1.755,1.755,0,0,1,5.481,7.476a1.754,1.754,0,0,0,1.17-3.024h.041A1.754,1.754,0,0,1,8.447,6.207Zm0,0" fill="#ff435f"/>
        <path id="Trazado_882041" data-name="Trazado 882041" d="M15.227,6.207A1.755,1.755,0,0,1,12.26,7.476a1.754,1.754,0,0,0,1.171-3.024h.04a1.755,1.755,0,0,1,1.755,1.756Zm0,0" fill="#ffb509"/>
        <path id="Trazado_882042" data-name="Trazado 882042" d="M22.007,6.207A1.756,1.756,0,0,1,19.04,7.476a1.754,1.754,0,0,0,1.17-3.024h.041a1.756,1.756,0,0,1,1.756,1.756Zm0,0" fill="#00a8b0"/>
        <path id="Trazado_882043" data-name="Trazado 882043" d="M7.14,22.65a.907.907,0,1,0,1.283-1.283l-2.2-2.2,2.2-2.2A.907.907,0,0,0,7.14,15.678L4.3,18.522a.907.907,0,0,0,0,1.283Zm0,0"/>
        <path id="Trazado_882044" data-name="Trazado 882044" d="M16.144,19.164l-2.2,2.2a.907.907,0,1,0,1.283,1.283l2.845-2.845a.907.907,0,0,0,0-1.283l-2.845-2.845a.907.907,0,1,0-1.283,1.283Zm0,0"/>
        <path id="Trazado_882045" data-name="Trazado 882045" d="M9.829,22.853a.907.907,0,0,0,1.176-.513l2.235-5.69a.907.907,0,1,0-1.689-.664l-2.236,5.69a.908.908,0,0,0,.513,1.176Zm0,0"/>
        <path id="Trazado_882046" data-name="Trazado 882046" d="M5.45,28.24h6.113a.908.908,0,0,0,0-1.815H5.45a.908.908,0,0,0,0,1.815Zm0,0"/>
        <path id="Trazado_882047" data-name="Trazado 882047" d="M25.642,26.425H14.9a.908.908,0,0,0,0,1.815H25.642a.908.908,0,1,0,0-1.815Zm0,0"/>
        <path id="Trazado_882048" data-name="Trazado 882048" d="M5.45,32.067h2.6a.908.908,0,0,0,0-1.815H5.45a.908.908,0,0,0,0,1.815Zm0,0"/>
        <path id="Trazado_882049" data-name="Trazado 882049" d="M22.323,30.252a.907.907,0,0,0,0,1.815h1.586a.907.907,0,1,0,0-1.815Zm0,0"/>
        <path id="Trazado_882050" data-name="Trazado 882050" d="M19.934,31.159a.907.907,0,0,0-.907-.907H11.238a.908.908,0,0,0,0,1.815h7.789A.908.908,0,0,0,19.934,31.159Zm0,0"/>
        <path id="Trazado_882051" data-name="Trazado 882051" d="M25.878,31.159a.908.908,0,0,0,.907.908h2.97a.908.908,0,1,0,0-1.815h-2.97A.907.907,0,0,0,25.878,31.159Zm0,0"/>
        <path id="Trazado_882052" data-name="Trazado 882052" d="M20.937,19.892H24.07a.908.908,0,1,0,0-1.815H20.937a.908.908,0,1,0,0,1.815Zm0,0"/>
        <path id="Trazado_882053" data-name="Trazado 882053" d="M27.578,19.892H46.694a.908.908,0,0,0,0-1.815H27.578a.908.908,0,1,0,0,1.815Zm0,0"/>
        <path id="Trazado_882054" data-name="Trazado 882054" d="M43.79,22.069H36.047a.908.908,0,0,0,0,1.815H43.79a.908.908,0,0,0,0-1.815Zm0,0"/>
        <path id="Trazado_882055" data-name="Trazado 882055" d="M33.143,22.069H30.482a.908.908,0,0,0,0,1.815h2.662a.908.908,0,0,0,0-1.815Zm0,0"/>
        <path id="Trazado_882056" data-name="Trazado 882056" d="M20.937,23.884h6.521a.908.908,0,0,0,0-1.815H20.937a.908.908,0,1,0,0,1.815Zm0,0"/>
        <path id="Trazado_882057" data-name="Trazado 882057" d="M19.038,34.047H12.926a.907.907,0,1,0,0,1.815h6.112a.907.907,0,0,0,0-1.815Zm0,0"/>
        <path id="Trazado_882058" data-name="Trazado 882058" d="M10.146,34.047H5.45a.907.907,0,0,0,0,1.815h4.7a.907.907,0,0,0,0-1.815Zm0,0"/>
        <path id="Trazado_882059" data-name="Trazado 882059" d="M30.119,34.047H22.134a.907.907,0,0,0,0,1.815h7.985a.907.907,0,0,0,0-1.815Zm0,0"/>
        <path id="Trazado_882060" data-name="Trazado 882060" d="M40.918,29.386H36.551a.908.908,0,0,0,0,1.815h4.367a.908.908,0,0,0,0-1.815Zm0,0"/>
        <path id="Trazado_882061" data-name="Trazado 882061" d="M48.495,31.2h6.164a.908.908,0,1,0,0-1.815H48.495a.908.908,0,0,0,0,1.815Zm0,0"/>
        <path id="Trazado_882062" data-name="Trazado 882062" d="M45.412,29.386H44A.908.908,0,1,0,44,31.2h1.412a.908.908,0,0,0,0-1.815Zm0,0"/>
        <path id="Trazado_882063" data-name="Trazado 882063" d="M36.551,41.089h4.367a.907.907,0,1,0,0-1.815H36.551a.907.907,0,1,0,0,1.815Zm0,0"/>
        <path id="Trazado_882064" data-name="Trazado 882064" d="M48.495,41.089h6.164a.907.907,0,1,0,0-1.815H48.495a.907.907,0,1,0,0,1.815Zm0,0"/>
        <path id="Trazado_882065" data-name="Trazado 882065" d="M44,41.089h1.412a.907.907,0,1,0,0-1.815H44a.907.907,0,1,0,0,1.815Zm0,0"/>
        <path id="Trazado_882066" data-name="Trazado 882066" d="M40.918,49.163H36.551a.907.907,0,0,0,0,1.815h4.367a.907.907,0,0,0,0-1.815Zm0,0"/>
        <path id="Trazado_882067" data-name="Trazado 882067" d="M54.659,49.163H48.495a.907.907,0,0,0,0,1.815h6.164a.907.907,0,1,0,0-1.815Zm0,0"/>
        <path id="Trazado_882068" data-name="Trazado 882068" d="M45.412,49.163H44a.907.907,0,1,0,0,1.815h1.412a.907.907,0,1,0,0-1.815Zm0,0"/>
        <path id="Trazado_882069" data-name="Trazado 882069" d="M58.007.061H3.994A4,4,0,0,0,0,4.054v43.9a4,4,0,0,0,3.994,3.993H7.408a.907.907,0,0,0,0-1.815H3.994a2.181,2.181,0,0,1-2.179-2.179V44.517H34.873v1.564h-.719a1.786,1.786,0,0,0-1.785,1.785v2.272H12.925a.907.907,0,0,0,0,1.815H21.65v3.254H18.91A3.318,3.318,0,0,0,15.6,58.521v1.96a1.514,1.514,0,0,0,1.512,1.512H44.823a1.514,1.514,0,0,0,1.512-1.512v-1.96a3.318,3.318,0,0,0-3.314-3.314h-2.74V54.06H57.056a1.786,1.786,0,0,0,1.784-1.785v-.427a4,4,0,0,0,3.091-3.889L62,4.054A4,4,0,0,0,58.007.061Zm-23.823,42.3V38.007H57.026v4.349Zm2.5-6.164V34.283H54.522v1.909Zm17.834,7.979v1.91H36.688v-1.91ZM23.464,51.952h8.9v.323a1.786,1.786,0,0,0,1.785,1.784h4.313v1.147h-15Zm19.557,5.069a1.5,1.5,0,0,1,1.5,1.5v1.658H17.41V58.521a1.5,1.5,0,0,1,1.5-1.5Zm14-4.777H34.184V47.9H57.026Zm3.091-4.286a2.179,2.179,0,0,1-1.276,1.98V47.865a1.787,1.787,0,0,0-1.785-1.784h-.719V44.517h3.78Zm0-5.257H58.811c.018-.1.03-4.726.03-4.726a1.787,1.787,0,0,0-1.785-1.785h-.719V34.283h.719A1.787,1.787,0,0,0,58.841,32.5v-4.41A1.787,1.787,0,0,0,57.056,26.3H51.931a.908.908,0,0,0,0,1.815h5.095v4.349H34.184V28.119h12.1a.908.908,0,0,0,0-1.815H34.154a1.787,1.787,0,0,0-1.785,1.785V32.5a1.787,1.787,0,0,0,1.785,1.785h.719v1.909h-.719a1.787,1.787,0,0,0-1.785,1.785s.011,4.623.03,4.726H1.815V12.4h58.3Zm0-32.114H1.882V4.054A2.181,2.181,0,0,1,4.06,1.876H57.938a2.181,2.181,0,0,1,2.179,2.179Zm0,0"/>
        <path id="Trazado_882070" data-name="Trazado 882070" d="M6.692,3.543A2.663,2.663,0,1,0,9.355,6.206,2.666,2.666,0,0,0,6.692,3.543Zm0,3.511a.848.848,0,1,1,.848-.848A.849.849,0,0,1,6.692,7.054Zm0,0"/>
        <path id="Trazado_882071" data-name="Trazado 882071" d="M13.472,3.543a2.663,2.663,0,1,0,2.663,2.663A2.666,2.666,0,0,0,13.472,3.543Zm0,3.511a.848.848,0,1,1,.848-.848A.849.849,0,0,1,13.472,7.054Zm0,0"/>
        <path id="Trazado_882072" data-name="Trazado 882072" d="M20.251,3.543a2.663,2.663,0,1,0,2.663,2.663A2.666,2.666,0,0,0,20.251,3.543Zm0,3.511a.848.848,0,1,1,.848-.848A.849.849,0,0,1,20.251,7.054Zm0,0"/>
      </g>
    </g>
  </g>
</svg>
