<svg xmlns="http://www.w3.org/2000/svg" xmlns:xlink="http://www.w3.org/1999/xlink" width="85" height="85" viewBox="0 0 85 85">
  <defs>
    <clipPath id="clip-path">
      <rect id="Rectángulo_405640" data-name="Rectángulo 405640" width="62" height="62" transform="translate(611.523 3174)" fill="#fff" stroke="#707070" stroke-width="1"/>
    </clipPath>
  </defs>
  <g id="Grupo_1102939" data-name="Grupo 1102939" transform="translate(-600.523 -3162)">
    <circle id="Elipse_11499" data-name="Elipse 11499" cx="42.5" cy="42.5" r="42.5" transform="translate(600.523 3162)" fill="#1169e3"/>
    <g id="Enmascarar_grupo_1098705" data-name="Enmascarar grupo 1098705" clip-path="url(#clip-path)">
      <g id="encabezamiento" transform="translate(611.523 3174)">
        <g id="Grupo_1102849" data-name="Grupo 1102849">
          <path id="Trazado_882073" data-name="Trazado 882073" d="M56.686,13.121v41.3A1.975,1.975,0,0,1,54.711,56.4l-1.478.187H6.516a1.975,1.975,0,0,1-1.975-1.975V16.027l.8-2.906H56.686Z" fill="#d1f19e"/>
          <path id="Trazado_882074" data-name="Trazado 882074" d="M57.459,13.121V54.609a1.975,1.975,0,0,1-1.975,1.975H52.82a1.975,1.975,0,0,0,1.975-1.975V18.449a2.422,2.422,0,0,0-2.422-2.422H4.541V13.121l32.679-1.96Z" fill="#bae2a6"/>
          <path id="Trazado_882075" data-name="Trazado 882075" d="M57.1,7.657l-.1,4.975-2.925.489L35.427,15.229,4.541,13.121V7.39A1.975,1.975,0,0,1,6.516,5.415H52.6l2.521.267A1.975,1.975,0,0,1,57.1,7.657Z" fill="#947df6"/>
          <path id="Trazado_882076" data-name="Trazado 882076" d="M57.459,7.39v5.731l-1.722.98-1.669-.98V7.39a1.975,1.975,0,0,0-1.975-1.975h3.391A1.975,1.975,0,0,1,57.459,7.39Z" fill="#8769ef"/>
          <path id="Trazado_882077" data-name="Trazado 882077" d="M59.415,25.125l-2.319.182H2.119A1.211,1.211,0,0,1,.908,24.1V14.333a1.211,1.211,0,0,1,1.211-1.211h55.34l2,.3a1.075,1.075,0,0,1,1.128,1.128l.034,9.368A1.211,1.211,0,0,1,59.415,25.125Z" fill="#f5f8f9"/>
          <path id="Trazado_882078" data-name="Trazado 882078" d="M61.092,14.333V24.1a1.211,1.211,0,0,1-1.211,1.211h-3.27A1.211,1.211,0,0,0,57.822,24.1V14.333a1.211,1.211,0,0,0-1.211-1.211h3.27A1.211,1.211,0,0,1,61.092,14.333Z" fill="#e8edf2"/>
          <path id="Trazado_882079" data-name="Trazado 882079" d="M33.984,21.749H17.463a.606.606,0,0,1-.605-.605V17.285a.606.606,0,0,1,.605-.605H33.984a.606.606,0,0,1,.605.605v3.859A.606.606,0,0,1,33.984,21.749Z" fill="#e8edf2"/>
          <path id="Trazado_882080" data-name="Trazado 882080" d="M51.525,40.4H10.475a.606.606,0,0,1-.605-.605V31.406a.606.606,0,0,1,.605-.605H51.525a.606.606,0,0,1,.605.605v8.388A.606.606,0,0,1,51.525,40.4Z" fill="#bae2a6"/>
          <path id="Trazado_882081" data-name="Trazado 882081" d="M28.129,51.091H10.475a.606.606,0,0,1-.605-.605V45.142a.606.606,0,0,1,.605-.605H28.129a.606.606,0,0,1,.605.605v5.343A.605.605,0,0,1,28.129,51.091Z" fill="#bae2a6"/>
          <path id="Trazado_882082" data-name="Trazado 882082" d="M51.525,51.091H33.871a.606.606,0,0,1-.605-.605V45.142a.606.606,0,0,1,.605-.605H51.525a.606.606,0,0,1,.605.605v5.343A.605.605,0,0,1,51.525,51.091Z" fill="#bae2a6"/>
        </g>
        <g id="Grupo_1102856" data-name="Grupo 1102856">
          <g id="Grupo_1102850" data-name="Grupo 1102850">
            <path id="Trazado_882083" data-name="Trazado 882083" d="M4.541,12.767V7.39A1.975,1.975,0,0,1,6.516,5.415H55.484A1.975,1.975,0,0,1,57.459,7.39v5.446m0,12.754V54.61a1.975,1.975,0,0,1-1.975,1.975H6.516A1.975,1.975,0,0,1,4.541,54.61V25.691" fill="none" stroke="#000" stroke-linecap="round" stroke-linejoin="round" stroke-miterlimit="10" stroke-width="1.816"/>
            <line id="Línea_3831" data-name="Línea 3831" x1="52.261" transform="translate(4.869 13.122)" fill="none" stroke="#000" stroke-linecap="round" stroke-linejoin="round" stroke-miterlimit="10" stroke-width="1.816"/>
            <line id="Línea_3832" data-name="Línea 3832" transform="translate(16.991 9.268)" fill="none" stroke="#000" stroke-linecap="round" stroke-linejoin="round" stroke-miterlimit="10" stroke-width="1.816"/>
            <line id="Línea_3833" data-name="Línea 3833" transform="translate(12.859 9.268)" fill="none" stroke="#000" stroke-linecap="round" stroke-linejoin="round" stroke-miterlimit="10" stroke-width="1.816"/>
            <line id="Línea_3834" data-name="Línea 3834" transform="translate(8.727 9.268)" fill="none" stroke="#000" stroke-linecap="round" stroke-linejoin="round" stroke-miterlimit="10" stroke-width="1.816"/>
          </g>
          <path id="Trazado_882084" data-name="Trazado 882084" d="M61.092,16.925V14.333a1.211,1.211,0,0,0-1.211-1.211H2.119A1.211,1.211,0,0,0,.908,14.333V24.1a1.211,1.211,0,0,0,1.211,1.211H59.881A1.211,1.211,0,0,0,61.092,24.1V21.164" fill="none" stroke="#000" stroke-linecap="round" stroke-linejoin="round" stroke-miterlimit="10" stroke-width="1.816"/>
          <g id="Grupo_1102854" data-name="Grupo 1102854">
            <g id="Grupo_1102851" data-name="Grupo 1102851">
              <line id="Línea_3835" data-name="Línea 3835" transform="translate(55.256 17.701)" fill="none" stroke="#000" stroke-linecap="round" stroke-linejoin="round" stroke-miterlimit="10" stroke-width="1.816"/>
              <line id="Línea_3836" data-name="Línea 3836" transform="translate(55.256 20.728)" fill="none" stroke="#000" stroke-linecap="round" stroke-linejoin="round" stroke-miterlimit="10" stroke-width="1.816"/>
            </g>
            <g id="Grupo_1102852" data-name="Grupo 1102852">
              <line id="Línea_3837" data-name="Línea 3837" x2="5.471" transform="translate(6.744 17.701)" fill="none" stroke="#000" stroke-linecap="round" stroke-linejoin="round" stroke-miterlimit="10" stroke-width="1.816"/>
              <line id="Línea_3838" data-name="Línea 3838" x2="5.471" transform="translate(6.744 20.728)" fill="none" stroke="#000" stroke-linecap="round" stroke-linejoin="round" stroke-miterlimit="10" stroke-width="1.816"/>
            </g>
            <g id="Grupo_1102853" data-name="Grupo 1102853">
              <circle id="Elipse_11564" data-name="Elipse 11564" cx="1.778" cy="1.778" r="1.778" transform="translate(44.98 16.681)" fill="none" stroke="#000" stroke-linecap="round" stroke-linejoin="round" stroke-miterlimit="10" stroke-width="1.816"/>
              <line id="Línea_3839" data-name="Línea 3839" x2="2.031" y2="2.031" transform="translate(48.015 19.716)" fill="none" stroke="#000" stroke-linecap="round" stroke-linejoin="round" stroke-miterlimit="10" stroke-width="1.816"/>
            </g>
            <path id="Trazado_882085" data-name="Trazado 882085" d="M25.724,21.75h8.26a.6.6,0,0,0,.605-.605V17.285a.6.6,0,0,0-.605-.605H17.463a.606.606,0,0,0-.605.605v3.859a.606.606,0,0,0,.605.605h4.023" fill="none" stroke="#000" stroke-linecap="round" stroke-linejoin="round" stroke-miterlimit="10" stroke-width="1.816"/>
          </g>
          <g id="Grupo_1102855" data-name="Grupo 1102855">
            <path id="Trazado_882086" data-name="Trazado 882086" d="M41.745,40.4h9.78a.6.6,0,0,0,.605-.605V31.406a.6.6,0,0,0-.605-.605H10.476a.6.6,0,0,0-.605.605v8.388a.6.6,0,0,0,.605.605H37.506" fill="none" stroke="#000" stroke-linecap="round" stroke-linejoin="round" stroke-miterlimit="10" stroke-width="1.816"/>
            <path id="Trazado_882087" data-name="Trazado 882087" d="M18.468,51.091h9.661a.6.6,0,0,0,.605-.605V45.143a.606.606,0,0,0-.605-.605H10.476a.6.6,0,0,0-.605.605v5.343a.6.6,0,0,0,.605.605H14.23" fill="none" stroke="#000" stroke-linecap="round" stroke-linejoin="round" stroke-miterlimit="10" stroke-width="1.816"/>
            <path id="Trazado_882088" data-name="Trazado 882088" d="M51.525,51.091H33.871a.606.606,0,0,1-.605-.605V45.142a.606.606,0,0,1,.605-.605H51.525a.606.606,0,0,1,.605.605v5.343A.605.605,0,0,1,51.525,51.091Z" fill="none" stroke="#000" stroke-linecap="round" stroke-linejoin="round" stroke-miterlimit="10" stroke-width="1.816"/>
          </g>
        </g>
      </g>
    </g>
  </g>
</svg>
