<svg xmlns="http://www.w3.org/2000/svg" xmlns:xlink="http://www.w3.org/1999/xlink" width="85" height="85" viewBox="0 0 85 85">
  <defs>
    <clipPath id="clip-path">
      <rect id="Rectángulo_405834" data-name="Rectángulo 405834" width="57.667" height="50.767" fill="none"/>
    </clipPath>
  </defs>
  <g id="Grupo_1102428" data-name="Grupo 1102428" transform="translate(-199.523 -839)">
    <g id="Grupo_1102425" data-name="Grupo 1102425">
      <circle id="Elipse_11537" data-name="Elipse 11537" cx="42.5" cy="42.5" r="42.5" transform="translate(199.523 839)" fill="#5e3552"/>
      <g id="Grupo_1102811" data-name="Grupo 1102811" transform="translate(213.047 856.117)">
        <g id="Grupo_1102810" data-name="Grupo 1102810" clip-path="url(#clip-path)">
          <path id="Trazado_881700" data-name="Trazado 881700" d="M274.338,13.666V39.879l-14.385,1.459-12.477-1.459-1.082-11.33,1.082-16.3,24.39.171c.934,0,2.472.757,2.472,1.245" transform="translate(-218.643 -10.87)" fill="#fe93d3"/>
          <path id="Trazado_881701" data-name="Trazado 881701" d="M267.824,257.56v16.881c0,1.379-1.673,3.7-2.605,3.7l-1.023.333H240.962l-1.909-9.719,1.909-11.2Z" transform="translate(-212.128 -228.551)" fill="#66c6a6"/>
          <path id="Trazado_881702" data-name="Trazado 881702" d="M35.489,248.011v20.915H9.189A1.69,1.69,0,0,1,7.5,267.237V248.011L24.23,246.8Z" transform="translate(-6.655 -219.002)" fill="#ffef57"/>
          <path id="Trazado_881703" data-name="Trazado 881703" d="M35.489,10.866V38.495H7.5V17.576l1.126-5.2a1.689,1.689,0,0,1,1.689-1.689Z" transform="translate(-6.655 -9.486)" fill="#b2e5fb"/>
          <path id="Trazado_881704" data-name="Trazado 881704" d="M63.033,9.581v4.78l-3,.359L7.5,14.731V9.173A1.689,1.689,0,0,1,9.189,7.484H58.422l2.631.117a2.228,2.228,0,0,1,1.98,1.98" transform="translate(-6.655 -6.641)" fill="#756e78"/>
          <path id="Trazado_881705" data-name="Trazado 881705" d="M453.694,64.045v20.93l-3.224.95-3.224-.95V64.045l3.865-.975Z" transform="translate(-396.872 -55.966)" fill="#fe73c5"/>
          <path id="Trazado_881706" data-name="Trazado 881706" d="M434.348,257.56v19.226c0,.933-1.418,1.689-3.164,1.689h-5.74l.669-.212c1.107-.349,1.787-.986,1.787-1.673V257.56Z" transform="translate(-377.526 -228.551)" fill="#50b29f"/>
          <path id="Trazado_881707" data-name="Trazado 881707" d="M429.913,9.173V14.72h-6.449V9.674c0-.813-.835-1.56-2.175-1.947l-.843-.243h6.3c1.747,0,3.164.756,3.164,1.689" transform="translate(-373.091 -6.641)" fill="#655f66"/>
          <path id="Trazado_881708" data-name="Trazado 881708" d="M134.387,107.816a7.133,7.133,0,0,1-.961,3.588l-2.2-.344-1.459-1.769a2.95,2.95,0,0,0-2.554-4.425l-.534-1.667.534-2.559a7.177,7.177,0,0,1,7.176,7.176" transform="translate(-112.409 -89.305)" fill="#ffef57"/>
          <path id="Trazado_881709" data-name="Trazado 881709" d="M74.886,100.64v4.226a2.95,2.95,0,0,0-2.556,4.425L71.139,111.4H68.671a7.177,7.177,0,0,1,6.215-10.764" transform="translate(-60.084 -89.305)" fill="#fe93d3"/>
          <path id="Trazado_881710" data-name="Trazado 881710" d="M88.67,179.563a7.177,7.177,0,0,1-12.43,0L79.9,177.45a2.95,2.95,0,0,0,5.11,0Z" transform="translate(-67.653 -157.464)" fill="#7ec8ed"/>
          <path id="Trazado_881711" data-name="Trazado 881711" d="M308.124,189.215h-4.069a.225.225,0,0,1-.225-.225v-4.48a.225.225,0,0,1,.225-.225h4.069l1.194,2.465Z" transform="translate(-269.61 -163.528)" fill="#f9db48"/>
          <path id="Trazado_881712" data-name="Trazado 881712" d="M346.251,164.969h-4.294v-7.783a.225.225,0,0,1,.225-.225h4.069l1.1,4.839Z" transform="translate(-303.442 -139.283)" fill="#f2c853"/>
          <path id="Trazado_881713" data-name="Trazado 881713" d="M384.379,139.982h-4.294V129.027a.225.225,0,0,1,.225-.225h4.069l1,6.955Z" transform="translate(-337.276 -114.295)" fill="#f9db48"/>
          <path id="Trazado_881714" data-name="Trazado 881714" d="M422.281,115h-4.069V100.869a.225.225,0,0,1,.225-.225h3.844a.225.225,0,0,1,.225.225v13.9a.225.225,0,0,1-.225.225" transform="translate(-371.109 -89.308)" fill="#ffef57"/>
          <path id="Trazado_881715" data-name="Trazado 881715" d="M49.7,312.956a1.735,1.735,0,1,1-1.735,1.735,1.735,1.735,0,0,1,1.735-1.735" transform="translate(-42.563 -277.708)" fill="#fe93d3"/>
          <path id="Trazado_881716" data-name="Trazado 881716" d="M93.709,356.965a1.735,1.735,0,1,1-1.735,1.735,1.735,1.735,0,0,1,1.735-1.735" transform="translate(-81.615 -316.76)" fill="#fe93d3"/>
          <path id="Trazado_881717" data-name="Trazado 881717" d="M137.719,312.956a1.735,1.735,0,1,1-1.735,1.735,1.735,1.735,0,0,1,1.735-1.735" transform="translate(-120.668 -277.708)" fill="#fe93d3"/>
          <path id="Trazado_881718" data-name="Trazado 881718" d="M185.8,356.965a1.735,1.735,0,1,1-1.735,1.735,1.735,1.735,0,0,1,1.735-1.735" transform="translate(-163.335 -316.76)" fill="#fe93d3"/>
          <path id="Trazado_881719" data-name="Trazado 881719" d="M306.89,303.16l.749,1.8-.749,1.8h-2.882a1.8,1.8,0,1,1,0-3.594Z" transform="translate(-268.172 -269.015)" fill="#40a089"/>
          <path id="Trazado_881720" data-name="Trazado 881720" d="M356.44,304.956a1.8,1.8,0,0,1-1.8,1.8H343.76V303.16h10.882a1.8,1.8,0,0,1,1.8,1.8" transform="translate(-305.042 -269.015)" fill="#f5f8f9"/>
          <path id="Trazado_881721" data-name="Trazado 881721" d="M315,367.75l.829,1.8-.829,1.8H304.008a1.8,1.8,0,0,1,0-3.6Z" transform="translate(-268.172 -326.33)" fill="#40a089"/>
          <path id="Trazado_881722" data-name="Trazado 881722" d="M420.357,369.548a1.8,1.8,0,0,1-1.8,1.8h-2.77v-3.6h2.77a1.8,1.8,0,0,1,1.8,1.8" transform="translate(-368.96 -326.33)" fill="#f5f8f9"/>
          <path id="Trazado_881723" data-name="Trazado 881723" d="M159.242,336.728a.842.842,0,0,1-.6-.247l-2.549-2.549a.845.845,0,1,1,1.195-1.195l2.549,2.549a.845.845,0,0,1-.6,1.442" transform="translate(-138.295 -295.041)"/>
          <path id="Trazado_881724" data-name="Trazado 881724" d="M113.332,337a.845.845,0,0,1-.6-1.442l2.193-2.193a.845.845,0,0,1,1.195,1.195l-2.193,2.193a.842.842,0,0,1-.6.247" transform="translate(-99.818 -295.603)"/>
          <path id="Trazado_881725" data-name="Trazado 881725" d="M71,336.5a.842.842,0,0,1-.6-.247l-2.322-2.322a.845.845,0,1,1,1.195-1.195l2.322,2.322A.845.845,0,0,1,71,336.5" transform="translate(-60.191 -295.041)"/>
          <path id="Trazado_881726" data-name="Trazado 881726" d="M54.985,50.767h-32.1a.845.845,0,1,1,0-1.689h32.1a.993.993,0,0,0,.992-.992V2.682a.993.993,0,0,0-.992-.992H28.143a.845.845,0,1,1,0-1.689H54.985a2.685,2.685,0,0,1,2.682,2.682v45.4a2.685,2.685,0,0,1-2.682,2.682m-36.046,0H2.682A2.685,2.685,0,0,1,0,48.085V2.682A2.685,2.685,0,0,1,2.682,0H24.2a.845.845,0,1,1,0,1.689H2.682a.993.993,0,0,0-.992.992v45.4a.993.993,0,0,0,.992.992H18.939a.845.845,0,1,1,0,1.689"/>
          <path id="Trazado_881727" data-name="Trazado 881727" d="M58.923,65.334H3.557a.845.845,0,0,1,0-1.689H58.923a.845.845,0,0,1,0,1.689" transform="translate(-2.407 -56.477)"/>
          <path id="Trazado_881728" data-name="Trazado 881728" d="M103.655,33.513a.826.826,0,0,1-.166-.017.878.878,0,0,1-.158-.048.855.855,0,0,1-.145-.078.826.826,0,0,1-.128-.1.891.891,0,0,1-.106-.128.867.867,0,0,1-.078-.146.848.848,0,0,1-.047-.158.806.806,0,0,1-.017-.164.817.817,0,0,1,.017-.166.848.848,0,0,1,.047-.158.867.867,0,0,1,.078-.146.891.891,0,0,1,.106-.128.826.826,0,0,1,.128-.1.855.855,0,0,1,.145-.078.878.878,0,0,1,.158-.048.862.862,0,0,1,.331,0,.879.879,0,0,1,.158.048.856.856,0,0,1,.145.078.827.827,0,0,1,.128.1.815.815,0,0,1,.1.128.73.73,0,0,1,.078.146.774.774,0,0,1,.048.158.817.817,0,0,1,.017.166.806.806,0,0,1-.017.164.774.774,0,0,1-.048.158.73.73,0,0,1-.078.146.815.815,0,0,1-.1.128.827.827,0,0,1-.128.1.856.856,0,0,1-.145.078.878.878,0,0,1-.158.048.826.826,0,0,1-.166.017" transform="translate(-91.231 -28.239)"/>
          <path id="Trazado_881729" data-name="Trazado 881729" d="M69.535,33.513a.826.826,0,0,1-.166-.017.878.878,0,0,1-.158-.048.856.856,0,0,1-.145-.078.767.767,0,0,1-.128-.1.85.85,0,0,1-.248-.6.817.817,0,0,1,.017-.166.848.848,0,0,1,.047-.158.866.866,0,0,1,.078-.146.891.891,0,0,1,.106-.128.827.827,0,0,1,.128-.1.856.856,0,0,1,.145-.078.878.878,0,0,1,.158-.048.862.862,0,0,1,.331,0,.878.878,0,0,1,.158.048.855.855,0,0,1,.145.078.826.826,0,0,1,.128.1.891.891,0,0,1,.106.128.867.867,0,0,1,.078.146.849.849,0,0,1,.047.158.818.818,0,0,1,.017.166.807.807,0,0,1-.017.164.849.849,0,0,1-.047.158.867.867,0,0,1-.078.146.891.891,0,0,1-.106.128.767.767,0,0,1-.128.1.855.855,0,0,1-.145.078.878.878,0,0,1-.158.048.826.826,0,0,1-.166.017" transform="translate(-60.953 -28.239)"/>
          <path id="Trazado_881730" data-name="Trazado 881730" d="M35.415,33.512a.824.824,0,0,1-.166-.016.878.878,0,0,1-.158-.048.856.856,0,0,1-.145-.078.827.827,0,0,1-.128-.1.844.844,0,0,1,0-1.195.827.827,0,0,1,.128-.1.856.856,0,0,1,.145-.078.878.878,0,0,1,.158-.048.862.862,0,0,1,.331,0,.878.878,0,0,1,.158.048.856.856,0,0,1,.145.078.827.827,0,0,1,.128.1.844.844,0,0,1,0,1.195.827.827,0,0,1-.128.1.856.856,0,0,1-.145.078.878.878,0,0,1-.158.048.824.824,0,0,1-.166.016" transform="translate(-30.676 -28.239)"/>
          <path id="Trazado_881731" data-name="Trazado 881731" d="M249.345,109.528a.845.845,0,0,1-.845-.845V67.332a.845.845,0,1,1,1.689,0v41.352a.845.845,0,0,1-.845.845" transform="translate(-220.511 -58.999)"/>
          <path id="Trazado_881732" data-name="Trazado 881732" d="M121.342,251.749H74.215a.845.845,0,1,1,0-1.689h47.128a.845.845,0,1,1,0,1.689" transform="translate(-65.106 -221.896)"/>
          <path id="Trazado_881733" data-name="Trazado 881733" d="M9.781,251.749H6.045a.845.845,0,1,1,0-1.689H9.781a.845.845,0,1,1,0,1.689" transform="translate(-4.614 -221.896)"/>
          <path id="Trazado_881734" data-name="Trazado 881734" d="M68.23,109.185a8.02,8.02,0,1,1,8.02-8.02,8.029,8.029,0,0,1-8.02,8.02m0-14.351a6.331,6.331,0,1,0,6.331,6.331,6.338,6.338,0,0,0-6.331-6.331" transform="translate(-53.429 -82.653)"/>
          <path id="Trazado_881735" data-name="Trazado 881735" d="M101.518,138.247a3.8,3.8,0,1,1,3.8-3.8,3.8,3.8,0,0,1-3.8,3.8m0-5.9a2.106,2.106,0,1,0,2.106,2.106,2.108,2.108,0,0,0-2.106-2.106" transform="translate(-86.716 -115.941)"/>
          <path id="Trazado_881736" data-name="Trazado 881736" d="M124.764,100.424a.845.845,0,0,1-.845-.845V95.928a.845.845,0,1,1,1.689,0V99.58a.845.845,0,0,1-.845.845" transform="translate(-109.962 -84.374)"/>
          <path id="Trazado_881737" data-name="Trazado 881737" d="M71.269,175.041a.845.845,0,0,1-.423-1.576l3.163-1.826a.845.845,0,0,1,.845,1.463l-3.163,1.826a.84.84,0,0,1-.422.113" transform="translate(-62.491 -152.207)"/>
          <path id="Trazado_881738" data-name="Trazado 881738" d="M153.337,175.041a.84.84,0,0,1-.422-.113l-3.163-1.826a.845.845,0,0,1,.845-1.463l3.163,1.826a.845.845,0,0,1-.423,1.576" transform="translate(-132.511 -152.206)"/>
          <path id="Trazado_881739" data-name="Trazado 881739" d="M341.83,159.158h-4.294a.845.845,0,0,1-.845-.845V150.3a.845.845,0,0,1,.845-.845h4.014a.845.845,0,0,1,0,1.689H338.38v6.319h3.45a.845.845,0,0,1,0,1.689" transform="translate(-298.77 -132.626)"/>
          <path id="Trazado_881740" data-name="Trazado 881740" d="M303.7,183.405h-4.294a.845.845,0,0,1-.845-.845V177.63a.845.845,0,0,1,.845-.845H303.5a.845.845,0,0,1,0,1.689h-3.246v3.241h3.45a.845.845,0,0,1,0,1.689" transform="translate(-264.937 -156.874)"/>
          <path id="Trazado_881741" data-name="Trazado 881741" d="M379.958,134.172h-4.294a.845.845,0,0,1-.845-.845v-11.18a.845.845,0,0,1,.845-.845h4.071a.845.845,0,1,1,0,1.689h-3.227v9.49h3.45a.845.845,0,0,1,0,1.689" transform="translate(-332.603 -107.641)"/>
          <path id="Trazado_881742" data-name="Trazado 881742" d="M418.083,109.181h-4.295a.845.845,0,0,1-.845-.845V93.985a.845.845,0,0,1,.845-.845h4.295a.845.845,0,0,1,.845.845v5.2a.845.845,0,0,1-1.689,0v-4.36h-2.605v12.662h2.605v-4.36a.845.845,0,0,1,1.689,0v5.2a.845.845,0,0,1-.845.845" transform="translate(-366.434 -82.65)"/>
          <path id="Trazado_881743" data-name="Trazado 881743" d="M43.377,310.615a2.58,2.58,0,1,1,2.58-2.58,2.583,2.583,0,0,1-2.58,2.58m0-3.47a.89.89,0,1,0,.89.89.891.891,0,0,0-.89-.89" transform="translate(-36.202 -271.053)"/>
          <path id="Trazado_881744" data-name="Trazado 881744" d="M87.386,354.624a2.58,2.58,0,1,1,2.58-2.58,2.583,2.583,0,0,1-2.58,2.58m0-3.47a.89.89,0,1,0,.89.89.891.891,0,0,0-.89-.89" transform="translate(-75.254 -310.105)"/>
          <path id="Trazado_881745" data-name="Trazado 881745" d="M131.395,310.615a2.58,2.58,0,1,1,2.58-2.58,2.583,2.583,0,0,1-2.58,2.58m0-3.47a.89.89,0,1,0,.89.89.891.891,0,0,0-.89-.89" transform="translate(-114.307 -271.053)"/>
          <path id="Trazado_881746" data-name="Trazado 881746" d="M179.478,354.624a2.58,2.58,0,1,1,2.58-2.58,2.583,2.583,0,0,1-2.58,2.58m0-3.47a.89.89,0,1,0,.89.89.891.891,0,0,0-.89-.89" transform="translate(-156.974 -310.105)"/>
          <path id="Trazado_881747" data-name="Trazado 881747" d="M312.093,300.942H298.328a2.642,2.642,0,1,1,0-5.284h13.765a2.642,2.642,0,1,1,0,5.284m-13.765-3.594a.953.953,0,0,0,0,1.905h13.765a.953.953,0,1,0,0-1.905Z" transform="translate(-262.383 -262.358)"/>
          <path id="Trazado_881748" data-name="Trazado 881748" d="M312.093,365.538H298.328a2.642,2.642,0,1,1,0-5.284h13.765a2.642,2.642,0,1,1,0,5.284m-13.765-3.594a.953.953,0,1,0,0,1.905h13.765a.953.953,0,1,0,0-1.905Z" transform="translate(-262.383 -319.679)"/>
          <path id="Trazado_881749" data-name="Trazado 881749" d="M338.083,303.9a.845.845,0,0,1-.845-.845v-2.366a.845.845,0,0,1,1.689,0v2.366a.845.845,0,0,1-.845.845" transform="translate(-299.255 -266.077)"/>
          <path id="Trazado_881750" data-name="Trazado 881750" d="M410.107,369.762a.845.845,0,0,1-.845-.845v-2.366a.845.845,0,1,1,1.689,0v2.366a.845.845,0,0,1-.845.845" transform="translate(-363.167 -324.517)"/>
        </g>
      </g>
    </g>
  </g>
</svg>
