<svg xmlns="http://www.w3.org/2000/svg" xmlns:xlink="http://www.w3.org/1999/xlink" width="292.414" height="341.26" viewBox="0 0 292.414 341.26">
  <defs>
    <clipPath id="clip-path">
      <rect id="Rectángulo_405812" data-name="Rectángulo 405812" width="48.656" height="53.782" fill="none"/>
    </clipPath>
    <clipPath id="clip-path-2">
      <rect id="Rectángulo_405813" data-name="Rectángulo 405813" width="14.605" height="10.484" fill="none"/>
    </clipPath>
    <clipPath id="clip-path-3">
      <rect id="Rectángulo_405814" data-name="Rectángulo 405814" width="5.257" height="11.232" fill="none"/>
    </clipPath>
    <clipPath id="clip-path-4">
      <rect id="Rectángulo_405815" data-name="Rectángulo 405815" width="40.539" height="80.94" fill="none"/>
    </clipPath>
    <clipPath id="clip-path-5">
      <rect id="Rectángulo_405816" data-name="Rectángulo 405816" width="65.706" height="63.549" fill="none"/>
    </clipPath>
    <clipPath id="clip-path-6">
      <rect id="Rectángulo_405817" data-name="Rectángulo 405817" width="12.657" height="31.942" fill="none"/>
    </clipPath>
    <clipPath id="clip-path-7">
      <rect id="Rectángulo_405818" data-name="Rectángulo 405818" width="21.857" height="30.7" fill="none"/>
    </clipPath>
    <clipPath id="clip-path-8">
      <rect id="Rectángulo_405819" data-name="Rectángulo 405819" width="7.995" height="6.37" fill="none"/>
    </clipPath>
    <clipPath id="clip-path-9">
      <rect id="Rectángulo_405820" data-name="Rectángulo 405820" width="12.004" height="17.142" fill="none"/>
    </clipPath>
    <clipPath id="clip-path-10">
      <rect id="Rectángulo_405821" data-name="Rectángulo 405821" width="33.671" height="17.691" fill="none"/>
    </clipPath>
    <clipPath id="clip-path-11">
      <rect id="Rectángulo_405822" data-name="Rectángulo 405822" width="27.077" height="114.693" fill="none"/>
    </clipPath>
    <clipPath id="clip-path-12">
      <rect id="Rectángulo_405823" data-name="Rectángulo 405823" width="6.917" height="16.266" fill="none"/>
    </clipPath>
    <clipPath id="clip-path-13">
      <rect id="Rectángulo_405824" data-name="Rectángulo 405824" width="59.719" height="77.623" fill="none"/>
    </clipPath>
    <clipPath id="clip-path-14">
      <rect id="Rectángulo_405825" data-name="Rectángulo 405825" width="28.5" height="115.891" fill="none"/>
    </clipPath>
    <clipPath id="clip-path-15">
      <rect id="Rectángulo_405826" data-name="Rectángulo 405826" width="20.564" height="11.404" fill="none"/>
    </clipPath>
    <clipPath id="clip-path-16">
      <rect id="Rectángulo_405827" data-name="Rectángulo 405827" width="17.297" height="61.473" fill="none"/>
    </clipPath>
    <clipPath id="clip-path-17">
      <rect id="Rectángulo_405828" data-name="Rectángulo 405828" width="14.942" height="40.75" fill="none"/>
    </clipPath>
    <clipPath id="clip-path-18">
      <rect id="Rectángulo_405829" data-name="Rectángulo 405829" width="12.026" height="21.194" fill="none"/>
    </clipPath>
    <clipPath id="clip-path-19">
      <rect id="Rectángulo_405830" data-name="Rectángulo 405830" width="18.603" height="28.945" fill="none"/>
    </clipPath>
    <clipPath id="clip-path-20">
      <rect id="Rectángulo_405831" data-name="Rectángulo 405831" width="14.802" height="15.615" fill="none"/>
    </clipPath>
    <clipPath id="clip-path-21">
      <rect id="Rectángulo_405832" data-name="Rectángulo 405832" width="28.103" height="102.006" fill="none"/>
    </clipPath>
    <clipPath id="clip-path-22">
      <rect id="Rectángulo_405833" data-name="Rectángulo 405833" width="25.865" height="50.819" fill="none"/>
    </clipPath>
  </defs>
  <g id="Grupo_1102807" data-name="Grupo 1102807" transform="translate(-32.91 -36.652)">
    <g id="Grupo_1102808" data-name="Grupo 1102808" transform="translate(0.231 36.652)">
      <g id="Grupo_1102805" data-name="Grupo 1102805">
        <g id="Grupo_1102809" data-name="Grupo 1102809">
          <path id="Trazado_881598" data-name="Trazado 881598" d="M230.15,361.944a1.282,1.282,0,0,1-1-.479L129.464,237.523a1.284,1.284,0,0,1,2-1.61L231.15,359.855a1.284,1.284,0,0,1-1,2.089" transform="translate(5.656 -34.211)" fill="#e03c03"/>
          <path id="Trazado_881599" data-name="Trazado 881599" d="M77.936,361.944a1.284,1.284,0,0,1-1-2.089L176.62,235.913a1.284,1.284,0,0,1,2,1.61L78.938,361.465a1.285,1.285,0,0,1-1,.479" transform="translate(3.241 -34.211)" fill="#ff6224"/>
          <path id="Trazado_881600" data-name="Trazado 881600" d="M177.622,361.944a1.285,1.285,0,0,1-1-.479L76.936,237.523a1.284,1.284,0,0,1,2-1.61l99.684,123.942a1.284,1.284,0,0,1-1,2.089" transform="translate(3.241 -34.211)" fill="#ff6224"/>
          <path id="Trazado_881601" data-name="Trazado 881601" d="M96.948,240.1H50.637a3.29,3.29,0,1,1,0-6.58H96.948a3.29,3.29,0,1,1,0,6.58" transform="translate(1.893 -34.299)" fill="#e03c03"/>
          <path id="Trazado_881602" data-name="Trazado 881602" d="M228.124,240.1H95.758a3.29,3.29,0,0,1,0-6.58H228.124Z" transform="translate(3.968 -34.299)" fill="#ff6224"/>
          <path id="Trazado_881603" data-name="Trazado 881603" d="M129.284,296.066a3.594,3.594,0,1,1-3.594-3.594,3.594,3.594,0,0,1,3.594,3.594" transform="translate(5.33 -31.589)" fill="#e03c03"/>
          <path id="Trazado_881604" data-name="Trazado 881604" d="M181.813,296.066a3.594,3.594,0,1,1-3.594-3.594,3.594,3.594,0,0,1,3.594,3.594" transform="translate(7.745 -31.589)" fill="#ffc947"/>
          <path id="Trazado_881605" data-name="Trazado 881605" d="M138.01,141.49H91.353a4.171,4.171,0,0,1-4.171-4.171v-34.7a4.171,4.171,0,0,1,4.171-4.171H138.01a4.171,4.171,0,0,1,4.171,4.171v34.7a4.171,4.171,0,0,1-4.171,4.171" transform="translate(3.725 -40.509)" fill="#b0c8cb"/>
          <path id="Trazado_881606" data-name="Trazado 881606" d="M125.99,117.09h-1.727a10.313,10.313,0,0,0-1.165-2.656l1.333-1.333a1.3,1.3,0,0,0,0-1.84l-1.875-1.874a1.3,1.3,0,0,0-1.84,0L119.3,110.8a10.223,10.223,0,0,0-2.506-1.01V107.67a1.3,1.3,0,0,0-1.3-1.3H112.84a1.3,1.3,0,0,0-1.3,1.3v2.147a10.442,10.442,0,0,0-2.434.966l-1.554-1.554a1.3,1.3,0,0,0-1.84,0l-1.874,1.875a1.3,1.3,0,0,0,0,1.839l1.439,1.44a10.433,10.433,0,0,0-1.132,2.483h-2.025a1.3,1.3,0,0,0-1.3,1.3v2.652a1.3,1.3,0,0,0,1.3,1.3h1.774a10.265,10.265,0,0,0,1,2.778l-1.211,1.211a1.3,1.3,0,0,0,0,1.839l1.875,1.875a1.3,1.3,0,0,0,1.839,0l1.053-1.053a10.323,10.323,0,0,0,2.87,1.3v1.472a1.3,1.3,0,0,0,1.3,1.3h2.652a1.3,1.3,0,0,0,1.3-1.3v-1.373a10.44,10.44,0,0,0,2.976-1.2l1.014,1.014a1.3,1.3,0,0,0,1.839,0l1.875-1.875a1.3,1.3,0,0,0,0-1.84l-1.041-1.04a10.382,10.382,0,0,0,1.143-2.884h1.615a1.3,1.3,0,0,0,1.3-1.3v-2.652a1.3,1.3,0,0,0-1.3-1.3m-10.518,9.432a6.687,6.687,0,1,1,5.251-5.251,6.692,6.692,0,0,1-5.251,5.251" transform="translate(4.352 -40.145)" fill="#fff"/>
          <path id="Trazado_881607" data-name="Trazado 881607" d="M205.165,118.759H158.508a4.171,4.171,0,0,1-4.171-4.171v-34.7a4.171,4.171,0,0,1,4.171-4.171h46.657a4.171,4.171,0,0,1,4.171,4.171v34.7a4.171,4.171,0,0,1-4.171,4.171" transform="translate(6.812 -41.554)" fill="#13de61"/>
          <path id="Trazado_881608" data-name="Trazado 881608" d="M172.061,103.879a1.238,1.238,0,0,1-.908-.4l-5.8-6.2a1.442,1.442,0,0,1,0-1.943l5.894-6.308a1.225,1.225,0,0,1,1.816,0,1.442,1.442,0,0,1,0,1.943L168.08,96.3l4.889,5.232a1.442,1.442,0,0,1,0,1.943,1.238,1.238,0,0,1-.908.4" transform="translate(7.302 -40.961)" fill="#fff"/>
          <path id="Trazado_881609" data-name="Trazado 881609" d="M189.566,103.879a1.238,1.238,0,0,1-.908-.4,1.442,1.442,0,0,1,0-1.943l4.89-5.232-4.988-5.337a1.444,1.444,0,0,1,0-1.943,1.227,1.227,0,0,1,1.817,0l5.9,6.308a1.442,1.442,0,0,1,0,1.943l-5.8,6.2a1.238,1.238,0,0,1-.908.4" transform="translate(8.368 -40.961)" fill="#fff"/>
          <path id="Trazado_881610" data-name="Trazado 881610" d="M177.932,105.624a1.2,1.2,0,0,1-.483-.1,1.409,1.409,0,0,1-.706-1.79L182.5,88.6a1.256,1.256,0,0,1,1.674-.755,1.41,1.41,0,0,1,.706,1.791l-5.755,15.128a1.287,1.287,0,0,1-1.19.857" transform="translate(7.838 -41.001)" fill="#fff"/>
          <path id="Trazado_881611" data-name="Trazado 881611" d="M248.286,125.006H132.52v-3.553a1.736,1.736,0,0,1,1.735-1.736H246.549a1.736,1.736,0,0,1,1.736,1.736Z" transform="translate(5.809 -39.531)" fill="#fff"/>
          <path id="Trazado_881612" data-name="Trazado 881612" d="M245.053,186.492h-109.3a3.233,3.233,0,0,1-3.233-3.232V124.773H248.286V183.26a3.232,3.232,0,0,1-3.232,3.232" transform="translate(5.809 -39.299)" fill="#1169e3"/>
          <path id="Trazado_881613" data-name="Trazado 881613" d="M237.957,122.281a.814.814,0,1,1-.814-.814.813.813,0,0,1,.814.814" transform="translate(10.582 -39.451)" fill="#ff6224"/>
          <path id="Trazado_881614" data-name="Trazado 881614" d="M232.608,122.281a.814.814,0,1,1-.814-.814.813.813,0,0,1,.814.814" transform="translate(10.336 -39.451)" fill="#ff6224"/>
          <path id="Trazado_881615" data-name="Trazado 881615" d="M227.26,122.281a.814.814,0,1,1-.814-.814.813.813,0,0,1,.814.814" transform="translate(10.09 -39.451)" fill="#ff6224"/>
          <path id="Trazado_881616" data-name="Trazado 881616" d="M202.591,132.846H138.306a1.119,1.119,0,1,1,0-2.237h64.285a1.119,1.119,0,1,1,0,2.237" transform="translate(6.024 -39.031)" fill="#9fc3f4"/>
          <path id="Trazado_881617" data-name="Trazado 881617" d="M202.591,139.653H138.306a1.119,1.119,0,1,1,0-2.237h64.285a1.119,1.119,0,1,1,0,2.237" transform="translate(6.024 -38.718)" fill="#9fc3f4"/>
          <path id="Trazado_881618" data-name="Trazado 881618" d="M171.924,146.46H138.307a1.119,1.119,0,1,1,0-2.237h33.617a1.119,1.119,0,1,1,0,2.237" transform="translate(6.024 -38.405)" fill="#9fc3f4"/>
          <path id="Trazado_881619" data-name="Trazado 881619" d="M202.591,160.074H138.306a1.119,1.119,0,1,1,0-2.237h64.285a1.119,1.119,0,1,1,0,2.237" transform="translate(6.024 -37.779)" fill="#13de61"/>
          <path id="Trazado_881620" data-name="Trazado 881620" d="M171.924,166.881H138.307a1.119,1.119,0,1,1,0-2.237h33.617a1.119,1.119,0,1,1,0,2.237" transform="translate(6.024 -37.466)" fill="#13de61"/>
          <path id="Trazado_881621" data-name="Trazado 881621" d="M171.924,173.688H138.307a1.119,1.119,0,1,1,0-2.237h33.617a1.119,1.119,0,1,1,0,2.237" transform="translate(6.024 -37.153)" fill="#5e3552"/>
          <path id="Trazado_881622" data-name="Trazado 881622" d="M200.827,146.46H176.669a1.119,1.119,0,0,1,0-2.237h24.158a1.119,1.119,0,1,1,0,2.237" transform="translate(7.788 -38.405)" fill="#fff"/>
          <path id="Trazado_881623" data-name="Trazado 881623" d="M231.059,131.16l-17.082,17.082a1.119,1.119,0,0,1-1.583-1.583l17.082-17.082a1.119,1.119,0,1,1,1.583,1.583" transform="translate(9.466 -39.093)" fill="#13de61"/>
          <path id="Trazado_881624" data-name="Trazado 881624" d="M231.817,162.413a10.073,10.073,0,1,1-10.073-10.073,10.073,10.073,0,0,1,10.073,10.073" transform="translate(9.448 -38.031)" fill="#ff6224"/>
          <path id="Trazado_881625" data-name="Trazado 881625" d="M220.543,168.932a5.7,5.7,0,1,1-5.7-5.7,5.7,5.7,0,0,1,5.7,5.7" transform="translate(9.332 -37.531)" fill="#20c3c5"/>
          <path id="Trazado_881626" data-name="Trazado 881626" d="M132.52,177.808v20.366l18.718-18.718" transform="translate(5.809 -36.861)" fill="#383873"/>
          <path id="Trazado_881627" data-name="Trazado 881627" d="M113.472,202.542H154.54l14.851,28.582H128.323Z" transform="translate(4.933 -35.723)" fill="#86bfbc"/>
          <path id="Trazado_881628" data-name="Trazado 881628" d="M129.009,228.935l-12.3-23.666a.745.745,0,0,1,.661-1.089H152.9a.747.747,0,0,1,.662.4l12.3,23.666a.745.745,0,0,1-.661,1.089H129.67a.746.746,0,0,1-.661-.4" transform="translate(5.079 -35.648)" fill="#fff"/>
          <rect id="Rectángulo_405808" data-name="Rectángulo 405808" width="33.261" height="3.816" transform="translate(133.256 195.401)" fill="#b8e3e2"/>
          <path id="Trazado_881629" data-name="Trazado 881629" d="M188.316,229.868H155.494a1.908,1.908,0,0,0,0,3.816h32.822a1.908,1.908,0,0,0,0-3.816" transform="translate(6.778 -34.467)" fill="#9fccc9"/>
          <path id="Trazado_881630" data-name="Trazado 881630" d="M128.377,231.124l-14.851-28.582-.744.559a1.223,1.223,0,0,0-.349,1.548l15.944,30.291Z" transform="translate(4.879 -35.723)" fill="#b8e3e2"/>
          <rect id="Rectángulo_405809" data-name="Rectángulo 405809" width="3.662" height="0.635" transform="translate(144.546 197.182)" fill="#9fccc9"/>
          <rect id="Rectángulo_405810" data-name="Rectángulo 405810" width="3.662" height="0.635" transform="translate(149.15 197.182)" fill="#9fccc9"/>
          <rect id="Rectángulo_405811" data-name="Rectángulo 405811" width="3.662" height="0.635" transform="translate(153.752 197.182)" fill="#9fccc9"/>
          <path id="Trazado_881631" data-name="Trazado 881631" d="M202.491,283.869s-34.064,26.522-39.467,33.26c-2.038,2.551-5.59,7.02-9.272,11.6-6.044,7.526-12.457,15.367-13.218,15.556-1.215.309-11.438-7.474-11.746-9.152-.188-1.044,9.118-17.019,17.174-29.861,4.906-7.808,9.341-14.468,10.9-15.906,4.118-3.819,29.459-17.243,29.459-17.243Z" transform="translate(5.637 -32.524)" fill="#383873"/>
          <g id="Grupo_1102731" data-name="Grupo 1102731" transform="translate(142.695 252.748)" opacity="0.15" style="mix-blend-mode: overlay;isolation: isolate">
            <g id="Grupo_1102730" data-name="Grupo 1102730">
              <g id="Grupo_1102729" data-name="Grupo 1102729" clip-path="url(#clip-path)">
                <path id="Trazado_881632" data-name="Trazado 881632" d="M137.1,338.029s31.824-45.3,47.8-52.926" transform="translate(-136.675 -284.675)" fill="none" stroke="#000" stroke-linecap="round" stroke-miterlimit="10" stroke-width="0.818"/>
              </g>
            </g>
          </g>
          <path id="Trazado_881633" data-name="Trazado 881633" d="M234.853,173.23c-.36.822-.771,1.678-1.233,2.551-2.49,4.76-.651,9.529-3.493,10.744a3.21,3.21,0,0,1-.573.18c-3.665.813-12.106-4.067-12.474-6.507s2.6-6.617,0-7.122-4.006,3.869-4.006,3.869c-2.14.223-2.9-3.364-6.412-3.364a5.881,5.881,0,0,0-1.456.188,11.845,11.845,0,0,0-5.1,3.245,6.961,6.961,0,0,1-2.979-5.873c.248-6.172,2.525-10.676,8.013-11.592.608-6.866,6.258-10.531,13.809-10.762,6.617-.205,7.611,5.744,7.764,7.226a16.626,16.626,0,0,0-1.943-7.226c3.314-.145,6.233,2.217,5.47,9.923.763-2.295,3.433-3.741,5.488-2.064-1.9,0-3.733,3.2-3.733,3.2a12.925,12.925,0,0,1,3.758,4.075c1.268,2.183.788,5.411-.9,9.306" transform="translate(8.779 -38.195)" fill="#382424"/>
          <path id="Trazado_881634" data-name="Trazado 881634" d="M229.771,185.459l-.086,1.13-.291,4.007s-6.1,5.213-9.554,0a.753.753,0,0,0-.077-.1c-1.07-1.593-2.038-2.149-2.919-2.252-1.909-.231-3.451,1.635-5.043-.385A38.828,38.828,0,0,1,204.85,172.7a5.882,5.882,0,0,1,1.456-.188c3.509,0,4.272,3.587,6.412,3.364,0,0,1.4-4.374,4.006-3.869s-.368,4.683,0,7.122c.163,1.088,1.935,2.663,4.178,4,2.612,1.566,5.865,2.807,7.928,2.568.128-.017.248-.035.368-.06a3.21,3.21,0,0,0,.573-.18" transform="translate(9.135 -37.129)" fill="#ffad94"/>
          <g id="Grupo_1102734" data-name="Grupo 1102734" transform="translate(226.826 147.486)" opacity="0.25" style="mix-blend-mode: overlay;isolation: isolate">
            <g id="Grupo_1102733" data-name="Grupo 1102733">
              <g id="Grupo_1102732" data-name="Grupo 1102732" clip-path="url(#clip-path-2)">
                <path id="Trazado_881635" data-name="Trazado 881635" d="M230.157,192.359c-2.748,1.874-7.782,2.183-7.782,2.183l-4.118-.608s-1.721-2.5-.916-3.9a4.866,4.866,0,0,1,1.088-1.1,29.562,29.562,0,0,1,4.726-3.03,15.139,15.139,0,0,1,5.274-1.849c3.458-.2,4.477,6.412,1.729,8.3" transform="translate(-217.127 -184.059)"/>
              </g>
            </g>
          </g>
          <path id="Trazado_881636" data-name="Trazado 881636" d="M230.088,258.873c-6.129,1.182-19.1-2.432-25.306-5.223-1.833-.821-3.082-1.575-3.382-2.106-1.19-2.1.008-3.707,2.962-10.368.334-.753.684-1.567,1.062-2.449,2-4.717,2.011-14.777,2-23.449-.026-7.422-.06-13.826,1.121-14.965,2.559-2.465,15.333-10.538,15.333-10.538l2.543,13.253s1.438,6.729,2.954,15.512c2.791,16.173,5.855,39.339.71,40.332" transform="translate(8.955 -36.31)" fill="#20c3c5"/>
          <path id="Trazado_881637" data-name="Trazado 881637" d="M236.8,262.056c0,.608-6.1,14.844-11.223,16.882s-35.974-.2-35.974-.2l-15.256,9.973,3.193,30.05,2.226,20.94.068.676c-4.665,3.048-16.42,3.87-17.686,1.242a.025.025,0,0,1-.009-.017c-1.224-2.645-19.938-59-12.61-68.762s54.312-24.006,54.312-24.006a25.933,25.933,0,0,0,4.194,2.107,80.076,80.076,0,0,0,16.908,4.272c1.943.3,3.647.522,4.949.677,1.643.2,2.637.274,2.637.274s4.272,5.282,4.272,5.9" transform="translate(6.513 -33.595)" fill="#383873"/>
          <path id="Trazado_881638" data-name="Trazado 881638" d="M182.026,356.01H142.354a2.329,2.329,0,0,1,.667-2.132c1.61-1.935,5.642-3.879,9.529-5.556,3.69-1.592,7.234-2.962,8.424-3.9,2.8-2.217,1.506-6.532,1.429-6.8.429.882,2.047,1.379,4.187,1.524,4.2.3,10.411-.745,13.5-2.766l-.068-.676c1.181,2.259,1.737,13.432,1.926,18.175.051,1.31.077,2.132.077,2.132" transform="translate(6.258 -29.601)" fill="#0c2059"/>
          <path id="Trazado_881639" data-name="Trazado 881639" d="M166.139,339.06c-.12,1.892-.393,4.957-.941,5.779-.814,1.224-9.563,5.5-10.779,5.086a7.244,7.244,0,0,1-2.32-1.687c3.69-1.592,7.234-2.962,8.424-3.9,2.8-2.217,1.506-6.532,1.43-6.8.428.882,2.046,1.379,4.186,1.524" transform="translate(6.709 -29.517)" fill="#2e4780"/>
          <path id="Trazado_881640" data-name="Trazado 881640" d="M182.026,355.211H142.354a2.329,2.329,0,0,1,.667-2.132h38.927c.051,1.31.077,2.132.077,2.132" transform="translate(6.258 -28.802)" fill="#2e4780"/>
          <path id="Trazado_881641" data-name="Trazado 881641" d="M141.473,341.518s-3.013,7.945-5.624,12.148c-1.037,1.678-2.021,2.766-2.714,2.5-2.44-.916-26.959-21.763-24.613-23.286a3.9,3.9,0,0,1,1.575-.462,47.159,47.159,0,0,1,8.938.359c2.807.292,5.419.609,6.78.609,3.459,0,3.912-1.019,3.912-1.019a6.267,6.267,0,0,0,1.7,2.089c3.03,2.876,9.126,7.294,10.051,7.063" transform="translate(4.699 -29.757)" fill="#0c2059"/>
          <path id="Trazado_881642" data-name="Trazado 881642" d="M130.955,334.453a11.353,11.353,0,0,1-11.686.583,2.355,2.355,0,0,1-.7-2.26c2.807.291,5.419.608,6.78.608,3.459,0,3.913-1.019,3.913-1.019a6.245,6.245,0,0,0,1.694,2.089" transform="translate(5.166 -29.755)" fill="#2e4780"/>
          <path id="Trazado_881643" data-name="Trazado 881643" d="M135.849,353.661c-1.036,1.678-2.021,2.766-2.714,2.5-2.439-.916-26.958-21.763-24.613-23.287a3.937,3.937,0,0,1,1.575-.462Z" transform="translate(4.699 -29.752)" fill="#2e4780"/>
          <path id="Trazado_881644" data-name="Trazado 881644" d="M207.212,231.485c-1.917,2.671-5.35,6.747-8.175,6.335-.1-.018-.214-.034-.351-.061-5.393-.95-37.112-8.9-38.61-9.2-1.524-.3-12.2-.4-11.593-1.524s6.712-4.674,8.339-4.589,8.039,1.943,14.443,1.737,23.192,0,23.192,0l.813-1.4,1.2-2.072c-.334,6.215,7.158,11.284,10.744,10.779" transform="translate(6.542 -34.888)" fill="#ffad94"/>
          <g id="Grupo_1102737" data-name="Grupo 1102737" transform="translate(213.157 219.334)" opacity="0.15" style="mix-blend-mode: overlay;isolation: isolate">
            <g id="Grupo_1102736" data-name="Grupo 1102736">
              <g id="Grupo_1102735" data-name="Grupo 1102735" clip-path="url(#clip-path-3)">
                <path id="Trazado_881645" data-name="Trazado 881645" d="M204.636,253.158s-1.461,7.781,4.233,10.375" transform="translate(-204.04 -252.73)" fill="none" stroke="#000" stroke-linecap="round" stroke-miterlimit="10" stroke-width="0.818"/>
              </g>
            </g>
          </g>
          <g id="Grupo_1102740" data-name="Grupo 1102740" transform="translate(170.653 225.59)" opacity="0.15" style="mix-blend-mode: overlay;isolation: isolate">
            <g id="Grupo_1102739" data-name="Grupo 1102739">
              <g id="Grupo_1102738" data-name="Grupo 1102738" clip-path="url(#clip-path-4)">
                <path id="Trazado_881646" data-name="Trazado 881646" d="M203.515,259.139s-37.679,16.071-39.488,21.055,9.585,59.029,9.585,59.029" transform="translate(-163.404 -258.711)" fill="none" stroke="#000" stroke-linecap="round" stroke-miterlimit="10" stroke-width="0.818"/>
              </g>
            </g>
          </g>
          <g id="Grupo_1102743" data-name="Grupo 1102743" transform="translate(177.609 221.612)" opacity="0.15" style="mix-blend-mode: overlay;isolation: isolate">
            <g id="Grupo_1102742" data-name="Grupo 1102742">
              <g id="Grupo_1102741" data-name="Grupo 1102741" clip-path="url(#clip-path-5)">
                <path id="Trazado_881647" data-name="Trazado 881647" d="M235.779,261.776c0,.608-6.1,14.844-11.223,16.882s-35.974-.2-35.974-.2l-15.256,9.973,3.193,30.05s-6.446-34.322-6.446-36.565c0-1.917,42.617-14.168,53.849-26.984,4.4.693,7.585.951,7.585.951s4.272,5.282,4.272,5.9" transform="translate(-170.073 -254.927)"/>
              </g>
            </g>
          </g>
          <g id="Grupo_1102746" data-name="Grupo 1102746" transform="translate(213.316 172.925)" opacity="0.25" style="mix-blend-mode: overlay;isolation: isolate">
            <g id="Grupo_1102745" data-name="Grupo 1102745">
              <g id="Grupo_1102744" data-name="Grupo 1102744" clip-path="url(#clip-path-6)">
                <path id="Trazado_881648" data-name="Trazado 881648" d="M214.116,227.5c-2.645,3.75-6.909,8.51-9.905,12.825.334-.754.685-1.567,1.062-2.449,2-4.717,2.012-14.777,2-23.449l9.134-6.045s1.978,13.064-2.294,19.117" transform="translate(-204.211 -208.38)"/>
              </g>
            </g>
          </g>
          <path id="Trazado_881649" data-name="Trazado 881649" d="M206.771,231.292c-.394.36-.8.719-1.2,1.053a1.973,1.973,0,0,1-.471.1c-3.587.505-11.078-4.564-10.744-10.779a9.077,9.077,0,0,1,.993-2.594c3.066-6.181,12.286-19.938,13.98-19.3,0,0,5.924.915,7.534,9.006,1.506,7.594-3.93,16.806-10.094,22.516" transform="translate(8.652 -35.852)" fill="#169799"/>
          <g id="Grupo_1102749" data-name="Grupo 1102749" transform="translate(214.549 191.588)" opacity="0.25" style="mix-blend-mode: overlay;isolation: isolate">
            <g id="Grupo_1102748" data-name="Grupo 1102748">
              <g id="Grupo_1102747" data-name="Grupo 1102747" clip-path="url(#clip-path-7)">
                <path id="Trazado_881650" data-name="Trazado 881650" d="M227.247,256.923c-1.3-.154-3.005-.377-4.949-.677a80.076,80.076,0,0,1-16.908-4.272c4.606-.162,14.46-3.193,15.65-25.752a110.855,110.855,0,0,0,2.483,13.074,178.389,178.389,0,0,1,3.724,17.627" transform="translate(-205.39 -226.223)"/>
              </g>
            </g>
          </g>
          <g id="Grupo_1102752" data-name="Grupo 1102752" transform="translate(225.979 146.001)" opacity="0.25" style="mix-blend-mode: overlay;isolation: isolate">
            <g id="Grupo_1102751" data-name="Grupo 1102751">
              <g id="Grupo_1102750" data-name="Grupo 1102750" clip-path="url(#clip-path-8)">
                <path id="Trazado_881651" data-name="Trazado 881651" d="M224.314,184.514a15.688,15.688,0,0,0-1.122,1.464,29.417,29.417,0,0,0-4.726,3.03,3.421,3.421,0,0,0-2.15-1.258l4.058-5.112a21.954,21.954,0,0,0,3.939,1.875" transform="translate(-216.317 -182.639)"/>
              </g>
            </g>
          </g>
          <g id="Grupo_1102755" data-name="Grupo 1102755" transform="translate(201.75 185.819)" opacity="0.25" style="mix-blend-mode: overlay;isolation: isolate">
            <g id="Grupo_1102754" data-name="Grupo 1102754">
              <g id="Grupo_1102753" data-name="Grupo 1102753" clip-path="url(#clip-path-9)">
                <path id="Trazado_881652" data-name="Trazado 881652" d="M205.157,231.485c-1.917,2.671-5.35,6.747-8.175,6.335-.1-.018-.214-.034-.351-.061-3.493-5.051-3.621-11.668-3.416-14.982l1.2-2.072c-.334,6.215,7.158,11.284,10.744,10.779" transform="translate(-193.153 -220.707)"/>
              </g>
            </g>
          </g>
          <g id="Grupo_1102758" data-name="Grupo 1102758" transform="translate(209.961 130.194)" opacity="0.25" style="mix-blend-mode: overlay;isolation: isolate">
            <g id="Grupo_1102757" data-name="Grupo 1102757">
              <g id="Grupo_1102756" data-name="Grupo 1102756" clip-path="url(#clip-path-10)">
                <path id="Trazado_881653" data-name="Trazado 881653" d="M234.674,172.368c-.36.822-.771,1.678-1.233,2.551a17.257,17.257,0,0,0-1.6,6.592,12.409,12.409,0,0,0-1.25-.856,22.173,22.173,0,0,0-5.573,4.554l-.009.008c-3.732-1.336-7.85-4.194-8.107-5.882-.368-2.439,2.6-6.617,0-7.122s-4.006,3.869-4.006,3.869c-2.14.223-2.9-3.364-6.412-3.364a5.88,5.88,0,0,0-1.456.188A10.387,10.387,0,0,0,201,175.124s3.956-5.555,10.162-4.434c0,0-.907-1.73-5.084-1.524,8.75-2.851,14.339-1.729,17.037,1.421,2.2,2.576,7.362,5.761,11.557,1.78" transform="translate(-201.003 -167.527)"/>
              </g>
            </g>
          </g>
          <path id="Trazado_881654" data-name="Trazado 881654" d="M251.544,292.111H221.023s24.211-7.123,24.211-55.133c0-.616,0-1.224-.008-1.833-.249-32.086-7.106-49.782-15.556-54.825a36.717,36.717,0,0,1,10.812-4.1,56.735,56.735,0,0,1,6.738-1.088c20.9-2.132,37.591,6.061,39.578,15.333s-10.239,101.646-35.255,101.646" transform="translate(9.878 -36.999)" fill="#b8e3e2"/>
          <path id="Trazado_881655" data-name="Trazado 881655" d="M247.434,236.734c0,48.01-24.211,55.133-24.211,55.133h-50.04l2.08-1.481,13.176-8.492,26.444-1.833c1.421-5.9,5.292-6.095,11.19-6.712,3.433-.35,3.767-6.146,2.723-13.809A175.261,175.261,0,0,0,225,241.417a110.872,110.872,0,0,1-2.483-13.073,114.336,114.336,0,0,1-.95-14.1,119.174,119.174,0,0,1,2.457-25.016c.119-.609.248-1.19.377-1.747,0-.017.008-.043.008-.06a12.334,12.334,0,0,1,1.875-2.783l.008-.008a22.192,22.192,0,0,1,5.573-4.554,12.418,12.418,0,0,1,1.25.857c7.868,5.992,14.066,23.482,14.306,53.968.008.609.008,1.216.008,1.833" transform="translate(7.679 -36.756)" fill="#86bfbc"/>
          <path id="Trazado_881656" data-name="Trazado 881656" d="M236.578,358.251H200.552a1.3,1.3,0,0,1-.8-2.32l9.015-7.054a16.543,16.543,0,0,0,6.335-13.013v-48.91h6.917v48.91a16.523,16.523,0,0,0,6.344,13.013l9.006,7.054a1.3,1.3,0,0,1-.8,2.32" transform="translate(8.877 -31.842)" fill="#b8e3e2"/>
          <g id="Grupo_1102761" data-name="Grupo 1102761" transform="translate(253.343 139.548)" opacity="0.25" style="mix-blend-mode: overlay;isolation: isolate">
            <g id="Grupo_1102760" data-name="Grupo 1102760">
              <g id="Grupo_1102759" data-name="Grupo 1102759" clip-path="url(#clip-path-11)">
                <path id="Trazado_881657" data-name="Trazado 881657" d="M261.206,176.879s.263.673.693,2.02" transform="translate(-241.617 -176.451)" fill="none" stroke="#000" stroke-linecap="round" stroke-miterlimit="10" stroke-width="0.818"/>
                <path id="Trazado_881658" data-name="Trazado 881658" d="M263.816,182.793a167.813,167.813,0,0,1,4.077,21.471c3.275,25.266-.051,60.727-22.022,83.192" transform="translate(-242.322 -176.179)" fill="none" stroke="#000" stroke-linecap="round" stroke-miterlimit="10" stroke-width="0.818" stroke-dasharray="4.153 4.153"/>
                <path id="Trazado_881659" data-name="Trazado 881659" d="M244.458,284.321q-.77.737-1.571,1.455" transform="translate(-242.459 -171.511)" fill="none" stroke="#000" stroke-linecap="round" stroke-miterlimit="10" stroke-width="0.818"/>
              </g>
            </g>
          </g>
          <g id="Grupo_1102764" data-name="Grupo 1102764" transform="translate(223.984 255.112)" opacity="0.15" style="mix-blend-mode: overlay;isolation: isolate">
            <g id="Grupo_1102763" data-name="Grupo 1102763">
              <g id="Grupo_1102762" data-name="Grupo 1102762" clip-path="url(#clip-path-12)">
                <path id="Trazado_881660" data-name="Trazado 881660" d="M221.327,286.954v13.355a48.645,48.645,0,0,1-6.917,2.911V286.954Z" transform="translate(-214.41 -286.954)"/>
              </g>
            </g>
          </g>
          <g id="Grupo_1102767" data-name="Grupo 1102767" transform="translate(180.862 177.489)" opacity="0.15" style="mix-blend-mode: overlay;isolation: isolate">
            <g id="Grupo_1102766" data-name="Grupo 1102766">
              <g id="Grupo_1102765" data-name="Grupo 1102765" clip-path="url(#clip-path-13)">
                <path id="Trazado_881661" data-name="Trazado 881661" d="M232.785,269.614c-1.626,5.086-11.788,4.175-13.021,7.936-2.617,7.981-4.067,4.47-14.126,5.488-5.753.582-9.93,4.272-12.448,7.328H173.183l2.079-1.481,13.176-8.492,26.445-1.833c1.42-5.9,5.291-6.095,11.189-6.712,3.433-.35,3.767-6.146,2.723-13.809A174.709,174.709,0,0,0,225,239.915a111.091,111.091,0,0,1-2.483-13.073,114.749,114.749,0,0,1-.95-14.1c3.912,20.392,12.422,53.1,11.215,56.871" transform="translate(-173.183 -212.743)"/>
              </g>
            </g>
          </g>
          <g id="Grupo_1102770" data-name="Grupo 1102770" transform="translate(230.901 139.221)" opacity="0.15" style="mix-blend-mode: overlay;isolation: isolate">
            <g id="Grupo_1102769" data-name="Grupo 1102769">
              <g id="Grupo_1102768" data-name="Grupo 1102768" clip-path="url(#clip-path-14)">
                <path id="Trazado_881662" data-name="Trazado 881662" d="M245.234,236.915c0-.616,0-1.224-.008-1.833-.249-32.086-7.106-49.782-15.556-54.825a36.717,36.717,0,0,1,10.812-4.1c-1.4,2.011-2.85,5.033-2.165,8.261,1.224,5.71,15.059,27.678,9.768,62.873-3.819,25.392-2.551,38.6,1.438,44.757h-28.5s24.211-7.123,24.211-55.133" transform="translate(-221.023 -176.157)"/>
              </g>
            </g>
          </g>
          <g id="Grupo_1102773" data-name="Grupo 1102773" transform="translate(59.928 165.52)" opacity="0.25" style="mix-blend-mode: overlay;isolation: isolate">
            <g id="Grupo_1102772" data-name="Grupo 1102772">
              <g id="Grupo_1102771" data-name="Grupo 1102771" clip-path="url(#clip-path-15)">
                <path id="Trazado_881663" data-name="Trazado 881663" d="M78.129,209.605a15.727,15.727,0,0,1-.325,3.1h-9.82a30.652,30.652,0,0,1-10.419-11.4c2.629,2.859,7.115,6.344,11.686,7.406,3.989.925,6.961.53,8.878.9" transform="translate(-57.565 -201.3)"/>
              </g>
            </g>
          </g>
          <path id="Trazado_881664" data-name="Trazado 881664" d="M100.318,173.1c-1.1,3.981-6.121,11.7-10.71,19.973-5.018,9.024-9.5,18.688-7.748,24.827a13.641,13.641,0,0,1,.633,3.484c.018,2.671-2.011,1.841-4.057.325a37.243,37.243,0,0,1-4.2-3.809l.154-11.9s-6.745-6.2-1.207-19.758q.527-1.285,1.207-2.671c7.628-15.41,19.066-31.582,8.236-36.161,14.956-.916,19.99,17.361,17.7,25.691" transform="translate(2.981 -38.26)" fill="#20c3c5"/>
          <g id="Grupo_1102776" data-name="Grupo 1102776" transform="translate(77.628 109.146)" opacity="0.53" style="mix-blend-mode: overlay;isolation: isolate">
            <g id="Grupo_1102775" data-name="Grupo 1102775">
              <g id="Grupo_1102774" data-name="Grupo 1102774" clip-path="url(#clip-path-16)">
                <path id="Trazado_881665" data-name="Trazado 881665" d="M82.461,147.4a11.1,11.1,0,0,1,6.79,4.883,15.479,15.479,0,0,1,1.045,1.875,18.253,18.253,0,0,1,.737,2.018,15.275,15.275,0,0,1,.5,2.089l.186,1.06.067,1.081a26.782,26.782,0,0,1-1.934,8.345c-1,2.682-2.147,5.3-3.337,7.9-2.382,5.192-4.95,10.294-7.215,15.52a71,71,0,0,0-2.994,7.968,26,26,0,0,0-.889,4.115,8.945,8.945,0,0,0,.277,4.041l0,.013a.428.428,0,0,1-.807.283l0-.006a9.731,9.731,0,0,1-.269-4.429,26.667,26.667,0,0,1,.969-4.231,71.8,71.8,0,0,1,3.123-8.013c2.342-5.22,4.973-10.288,7.415-15.442,1.22-2.576,2.4-5.172,3.423-7.829a26.527,26.527,0,0,0,2.021-8.233l-.051-1.055-.172-1.05a15.173,15.173,0,0,0-.466-2.077,17.845,17.845,0,0,0-.706-2.007,15.156,15.156,0,0,0-1.013-1.872,11.046,11.046,0,0,0-6.7-4.941" transform="translate(-74.487 -147.404)"/>
              </g>
            </g>
          </g>
          <path id="Trazado_881666" data-name="Trazado 881666" d="M93.008,194.957c-4.572,12.054,0,21.2-6.866,22.5-3.142.6-4.529-1.73-5.1-4.435a24.469,24.469,0,0,1-.231-6.926,23.349,23.349,0,0,1,3.613-5.872,14.493,14.493,0,0,1,8.586-5.265" transform="translate(3.425 -36.072)" fill="#169799"/>
          <path id="Trazado_881667" data-name="Trazado 881667" d="M78.232,210.824c-.026,2.808-.659,5.188-1.96,6.438a4.311,4.311,0,0,1-.377.334c-3.246,2.629-5.317-2.183-5.317-2.183s-8.629-4.255-12.91-12.893c-3.279-6.636-4.006-15.864,3.707-27.73,1.131,8.45,5.762,14.2,10.351,19.665v.008c.573.685,1.138,1.352,1.7,2.029,3.177,3.809,4.846,9.665,4.8,14.331" transform="translate(2.26 -36.999)" fill="#b8e3e2"/>
          <g id="Grupo_1102779" data-name="Grupo 1102779" transform="translate(62.73 137.792)" opacity="0.53" style="mix-blend-mode: overlay;isolation: isolate">
            <g id="Grupo_1102778" data-name="Grupo 1102778">
              <g id="Grupo_1102777" data-name="Grupo 1102777" clip-path="url(#clip-path-17)">
                <path id="Trazado_881668" data-name="Trazado 881668" d="M61.146,174.791a37.6,37.6,0,0,0-.582,11.058,23.877,23.877,0,0,0,3.39,10.419c1.917,3.157,4.58,5.757,6.994,8.6a21.274,21.274,0,0,1,3.166,4.67,11.114,11.114,0,0,1,1.037,5.613.428.428,0,0,1-.854-.069v-.008a10.308,10.308,0,0,0-.867-5.227,20.667,20.667,0,0,0-2.977-4.57c-2.328-2.849-4.978-5.535-6.867-8.783a24.2,24.2,0,0,1-3.237-10.621,37.7,37.7,0,0,1,.795-11.078" transform="translate(-60.244 -174.791)"/>
              </g>
            </g>
          </g>
          <g id="Grupo_1102782" data-name="Grupo 1102782" transform="translate(84.409 158.885)" opacity="0.25" style="mix-blend-mode: overlay;isolation: isolate">
            <g id="Grupo_1102781" data-name="Grupo 1102781">
              <g id="Grupo_1102780" data-name="Grupo 1102780" clip-path="url(#clip-path-18)">
                <path id="Trazado_881669" data-name="Trazado 881669" d="M93,194.957c-1.311,1.517-2.53,3.11-3.7,4.736s-2.266,3.3-3.258,5.034a31.526,31.526,0,0,0-4.217,11.04l0,.015a.428.428,0,1,1-.847-.12l0-.016a32.107,32.107,0,0,1,4.7-11.14c1.062-1.71,2.235-3.345,3.453-4.941s2.5-3.139,3.868-4.609" transform="translate(-80.97 -194.957)"/>
              </g>
            </g>
          </g>
          <path id="Trazado_881670" data-name="Trazado 881670" d="M91.012,215.167l-2.928,17.978a1.606,1.606,0,0,1-1.575,1.3H68.265a1.6,1.6,0,0,1-1.575-1.3l-2.38-14.6-.548-3.382a1.6,1.6,0,0,1,1.575-1.892h24.1a1.6,1.6,0,0,1,1.575,1.892" transform="translate(2.647 -35.23)" fill="#b8e3e2"/>
          <path id="Trazado_881671" data-name="Trazado 881671" d="M93.907,218.881h-32.8l.865-4.9A2.164,2.164,0,0,1,64.1,212.2h26.83a2.155,2.155,0,0,1,2.114,1.78Z" transform="translate(2.526 -35.279)" fill="#86bfbc"/>
          <g id="Grupo_1102785" data-name="Grupo 1102785" transform="translate(73.985 147.978)" opacity="0.25" style="mix-blend-mode: overlay;isolation: isolate">
            <g id="Grupo_1102784" data-name="Grupo 1102784">
              <g id="Grupo_1102783" data-name="Grupo 1102783" clip-path="url(#clip-path-19)">
                <path id="Trazado_881672" data-name="Trazado 881672" d="M81.251,206.575a24.471,24.471,0,0,0,.223,6.9h-4.29a15.65,15.65,0,0,0,.325-3.1c.043-4.666-1.626-10.521-4.8-14.331-.565-.677-1.13-1.344-1.7-2.029v-.008a27.011,27.011,0,0,1,2.175-9.478c.248,4.323,1.31,11.84,5.624,12.636,3.279.6,7.551-2.654,10.8-5.8-1.721,3.09-3.372,6.258-4.742,9.34a23.365,23.365,0,0,0-3.613,5.873" transform="translate(-71.004 -184.53)"/>
              </g>
            </g>
          </g>
          <g id="Grupo_1102788" data-name="Grupo 1102788" transform="translate(66.999 183.601)" opacity="0.25" style="mix-blend-mode: overlay;isolation: isolate">
            <g id="Grupo_1102787" data-name="Grupo 1102787">
              <g id="Grupo_1102786" data-name="Grupo 1102786" clip-path="url(#clip-path-20)">
                <path id="Trazado_881673" data-name="Trazado 881673" d="M79.128,234.2H68.238a1.6,1.6,0,0,1-1.575-1.3l-2.338-14.314h9.41a27.057,27.057,0,0,0,.2,8.647,12.845,12.845,0,0,0,5.2,6.968" transform="translate(-64.325 -218.587)"/>
              </g>
            </g>
          </g>
          <path id="Trazado_881674" data-name="Trazado 881674" d="M159.584,93.831H112.927a4.171,4.171,0,0,1-4.171-4.171V54.96a4.171,4.171,0,0,1,4.171-4.171h46.657a4.171,4.171,0,0,1,4.171,4.171v34.7a4.171,4.171,0,0,1-4.171,4.171" transform="translate(4.717 -42.7)" fill="#1169e3"/>
          <path id="Trazado_881675" data-name="Trazado 881675" d="M121.068,65.374v4.633a.672.672,0,0,0,.672.672H124.3a.672.672,0,0,0,.673-.672V65.374a.671.671,0,0,1,.672-.672h.248a.672.672,0,0,1,.671.672V77.967a.672.672,0,0,1-.671.672h-.248a.671.671,0,0,1-.672-.672V72.8a.672.672,0,0,0-.673-.672H121.74a.672.672,0,0,0-.672.672v5.17a.672.672,0,0,1-.672.672h-.249a.672.672,0,0,1-.673-.672V65.374a.672.672,0,0,1,.673-.672h.249a.672.672,0,0,1,.672.672" transform="translate(5.209 -42.061)" fill="#fff"/>
          <path id="Trazado_881676" data-name="Trazado 881676" d="M129.626,66.129h-1.2a.672.672,0,0,1-.672-.672v-.084a.672.672,0,0,1,.672-.672h5.336a.671.671,0,0,1,.672.672v.084a.672.672,0,0,1-.672.672h-1.2a.672.672,0,0,0-.672.672V77.967a.672.672,0,0,1-.673.672h-.248a.672.672,0,0,1-.673-.672V66.8a.672.672,0,0,0-.672-.672" transform="translate(5.59 -42.061)" fill="#fff"/>
          <path id="Trazado_881677" data-name="Trazado 881677" d="M143.992,72.642c-.1-1.841-.207-3.888-.144-5.459h-.083c-.311,1.55-.683,3.2-1.117,4.839l-1.716,6.534h-1.014l-1.633-6.265c-.456-1.778-.868-3.495-1.137-5.108h-.062c0,1.633-.084,3.577-.166,5.563L136.68,78a.672.672,0,0,1-.672.641h-.072a.672.672,0,0,1-.67-.711l.748-12.594a.672.672,0,0,1,.67-.632h.562a.671.671,0,0,1,.651.5l1.505,5.865c.475,1.84.826,3.2,1.116,4.8h.062c.269-1.592.578-2.916,1.034-4.8l1.446-5.859a.671.671,0,0,1,.652-.51h.618a.672.672,0,0,1,.67.633l.728,12.594a.672.672,0,0,1-.67.71h-.137a.671.671,0,0,1-.67-.639Z" transform="translate(5.935 -42.061)" fill="#fff"/>
          <path id="Trazado_881678" data-name="Trazado 881678" d="M148.052,64.7h.249a.672.672,0,0,1,.672.672V76.623a.673.673,0,0,0,.672.673h2.585a.672.672,0,1,1,0,1.343h-4.177a.671.671,0,0,1-.672-.672V65.374a.672.672,0,0,1,.672-.672" transform="translate(6.492 -42.061)" fill="#fff"/>
          <path id="Trazado_881679" data-name="Trazado 881679" d="M177.684,54.833a1.972,1.972,0,0,0,2.158-2.222,25.128,25.128,0,0,0-.189-2.7,26.916,26.916,0,0,1-.191-2.793c0-2.858,1.747-4.064,4-4.064h.381v1.651h-.476c-1.334,0-1.873.953-1.873,2.381a19.077,19.077,0,0,0,.191,2.413c.063.825.158,1.587.158,2.348.032,2.477-.825,3.334-2.189,3.714v.064c1.364.412,2.222,1.27,2.189,3.777,0,.794-.1,1.587-.158,2.381a20.094,20.094,0,0,0-.191,2.444c0,1.428.477,2.412,1.9,2.412h.445v1.651h-.412c-2.1,0-3.968-1.047-3.968-4.063a27.526,27.526,0,0,1,.191-2.825,26.918,26.918,0,0,0,.189-2.73,2.008,2.008,0,0,0-2.158-2.254Z" transform="translate(7.886 -43.056)" fill="#383873"/>
          <path id="Trazado_881680" data-name="Trazado 881680" d="M208.892,56.419a2.008,2.008,0,0,0-2.158,2.254,26.934,26.934,0,0,0,.189,2.73,27.51,27.51,0,0,1,.191,2.824c0,3.016-1.873,4.064-3.968,4.064h-.412V66.641h.445c1.428-.159,1.9-.984,1.9-2.413,0-.857-.1-1.65-.16-2.443a20.292,20.292,0,0,1-.189-2.381c-.032-2.508.824-3.365,2.189-3.778v-.063c-1.365-.382-2.222-1.238-2.189-3.714a20.877,20.877,0,0,1,.189-2.349c.064-.761.16-1.554.16-2.412,0-1.429-.541-2.222-1.873-2.381h-.476V43.056h.381c2.254,0,4,1.206,4,4.064a26.92,26.92,0,0,1-.191,2.793,25.123,25.123,0,0,0-.189,2.7,1.973,1.973,0,0,0,2.158,2.223Z" transform="translate(9.037 -43.056)" fill="#383873"/>
          <path id="Trazado_881681" data-name="Trazado 881681" d="M198.673,58.441V52.334l-5.288-3.053L188.1,52.334v6.106l5.287,3.053Z" transform="translate(8.364 -42.77)" fill="#13de61"/>
          <path id="Trazado_881682" data-name="Trazado 881682" d="M237.063,87.185A12.9,12.9,0,0,0,221.674,107.3l-1.937-.23a.428.428,0,1,0-.1.849l2.953.351a.428.428,0,0,0,.475-.374l.34-2.857a.428.428,0,1,0-.849-.1l-.217,1.819A12.042,12.042,0,0,1,236.682,87.95a.428.428,0,1,0,.382-.766" transform="translate(9.759 -41.089)" fill="#13de61"/>
          <path id="Trazado_881683" data-name="Trazado 881683" d="M225.63,110.7A12.9,12.9,0,0,0,241.02,90.586l1.937.23a.428.428,0,1,0,.1-.849l-2.953-.351a.428.428,0,0,0-.475.374l-.34,2.857a.428.428,0,1,0,.849.1l.217-1.82a12.042,12.042,0,0,1-14.346,18.807.428.428,0,1,0-.381.766" transform="translate(10.079 -40.916)" fill="#13de61"/>
          <path id="Trazado_881684" data-name="Trazado 881684" d="M311.788,132.973H260.263c-.94,0-1.7-1.145-1.7-2.557s.761-2.556,1.7-2.556h51.526c.939,0,1.7,1.144,1.7,2.556s-.762,2.557-1.7,2.557" transform="translate(11.604 -39.157)" fill="#13de61"/>
          <path id="Trazado_881685" data-name="Trazado 881685" d="M289.38,143.6H260.067c-.831,0-1.5-1.144-1.5-2.557s.674-2.556,1.5-2.556H289.38c.831,0,1.5,1.144,1.5,2.556s-.674,2.557-1.5,2.557" transform="translate(11.604 -38.669)" fill="#5e3552"/>
          <path id="Trazado_881686" data-name="Trazado 881686" d="M289.38,155.009H260.067c-.831,0-1.5-1.144-1.5-2.557s.674-2.556,1.5-2.556H289.38c.831,0,1.5,1.144,1.5,2.556s-.674,2.557-1.5,2.557" transform="translate(11.604 -38.145)" fill="#5e3552"/>
          <path id="Trazado_881687" data-name="Trazado 881687" d="M74.316,92.353H34.07a2.557,2.557,0,0,1,0-5.114H74.316a2.557,2.557,0,1,1,0,5.114" transform="translate(1.165 -41.025)" fill="#5e3552"/>
          <path id="Trazado_881688" data-name="Trazado 881688" d="M59.123,102.979H34.071a2.557,2.557,0,1,1,0-5.114H59.123a2.557,2.557,0,1,1,0,5.114" transform="translate(1.165 -40.536)" fill="#13de61"/>
          <path id="Trazado_881689" data-name="Trazado 881689" d="M59.123,114.389H34.071a2.557,2.557,0,1,1,0-5.114H59.123a2.557,2.557,0,1,1,0,5.114" transform="translate(1.165 -40.011)" fill="#13de61"/>
          <g id="Grupo_1102791" data-name="Grupo 1102791" transform="translate(288.437 183.601)" opacity="0.25" style="mix-blend-mode: overlay;isolation: isolate">
            <g id="Grupo_1102790" data-name="Grupo 1102790">
              <g id="Grupo_1102789" data-name="Grupo 1102789" clip-path="url(#clip-path-21)">
                <path id="Trazado_881691" data-name="Trazado 881691" d="M276.25,320.227a28.55,28.55,0,0,1-.03-6.805,42.157,42.157,0,0,1,1.2-6.647,62.4,62.4,0,0,1,4.812-12.573c.974-2.025,2.139-3.948,3.276-5.879l3.641-5.621a78.087,78.087,0,0,0,5.924-11.92,115.379,115.379,0,0,0,4.233-12.662q1.778-6.442,2.918-13.043a121.162,121.162,0,0,0,1.6-13.272,65.046,65.046,0,0,0,.1-6.684,29.781,29.781,0,0,0-.306-3.328,10.61,10.61,0,0,0-.908-3.2,10.612,10.612,0,0,1,.961,3.2,29.427,29.427,0,0,1,.363,3.331,65.379,65.379,0,0,1,.012,6.7,113.735,113.735,0,0,1-1.44,13.326q-1.076,6.619-2.784,13.118a115.917,115.917,0,0,1-4.118,12.773,78.579,78.579,0,0,1-5.852,12.1l-3.607,5.641c-1.121,1.915-2.269,3.821-3.226,5.823a61.5,61.5,0,0,0-4.71,12.4,45.77,45.77,0,0,0-1.193,6.514,27.875,27.875,0,0,0-.031,6.554l.006.04a.428.428,0,0,1-.847.118" transform="translate(-276.03 -218.587)"/>
              </g>
            </g>
          </g>
          <g id="Grupo_1102794" data-name="Grupo 1102794" transform="translate(280.793 256.062)" opacity="0.25" style="mix-blend-mode: overlay;isolation: isolate">
            <g id="Grupo_1102793" data-name="Grupo 1102793">
              <g id="Grupo_1102792" data-name="Grupo 1102792" clip-path="url(#clip-path-22)">
                <path id="Trazado_881692" data-name="Trazado 881692" d="M294.587,287.863c-10.83,19.785-23.406,32.37-23.877,50.819a110.41,110.41,0,0,1-.771-37.181c7.02-2.868,16.891-7.541,24.647-13.637" transform="translate(-268.722 -287.863)"/>
              </g>
            </g>
          </g>
          <path id="Trazado_881699" data-name="Trazado 881699" d="M315.732,369.969H55.691a7.426,7.426,0,1,1,0-14.852h260.04a7.426,7.426,0,0,1,0,14.852" transform="translate(-9.239 -28.708)" fill="#cff8de"/>
        </g>
      </g>
    </g>
  </g>
</svg>
