<svg xmlns="http://www.w3.org/2000/svg" width="85" height="85" viewBox="0 0 85 85">
  <g id="Grupo_1102614" data-name="Grupo 1102614" transform="translate(-180.051 -385)">
    <circle id="Elipse_11504" data-name="Elipse 11504" cx="42.5" cy="42.5" r="42.5" transform="translate(180.051 385)" fill="#13de61"/>
    <g id="algoritmo-_" data-name="algoritmo-&apos;" transform="translate(188.051 403)">
      <path id="Trazado_873655" data-name="Trazado 873655" d="M102.351,62.273H50.24a1.861,1.861,0,0,1-1.861-1.861v-33.7a1.861,1.861,0,0,1,1.861-1.861h52.111a1.861,1.861,0,0,1,1.861,1.861v33.7A1.861,1.861,0,0,1,102.351,62.273Zm0,0" transform="translate(-41.949 -21.545)" fill="#bce8f1"/>
      <path id="Trazado_873656" data-name="Trazado 873656" d="M102.5,24.848h-7.68v29.43a1.707,1.707,0,0,1-1.707,1.707H48.379v4.582a1.706,1.706,0,0,0,1.707,1.707H102.5a1.706,1.706,0,0,0,1.707-1.707V26.554A1.707,1.707,0,0,0,102.5,24.848Zm0,0" transform="translate(-41.949 -21.545)" fill="#95dae8"/>
      <path id="Trazado_873657" data-name="Trazado 873657" d="M104.211,32.871V26.689a1.841,1.841,0,0,0-1.841-1.841H50.22a1.841,1.841,0,0,0-1.841,1.841v6.183Zm0,0" transform="translate(-41.949 -21.545)" fill="#f0feff"/>
      <path id="Trazado_873658" data-name="Trazado 873658" d="M405.37,24.848h-7.546v8.024h9.387V26.689A1.841,1.841,0,0,0,405.37,24.848Zm0,0" transform="translate(-344.948 -21.545)" fill="#def4f8"/>
      <path id="Trazado_873659" data-name="Trazado 873659" d="M91.415,49.479H30.949V11.323a3.9,3.9,0,0,1,3.9-3.9H87.514a3.9,3.9,0,0,1,3.9,3.9V49.479ZM36.8,43.018H85.563A1.219,1.219,0,0,0,86.782,41.8V13.273a1.219,1.219,0,0,0-1.219-1.219H36.8a1.219,1.219,0,0,0-1.219,1.219V41.8A1.219,1.219,0,0,0,36.8,43.018Zm0,0" transform="translate(-26.836 -6.435)" fill="#607882"/>
      <path id="Trazado_873660" data-name="Trazado 873660" d="M88.287,8V44.427a.935.935,0,0,1-.935.935h-56.4v4.619H91.415V11.824A3.9,3.9,0,0,0,88.287,8Zm0,0" transform="translate(-26.836 -6.937)" fill="#495959"/>
      <path id="Trazado_873661" data-name="Trazado 873661" d="M67.918,316.154H13a5.582,5.582,0,0,1-5.582-5.582v-.688a.64.64,0,0,1,.641-.641h64.8a.641.641,0,0,1,.641.641v.688A5.582,5.582,0,0,1,67.918,316.154Zm0,0" transform="translate(-6.435 -268.14)" fill="#607882"/>
      <path id="Trazado_873662" data-name="Trazado 873662" d="M81.533,309.242H75.565a5.524,5.524,0,0,1-5.5,4.979H17.418a5.508,5.508,0,0,0,4.2,1.932H76.644a5.523,5.523,0,0,0,5.524-5.524v-.754A.634.634,0,0,0,81.533,309.242Zm0,0" transform="translate(-15.103 -268.14)" fill="#495959"/>
      <g id="Grupo_1099864" data-name="Grupo 1099864" transform="translate(16.247 14.04)">
        <path id="Trazado_873663" data-name="Trazado 873663" d="M123.386,107.265h-.822c-.21,0-.325-.076-.325-.338,0-.236.127-.3.459-.363l.236-.051c.708-.153.51-.88,1.052-.88.2,0,.37.089.37.434v3.621c0,.331-.127.561-.484.561s-.484-.229-.484-.561Zm0,0" transform="translate(-122.238 -105.633)" fill="#607882"/>
        <path id="Trazado_873664" data-name="Trazado 873664" d="M155.359,105.633c1.033,0,1.7.746,1.7,2.251,0,1.128-.357,2.365-1.7,2.365s-1.7-1.237-1.7-2.365C153.656,106.379,154.325,105.633,155.359,105.633Zm0,3.851c.491,0,.771-.4.771-1.543,0-.956-.21-1.543-.771-1.543s-.772.587-.772,1.543C154.587,109.082,154.868,109.484,155.359,109.484Zm0,0" transform="translate(-149.48 -105.633)" fill="#607882"/>
        <path id="Trazado_873665" data-name="Trazado 873665" d="M194.307,105.633c1.033,0,1.7.746,1.7,2.251,0,1.128-.357,2.365-1.7,2.365s-1.7-1.237-1.7-2.365C192.605,106.379,193.275,105.633,194.307,105.633Zm0,3.851c.491,0,.772-.4.772-1.543,0-.956-.21-1.543-.772-1.543s-.771.587-.771,1.543C193.536,109.082,193.817,109.484,194.307,109.484Zm0,0" transform="translate(-183.253 -105.633)" fill="#607882"/>
        <path id="Trazado_873666" data-name="Trazado 873666" d="M230.4,107.265h-.822c-.211,0-.325-.076-.325-.338,0-.236.127-.3.458-.363l.236-.051c.708-.153.51-.88,1.052-.88.2,0,.37.089.37.434v3.621c0,.331-.127.561-.484.561s-.484-.229-.484-.561Zm0,0" transform="translate(-215.03 -105.633)" fill="#607882"/>
        <path id="Trazado_873667" data-name="Trazado 873667" d="M262.374,105.633c1.033,0,1.7.746,1.7,2.251,0,1.128-.357,2.365-1.7,2.365s-1.7-1.237-1.7-2.365C260.672,106.379,261.341,105.633,262.374,105.633Zm0,3.851c.491,0,.772-.4.772-1.543,0-.956-.21-1.543-.772-1.543s-.772.587-.772,1.543C261.6,109.082,261.883,109.484,262.374,109.484Zm0,0" transform="translate(-242.272 -105.633)" fill="#607882"/>
        <path id="Trazado_873668" data-name="Trazado 873668" d="M298.464,107.265h-.822c-.21,0-.325-.076-.325-.338,0-.236.128-.3.459-.363l.236-.051c.707-.153.51-.88,1.052-.88.2,0,.37.089.37.434v3.621c0,.331-.128.561-.485.561s-.484-.229-.484-.561Zm0,0" transform="translate(-274.046 -105.633)" fill="#607882"/>
        <path id="Trazado_873669" data-name="Trazado 873669" d="M330.437,105.633c1.033,0,1.7.746,1.7,2.251,0,1.128-.357,2.365-1.7,2.365s-1.7-1.237-1.7-2.365C328.734,106.379,329.4,105.633,330.437,105.633Zm0,3.851c.491,0,.771-.4.771-1.543,0-.956-.211-1.543-.771-1.543s-.772.587-.772,1.543C329.665,109.082,329.946,109.484,330.437,109.484Zm0,0" transform="translate(-301.289 -105.633)" fill="#607882"/>
        <path id="Trazado_873670" data-name="Trazado 873670" d="M369.385,105.633c1.033,0,1.7.746,1.7,2.251,0,1.128-.357,2.365-1.7,2.365s-1.7-1.237-1.7-2.365C367.684,106.379,368.353,105.633,369.385,105.633Zm0,3.851c.491,0,.772-.4.772-1.543,0-.956-.21-1.543-.772-1.543s-.771.587-.771,1.543C368.615,109.082,368.895,109.484,369.385,109.484Zm0,0" transform="translate(-335.061 -105.633)" fill="#607882"/>
        <path id="Trazado_873671" data-name="Trazado 873671" d="M126.241,158.246c1.033,0,1.7.746,1.7,2.25,0,1.129-.357,2.365-1.7,2.365s-1.7-1.237-1.7-2.365C124.539,158.992,125.209,158.246,126.241,158.246Zm0,3.851c.491,0,.772-.4.772-1.543,0-.956-.211-1.543-.772-1.543s-.772.587-.772,1.543C125.47,161.7,125.75,162.1,126.241,162.1Zm0,0" transform="translate(-124.233 -151.253)" fill="#607882"/>
        <path id="Trazado_873672" data-name="Trazado 873672" d="M162.335,159.878h-.822c-.21,0-.325-.076-.325-.337,0-.236.128-.3.459-.363l.236-.051c.708-.153.51-.879,1.052-.879.2,0,.37.089.37.434V162.3c0,.331-.127.561-.484.561s-.484-.229-.484-.561Zm0,0" transform="translate(-156.011 -151.253)" fill="#607882"/>
        <path id="Trazado_873673" data-name="Trazado 873673" d="M194.307,158.246c1.033,0,1.7.746,1.7,2.25,0,1.129-.357,2.365-1.7,2.365s-1.7-1.237-1.7-2.365C192.605,158.992,193.275,158.246,194.307,158.246Zm0,3.851c.491,0,.772-.4.772-1.543,0-.956-.21-1.543-.772-1.543s-.771.587-.771,1.543C193.536,161.7,193.817,162.1,194.307,162.1Zm0,0" transform="translate(-183.253 -151.253)" fill="#607882"/>
        <path id="Trazado_873674" data-name="Trazado 873674" d="M230.4,159.878h-.822c-.211,0-.325-.076-.325-.337,0-.236.127-.3.458-.363l.236-.051c.708-.153.51-.879,1.052-.879.2,0,.37.089.37.434V162.3c0,.331-.127.561-.484.561s-.484-.229-.484-.561Zm0,0" transform="translate(-215.03 -151.253)" fill="#607882"/>
        <path id="Trazado_873675" data-name="Trazado 873675" d="M262.374,158.246c1.033,0,1.7.746,1.7,2.25,0,1.129-.357,2.365-1.7,2.365s-1.7-1.237-1.7-2.365C260.672,158.992,261.341,158.246,262.374,158.246Zm0,3.851c.491,0,.772-.4.772-1.543,0-.956-.21-1.543-.772-1.543s-.772.587-.772,1.543C261.6,161.7,261.883,162.1,262.374,162.1Zm0,0" transform="translate(-242.272 -151.253)" fill="#607882"/>
        <path id="Trazado_873676" data-name="Trazado 873676" d="M301.32,158.246c1.033,0,1.7.746,1.7,2.25,0,1.129-.357,2.365-1.7,2.365s-1.7-1.237-1.7-2.365C299.617,158.992,300.287,158.246,301.32,158.246Zm0,3.851c.491,0,.772-.4.772-1.543,0-.956-.21-1.543-.772-1.543s-.772.587-.772,1.543C300.548,161.7,300.828,162.1,301.32,162.1Zm0,0" transform="translate(-276.041 -151.253)" fill="#607882"/>
        <path id="Trazado_873677" data-name="Trazado 873677" d="M340.269,158.246c1.033,0,1.7.746,1.7,2.25,0,1.129-.357,2.365-1.7,2.365s-1.7-1.237-1.7-2.365C338.566,158.992,339.236,158.246,340.269,158.246Zm0,3.851c.491,0,.772-.4.772-1.543,0-.956-.21-1.543-.772-1.543s-.771.587-.771,1.543C339.5,161.7,339.778,162.1,340.269,162.1Zm0,0" transform="translate(-309.814 -151.253)" fill="#607882"/>
        <path id="Trazado_873678" data-name="Trazado 873678" d="M376.362,159.878h-.822c-.21,0-.325-.076-.325-.337,0-.236.127-.3.459-.363l.236-.051c.708-.153.51-.879,1.052-.879.2,0,.37.089.37.434V162.3c0,.331-.127.561-.484.561s-.484-.229-.484-.561Zm0,0" transform="translate(-341.591 -151.253)" fill="#607882"/>
        <path id="Trazado_873679" data-name="Trazado 873679" d="M123.386,212.491h-.822c-.21,0-.325-.076-.325-.337,0-.236.127-.3.459-.363l.236-.051c.708-.153.51-.88,1.052-.88.2,0,.37.089.37.434v3.621c0,.332-.127.561-.484.561s-.484-.229-.484-.561Zm0,0" transform="translate(-122.238 -196.873)" fill="#607882"/>
        <path id="Trazado_873680" data-name="Trazado 873680" d="M155.359,210.859c1.033,0,1.7.746,1.7,2.25,0,1.129-.357,2.365-1.7,2.365s-1.7-1.237-1.7-2.365C153.656,211.605,154.325,210.859,155.359,210.859Zm0,3.85c.491,0,.771-.4.771-1.543,0-.956-.21-1.543-.771-1.543s-.772.587-.772,1.543C154.587,214.308,154.868,214.71,155.359,214.71Zm0,0" transform="translate(-149.48 -196.873)" fill="#607882"/>
        <path id="Trazado_873681" data-name="Trazado 873681" d="M191.452,212.491h-.822c-.211,0-.325-.076-.325-.337,0-.236.127-.3.459-.363l.236-.051c.708-.153.51-.88,1.052-.88.2,0,.37.089.37.434v3.621c0,.332-.128.561-.484.561s-.484-.229-.484-.561Zm0,0" transform="translate(-181.258 -196.873)" fill="#607882"/>
        <path id="Trazado_873682" data-name="Trazado 873682" d="M223.425,210.859c1.033,0,1.7.746,1.7,2.25,0,1.129-.357,2.365-1.7,2.365s-1.7-1.237-1.7-2.365C221.723,211.605,222.392,210.859,223.425,210.859Zm0,3.85c.491,0,.772-.4.772-1.543,0-.956-.21-1.543-.772-1.543s-.772.587-.772,1.543C222.653,214.308,222.934,214.71,223.425,214.71Zm0,0" transform="translate(-208.5 -196.873)" fill="#607882"/>
        <path id="Trazado_873683" data-name="Trazado 873683" d="M262.374,210.859c1.033,0,1.7.746,1.7,2.25,0,1.129-.357,2.365-1.7,2.365s-1.7-1.237-1.7-2.365C260.672,211.605,261.341,210.859,262.374,210.859Zm0,3.85c.491,0,.772-.4.772-1.543,0-.956-.21-1.543-.772-1.543s-.772.587-.772,1.543C261.6,214.308,261.883,214.71,262.374,214.71Zm0,0" transform="translate(-242.272 -196.873)" fill="#607882"/>
        <path id="Trazado_873684" data-name="Trazado 873684" d="M298.464,212.491h-.822c-.21,0-.325-.076-.325-.337,0-.236.128-.3.459-.363l.236-.051c.707-.153.51-.88,1.052-.88.2,0,.37.089.37.434v3.621c0,.332-.128.561-.485.561s-.484-.229-.484-.561Zm0,0" transform="translate(-274.046 -196.873)" fill="#607882"/>
        <path id="Trazado_873685" data-name="Trazado 873685" d="M330.437,210.859c1.033,0,1.7.746,1.7,2.25,0,1.129-.357,2.365-1.7,2.365s-1.7-1.237-1.7-2.365C328.734,211.605,329.4,210.859,330.437,210.859Zm0,3.85c.491,0,.771-.4.771-1.543,0-.956-.211-1.543-.771-1.543s-.772.587-.772,1.543C329.665,214.308,329.946,214.71,330.437,214.71Zm0,0" transform="translate(-301.289 -196.873)" fill="#607882"/>
        <path id="Trazado_873686" data-name="Trazado 873686" d="M369.385,210.859c1.033,0,1.7.746,1.7,2.25,0,1.129-.357,2.365-1.7,2.365s-1.7-1.237-1.7-2.365C367.684,211.605,368.353,210.859,369.385,210.859Zm0,3.85c.491,0,.772-.4.772-1.543,0-.956-.21-1.543-.772-1.543s-.771.587-.771,1.543C368.615,214.308,368.895,214.71,369.385,214.71Zm0,0" transform="translate(-335.061 -196.873)" fill="#607882"/>
      </g>
      <path id="Trazado_873687" data-name="Trazado 873687" d="M109.351,67.788a2.208,2.208,0,0,0,2.206-2.206V37.057a2.208,2.208,0,0,0-2.206-2.206H60.588a2.208,2.208,0,0,0-2.206,2.206V65.583a2.208,2.208,0,0,0,2.206,2.206ZM60.356,65.583V42.532H94.992a.986.986,0,0,0,0-1.973H60.356v-3.5a.233.233,0,0,1,.233-.233h48.762a.233.233,0,0,1,.233.233v3.5h-9.9a.986.986,0,0,0,0,1.973h9.9V65.583a.233.233,0,0,1-.233.233H60.588A.233.233,0,0,1,60.356,65.583Zm0,0" transform="translate(-50.623 -30.219)"/>
      <path id="Trazado_873688" data-name="Trazado 873688" d="M66.43,40.116h-.865V4.887A4.893,4.893,0,0,0,60.678,0H8.015A4.86,4.86,0,0,0,3.859,2.314a.986.986,0,1,0,1.676,1.04A2.9,2.9,0,0,1,8.015,1.973H60.678a2.918,2.918,0,0,1,2.915,2.914V40.116h-.286a.986.986,0,0,0,0,1.972h2.771v.4a4.542,4.542,0,0,1-4.537,4.537H6.51A4.542,4.542,0,0,1,1.973,42.49v-.4l56.8.195h0a.986.986,0,0,0,0-1.973L5.1,40.128V7.279a.986.986,0,0,0-1.973,0V40.121l-1.506-.005A1.622,1.622,0,0,0,0,41.737v.753A6.518,6.518,0,0,0,6.51,49H61.541a6.517,6.517,0,0,0,6.51-6.51v-.753A1.622,1.622,0,0,0,66.43,40.116Zm0,0"/>
      <path id="Trazado_873689" data-name="Trazado 873689" d="M122.563,107.265h.822v2.423c0,.331.128.561.484.561s.484-.229.484-.561v-3.621c0-.344-.166-.434-.37-.434-.542,0-.344.727-1.052.88l-.236.051c-.332.064-.459.128-.459.363C122.238,107.188,122.353,107.265,122.563,107.265Zm0,0" transform="translate(-105.991 -91.593)"/>
      <path id="Trazado_873690" data-name="Trazado 873690" d="M155.359,110.248c1.345,0,1.7-1.237,1.7-2.365,0-1.5-.669-2.25-1.7-2.25s-1.7.746-1.7,2.25C153.656,109.012,154.013,110.248,155.359,110.248Zm0-3.85c.561,0,.771.586.771,1.543,0,1.141-.28,1.543-.771,1.543s-.772-.4-.772-1.543C154.587,106.984,154.8,106.4,155.359,106.4Zm0,0" transform="translate(-133.233 -91.593)"/>
      <path id="Trazado_873691" data-name="Trazado 873691" d="M194.307,110.248c1.345,0,1.7-1.237,1.7-2.365,0-1.5-.669-2.25-1.7-2.25s-1.7.746-1.7,2.25C192.605,109.012,192.963,110.248,194.307,110.248Zm0-3.85c.561,0,.772.586.772,1.543,0,1.141-.28,1.543-.772,1.543s-.771-.4-.771-1.543C193.536,106.984,193.747,106.4,194.307,106.4Zm0,0" transform="translate(-167.006 -91.593)"/>
      <path id="Trazado_873692" data-name="Trazado 873692" d="M229.579,107.265h.822v2.423c0,.331.127.561.484.561s.484-.229.484-.561v-3.621c0-.344-.166-.434-.37-.434-.542,0-.344.727-1.052.88l-.236.051c-.332.064-.459.128-.459.363C229.254,107.188,229.369,107.265,229.579,107.265Zm0,0" transform="translate(-198.783 -91.593)"/>
      <path id="Trazado_873693" data-name="Trazado 873693" d="M262.374,110.248c1.345,0,1.7-1.237,1.7-2.365,0-1.5-.669-2.25-1.7-2.25s-1.7.746-1.7,2.25C260.672,109.012,261.029,110.248,262.374,110.248Zm0-3.85c.561,0,.772.586.772,1.543,0,1.141-.28,1.543-.772,1.543s-.772-.4-.772-1.543C261.6,106.984,261.813,106.4,262.374,106.4Zm0,0" transform="translate(-226.025 -91.593)"/>
      <path id="Trazado_873694" data-name="Trazado 873694" d="M297.641,107.265h.822v2.423c0,.331.128.561.485.561s.484-.229.484-.561v-3.621c0-.344-.166-.434-.37-.434-.542,0-.345.727-1.052.88l-.236.051c-.331.064-.459.128-.459.363C297.316,107.188,297.431,107.265,297.641,107.265Zm0,0" transform="translate(-257.799 -91.593)"/>
      <path id="Trazado_873695" data-name="Trazado 873695" d="M330.437,110.248c1.345,0,1.7-1.237,1.7-2.365,0-1.5-.669-2.25-1.7-2.25s-1.7.746-1.7,2.25C328.734,109.012,329.092,110.248,330.437,110.248Zm0-3.85c.561,0,.771.586.771,1.543,0,1.141-.281,1.543-.771,1.543s-.772-.4-.772-1.543C329.665,106.984,329.876,106.4,330.437,106.4Zm0,0" transform="translate(-285.042 -91.593)"/>
      <path id="Trazado_873696" data-name="Trazado 873696" d="M369.385,110.248c1.345,0,1.7-1.237,1.7-2.365,0-1.5-.669-2.25-1.7-2.25s-1.7.746-1.7,2.25C367.684,109.012,368.041,110.248,369.385,110.248Zm0-3.85c.561,0,.772.586.772,1.543,0,1.141-.28,1.543-.772,1.543s-.771-.4-.771-1.543C368.615,106.984,368.825,106.4,369.385,106.4Zm0,0" transform="translate(-318.814 -91.593)"/>
      <path id="Trazado_873697" data-name="Trazado 873697" d="M124.539,160.5c0,1.128.357,2.365,1.7,2.365s1.7-1.237,1.7-2.365c0-1.5-.669-2.251-1.7-2.251S124.539,158.992,124.539,160.5Zm2.474.057c0,1.141-.281,1.543-.772,1.543s-.772-.4-.772-1.543c0-.956.21-1.543.772-1.543S127.013,159.6,127.013,160.554Zm0,0" transform="translate(-107.986 -137.213)"/>
      <path id="Trazado_873698" data-name="Trazado 873698" d="M162.819,162.862c.357,0,.485-.229.485-.561V158.68c0-.344-.166-.434-.37-.434-.542,0-.344.727-1.052.879l-.236.051c-.331.064-.459.128-.459.363,0,.261.115.337.325.337h.822V162.3C162.335,162.632,162.463,162.862,162.819,162.862Zm0,0" transform="translate(-139.764 -137.213)"/>
      <path id="Trazado_873699" data-name="Trazado 873699" d="M194.307,162.862c1.345,0,1.7-1.237,1.7-2.365,0-1.5-.669-2.251-1.7-2.251s-1.7.746-1.7,2.251C192.605,161.625,192.963,162.862,194.307,162.862Zm0-3.85c.561,0,.772.586.772,1.543,0,1.141-.28,1.543-.772,1.543s-.771-.4-.771-1.543C193.536,159.6,193.747,159.011,194.307,159.011Zm0,0" transform="translate(-167.006 -137.213)"/>
      <path id="Trazado_873700" data-name="Trazado 873700" d="M229.579,159.878h.822V162.3c0,.331.127.561.484.561s.484-.229.484-.561V158.68c0-.344-.166-.434-.37-.434-.542,0-.344.727-1.052.879l-.236.051c-.332.064-.459.128-.459.363C229.254,159.8,229.369,159.878,229.579,159.878Zm0,0" transform="translate(-198.783 -137.213)"/>
      <path id="Trazado_873701" data-name="Trazado 873701" d="M262.374,162.862c1.345,0,1.7-1.237,1.7-2.365,0-1.5-.669-2.251-1.7-2.251s-1.7.746-1.7,2.251C260.672,161.625,261.029,162.862,262.374,162.862Zm0-3.85c.561,0,.772.586.772,1.543,0,1.141-.28,1.543-.772,1.543s-.772-.4-.772-1.543C261.6,159.6,261.813,159.011,262.374,159.011Zm0,0" transform="translate(-226.025 -137.213)"/>
      <path id="Trazado_873702" data-name="Trazado 873702" d="M299.617,160.5c0,1.128.357,2.365,1.7,2.365s1.7-1.237,1.7-2.365c0-1.5-.669-2.251-1.7-2.251S299.617,158.992,299.617,160.5Zm2.474.057c0,1.141-.281,1.543-.772,1.543s-.772-.4-.772-1.543c0-.956.21-1.543.772-1.543S302.091,159.6,302.091,160.554Zm0,0" transform="translate(-259.794 -137.213)"/>
      <path id="Trazado_873703" data-name="Trazado 873703" d="M338.566,160.5c0,1.128.357,2.365,1.7,2.365s1.7-1.237,1.7-2.365c0-1.5-.669-2.251-1.7-2.251S338.566,158.992,338.566,160.5Zm2.474.057c0,1.141-.281,1.543-.772,1.543s-.771-.4-.771-1.543c0-.956.21-1.543.771-1.543S341.04,159.6,341.04,160.554Zm0,0" transform="translate(-293.567 -137.213)"/>
      <path id="Trazado_873704" data-name="Trazado 873704" d="M376.847,162.862c.357,0,.484-.229.484-.561V158.68c0-.344-.166-.434-.37-.434-.542,0-.344.727-1.052.879l-.236.051c-.332.064-.459.128-.459.363,0,.261.115.337.325.337h.822V162.3C376.362,162.632,376.49,162.862,376.847,162.862Zm0,0" transform="translate(-325.344 -137.213)"/>
      <path id="Trazado_873705" data-name="Trazado 873705" d="M122.563,212.491h.822v2.423c0,.332.128.561.484.561s.484-.229.484-.561v-3.621c0-.344-.166-.434-.37-.434-.542,0-.344.727-1.052.88l-.236.051c-.332.064-.459.127-.459.363C122.238,212.415,122.353,212.491,122.563,212.491Zm0,0" transform="translate(-105.991 -182.834)"/>
      <path id="Trazado_873706" data-name="Trazado 873706" d="M155.359,215.475c1.345,0,1.7-1.237,1.7-2.365,0-1.5-.669-2.25-1.7-2.25s-1.7.746-1.7,2.25C153.656,214.238,154.013,215.475,155.359,215.475Zm0-3.851c.561,0,.771.587.771,1.543,0,1.141-.28,1.543-.771,1.543s-.772-.4-.772-1.543C154.587,212.211,154.8,211.624,155.359,211.624Zm0,0" transform="translate(-133.233 -182.834)"/>
      <path id="Trazado_873707" data-name="Trazado 873707" d="M190.63,212.491h.822v2.423c0,.332.128.561.484.561s.485-.229.485-.561v-3.621c0-.344-.166-.434-.37-.434-.542,0-.344.727-1.052.88l-.236.051c-.331.064-.459.127-.459.363C190.3,212.415,190.419,212.491,190.63,212.491Zm0,0" transform="translate(-165.011 -182.834)"/>
      <path id="Trazado_873708" data-name="Trazado 873708" d="M223.425,215.475c1.345,0,1.7-1.237,1.7-2.365,0-1.5-.67-2.25-1.7-2.25s-1.7.746-1.7,2.25C221.723,214.238,222.079,215.475,223.425,215.475Zm0-3.851c.561,0,.772.587.772,1.543,0,1.141-.28,1.543-.772,1.543s-.772-.4-.772-1.543C222.653,212.211,222.864,211.624,223.425,211.624Zm0,0" transform="translate(-192.253 -182.834)"/>
      <path id="Trazado_873709" data-name="Trazado 873709" d="M262.374,215.475c1.345,0,1.7-1.237,1.7-2.365,0-1.5-.669-2.25-1.7-2.25s-1.7.746-1.7,2.25C260.672,214.238,261.029,215.475,262.374,215.475Zm0-3.851c.561,0,.772.587.772,1.543,0,1.141-.28,1.543-.772,1.543s-.772-.4-.772-1.543C261.6,212.211,261.813,211.624,262.374,211.624Zm0,0" transform="translate(-226.025 -182.834)"/>
      <path id="Trazado_873710" data-name="Trazado 873710" d="M297.641,212.491h.822v2.423c0,.332.128.561.485.561s.484-.229.484-.561v-3.621c0-.344-.166-.434-.37-.434-.542,0-.345.727-1.052.88l-.236.051c-.331.064-.459.127-.459.363C297.316,212.415,297.431,212.491,297.641,212.491Zm0,0" transform="translate(-257.799 -182.834)"/>
      <path id="Trazado_873711" data-name="Trazado 873711" d="M330.437,215.475c1.345,0,1.7-1.237,1.7-2.365,0-1.5-.669-2.25-1.7-2.25s-1.7.746-1.7,2.25C328.734,214.238,329.092,215.475,330.437,215.475Zm0-3.851c.561,0,.771.587.771,1.543,0,1.141-.281,1.543-.771,1.543s-.772-.4-.772-1.543C329.665,212.211,329.876,211.624,330.437,211.624Zm0,0" transform="translate(-285.042 -182.834)"/>
      <path id="Trazado_873712" data-name="Trazado 873712" d="M369.385,215.475c1.345,0,1.7-1.237,1.7-2.365,0-1.5-.669-2.25-1.7-2.25s-1.7.746-1.7,2.25C367.684,214.238,368.041,215.475,369.385,215.475Zm0-3.851c.561,0,.772.587.772,1.543,0,1.141-.28,1.543-.772,1.543s-.771-.4-.771-1.543C368.615,212.211,368.825,211.624,369.385,211.624Zm0,0" transform="translate(-318.814 -182.834)"/>
    </g>
  </g>
</svg>
