<svg xmlns="http://www.w3.org/2000/svg" xmlns:xlink="http://www.w3.org/1999/xlink" width="85" height="85" viewBox="0 0 85 85">
  <defs>
    <clipPath id="clip-path">
      <rect id="Rectángulo_405642" data-name="Rectángulo 405642" width="62" height="62" transform="translate(1241.523 3174)" fill="#fff" stroke="#707070" stroke-width="1"/>
    </clipPath>
  </defs>
  <g id="Grupo_1102941" data-name="Grupo 1102941" transform="translate(-1230.025 -3162)">
    <circle id="Elipse_11500" data-name="Elipse 11500" cx="42.5" cy="42.5" r="42.5" transform="translate(1230.025 3162)" fill="#1169e3"/>
    <g id="Enmascarar_grupo_1098707" data-name="Enmascarar grupo 1098707" clip-path="url(#clip-path)">
      <g id="coding-programing-layout-customize-web_design" data-name="coding-programing-layout-customize-web design" transform="translate(1239.457 3171.934)">
        <path id="Trazado_882117" data-name="Trazado 882117" d="M60.967,3.1H5.167A2.067,2.067,0,0,0,3.1,5.167v6.2H63.033v-6.2A2.067,2.067,0,0,0,60.967,3.1Z" fill="#004fac"/>
        <path id="Trazado_882118" data-name="Trazado 882118" d="M63.033,11.367v49.6a2.073,2.073,0,0,1-2.067,2.067H5.167A2.073,2.073,0,0,1,3.1,60.967v-49.6Z" fill="#d1e7f8"/>
        <path id="Trazado_882119" data-name="Trazado 882119" d="M11.367,63.033h49.6a2.073,2.073,0,0,0,2.067-2.067v-49.6A51.819,51.819,0,0,1,11.367,63.033Z" fill="#c2dff6"/>
        <path id="Trazado_882120" data-name="Trazado 882120" d="M37.2,17.567H56.833v5.167H37.2Z" fill="#ed1c24"/>
        <path id="Trazado_882121" data-name="Trazado 882121" d="M33.067,28.933H46.5v12.4H33.067Z" fill="#7ed63e"/>
        <path id="Trazado_882122" data-name="Trazado 882122" d="M50.633,28.933H58.9v12.4H50.633Z" fill="#ffcd00"/>
        <path id="Trazado_882123" data-name="Trazado 882123" d="M33.067,46.5H58.9V58.9H33.067Z" fill="#006df0"/>
        <path id="Trazado_882124" data-name="Trazado 882124" d="M3.1,11.367H33.067V63.033H5.167A2.067,2.067,0,0,1,3.1,60.967Z" fill="#ffeb99"/>
        <path id="Trazado_882125" data-name="Trazado 882125" d="M11.367,63.033h21.7V58.213a51.176,51.176,0,0,1-21.7,4.82Z" fill="#ffe477"/>
        <g id="Grupo_1102858" data-name="Grupo 1102858">
          <path id="Trazado_882126" data-name="Trazado 882126" d="M60.967,2.067H5.167a3.109,3.109,0,0,0-3.1,3.1v55.8a3.109,3.109,0,0,0,3.1,3.1h55.8a3.109,3.109,0,0,0,3.1-3.1V5.167a3.109,3.109,0,0,0-3.1-3.1ZM32.033,62H5.167a1.033,1.033,0,0,1-1.033-1.033V12.4h27.9ZM62,60.967A1.033,1.033,0,0,1,60.967,62H34.1V59.933H58.9A1.033,1.033,0,0,0,59.933,58.9V46.5A1.033,1.033,0,0,0,58.9,45.467H34.1v-3.1H46.5a1.033,1.033,0,0,0,1.033-1.033v-12.4A1.033,1.033,0,0,0,46.5,27.9H34.1V12.4H62Zm-27.9-3.1V47.533H57.867V57.867Zm0-17.567V29.967H45.467V40.3ZM62,10.333H4.133V5.167A1.033,1.033,0,0,1,5.167,4.133h55.8A1.033,1.033,0,0,1,62,5.167Z" fill="#231f20"/>
          <path id="Trazado_882127" data-name="Trazado 882127" d="M8.267,6.2H7.233a1.033,1.033,0,0,0,0,2.067H8.267a1.033,1.033,0,0,0,0-2.067Z" fill="#231f20"/>
          <path id="Trazado_882128" data-name="Trazado 882128" d="M12.4,6.2H11.367a1.033,1.033,0,1,0,0,2.067H12.4a1.033,1.033,0,0,0,0-2.067Z" fill="#231f20"/>
          <path id="Trazado_882129" data-name="Trazado 882129" d="M16.533,6.2H15.5a1.033,1.033,0,1,0,0,2.067h1.033a1.033,1.033,0,0,0,0-2.067Z" fill="#231f20"/>
          <path id="Trazado_882130" data-name="Trazado 882130" d="M59.933,7.233A1.033,1.033,0,0,0,58.9,6.2H22.733a1.033,1.033,0,1,0,0,2.067H58.9A1.033,1.033,0,0,0,59.933,7.233Z" fill="#231f20"/>
          <path id="Trazado_882131" data-name="Trazado 882131" d="M19.807,21.24a1.033,1.033,0,0,0,1.433.286l3.1-2.067a1.033,1.033,0,0,0,0-1.719l-3.1-2.067a1.033,1.033,0,0,0-1.147,1.719L21.907,18.6,20.1,19.807a1.033,1.033,0,0,0-.289,1.433Z" fill="#231f20"/>
          <path id="Trazado_882132" data-name="Trazado 882132" d="M6.66,19.46l3.1,2.067a1.033,1.033,0,0,0,1.147-1.719L9.093,18.6l1.81-1.207a1.033,1.033,0,1,0-1.147-1.719l-3.1,2.067a1.033,1.033,0,0,0,0,1.719Z" fill="#231f20"/>
          <path id="Trazado_882133" data-name="Trazado 882133" d="M12.917,22.6a1.021,1.021,0,0,0,.517.136,1.033,1.033,0,0,0,.9-.517l4.133-7.233a1.033,1.033,0,1,0-1.794-1.025l-4.133,7.233a1.033,1.033,0,0,0,.379,1.405Z" fill="#231f20"/>
          <path id="Trazado_882134" data-name="Trazado 882134" d="M7.233,26.867H9.3a1.033,1.033,0,1,0,0-2.067H7.233a1.033,1.033,0,1,0,0,2.067Z" fill="#231f20"/>
          <path id="Trazado_882135" data-name="Trazado 882135" d="M7.233,31H21.7a1.033,1.033,0,1,0,0-2.067H7.233a1.033,1.033,0,0,0,0,2.067Z" fill="#231f20"/>
          <path id="Trazado_882136" data-name="Trazado 882136" d="M13.433,26.867h15.5a1.033,1.033,0,1,0,0-2.067h-15.5a1.033,1.033,0,0,0,0,2.067Z" fill="#231f20"/>
          <path id="Trazado_882137" data-name="Trazado 882137" d="M7.233,43.4H9.3a1.033,1.033,0,1,0,0-2.067H7.233a1.033,1.033,0,1,0,0,2.067Z" fill="#231f20"/>
          <path id="Trazado_882138" data-name="Trazado 882138" d="M28.933,45.467H7.233a1.033,1.033,0,1,0,0,2.067h21.7a1.033,1.033,0,1,0,0-2.067Z" fill="#231f20"/>
          <path id="Trazado_882139" data-name="Trazado 882139" d="M21.7,41.333H13.433a1.033,1.033,0,1,0,0,2.067H21.7a1.033,1.033,0,1,0,0-2.067Z" fill="#231f20"/>
          <path id="Trazado_882140" data-name="Trazado 882140" d="M7.233,55.8H9.3a1.033,1.033,0,0,0,0-2.067H7.233a1.033,1.033,0,0,0,0,2.067Z" fill="#231f20"/>
          <path id="Trazado_882141" data-name="Trazado 882141" d="M28.933,53.733h-15.5a1.033,1.033,0,0,0,0,2.067h15.5a1.033,1.033,0,0,0,0-2.067Z" fill="#231f20"/>
          <path id="Trazado_882142" data-name="Trazado 882142" d="M7.233,39.267H15.5a1.033,1.033,0,0,0,0-2.067H7.233a1.033,1.033,0,0,0,0,2.067Z" fill="#231f20"/>
          <path id="Trazado_882143" data-name="Trazado 882143" d="M21.7,37.2H19.633a1.033,1.033,0,1,0,0,2.067H21.7a1.033,1.033,0,1,0,0-2.067Z" fill="#231f20"/>
          <path id="Trazado_882144" data-name="Trazado 882144" d="M7.233,51.667H15.5a1.033,1.033,0,0,0,0-2.067H7.233a1.033,1.033,0,1,0,0,2.067Z" fill="#231f20"/>
          <path id="Trazado_882145" data-name="Trazado 882145" d="M21.7,51.667a1.033,1.033,0,1,0,0-2.067H19.633a1.033,1.033,0,1,0,0,2.067Z" fill="#231f20"/>
          <path id="Trazado_882146" data-name="Trazado 882146" d="M15.5,57.867H7.233a1.033,1.033,0,1,0,0,2.067H15.5a1.033,1.033,0,0,0,0-2.067Z" fill="#231f20"/>
          <path id="Trazado_882147" data-name="Trazado 882147" d="M21.7,57.867H19.633a1.033,1.033,0,1,0,0,2.067H21.7a1.033,1.033,0,1,0,0-2.067Z" fill="#231f20"/>
          <path id="Trazado_882148" data-name="Trazado 882148" d="M7.233,35.133H9.3a1.033,1.033,0,1,0,0-2.067H7.233a1.033,1.033,0,1,0,0,2.067Z" fill="#231f20"/>
          <path id="Trazado_882149" data-name="Trazado 882149" d="M28.933,34.1A1.033,1.033,0,0,0,27.9,33.067H13.433a1.033,1.033,0,0,0,0,2.067H27.9A1.033,1.033,0,0,0,28.933,34.1Z" fill="#231f20"/>
          <path id="Trazado_882150" data-name="Trazado 882150" d="M37.2,23.767H56.833a1.033,1.033,0,0,0,1.033-1.033V17.567a1.033,1.033,0,0,0-1.033-1.033H37.2a1.033,1.033,0,0,0-1.033,1.033v5.167A1.033,1.033,0,0,0,37.2,23.767ZM38.233,18.6H55.8v3.1H38.233Z" fill="#231f20"/>
          <path id="Trazado_882151" data-name="Trazado 882151" d="M49.6,28.933v12.4a1.033,1.033,0,0,0,1.033,1.033H58.9a1.033,1.033,0,0,0,1.033-1.033v-12.4A1.033,1.033,0,0,0,58.9,27.9H50.633A1.033,1.033,0,0,0,49.6,28.933Zm2.067,1.033h6.2V40.3h-6.2Z" fill="#231f20"/>
        </g>
      </g>
    </g>
  </g>
</svg>
