<svg xmlns="http://www.w3.org/2000/svg" xmlns:xlink="http://www.w3.org/1999/xlink" width="399.764" height="223.85" viewBox="0 0 399.764 223.85">
  <defs>
    <clipPath id="clip-path">
      <rect id="Rectángulo_405695" data-name="Rectángulo 405695" width="109.997" height="77.72" fill="none"/>
    </clipPath>
    <clipPath id="clip-path-2">
      <rect id="Rectángulo_405725" data-name="Rectángulo 405725" width="43.08" height="27.483" fill="none"/>
    </clipPath>
    <clipPath id="clip-path-3">
      <rect id="Rectángulo_405729" data-name="Rectángulo 405729" width="7.787" height="7.787" fill="none"/>
    </clipPath>
    <clipPath id="clip-path-6">
      <rect id="Rectángulo_405745" data-name="Rectángulo 405745" width="51.43" height="32.808" fill="none"/>
    </clipPath>
    <clipPath id="clip-path-7">
      <rect id="Rectángulo_405749" data-name="Rectángulo 405749" width="9.297" height="9.297" fill="none"/>
    </clipPath>
  </defs>
  <g id="Grupo_1102816" data-name="Grupo 1102816" transform="translate(-1020.523 -3965.5)">
    <rect id="Rectángulo_405356" data-name="Rectángulo 405356" width="399.764" height="155.491" rx="9" transform="translate(1020.523 4033.858)" fill="#e6fbee"/>
    <g id="Grupo_1102728" data-name="Grupo 1102728" transform="translate(1077.034 3965.5)">
      <g id="Grupo_1102812" data-name="Grupo 1102812" transform="translate(-15.563 0.001)">
        <g id="Grupo_1102632" data-name="Grupo 1102632" transform="translate(32.192 7.931)">
          <g id="Grupo_1102815" data-name="Grupo 1102815">
            <path id="Trazado_881523" data-name="Trazado 881523" d="M400.049,145.541h-6.2a.634.634,0,0,1,0-1.268h6.2a.634.634,0,1,1,0,1.268" transform="translate(-183.81 -69.106)" fill="#c0d8ff"/>
            <path id="Trazado_881524" data-name="Trazado 881524" d="M399.865,139.526v6.2a.634.634,0,1,1-1.268,0v-6.2a.634.634,0,1,1,1.268,0" transform="translate(-186.092 -66.824)" fill="#c0d8ff"/>
            <path id="Trazado_881525" data-name="Trazado 881525" d="M461.6,342.359h-6.2a.634.634,0,1,1,0-1.268h6.2a.634.634,0,1,1,0,1.268" transform="translate(-209.907 -152.559)" fill="#c0d8ff"/>
            <path id="Trazado_881526" data-name="Trazado 881526" d="M461.412,336.345v6.2a.634.634,0,0,1-1.268,0v-6.2a.634.634,0,0,1,1.268,0" transform="translate(-212.188 -150.278)" fill="#c0d8ff"/>
            <path id="Trazado_881527" data-name="Trazado 881527" d="M204.849,20.419h-6.2a.634.634,0,0,1,0-1.268h6.2a.634.634,0,0,1,0,1.268" transform="translate(-101.043 -16.052)" fill="#c0d8ff"/>
            <path id="Trazado_881528" data-name="Trazado 881528" d="M204.665,14.405v6.2a.634.634,0,1,1-1.268,0v-6.2a.634.634,0,1,1,1.268,0" transform="translate(-103.324 -13.771)" fill="#c0d8ff"/>
            <path id="Trazado_881529" data-name="Trazado 881529" d="M36.487,310.381h-6.2a.634.634,0,0,1,0-1.268h6.2a.634.634,0,0,1,0,1.268" transform="translate(-29.655 -139)" fill="#c0d8ff"/>
            <path id="Trazado_881530" data-name="Trazado 881530" d="M36.3,304.367v6.2a.634.634,0,0,1-1.268,0v-6.2a.634.634,0,0,1,1.268,0" transform="translate(-31.937 -136.719)" fill="#c0d8ff"/>
            <path id="Trazado_881531" data-name="Trazado 881531" d="M255.535,263.04h-6.2a.634.634,0,0,1,0-1.268h6.2a.634.634,0,0,1,0,1.268" transform="translate(-122.534 -118.927)" fill="#c0d8ff"/>
            <path id="Trazado_881532" data-name="Trazado 881532" d="M255.351,257.026v6.2a.634.634,0,1,1-1.268,0v-6.2a.634.634,0,0,1,1.268,0" transform="translate(-124.816 -116.646)" fill="#c0d8ff"/>
            <path id="Trazado_881533" data-name="Trazado 881533" d="M436.315,171.023h-10.1a.634.634,0,0,1,0-1.268h10.1a.634.634,0,0,1,0,1.268" transform="translate(-197.534 -79.91)" fill="#c0d8ff"/>
            <path id="Trazado_881534" data-name="Trazado 881534" d="M451.292,175.748a.632.632,0,0,1-.634.634h-16.37a.634.634,0,1,1,0-1.267h16.37a.632.632,0,0,1,.634.634" transform="translate(-200.955 -82.183)" fill="#c0d8ff"/>
            <path id="Trazado_881535" data-name="Trazado 881535" d="M54.88,348.207a.632.632,0,0,1-.634.634H37.877a.634.634,0,1,1,0-1.267h16.37a.632.632,0,0,1,.634.634" transform="translate(-32.87 -155.308)" fill="#c0d8ff"/>
            <path id="Trazado_881536" data-name="Trazado 881536" d="M149.966,61.818h-10.1a.634.634,0,0,1,0-1.268h10.1a.634.634,0,0,1,0,1.268" transform="translate(-76.118 -33.606)" fill="#c0d8ff"/>
            <path id="Trazado_881537" data-name="Trazado 881537" d="M181.209,56.457a.637.637,0,0,1-.639.634H164.788a.634.634,0,1,1,0-1.267H180.57a.637.637,0,0,1,.639.634" transform="translate(-86.684 -31.602)" fill="#c0d8ff"/>
            <path id="Trazado_881538" data-name="Trazado 881538" d="M164.944,66.544a.632.632,0,0,1-.634.634h-16.37a.634.634,0,1,1,0-1.267h16.37a.632.632,0,0,1,.634.634" transform="translate(-79.539 -35.879)" fill="#c0d8ff"/>
            <path id="Trazado_881539" data-name="Trazado 881539" d="M300.135,23.466h-10.1a.634.634,0,1,1,0-1.268h10.1a.634.634,0,0,1,0,1.268" transform="translate(-139.791 -17.344)" fill="#c0d8ff"/>
            <path id="Trazado_881540" data-name="Trazado 881540" d="M68.148,354.881h-10.1a.634.634,0,0,1,0-1.268h10.1a.634.634,0,0,1,0,1.268" transform="translate(-41.426 -157.869)" fill="#c0d8ff"/>
            <path id="Trazado_881541" data-name="Trazado 881541" d="M280.21,17.243a.632.632,0,0,1-.634.634h-16.37a.634.634,0,1,1,0-1.267h16.37a.632.632,0,0,1,.634.634" transform="translate(-128.413 -14.974)" fill="#c0d8ff"/>
            <path id="Trazado_881542" data-name="Trazado 881542" d="M272.219,27.787a.632.632,0,0,1-.634.634H244.663a.634.634,0,1,1,0-1.267h26.922a.632.632,0,0,1,.634.634" transform="translate(-120.55 -19.445)" fill="#c0d8ff"/>
            <g id="Grupo_1102624" data-name="Grupo 1102624" transform="translate(29.343 48.335)" opacity="0.5" style="mix-blend-mode: multiply;isolation: isolate">
              <g id="Grupo_1102623" data-name="Grupo 1102623">
                <g id="Grupo_1102622" data-name="Grupo 1102622" clip-path="url(#clip-path)">
                  <rect id="Rectángulo_405694" data-name="Rectángulo 405694" width="109.997" height="77.72" transform="translate(0)" fill="#415487"/>
                </g>
              </g>
            </g>
            <rect id="Rectángulo_405696" data-name="Rectángulo 405696" width="109.997" height="77.72" transform="translate(20.615 39.783)" fill="#c0d8ff"/>
            <rect id="Rectángulo_405697" data-name="Rectángulo 405697" width="109.997" height="8.099" transform="translate(20.615 39.783)" fill="#13de61"/>
            <rect id="Rectángulo_405698" data-name="Rectángulo 405698" width="33.39" height="1.418" transform="translate(30.126 80.428)" fill="#415487"/>
            <rect id="Rectángulo_405699" data-name="Rectángulo 405699" width="30.253" height="1.418" transform="translate(30.126 83.152)" fill="#415487"/>
            <rect id="Rectángulo_405700" data-name="Rectángulo 405700" width="19.146" height="1.418" transform="translate(30.126 85.876)" fill="#415487"/>
            <rect id="Rectángulo_405701" data-name="Rectángulo 405701" width="31.293" height="1.418" transform="translate(30.126 88.6)" fill="#415487"/>
            <rect id="Rectángulo_405702" data-name="Rectángulo 405702" width="33.39" height="1.418" transform="translate(30.126 91.324)" fill="#415487"/>
            <rect id="Rectángulo_405703" data-name="Rectángulo 405703" width="41.287" height="1.418" transform="translate(74.352 55.667)" fill="#415487"/>
            <rect id="Rectángulo_405704" data-name="Rectángulo 405704" width="46.748" height="1.418" transform="translate(74.352 58.391)" fill="#415487"/>
            <rect id="Rectángulo_405705" data-name="Rectángulo 405705" width="45.336" height="1.418" transform="translate(74.351 61.115)" fill="#415487"/>
            <rect id="Rectángulo_405706" data-name="Rectángulo 405706" width="43.812" height="1.418" transform="translate(74.352 63.839)" fill="#415487"/>
            <rect id="Rectángulo_405707" data-name="Rectángulo 405707" width="46.748" height="1.418" transform="translate(74.352 66.564)" fill="#415487"/>
            <rect id="Rectángulo_405708" data-name="Rectángulo 405708" width="24.117" height="1.519" transform="translate(30.126 96.773)" fill="#415487"/>
            <rect id="Rectángulo_405709" data-name="Rectángulo 405709" width="33.39" height="1.418" transform="translate(30.126 99.497)" fill="#415487"/>
            <rect id="Rectángulo_405710" data-name="Rectángulo 405710" width="18.795" height="1.418" transform="translate(30.126 102.221)" fill="#415487"/>
            <rect id="Rectángulo_405711" data-name="Rectángulo 405711" width="33.39" height="1.418" transform="translate(30.126 104.946)" fill="#415487"/>
            <rect id="Rectángulo_405712" data-name="Rectángulo 405712" width="29.505" height="1.418" transform="translate(30.126 107.67)" fill="#415487"/>
            <rect id="Rectángulo_405713" data-name="Rectángulo 405713" width="46.748" height="1.519" transform="translate(74.352 72.255)" fill="#415487"/>
            <rect id="Rectángulo_405714" data-name="Rectángulo 405714" width="36.334" height="1.516" transform="translate(74.352 74.98)" fill="#415487"/>
            <rect id="Rectángulo_405715" data-name="Rectángulo 405715" width="41.621" height="1.418" transform="translate(74.351 77.703)" fill="#415487"/>
            <rect id="Rectángulo_405716" data-name="Rectángulo 405716" width="30.886" height="1.418" transform="translate(74.351 80.428)" fill="#415487"/>
            <rect id="Rectángulo_405717" data-name="Rectángulo 405717" width="41.309" height="1.418" transform="translate(74.351 83.152)" fill="#415487"/>
            <path id="Trazado_881543" data-name="Trazado 881543" d="M180.465,187.284h-21.7v-21.7h21.7Zm-20.828-.873h19.956V166.455H159.637Z" transform="translate(-84.399 -78.141)" fill="#415487"/>
            <rect id="Rectángulo_405718" data-name="Rectángulo 405718" width="0.873" height="29.456" transform="matrix(0.707, -0.707, 0.707, 0.707, 74.493, 88.186)" fill="#415487"/>
            <rect id="Rectángulo_405719" data-name="Rectángulo 405719" width="29.456" height="0.873" transform="translate(74.493 108.398) rotate(-45)" fill="#415487"/>
            <path id="Trazado_881544" data-name="Trazado 881544" d="M224.684,187.284h-21.7v-21.7h21.7Zm-20.828-.873h19.956V166.455H203.856Z" transform="translate(-103.149 -78.141)" fill="#415487"/>
            <rect id="Rectángulo_405720" data-name="Rectángulo 405720" width="0.873" height="29.456" transform="matrix(0.707, -0.707, 0.707, 0.707, 99.963, 88.186)" fill="#415487"/>
            <rect id="Rectángulo_405721" data-name="Rectángulo 405721" width="29.456" height="0.873" transform="translate(99.962 108.398) rotate(-45)" fill="#415487"/>
            <path id="Trazado_881545" data-name="Trazado 881545" d="M115.465,131.361H81.2v-21.7h34.263Zm-33.39-.873h32.518V110.532H82.075Z" transform="translate(-51.512 -54.429)" fill="#415487"/>
            <rect id="Rectángulo_405722" data-name="Rectángulo 405722" width="0.873" height="39.354" transform="matrix(0.529, -0.848, 0.848, 0.529, 29.895, 56.037)" fill="#415487"/>
            <rect id="Rectángulo_405723" data-name="Rectángulo 405723" width="39.354" height="0.873" transform="translate(29.894 76.123) rotate(-31.95)" fill="#415487"/>
            <g id="Grupo_1102627" data-name="Grupo 1102627" transform="translate(15.304 12.301)" opacity="0.5" style="mix-blend-mode: multiply;isolation: isolate">
              <g id="Grupo_1102626" data-name="Grupo 1102626">
                <g id="Grupo_1102625" data-name="Grupo 1102625" clip-path="url(#clip-path-2)">
                  <rect id="Rectángulo_405724" data-name="Rectángulo 405724" width="43.08" height="27.483" transform="translate(0)" fill="#415487"/>
                </g>
              </g>
            </g>
            <rect id="Rectángulo_405726" data-name="Rectángulo 405726" width="43.08" height="27.482" transform="translate(10.479 7.476)" fill="#c0d8ff"/>
            <rect id="Rectángulo_405727" data-name="Rectángulo 405727" width="43.08" height="5.199" transform="translate(10.479 7.476)" fill="#13de61"/>
            <g id="Grupo_1102630" data-name="Grupo 1102630" transform="translate(8.125 7.474)" opacity="0.5" style="mix-blend-mode: multiply;isolation: isolate">
              <g id="Grupo_1102629" data-name="Grupo 1102629">
                <g id="Grupo_1102628" data-name="Grupo 1102628" clip-path="url(#clip-path-3)">
                  <rect id="Rectángulo_405728" data-name="Rectángulo 405728" width="7.787" height="7.787" transform="translate(0)" fill="#415487"/>
                </g>
              </g>
            </g>
            <rect id="Rectángulo_405730" data-name="Rectángulo 405730" width="7.787" height="7.787" transform="translate(6.063 5.411)" fill="#c0d8ff"/>
            <rect id="Rectángulo_405731" data-name="Rectángulo 405731" width="6.292" height="0.621" transform="translate(7.512 11.311) rotate(-45)" fill="#415487"/>
            <rect id="Rectángulo_405732" data-name="Rectángulo 405732" width="0.621" height="6.292" transform="translate(7.512 7.3) rotate(-45)" fill="#415487"/>
          </g>
        </g>
        <text id="CSS" transform="translate(50.541 35.237)" fill="#415487" font-size="15" font-family="Roboto-Regular, Roboto"><tspan x="0" y="0">CSS</tspan></text>
        <g id="Grupo_1102640" data-name="Grupo 1102640" transform="translate(198.007)">
          <g id="Grupo_1102814" data-name="Grupo 1102814">
            <g id="Grupo_1102635" data-name="Grupo 1102635" transform="translate(9.241 6.887)" opacity="0.5" style="mix-blend-mode: multiply;isolation: isolate">
              <g id="Grupo_1102634" data-name="Grupo 1102634">
                <g id="Grupo_1102633" data-name="Grupo 1102633" clip-path="url(#clip-path-2)">
                  <rect id="Rectángulo_405734" data-name="Rectángulo 405734" width="43.08" height="27.483" transform="translate(0)" fill="#415487"/>
                </g>
              </g>
            </g>
            <rect id="Rectángulo_405736" data-name="Rectángulo 405736" width="43.08" height="27.483" transform="translate(4.416 2.061)" fill="#c0d8ff"/>
            <rect id="Rectángulo_405737" data-name="Rectángulo 405737" width="43.08" height="5.199" transform="translate(4.416 2.062)" fill="#13de61"/>
            <g id="Grupo_1102638" data-name="Grupo 1102638" transform="translate(2.063 2.062)" opacity="0.5" style="mix-blend-mode: multiply;isolation: isolate">
              <g id="Grupo_1102637" data-name="Grupo 1102637">
                <g id="Grupo_1102636" data-name="Grupo 1102636" clip-path="url(#clip-path-3)">
                  <rect id="Rectángulo_405738" data-name="Rectángulo 405738" width="7.787" height="7.787" transform="translate(0 0)" fill="#415487"/>
                </g>
              </g>
            </g>
            <rect id="Rectángulo_405740" data-name="Rectángulo 405740" width="7.787" height="7.787" fill="#c0d8ff"/>
            <rect id="Rectángulo_405741" data-name="Rectángulo 405741" width="6.292" height="0.621" transform="translate(1.449 5.899) rotate(-45.001)" fill="#415487"/>
            <rect id="Rectángulo_405742" data-name="Rectángulo 405742" width="0.621" height="6.292" transform="translate(1.45 1.888) rotate(-44.996)" fill="#415487"/>
          </g>
        </g>
        <text id="C_" data-name="C++" transform="translate(208.513 21.892)" fill="#415487" font-size="15" font-family="Roboto-Regular, Roboto"><tspan x="0" y="0">C++</tspan></text>
        <g id="Grupo_1102726" data-name="Grupo 1102726" transform="translate(0 33.084)">
          <g id="Grupo_1102813" data-name="Grupo 1102813">
            <g id="Grupo_1102643" data-name="Grupo 1102643" transform="translate(236.311 8.222)" opacity="0.5" style="mix-blend-mode: multiply;isolation: isolate">
              <g id="Grupo_1102642" data-name="Grupo 1102642">
                <g id="Grupo_1102641" data-name="Grupo 1102641" clip-path="url(#clip-path-6)">
                  <rect id="Rectángulo_405744" data-name="Rectángulo 405744" width="51.43" height="32.809" transform="translate(0 -0.001)" fill="#415487"/>
                </g>
              </g>
            </g>
            <rect id="Rectángulo_405746" data-name="Rectángulo 405746" width="51.43" height="32.809" transform="translate(230.551 2.461)" fill="#c0d8ff"/>
            <rect id="Rectángulo_405747" data-name="Rectángulo 405747" width="51.43" height="6.207" transform="translate(230.551 2.461)" fill="#13de61"/>
            <g id="Grupo_1102646" data-name="Grupo 1102646" transform="translate(227.741 2.462)" opacity="0.5" style="mix-blend-mode: multiply;isolation: isolate">
              <g id="Grupo_1102645" data-name="Grupo 1102645">
                <g id="Grupo_1102644" data-name="Grupo 1102644" clip-path="url(#clip-path-7)">
                  <rect id="Rectángulo_405748" data-name="Rectángulo 405748" width="9.297" height="9.297" transform="translate(0 0)" fill="#415487"/>
                </g>
              </g>
            </g>
            <rect id="Rectángulo_405750" data-name="Rectángulo 405750" width="9.297" height="9.297" transform="translate(225.279)" fill="#c0d8ff"/>
            <rect id="Rectángulo_405751" data-name="Rectángulo 405751" width="7.512" height="0.741" transform="matrix(0.707, -0.707, 0.707, 0.707, 227.009, 7.042)" fill="#415487"/>
            <rect id="Rectángulo_405752" data-name="Rectángulo 405752" width="0.741" height="7.512" transform="translate(227.009 2.255) rotate(-45)" fill="#415487"/>
            <path id="Trazado_881546" data-name="Trazado 881546" d="M399.255,97.25l-7.537-6.377a.835.835,0,0,1,0-1.276l7.537-6.377a.741.741,0,1,1,.957,1.131l-6.2,5.246a.836.836,0,0,0,0,1.276l6.2,5.246a.741.741,0,1,1-.957,1.131" transform="translate(-150.858 -68.297)" fill="#415487"/>
            <path id="Trazado_881547" data-name="Trazado 881547" d="M430.4,97.163h0a.741.741,0,0,1,.088-1.044l6.2-5.246a.836.836,0,0,0,0-1.276l-6.2-5.246a.741.741,0,0,1-.088-1.044h0a.741.741,0,0,1,1.044-.087l7.537,6.377a.835.835,0,0,1,0,1.276l-7.537,6.377a.741.741,0,0,1-1.044-.088" transform="translate(-167.311 -68.297)" fill="#415487"/>
            <path id="Trazado_881548" data-name="Trazado 881548" d="M410.5,97.909h0a.741.741,0,0,1-.413-.964L417.978,77.2a.742.742,0,0,1,1.377.551l-7.9,19.744a.741.741,0,0,1-.963.413" transform="translate(-158.748 -65.622)" fill="#415487"/>
            <path id="Trazado_881549" data-name="Trazado 881549" d="M323.616,187.578c6.837-8.816,57.444-6.04,68.781,5.662S374.788,253.6,375.208,295.616c.069,6.892-58.7,5.72-64.26-.706-8.754-10.117-10.045-78.046,12.667-107.332" transform="translate(-114.249 -110.422)" fill="#415487"/>
            <path id="Trazado_881550" data-name="Trazado 881550" d="M170.684,351.144c.192,5.878-37.557,7.692-40.181,3.2s3.823-10.66,8.994-12.669c8.565-3.329,30.926,1.469,31.187,9.466" transform="translate(-39.967 -177.507)" fill="#415487"/>
            <path id="Trazado_881551" data-name="Trazado 881551" d="M160.349,333.668c-2.21-.584-8.041-1.377-9.355-1.164-2.458.4-7.218,3.664-6.314,5.1s5.343-.956,6.787-.871,8.29,1.249,8.29,1.249Z" transform="translate(-46.188 -174.056)" fill="#c0d8ff"/>
            <path id="Trazado_881552" data-name="Trazado 881552" d="M229.635,292.553c2.992-.729,11.367-21.9,17.459-29.518s17.857-4.572,18.149,4.379c.507,15.56-17.409,40.241-20.922,42.423-5.053,3.139-44.215,8.656-47.818,8.085s-10.375-9.587-6.339-12.613,34.895-11.641,39.47-12.755" transform="translate(-64.995 -142.78)" fill="#f3cdbd"/>
            <path id="Trazado_881553" data-name="Trazado 881553" d="M178.921,335.152c-3.144.925-14.57-2.637-17.481-1.969s-9.957,3.973-10.185,5.768,8.988-.794,10.493-.7,10.152,4.176,10.588,6.594-6.764,5.371-7.9,7.7,2.08,2.364,4.132,1.654,7.112-3.451,8.47-3.5,6.47-1.064,6.47-1.064Z" transform="translate(-49.022 -174.323)" fill="#f3cdbd"/>
            <path id="Trazado_881557" data-name="Trazado 881557" d="M296.142,221.91c-7.479,3.045-14,12.425-17.56,19.225s-7.438,16.846-6.972,17.91,10.474,10.145,27.18,10.219c2.912.013,9.507-22.22,10.242-29.769s.066-22.859-12.891-17.585" transform="translate(-100.039 -126.718)" fill="#9fc3f4"/>
            <path id="Trazado_881559" data-name="Trazado 881559" d="M266.921,285.617c7.441,8.779,20.469,12.055,31.458,11.519,2.4-.117,2.288-3.859-.122-3.741-10.11.493-21.931-2.431-28.777-10.509-1.557-1.837-4.1.912-2.559,2.731" transform="translate(-97.865 -152.775)" fill="#1169e3"/>
            <path id="Trazado_881560" data-name="Trazado 881560" d="M322.884,209.785c-5.76,0-22.587,7.139-27.667,19.358s-11.69,75.025-12.224,76.629,26.114,7.029,43.242,7.029,35.663-3.975,37.089-5.936-8.053-60.7-8.377-65.438-4.6-31.643-32.064-31.643" transform="translate(-104.879 -122.036)" fill="#9fc3f4"/>
            <path id="Trazado_881561" data-name="Trazado 881561" d="M333.47,208.751c-.262-.964-1.968-1.511-3.188,0s-8.21,13.884-2.766,17.1,15.474-1.207,21.281-9.02c4.561-6.136,4.732-8.254,4.856-9.615s-2.8-1.868-3.686-.165c-.673,1.3-16.5,1.7-16.5,1.7" transform="translate(-122.892 -120.42)" fill="#1169e3"/>
            <path id="Trazado_881562" data-name="Trazado 881562" d="M293.749,265.543a176.22,176.22,0,0,0-4.074,20.174c-1.026,6.384-2.218,12.995-2.309,19.469-.006.427.685.545.765.1,1.174-6.552,1.647-13.245,2.719-19.824,1.075-6.6,2.6-13.1,3.776-19.681a.455.455,0,0,0-.877-.242" transform="translate(-106.736 -145.541)" fill="#415487"/>
            <path id="Trazado_881563" data-name="Trazado 881563" d="M299.811,260.562a.426.426,0,0,0-.476.481.56.56,0,1,0,.476-.481" transform="translate(-111.809 -143.564)" fill="#415487"/>
            <path id="Trazado_881564" data-name="Trazado 881564" d="M299.732,292.952c3.6-.754,13.751-32.033,21.33-40.9s21.523-4.768,21.523,5.942c0,18.619-21.688,53.715-25.972,56.187-6.162,3.555-53.88,2.33-58.164,1.507s-12.028-11.864-7.085-15.324,42.856-6.262,48.368-7.415" transform="translate(-90.795 -137.907)" fill="#f3cdbd"/>
            <path id="Trazado_881565" data-name="Trazado 881565" d="M232.95,336.907c-8.112.551-14.7.725-19.237,2.126s-16.66,8.188-17.131,9.79,3.581.377,3.581.377-3.77,2.926-3.016,4.385,9.331-2.406,9.331-2.406-5.09,3.864-3.959,5.467,6.692-1.225,6.692-1.225-2.019,1.7-.868,2.828,10.953-4.52,14.629-4.663,6.824,1.652,12.414,0Z" transform="translate(-68.227 -175.938)" fill="#f3cdbd"/>
            <path id="Trazado_881566" data-name="Trazado 881566" d="M363.97,213.116c4.541,1.27,21.379,8.5,25.353,18.528s-3.79,36.458-4.925,37.179-20.468.22-33.157-10.114c-2.7-2.2,12.729-45.593,12.729-45.593" transform="translate(-133.685 -123.449)" fill="#9fc3f4"/>
            <path id="Trazado_881567" data-name="Trazado 881567" d="M352.7,268.688a75.88,75.88,0,0,0-2.652,13.193c-.043.436.685.536.769.1.842-4.378,1.6-8.752,2.59-13.1a.367.367,0,0,0-.707-.2" transform="translate(-133.315 -146.902)" fill="#415487"/>
            <path id="Trazado_881568" data-name="Trazado 881568" d="M356.031,265.444a.539.539,0,0,0-.834.108l-.056.09a.51.51,0,0,0,.692.692l.09-.056a.538.538,0,0,0,.108-.834" transform="translate(-135.443 -145.572)" fill="#415487"/>
            <path id="Trazado_881569" data-name="Trazado 881569" d="M346.463,289.9c8.681,9.64,23.448,12.981,35.831,11.979,2.385-.193,2.405-3.937,0-3.743-11.462.927-25.12-1.927-33.184-10.883-1.615-1.794-4.255.86-2.647,2.647" transform="translate(-131.582 -154.63)" fill="#1169e3"/>
            <path id="Trazado_881570" data-name="Trazado 881570" d="M340.162,155.026c-.023.507-.029.956-.012,1.342,0,.046.006.092.006.132.277,4.608.553,13.916,0,15.3-3.871,9.688-15.367,16.617-19.146,14.774s2-9.89,2.65-12.286a7.936,7.936,0,0,0,.19-1.123,52.471,52.471,0,0,0-.19-7.908s-8.571,4.884-15.949,0c-4.4-2.914-5.449-14.267-4.74-24.14.046-.593.092-1.181.15-1.757.167-1.774.392-3.479.668-5.057.634-3.692,1.521-6.67,2.54-8.127,7.931-11.335,31.241-3.646,34.1,3.686,1.486,3.807,1.336,9.371.847,14.538-.38,4.17-.985,8.087-1.117,10.627" transform="translate(-113.267 -84.146)" fill="#f3cdbd"/>
            <path id="Trazado_881571" data-name="Trazado 881571" d="M332.146,142.958c-1.178,2.832-3.793.2-4.436-7.511-.064-.767-7.293,1.2-9.4-7.5,0,0-6.971,5.436-11.511-2.878,0,0-3.889,4.856-8.684,3.9-6.2-1.23-7.514-13.166-1.17-18.508,6.7-5.639,13.248.7,13.248.7a16.942,16.942,0,0,1,12.876-1.556c7.221,2.241,8.809,9.623,8.809,9.623a15.907,15.907,0,0,1,9.646,5.963c3.9,5.18-3.773,24.556-5.5,24.62s-3.874-6.861-3.874-6.861" transform="translate(-109.031 -78.933)" fill="#2d3244"/>
            <path id="Trazado_881572" data-name="Trazado 881572" d="M307.237,164.805a1.075,1.075,0,1,1-1.116-1.286,1.225,1.225,0,0,1,1.116,1.286" transform="translate(-114.281 -102.418)" fill="#2d3244"/>
            <path id="Trazado_881573" data-name="Trazado 881573" d="M329.527,165.849a1.075,1.075,0,1,1-1.116-1.286,1.225,1.225,0,0,1,1.116,1.286" transform="translate(-123.732 -102.861)" fill="#2d3244"/>
            <path id="Trazado_881574" data-name="Trazado 881574" d="M307.34,153.629c.041.713-1.111,1.36-2.574,1.446s-2.683-.424-2.725-1.137,1.111-1.36,2.574-1.446,2.683.424,2.724,1.137" transform="translate(-112.958 -97.739)" fill="#2d3244"/>
            <path id="Trazado_881575" data-name="Trazado 881575" d="M331.047,155.711c-.177.692-1.471.96-2.891.6s-2.428-1.218-2.251-1.91,1.471-.96,2.891-.6,2.428,1.218,2.252,1.91" transform="translate(-123.069 -98.23)" fill="#2d3244"/>
            <path id="Trazado_881576" data-name="Trazado 881576" d="M314.783,165.78c-.387.211-1.383.755-1.806.287-.525-.579.684-8.42.911-10.323a.16.16,0,0,0-.312-.067c-.847,3.015-2.332,11.117-.854,11.31a3.294,3.294,0,0,0,2.348-.776.259.259,0,0,0-.287-.431" transform="translate(-117.222 -99.043)" fill="#ffa480"/>
            <path id="Trazado_881577" data-name="Trazado 881577" d="M324.9,180.349a4.494,4.494,0,0,1-3.527,1.406c-1.208.024-2.821-.318-3.376-1.525a1.545,1.545,0,0,1-.111-.325c-.008-.032-.016-.071-.024-.111a1.435,1.435,0,0,1,1.033-1.772,12.847,12.847,0,0,1,2.208.063,2.887,2.887,0,0,0,1.549-.643,1.724,1.724,0,0,1,2.709.882.974.974,0,0,1,.04.143,2.217,2.217,0,0,1-.5,1.883" transform="translate(-119.653 -108.17)" fill="#ffa480"/>
            <path id="Trazado_881578" data-name="Trazado 881578" d="M321.445,181.93a9.122,9.122,0,0,1-3.535-.032c-.008-.032-.016-.071-.024-.111a14.332,14.332,0,0,0,3.551.1c.032,0,.04.048.008.048" transform="translate(-119.677 -110.165)" fill="#ffa480"/>
            <path id="Trazado_881579" data-name="Trazado 881579" d="M329.512,179.379a5.243,5.243,0,0,1-1.954,1.025c-.032.008-.048-.04-.016-.055a6.5,6.5,0,0,0,1.93-1.112.949.949,0,0,1,.04.143" transform="translate(-123.764 -109.083)" fill="#ffa480"/>
            <path id="Trazado_881580" data-name="Trazado 881580" d="M360.655,166.385c.7-1.559,2.26-4.565,5.965-4.353,3.762.215,5.535,4.138,4.783,7.469s-4.783,6.61-9.888,3.117Z" transform="translate(-137.812 -101.784)" fill="#f3cdbd"/>
            <path id="Trazado_881581" data-name="Trazado 881581" d="M370.608,170.676a3.757,3.757,0,0,0-4.12.913,8.249,8.249,0,0,1,2.65-3.931c.131-.107-.041-.3-.178-.224a5.877,5.877,0,0,0-3.171,5.489.154.154,0,0,0,.059.106.1.1,0,0,0,.156.026.133.133,0,0,0,.09-.1c0-.006,0-.012,0-.018a4.58,4.58,0,0,1,4.417-2.03.127.127,0,0,0,.092-.232" transform="translate(-139.979 -104.072)" fill="#ffa480"/>
            <path id="Trazado_881582" data-name="Trazado 881582" d="M242.354,369.448H174.86v-4.776l67.494,1.943Z" transform="translate(-59.032 -187.711)" fill="#415487"/>
            <path id="Trazado_881583" data-name="Trazado 881583" d="M150.6,270.9H64.5a8.53,8.53,0,0,1-8.415-7.134L45.963,202.821a8.531,8.531,0,0,1,8.416-9.928h86.1a8.531,8.531,0,0,1,8.416,7.134l10.121,60.947A8.531,8.531,0,0,1,150.6,270.9" transform="translate(-4.328 -114.874)" fill="#2d3244"/>
            <path id="Trazado_881584" data-name="Trazado 881584" d="M140.887,270.9H54.79a8.53,8.53,0,0,1-8.415-7.134L36.254,202.821a8.531,8.531,0,0,1,8.416-9.928h86.1a8.531,8.531,0,0,1,8.416,7.134L149.3,260.973a8.531,8.531,0,0,1-8.416,9.928" transform="translate(-0.212 -114.874)" fill="#415487"/>
            <rect id="Rectángulo_405783" data-name="Rectángulo 405783" width="71.081" height="3.03" transform="translate(57.32 178.708)" fill="#415487"/>
            <path id="Trazado_881585" data-name="Trazado 881585" d="M132.237,331.128H97.578l6.477-49.686h34.659Z" transform="translate(-26.264 -152.42)" fill="#2d3244"/>
            <path id="Trazado_881586" data-name="Trazado 881586" d="M124.206,331.128H89.547l6.477-49.686h34.659Z" transform="translate(-22.858 -152.42)" fill="#5373b3"/>
            <path id="Trazado_881587" data-name="Trazado 881587" d="M98.691,255.413h0a1.581,1.581,0,0,1-1.559-1.319l-2.205-13.133a1.581,1.581,0,0,1,3.118-.524l2.205,13.132a1.581,1.581,0,0,1-1.559,1.843" transform="translate(-25.13 -134.474)" fill="#5373b3"/>
            <path id="Trazado_881588" data-name="Trazado 881588" d="M108.011,255.413h0a1.581,1.581,0,0,1-1.559-1.319l-2.205-13.133a1.581,1.581,0,0,1,3.118-.524l2.205,13.132a1.581,1.581,0,0,1-1.559,1.843" transform="translate(-29.082 -134.474)" fill="#5373b3"/>
            <path id="Trazado_881589" data-name="Trazado 881589" d="M117.331,255.413h0a1.581,1.581,0,0,1-1.559-1.319l-2.205-13.133a1.581,1.581,0,0,1,3.118-.524l2.205,13.132a1.581,1.581,0,0,1-1.559,1.843" transform="translate(-33.034 -134.474)" fill="#5373b3"/>
            <path id="Trazado_881590" data-name="Trazado 881590" d="M126.652,255.413h0a1.581,1.581,0,0,1-1.559-1.319l-2.205-13.133a1.581,1.581,0,0,1,3.118-.524l2.205,13.132a1.581,1.581,0,0,1-1.559,1.843" transform="translate(-36.986 -134.474)" fill="#5373b3"/>
            <path id="Trazado_881591" data-name="Trazado 881591" d="M135.972,255.413h0a1.581,1.581,0,0,1-1.559-1.319l-2.205-13.133a1.581,1.581,0,0,1,3.118-.524l2.205,13.132a1.581,1.581,0,0,1-1.559,1.843" transform="translate(-40.938 -134.474)" fill="#5373b3"/>
            <path id="Trazado_881592" data-name="Trazado 881592" d="M145.292,255.413h0a1.581,1.581,0,0,1-1.559-1.319l-2.205-13.133a1.581,1.581,0,0,1,3.118-.524l2.205,13.132a1.581,1.581,0,0,1-1.559,1.843" transform="translate(-44.89 -134.474)" fill="#5373b3"/>
            <path id="Trazado_881593" data-name="Trazado 881593" d="M154.612,255.413h0a1.581,1.581,0,0,1-1.559-1.319l-2.205-13.133a1.581,1.581,0,0,1,3.118-.524l2.205,13.132a1.581,1.581,0,0,1-1.559,1.843" transform="translate(-48.841 -134.474)" fill="#5373b3"/>
            <path id="Trazado_881594" data-name="Trazado 881594" d="M163.932,255.413h0a1.581,1.581,0,0,1-1.559-1.319l-2.205-13.133a1.581,1.581,0,0,1,3.118-.524l2.205,13.132a1.581,1.581,0,0,1-1.559,1.843" transform="translate(-52.793 -134.474)" fill="#5373b3"/>
            <rect id="Rectángulo_405787" data-name="Rectángulo 405787" width="322.223" height="9.028" transform="translate(0 181.737)" fill="#a0f2c0"/>
            <rect id="Rectángulo_405788" data-name="Rectángulo 405788" width="70.672" height="14.002" transform="translate(198.361 153.664)" fill="#c0d8ff"/>
            <rect id="Rectángulo_405792" data-name="Rectángulo 405792" width="57.563" height="14.002" transform="translate(198.361 153.664)" fill="#415487"/>
            <rect id="Rectángulo_405796" data-name="Rectángulo 405796" width="34.888" height="4.743" transform="translate(213.291 158.294)" fill="#c0d8ff"/>
            <path id="Trazado_881595" data-name="Trazado 881595" d="M326.218,334.333a2.779,2.779,0,1,1,2.78,2.78,2.78,2.78,0,0,1-2.78-2.78" transform="translate(-123.21 -173.668)" fill="#c0d8ff"/>
            <rect id="Rectángulo_405797" data-name="Rectángulo 405797" width="70.672" height="14.002" transform="translate(205.788 167.665)" fill="#5373b3"/>
            <rect id="Rectángulo_405801" data-name="Rectángulo 405801" width="57.563" height="14.002" transform="translate(218.896 167.665)" fill="#2d3244"/>
            <rect id="Rectángulo_405805" data-name="Rectángulo 405805" width="34.888" height="4.743" transform="translate(226.641 172.295)" fill="#c0d8ff"/>
            <path id="Trazado_881596" data-name="Trazado 881596" d="M441.58,358.642a2.779,2.779,0,1,1-2.78-2.78,2.78,2.78,0,0,1,2.78,2.78" transform="translate(-169.768 -183.975)" fill="#c0d8ff"/>
          </g>
        </g>
      </g>
    </g>
  </g>
</svg>
