<svg xmlns="http://www.w3.org/2000/svg" xmlns:xlink="http://www.w3.org/1999/xlink" width="85" height="85" viewBox="0 0 85 85">
  <defs>
    <clipPath id="clip-path">
      <path id="path3529" d="M0-682.665H65.38v65.38H0Z" transform="translate(0 682.665)"/>
    </clipPath>
  </defs>
  <g id="Grupo_1102130" data-name="Grupo 1102130" transform="translate(-180.051 -385)">
    <circle id="Elipse_11504" data-name="Elipse 11504" cx="42.5" cy="42.5" r="42.5" transform="translate(180.051 385)" fill="#13de61"/>
    <g id="g3519" transform="translate(190.337 1081.475)">
      <g id="g3521" transform="translate(23.517 -634.219)">
        <path id="path3523" d="M-162.714,0h-16.122l-1.112,7.462H-161.6Z" transform="translate(179.948)" fill="#495560"/>
      </g>
      <g id="g3525" transform="translate(0 -682.665)">
        <g id="g3527" transform="translate(0 0)" clip-path="url(#clip-path)">
          <g id="g3533" transform="translate(18.93 55.908)">
            <path id="path3535" d="M-244.832-47.583h-24.343a1.588,1.588,0,0,1-1.523-2.036l.221-.752a3.137,3.137,0,0,1,3.01-2.252h20.926a3.137,3.137,0,0,1,3.01,2.252l.221.752a1.588,1.588,0,0,1-1.523,2.036" transform="translate(270.763 52.623)" fill="#c7c7c7"/>
          </g>
          <g id="g3537" transform="translate(18.93 55.908)">
            <path id="path3539" d="M-109.677,0H-118a3.138,3.138,0,0,0-3.01,2.252l-.221.752A1.588,1.588,0,0,0-119.7,5.04h11.274A5.8,5.8,0,0,1-109.677,0" transform="translate(121.293)" fill="#98a5b3"/>
          </g>
          <g id="g3541" transform="translate(0.958 4.432)">
            <path id="path3543" d="M-527.733-415.553h-48.325a7.57,7.57,0,0,1-7.57-7.57V-452a7.57,7.57,0,0,1,7.57-7.57h48.325a7.57,7.57,0,0,1,7.57,7.57v28.874a7.57,7.57,0,0,1-7.57,7.57" transform="translate(583.628 459.567)" fill="#495560"/>
          </g>
          <g id="g3545" transform="translate(0.958 4.432)">
            <path id="path3547" d="M-193.524,0h-12.927a7.57,7.57,0,0,0-7.57,7.57V36.444a7.569,7.569,0,0,0,7.57,7.569h18.644C-195,36.484-198.169,15.347-193.524,0" transform="translate(214.021)" fill="#333941"/>
          </g>
          <g id="g3549" transform="translate(6.135 9.61)">
            <path id="path3551" d="M0-286.191v-26.965A3.347,3.347,0,0,1,3.347-316.5H49.763a3.347,3.347,0,0,1,3.347,3.347v26.965a3.347,3.347,0,0,1-3.347,3.347H3.347A3.347,3.347,0,0,1,0-286.191" transform="translate(0 316.503)" fill="#faef81"/>
          </g>
          <g id="g3553" transform="translate(6.135 9.61)">
            <path id="path3555" d="M-166.293-317.79c-4.035-8.388-5.673-21.962-3.534-33.659h-10.732a3.347,3.347,0,0,0-3.347,3.347v26.965a3.347,3.347,0,0,0,3.347,3.347Z" transform="translate(183.906 351.448)" fill="#fad271"/>
          </g>
          <g id="g3557" transform="translate(32.69 9.61)">
            <path id="path3559" d="M-219.121,0h-23.208V33.659h23.208a3.347,3.347,0,0,0,3.347-3.347V3.347A3.347,3.347,0,0,0-219.121,0" transform="translate(242.329)" fill="#333941"/>
          </g>
          <g id="g3561" transform="translate(0.958 38.758)">
            <path id="path3563" d="M0,0V2.118a7.569,7.569,0,0,0,7.57,7.57H55.9a7.569,7.569,0,0,0,7.569-7.57V0Z" fill="#c7c7c7"/>
          </g>
          <g id="g3565" transform="translate(0.958 38.758)">
            <path id="path3567" d="M0,0V2.118a7.569,7.569,0,0,0,7.57,7.57H26.213A25.609,25.609,0,0,1,21,0Z" fill="#98a5b3"/>
          </g>
          <g id="g3569" transform="translate(29.922 40.834)">
            <path id="path3571" d="M-52.259-26.13a2.767,2.767,0,0,1-2.768,2.768,2.767,2.767,0,0,1-2.768-2.768A2.767,2.767,0,0,1-55.027-28.9a2.767,2.767,0,0,1,2.768,2.768" transform="translate(57.795 28.897)" fill="#fff"/>
          </g>
          <g id="g3573" transform="translate(48.706 26.741)">
            <path id="path3575" d="M-5.236-8.085H-9.042A.958.958,0,0,1-10-9.042.958.958,0,0,1-9.042-10h3.807a.958.958,0,0,1,.958.958A.958.958,0,0,1-5.236-8.085Z" transform="translate(10 10)" fill="#fff"/>
          </g>
          <g id="g3577" transform="translate(37.506 26.741)">
            <path id="path3579" d="M-1.277-8.085H-9.042A.958.958,0,0,1-10-9.042.958.958,0,0,1-9.042-10h7.765a.958.958,0,0,1,.958.958A.958.958,0,0,1-1.277-8.085Z" transform="translate(10 10)" fill="#84dfff"/>
          </g>
          <g id="g3581" transform="translate(44.406 30.224)">
            <path id="path3583" d="M-4.306-8.085H-9.042A.958.958,0,0,1-10-9.042.958.958,0,0,1-9.042-10h4.736a.958.958,0,0,1,.958.958A.958.958,0,0,1-4.306-8.085Z" transform="translate(10 10)" fill="#84dfff"/>
          </g>
          <g id="g3585" transform="translate(37.506 30.224)">
            <path id="path3587" d="M-5.578-8.085H-9.042A.958.958,0,0,1-10-9.042.958.958,0,0,1-9.042-10h3.464a.958.958,0,0,1,.958.958A.958.958,0,0,1-5.578-8.085Z" transform="translate(10 10)" fill="#fff"/>
          </g>
          <g id="g3589" transform="translate(44.165 23.258)">
            <path id="path3591" d="M-2.015-8.085H-9.042A.958.958,0,0,1-10-9.042.958.958,0,0,1-9.042-10h7.027a.958.958,0,0,1,.958.958A.958.958,0,0,1-2.015-8.085Z" transform="translate(10 10)" fill="#55d57b"/>
          </g>
          <g id="g3593" transform="translate(37.506 23.258)">
            <path id="path3595" d="M-5.819-8.085H-9.042A.958.958,0,0,1-10-9.042.958.958,0,0,1-9.042-10h3.223a.958.958,0,0,1,.958.958A.958.958,0,0,1-5.819-8.085Z" transform="translate(10 10)" fill="#ff8aa0"/>
          </g>
          <g id="g3597" transform="translate(48.493 19.775)">
            <path id="path3599" d="M-5.022-8.085h-4.02A.958.958,0,0,1-10-9.042.958.958,0,0,1-9.042-10h4.02a.958.958,0,0,1,.958.958A.958.958,0,0,1-5.022-8.085Z" transform="translate(10 10)" fill="#ff8aa0"/>
          </g>
          <g id="g3601" transform="translate(37.506 19.775)">
            <path id="path3603" d="M-1.491-8.085H-9.042A.958.958,0,0,1-10-9.042.958.958,0,0,1-9.042-10h7.552a.958.958,0,0,1,.958.958A.958.958,0,0,1-1.491-8.085Z" transform="translate(10 10)" fill="#fff"/>
          </g>
          <g id="g3605" transform="translate(44.406 16.292)">
            <path id="path3607" d="M-4.762-8.085h-4.28A.958.958,0,0,1-10-9.042.958.958,0,0,1-9.042-10h4.28a.958.958,0,0,1,.958.958A.958.958,0,0,1-4.762-8.085Z" transform="translate(10 10)" fill="#55d57b"/>
          </g>
          <g id="g3609" transform="translate(37.506 16.292)">
            <path id="path3611" d="M-5.578-8.085H-9.042A.958.958,0,0,1-10-9.042.958.958,0,0,1-9.042-10h3.464a.958.958,0,0,1,.958.958A.958.958,0,0,1-5.578-8.085Z" transform="translate(10 10)" fill="#84dfff"/>
          </g>
          <g id="g3613" transform="translate(5.177 8.652)">
            <path id="path3615" d="M44.068-283.29a.958.958,0,0,1-.958-.958v-25.8a2.392,2.392,0,0,0-2.389-2.389H-5.7a2.392,2.392,0,0,0-2.389,2.389v25.8a.958.958,0,0,1-.958.958.958.958,0,0,1-.958-.958v-25.8a4.309,4.309,0,0,1,4.3-4.3H40.721a4.309,4.309,0,0,1,4.3,4.3v25.8A.958.958,0,0,1,44.068-283.29Z" transform="translate(10 314.354)"/>
          </g>
          <g id="g3617" transform="translate(0 3.475)">
            <path id="path3619" d="M-448.53,35.283a.954.954,0,0,1-.388-.082,8.538,8.538,0,0,1-5.074-7.8V-1.473A8.537,8.537,0,0,1-445.464-10h34.952a.958.958,0,0,1,.958.958.958.958,0,0,1-.958.958h-34.952a6.619,6.619,0,0,0-6.612,6.612V27.4a6.621,6.621,0,0,0,3.935,6.048.958.958,0,0,1,.487,1.264A.958.958,0,0,1-448.53,35.283Z" transform="translate(453.991 10)"/>
          </g>
          <g id="g3621" transform="translate(8.972 3.474)">
            <path id="path3623" d="M37.881-423.638H-9.042A.958.958,0,0,1-10-424.6a.958.958,0,0,1,.958-.958H37.881a6.619,6.619,0,0,0,6.612-6.612V-461.04a6.619,6.619,0,0,0-6.612-6.612H29.326a.958.958,0,0,1-.958-.958.958.958,0,0,1,.958-.958h8.555a8.537,8.537,0,0,1,8.527,8.527v28.874A8.537,8.537,0,0,1,37.881-423.638Z" transform="translate(10 469.567)"/>
          </g>
          <g id="g3625" transform="translate(0 37.8)">
            <path id="path3627" d="M54.422-8.085H-9.042A.958.958,0,0,1-10-9.042.958.958,0,0,1-9.042-10H54.422a.958.958,0,0,1,.958.958A.958.958,0,0,1,54.422-8.085Z" transform="translate(10 10)"/>
          </g>
          <g id="g3629" transform="translate(22.559 47.488)">
            <path id="path3631" d="M-9.042-78.541a.964.964,0,0,1-.142-.011.958.958,0,0,1-.806-1.088L-8.879-87.1a.958.958,0,0,1,1.088-.806.958.958,0,0,1,.806,1.088L-8.1-79.357A.958.958,0,0,1-9.042-78.541Z" transform="translate(10.001 87.918)"/>
          </g>
          <g id="g3633" transform="translate(39.793 47.488)">
            <path id="path3635" d="M-7.933-.623a.958.958,0,0,1-.946-.817L-9.991-8.9a.958.958,0,0,1,.806-1.088A.958.958,0,0,1-8.1-9.185l1.112,7.462A.958.958,0,0,1-7.79-.634.966.966,0,0,1-7.933-.623Z" transform="translate(10.001 10.001)"/>
          </g>
          <g id="g3637" transform="translate(17.971 54.95)">
            <path id="path3639" d="M.292-55.667H-24.051a2.524,2.524,0,0,1-2.038-1.021,2.524,2.524,0,0,1-.4-2.244l.221-.752a4.118,4.118,0,0,1,3.929-2.939H-1.417a4.118,4.118,0,0,1,3.929,2.939l.221.752a2.524,2.524,0,0,1-.4,2.244A2.524,2.524,0,0,1,.292-55.667Zm-22.634-5.04a2.192,2.192,0,0,0-2.091,1.564l-.221.752a.625.625,0,0,0,.1.555.618.618,0,0,0,.5.253H.292a.618.618,0,0,0,.5-.253.625.625,0,0,0,.1-.555l-.221-.752a2.192,2.192,0,0,0-2.091-1.564Z" transform="translate(26.598 62.623)"/>
          </g>
          <g id="g3641" transform="translate(10.303 19.234)">
            <path id="path3643" d="M-46.3-.192a.955.955,0,0,1-.677-.281l-3.946-3.946a.958.958,0,0,1,0-1.354l3.946-3.946a.958.958,0,0,1,1.354,0,.958.958,0,0,1,0,1.354L-48.89-5.1l3.269,3.269a.958.958,0,0,1,0,1.354A.955.955,0,0,1-46.3-.192Z" transform="translate(51.203 10)"/>
          </g>
          <g id="g3645" transform="translate(22.661 19.234)">
            <path id="path3647" d="M-9.042-.192a.955.955,0,0,1-.677-.28.958.958,0,0,1,0-1.354L-6.451-5.1-9.719-8.365a.958.958,0,0,1,0-1.354.958.958,0,0,1,1.354,0l3.946,3.946a.958.958,0,0,1,0,1.354L-8.365-.473A.955.955,0,0,1-9.042-.192Z" transform="translate(10 10)"/>
          </g>
          <g id="g3649" transform="translate(16.238 17.09)">
            <path id="path3651" d="M-9.045-123.068a.956.956,0,0,1-.327-.058.958.958,0,0,1-.572-1.228l4.433-12.178a.958.958,0,0,1,1.228-.572.958.958,0,0,1,.572,1.228L-8.145-123.7A.958.958,0,0,1-9.045-123.068Z" transform="translate(10.003 137.162)"/>
          </g>
        </g>
      </g>
    </g>
  </g>
</svg>
