<svg xmlns="http://www.w3.org/2000/svg" xmlns:xlink="http://www.w3.org/1999/xlink" width="207" height="238" viewBox="0 0 207 238">
  <defs>
    <clipPath id="clip-path">
      <rect id="Rectángulo_401767" data-name="Rectángulo 401767" width="206" height="238" rx="14" transform="translate(0 0)" fill="#b0c8cb"/>
    </clipPath>
    <clipPath id="clip-path-2">
      <rect id="Rectángulo_383162" data-name="Rectángulo 383162" width="192.668" height="226.873" fill="none"/>
    </clipPath>
    <clipPath id="clip-path-4">
      <rect id="Rectángulo_383159" data-name="Rectángulo 383159" width="2.165" height="1.785" fill="none"/>
    </clipPath>
    <clipPath id="clip-path-5">
      <rect id="Rectángulo_383160" data-name="Rectángulo 383160" width="5.596" height="1.887" fill="none"/>
    </clipPath>
  </defs>
  <g id="Grupo_1102936" data-name="Grupo 1102936" transform="translate(-235.523 -1817)">
    <rect id="Rectángulo_401606" data-name="Rectángulo 401606" width="207" height="204" rx="14" transform="translate(235.523 1851)" fill="#b0c8cb"/>
    <g id="Enmascarar_grupo_1098684" data-name="Enmascarar grupo 1098684" transform="translate(235.523 1817)" clip-path="url(#clip-path)">
      <g id="Grupo_1099903" data-name="Grupo 1099903" transform="translate(8.99 0)">
        <g id="Grupo_1099901" data-name="Grupo 1099901">
          <g id="Grupo_1074099" data-name="Grupo 1074099" clip-path="url(#clip-path-2)">
            <g id="Grupo_1074098" data-name="Grupo 1074098">
              <g id="Grupo_1074097" data-name="Grupo 1074097" clip-path="url(#clip-path-2)">
                <path id="Trazado_825349" data-name="Trazado 825349" d="M151.01,54.772l-.3,1.3-.3,1.268c-.2.842-.419,1.682-.635,2.518-.433,1.676-.9,3.341-1.378,5.006-.976,3.328-2.032,6.648-3.25,9.963-.606,1.657-1.245,3.321-1.959,4.982s-1.473,3.331-2.35,5.023c-.439.846-.907,1.7-1.435,2.561s-1.1,1.736-1.773,2.635a20.153,20.153,0,0,1-2.51,2.8,14.254,14.254,0,0,1-1.916,1.479,12.446,12.446,0,0,1-1.287.717,11.117,11.117,0,0,1-1.615.618,10.272,10.272,0,0,1-1.974.374c-.18.016-.36.027-.538.034s-.37,0-.554,0l-.136,0-.1-.006-.2-.011c-.133-.008-.259-.018-.38-.031a12.881,12.881,0,0,1-1.357-.2c-.418-.081-.792-.175-1.152-.275a22.094,22.094,0,0,1-3.541-1.362c-1.012-.485-1.924-.989-2.791-1.5s-1.687-1.028-2.478-1.558c-1.579-1.062-3.056-2.149-4.491-3.254s-2.818-2.227-4.168-3.374-2.674-2.3-3.972-3.472-2.573-2.361-3.834-3.558-2.5-2.415-3.721-3.648l-1.826-1.862L92.19,71l-.927-.985a7.553,7.553,0,0,1,10.9-10.453l.085.087.823.842.859.867,1.73,1.738c1.158,1.158,2.318,2.315,3.494,3.451s2.345,2.276,3.53,3.387,2.366,2.215,3.563,3.285c.6.538,1.2,1.063,1.795,1.585s1.2,1.036,1.8,1.54c1.2,1,2.406,1.965,3.594,2.834.589.437,1.174.853,1.744,1.231s1.117.717,1.613.99c.066.039.133.075.2.109.365-.414.756-.914,1.144-1.453s.795-1.148,1.188-1.766c.79-1.243,1.552-2.585,2.29-3.97s1.455-2.812,2.153-4.265c1.388-2.908,2.719-5.906,3.987-8.942.643-1.516,1.261-3.044,1.88-4.576l.912-2.3L141,53.086l.433-1.122.044-.115a5,5,0,0,1,9.536,2.923" transform="translate(-17.088 -9.318)" fill="#eaad8f"/>
                <path id="Trazado_825350" data-name="Trazado 825350" d="M137.678,94.622a9.81,9.81,0,0,0-1.652-5.1c-.175-.264.255-.5.428-.238a10.3,10.3,0,0,1,1.713,5.352c.011.314-.477.3-.489-.011" transform="translate(-26.046 -17.078)" fill="#c6695d"/>
                <path id="Trazado_825351" data-name="Trazado 825351" d="M139.28,93.323a9.975,9.975,0,0,0-2-2.029c-.247-.189.006-.608.256-.417a10.794,10.794,0,0,1,2.167,2.209c.186.254-.244.488-.428.238" transform="translate(-26.275 -17.397)" fill="#c6695d"/>
                <path id="Trazado_825352" data-name="Trazado 825352" d="M157.273,36.436s.179-.006-.291-1.032c-.771-1.682.425-4.62-.542-5.544-1.3-1.237-2.15,1.44-3.413,6.753a26.893,26.893,0,0,0,.562,7.91c.352,1.168.24,2.769.915,3.4,2.138,2,7.744,2.541,8.717,1.353,1.432-1.75,2.255-6.048,3.109-7.552s5.168-11.807,3.915-11.718-3.67,4.809-3.67,4.809,2.8-8.155,1.489-8.645c-1.239-.462-3.836,7.157-3.836,7.157s2.612-10.289.727-9.993c-.94.148-3.559,9.339-3.559,9.339s1.318-6.076-1.264-6.221c-2.72-.152-4.008,2.739-4.008,2.739s.085,1.883,2.352.258c2-1.433-1.2,6.988-1.2,6.988" transform="translate(-29.288 -4.468)" fill="#eaad8f"/>
                <path id="Trazado_825353" data-name="Trazado 825353" d="M167.689,40.023a.356.356,0,0,0-.034-.468,10.124,10.124,0,0,0-7.385-2.632.355.355,0,0,0,.06.707,9.577,9.577,0,0,1,6.827,2.431.356.356,0,0,0,.5,0,.293.293,0,0,0,.029-.034" transform="translate(-30.635 -7.069)" fill="#c6695d"/>
                <path id="Trazado_825354" data-name="Trazado 825354" d="M162.6,47.844a.356.356,0,0,0,.023-.4,5.909,5.909,0,0,1-.225-6.382.355.355,0,0,0-.57-.424l0,.006c-.091.125-2.218,3.121.188,7.164a.355.355,0,0,0,.487.124.349.349,0,0,0,.1-.09" transform="translate(-30.811 -7.757)" fill="#c6695d"/>
                <path id="Trazado_825355" data-name="Trazado 825355" d="M53.725,246.956v4.995h3.619v-2.257a1.152,1.152,0,0,1,1.152-1.152H74a.969.969,0,0,1,.969.969v2.441h4.209V249.51a.968.968,0,0,1,.969-.969H95.524a1.152,1.152,0,0,1,1.153,1.152v2.257H100.3v-4.995a2.033,2.033,0,0,0-2.033-2.033H79.174V180.546H74.965v64.376H55.758a2.033,2.033,0,0,0-2.033,2.033" transform="translate(-10.29 -34.581)" fill="#314fa5"/>
                <path id="Trazado_825356" data-name="Trazado 825356" d="M78.5,216.574h6.337a.765.765,0,0,0,.765-.765V188.615H77.735v27.194a.765.765,0,0,0,.765.765" transform="translate(-14.889 -36.126)" fill="#1c2b74"/>
                <path id="Trazado_825357" data-name="Trazado 825357" d="M102.364,271.586a5.389,5.389,0,1,0,5.388-5.388,5.388,5.388,0,0,0-5.388,5.388" transform="translate(-19.606 -50.986)" fill="#171612"/>
                <path id="Trazado_825358" data-name="Trazado 825358" d="M108.3,275.219a3.086,3.086,0,1,0-3.086-3.086,3.089,3.089,0,0,0,3.086,3.086" transform="translate(-20.152 -51.532)" fill="#5a554d"/>
                <path id="Trazado_825359" data-name="Trazado 825359" d="M75.862,271.586A5.389,5.389,0,1,0,81.25,266.2a5.388,5.388,0,0,0-5.388,5.388" transform="translate(-14.53 -50.986)" fill="#171612"/>
                <path id="Trazado_825360" data-name="Trazado 825360" d="M81.8,275.219a3.086,3.086,0,1,0-3.086-3.086,3.089,3.089,0,0,0,3.086,3.086" transform="translate(-15.076 -51.532)" fill="#5a554d"/>
                <path id="Trazado_825361" data-name="Trazado 825361" d="M49.265,271.586a5.389,5.389,0,1,0,5.388-5.388,5.388,5.388,0,0,0-5.388,5.388" transform="translate(-9.436 -50.986)" fill="#171612"/>
                <path id="Trazado_825362" data-name="Trazado 825362" d="M55.2,275.219a3.086,3.086,0,1,0-3.086-3.086,3.089,3.089,0,0,0,3.086,3.086" transform="translate(-9.982 -51.532)" fill="#5a554d"/>
                <path id="Trazado_825363" data-name="Trazado 825363" d="M.192,64.47l22.871,95.276a6.838,6.838,0,0,0,6.65,5.242H83.391a6.839,6.839,0,0,0,6.642-8.469L66.645,61.243A6.837,6.837,0,0,0,60,56.036H6.84A6.838,6.838,0,0,0,.192,64.47" transform="translate(0 -10.733)" fill="#1c2b74"/>
                <path id="Trazado_825364" data-name="Trazado 825364" d="M7.5,64.47,30.37,159.746a6.838,6.838,0,0,0,6.65,5.242H90.7a6.839,6.839,0,0,0,6.642-8.469L73.953,61.243a6.837,6.837,0,0,0-6.641-5.207H14.148A6.838,6.838,0,0,0,7.5,64.47" transform="translate(-1.4 -10.733)" fill="#314fa5"/>
                <path id="Trazado_825365" data-name="Trazado 825365" d="M35.988,159.763,13.117,64.487a2.192,2.192,0,0,1,2.133-2.705H68.413a2.189,2.189,0,0,1,2.13,1.67L93.93,158.728a2.193,2.193,0,0,1-2.13,2.716H38.121a2.186,2.186,0,0,1-2.133-1.681M15.25,62.4a1.579,1.579,0,0,0-1.535,1.948l22.871,95.275a1.575,1.575,0,0,0,1.536,1.211H91.8a1.58,1.58,0,0,0,1.534-1.956L69.947,63.6a1.576,1.576,0,0,0-1.534-1.2Z" transform="translate(-2.5 -11.833)" fill="#1c2b74"/>
                <path id="Trazado_825366" data-name="Trazado 825366" d="M126.651,191.648H36.5a7.726,7.726,0,0,1-7.526-5.976l-1.208-5.19h96.291Z" transform="translate(-5.317 -34.569)" fill="#1c2b74"/>
                <path id="Trazado_825367" data-name="Trazado 825367" d="M126.788,191.648H43.664a7.727,7.727,0,0,1-7.526-5.976l-1.208-5.19h91.858a5.583,5.583,0,1,1,0,11.166" transform="translate(-6.69 -34.569)" fill="#314fa5"/>
                <path id="Trazado_825368" data-name="Trazado 825368" d="M77.579,1.718S89.359,5.96,86.957,19.546c-2.617,14.8-5.115,28.3-3.128,36.316,0,0-34.018,2.978-40.523-6.35,0,0,9.77-15.317,10.191-25.472s.9-21.514,9.5-23.409S77.579,1.718,77.579,1.718" transform="translate(-8.295 0)" fill="#171612"/>
                <path id="Trazado_825369" data-name="Trazado 825369" d="M95.747,141.545q-1.267.347-2.517.648c-.349.086-.7.168-1.042.247a95.9,95.9,0,0,1-32.9,1.8q-.549-.064-1.062-.134a59.673,59.673,0,0,1-7.348-1.391l-.033-.009a41,41,0,0,0,1.239-7.99c.051-.91.087-1.793.115-2.633v0c.049-1.571.059-2.993.05-4.17v-.065c-.006-.791-.019-1.468-.033-2,5.212-.988,14.823-2.715,23.733-3.815,6.463-.8,12.558-1.268,16.333-.888l.214,1.4.319,2.074.269,1.552.587,3.4L95.7,141.287Z" transform="translate(-9.739 -23.178)" fill="#eaad8f"/>
                <path id="Trazado_825370" data-name="Trazado 825370" d="M51.834,138.657s29.607,3.518,42.2-4.083c0,0,2.735,12.551,2.5,15.882-.575,7.978-45.268,6.212-46.4-1.589-.5-3.444,1.7-10.209,1.7-10.209" transform="translate(-9.588 -25.776)" fill="#467b6c"/>
                <path id="Trazado_825371" data-name="Trazado 825371" d="M51.914,137.63a7.9,7.9,0,0,0-.986,4.762s29.561,4.067,44.119-3.814a5.88,5.88,0,0,0-1.087-4.951s-11.433,7.777-42.047,4" transform="translate(-9.742 -25.594)" fill="#253f3d"/>
                <path id="Trazado_825372" data-name="Trazado 825372" d="M93.11,124.625c-3.124.225-7.266.627-11.911,1.35-8.959,1.392-19.794,3.972-28.822,8.746.051-.91.088-1.794.115-2.634v0c.05-1.571.06-2.994.051-4.17v-.065c-.006-.791-.019-1.468-.033-2,5.213-.989,14.824-2.715,23.733-3.816,6.463-.8,12.559-1.268,16.333-.887l.215,1.4Z" transform="translate(-10.032 -23.178)" fill="#c6695d"/>
                <path id="Trazado_825373" data-name="Trazado 825373" d="M51.531,133.7v0c-5.1-.225-4.092-3.087-4.092-3.087l.037-.01,4.105-1.142v.065Z" transform="translate(-9.071 -24.798)" fill="#32237f"/>
                <path id="Trazado_825374" data-name="Trazado 825374" d="M98.546,90.8a9.981,9.981,0,0,1-.12,1.015c-.023.137-.052.276-.084.416a10.181,10.181,0,0,1-.286.977c-.07.2-.147.4-.231.606a27.968,27.968,0,0,1-4.421,6.853c-.143.17-.28.325-.409.471s-.262.29-.378.413c-.188.2-.348.36-.468.475-.068.061-.125.116-.18.163-.155.143-.243.217-.243.217,0,.022,0,.04,0,.063q.01.239.025.505c.016.3.036.616.063.96q.04.57.1,1.227c.006.07.015.141.02.213l.006.075c.011.1.019.2.031.307.061.63.133,1.309.215,2.027.071.64.151,1.314.237,2.009l-.008,0h0a22.986,22.986,0,0,0-2.5-.581h0c-4.595-.825-10.246-.63-16.052.1q-1.266.156-2.538.348c-.465.07-.927.141-1.391.215l0,0c-2.931.471-5.848,1.048-8.637,1.667l-.663.15c-4.076.922-7.854,1.931-10.966,2.823-1.552.444-2.937.859-4.111,1.223l.006-.084q.1-1.289.162-2.518c.029-.564.051-1.119.07-1.665.008-.26.016-.517.023-.774q.042-1.7.019-3.291-.012-.927-.049-1.817c-.011-.261-.02-.521-.035-.777-.037-.738-.084-1.458-.141-2.156,0-.032,0-.063-.008-.1-.088-1.07-.227-2.258-.413-3.539q-.046-.325-.1-.656c-.5-3.279-1.287-7.106-2.291-11.085-.049-.2-.1-.393-.151-.591,0-.02-.011-.039-.015-.06-.2-.783-.409-1.575-.626-2.366-.061-.227-.125-.452-.191-.677-.034-.126-.071-.255-.106-.382-.027-.1-.057-.194-.084-.292-.084-.3-.167-.589-.255-.886s-.168-.571-.251-.855c-.152-.505-.3-1.011-.465-1.511l-.024-.082c-.051-.163-.1-.327-.155-.488s-.1-.311-.147-.466q-.5-1.55-1.032-3.062c-.209-.6-.407-1.2-.587-1.806-.036-.124-.074-.25-.108-.374-.057-.195-.112-.393-.163-.589-.048-.162-.091-.325-.131-.487v0c-.123-.48-.235-.965-.338-1.448v0c-.049-.238-.1-.479-.143-.718v0c-.131-.72-.239-1.436-.315-2.144v0a22.432,22.432,0,0,1-.135-2.608c0-.231,0-.462.015-.69.011-.268.027-.534.049-.8.019-.2.039-.4.061-.593,0-.012,0-.02,0-.031.027-.2.055-.409.088-.61.016-.1.032-.2.051-.3l.059-.3c.021-.1.043-.2.064-.294v-.006c.019-.064.032-.129.047-.192.008-.031.016-.061.024-.095.023-.087.045-.175.07-.264.031-.116.064-.229.1-.344q.119-.387.26-.761c.006-.013.011-.027.016-.039.035-.091.072-.18.108-.27s.076-.179.113-.266.083-.184.129-.276c.08-.163.163-.329.25-.488.053-.095.1-.188.159-.281.043-.076.088-.147.135-.223.1-.162.2-.321.317-.475.053-.078.111-.155.168-.231.047-.059.094-.123.141-.182.017-.023.035-.043.053-.065.049-.059.1-.123.151-.182.137-.164.282-.322.434-.475.055-.057.112-.115.171-.172s.141-.135.215-.2l.221-.195c.074-.063.15-.127.227-.188.051-.044.1-.084.158-.125a9.4,9.4,0,0,1,1.273-.826c.061-.037.125-.071.188-.1s.133-.072.2-.1c.112-.057.229-.112.345-.166.037-.019.076-.035.113-.051.074-.033.143-.064.217-.095.325-.137.665-.261,1.02-.376l.065-.023c.095-.028.191-.057.287-.088.135-.039.272-.075.411-.112.342-.088.682-.174,1.019-.26s.669-.168,1-.246C51.726,52.3,55.22,51.656,56.5,51.43l.242-.043.11-.02a.037.037,0,0,0,.023,0c.027-.006.049-.01.07-.012a.053.053,0,0,0,.015,0L57,51.343l.023,0,1.694.255,15.666,2.373.521.079.966.146.388.06,1.829.278c1.766.319,3.314.635,4.675.965.411.1.806.2,1.182.3.274.071.538.145.794.221a20.592,20.592,0,0,1,3.846,1.477A9.149,9.149,0,0,1,90.495,58.8c.045.039.088.08.129.12a5.868,5.868,0,0,1,.44.462c.035.039.067.076.1.116a6.442,6.442,0,0,1,.826,1.289c.049.1.1.2.146.311.094.213.178.432.251.655.031.086.059.174.088.266.043.141.086.284.125.431s.084.326.119.492c.043.186.084.378.123.575.011.047.019.094.027.143.02.108.039.219.057.331.016.092.031.184.044.278.006.04.015.086.021.129.071.471.135.965.194,1.488.014.141.031.282.049.427.012.119.024.239.039.361s.028.272.043.411q.086.8.179,1.672a.664.664,0,0,0,.009.067c.012.119.024.241.04.362.006.067.015.137.023.2s.019.158.027.237c.012.111.024.223.039.336,0,.035.011.074.015.111.012.106.027.215.04.321.027.211.056.421.086.63q.112.77.248,1.534v0c.04.223.082.442.125.663.006.037.015.074.02.111v0c.015.072.027.141.043.213.219,1.131.473,2.254.745,3.354,1.2,4.858,2.725,7.982,3.341,10.856.041.2.08.4.112.6a10.337,10.337,0,0,1,.141,2.437" transform="translate(-7.159 -9.833)" fill="#fff"/>
                <path id="Trazado_825375" data-name="Trazado 825375" d="M104.874,123.5a2.709,2.709,0,0,1-1.95,3.051l-.559-3.637a7.954,7.954,0,0,1,2.509.586" transform="translate(-19.606 -23.542)" fill="#32237f"/>
                <path id="Trazado_825376" data-name="Trazado 825376" d="M92.968,66.868a51.469,51.469,0,0,1-7.9,1.691c-6.806.913-13.458.137-20.169-1.084-7.08-1.288-14.395-2.8-21.587-1.448a23.825,23.825,0,0,0-5.937,1.937c0-.231,0-.462.015-.69a24.234,24.234,0,0,1,5.568-1.8c6.628-1.294,13.4-.182,19.948,1.017,6.822,1.246,13.577,2.358,20.528,1.651a50.5,50.5,0,0,0,9.43-1.882c.02.108.039.219.057.331.017.092.031.184.045.278" transform="translate(-7.159 -12.429)" fill="#dbccc1"/>
                <path id="Trazado_825377" data-name="Trazado 825377" d="M85.21,56.558a64.1,64.1,0,0,1-41.241-.863c.061-.036.125-.071.188-.1s.133-.071.2-.1c.112-.057.229-.112.345-.166a63.3,63.3,0,0,0,10.8,2.811,62.761,62.761,0,0,0,28.523-1.874q.616.147,1.182.3" transform="translate(-8.422 -10.596)" fill="#dbccc1"/>
                <path id="Trazado_825378" data-name="Trazado 825378" d="M94.024,75.542c-.918.372-1.851.718-2.792,1.035A50.712,50.712,0,0,1,75.3,79.236c-6.022.026-11.819-1.381-17.718-2.391-5.951-1.019-11.855-1.187-17.662.677-.358.115-.714.235-1.067.365-.057-.195-.113-.393-.164-.589q.838-.3,1.692-.559a36.657,36.657,0,0,1,16.6-.614c6.108.994,12.091,2.524,18.322,2.5a50.155,50.155,0,0,0,18.635-3.711c.027.21.055.421.086.63" transform="translate(-7.411 -14.348)" fill="#dbccc1"/>
                <path id="Trazado_825379" data-name="Trazado 825379" d="M110.63,93.391a11.782,11.782,0,0,1-5.916-.888,6.042,6.042,0,0,1-3.482-5.065,11.09,11.09,0,0,1,5.012-9.847c.041.223.082.442.125.663a10.586,10.586,0,0,0-4.552,8.487,5.629,5.629,0,0,0,3.823,5.494,11.934,11.934,0,0,0,4.877.555c.04.2.08.4.112.6" transform="translate(-19.383 -14.861)" fill="#dbccc1"/>
                <path id="Trazado_825380" data-name="Trazado 825380" d="M98.79,99.364c-.07.2-.147.4-.231.606-11.209-3-20.934-9.85-31.958-13.391-8.073-2.594-17.189-3.477-25.21-.77l-.024-.082c-.051-.163-.1-.327-.155-.488A32.984,32.984,0,0,1,49.229,83.6c12.142-.976,23.3,4.312,33.921,9.47A91.891,91.891,0,0,0,98.79,99.364" transform="translate(-7.894 -15.99)" fill="#dbccc1"/>
                <path id="Trazado_825381" data-name="Trazado 825381" d="M52.619,103.113q-3,2.17-6.18,4.079-.046-.325-.1-.656,2.356-1.424,4.623-3c1.849-1.285,7.264-4.333,5-7.188a5.419,5.419,0,0,0-3.715-1.588,21.844,21.844,0,0,0-4.721.027,22.9,22.9,0,0,0-3.473.663c-.049-.2-.1-.393-.151-.591a23.229,23.229,0,0,1,5.548-.814c2.346-.06,6.266-.021,7.4,2.577,1.25,2.868-2.315,5.11-4.226,6.49" transform="translate(-8.408 -18.01)" fill="#dbccc1"/>
                <path id="Trazado_825382" data-name="Trazado 825382" d="M95.388,109.667c-.143.17-.28.325-.409.471a28.7,28.7,0,0,1-5.232-3.322c-3.31-2.561-6.431-5.609-10.422-7.1-4.641-1.731-9.259-.26-13.436,1.988a93.991,93.991,0,0,0-18.117,12.876c-.011-.261-.02-.521-.035-.777q3.55-3.142,7.385-5.946a80.186,80.186,0,0,1,11.77-7.36c3.918-1.921,8.213-2.953,12.447-1.429,3.791,1.364,6.859,4.115,9.95,6.605a30.133,30.133,0,0,0,6.1,3.991" transform="translate(-9.143 -18.835)" fill="#dbccc1"/>
                <path id="Trazado_825383" data-name="Trazado 825383" d="M63.293,124.745c-.221.049-.442.1-.663.15a6.205,6.205,0,0,0-6.732-3.85,15.457,15.457,0,0,0-8.108,3.628c.008-.26.016-.517.023-.773,3.573-2.755,9.368-5.228,13.218-2.21a6.9,6.9,0,0,1,2.262,3.054" transform="translate(-9.153 -23.043)" fill="#dbccc1"/>
                <path id="Trazado_825384" data-name="Trazado 825384" d="M99.69,118.432a39.066,39.066,0,0,0-10.048.045,25.972,25.972,0,0,0-10.6,3.852c-.464.07-.927.141-1.391.215a22.07,22.07,0,0,1,4.612-2.666c5.662-2.43,11.507-2.7,17.369-2.041.006.07.015.141.02.213l.006.075c.011.1.019.2.031.307" transform="translate(-14.873 -22.511)" fill="#dbccc1"/>
                <path id="Trazado_825385" data-name="Trazado 825385" d="M69.665,114.806a.449.449,0,0,0,.6.206A25.814,25.814,0,0,1,86.628,113.7a28,28,0,0,0,11.3.889c-.01-.179-.019-.347-.024-.506l0-.063s.157-.133.423-.382a26.669,26.669,0,0,1-11.464-.8,26.252,26.252,0,0,0-16.987,1.369.447.447,0,0,0-.206.6" transform="translate(-13.335 -21.454)" fill="#dbccc1"/>
                <path id="Trazado_825386" data-name="Trazado 825386" d="M95.359,241.354l-3.5,14.109,10.267.681,6.592-14.79Z" transform="translate(-17.593 -46.228)" fill="#eaad8f"/>
                <path id="Trazado_825387" data-name="Trazado 825387" d="M127.4,276.062l-38.582-.452a5.4,5.4,0,0,1-.483-2.15c-.2-3.266.9-8.462,1.447-11.741.066-.382.123-.741.168-1.063a11.345,11.345,0,0,0,.131-1.34,1.968,1.968,0,0,1,2.4-2.193c3.86,3.874,8.348-1.816,10.907.1,0,0,1.1.81,4.134,3.6s8.218,4.672,12.631,6.579c5.7,2.46,7.293,4.87,7.591,6.52a3.013,3.013,0,0,1-.342,2.139" transform="translate(-16.914 -49.189)" fill="#e59f3f"/>
                <path id="Trazado_825388" data-name="Trazado 825388" d="M127.4,280.006l-38.582-.452a5.4,5.4,0,0,1-.483-2.15l39.406.462a3.013,3.013,0,0,1-.342,2.139" transform="translate(-16.92 -53.132)" fill="#b56d25"/>
                <path id="Trazado_825389" data-name="Trazado 825389" d="M93.1,276.565l-1.146-.014A8.464,8.464,0,0,0,94.1,270.4a10.882,10.882,0,0,0-3.972-7.769c.066-.382.124-.741.169-1.064a11.821,11.821,0,0,1,4.722,8.8,9.364,9.364,0,0,1-1.919,6.2" transform="translate(-17.263 -50.099)" fill="#b56d25"/>
                <path id="Trazado_825390" data-name="Trazado 825390" d="M111.079,264.143a.636.636,0,0,1-.138-1.255l2.417-.57a.636.636,0,0,1,.292,1.238l-2.417.57a.62.62,0,0,1-.154.017" transform="translate(-21.155 -50.24)" fill="#fff"/>
                <path id="Trazado_825391" data-name="Trazado 825391" d="M108.386,261.8a.636.636,0,0,1-.138-1.255l2.417-.57a.636.636,0,1,1,.292,1.238l-2.417.57a.628.628,0,0,1-.154.017" transform="translate(-20.639 -49.791)" fill="#fff"/>
                <path id="Trazado_825392" data-name="Trazado 825392" d="M114.039,265.911a.636.636,0,0,1-.137-1.255l2.417-.57a.636.636,0,1,1,.292,1.238l-2.417.57a.62.62,0,0,1-.154.017" transform="translate(-21.722 -50.578)" fill="#fff"/>
                <path id="Trazado_825393" data-name="Trazado 825393" d="M117,267.612a.636.636,0,0,1-.138-1.255l2.417-.57a.635.635,0,1,1,.292,1.237l-2.417.571a.623.623,0,0,1-.154.017" transform="translate(-22.289 -50.904)" fill="#fff"/>
                <path id="Trazado_825394" data-name="Trazado 825394" d="M120.234,269.191a.636.636,0,0,1-.138-1.255l2.417-.57a.635.635,0,1,1,.292,1.237l-2.417.571a.629.629,0,0,1-.154.017" transform="translate(-22.909 -51.206)" fill="#fff"/>
                <path id="Trazado_825395" data-name="Trazado 825395" d="M123.743,270.546a.636.636,0,0,1-.138-1.255l2.417-.57a.636.636,0,0,1,.292,1.238l-2.417.57a.623.623,0,0,1-.154.017" transform="translate(-23.581 -51.466)" fill="#fff"/>
                <path id="Trazado_825396" data-name="Trazado 825396" d="M98.224,200.942l-6.462,24.3,13.1,2.327s2.994-4.085,7.215-10.195c.127-.184.255-.369.382-.555,2.653-3.848,5.754-8.444,8.888-13.3q.181-.279.361-.561c2.927-4.56,5.873-9.329,8.491-13.917.12-.213.241-.423.361-.633,4.575-8.077,8.083-15.519,8.655-20.14,1.847-14.929-31.573-26.416-31.573-26.416-20.178.366-26.51,27.855-26.51,27.855l27.462,4.208c-5,5.958-6.6,13.509-10.366,27.034" transform="translate(-15.539 -27.168)" fill="#467b6c"/>
                <path id="Trazado_825397" data-name="Trazado 825397" d="M106.538,214.307c1.64-1.105,3.6-1.015,5.489-1.164a10.654,10.654,0,0,0,4.173-1.129,10.1,10.1,0,0,0,4.884-5.7c.971-2.912.651-6.557,3.066-8.811a7.1,7.1,0,0,1,8.25-.732,8.078,8.078,0,0,1,2.57,2.471q.181-.319.361-.634a8.773,8.773,0,0,0-2.464-2.324,7.9,7.9,0,0,0-7.467-.4c-2.963,1.41-3.739,4.363-4.278,7.351a13.361,13.361,0,0,1-1.588,4.851,9.6,9.6,0,0,1-3.807,3.441c-3,1.5-6.71.324-9.52,2.219-.351.234-.019.8.331.568" transform="translate(-20.314 -37.374)" fill="#5fa68d"/>
                <path id="Trazado_825398" data-name="Trazado 825398" d="M118.853,231.7c.127-.184.255-.369.382-.555a8.685,8.685,0,0,1-1.2-9.325,8.011,8.011,0,0,1,10.089-3.98q.182-.279.362-.561a8.656,8.656,0,0,0-11.019,4.208,9.371,9.371,0,0,0,1.388,10.213" transform="translate(-22.32 -41.492)" fill="#5fa68d"/>
                <path id="Trazado_825399" data-name="Trazado 825399" d="M109.11,203.974a6.382,6.382,0,0,0,4.87-4.929c.519-2.442.331-4.732,2.113-6.7,1.683-1.862,4.112-2.807,5.863-4.587a4.87,4.87,0,0,0,1.609-4.214,2.643,2.643,0,0,0-3.189-2.092.329.329,0,0,1-.175-.635c2.436-.719,4.357,1.721,4.039,4-.426,3.063-3.336,4.645-5.62,6.249a7.751,7.751,0,0,0-3.415,4.207c-.432,1.638-.3,3.383-.88,4.989a7.006,7.006,0,0,1-5.215,4.379Z" transform="translate(-20.898 -34.607)" fill="#5fa68d"/>
                <path id="Trazado_825400" data-name="Trazado 825400" d="M102.2,230.425a6.37,6.37,0,0,1,3.919-1.418,2.658,2.658,0,0,1,2.419,1.83c.819,2.906-4.084,5.9-1.1,8.509.319.279-.147.742-.466.465-1.6-1.394-1.2-3.635-.24-5.245.766-1.277,2.21-3.54.324-4.607-1.535-.868-3.244.209-4.529,1.034-.357.23-.688-.339-.332-.568" transform="translate(-19.545 -43.86)" fill="#5fa68d"/>
                <path id="Trazado_825401" data-name="Trazado 825401" d="M99.043,228.352a.506.506,0,0,1-.441-.676c.063-.176,6.378-17.713,9.527-30.4a41.521,41.521,0,0,1,11.6-19.62c-3.092-.289-8.194-1.365-8.441-1.417a.506.506,0,0,1,.209-.99,76.5,76.5,0,0,0,9.487,1.467.506.506,0,0,1,.314.9,40.084,40.084,0,0,0-12.188,19.9c-3.162,12.737-9.494,30.322-9.558,30.5a.506.506,0,0,1-.51.333" transform="translate(-18.88 -33.564)" fill="#253f3d"/>
                <path id="Trazado_825402" data-name="Trazado 825402" d="M109.719,243.382a.5.5,0,0,1-.069-.01l-13.94-2.914a.505.505,0,1,1,.207-.99l13.939,2.914a.506.506,0,0,1-.137,1" transform="translate(-18.255 -45.864)" fill="#253f3d"/>
                <path id="Trazado_825403" data-name="Trazado 825403" d="M179.812,221.341l8.756,10.758,8.841-6.227-8.129-13.443Z" transform="translate(-34.44 -40.688)" fill="#eaad8f"/>
                <path id="Trazado_825404" data-name="Trazado 825404" d="M228.825,224.173,198.877,248.5a5.407,5.407,0,0,1-1.745-1.343c-2.245-2.381-4.721-7.081-6.4-9.951-.194-.336-.378-.648-.551-.925a11.245,11.245,0,0,0-.757-1.114,1.968,1.968,0,0,1,.441-3.219c5.445.51,5.257-6.735,8.448-6.9,0,0,1.366-.082,5.481.125s9.306-1.665,13.919-3.02c5.953-1.753,8.721-.921,10,.157a3.015,3.015,0,0,1,1.105,1.863" transform="translate(-36.157 -42.356)" fill="#e59f3f"/>
                <path id="Trazado_825405" data-name="Trazado 825405" d="M230.8,224.451l-29.948,24.328a5.407,5.407,0,0,1-1.745-1.343L229.7,222.587a3.015,3.015,0,0,1,1.105,1.863" transform="translate(-38.137 -42.633)" fill="#b56d25"/>
                <path id="Trazado_825406" data-name="Trazado 825406" d="M202.266,249.606l-.889.723a8.467,8.467,0,0,0-2.286-6.1,10.881,10.881,0,0,0-8.022-3.432c-.194-.336-.379-.648-.551-.925a11.816,11.816,0,0,1,9.256,3.742,9.362,9.362,0,0,1,2.492,6" transform="translate(-36.491 -45.942)" fill="#b56d25"/>
                <path id="Trazado_825407" data-name="Trazado 825407" d="M208.257,228.087a.636.636,0,0,1-.909-.876l1.493-1.984a.636.636,0,1,1,1.016.765l-1.494,1.984a.668.668,0,0,1-.107.112" transform="translate(-39.69 -43.09)" fill="#fff"/>
                <path id="Trazado_825408" data-name="Trazado 825408" d="M204.689,228.011a.636.636,0,0,1-.909-.876l1.493-1.984a.636.636,0,1,1,1.016.765L204.8,227.9a.64.64,0,0,1-.108.112" transform="translate(-39.007 -43.076)" fill="#fff"/>
                <path id="Trazado_825409" data-name="Trazado 825409" d="M211.663,227.553a.636.636,0,0,1-.909-.876l1.493-1.984a.636.636,0,1,1,1.016.765l-1.493,1.984a.642.642,0,0,1-.108.112" transform="translate(-40.342 -42.988)" fill="#fff"/>
                <path id="Trazado_825410" data-name="Trazado 825410" d="M215.028,226.966a.636.636,0,0,1-.909-.876l1.494-1.984a.635.635,0,1,1,1.015.764l-1.493,1.985a.64.64,0,0,1-.108.112" transform="translate(-40.987 -42.875)" fill="#fff"/>
                <path id="Trazado_825411" data-name="Trazado 825411" d="M218.522,226.112a.636.636,0,0,1-.909-.876l1.493-1.984a.636.636,0,0,1,1.016.765L218.63,226a.641.641,0,0,1-.108.112" transform="translate(-41.656 -42.712)" fill="#fff"/>
                <path id="Trazado_825412" data-name="Trazado 825412" d="M222.087,224.909a.636.636,0,0,1-.909-.876l1.494-1.984a.636.636,0,1,1,1.015.765l-1.493,1.984a.671.671,0,0,1-.108.112" transform="translate(-42.339 -42.481)" fill="#fff"/>
                <path id="Trazado_825413" data-name="Trazado 825413" d="M49.424,161.066a24.665,24.665,0,0,0,.484,2.436c1.374,5.419,4.709,10.494,12.112,11.963C79.8,179,112.61,164.84,112.61,164.84c4.338,8.79,14.706,20.406,25.826,30.258s20.124,18.193,20.124,18.193l11.467-7.331s-2.483-4.423-6.384-10.951c-.129-.215-.261-.434-.393-.656-1.967-3.281-4.272-7.055-6.785-11.044q-.224-.358-.452-.717c-1.324-2.1-2.706-4.248-4.125-6.412-.116-.179-.233-.357-.351-.535-6.081-9.26-12.809-18.721-18.772-25.3-.133-.15-.265-.294-.4-.439-.753-.817-1.489-1.588-2.213-2.3-.167-.167-.333-.329-.5-.487-2.66-2.57-5.094-4.377-7.153-5.1a23.935,23.935,0,0,0-5.127-1.031c-.6-.064-1.219-.118-1.863-.162-.242-.017-.483-.032-.73-.046h0c-.517-.031-1.05-.054-1.6-.074-1.893-.066-3.938-.066-6.1-.011h0c-.3.006-.606.015-.91.026-4.579.142-9.629.513-14.767,1.018-.293.026-.585.057-.881.087h0c-3.1.31-6.234.667-9.3,1.046l-.653.083c-2.708.338-5.367.7-7.912,1.053l-.767.11c-5.882.833-11.136,1.671-15.028,2.318h0c-.32.055-.631.105-.932.155-3.734.63-5.991,1.044-5.991,1.044a40.094,40.094,0,0,0-.507,13.434" transform="translate(-9.397 -26.94)" fill="#467b6c"/>
                <path id="Trazado_825414" data-name="Trazado 825414" d="M181.7,200.52a8.031,8.031,0,0,0,7.149,4.423c-.129-.215-.261-.434-.393-.656a6.978,6.978,0,0,1-2.026-.353,7.5,7.5,0,0,1-4.515-4.548,9.721,9.721,0,0,1-.243-6.143q-.224-.359-.452-.717a10.384,10.384,0,0,0,.48,7.993" transform="translate(-34.599 -36.876)" fill="#5fa68d"/>
                <path id="Trazado_825415" data-name="Trazado 825415" d="M136.256,171.065c1.25-4.261,3.031-9.735,8.024-10.761,4.245-.871,8.2,3.109,10.359,6.3a19.53,19.53,0,0,1,2.544,5.362c.5,1.669.7,3.408,1.177,5.081.84,2.912,2.882,5.261,6.171,4.77a7.148,7.148,0,0,0,3.934-2.011c-.116-.179-.232-.357-.351-.535a7.7,7.7,0,0,1-1.1.88c-2.007,1.32-4.818,1.606-6.553-.314-1.2-1.328-1.581-3.226-1.934-4.925a27.131,27.131,0,0,0-1.475-5.23,19.7,19.7,0,0,0-6.507-8.267c-2.994-2.154-6.561-2.557-9.6-.263-3.1,2.337-4.281,6.164-5.329,9.734a.33.33,0,0,0,.636.175" transform="translate(-25.973 -30.571)" fill="#5fa68d"/>
                <path id="Trazado_825416" data-name="Trazado 825416" d="M141.983,181.565c.669-3.328,1.769-7.3,5.486-8.31,3.352-.912,5.432,1.873,5.774,4.9.255,2.257-.318,4.57.291,6.8a9.518,9.518,0,0,0,3.726,4.874c3.065,2.3,6.94,3.542,9.456,6.543,2.081,2.482,2.831,6.642.209,9.03-.312.285-.779-.179-.465-.466,2.582-2.352,1.464-6.389-.676-8.619-2.376-2.476-5.689-3.675-8.45-5.627-2.425-1.713-4.388-3.959-4.689-7.015-.292-2.96,1.069-8.368-2.7-9.74-1.942-.706-4.1.472-5.244,2.025a14.215,14.215,0,0,0-2.082,5.783c-.083.415-.718.239-.635-.175" transform="translate(-27.193 -33.151)" fill="#5fa68d"/>
                <path id="Trazado_825417" data-name="Trazado 825417" d="M189.2,217.338a5.876,5.876,0,0,0-11.473-1.412c-.136.4-.771.227-.635-.175a6.533,6.533,0,0,1,12.766,1.588c.035.422-.623.42-.658,0" transform="translate(-33.916 -40.442)" fill="#5fa68d"/>
                <path id="Trazado_825418" data-name="Trazado 825418" d="M130.354,140.806c1.471,2.961,3.268,5.732,6.417,7.119a10.414,10.414,0,0,0,8.955-.292q-.25-.25-.5-.487a9.757,9.757,0,0,1-9.065-.259c-2.37-1.338-3.86-3.612-5.079-6.035-.241-.018-.483-.033-.73-.046" transform="translate(-24.967 -26.969)" fill="#5fa68d"/>
                <path id="Trazado_825419" data-name="Trazado 825419" d="M88.026,143.477a11.182,11.182,0,0,0,12.228,9.127c3.9-.272,7.988-1.594,11.648.428,3.252,1.8,5.2,5.305,6.34,8.719.133.4.77.228.635-.175a17.3,17.3,0,0,0-5.028-8c-2.75-2.269-6-2.542-9.423-2.129-3.814.458-7.585,1.178-11.019-1.04a10.723,10.723,0,0,1-4.728-7.013l-.653.083" transform="translate(-16.86 -27.465)" fill="#5fa68d"/>
                <path id="Trazado_825420" data-name="Trazado 825420" d="M100.343,141.832a21.4,21.4,0,0,0,12.392,5.715,11.292,11.292,0,0,0,4.717-.174,2.636,2.636,0,0,0,1.823-2.842c-.138-1.517-1.3-2.75-2.323-3.783-.015-.015-.031-.033-.049-.049h0c-.3.007-.606.015-.91.027,1.037.964,2.307,2.16,2.588,3.574.442,2.239-1.708,2.684-3.41,2.707a20.756,20.756,0,0,1-13.945-5.264c-.293.027-.585.057-.881.088" transform="translate(-19.219 -26.949)" fill="#5fa68d"/>
                <path id="Trazado_825421" data-name="Trazado 825421" d="M98.135,168.161a10.64,10.64,0,0,0-9.537-5.819c-3.993.085-7.837,2.174-11.71.24-3.2-1.6-5.224-4.856-8.482-6.366a8.764,8.764,0,0,0-10.847,2.856,8.354,8.354,0,0,0-1.186,6.355c.546,2.353,2.315,4.1,3.654,6.025.243.348-.327.677-.568.332-1.257-1.805-2.869-3.442-3.555-5.579a8.748,8.748,0,0,1,.147-5.559,9,9,0,0,1,8.43-5.89c4.3-.078,7,2.789,10.035,5.378a9.383,9.383,0,0,0,6.123,2.671c2.438.006,4.776-.876,7.2-1.078a11.29,11.29,0,0,1,10.868,6.1c.192.377-.375.71-.568.332" transform="translate(-10.634 -29.641)" fill="#5fa68d"/>
                <path id="Trazado_825422" data-name="Trazado 825422" d="M84.956,174.306a15.28,15.28,0,0,0-8.834-4.692c-1.788-.269-3.91-.344-5.447.763s-2.082,3.625-.05,4.562c.384.177.05.745-.331.568a3.028,3.028,0,0,1-1.415-3.951,5.105,5.105,0,0,1,4.51-2.729,15.459,15.459,0,0,1,12.034,5.013c.289.308-.175.775-.466.465" transform="translate(-13.144 -32.329)" fill="#5fa68d"/>
                <path id="Trazado_825423" data-name="Trazado 825423" d="M57.546,147.382A13.544,13.544,0,0,0,64.5,149.9c3.752.252,8.346-1.421,9.771-5.1l-.767.109c-1.533,3.278-5.844,4.629-9.307,4.309a12.741,12.741,0,0,1-5.721-1.991h0c-.32.055-.631.106-.932.156" transform="translate(-11.022 -27.734)" fill="#5fa68d"/>
                <path id="Trazado_825424" data-name="Trazado 825424" d="M136.52,189.02a.507.507,0,0,1-.274-.1c-8.085-6.266-12.433-15.4-13.454-17.736-4.232,2.452-17.191,6.267-17.765,6.435a.506.506,0,0,1-.285-.97c.146-.043,14.58-4.291,18-6.625a.506.506,0,0,1,.756.234c.042.108,4.305,10.841,13.366,17.863a.506.506,0,0,1-.345.9" transform="translate(-19.992 -32.548)" fill="#253f3d"/>
                <path id="Trazado_825425" data-name="Trazado 825425" d="M181.323,225.359a.505.505,0,0,1-.243-.927l11.671-7.674a.506.506,0,0,1,.555.845l-11.67,7.674a.506.506,0,0,1-.313.082" transform="translate(-34.64 -41.501)" fill="#253f3d"/>
                <path id="Trazado_825426" data-name="Trazado 825426" d="M158.983,213.278a.51.51,0,0,1-.715,0c-.192-.193-19.281-19.1-28.49-27.243-8.313-7.356-13.342-18.774-14.358-21.233-3.413,1.345-24.682,9.438-44.454,10.523-8.947.494-14.566-2.12-17.7-4.4A18.224,18.224,0,0,1,50,167.907a24.65,24.65,0,0,1-.488-2.439,11.975,11.975,0,0,0,.941,1.389,17.155,17.155,0,0,0,3.463,3.294c3,2.163,8.385,4.643,17,4.171,21.285-1.172,44.364-10.545,44.593-10.639a.493.493,0,0,1,.392,0,.5.5,0,0,1,.273.283c.049.13,5.152,13.239,14.277,21.31,9.227,8.164,28.337,27.09,28.529,27.28a.509.509,0,0,1,0,.718" transform="translate(-9.482 -31.344)" fill="#253f3d"/>
                <path id="Trazado_825427" data-name="Trazado 825427" d="M92.615,24.673a2.409,2.409,0,0,1,1.9,2.356c.233,2.141-.985,5.649-3.12,5.124s1.225-7.48,1.225-7.48" transform="translate(-17.368 -4.726)" fill="#c6695d"/>
                <path id="Trazado_825428" data-name="Trazado 825428" d="M85.569,35.819A4.658,4.658,0,1,1,89.511,41.1a4.662,4.662,0,0,1-3.941-5.278m.834.121a3.815,3.815,0,1,0,4.322-3.228A3.819,3.819,0,0,0,86.4,35.94" transform="translate(-16.38 -6.096)" fill="#fff"/>
                <line id="Línea_266" data-name="Línea 266" y2="0.002" transform="translate(68.672 36.23)" fill="#eaad8f"/>
                <path id="Trazado_825429" data-name="Trazado 825429" d="M62.824,47.8a13.173,13.173,0,0,0,8.84,6.445c7.866,1.478,8.87-1.87,8.87-1.87a12.415,12.415,0,0,1-.416-3.01q-.025-.65-.006-1.338a36.486,36.486,0,0,1,.409-4.2c.053-.369.112-.753.177-1.147l.006-.047C75.278,41.1,70.9,38.48,68,34.306l-.8-.526-.539-.356-.116.315.061,1.024c.3,4.81-.946,8.732-3.78,13.034" transform="translate(-12.033 -6.402)" fill="#eaad8f"/>
                <path id="Trazado_825430" data-name="Trazado 825430" d="M75.583,65.859a4.385,4.385,0,0,0,.512.038,4.43,4.43,0,0,0,3.721-1.626c2.551-3.2.952-9.984.883-10.271a.426.426,0,1,0-.828.2c.016.066,1.571,6.669-.721,9.541a3.574,3.574,0,0,1-3.044,1.3C70.521,64.976,63.342,51.3,63.27,51.159a.426.426,0,1,0-.755.393c.294.567,7.1,13.515,13.068,14.307" transform="translate(-11.964 -9.755)" fill="#e59f3f"/>
                <path id="Trazado_825431" data-name="Trazado 825431" d="M73.7,39.926c1.047,2.666,3.537,7.407,8.5,9.344a36.29,36.29,0,0,1,.408-4.2c.054-.369.113-.753.177-1.147-.108.008-.22.013-.331.015-2.995.07-6.173-1.607-8.749-4.016" transform="translate(-14.116 -7.647)" fill="#171612"/>
                <path id="Trazado_825432" data-name="Trazado 825432" d="M59.73,19.558A6.9,6.9,0,0,0,65.4,26.932l.02,0h0l.082.011c.044.177.1.352.157.531.024.077.05.155.077.233a.148.148,0,0,0,.009.021c1.88,5.289,8.738,9.01,12.606,9.526a8.915,8.915,0,0,0,2.651-.062c4.206-.458,5.563-5.932,5.369-10.246a16.348,16.348,0,0,0-.181-1.785l-.019-.116s2.007-5.793,2.6-8.351c1.154-4.956-1.186-10.364-12.093-12.534s-14.272,4.386-15.43,7.93c-.195.59-.454,4.2.087,4.848a2.958,2.958,0,0,0-1.613,2.616" transform="translate(-11.434 -0.715)" fill="#eaad8f"/>
                <path id="Trazado_825433" data-name="Trazado 825433" d="M82.986,26.659a.434.434,0,0,1-.355-.376c-.051-.426-.306-1.36-.767-1.523a2.242,2.242,0,0,0-1.539.247.433.433,0,1,1-.43-.751,3.076,3.076,0,0,1,2.257-.313c1.093.387,1.317,2.051,1.34,2.239a.432.432,0,0,1-.506.476" transform="translate(-15.261 -4.564)" fill="#171612"/>
                <path id="Trazado_825434" data-name="Trazado 825434" d="M88.293,28.206a.443.443,0,0,1-.12-.04.433.433,0,0,1-.192-.581c.069-.137.7-1.342,1.664-1.332a2.443,2.443,0,0,1,1.64.866.433.433,0,0,1-.661.559,1.608,1.608,0,0,0-.988-.559c-.316,0-.731.555-.882.856a.432.432,0,0,1-.462.231" transform="translate(-16.843 -5.028)" fill="#171612"/>
                <path id="Trazado_825435" data-name="Trazado 825435" d="M81.964,32.51s-.775,3.419,2.006,4.395a3.022,3.022,0,0,0,3.873-1.712Z" transform="translate(-15.68 -6.227)" fill="#fff"/>
                <path id="Trazado_825436" data-name="Trazado 825436" d="M83.146,39.051a1.573,1.573,0,0,1-.713-.766.265.265,0,0,1,.494-.19,1.076,1.076,0,0,0,1.032.613.264.264,0,1,1,0,.529,1.725,1.725,0,0,1-.815-.185" transform="translate(-15.785 -7.264)" fill="#c6695d"/>
                <path id="Trazado_825437" data-name="Trazado 825437" d="M66.755,32.179l.02,0h0l.082.012c.044.176.1.352.157.53.024.077.05.155.077.233a.124.124,0,0,0,.009.022,3.589,3.589,0,0,0,1.56-.434,2.836,2.836,0,0,0,.88-.772.4.4,0,0,0-.642-.485,2.164,2.164,0,0,1-1.042.733,2.906,2.906,0,0,1-.722.145,3.6,3.6,0,0,1-.38.013" transform="translate(-12.786 -5.962)" fill="#c6695d"/>
                <g id="Grupo_1074093" data-name="Grupo 1074093" transform="translate(72.776 24.45)" opacity="0.5">
                  <g id="Grupo_1074092" data-name="Grupo 1074092">
                    <g id="Grupo_1074091" data-name="Grupo 1074091" clip-path="url(#clip-path-4)">
                      <path id="Trazado_825438" data-name="Trazado 825438" d="M90.019,30.938c-.039.441.891.893,2.163,1.089A15.975,15.975,0,0,0,92,30.242c-1.118.023-1.947.293-1.982.7" transform="translate(-90.017 -30.242)" fill="#c6695d"/>
                    </g>
                  </g>
                </g>
                <path id="Trazado_825439" data-name="Trazado 825439" d="M61.235,29.644c.225.21.447.423.677.627a3.812,3.812,0,1,0,2.185-.129.919.919,0,0,1-.428-.925c.072.007.145.015.217.026a4.674,4.674,0,1,1-2.651.4" transform="translate(-11.216 -5.596)" fill="#fff"/>
                <path id="Trazado_825440" data-name="Trazado 825440" d="M86.46,31.237a.335.335,0,0,0,.187-.027l1.6-.723a.337.337,0,0,0,.062-.578,4.862,4.862,0,0,1-1.9-3.641.337.337,0,1,0-.67.074,5.612,5.612,0,0,0,1.736,3.754l-1.108.5a.337.337,0,0,0,.091.641" transform="translate(-16.422 -4.974)" fill="#c6695d"/>
                <path id="Trazado_825441" data-name="Trazado 825441" d="M82.557,19.724a.82.82,0,0,0,.715-1.441,2.376,2.376,0,0,0-1.611-.43,5.945,5.945,0,0,0-4.544,2.709,15.209,15.209,0,0,1,4.534-.992,4.564,4.564,0,0,1,.905.154" transform="translate(-14.771 -3.418)" fill="#171612"/>
                <path id="Trazado_825442" data-name="Trazado 825442" d="M89.483,20.789a.82.82,0,0,1-.277-1.585,2.379,2.379,0,0,1,1.667.044c2.9,1.06,2.788,3.227,2.788,3.227A10.886,10.886,0,0,0,90.4,20.9a4.6,4.6,0,0,0-.913-.109" transform="translate(-16.985 -3.653)" fill="#171612"/>
                <g id="Grupo_1074096" data-name="Grupo 1074096" transform="translate(60.332 23.289)" opacity="0.5">
                  <g id="Grupo_1074095" data-name="Grupo 1074095">
                    <g id="Grupo_1074094" data-name="Grupo 1074094" clip-path="url(#clip-path-5)">
                      <path id="Trazado_825443" data-name="Trazado 825443" d="M80.22,30c-.044.5-1.332.8-2.877.665s-2.761-.653-2.716-1.156,1.332-.8,2.877-.665,2.762.654,2.717,1.157" transform="translate(-74.625 -28.806)" fill="#c6695d"/>
                    </g>
                  </g>
                </g>
                <path id="Trazado_825444" data-name="Trazado 825444" d="M66.565,28.305a.4.4,0,0,1-.294-.354c-.238-2.844-3.436-4.4-3.468-4.418a.4.4,0,0,1,.346-.726c.149.07,3.647,1.768,3.923,5.077a.4.4,0,0,1-.507.421" transform="translate(-11.985 -4.361)" fill="#c6695d"/>
                <path id="Trazado_825445" data-name="Trazado 825445" d="M63.344,26.857a.418.418,0,0,1-.138-.069.4.4,0,0,1-.074-.564,2.76,2.76,0,0,1,2.54-.938.4.4,0,0,1-.117.8,1.958,1.958,0,0,0-1.786.631.4.4,0,0,1-.425.143" transform="translate(-12.076 -4.837)" fill="#c6695d"/>
                <path id="Trazado_825446" data-name="Trazado 825446" d="M75.338,9.861a5.1,5.1,0,0,1-2.558,4.714,15.257,15.257,0,0,1-3.708,1.534s2.715,8.973-.673,9.875-2.011-8.464-6.986-9.233c0,0-1.763-.565-1.252-3.7S64.181,1.564,75.143,2.873c8.223.982,15.05,6.158,14.738,11.964s-1.437,4.546-1.437,4.546.932-3.3-2.777-6.237c-3.077-2.434-10.33-3.286-10.33-3.286" transform="translate(-11.505 -0.524)" fill="#171612"/>
                <path id="Trazado_825447" data-name="Trazado 825447" d="M83.984,122.72c4.471-.259,8.883-.011,13.32-.82.386-.07.541.525.151.6-4.489.818-8.959.577-13.484.839-.394.023-.38-.592.013-.614" transform="translate(-16.028 -23.347)" fill="#c6695d"/>
                <path id="Trazado_825448" data-name="Trazado 825448" d="M65.418,110.137c.012.011.023.024.036.036v0a.366.366,0,0,0-.04-.04s-.021-.019-.014-.012Z" transform="translate(-12.526 -21.091)" fill="#eaad8f"/>
                <path id="Trazado_825449" data-name="Trazado 825449" d="M65.5,110.229v0h0l0,0" transform="translate(-12.546 -21.112)" fill="#eaad8f"/>
                <path id="Trazado_825450" data-name="Trazado 825450" d="M53.2,61.54l1.116,2.16q.571,1.113,1.162,2.227,1.168,2.228,2.371,4.435t2.432,4.369c.816,1.444,1.647,2.869,2.5,4.259s1.708,2.756,2.587,4.065,1.766,2.57,2.656,3.713c.444.572.888,1.115,1.321,1.608s.852.939,1.224,1.3l.138.133.129.118c.089.087.162.143.239.213s.133.109.2.17l.073.058c.023.02.049.044.059.051a.256.256,0,0,1,.04.039s.036.023.055.035l.069.042c.083.055.207.118.319.18s.255.129.382.2l.43.2c1.208.545,2.686,1.081,4.2,1.585q1.139.378,2.321.736c.787.243,1.581.482,2.384.712q2.41.695,4.885,1.332c1.646.424,3.3.859,4.969,1.268,3.334.815,6.694,1.624,10.069,2.4l10.118,2.336.03.006a5.18,5.18,0,0,1-1.319,10.225c-.918-.027-1.793-.068-2.687-.106L105,111.466c-1.774-.1-3.543-.233-5.316-.363-3.54-.285-7.085-.609-10.636-1.035-1.775-.213-3.558-.423-5.342-.684s-3.576-.537-5.381-.848q-1.353-.232-2.722-.5t-2.757-.584a55.778,55.778,0,0,1-5.8-1.6l-.79-.281c-.276-.106-.54-.2-.825-.319s-.563-.23-.871-.373l-.226-.1c-.078-.036-.141-.063-.238-.112l-.537-.276c-.184-.094-.344-.186-.507-.28l-.487-.285c-.3-.187-.61-.382-.884-.571s-.561-.385-.812-.575l-.386-.288-.365-.287a33.262,33.262,0,0,1-2.6-2.294c-.783-.764-1.505-1.526-2.194-2.287a83.6,83.6,0,0,1-7.062-9.207Q46.7,86,45.254,83.654t-2.794-4.73q-1.346-2.384-2.616-4.8-.629-1.211-1.247-2.436l-.606-1.237-.3-.628-.314-.671A8.782,8.782,0,0,1,53.12,61.383Z" transform="translate(-6.999 -10.85)" fill="#eaad8f"/>
                <path id="Trazado_825451" data-name="Trazado 825451" d="M74.42,102.5a9.8,9.8,0,0,1,3.864-3.721c.278-.15.011-.559-.264-.412a10.284,10.284,0,0,0-4.036,3.911c-.159.272.277.492.436.222" transform="translate(-14.164 -18.835)" fill="#c6695d"/>
                <path id="Trazado_825452" data-name="Trazado 825452" d="M73.886,100.606a9.978,9.978,0,0,1,2.717-.847c.307-.05.282-.538-.03-.488a10.773,10.773,0,0,0-2.953.925c-.283.135-.015.545.266.411" transform="translate(-14.078 -19.013)" fill="#c6695d"/>
              </g>
            </g>
          </g>
        </g>
        <g id="Grupo_1099902" data-name="Grupo 1099902" transform="translate(19.24 40.423)">
          <path id="Trazado_825224" data-name="Trazado 825224" d="M42.273,185.577H14.5a1.711,1.711,0,0,1-1.711-1.712V183.6a1.711,1.711,0,0,1,1.711-1.711H42.273a1.712,1.712,0,0,1,1.712,1.711v.261a1.712,1.712,0,0,1-1.712,1.712" transform="translate(-2.45 -34.839)" fill="#171612"/>
          <path id="Trazado_825225" data-name="Trazado 825225" d="M390.722,206.647a2.169,2.169,0,0,1-1.954-1.794L356.691,82.3a2.832,2.832,0,0,1,1.3-3.316c1.078-.458,2.245.285,2.6,1.658L392.677,203.2a2.833,2.833,0,0,1-1.3,3.316,1.663,1.663,0,0,1-.651.135" transform="translate(-68.298 -15.103)" fill="#171612"/>
          <path id="Trazado_825226" data-name="Trazado 825226" d="M378.341,185.577H350.572a1.712,1.712,0,0,1-1.712-1.712V183.6a1.712,1.712,0,0,1,1.712-1.711h27.769a1.712,1.712,0,0,1,1.711,1.711v.261a1.712,1.712,0,0,1-1.711,1.712" transform="translate(-66.819 -34.839)" fill="#171612"/>
          <path id="Trazado_825227" data-name="Trazado 825227" d="M336.311,206.647a1.669,1.669,0,0,1-.652-.135,2.831,2.831,0,0,1-1.3-3.316l32.077-122.55c.36-1.374,1.526-2.116,2.6-1.658a2.832,2.832,0,0,1,1.3,3.316l-32.077,122.55a2.17,2.17,0,0,1-1.954,1.794" transform="translate(-64.02 -15.103)" fill="#171612"/>
          <path id="Trazado_825228" data-name="Trazado 825228" d="M56.473,206.647a2.17,2.17,0,0,1-1.955-1.794L22.441,82.3a2.833,2.833,0,0,1,1.3-3.316c1.078-.458,2.245.285,2.6,1.658L58.428,203.2a2.832,2.832,0,0,1-1.3,3.316,1.662,1.662,0,0,1-.65.135" transform="translate(-4.278 -15.103)" fill="#171612"/>
          <path id="Trazado_825229" data-name="Trazado 825229" d="M2.061,206.647a1.669,1.669,0,0,1-.652-.135,2.832,2.832,0,0,1-1.3-3.316L32.183,80.646c.36-1.374,1.526-2.116,2.6-1.658a2.832,2.832,0,0,1,1.3,3.316L4.015,204.853a2.17,2.17,0,0,1-1.954,1.794" transform="translate(0 -15.103)" fill="#171612"/>
          <rect id="Rectángulo_383152" data-name="Rectángulo 383152" width="306.425" height="11.206" transform="translate(9.595 59.396)" fill="#171612"/>
          <rect id="Rectángulo_383153" data-name="Rectángulo 383153" width="306.425" height="1.177" transform="translate(9.595 66.575)" fill="#5a554d"/>
          <path id="Trazado_825230" data-name="Trazado 825230" d="M61.616,72.341h67.412l.732-2.106c.46-1.325-.741-2.646-2.405-2.646h-62.2a2.484,2.484,0,0,0-2.405,1.5Z" transform="translate(-11.802 -12.946)" fill="#fff"/>
          <path id="Trazado_825231" data-name="Trazado 825231" d="M146.908,3.176,138.784,46.9a2.2,2.2,0,0,1-1.975,1.987H86.767c-1.31,0-2.277-1.555-1.975-3.176L92.915,1.987A2.2,2.2,0,0,1,94.89,0h50.043c1.31,0,2.277,1.555,1.975,3.176" transform="translate(-16.23)" fill="#fff"/>
          <path id="Trazado_825232" data-name="Trazado 825232" d="M129.7,31.169c-.239,2.752-2.184,4.983-4.347,4.983s-3.722-2.231-3.484-4.983,2.184-4.983,4.347-4.983,3.722,2.231,3.484,4.983" transform="translate(-23.337 -5.016)" fill="#2b2b39"/>
          <path id="Trazado_825233" data-name="Trazado 825233" d="M96.872,0,88.223,48.887H86.766c-1.31,0-2.277-1.555-1.975-3.176L92.914,1.988A2.2,2.2,0,0,1,94.889,0Z" transform="translate(-16.23)" fill="#2b2b39"/>
          <path id="Trazado_825234" data-name="Trazado 825234" d="M117.273,60.468l-1.706,10.386h5.014l1.706-10.386Z" transform="translate(-22.135 -11.582)" fill="#2b2b39"/>
          <path id="Trazado_825235" data-name="Trazado 825235" d="M106.476,70.459l1.027-1.836a1.866,1.866,0,0,1,1.592-1.045h13.747a1.954,1.954,0,0,1,1.732,1.334l.692,1.685c.323.788-.126,1.732-.825,1.732H107.233c-.755,0-1.2-1.086-.758-1.869" transform="translate(-20.36 -12.944)" fill="#fff"/>
          <path id="Trazado_825236" data-name="Trazado 825236" d="M333.923,72.341H266.511l-.732-2.106c-.46-1.325.741-2.646,2.405-2.646h62.2a2.483,2.483,0,0,1,2.405,1.5Z" transform="translate(-50.887 -12.946)" fill="#fff"/>
          <path id="Trazado_825237" data-name="Trazado 825237" d="M250.058,3.176,258.181,46.9a2.2,2.2,0,0,0,1.975,1.987H310.2c1.31,0,2.277-1.555,1.975-3.176L304.051,1.987A2.2,2.2,0,0,0,302.076,0H252.033c-1.31,0-2.277,1.555-1.975,3.176" transform="translate(-47.884)" fill="#fff"/>
          <path id="Trazado_825238" data-name="Trazado 825238" d="M280.141,31.169c.238,2.752,2.184,4.983,4.347,4.983s3.722-2.231,3.484-4.983-2.184-4.983-4.346-4.983-3.723,2.231-3.484,4.983" transform="translate(-53.652 -5.016)" fill="#2b2b39"/>
          <path id="Trazado_825239" data-name="Trazado 825239" d="M311.96,0l8.649,48.887h1.457c1.31,0,2.277-1.555,1.975-3.176L315.917,1.988A2.2,2.2,0,0,0,313.942,0Z" transform="translate(-59.751)" fill="#2b2b39"/>
          <path id="Trazado_825240" data-name="Trazado 825240" d="M292.842,60.468l1.706,10.386h-5.014l-1.706-10.386Z" transform="translate(-55.129 -11.582)" fill="#2b2b39"/>
          <path id="Trazado_825241" data-name="Trazado 825241" d="M300.713,70.459l-1.027-1.836a1.866,1.866,0,0,0-1.592-1.045H284.347a1.952,1.952,0,0,0-1.731,1.334l-.693,1.685c-.323.788.126,1.732.825,1.732h17.207c.755,0,1.2-1.086.758-1.869" transform="translate(-53.978 -12.944)" fill="#fff"/>
          <path id="Trazado_825242" data-name="Trazado 825242" d="M246.464,58.942H232.058a.924.924,0,0,1-.924-.924V56.893a.924.924,0,0,1,.924-.923h14.406a.924.924,0,0,1,.924.923v1.125a.924.924,0,0,1-.924.924" transform="translate(-44.27 -10.72)" fill="#c04d3a"/>
          <path id="Trazado_825243" data-name="Trazado 825243" d="M248.012,66.288a4,4,0,0,1-.6,2.022c-1.42,2.171-5.147,2.5-7.106,2.509-.306,0-.569,0-.772-.012h0c-.149,0-.265-.012-.344-.016l-.124-.007a17.966,17.966,0,0,1-3.22-.085q-.258-.03-.522-.071c-1.762-.268-3.676-.9-4.6-2.317a3.519,3.519,0,0,1-.485-1.17,4.243,4.243,0,0,1-.093-.572,8.105,8.105,0,0,1,.333-2.928c.057-.209.12-.416.188-.618.1-.3.206-.593.316-.872.176-.452.362-.863.533-1.221l.116-.238c.093-.186.179-.351.255-.493.186-.349.309-.552.309-.552h13.748a17.782,17.782,0,0,1,1.012,2.016c.068.156.137.319.2.489.008.018.014.036.022.055.164.418.321.868.455,1.336.057.2.113.416.16.627a8.426,8.426,0,0,1,.218,1.522,5.669,5.669,0,0,1,0,.6" transform="translate(-44.074 -11.424)" fill="#c04d3a"/>
          <path id="Trazado_825244" data-name="Trazado 825244" d="M247.876,64.969a13.18,13.18,0,0,1-7.124,1.625c-2.454-.081-4.72-1.043-7.09-1.72a9.959,9.959,0,0,0-3.1-.434c.057-.209.12-.416.188-.617,2.59.007,5.333,1.425,7.8,1.923a13.744,13.744,0,0,0,7.359-.55,9.806,9.806,0,0,0,1.813-.855c.057.205.113.416.159.627" transform="translate(-44.16 -12.224)" fill="#df7668"/>
          <path id="Trazado_825245" data-name="Trazado 825245" d="M242.006,59.646c-2.7,3.29-6.911,3.765-10.021,1.045.093-.185.179-.351.255-.493a6.3,6.3,0,0,0,9.074-.552Z" transform="translate(-44.433 -11.424)" fill="#df7668"/>
          <path id="Trazado_825246" data-name="Trazado 825246" d="M250.245,67.72a20.425,20.425,0,0,0-7.705,4.531c-.306,0-.569,0-.772-.012a21.089,21.089,0,0,1,8.474-5.116,5.664,5.664,0,0,1,0,.6" transform="translate(-46.307 -12.856)" fill="#df7668"/>
          <path id="Trazado_825247" data-name="Trazado 825247" d="M235.852,72.337c-.172-.019-.345-.044-.522-.071a2.818,2.818,0,0,0-.889-2.235,5.965,5.965,0,0,0-4.2-1.252,4.257,4.257,0,0,1-.093-.572,7.618,7.618,0,0,1,2.066.2,4.729,4.729,0,0,1,3.11,1.85,3.547,3.547,0,0,1,.529,2.077" transform="translate(-44.081 -13.063)" fill="#df7668"/>
          <path id="Trazado_825248" data-name="Trazado 825248" d="M250.373,62.206a2.592,2.592,0,0,1-1.15.17c-1.323-.1-2.134-1.292-2.418-2.73h.488c.355,1.44,1.356,2.46,2.763,2.045.031-.01.062-.018.091-.029.068.155.137.319.2.489.008.018.014.036.022.055" transform="translate(-47.272 -11.424)" fill="#df7668"/>
          <path id="Trazado_825249" data-name="Trazado 825249" d="M246.376,59.872H232.628a.3.3,0,0,1,0-.592h13.748a.3.3,0,0,1,0,.592" transform="translate(-44.512 -11.354)" fill="#7e231a"/>
          <path id="Trazado_825250" data-name="Trazado 825250" d="M245.122,45.5c-.189.359-.376.693-.551,1-.561.97-1.009,1.615-1.045,1.669H235.26c-.036-.053-.483-.7-1.045-1.669-.175-.3-.362-.637-.551-1-1.013-1.923-2.083-4.521-1.79-6.5a3.5,3.5,0,0,1,.405-1.312,1.188,1.188,0,0,1,.293-.332c.891-.662,2.258.885,2.691.835.583-.067-.366-3.772-1.719-6.4-1.265-2.459-2.089-5.744-.54-6.929a1.8,1.8,0,0,1,.175-.118,1.535,1.535,0,0,1,.177-.095c2.011-.943,2.7,2.493,3.548,2.021.833-.466-1.719-11.441,2.294-11.462.062,0,.129,0,.195.006s.133-.007.2-.006c4.012.022,1.459,11,2.293,11.462s1.536-2.965,3.548-2.021a1.548,1.548,0,0,1,.178.095,2.014,2.014,0,0,1,.175.118c1.549,1.184.725,4.47-.539,6.929-1.353,2.629-2.3,6.334-1.72,6.4.433.05,1.8-1.5,2.691-.835a1.2,1.2,0,0,1,.293.332,3.5,3.5,0,0,1,.4,1.312c.293,1.978-.777,4.575-1.79,6.5" transform="translate(-44.402 -2.912)" fill="#467b6c"/>
          <path id="Trazado_825251" data-name="Trazado 825251" d="M241.335,15.2V48.162h-.39V15.2c.062,0,.129,0,.2.006s.131-.008.195-.006" transform="translate(-46.149 -2.912)" fill="#253f3d"/>
          <path id="Trazado_825252" data-name="Trazado 825252" d="M239.782,36.347l-.147.163-.148.162-.047-.07-6.359-9.343.163-.141a1.812,1.812,0,0,1,.176-.118l6.019,8.844.195.287Z" transform="translate(-44.643 -5.171)" fill="#253f3d"/>
          <path id="Trazado_825253" data-name="Trazado 825253" d="M239.649,52.843l-.147.163-.148.163-.047-.07-6.92-10.166a1.182,1.182,0,0,1,.293-.331l6.627,9.738.195.287Z" transform="translate(-44.51 -8.16)" fill="#253f3d"/>
          <path id="Trazado_825254" data-name="Trazado 825254" d="M247.7,27.259,241.347,36.6l-.048.071-.147-.162L241,36.347l.148-.217.2-.288L247.364,27a1.85,1.85,0,0,1,.176.117Z" transform="translate(-46.16 -5.171)" fill="#253f3d"/>
          <path id="Trazado_825255" data-name="Trazado 825255" d="M248.266,42.932,241.348,53.1l-.048.071-.147-.163L241,52.843l.148-.217.2-.288,6.625-9.737a1.192,1.192,0,0,1,.293.331" transform="translate(-46.161 -8.16)" fill="#253f3d"/>
          <rect id="Rectángulo_383154" data-name="Rectángulo 383154" width="324.485" height="191.544" transform="translate(0)" fill="none"/>
        </g>
      </g>
      <path id="Rectángulo_401740" data-name="Rectángulo 401740" d="M65.8,21A44.851,44.851,0,0,0,21,65.8V70a44.8,44.8,0,0,0,89.6,0V65.8A44.851,44.851,0,0,0,65.8,21m0-21a65.8,65.8,0,0,1,65.8,65.8V70A65.8,65.8,0,1,1,0,70V65.8A65.8,65.8,0,0,1,65.8,0Z" transform="translate(-65.8 174.3)" fill="#fff"/>
      <path id="Rectángulo_401740-2" data-name="Rectángulo 401740" d="M65.8,21A44.851,44.851,0,0,0,21,65.8V70a44.8,44.8,0,0,0,89.6,0V65.8A44.851,44.851,0,0,0,65.8,21m0-21a65.8,65.8,0,0,1,65.8,65.8V70A65.8,65.8,0,1,1,0,70V65.8A65.8,65.8,0,0,1,65.8,0Z" transform="translate(148.4 -44.1)" fill="#fff"/>
    </g>
  </g>
</svg>
