<svg xmlns="http://www.w3.org/2000/svg" xmlns:xlink="http://www.w3.org/1999/xlink" width="400.246" height="469" viewBox="0 0 400.246 469">
  <defs>
    <clipPath id="clip-path">
      <rect id="Rectángulo_405845" data-name="Rectángulo 405845" width="388.375" height="412.575" fill="none"/>
    </clipPath>
    <clipPath id="clip-path-3">
      <rect id="Rectángulo_405842" data-name="Rectángulo 405842" width="35.049" height="4.124" fill="none"/>
    </clipPath>
    <clipPath id="clip-path-4">
      <rect id="Rectángulo_405848" data-name="Rectángulo 405848" width="398" height="469" rx="20" transform="translate(391.523 1775)" fill="#fff" stroke="#707070" stroke-width="1"/>
    </clipPath>
  </defs>
  <g id="Grupo_1102834" data-name="Grupo 1102834" transform="translate(-389.523 -1775)">
    <rect id="Rectángulo_405835" data-name="Rectángulo 405835" width="400" height="422" rx="20" transform="translate(389.523 1822)" fill="#e6f0fc"/>
    <rect id="Rectángulo_405837" data-name="Rectángulo 405837" width="303" height="431" rx="15" transform="translate(443.523 1775)" fill="#1169e3"/>
    <g id="Grupo_1102833" data-name="Grupo 1102833" transform="translate(401.394 1506.375)">
      <g id="Grupo_1102828" data-name="Grupo 1102828" transform="translate(-9.586 291.691)">
        <g id="Grupo_1102835" data-name="Grupo 1102835">
          <path id="Trazado_881895" data-name="Trazado 881895" d="M6.688,0A6.688,6.688,0,0,0,0,6.688V158.026a6.688,6.688,0,0,0,6.688,6.688H220.951a6.688,6.688,0,0,0,6.688-6.688V6.688A6.688,6.688,0,0,0,220.95,0" fill="#bdadb9"/>
          <path id="Trazado_881897" data-name="Trazado 881897" d="M227.516,139.708H7.256V10.383a4.931,4.931,0,0,1,4.93-4.931h210.4a4.931,4.931,0,0,1,4.93,4.931Z" transform="translate(-3.567 -2.68)" fill="#fff"/>
          <path id="Trazado_881898" data-name="Trazado 881898" d="M227.516,16.609H7.256v-6.5A4.654,4.654,0,0,1,11.91,5.453H223.695a3.822,3.822,0,0,1,3.822,3.822Z" transform="translate(-3.567 -2.68)" fill="#f5f5f5"/>
          <path id="Trazado_881899" data-name="Trazado 881899" d="M21.1,15.388a1.547,1.547,0,1,1-1.547-1.547A1.547,1.547,0,0,1,21.1,15.388" transform="translate(-8.852 -6.804)" fill="#e0e0e0"/>
          <path id="Trazado_881900" data-name="Trazado 881900" d="M30.174,15.388a1.547,1.547,0,1,1-1.547-1.547,1.547,1.547,0,0,1,1.547,1.547" transform="translate(-13.311 -6.804)" fill="#e0e0e0"/>
          <path id="Trazado_881901" data-name="Trazado 881901" d="M38.8,15.388a1.547,1.547,0,1,1-1.547-1.547A1.547,1.547,0,0,1,38.8,15.388" transform="translate(-17.552 -6.804)" fill="#e0e0e0"/>
          <path id="Trazado_881902" data-name="Trazado 881902" d="M243.679,323.83c0,.073-17.962.132-40.113.132s-40.117-.059-40.117-.132,17.958-.132,40.117-.132,40.113.059,40.113.132" transform="translate(-80.343 -159.113)" fill="#263238"/>
          <rect id="Rectángulo_405846" data-name="Rectángulo 405846" width="36.203" height="123.1" transform="translate(3.689 13.928)" fill="#ebebeb"/>
          <path id="Trazado_881903" data-name="Trazado 881903" d="M36.886,31.722a2.481,2.481,0,0,1,.6-.262l.124-.6,1.008-.017.145.592a2.473,2.473,0,0,1,.612.241l.509-.334.725.7-.316.521a2.465,2.465,0,0,1,.262.6l.6.124.018,1.008-.592.145a2.458,2.458,0,0,1-.24.612l.334.509-.7.726-.521-.316a2.486,2.486,0,0,1-.6.262l-.125.6-1.008.018-.145-.592a2.462,2.462,0,0,1-.611-.24l-.509.334-.726-.7.316-.521a2.481,2.481,0,0,1-.262-.6l-.6-.124L35.166,33.4l.592-.145a2.473,2.473,0,0,1,.24-.612l-.334-.509.7-.725Zm.537,1.343a1.082,1.082,0,1,0,1.529-.027,1.082,1.082,0,0,0-1.529.027" transform="translate(-17.286 -15.162)" fill="#e0e0e0"/>
          <path id="Trazado_881904" data-name="Trazado 881904" d="M38.172,84.989H22.39a1.622,1.622,0,0,1,0-3.244H38.172a1.622,1.622,0,0,1,0,3.244" transform="translate(-10.209 -40.182)" fill="#e0e0e0"/>
          <path id="Trazado_881905" data-name="Trazado 881905" d="M38.172,68.738H22.39a1.622,1.622,0,0,1,0-3.244H38.172a1.622,1.622,0,0,1,0,3.244" transform="translate(-10.209 -32.193)" fill="#e0e0e0"/>
          <path id="Trazado_881906" data-name="Trazado 881906" d="M38.172,53.873H22.39a1.622,1.622,0,0,1,0-3.244H38.172a1.622,1.622,0,0,1,0,3.244" transform="translate(-10.209 -24.887)" fill="#e0e0e0"/>
          <path id="Trazado_881907" data-name="Trazado 881907" d="M122.373,52.041H107.424a1.622,1.622,0,0,1,0-3.243h14.949a1.622,1.622,0,1,1,0,3.243" transform="translate(-52.007 -23.987)" fill="#263238"/>
          <path id="Trazado_881908" data-name="Trazado 881908" d="M122.373,68.738H107.424a1.622,1.622,0,0,1,0-3.243h14.949a1.622,1.622,0,1,1,0,3.243" transform="translate(-52.007 -32.194)" fill="#e0e0e0"/>
          <path id="Trazado_881909" data-name="Trazado 881909" d="M122.373,85.993H107.424a1.622,1.622,0,0,1,0-3.243h14.949a1.622,1.622,0,1,1,0,3.243" transform="translate(-52.007 -40.676)" fill="#0b65bf"/>
          <path id="Trazado_881910" data-name="Trazado 881910" d="M116,119.354h-8.572a1.622,1.622,0,1,1,0-3.244H116a1.622,1.622,0,0,1,0,3.244" transform="translate(-52.007 -57.074)" fill="#263238"/>
          <path id="Trazado_881911" data-name="Trazado 881911" d="M116,136.647h-8.572a1.622,1.622,0,1,1,0-3.243H116a1.622,1.622,0,1,1,0,3.243" transform="translate(-52.007 -65.574)" fill="#263238"/>
          <path id="Trazado_881912" data-name="Trazado 881912" d="M159.191,136.647H143.474a1.622,1.622,0,1,1,0-3.243h15.717a1.622,1.622,0,1,1,0,3.243" transform="translate(-69.727 -65.574)" fill="#e0e0e0"/>
          <path id="Trazado_881913" data-name="Trazado 881913" d="M141.707,152.025H125.99a1.622,1.622,0,1,1,0-3.244h15.717a1.622,1.622,0,0,1,0,3.244" transform="translate(-61.133 -73.133)" fill="#0b65bf"/>
          <path id="Trazado_881914" data-name="Trazado 881914" d="M153.338,169.565h-9.85a1.58,1.58,0,0,1-1.58-1.58V167.9a1.58,1.58,0,0,1,1.58-1.58h9.85a1.581,1.581,0,0,1,1.58,1.58v.083a1.58,1.58,0,0,1-1.58,1.58" transform="translate(-69.755 -81.755)" fill="#0b65bf"/>
          <path id="Trazado_881915" data-name="Trazado 881915" d="M153.3,203.94H143.53a1.622,1.622,0,1,1,0-3.243H153.3a1.622,1.622,0,1,1,0,3.243" transform="translate(-69.755 -98.652)" fill="#0b65bf"/>
          <path id="Trazado_881916" data-name="Trazado 881916" d="M153.3,240.249H143.53a1.622,1.622,0,1,1,0-3.244H153.3a1.622,1.622,0,0,1,0,3.244" transform="translate(-69.755 -116.499)" fill="#0b65bf"/>
          <path id="Trazado_881917" data-name="Trazado 881917" d="M193.4,240.249H176.283a1.622,1.622,0,0,1,0-3.244H193.4a1.622,1.622,0,1,1,0,3.244" transform="translate(-85.854 -116.499)" fill="#455a64"/>
          <path id="Trazado_881918" data-name="Trazado 881918" d="M231.142,240.249h-2.467a1.622,1.622,0,0,1,0-3.244h2.467a1.622,1.622,0,0,1,0,3.244" transform="translate(-111.608 -116.499)" fill="#e0e0e0"/>
          <path id="Trazado_881919" data-name="Trazado 881919" d="M193.951,203.94H179.482a1.622,1.622,0,1,1,0-3.243h14.469a1.622,1.622,0,1,1,0,3.243" transform="translate(-87.427 -98.652)" fill="#e0e0e0"/>
          <path id="Trazado_881920" data-name="Trazado 881920" d="M225.68,219.88h-46.2a1.622,1.622,0,1,1,0-3.243h46.2a1.622,1.622,0,1,1,0,3.243" transform="translate(-87.427 -106.488)" fill="#e0e0e0"/>
          <path id="Trazado_881921" data-name="Trazado 881921" d="M252.323,203.94h-29.5a1.622,1.622,0,1,1,0-3.243h29.5a1.622,1.622,0,1,1,0,3.243" transform="translate(-108.733 -98.652)" fill="#455a64"/>
          <path id="Trazado_881922" data-name="Trazado 881922" d="M189.735,169.565h-12.3a1.58,1.58,0,0,1-1.58-1.58V167.9a1.58,1.58,0,0,1,1.58-1.58h12.3a1.58,1.58,0,0,1,1.58,1.58v.084a1.58,1.58,0,0,1-1.58,1.58" transform="translate(-86.439 -81.755)" fill="#455a64"/>
          <path id="Trazado_881923" data-name="Trazado 881923" d="M219.414,169.565h-3.12a1.58,1.58,0,0,1-1.58-1.58V167.9a1.58,1.58,0,0,1,1.58-1.58h3.12a1.581,1.581,0,0,1,1.58,1.58v.083a1.58,1.58,0,0,1-1.58,1.58" transform="translate(-105.542 -81.755)" fill="#e0e0e0"/>
          <path id="Trazado_881924" data-name="Trazado 881924" d="M253.4,169.565H238.04a1.58,1.58,0,0,1-1.58-1.58V167.9a1.58,1.58,0,0,1,1.58-1.58H253.4a1.581,1.581,0,0,1,1.58,1.58v.084a1.58,1.58,0,0,1-1.58,1.58" transform="translate(-116.231 -81.755)" fill="#e0e0e0"/>
          <path id="Trazado_881925" data-name="Trazado 881925" d="M174.455,152.025h-3.5a1.622,1.622,0,0,1,0-3.244h3.5a1.622,1.622,0,1,1,0,3.244" transform="translate(-83.235 -73.133)" fill="#263238"/>
          <path id="Trazado_881926" data-name="Trazado 881926" d="M214.64,152.025h-22.3a1.622,1.622,0,1,1,0-3.244h22.3a1.622,1.622,0,0,1,0,3.244" transform="translate(-93.747 -73.133)" fill="#e0e0e0"/>
          <path id="Trazado_881927" data-name="Trazado 881927" d="M169.473,52.041H154.524a1.622,1.622,0,0,1,0-3.243h14.948a1.622,1.622,0,1,1,0,3.243" transform="translate(-75.159 -23.987)" fill="#455a64"/>
          <path id="Trazado_881928" data-name="Trazado 881928" d="M188.734,68.738H154.525a1.622,1.622,0,1,1,0-3.243h34.209a1.622,1.622,0,1,1,0,3.243" transform="translate(-75.159 -32.194)" fill="#263238"/>
          <path id="Trazado_881929" data-name="Trazado 881929" d="M225.564,85.993H154.525a1.622,1.622,0,1,1,0-3.243h71.039a1.622,1.622,0,1,1,0,3.243" transform="translate(-75.159 -40.676)" fill="#e0e0e0"/>
          <path id="Trazado_881930" data-name="Trazado 881930" d="M188.022,98.147h-33.5a1.622,1.622,0,0,1,0-3.244h33.5a1.622,1.622,0,1,1,0,3.244" transform="translate(-75.16 -46.649)" fill="#e0e0e0"/>
          <path id="Trazado_881931" data-name="Trazado 881931" d="M174.544,119.354h-33.5a1.622,1.622,0,0,1,0-3.244h33.5a1.622,1.622,0,1,1,0,3.244" transform="translate(-68.535 -57.074)" fill="#455a64"/>
          <path id="Trazado_881932" data-name="Trazado 881932" d="M232.953,119.354H221.725a1.622,1.622,0,0,1,0-3.244h11.228a1.622,1.622,0,1,1,0,3.244" transform="translate(-108.191 -57.074)" fill="#0b65bf"/>
          <path id="Trazado_881933" data-name="Trazado 881933" d="M279.761,119.251H258.552a1.622,1.622,0,0,1,0-3.244h21.209a1.622,1.622,0,1,1,0,3.244" transform="translate(-126.294 -57.023)" fill="#263238"/>
          <path id="Trazado_881934" data-name="Trazado 881934" d="M336.527,119.251H315.318a1.622,1.622,0,0,1,0-3.244h21.209a1.622,1.622,0,1,1,0,3.244" transform="translate(-154.197 -57.023)" fill="#e0e0e0"/>
          <path id="Trazado_881935" data-name="Trazado 881935" d="M31.338,102.19H22.391a1.622,1.622,0,1,1,0-3.243h8.947a1.622,1.622,0,1,1,0,3.243" transform="translate(-10.209 -48.637)" fill="#e0e0e0"/>
          <path id="Trazado_881936" data-name="Trazado 881936" d="M28.66,153.8H22.391a1.622,1.622,0,0,1,0-3.244H28.66a1.622,1.622,0,1,1,0,3.244" transform="translate(-10.209 -74.003)" fill="#e0e0e0"/>
          <path id="Trazado_881937" data-name="Trazado 881937" d="M39.794,119.392h-17.4a1.622,1.622,0,0,1,0-3.244h17.4a1.622,1.622,0,1,1,0,3.244" transform="translate(-10.209 -57.092)" fill="#e0e0e0"/>
          <path id="Trazado_881938" data-name="Trazado 881938" d="M36.74,136.594H22.39a1.622,1.622,0,1,1,0-3.243H36.74a1.622,1.622,0,1,1,0,3.243" transform="translate(-10.208 -65.548)" fill="#e0e0e0"/>
          <path id="Trazado_881939" data-name="Trazado 881939" d="M91.4,50.394a1.647,1.647,0,1,1-1.647-1.647A1.648,1.648,0,0,1,91.4,50.394" transform="translate(-43.306 -23.961)" fill="#455a64"/>
          <path id="Trazado_881940" data-name="Trazado 881940" d="M91.4,67.041a1.647,1.647,0,1,1-1.647-1.647A1.648,1.648,0,0,1,91.4,67.041" transform="translate(-43.306 -32.144)" fill="#455a64"/>
          <path id="Trazado_881941" data-name="Trazado 881941" d="M91.4,84.346A1.647,1.647,0,1,1,89.748,82.7,1.648,1.648,0,0,1,91.4,84.346" transform="translate(-43.306 -40.651)" fill="#455a64"/>
          <path id="Trazado_881942" data-name="Trazado 881942" d="M91.4,101.652A1.647,1.647,0,1,1,89.748,100a1.648,1.648,0,0,1,1.647,1.647" transform="translate(-43.306 -49.157)" fill="#455a64"/>
          <path id="Trazado_881943" data-name="Trazado 881943" d="M91.4,118.957a1.647,1.647,0,1,1-1.647-1.647,1.647,1.647,0,0,1,1.647,1.647" transform="translate(-43.306 -57.663)" fill="#455a64"/>
          <path id="Trazado_881944" data-name="Trazado 881944" d="M91.4,136.262a1.647,1.647,0,1,1-1.647-1.647,1.648,1.648,0,0,1,1.647,1.647" transform="translate(-43.306 -66.17)" fill="#455a64"/>
          <path id="Trazado_881945" data-name="Trazado 881945" d="M91.4,153.568a1.647,1.647,0,1,1-1.647-1.647,1.648,1.648,0,0,1,1.647,1.647" transform="translate(-43.306 -74.676)" fill="#455a64"/>
          <path id="Trazado_881946" data-name="Trazado 881946" d="M91.4,170.873a1.647,1.647,0,1,1-1.647-1.647,1.647,1.647,0,0,1,1.647,1.647" transform="translate(-43.306 -83.183)" fill="#455a64"/>
          <path id="Trazado_881947" data-name="Trazado 881947" d="M91.4,188.178a1.647,1.647,0,1,1-1.647-1.647,1.647,1.647,0,0,1,1.647,1.647" transform="translate(-43.306 -91.689)" fill="#455a64"/>
          <path id="Trazado_881948" data-name="Trazado 881948" d="M91.4,205.484a1.647,1.647,0,1,1-1.647-1.647,1.648,1.648,0,0,1,1.647,1.647" transform="translate(-43.306 -100.196)" fill="#455a64"/>
          <path id="Trazado_881949" data-name="Trazado 881949" d="M91.4,222.789a1.647,1.647,0,1,1-1.647-1.647,1.647,1.647,0,0,1,1.647,1.647" transform="translate(-43.306 -108.702)" fill="#455a64"/>
          <path id="Trazado_881950" data-name="Trazado 881950" d="M91.4,240.094a1.647,1.647,0,1,1-1.647-1.647,1.647,1.647,0,0,1,1.647,1.647" transform="translate(-43.306 -117.208)" fill="#455a64"/>
        </g>
      </g>
      <g id="Grupo_1102823" data-name="Grupo 1102823" transform="translate(0 322.337)">
        <g id="Grupo_1102822" data-name="Grupo 1102822" clip-path="url(#clip-path)">
          <g id="Grupo_1102821" data-name="Grupo 1102821">
            <g id="Grupo_1102820" data-name="Grupo 1102820" clip-path="url(#clip-path)">
              <path id="Trazado_881751" data-name="Trazado 881751" d="M111.56,35.005l6.632,53.558c.948,9.169,2.4,22.739,16.828,20.579,12.377-2.819,14.326-15.072,13.432-23.626-.424-4.059-.768-7.445-.784-7.864,0,0,13.591-2.711,13.178-16.4-.2-6.615-1.72-20.206-3.239-32.485A25.508,25.508,0,0,0,131.2,6.43l-1.319.057c-14.2,1.437-20.15,14.366-18.32,28.518" transform="translate(36.072 2.077)" fill="#ffceb3"/>
              <path id="Trazado_881752" data-name="Trazado 881752" d="M143.191,61.306A33.081,33.081,0,0,1,125.154,56.8s4.77,9.808,18.369,7.995Z" transform="translate(40.585 18.418)" fill="#ff9c65"/>
              <path id="Trazado_881753" data-name="Trazado 881753" d="M131.961,30.534c-.291.114-1.755-.759-4.019-1.074-2.257-.334-4.044.074-4.259-.113-.107-.085.212-.32.992-.509a9.616,9.616,0,0,1,3.448-.1,8.633,8.633,0,0,1,3.161,1.042c.637.392.818.7.677.748" transform="translate(40.101 9.286)" fill="#263238"/>
              <path id="Trazado_881754" data-name="Trazado 881754" d="M130.524,34.207a1.849,1.849,0,0,1-1.7,1.94,1.77,1.77,0,0,1-1.976-1.585,1.852,1.852,0,0,1,1.7-1.941,1.77,1.77,0,0,1,1.977,1.586" transform="translate(41.132 10.575)" fill="#263238"/>
              <path id="Trazado_881755" data-name="Trazado 881755" d="M135.614,45.194A13.934,13.934,0,0,1,139,44.432c.534-.078,1.037-.207,1.112-.576a2.737,2.737,0,0,0-.426-1.577q-.84-1.915-1.761-4.019c-2.453-5.726-4.252-10.445-4.022-10.541s2.408,4.467,4.86,10.193q.888,2.118,1.7,4.047a3.111,3.111,0,0,1,.368,2.1,1.345,1.345,0,0,1-.849.822,3.585,3.585,0,0,1-.907.166,13.7,13.7,0,0,1-3.46.152" transform="translate(43.417 8.988)" fill="#263238"/>
              <path id="Trazado_881756" data-name="Trazado 881756" d="M130.1,23.438c-.162.53-2.022.362-4.186.726-2.172.318-3.9,1.051-4.207.6-.138-.219.147-.722.834-1.257a6.913,6.913,0,0,1,3.083-1.266,6.842,6.842,0,0,1,3.312.26c.813.3,1.232.691,1.164.942" transform="translate(39.456 7.182)" fill="#263238"/>
              <path id="Trazado_881757" data-name="Trazado 881757" d="M146.741,24.729c-.191.438-2.016.188-4.17.371-2.16.144-3.905.665-4.182.261-.123-.192.188-.6.9-1.014a7.549,7.549,0,0,1,3.115-.894,7.829,7.829,0,0,1,3.248.412c.783.3,1.172.657,1.09.865" transform="translate(44.868 7.598)" fill="#263238"/>
              <path id="Trazado_881758" data-name="Trazado 881758" d="M114.908,35.822c-.253-.089-10.054-2.237-9.066,7.546s10.6,6.772,10.593,6.49-1.527-14.036-1.527-14.036" transform="translate(34.3 11.532)" fill="#ffceb3"/>
              <path id="Trazado_881759" data-name="Trazado 881759" d="M112.452,45.637c-.046-.025-.159.138-.433.3a1.717,1.717,0,0,1-1.271.155c-1.071-.275-2.107-1.829-2.333-3.586a5.665,5.665,0,0,1,.232-2.488A1.976,1.976,0,0,1,109.8,38.58a.871.871,0,0,1,1.053.366c.159.26.115.461.17.473.03.023.193-.184.074-.581a1.1,1.1,0,0,0-.446-.573,1.291,1.291,0,0,0-.968-.154,2.4,2.4,0,0,0-1.628,1.7,5.819,5.819,0,0,0-.315,2.785c.262,1.965,1.457,3.708,2.912,3.974a1.828,1.828,0,0,0,1.532-.417c.279-.271.309-.5.273-.511" transform="translate(34.921 12.348)" fill="#ff9c65"/>
              <path id="Trazado_881760" data-name="Trazado 881760" d="M137.7,46.671c0-.257-1.9-.064-3.749-1.16a10.491,10.491,0,0,1-2.131-1.763c-.513-.523-.867-.838-.948-.771s.12.479.543,1.106a6.905,6.905,0,0,0,2.16,2.069,5.6,5.6,0,0,0,2.908.776c.771-.005,1.225-.173,1.217-.257" transform="translate(42.433 13.934)" fill="#263238"/>
              <path id="Trazado_881761" data-name="Trazado 881761" d="M146.761,28.005c-.192.242-1.882.285-3.981,1.191-2.1.889-3.433,2.135-3.711,2.094-.134-.013.024-.368.6-.92a10.1,10.1,0,0,1,2.909-1.846,9,9,0,0,1,3.231-.776c.742-.009,1.049.146.952.258" transform="translate(45.083 8.998)" fill="#263238"/>
              <path id="Trazado_881762" data-name="Trazado 881762" d="M144.68,32.969a1.849,1.849,0,0,1-1.7,1.941A1.769,1.769,0,0,1,141,33.326a1.85,1.85,0,0,1,1.7-1.941,1.77,1.77,0,0,1,1.977,1.585" transform="translate(45.722 10.174)" fill="#263238"/>
              <path id="Trazado_881763" data-name="Trazado 881763" d="M178.351,16.55a2.214,2.214,0,0,0-1.18-1.163,6.8,6.8,0,0,0-3.529-.16,19.638,19.638,0,0,1-8.724-1.146,9.727,9.727,0,0,0,2.29-2.039,5.855,5.855,0,0,0,1-5.975,1.3,1.3,0,0,0-.83-.8c-.622-.115-1.081.536-1.446,1.054a5.037,5.037,0,0,1-4.48,2.541,8.274,8.274,0,0,1-3.643-.632c-.045-.037-.086-.079-.131-.117-.54-.441-1.065-.861-1.581-1.267l0,0v0c-3.885-3.052-7.16-5.1-10.39-5.984-4.734-1.3-12.385-1.157-16.956.628s-8.364,6.1-8.459,11.009c-2.9-1.929-6.873-1.45-9.944.219l-.085-.025c-3.438,1.694-5.038,5.721-5.672,9.5-.034.207-.061.414-.091.622a14.324,14.324,0,0,1-4.281,5.275c-.323.242-.691.536-.687.939s.375.69.726.885a7.2,7.2,0,0,0,3.043.87,16.256,16.256,0,0,1-.9,2.658c-.326.732-.712,1.61-.275,2.283a1.526,1.526,0,0,0,1.663.506,4.464,4.464,0,0,0,1.583-.95q-.433,1.506-.867,3.013a8.537,8.537,0,0,0,3.872-.712,95.238,95.238,0,0,0,3.678,9.814c1.5-.179,2.878-.694,3.9.03,1.388.984,2.2,3.043,4.19,1.994,1.014-.534,1.726-2.875,1.956-4a53.248,53.248,0,0,0-.306-22.657,17.115,17.115,0,0,1,4.811-4.4l-.144.163c3.635-1.755,7.77-3.546,11.57-2.184,2.948,1.055,4.921,3.758,7.274,5.826A20.233,20.233,0,0,0,160.75,27.45c1.005,4.028,1.169,9.267,1.812,13.06l2.814-6.563.005.03c.212-.478.377-.955.535-1.432l.056-.146,0-.016a23.876,23.876,0,0,1,.822-2.3l.04.028a2.4,2.4,0,0,0,3.115-3.593,5.44,5.44,0,0,0-1.287-1.024,3.8,3.8,0,0,0,3.7.514,2.978,2.978,0,0,0,1.753-3.169A2.531,2.531,0,0,0,172.379,21a8.571,8.571,0,0,0,4.712-1.626c.891-.656,1.724-1.661,1.261-2.823" transform="translate(32.275 0)" fill="#263238"/>
              <path id="Trazado_881764" data-name="Trazado 881764" d="M122.809,10.238a11.564,11.564,0,0,0-1.216,1.4,9.794,9.794,0,0,0-1.559,4.744,17.117,17.117,0,0,0,.053,3.486c.139,1.25.395,2.574.653,3.973a35.9,35.9,0,0,1,.618,4.435,15.744,15.744,0,0,1-.034,2.38,4.914,4.914,0,0,1-.693,2.386,2.063,2.063,0,0,1-1.839.866,3.068,3.068,0,0,1-1.834-.773,7.071,7.071,0,0,1-1.706-3.3h.287a11.43,11.43,0,0,1-1.319,3.031,4.069,4.069,0,0,1-2.471,1.743,2.625,2.625,0,0,1-1.426-.082,2.267,2.267,0,0,1-1.058-.826,2.326,2.326,0,0,1-.428-1.168,1.693,1.693,0,0,1,.313-1.1l.159.111a8.777,8.777,0,0,1-2.659,2.523,7.769,7.769,0,0,1-.862.456,1.571,1.571,0,0,1-.314.118,1.63,1.63,0,0,1,.291-.166c.192-.107.477-.262.829-.5a9.1,9.1,0,0,0,2.555-2.544l.159.111a1.75,1.75,0,0,0,.143,2.025,2.054,2.054,0,0,0,.955.73,2.387,2.387,0,0,0,1.291.058,3.807,3.807,0,0,0,2.29-1.649,11.273,11.273,0,0,0,1.266-2.964l.144-.457.144.458a6.835,6.835,0,0,0,1.626,3.15,2.762,2.762,0,0,0,1.641.691,1.736,1.736,0,0,0,1.564-.734,4.673,4.673,0,0,0,.637-2.231,15.624,15.624,0,0,0,.037-2.332,36.575,36.575,0,0,0-.595-4.4c-.25-1.4-.5-2.731-.628-4a17.177,17.177,0,0,1-.015-3.536,9.658,9.658,0,0,1,1.682-4.793,5.535,5.535,0,0,1,1.318-1.33" transform="translate(34.203 3.32)" fill="#455a64"/>
              <path id="Trazado_881765" data-name="Trazado 881765" d="M161.96,20.661s-.029.04-.1.1l-.31.287a4.518,4.518,0,0,1-.532.434,7.446,7.446,0,0,1-.773.53,12.117,12.117,0,0,1-5.682,1.718,15.487,15.487,0,0,1-8.534-2.073,26.8,26.8,0,0,1-7.97-7.288c-1.176-1.527-2.174-3.117-3.242-4.569a18.136,18.136,0,0,0-3.508-3.777,9.314,9.314,0,0,0-4.182-1.918,6.682,6.682,0,0,0-2.087,0,7.365,7.365,0,0,0-1.845.581,7.913,7.913,0,0,0-3.929,4.191A9.466,9.466,0,0,0,118.8,11a.464.464,0,0,1-.005-.144c0-.114.009-.253.016-.422a6.839,6.839,0,0,1,.336-1.59,7.777,7.777,0,0,1,1.279-2.234,7.989,7.989,0,0,1,2.67-2.119,7.476,7.476,0,0,1,1.9-.62,6.834,6.834,0,0,1,2.169-.02A9.537,9.537,0,0,1,131.49,5.8a18.2,18.2,0,0,1,3.581,3.825c1.079,1.462,2.078,3.047,3.244,4.561a26.791,26.791,0,0,0,7.86,7.224,15.384,15.384,0,0,0,8.377,2.1,12.292,12.292,0,0,0,5.63-1.6,19.235,19.235,0,0,0,1.779-1.25" transform="translate(38.524 1.224)" fill="#455a64"/>
              <path id="Trazado_881766" data-name="Trazado 881766" d="M155.307,11.92a2.157,2.157,0,0,1-.448.395,10.593,10.593,0,0,1-1.355.9,14.031,14.031,0,0,1-2.193,1.012,16.044,16.044,0,0,1-2.87.726,16.1,16.1,0,0,1-2.957.14,14.192,14.192,0,0,1-2.393-.331,10.559,10.559,0,0,1-1.557-.466,2.126,2.126,0,0,1-.543-.248c.02-.057.813.241,2.145.493a16.366,16.366,0,0,0,2.36.26,17.653,17.653,0,0,0,2.9-.164,17.437,17.437,0,0,0,2.819-.686,16.233,16.233,0,0,0,2.182-.934c1.2-.628,1.874-1.143,1.91-1.1" transform="translate(45.72 3.864)" fill="#455a64"/>
              <path id="Trazado_881767" data-name="Trazado 881767" d="M167.765,82.147,82.278,83.2A7.757,7.757,0,0,0,74.619,90.9L73.413,241.8l115.174,1.572-13-154.125a7.755,7.755,0,0,0-7.824-7.1" transform="translate(23.806 26.638)" fill="#455a64"/>
              <path id="Trazado_881768" data-name="Trazado 881768" d="M225.639,276.733l-.471,29.143s29.464,10.266,29.9,15.661l-56.539,1.115-1.13-45.439Z" transform="translate(64.013 89.739)" fill="#0b65bf"/>
              <path id="Trazado_881769" data-name="Trazado 881769" d="M205.521,297.176a2.309,2.309,0,0,0-1.544,2.666,2.218,2.218,0,0,0,2.629,1.555,2.435,2.435,0,0,0,1.621-2.833,2.3,2.3,0,0,0-2.915-1.312" transform="translate(66.127 96.334)" fill="#e0e0e0"/>
              <path id="Trazado_881770" data-name="Trazado 881770" d="M198.3,312.531l-.188-4.587,54.437.648s2.539,1.046,2.29,2.825Z" transform="translate(64.243 99.86)" fill="#e0e0e0"/>
              <path id="Trazado_881771" data-name="Trazado 881771" d="M220.3,298.567c0,.277-1.381.429-2.723,1.343-1.364.881-2.042,2.09-2.3,1.985-.256-.049.123-1.707,1.767-2.785,1.633-1.094,3.309-.8,3.254-.543" transform="translate(69.788 96.742)" fill="#263238"/>
              <path id="Trazado_881772" data-name="Trazado 881772" d="M224.47,300.3c.069.266-1.118.759-2.033,1.945-.949,1.159-1.161,2.426-1.437,2.421-.258.048-.481-1.565.685-3.018s2.774-1.612,2.785-1.348" transform="translate(71.599 97.346)" fill="#263238"/>
              <path id="Trazado_881773" data-name="Trazado 881773" d="M226.306,306.759c-.25.064-.661-1.308.017-2.834s1.959-2.153,2.08-1.925c.16.224-.662,1.051-1.2,2.313-.568,1.248-.624,2.413-.9,2.446" transform="translate(73.272 97.917)" fill="#263238"/>
              <path id="Trazado_881774" data-name="Trazado 881774" d="M220.018,293.715c-.11.254-1.385-.1-2.944.034-1.561.1-2.765.653-2.913.42-.163-.2,1-1.242,2.839-1.377s3.149.7,3.018.923" transform="translate(69.443 94.941)" fill="#263238"/>
              <path id="Trazado_881775" data-name="Trazado 881775" d="M173.791,165.352s16.743,2.52,33.99,5.724c20.679,3.84,42.689,8.641,45.641,10.96,5.411,4.252,6.571,15.849,8.89,30.151s2.843,120.708,2.843,120.708l-38.405,1.119-7.6-111.639s-56.075-.005-67.611-.089c-9.31-.066-34.343.971-43.846-4.034-14.948-7.874-12.15-37.88-12.15-37.88,3.73-3.21,67.673-22.151,67.673-22.151Z" transform="translate(30.917 51.308)" fill="#263238"/>
              <path id="Trazado_881776" data-name="Trazado 881776" d="M232.912,223.878l5.526,29.376s31.715,4.25,33.266,9.579l-56.576,12.761L204.64,230.175Z" transform="translate(66.361 72.599)" fill="#0b65bf"/>
              <path id="Trazado_881777" data-name="Trazado 881777" d="M216.829,247.252a2.367,2.367,0,0,0-1,3,2.276,2.276,0,0,0,2.961,1.02,2.5,2.5,0,0,0,1.045-3.178,2.361,2.361,0,0,0-3.2-.72" transform="translate(69.923 80.097)" fill="#e0e0e0"/>
              <path id="Trazado_881778" data-name="Trazado 881778" d="M212.982,267.834l-1.021-4.4,54.486-11.927s2.766.527,2.882,2.365Z" transform="translate(68.735 81.559)" fill="#e0e0e0"/>
              <path id="Trazado_881779" data-name="Trazado 881779" d="M231.9,245.719c.053.278-1.3.715-2.459,1.91-1.189,1.165-1.621,2.52-1.9,2.467-.267,0-.228-1.74,1.2-3.162s3.16-1.482,3.157-1.214" transform="translate(73.747 79.64)" fill="#263238"/>
              <path id="Trazado_881780" data-name="Trazado 881780" d="M236.437,246.547c.123.253-.967.993-1.642,2.373-.715,1.36-.666,2.676-.944,2.727-.25.1-.807-1.473.066-3.173.855-1.707,2.455-2.189,2.52-1.927" transform="translate(75.701 79.929)" fill="#263238"/>
              <path id="Trazado_881781" data-name="Trazado 881781" d="M239.623,252.6c-.238.115-.934-1.179-.565-2.851s1.524-2.566,1.694-2.362c.207.192-.449,1.193-.73,2.572-.314,1.371-.13,2.553-.4,2.642" transform="translate(77.487 80.214)" fill="#263238"/>
              <path id="Trazado_881782" data-name="Trazado 881782" d="M230.718,240.865c-.058.278-1.412.183-2.95.641-1.547.426-2.643,1.225-2.841,1.021-.205-.164.751-1.454,2.569-1.969s3.309.06,3.222.307" transform="translate(72.93 77.939)" fill="#263238"/>
              <path id="Trazado_881783" data-name="Trazado 881783" d="M223.505,147.168s13.228-.936,16.07,10.385c3.938,15.7,21.3,109.506,21.3,109.506l-39.1,7.559-20.615-91.551-37.036-6.028-15.266-6.106s8.624-9.2,26.495-14.886c12.162-3.872,48.153-8.878,48.153-8.878" transform="translate(48.271 47.717)" fill="#263238"/>
              <path id="Trazado_881784" data-name="Trazado 881784" d="M188.452,178.388c.175.1,1.548-3.018,4.652-5.669,3.066-2.7,6.339-3.634,6.263-3.822.005-.151-3.476.546-6.673,3.348a16.045,16.045,0,0,0-3.393,4.108,5.555,5.555,0,0,0-.849,2.035" transform="translate(61.108 54.764)" fill="#455a64"/>
              <path id="Trazado_881785" data-name="Trazado 881785" d="M197.009,162.034c-.028-.033-.285.138-.73.479a15.478,15.478,0,0,0-1.756,1.6,22.563,22.563,0,0,0-6.163,14.129,15.476,15.476,0,0,0,.021,2.374c.053.559.1.863.146.861.107-.005.058-1.238.274-3.2a25.446,25.446,0,0,1,6.051-13.869c1.29-1.49,2.227-2.294,2.157-2.376" transform="translate(61.071 52.543)" fill="#455a64"/>
              <path id="Trazado_881786" data-name="Trazado 881786" d="M241.591,162.031s.049.16.121.482c.073.343.173.814.3,1.428.261,1.285.641,3.143,1.13,5.546.969,4.868,2.376,11.926,4.141,20.791,3.495,17.793,8.413,42.829,14.123,71.9l.058.294-.3.058-39.1,7.572-.3.058-.066-.3c-.205-.91-.426-1.9-.649-2.883-7.579-33.774-14.535-64.777-19.9-88.683l.2.185c-16.318-2.7-29.627-4.9-38.881-6.433l-10.647-1.8c-1.2-.211-2.127-.373-2.776-.486-.625-.114-.944-.191-.944-.191s.326.026.955.118c.653.1,1.58.237,2.788.418l10.668,1.67L201.439,178l.163.025.036.16c5.4,23.9,12.406,54.891,20.035,88.654.223.988.445,1.972.65,2.882l-.367-.238,39.1-7.546-.238.352c-5.62-29.086-10.463-54.137-13.9-71.94-1.691-8.879-3.039-15.948-3.969-20.823-.448-2.411-.795-4.279-1.034-5.566-.109-.618-.193-1.093-.254-1.438-.054-.323-.069-.491-.069-.491" transform="translate(48.03 52.543)" fill="#455a64"/>
              <path id="Trazado_881787" data-name="Trazado 881787" d="M154.487,73.662s7.252,4.811,10.445,19.042c2.561,11.417,6.629,33.055,6.629,33.055l15.193,9.977a3.411,3.411,0,0,1,1.1,4.53c-3.568,6.319-12.542,21.3-18.4,23.11-7.45,2.3-14.645-3.556-14.645-3.556Z" transform="translate(50.097 23.887)" fill="#b0c8cb"/>
              <path id="Trazado_881788" data-name="Trazado 881788" d="M175.375,78.01l-17.5-7.037L154.9,65.148l-2.72,12.062L123.713,60.255l-2.021,7.084s-27.138,11.4-30.666,14.608c-4.328,3.941,7.493,69.686,7.493,69.686s-4.289,52.757-2.713,63.255c0,0,19-5.463,34.782-7.623s34.855-8.216,34.855-8.216L182.665,188.4Z" transform="translate(29.209 19.539)" fill="#b0c8cb"/>
              <path id="Trazado_881789" data-name="Trazado 881789" d="M156.464,95.291a4.787,4.787,0,0,1,.086.882c.032.64.073,1.481.125,2.531.1,2.268.245,5.43.42,9.307.359,7.86.916,18.713,1.605,30.7s1.406,22.832,2,30.676c.306,3.868.556,7.024.735,9.286.085,1.048.154,1.887.205,2.525a4.607,4.607,0,0,1,.029.885,4.689,4.689,0,0,1-.155-.871c-.082-.636-.189-1.471-.323-2.513-.254-2.186-.583-5.355-.934-9.275-.707-7.838-1.482-18.686-2.184-30.676s-1.177-22.848-1.424-30.715c-.126-3.932-.195-7.117-.22-9.318,0-1.051,0-1.894-.007-2.535a4.8,4.8,0,0,1,.041-.885" transform="translate(50.725 30.901)" fill="#263238"/>
              <path id="Trazado_881790" data-name="Trazado 881790" d="M105.828,95.763c-.113-.007.042-1.406-.269-3.617A17.613,17.613,0,0,0,95.8,78.655c-2-.989-3.378-1.281-3.349-1.389a2.742,2.742,0,0,1,.981.13,14.277,14.277,0,0,1,2.556.857A16.8,16.8,0,0,1,106,92.095a14.235,14.235,0,0,1,.012,2.7,2.749,2.749,0,0,1-.184.972" transform="translate(29.981 25.051)" fill="#263238"/>
              <path id="Trazado_881791" data-name="Trazado 881791" d="M173.45,146.352l-8.338-8.474-17.152-4.152s-15.718,4.5-16.094,4.492-13.877-4.492-13.877-4.492l-4.451,17.33,23.959,1.571,27.356-1.048s1.428-1.271.581-2.14,4.574,1.469,5.212,1.5,1.875.5,2.72-.482c.576-.666,1.359-2.807.083-4.1" transform="translate(36.818 43.365)" fill="#ffceb3"/>
              <path id="Trazado_881792" data-name="Trazado 881792" d="M95.37,76.635S89.284,80.457,86.276,92.3s-12.4,60.823-9.726,68.063,61.988,16.576,61.988,16.576l6.759-21.456L104.133,141.85s6.025-23.558,6.361-33.1S95.37,76.635,95.37,76.635" transform="translate(24.67 24.851)" fill="#b0c8cb"/>
              <path id="Trazado_881793" data-name="Trazado 881793" d="M157.3,146.724a15.364,15.364,0,0,1-2.725-.742c-1.662-.506-3.964-1.18-6.537-1.812s-4.932-1.1-6.641-1.424a15.247,15.247,0,0,1-2.76-.617,12.149,12.149,0,0,1,2.831.205,63.2,63.2,0,0,1,6.723,1.265,60.7,60.7,0,0,1,6.527,1.989,11.718,11.718,0,0,1,2.581,1.135" transform="translate(44.956 46.079)" fill="#ff9c65"/>
              <path id="Trazado_881794" data-name="Trazado 881794" d="M165.214,144.838a37.37,37.37,0,0,1-3.8-1.175c-2.336-.754-5.6-1.677-9.228-2.646-3.626-1.03-6.852-2.061-9.3-2.2a23.812,23.812,0,0,0-3.949.147,3.213,3.213,0,0,1,1.026-.331,11.792,11.792,0,0,1,2.948-.233c2.528.034,5.855,1.028,9.442,2.047,3.63.969,6.9,1.961,9.205,2.821,1.157.424,2.079.8,2.708,1.077a3.6,3.6,0,0,1,.951.49" transform="translate(45.053 44.879)" fill="#ff9c65"/>
              <path id="Trazado_881795" data-name="Trazado 881795" d="M88.321,130.367c-.131-.078,1.922-2.461,5.463-3.753,3.529-1.33,6.639-.861,6.59-.716,0,.2-3,.028-6.371,1.306-3.391,1.23-5.554,3.317-5.681,3.164" transform="translate(28.639 40.762)" fill="#263238"/>
              <path id="Trazado_881796" data-name="Trazado 881796" d="M83.374,159.123a1.029,1.029,0,0,1,.257.052l.742.2c.648.2,1.62.434,2.883.742,2.528.607,6.232,1.436,10.913,2.393,9.359,1.929,22.6,4.487,38.06,7.319l-.338.2c2.1-6.673,4.375-13.926,6.743-21.461l.2.392-2.329-.772-38.821-12.908-.222-.074.044-.229c2.12-11.2,3.885-20.52,5.129-27.087.63-3.23,1.127-5.78,1.475-7.564.173-.842.31-1.5.409-1.988a4.207,4.207,0,0,1,.168-.677,4.521,4.521,0,0,1-.086.691c-.081.49-.189,1.155-.33,2-.314,1.792-.761,4.35-1.33,7.592-1.191,6.576-2.88,15.913-4.909,27.127l-.179-.3L140.7,147.6l2.329.772.294.1-.093.294c-2.378,7.531-4.668,14.783-6.774,21.452l-.079.252-.258-.048c-15.456-2.875-28.687-5.512-38.029-7.543-4.673-1.009-8.368-1.9-10.886-2.564-1.258-.339-2.223-.608-2.863-.837l-.728-.249a1,1,0,0,1-.241-.1" transform="translate(27.036 31.671)" fill="#263238"/>
              <path id="Trazado_881797" data-name="Trazado 881797" d="M173.186,132.352a4.328,4.328,0,0,1-1.173-.442,17.161,17.161,0,0,1-2.888-1.822,19.67,19.67,0,0,1-6.473-9.12,16.438,16.438,0,0,1-.908-6.176,5.331,5.331,0,0,1,2.566-4.385,3.289,3.289,0,0,1,3.414.148c.689.5.8,1,.779,1-.057.04-.257-.389-.922-.773a3.066,3.066,0,0,0-3.034.05,4.889,4.889,0,0,0-2.169,4.013,16.617,16.617,0,0,0,.928,5.9,20.5,20.5,0,0,0,6.126,8.963c2.163,1.827,3.817,2.525,3.754,2.643" transform="translate(52.439 35.671)" fill="#263238"/>
              <path id="Trazado_881798" data-name="Trazado 881798" d="M159.8,120.9c-.17-.087.362-1.459,1.187-3.064s1.632-2.838,1.8-2.751-.362,1.459-1.187,3.066-1.632,2.837-1.8,2.749" transform="translate(51.811 37.32)" fill="#263238"/>
              <path id="Trazado_881799" data-name="Trazado 881799" d="M142.586,67.992a12.907,12.907,0,0,1-.193,2.981c-.208,1.829-.54,4.349-.951,7.125-.066.448-.132.887-.2,1.316l-.15.995-.486-.877a37.03,37.03,0,0,0-2.86-4.362l.465-.155a16.662,16.662,0,0,1-.372,3.552,16.712,16.712,0,0,1-.15-3.569v-.7l.464.54A27.967,27.967,0,0,1,141.2,79.2l-.637.118q.1-.646.192-1.318c.411-2.777.82-5.285,1.149-7.1a12.9,12.9,0,0,1,.677-2.909" transform="translate(44.65 22.048)" fill="#263238"/>
              <path id="Trazado_881800" data-name="Trazado 881800" d="M144.942,80.063a6.731,6.731,0,0,1-.931-1.164q-.946-1.337-2.364-3.337l.409-.068c-.548,2.1-1.2,4.623-1.936,7.436l-.1.4-.362-.211c-2.363-1.38-4.97-2.958-7.68-4.672-5.2-3.283-9.778-6.451-13.032-8.825-1.629-1.184-2.927-2.169-3.814-2.864a8.433,8.433,0,0,1-1.331-1.14,8.609,8.609,0,0,1,1.488.923l3.937,2.683c3.32,2.269,7.932,5.365,13.12,8.641,2.7,1.71,5.294,3.3,7.633,4.712l-.465.189c.8-2.8,1.508-5.3,2.1-7.389l.14-.493.27.425q1.311,2.068,2.192,3.454a6.7,6.7,0,0,1,.724,1.3" transform="translate(36.902 21.277)" fill="#263238"/>
              <path id="Trazado_881801" data-name="Trazado 881801" d="M143.235,152.545a3.185,3.185,0,0,1-.144-.752c-.075-.572-.168-1.291-.282-2.173-.232-1.888-.534-4.624-.881-8.008-.693-6.766-1.536-16.126-2.276-26.478s-1.232-19.742-1.5-26.539c-.138-3.4-.228-6.15-.266-8.052-.012-.889-.023-1.613-.029-2.19a3.182,3.182,0,0,1,.036-.765,3.219,3.219,0,0,1,.1.76c.042.575.1,1.3.159,2.185.121,1.992.285,4.714.485,8.037.4,6.788.969,16.164,1.707,26.513s1.5,19.708,2.074,26.483c.273,3.319.5,6.037.661,8.026.062.887.114,1.61.154,2.185a3.172,3.172,0,0,1,.007.767" transform="translate(44.703 25.16)" fill="#263238"/>
              <path id="Trazado_881802" data-name="Trazado 881802" d="M124.783,157.423c0,.175-10.018.315-22.374.315s-22.375-.14-22.375-.315,10.016-.314,22.375-.314,22.374.14,22.374.314" transform="translate(25.953 50.947)" fill="#263238"/>
              <path id="Trazado_881803" data-name="Trazado 881803" d="M105.81,148.7c0,.173-5.971.314-13.335.314s-13.337-.14-13.337-.314,5.971-.314,13.337-.314,13.335.14,13.335.314" transform="translate(25.663 48.117)" fill="#263238"/>
              <path id="Trazado_881804" data-name="Trazado 881804" d="M209.719,110.748l-25.666,45.423-59.381,1.291-.151,2.756,58.915-.438,1.867-.064,62.213.123,12.571-21.682,15.567-25.218a2.272,2.272,0,0,0-1.871-3.572l-62.1.237a2.272,2.272,0,0,0-1.963,1.144" transform="translate(40.38 35.465)" fill="#e0e0e0"/>
              <path id="Trazado_881805" data-name="Trazado 881805" d="M204.077,128.343a2.625,2.625,0,1,0,3.921-.463,2.806,2.806,0,0,0-3.921.463" transform="translate(65.905 41.272)" fill="#fff"/>
              <path id="Trazado_881806" data-name="Trazado 881806" d="M200.955,109.537c.151.086-6.114,11.37-13.992,25.2s-14.388,24.977-14.538,24.891,6.113-11.368,13.992-25.2,14.387-24.975,14.538-24.888" transform="translate(55.913 35.521)" fill="#263238"/>
              <path id="Trazado_881807" data-name="Trazado 881807" d="M193.028,215.093S164.752,228,137.247,228c-25.473,0-53.966-12.822-53.966-12.822Z" transform="translate(27.006 69.75)" fill="#e0e0e0"/>
              <rect id="Rectángulo_405838" data-name="Rectángulo 405838" width="10.909" height="114.26" transform="translate(161.374 286.072)" fill="#e0e0e0"/>
              <rect id="Rectángulo_405839" data-name="Rectángulo 405839" width="96.818" height="6.7" transform="translate(117.923 395.601)" fill="#e0e0e0"/>
              <path id="Trazado_881808" data-name="Trazado 881808" d="M153.585,307.776a7.389,7.389,0,1,0,7.388-7.388,7.389,7.389,0,0,0-7.388,7.388" transform="translate(49.805 97.41)" fill="#263238"/>
              <path id="Trazado_881809" data-name="Trazado 881809" d="M121.1,307.776a7.389,7.389,0,1,0,7.389-7.388,7.389,7.389,0,0,0-7.389,7.388" transform="translate(39.27 97.41)" fill="#263238"/>
              <path id="Trazado_881810" data-name="Trazado 881810" d="M83.468,307.776a7.389,7.389,0,1,0,7.389-7.388,7.389,7.389,0,0,0-7.389,7.388" transform="translate(27.067 97.41)" fill="#263238"/>
              <rect id="Rectángulo_405840" data-name="Rectángulo 405840" width="14.837" height="6.141" transform="translate(164.253 327.196)" fill="#e0e0e0"/>
              <rect id="Rectángulo_405841" data-name="Rectángulo 405841" width="5.403" height="14.737" transform="translate(176.389 322.898)" fill="#e0e0e0"/>
              <path id="Trazado_881811" data-name="Trazado 881811" d="M84.748,219.109H213.91c4.828,0,8.744-2.68,8.744-8.2a8.486,8.486,0,0,0-8.744-8.2H73.413v5.771c0,5.871,5.075,10.63,11.335,10.63" transform="translate(23.806 65.734)" fill="#455a64"/>
              <path id="Trazado_881812" data-name="Trazado 881812" d="M86.74,157.16c.173,0,.314,14.247.314,31.816s-.14,31.818-.314,31.818-.314-14.243-.314-31.818.14-31.816.314-31.816" transform="translate(28.026 50.964)" fill="#263238"/>
              <path id="Trazado_881813" data-name="Trazado 881813" d="M219.045,229.786a13.022,13.022,0,0,1,1.753,2.441,16.227,16.227,0,0,1,2.084,8.3,7.54,7.54,0,0,1-2.125,5.776,7.1,7.1,0,0,1-3.127,1.792,13.816,13.816,0,0,1-3.863.339l-18.042.062c-26.76.041-63.685.1-104.467.164a64.984,64.984,0,0,1-7.4-.215,12.293,12.293,0,0,1-6.607-3.209,13.54,13.54,0,0,1-3.491-6.341,21.652,21.652,0,0,1-.587-7.1v.036c.35-33.9.657-63.634.877-84.915.138-10.609.248-19.112.324-24.99.05-2.9.09-5.159.118-6.717.019-.747.034-1.322.045-1.739.013-.391.037-.589.037-.589s.019.2.025.591c0,.417.008.992.015,1.739,0,1.557,0,3.813,0,6.718-.028,5.878-.07,14.382-.122,24.992-.16,21.282-.384,51.011-.64,84.917v.007l0,.029a20.988,20.988,0,0,0,.575,6.852,12.851,12.851,0,0,0,3.311,6.022,11.6,11.6,0,0,0,6.235,3.019,64.661,64.661,0,0,0,7.291.205l104.466.037,18.042.041a13.52,13.52,0,0,0,3.768-.3,6.783,6.783,0,0,0,2.992-1.682,7.263,7.263,0,0,0,2.088-5.538,16.37,16.37,0,0,0-1.937-8.238,18.617,18.617,0,0,0-1.193-1.884c-.3-.4-.44-.624-.44-.624" transform="translate(23.707 36.606)" fill="#263238"/>
              <path id="Trazado_881814" data-name="Trazado 881814" d="M75.1,159.67l59.6.714a1.544,1.544,0,0,1,1.474,1.763L127.239,236.6h13.99l7.223-81.962a4.809,4.809,0,0,0-4.6-5.391l-69.635-.408Z" transform="translate(24.067 48.267)" fill="#455a64"/>
              <path id="Trazado_881815" data-name="Trazado 881815" d="M75.138,159.7s-.033-.215-.079-.663c-.045-.477-.11-1.148-.2-2.03q-.25-2.767-.736-8.123l-.012-.134h.135l57.732.177,10.053.045a17.941,17.941,0,0,1,2.637.1,5,5,0,0,1,2.464,1.222,5.135,5.135,0,0,1,1.485,2.356,6.8,6.8,0,0,1,.109,2.78c-.626,7.168-1.278,14.645-1.953,22.379-1.357,15.47-2.806,31.969-4.309,49.1q-.435,4.922-.861,9.756l-.028.314h-.315l-13.99,0h-.385l.046-.383c2.329-19.291,4.522-37.449,6.5-53.837q.747-6.144,1.45-11.946.352-2.9.694-5.7.171-1.4.338-2.782a1.3,1.3,0,0,0-1.173-1.639l-20.223-.291-28.95-.466-7.767-.144-2-.049c-.448-.013-.665-.032-.665-.032s.246-.013.708-.016h2.039l7.828.041,28.924.228,20.125.193a1.809,1.809,0,0,1,1.376.734,1.905,1.905,0,0,1,.318,1.511q-.163,1.381-.328,2.784-.334,2.807-.677,5.708-.687,5.8-1.418,11.949c-1.955,16.389-4.121,34.549-6.421,53.843l-.339-.381,13.99,0-.343.314c.283-3.217.571-6.476.859-9.757,1.515-17.127,2.974-33.629,4.344-49.1.689-7.734,1.353-15.211,1.992-22.379a6.18,6.18,0,0,0-.081-2.543,4.521,4.521,0,0,0-1.3-2.079,4.413,4.413,0,0,0-2.172-1.083,18.047,18.047,0,0,0-2.537-.1l-10.05-.073-57.723-.5.123-.131q.389,5.316.593,8.068c.061.9.107,1.577.14,2.061.029.464.033.709.033.709" transform="translate(24.034 48.237)" fill="#263238"/>
              <path id="Trazado_881816" data-name="Trazado 881816" d="M122.438,210.16a1.82,1.82,0,1,1-1.821-1.821,1.821,1.821,0,0,1,1.821,1.821" transform="translate(38.524 67.56)" fill="#263238"/>
              <path id="Trazado_881817" data-name="Trazado 881817" d="M27.37,126.029l4.365,28.685H57.1l5.885-28.271Z" transform="translate(8.876 40.869)" fill="#0b65bf"/>
              <path id="Trazado_881818" data-name="Trazado 881818" d="M58.692,139.947c0,.083-6.5.15-14.513.15s-14.514-.066-14.514-.15,6.5-.148,14.514-.148,14.513.068,14.513.148" transform="translate(9.62 45.334)" fill="#fafafa"/>
              <path id="Trazado_881819" data-name="Trazado 881819" d="M58.814,138.882c0,.082-6.542.15-14.611.15s-14.612-.068-14.612-.15,6.541-.148,14.612-.148,14.611.066,14.611.148" transform="translate(9.596 44.989)" fill="#fafafa"/>
              <path id="Trazado_881820" data-name="Trazado 881820" d="M58.776,137.679c0,.082-6.542.148-14.611.148s-14.612-.066-14.612-.148,6.541-.148,14.612-.148,14.611.066,14.611.148" transform="translate(9.583 44.599)" fill="#fafafa"/>
              <path id="Trazado_881821" data-name="Trazado 881821" d="M33.179,148.235a23.049,23.049,0,0,1-.777-3.611,22.753,22.753,0,0,1-.485-3.663,23,23,0,0,1,.777,3.611,23.1,23.1,0,0,1,.485,3.663" transform="translate(10.344 45.711)" fill="#fafafa"/>
              <path id="Trazado_881822" data-name="Trazado 881822" d="M34.293,147.952a27.7,27.7,0,0,1-.314-3.524,28.045,28.045,0,0,1-.166-3.535,17.117,17.117,0,0,1,.462,3.515,16.982,16.982,0,0,1,.017,3.544" transform="translate(10.956 45.689)" fill="#fafafa"/>
              <path id="Trazado_881823" data-name="Trazado 881823" d="M36.761,148.006a28.736,28.736,0,0,1-.853-7.282,31.736,31.736,0,0,1,.489,3.634,31.832,31.832,0,0,1,.364,3.648" transform="translate(11.632 45.634)" fill="#fafafa"/>
              <path id="Trazado_881824" data-name="Trazado 881824" d="M38.3,148.14a29.413,29.413,0,0,1-.24-7.358,31.446,31.446,0,0,1,.185,3.676,31.335,31.335,0,0,1,.054,3.682" transform="translate(12.299 45.653)" fill="#fafafa"/>
              <path id="Trazado_881825" data-name="Trazado 881825" d="M41.237,147.933a20.693,20.693,0,0,1-.268-3.484A20.409,20.409,0,0,1,41,140.954a20.785,20.785,0,0,1,.266,3.484,20.672,20.672,0,0,1-.03,3.495" transform="translate(13.272 45.709)" fill="#fafafa"/>
              <path id="Trazado_881826" data-name="Trazado 881826" d="M43.346,148.1a22.021,22.021,0,0,1-.119-3.6,21.948,21.948,0,0,1,.177-3.6,21.74,21.74,0,0,1,.12,3.6,22.045,22.045,0,0,1-.179,3.6" transform="translate(14.017 45.69)" fill="#fafafa"/>
              <path id="Trazado_881827" data-name="Trazado 881827" d="M45.343,147.887a23.933,23.933,0,0,1,.216-3.768,23.984,23.984,0,0,1,.512-3.738,23.936,23.936,0,0,1-.216,3.768,23.979,23.979,0,0,1-.512,3.738" transform="translate(14.694 45.523)" fill="#fafafa"/>
              <path id="Trazado_881828" data-name="Trazado 881828" d="M47.947,147.307a19.774,19.774,0,0,1,1.369-6.3,28.293,28.293,0,0,1-.652,3.156,28.536,28.536,0,0,1-.718,3.14" transform="translate(15.541 45.727)" fill="#fafafa"/>
              <path id="Trazado_881829" data-name="Trazado 881829" d="M25.173,121.74v5.367a2.113,2.113,0,0,0,2.114,2.114H64.01a2.114,2.114,0,0,0,2.114-2.114V121.74Z" transform="translate(8.163 39.478)" fill="#0b65bf"/>
              <g id="Grupo_1102819" data-name="Grupo 1102819" transform="translate(36.52 168.697)" opacity="0.4">
                <g id="Grupo_1102818" data-name="Grupo 1102818">
                  <g id="Grupo_1102817" data-name="Grupo 1102817" clip-path="url(#clip-path-3)">
                    <path id="Trazado_881830" data-name="Trazado 881830" d="M27.577,127.388l.3,1.708,33.886,2.415.858-4.124Z" transform="translate(-27.577 -127.388)"/>
                  </g>
                </g>
              </g>
              <path id="Trazado_881831" data-name="Trazado 881831" d="M37.316,130.21c-5.4-3.129-8.283-10.408-8.5-16.363s2.266-12.171,7.15-15.587a16.365,16.365,0,0,1,17.76-.146,18.483,18.483,0,0,1,8.146,16.049,21.281,21.281,0,0,1-8.716,15.984" transform="translate(9.341 30.991)" fill="#455a64"/>
              <path id="Trazado_881832" data-name="Trazado 881832" d="M42.113,130.645a7.081,7.081,0,0,1-.1-1.363c-.028-.975-.064-2.221-.106-3.715-.079-3.137-.2-7.469-.413-12.25s-.469-9.108-.663-12.24c-.089-1.492-.164-2.737-.221-3.711A7.131,7.131,0,0,1,40.589,96a6.987,6.987,0,0,1,.217,1.349c.107.871.238,2.135.381,3.7.287,3.128.6,7.457.813,12.246s.277,9.127.265,12.267c-.005,1.571-.025,2.842-.056,3.72a7.115,7.115,0,0,1-.1,1.363" transform="translate(13.155 31.131)" fill="#263238"/>
              <path id="Trazado_881833" data-name="Trazado 881833" d="M30.952,108.463c-.013.139-.873.181-1.922.1s-1.894-.269-1.883-.408.873-.181,1.924-.1,1.891.269,1.88.408" transform="translate(8.803 35.026)" fill="#263238"/>
              <path id="Trazado_881834" data-name="Trazado 881834" d="M31,104.664c-.057.127-.8-.078-1.658-.458s-1.51-.795-1.453-.922.8.078,1.658.46,1.51.793,1.453.92" transform="translate(9.044 33.481)" fill="#263238"/>
              <path id="Trazado_881835" data-name="Trazado 881835" d="M33.078,101.949c-.073.117-.907-.277-1.775-1s-1.412-1.465-1.311-1.557.792.474,1.633,1.168,1.528,1.266,1.453,1.386" transform="translate(9.722 32.228)" fill="#263238"/>
              <path id="Trazado_881836" data-name="Trazado 881836" d="M34.741,99.23c-.127.057-.527-.568-.893-1.4s-.559-1.544-.432-1.6.528.569.894,1.4.559,1.543.43,1.6" transform="translate(10.824 31.205)" fill="#263238"/>
              <path id="Trazado_881837" data-name="Trazado 881837" d="M37.951,97.289c-.124.058-.555-.607-.841-1.53s-.311-1.714-.175-1.736.38.7.658,1.586.487,1.62.358,1.679" transform="translate(11.951 30.49)" fill="#263238"/>
              <path id="Trazado_881838" data-name="Trazado 881838" d="M43.371,94.23c.131.046.052.614-.18,1.269s-.524,1.147-.656,1.1-.052-.614.179-1.269.526-1.147.657-1.1" transform="translate(13.773 30.556)" fill="#263238"/>
              <path id="Trazado_881839" data-name="Trazado 881839" d="M47.671,95.974c.1.1-.249.576-.769,1.057s-1.018.787-1.112.685.249-.575.769-1.057,1.017-.787,1.112-.685" transform="translate(14.843 31.116)" fill="#263238"/>
              <path id="Trazado_881840" data-name="Trazado 881840" d="M51.308,98.281c.078.115-.342.538-.938.942s-1.144.638-1.222.522.342-.536.938-.94,1.144-.638,1.222-.523" transform="translate(15.935 31.861)" fill="#263238"/>
              <path id="Trazado_881841" data-name="Trazado 881841" d="M54.086,101.722c.056.128-.609.534-1.481.906s-1.622.568-1.677.441.607-.535,1.479-.906,1.624-.569,1.678-.441" transform="translate(16.514 32.974)" fill="#263238"/>
              <path id="Trazado_881842" data-name="Trazado 881842" d="M55.062,105.492c.017.139-.656.336-1.5.441s-1.549.078-1.567-.061.657-.335,1.5-.441,1.549-.078,1.567.061" transform="translate(16.86 34.168)" fill="#263238"/>
              <path id="Trazado_881843" data-name="Trazado 881843" d="M55.566,110.406c-.056.128-.773-.061-1.6-.421s-1.457-.758-1.4-.885.773.06,1.6.421,1.457.756,1.4.885" transform="translate(17.043 35.366)" fill="#263238"/>
              <path id="Trazado_881844" data-name="Trazado 881844" d="M55.186,114.569c-.045.127-.952-.089-1.9-.711s-1.512-1.363-1.414-1.455.792.449,1.691,1.032,1.675,1,1.624,1.135" transform="translate(16.817 36.446)" fill="#263238"/>
              <path id="Trazado_881845" data-name="Trazado 881845" d="M52.915,118.29c-.083.109-.805-.316-1.5-1.065s-1.065-1.5-.951-1.573.656.515,1.322,1.229,1.217,1.3,1.128,1.409" transform="translate(16.358 37.501)" fill="#263238"/>
              <path id="Trazado_881846" data-name="Trazado 881846" d="M33.619,118.071c.065.124-.694.646-1.694,1.167s-1.863.844-1.928.719.694-.646,1.7-1.167,1.862-.842,1.927-.719" transform="translate(9.726 38.28)" fill="#263238"/>
              <path id="Trazado_881847" data-name="Trazado 881847" d="M31.66,114.814c.058.127-.551.527-1.359.894s-1.51.56-1.567.433.55-.527,1.359-.894,1.508-.56,1.567-.433" transform="translate(9.317 37.219)" fill="#263238"/>
              <path id="Trazado_881848" data-name="Trazado 881848" d="M30.464,111.942c.02.138-.73.359-1.671.493s-1.724.13-1.744-.008.73-.359,1.673-.493,1.723-.13,1.743.008" transform="translate(8.771 36.266)" fill="#263238"/>
              <path id="Trazado_881849" data-name="Trazado 881849" d="M34.776,110.34c.041.13-.689.471-1.663.579s-1.761-.057-1.749-.193.771-.2,1.692-.309,1.679-.215,1.72-.077" transform="translate(10.17 35.76)" fill="#263238"/>
              <path id="Trazado_881850" data-name="Trazado 881850" d="M38.188,106.78c.041.13-.54.425-1.324.5s-1.41-.1-1.4-.233.618-.2,1.347-.27,1.332-.134,1.373,0" transform="translate(11.501 34.6)" fill="#263238"/>
              <path id="Trazado_881851" data-name="Trazado 881851" d="M38.855,104.143c-.045.132-.674.034-1.405-.219s-1.286-.564-1.24-.7.674-.034,1.405.218,1.286.564,1.24.7" transform="translate(11.742 33.456)" fill="#263238"/>
              <path id="Trazado_881852" data-name="Trazado 881852" d="M39.794,101.461c-.1.1-.53-.188-.837-.724s-.34-1.051-.208-1.087.369.36.646.834.5.879.4.977" transform="translate(12.541 32.313)" fill="#263238"/>
              <path id="Trazado_881853" data-name="Trazado 881853" d="M38.51,112.86c.033.135-.511.385-1.217.558a4.718,4.718,0,0,1-1.022.151l-.1-.3c.181-.033.3-.025.323.029s-.05.146-.2.257l-.1-.294a4.677,4.677,0,0,1,.976-.339c.706-.172,1.3-.2,1.338-.066" transform="translate(11.73 36.571)" fill="#263238"/>
              <path id="Trazado_881854" data-name="Trazado 881854" d="M39.481,117.91c.05.131-.644.526-1.551.882s-1.686.542-1.737.412.644-.526,1.552-.882,1.684-.54,1.736-.412" transform="translate(11.736 38.223)" fill="#263238"/>
              <path id="Trazado_881855" data-name="Trazado 881855" d="M35.176,115.669c.044.132-.418.409-1.036.618s-1.152.273-1.2.14.417-.409,1.034-.618,1.153-.273,1.2-.14" transform="translate(10.682 37.487)" fill="#263238"/>
              <path id="Trazado_881856" data-name="Trazado 881856" d="M35.752,105.645c-.032.134-.838.054-1.771-.277s-1.61-.776-1.551-.9.814.1,1.72.424,1.635.616,1.6.754" transform="translate(10.516 33.865)" fill="#263238"/>
              <path id="Trazado_881857" data-name="Trazado 881857" d="M45.3,104.235c.077.117-.377.552-1.014.972s-1.216.666-1.292.55.377-.552,1.014-.972,1.216-.666,1.293-.55" transform="translate(13.938 33.792)" fill="#263238"/>
              <path id="Trazado_881858" data-name="Trazado 881858" d="M45.811,109.337c.028.136-.449.351-1.066.479s-1.14.122-1.169-.016.449-.351,1.066-.479,1.14-.121,1.169.016" transform="translate(14.13 35.421)" fill="#263238"/>
              <path id="Trazado_881859" data-name="Trazado 881859" d="M46.582,115.361c-.058.127-.746-.066-1.535-.432s-1.381-.764-1.323-.891.746.066,1.535.432,1.381.764,1.323.891" transform="translate(14.178 36.967)" fill="#263238"/>
              <path id="Trazado_881860" data-name="Trazado 881860" d="M44.97,121.073c-.109.089-.555-.275-1-.814s-.714-1.048-.605-1.136.554.275,1,.814.714,1.048.607,1.136" transform="translate(14.056 38.625)" fill="#263238"/>
              <path id="Trazado_881861" data-name="Trazado 881861" d="M44.728,100.494c.085.107-.209.479-.715.732s-.979.269-1.014.135.332-.358.788-.588.855-.392.942-.279" transform="translate(13.943 32.576)" fill="#263238"/>
              <path id="Trazado_881862" data-name="Trazado 881862" d="M49.787,105.628c.046.128-.542.452-1.345.563s-1.458-.038-1.449-.175.629-.22,1.379-.326,1.369-.2,1.416-.062" transform="translate(15.239 34.231)" fill="#263238"/>
              <path id="Trazado_881863" data-name="Trazado 881863" d="M48.862,101.019c.062.123-.522.54-1.352.8s-1.547.266-1.567.131.625-.359,1.413-.611,1.442-.45,1.506-.323" transform="translate(14.898 32.745)" fill="#263238"/>
              <path id="Trazado_881864" data-name="Trazado 881864" d="M51.2,112.94a3.841,3.841,0,0,1-2.2,0,3.855,3.855,0,0,1-2.063-.777,6.739,6.739,0,0,1,2.153.279,6.767,6.767,0,0,1,2.114.494" transform="translate(15.217 36.359)" fill="#263238"/>
              <path id="Trazado_881865" data-name="Trazado 881865" d="M49.01,120.07c-.083.109-.818-.324-1.552-1.063s-1.165-1.474-1.057-1.557.7.489,1.414,1.2,1.283,1.308,1.195,1.42" transform="translate(15.042 38.084)" fill="#263238"/>
              <path id="Trazado_881866" data-name="Trazado 881866" d="M43.118,95.57a22.919,22.919,0,0,0-4.432,3.5,21.639,21.639,0,0,0-5.522,12.2,27.4,27.4,0,0,0,.334,7.478,56.994,56.994,0,0,0,1.4,6c.485,1.69.93,3.043,1.229,3.981a9.428,9.428,0,0,1,.426,1.473,8.318,8.318,0,0,1-.612-1.406c-.356-.919-.855-2.259-1.387-3.944a50.937,50.937,0,0,1-1.518-6.024,26.831,26.831,0,0,1-.376-7.617,21.278,21.278,0,0,1,5.766-12.394,15.823,15.823,0,0,1,3.308-2.585,9.948,9.948,0,0,1,1.012-.526,1.175,1.175,0,0,1,.371-.144" transform="translate(10.55 30.99)" fill="#263238"/>
              <path id="Trazado_881867" data-name="Trazado 881867" d="M47.515,130.484a55.68,55.68,0,0,0,2.272-5.43,30.727,30.727,0,0,0,1.359-13.965,26.248,26.248,0,0,0-2.153-7.446,17.588,17.588,0,0,0-3.671-5.114,13.366,13.366,0,0,0-3.6-2.272c-.935-.391-1.5-.482-1.487-.524a1.21,1.21,0,0,1,.413.032,7.628,7.628,0,0,1,1.146.309,12.458,12.458,0,0,1,3.762,2.188,17.318,17.318,0,0,1,3.856,5.182,25.87,25.87,0,0,1,2.233,7.578,29.7,29.7,0,0,1-1.522,14.151c-.286.873-.653,1.621-.927,2.295-.326.653-.595,1.22-.841,1.669a9.422,9.422,0,0,1-.842,1.349" transform="translate(13.048 31.041)" fill="#263238"/>
              <path id="Trazado_881868" data-name="Trazado 881868" d="M183.083,97.765l-17.322,21.294a18.688,18.688,0,0,0,5.807,10.329,10.637,10.637,0,0,0,10.643,2.022s1.136-1.907,4.305-7.007c5.975-9.616,9.945-27.946,9.945-27.946Z" transform="translate(53.753 31.279)" fill="#ffceb3"/>
              <path id="Trazado_881869" data-name="Trazado 881869" d="M208.655,66.5a1.943,1.943,0,0,0-1.793-.446l-11.325,2.629a3.917,3.917,0,0,0-2.376,1.684l-22.272,35.455,1.857.727,12.574-1.7,23.71-37.99Z" transform="translate(55.416 21.4)" fill="#263238"/>
              <path id="Trazado_881870" data-name="Trazado 881870" d="M193.5,70.555a.778.778,0,0,0,.946-.283c.272-.323.289-.722.037-.889a.78.78,0,0,0-.946.283c-.271.324-.287.722-.037.889" transform="translate(62.691 22.476)" fill="#fff"/>
              <path id="Trazado_881871" data-name="Trazado 881871" d="M208.5,66.65a16.015,16.015,0,0,1-2.184.629l-6,1.487-4.148,1a2.616,2.616,0,0,0-1.72,1.126l-1.269,2.037L187.5,82.006c-4.052,6.435-7.752,12.244-10.46,16.434l-3.238,4.949a14.229,14.229,0,0,1-1.267,1.777,13.721,13.721,0,0,1,1.04-1.886c.777-1.285,1.8-2.982,3.05-5.036,2.6-4.242,6.236-10.082,10.287-16.516l5.733-9.057,1.3-2.035a3.273,3.273,0,0,1,2.119-1.371l4.168-.926,6.044-1.3a16.041,16.041,0,0,1,2.231-.393" transform="translate(55.947 21.611)" fill="#455a64"/>
              <path id="Trazado_881872" data-name="Trazado 881872" d="M198.584,73.6s-1.147-.074-1.629,2.858-2.09,11.364-2.09,11.364l-6.1-2.321-7.409,1.643s-1.559,1.549-.33,2.182,5.978.936,5.978.936l3.7,4.259-10.186-3.433s-3.288,1.134-2.223,2.909,8.074,6.96,8.074,6.96l-5.012.152-6.1-2.731s-1.82.258-1.069,1.622,7.178,5.918,7.178,5.918l7.654,2.6s4.075-.707,4.414-1.854a12.408,12.408,0,0,0,.362-2.739s2.145-.758,2.5-1.769a5.6,5.6,0,0,0,.024-2.523s3.434.209,3.772-1.585a18.25,18.25,0,0,0-.593-6.525c-.409-1.314.779-14.023.621-14.387s.564-4.585-1.532-3.541" transform="translate(56.425 23.812)" fill="#ffceb3"/>
              <path id="Trazado_881873" data-name="Trazado 881873" d="M192.057,98.9a4.579,4.579,0,0,1-1.927.756,14.184,14.184,0,0,1-4.947.289,13.019,13.019,0,0,1-4.6-1.413c-1.065-.584-1.594-1.1-1.536-1.164.134-.193,2.6,1.466,6.281,1.87,3.668.462,6.68-.551,6.73-.338" transform="translate(58.06 31.568)" fill="#ff9c65"/>
              <path id="Trazado_881874" data-name="Trazado 881874" d="M188.731,97.6c-.109.172-1.467-.336-2.936-1.269s-2.467-1.91-2.327-2.061,1.346.555,2.786,1.465,2.59,1.688,2.476,1.865" transform="translate(59.491 30.563)" fill="#ff9a6c"/>
              <path id="Trazado_881875" data-name="Trazado 881875" d="M191.4,92.85c-.106.171-1.454-.323-2.837-1.326s-2.226-2.082-2.069-2.215,1.226.682,2.564,1.643,2.455,1.72,2.341,1.9" transform="translate(60.471 28.956)" fill="#ff9a6c"/>
              <path id="Trazado_881876" data-name="Trazado 881876" d="M194.279,89.214c-.2.1-1.017-1.122-2.272-2.414s-2.458-2.192-2.329-2.366c.107-.166,1.6.493,2.917,1.874s1.871,2.825,1.684,2.907" transform="translate(61.505 27.372)" fill="#ff9c65"/>
              <path id="Trazado_881877" data-name="Trazado 881877" d="M280.252,359.212h-5.4l2.7-199.433H289.1Z" transform="translate(89.129 51.813)" fill="#e0e0e0"/>
              <path id="Trazado_881878" data-name="Trazado 881878" d="M280.271,359.3s0-.361.021-1.045q.038-1.051.11-3.021c.106-2.666.262-6.562.464-11.58.421-10.057,1.03-24.589,1.785-42.589,1.56-35.971,3.721-85.78,6.125-141.213l.344.359H277.572l.344-.339c-1.326,97.772-2.541,179.113-2.969,199.429l-.076-.077,4.047.044c.9.013,1.352.032,1.352.032s-.42.019-1.31.032l-4.089.044h-.077v-.078c.122-20.32,1.11-101.664,2.43-199.435l.005-.34H289.48l-.016.36c-2.519,55.526-4.782,105.418-6.417,141.449-.841,17.963-1.52,32.466-1.99,42.5-.242,4.982-.43,8.852-.559,11.5q-.1,1.941-.158,2.973c-.037.667-.069,1-.069,1" transform="translate(89.11 51.729)" fill="#263238"/>
              <path id="Trazado_881879" data-name="Trazado 881879" d="M28.543,359.773h-5.4L20.069,159.345H31.618Z" transform="translate(6.508 51.673)" fill="#e0e0e0"/>
              <path id="Trazado_881880" data-name="Trazado 881880" d="M28.629,359.856s-.011-.364-.008-1.05q.006-1.055.021-3.035c.03-2.678.074-6.592.13-11.635.13-10.106.318-24.71.552-42.8.518-36.15,1.236-86.205,2.035-141.915l.344.351H20.155l.346-.351c1.5,98.271,2.645,180.037,2.8,200.43l-.075-.074,4.046.044c.9.013,1.353.032,1.353.032s-.42.019-1.31.032l-4.089.044h-.074v-.075c-.466-20.389-1.834-102.151-3.344-200.422l-.005-.35H32.053l-.005.35c-.912,55.808-1.731,105.95-2.323,142.163-.322,18.051-.58,32.628-.76,42.713-.1,5.007-.173,8.9-.226,11.554q-.046,1.951-.07,2.989c-.019.67-.04,1-.04,1" transform="translate(6.422 51.588)" fill="#263238"/>
              <rect id="Rectángulo_405843" data-name="Rectángulo 405843" width="387.937" height="16.616" transform="translate(0.094 195.685)" fill="#455a64"/>
              <path id="Trazado_881881" data-name="Trazado 881881" d="M.094,147.851s.656-.016,1.96-.024l5.807-.025,22.4-.049,82.712-.1,275.058-.142h.344v.344c0,5.253,0,10.911,0,16.6v.364h-.346L.094,164.56H0v-.093c.024-5.71.042-9.87.053-12.614.011-1.352.017-2.352.023-3.026s.017-.976.017-.976.012.336.017,1.008.012,1.687.023,3.048c.011,2.732.029,6.873.053,12.559l-.093-.093,387.937-.253-.344.346V147.851l.344.344-274.8-.143-82.791-.1L7.955,147.9,2.1,147.875c-1.32-.008-2.009-.024-2.009-.024" transform="translate(0 47.834)" fill="#263238"/>
              <path id="Trazado_881882" data-name="Trazado 881882" d="M80.416,147.954a.72.72,0,0,1-.121.18c-.087.113-.213.286-.4.5a7.956,7.956,0,0,1-1.91,1.53,10.711,10.711,0,0,1-3.671,1.232,25.909,25.909,0,0,1-5.12.225,50.058,50.058,0,0,1-6.163-.709,54.957,54.957,0,0,0-7.02-.837c-4.979-.179-10.39,1.124-15.8,3.063s-10.487,4.141-15.333,5.482A42.172,42.172,0,0,1,17.893,160a29.528,29.528,0,0,1-6.214-.012,21.115,21.115,0,0,1-8.52-2.725A13.4,13.4,0,0,1,.525,155.3a.715.715,0,0,1,.183.117l.507.379a17.717,17.717,0,0,0,2.035,1.316,21.547,21.547,0,0,0,8.465,2.556,29.824,29.824,0,0,0,6.137-.045,42.637,42.637,0,0,0,6.915-1.416c4.8-1.353,9.847-3.562,15.3-5.51,5.43-1.947,10.908-3.256,15.967-3.051a54.02,54.02,0,0,1,7.068.885,51.235,51.235,0,0,0,6.114.76,26.348,26.348,0,0,0,5.067-.152A10.772,10.772,0,0,0,77.9,150a9.615,9.615,0,0,0,2.516-2.049" transform="translate(0.17 47.977)" fill="#263238"/>
              <path id="Trazado_881883" data-name="Trazado 881883" d="M37.978,148.155a9.4,9.4,0,0,1-1.149.981,26.329,26.329,0,0,1-3.467,2.231,30.18,30.18,0,0,1-5.671,2.307,30.745,30.745,0,0,1-7.407,1.159A28.366,28.366,0,0,1,7.039,152.1a8.409,8.409,0,0,1-3.2-2.611,4.526,4.526,0,0,1-.522-1,1.283,1.283,0,0,1-.1-.381,10.523,10.523,0,0,0,.768,1.277,8.66,8.66,0,0,0,3.2,2.423,29.375,29.375,0,0,0,13.083,2.561,31.635,31.635,0,0,0,7.3-1.106,32.194,32.194,0,0,0,5.633-2.185,32.67,32.67,0,0,0,3.513-2.087,9.372,9.372,0,0,1,1.257-.833" transform="translate(1.044 48.027)" fill="#263238"/>
              <path id="Trazado_881884" data-name="Trazado 881884" d="M104.223,157.86a4.549,4.549,0,0,1,.589.213,11.5,11.5,0,0,0,1.755.466,10.341,10.341,0,0,0,6.649-1.041l-.02.211a15.836,15.836,0,0,0-8.245-3.211,16.045,16.045,0,0,0-10.725,2.786,1.719,1.719,0,0,0-.83,1.079,1.162,1.162,0,0,0,.712,1.071,4.939,4.939,0,0,0,1.473.516l1.618.367c2.174.483,4.42.964,6.745,1.306a40.171,40.171,0,0,0,7.175.487,26.113,26.113,0,0,0,3.683-.354c.613-.1,1.226-.222,1.833-.384a9.194,9.194,0,0,0,1.775-.573,5.86,5.86,0,0,0,2.3-1.663,2.623,2.623,0,0,0,.441-2.553,4.367,4.367,0,0,0-1.806-2.018,14.353,14.353,0,0,0-2.523-1.232,34.424,34.424,0,0,0-10.553-2.189,43.729,43.729,0,0,0-18.014,2.792,44.6,44.6,0,0,0-10.846,5.923c-1.159.9-2.051,1.6-2.621,2.127l-.669.569a1.61,1.61,0,0,1-.24.183,1.411,1.411,0,0,1,.207-.217l.64-.605c.551-.546,1.426-1.279,2.573-2.2a43.946,43.946,0,0,1,29-9,34.715,34.715,0,0,1,10.7,2.193,14.748,14.748,0,0,1,2.606,1.271,4.8,4.8,0,0,1,1.99,2.245,3.1,3.1,0,0,1-.507,3,6.289,6.289,0,0,1-2.484,1.806,9.561,9.561,0,0,1-1.849.6c-.62.164-1.245.285-1.87.391a26.671,26.671,0,0,1-3.746.356,40.309,40.309,0,0,1-7.254-.5c-2.343-.348-4.6-.838-6.774-1.33l-1.62-.373a5.3,5.3,0,0,1-1.59-.569,2.136,2.136,0,0,1-.669-.584,1.3,1.3,0,0,1-.242-.9,2.089,2.089,0,0,1,1-1.367,16.35,16.35,0,0,1,11-2.8,16.012,16.012,0,0,1,8.371,3.353l.154.123-.172.089a10.335,10.335,0,0,1-6.795.948,7.662,7.662,0,0,1-2.319-.81" transform="translate(23.958 48.853)" fill="#263238"/>
              <path id="Trazado_881885" data-name="Trazado 881885" d="M136.946,148.278a2.484,2.484,0,0,1,.375.837,6.338,6.338,0,0,1,.25,2.494,12.282,12.282,0,0,1-3.7,7.252,18.717,18.717,0,0,1-3.458,2.939,15.354,15.354,0,0,1-3.336,1.617,15.634,15.634,0,0,1-2.417.607,3.312,3.312,0,0,1-.91.077c-.017-.086,1.275-.265,3.214-.995a16.57,16.57,0,0,0,3.211-1.666,19.582,19.582,0,0,0,3.353-2.9,12.58,12.58,0,0,0,3.713-6.964,9.071,9.071,0,0,0-.3-3.3" transform="translate(40.13 48.083)" fill="#263238"/>
              <path id="Trazado_881886" data-name="Trazado 881886" d="M198.808,162.337a22.067,22.067,0,0,0-1.744-1.7,12.4,12.4,0,0,0-5.943-2.678,13.241,13.241,0,0,0-4.524.13,19.414,19.414,0,0,1-5.3.487,10.587,10.587,0,0,1-5.279-2.589,18.023,18.023,0,0,0-5.305-3.145,19.461,19.461,0,0,0-11.782-.183,27.966,27.966,0,0,0-8.716,4.416,47.865,47.865,0,0,0-5.053,4.312l-1.29,1.273a3.06,3.06,0,0,1-.466.43,3.209,3.209,0,0,1,.4-.494c.27-.314.685-.767,1.229-1.338a42.321,42.321,0,0,1,4.986-4.45,27.715,27.715,0,0,1,8.8-4.565,19.7,19.7,0,0,1,12.059.158,18.3,18.3,0,0,1,5.426,3.222,10.246,10.246,0,0,0,5.049,2.524,19.493,19.493,0,0,0,5.191-.442,13.429,13.429,0,0,1,4.64-.074,12.216,12.216,0,0,1,6.007,2.868,8.068,8.068,0,0,1,1.626,1.834" transform="translate(46.502 49.089)" fill="#263238"/>
              <path id="Trazado_881887" data-name="Trazado 881887" d="M245.938,147.887a3.752,3.752,0,0,1-.416.568,19.789,19.789,0,0,1-1.3,1.544,35.382,35.382,0,0,1-5.547,4.928,44.489,44.489,0,0,1-9.624,5.335,39.4,39.4,0,0,1-6.206,1.98,32.054,32.054,0,0,1-6.943.894,34.336,34.336,0,0,1-13.174-2.741,43.882,43.882,0,0,1-9.572-5.428A37.4,37.4,0,0,1,187.651,150c-.611-.63-1.005-1.189-1.3-1.543a3.853,3.853,0,0,1-.417-.565,3.943,3.943,0,0,1,.49.506c.319.332.734.87,1.361,1.478a40.632,40.632,0,0,0,5.571,4.828,44.768,44.768,0,0,0,9.539,5.3,34.374,34.374,0,0,0,13.006,2.671,31.948,31.948,0,0,0,6.845-.871,39.829,39.829,0,0,0,6.147-1.933,45.582,45.582,0,0,0,9.593-5.2,38.22,38.22,0,0,0,5.606-4.783c.632-.605,1.041-1.148,1.359-1.481a4.108,4.108,0,0,1,.489-.507" transform="translate(60.294 47.957)" fill="#263238"/>
              <path id="Trazado_881888" data-name="Trazado 881888" d="M233.963,147.767c.009.013-.1.1-.323.262s-.546.395-.984.666a39.836,39.836,0,0,1-3.806,2.155,40.32,40.32,0,0,1-6.014,2.447,26.468,26.468,0,0,1-7.846,1.341,32.2,32.2,0,0,1-13.929-3.52,30.818,30.818,0,0,1-3.774-2.216c-.43-.285-.742-.54-.959-.7s-.322-.261-.313-.274a13.289,13.289,0,0,1,1.371.824,38.429,38.429,0,0,0,3.819,2.071,33.428,33.428,0,0,0,13.784,3.35,26.92,26.92,0,0,0,7.719-1.286,43.4,43.4,0,0,0,6-2.333c1.658-.787,2.966-1.5,3.855-2.012a12.464,12.464,0,0,1,1.4-.773" transform="translate(63.564 47.917)" fill="#263238"/>
              <path id="Trazado_881889" data-name="Trazado 881889" d="M291.09,149.166a4.627,4.627,0,0,1-.756,0l-2.144-.079-1.544-.069-1.845-.007c-1.322-.009-2.826-.036-4.485.042l-2.606.082-2.809.189c-1.949.1-3.993.365-6.158.575-4.293.543-8.951,1.31-13.684,2.369a133.086,133.086,0,0,0-12.819,3.66c-1.845.694-3.655,1.3-5.212,1.992l-2.3.957-2.029.955c-1.32.588-2.411,1.191-3.388,1.707l-1.367.72-1.079.645-1.515.883a2.926,2.926,0,0,1-.571.287c-.021-.011.134-.131.449-.35.383-.258.848-.571,1.409-.947l1.036-.677,1.327-.752c.953-.538,2.026-1.163,3.333-1.772l2.013-.985,2.288-.988c1.555-.707,3.366-1.336,5.218-2.045a125.769,125.769,0,0,1,12.909-3.728c4.779-1.07,9.488-1.831,13.832-2.356,2.19-.2,4.256-.456,6.228-.538l2.839-.164,2.631-.052c1.675-.058,3.191-.009,4.521.025l1.853.046,1.549.11,2.136.167a4.319,4.319,0,0,1,.736.09" transform="translate(72.892 48.221)" fill="#263238"/>
              <path id="Trazado_881890" data-name="Trazado 881890" d="M209.113,162.748a17.689,17.689,0,0,0-2.091-2.486,19.323,19.323,0,0,0-7.657-4.279,41.918,41.918,0,0,0-5.974-1.32c-2.18-.346-4.528-.617-6.987-1.042a58.519,58.519,0,0,1-7.587-1.9,49.512,49.512,0,0,0-8.094-1.953,33.727,33.727,0,0,0-15.767,2.176,57.513,57.513,0,0,0-6.413,2.882c-1.965,1.006-3.768,2-5.4,2.924-3.271,1.851-5.873,3.426-7.669,4.521l-2.065,1.266-.54.323a.781.781,0,0,1-.192.1c-.005-.007.052-.053.166-.136l.516-.363c.457-.314,1.135-.769,2.018-1.34,1.767-1.144,4.346-2.764,7.6-4.655,1.628-.943,3.425-1.956,5.388-2.981a56.419,56.419,0,0,1,6.443-2.941,33.854,33.854,0,0,1,15.976-2.237,49.464,49.464,0,0,1,8.167,1.978,59.269,59.269,0,0,0,7.53,1.918c2.439.433,4.786.719,6.972,1.083a41.113,41.113,0,0,1,6.015,1.388,19.021,19.021,0,0,1,7.683,4.464,9.749,9.749,0,0,1,1.963,2.615" transform="translate(43.023 48.346)" fill="#263238"/>
              <path id="Trazado_881891" data-name="Trazado 881891" d="M130.444,147.953a3.66,3.66,0,0,1-.056,1.062,12.369,12.369,0,0,1-.743,2.8,16.1,16.1,0,0,1-5.84,7.473,39.089,39.089,0,0,1-8.655,3.985c-1.157.384-2.1.659-2.764.83a4.391,4.391,0,0,1-1.038.216,4.894,4.894,0,0,1,.985-.389l2.706-.969a44.613,44.613,0,0,0,8.51-4.064,16.6,16.6,0,0,0,5.79-7.2,22.409,22.409,0,0,0,1.106-3.742" transform="translate(36.108 47.978)" fill="#263238"/>
              <path id="Trazado_881892" data-name="Trazado 881892" d="M59.159,164.323a6.632,6.632,0,0,1,.926-.889c.61-.556,1.534-1.314,2.7-2.214a78.387,78.387,0,0,1,9.691-6.244c3.949-2.171,7.637-3.907,10.315-5.136,1.339-.614,2.429-1.1,3.186-1.425a6.638,6.638,0,0,1,1.2-.462,6.742,6.742,0,0,1-1.119.628l-3.121,1.557c-2.639,1.306-6.3,3.086-10.231,5.247a95.718,95.718,0,0,0-9.719,6.1c-1.189.861-2.141,1.577-2.786,2.088a6.836,6.836,0,0,1-1.041.748" transform="translate(19.184 47.977)" fill="#263238"/>
              <path id="Trazado_881893" data-name="Trazado 881893" d="M87.145,148.512c0,.054-.878-.113-2.451.007a17.337,17.337,0,0,0-6.339,1.928,57.931,57.931,0,0,0-8.234,5.525,41.909,41.909,0,0,1-4.959,3.213,27.59,27.59,0,0,1-5.93,2.283,55.083,55.083,0,0,1-12.138,1.459c-3.756.11-7.131.034-9.959.151a49.226,49.226,0,0,0-6.661.652c-.777.144-1.381.262-1.786.359a3.5,3.5,0,0,1-.628.114,3.12,3.12,0,0,1,.6-.205c.4-.126,1-.274,1.776-.446a43.391,43.391,0,0,1,6.68-.8c2.839-.159,6.221-.118,9.96-.25a56.3,56.3,0,0,0,12.035-1.482,27.44,27.44,0,0,0,5.833-2.235,42.467,42.467,0,0,0,4.921-3.156,55.473,55.473,0,0,1,8.342-5.475,16.775,16.775,0,0,1,6.473-1.812,11.265,11.265,0,0,1,1.834.061,3.278,3.278,0,0,1,.629.114" transform="translate(9.099 48.099)" fill="#263238"/>
            </g>
          </g>
        </g>
      </g>
    </g>
    <g id="Enmascarar_grupo_1098703" data-name="Enmascarar grupo 1098703" clip-path="url(#clip-path-4)">
      <path id="Rectángulo_401759" data-name="Rectángulo 401759" d="M127.536,40.7A86.931,86.931,0,0,0,40.7,127.536v8.141a86.833,86.833,0,0,0,173.666,0v-8.141A86.931,86.931,0,0,0,127.536,40.7m0-40.7A127.536,127.536,0,0,1,255.072,127.536v8.141A127.536,127.536,0,0,1,0,135.677v-8.141A127.536,127.536,0,0,1,127.536,0Z" transform="translate(662.233 1673.27)" fill="#13de61"/>
      <path id="Rectángulo_401758" data-name="Rectángulo 401758" d="M127.536,40.7A86.931,86.931,0,0,0,40.7,127.536v8.141a86.833,86.833,0,0,0,173.666,0v-8.141A86.931,86.931,0,0,0,127.536,40.7m0-40.7A127.536,127.536,0,0,1,255.072,127.536v8.141A127.536,127.536,0,0,1,0,135.677v-8.141A127.536,127.536,0,0,1,127.536,0Z" transform="translate(287.766 2074.404)" fill="#fff"/>
    </g>
  </g>
</svg>
