<svg xmlns="http://www.w3.org/2000/svg" xmlns:xlink="http://www.w3.org/1999/xlink" width="90" height="90" viewBox="0 0 90 90">
  <defs>
    <clipPath id="clip-path">
      <path id="path21" d="M0-682.665H55.8v55.8H0Z" transform="translate(0 682.665)"/>
    </clipPath>
  </defs>
  <g id="Grupo_1102936" data-name="Grupo 1102936" transform="translate(-194.523 -1985)">
    <circle id="Elipse_11505" data-name="Elipse 11505" cx="45" cy="45" r="45" transform="translate(194.523 1985)" fill="#5e3552"/>
    <g id="g15" transform="translate(211.523 2684.665)">
      <g id="g17" transform="translate(0 -682.665)">
        <g id="g19" clip-path="url(#clip-path)">
          <g id="g25" transform="translate(0.814 11.013)">
            <path id="path27" d="M-586.826-458.157h-50.3a1.935,1.935,0,0,1-1.935-1.935V-498.94h54.172v38.849a1.935,1.935,0,0,1-1.935,1.935" transform="translate(639.064 498.94)" fill="#f8f6f6"/>
          </g>
          <g id="g29" transform="translate(50.872 11.013)">
            <path id="path31" d="M-46.231,0V38.848a1.935,1.935,0,0,1-1.936,1.935h-2.18a1.935,1.935,0,0,0,1.936-1.935V0Z" transform="translate(50.347)" fill="#ececec"/>
          </g>
          <g id="g33" transform="translate(-0.003 10.195)">
            <path id="path35" d="M-596.009-466.522h-50.3a2.755,2.755,0,0,1-2.752-2.752v-38.849a.817.817,0,0,1,.817-.817h54.172a.817.817,0,0,1,.817.817v38.849A2.755,2.755,0,0,1-596.009-466.522Zm-51.42-40.784v38.031a1.119,1.119,0,0,0,1.118,1.117h50.3a1.119,1.119,0,0,0,1.118-1.117v-38.031Z" transform="translate(649.064 508.94)"/>
          </g>
          <g id="g37" transform="translate(0.814 4.005)">
            <path id="path39" d="M-608.563-78.726h-54.172V-83.8a1.935,1.935,0,0,1,1.935-1.935h50.3a1.935,1.935,0,0,1,1.935,1.935Z" transform="translate(662.736 85.734)" fill="#b3dafe"/>
          </g>
          <g id="g41" transform="translate(50.872 4.005)">
            <path id="path43" d="M-46.231-21.732v5.073h-2.18v-5.073a1.935,1.935,0,0,0-1.936-1.935h2.18a1.935,1.935,0,0,1,1.936,1.935" transform="translate(50.347 23.667)" fill="#8ac9fe"/>
          </g>
          <g id="g45" transform="translate(-0.003 3.187)">
            <path id="path47" d="M-451.043-1.357h-54.172a.817.817,0,0,1-.817-.817V-7.248A2.755,2.755,0,0,1-503.28-10H-468.5a.817.817,0,0,1,.817.817.817.817,0,0,1-.817.817H-503.28A1.119,1.119,0,0,0-504.4-7.248v4.256h52.537V-7.248a1.119,1.119,0,0,0-1.118-1.117h-11.691a.817.817,0,0,1-.817-.817.817.817,0,0,1,.817-.817h11.691a2.755,2.755,0,0,1,2.752,2.752v5.073A.817.817,0,0,1-451.043-1.357Z" transform="translate(506.032 10)"/>
          </g>
          <g id="g49" transform="translate(0.814 11.002)">
            <path id="path51" d="M-182.525,0V40.784h-14.312a1.935,1.935,0,0,1-1.936-1.936V0Z" transform="translate(198.773 0)" fill="#fd8087"/>
          </g>
          <path id="path53" d="M185.457-507.281h-2.072v-40.784h2.072Z" transform="translate(-168.395 559.068)" fill="#fe646f"/>
          <g id="g55" transform="translate(-0.003 10.185)">
            <path id="path57" d="M-191.708-161.362H-206.02a2.756,2.756,0,0,1-2.753-2.753v-38.848a.817.817,0,0,1,.817-.817h16.248a.817.817,0,0,1,.817.817v12.094a.817.817,0,0,1-.817.817.817.817,0,0,1-.817-.817v-11.277h-14.613v38.031A1.12,1.12,0,0,0-206.02-163h13.495v-24.127a.817.817,0,0,1,.817-.817.817.817,0,0,1,.817.817v24.944A.817.817,0,0,1-191.708-161.362Z" transform="translate(208.773 203.781)"/>
          </g>
          <g id="g59" transform="translate(4.997 14.192)">
            <path id="path61" d="M-6.405-8.365H-9.183A.817.817,0,0,1-10-9.183.817.817,0,0,1-9.183-10h2.777a.817.817,0,0,1,.817.817A.817.817,0,0,1-6.405-8.365Z" transform="translate(10 10)"/>
          </g>
          <g id="g63" transform="translate(4.997 18.288)">
            <path id="path65" d="M-6.405-8.365H-9.183A.817.817,0,0,1-10-9.183.817.817,0,0,1-9.183-10h2.777a.817.817,0,0,1,.817.817A.817.817,0,0,1-6.405-8.365Z" transform="translate(10 10)"/>
          </g>
          <g id="g67" transform="translate(4.997 22.384)">
            <path id="path69" d="M-6.405-8.365H-9.183A.817.817,0,0,1-10-9.183.817.817,0,0,1-9.183-10h2.777a.817.817,0,0,1,.817.817A.817.817,0,0,1-6.405-8.365Z" transform="translate(10 10)"/>
          </g>
          <g id="g71" transform="translate(4.997 26.48)">
            <path id="path73" d="M-6.405-8.365H-9.183A.817.817,0,0,1-10-9.183.817.817,0,0,1-9.183-10h2.777a.817.817,0,0,1,.817.817A.817.817,0,0,1-6.405-8.365Z" transform="translate(10 10)"/>
          </g>
          <g id="g75" transform="translate(4.997 30.577)">
            <path id="path77" d="M-6.405-8.365H-9.183A.817.817,0,0,1-10-9.183.817.817,0,0,1-9.183-10h2.777a.817.817,0,0,1,.817.817A.817.817,0,0,1-6.405-8.365Z" transform="translate(10 10)"/>
          </g>
          <g id="g79" transform="translate(4.997 34.673)">
            <path id="path81" d="M-6.405-8.365H-9.183A.817.817,0,0,1-10-9.183.817.817,0,0,1-9.183-10h2.777a.817.817,0,0,1,.817.817A.817.817,0,0,1-6.405-8.365Z" transform="translate(10 10)"/>
          </g>
          <g id="g83" transform="translate(4.997 38.769)">
            <path id="path85" d="M-6.405-8.365H-9.183A.817.817,0,0,1-10-9.183.817.817,0,0,1-9.183-10h2.777a.817.817,0,0,1,.817.817A.817.817,0,0,1-6.405-8.365Z" transform="translate(10 10)"/>
          </g>
          <g id="g87" transform="translate(4.997 42.865)">
            <path id="path89" d="M-6.405-8.365H-9.183A.817.817,0,0,1-10-9.183.817.817,0,0,1-9.183-10h2.777a.817.817,0,0,1,.817.817A.817.817,0,0,1-6.405-8.365Z" transform="translate(10 10)"/>
          </g>
          <g id="g91" transform="translate(4.997 46.961)">
            <path id="path93" d="M-6.405-8.365H-9.183A.817.817,0,0,1-10-9.183.817.817,0,0,1-9.183-10h2.777a.817.817,0,0,1,.817.817A.817.817,0,0,1-6.405-8.365Z" transform="translate(10 10)"/>
          </g>
          <g id="g95" transform="translate(25.575 14.192)">
            <path id="path97" d="M-49.048-.175a.815.815,0,0,1-.3-.058.817.817,0,0,1-.457-1.062l3.258-8.192a.817.817,0,0,1,1.062-.457.817.817,0,0,1,.457,1.062L-48.288-.691A.818.818,0,0,1-49.048-.175Z" transform="translate(49.865 10.003)"/>
          </g>
          <g id="g99" transform="translate(31.941 14.584)">
            <path id="path101" d="M-9.185-.96a.814.814,0,0,1-.409-.11.817.817,0,0,1-.3-1.117l1.946-3.359L-9.884-8.762a.817.817,0,0,1,.278-1.122.817.817,0,0,1,1.122.278L-6.3-5.977a.817.817,0,0,1,.007.832L-8.477-1.367A.817.817,0,0,1-9.185-.96Z" transform="translate(10.002 10.001)"/>
          </g>
          <g id="g103" transform="translate(20.28 14.584)">
            <path id="path105" d="M-33.763-.96a.817.817,0,0,1-.708-.408l-2.188-3.777a.817.817,0,0,1,.007-.832l2.188-3.629a.817.817,0,0,1,1.122-.278.817.817,0,0,1,.278,1.122L-35-5.546l1.946,3.359a.817.817,0,0,1-.3,1.117A.814.814,0,0,1-33.763-.96Z" transform="translate(36.769 10.001)"/>
          </g>
          <g id="g107" transform="translate(20.28 26.48)">
            <path id="path109" d="M9.367-8.365H-9.183A.817.817,0,0,1-10-9.183.817.817,0,0,1-9.183-10H9.367a.817.817,0,0,1,.817.817A.817.817,0,0,1,9.367-8.365Z" transform="translate(10 10)"/>
          </g>
          <g id="g111" transform="translate(20.28 30.577)">
            <path id="path113" d="M-5.56-8.365H-9.183A.817.817,0,0,1-10-9.183.817.817,0,0,1-9.183-10H-5.56a.817.817,0,0,1,.817.817A.817.817,0,0,1-5.56-8.365Z" transform="translate(10 10)"/>
          </g>
          <g id="g115" transform="translate(28.175 30.577)">
            <path id="path117" d="M-5.56-8.365H-9.183A.817.817,0,0,1-10-9.183.817.817,0,0,1-9.183-10H-5.56a.817.817,0,0,1,.817.817A.817.817,0,0,1-5.56-8.365Z" transform="translate(10 10)"/>
          </g>
          <g id="g119" transform="translate(33.396 34.673)">
            <path id="path121" d="M-5.56-8.365H-9.183A.817.817,0,0,1-10-9.183.817.817,0,0,1-9.183-10H-5.56a.817.817,0,0,1,.817.817A.817.817,0,0,1-5.56-8.365Z" transform="translate(10 10)"/>
          </g>
          <g id="g123" transform="translate(33.396 42.865)">
            <path id="path125" d="M-5.56-8.365H-9.183A.817.817,0,0,1-10-9.183.817.817,0,0,1-9.183-10H-5.56a.817.817,0,0,1,.817.817A.817.817,0,0,1-5.56-8.365Z" transform="translate(10 10)"/>
          </g>
          <g id="g127" transform="translate(20.28 46.961)">
            <path id="path129" d="M.524-8.365H-9.183A.817.817,0,0,1-10-9.183.817.817,0,0,1-9.183-10H.524a.817.817,0,0,1,.817.817A.817.817,0,0,1,.524-8.365Z" transform="translate(10 10)"/>
          </g>
          <g id="g131" transform="translate(20.28 34.673)">
            <path id="path133" d="M.524-8.365H-9.183A.817.817,0,0,1-10-9.183.817.817,0,0,1-9.183-10H.524a.817.817,0,0,1,.817.817A.817.817,0,0,1,.524-8.365Z" transform="translate(10 10)"/>
          </g>
          <g id="g135" transform="translate(40.428 34.673)">
            <path id="path137" d="M.524-8.365H-9.183A.817.817,0,0,1-10-9.183.817.817,0,0,1-9.183-10H.524a.817.817,0,0,1,.817.817A.817.817,0,0,1,.524-8.365Z" transform="translate(10 10)"/>
          </g>
          <g id="g139" transform="translate(20.28 38.769)">
            <path id="path141" d="M-6.994-8.365H-9.183A.817.817,0,0,1-10-9.183.817.817,0,0,1-9.183-10h2.188a.817.817,0,0,1,.817.817A.817.817,0,0,1-6.994-8.365Z" transform="translate(10 10)"/>
          </g>
          <g id="g143" transform="translate(25.764 38.769)">
            <path id="path145" d="M8.492-8.365H-9.183A.817.817,0,0,1-10-9.183.817.817,0,0,1-9.183-10H8.492a.817.817,0,0,1,.817.817A.817.817,0,0,1,8.492-8.365Z" transform="translate(10 10)"/>
          </g>
          <g id="g147" transform="translate(20.28 42.865)">
            <path id="path149" d="M.524-8.365H-9.183A.817.817,0,0,1-10-9.183.817.817,0,0,1-9.183-10H.524a.817.817,0,0,1,.817.817A.817.817,0,0,1,.524-8.365Z" transform="translate(10 10)"/>
          </g>
        </g>
      </g>
    </g>
  </g>
</svg>
