<svg xmlns="http://www.w3.org/2000/svg" xmlns:xlink="http://www.w3.org/1999/xlink" width="173.358" height="205" viewBox="0 0 173.358 205">
  <defs>
    <clipPath id="clip-path">
      <rect id="Rectángulo_406418" data-name="Rectángulo 406418" width="173" height="205" transform="translate(201.523 1673)" fill="#fff" stroke="#707070" stroke-width="1"/>
    </clipPath>
  </defs>
  <g id="Grupo_1102889" data-name="Grupo 1102889" transform="translate(-201.523 -1673)">
    <rect id="Rectángulo_406416" data-name="Rectángulo 406416" width="133" height="187" rx="20" transform="translate(236.523 1673)" fill="#cfe1fa"/>
    <rect id="Rectángulo_406417" data-name="Rectángulo 406417" width="157" height="40" rx="20" transform="translate(201.523 1788)" fill="#1169e3"/>
    <g id="Grupo_1102886" data-name="Grupo 1102886" transform="translate(183.327 1680)">
      <g id="Grupo_1102883" data-name="Grupo 1102883" transform="translate(25.415)">
        <g id="Grupo_1102887" data-name="Grupo 1102887">
          <path id="Trazado_882391" data-name="Trazado 882391" d="M169.757,120.3H55.379V10.128A3.817,3.817,0,0,1,59.2,6.311H165.94a3.817,3.817,0,0,1,3.817,3.817Z" transform="translate(-55.155 -3.484)" fill="#263238"/>
          <path id="Trazado_882392" data-name="Trazado 882392" d="M169.481,120.252H55.1a.224.224,0,0,1-.224-.224V9.852A4.046,4.046,0,0,1,58.92,5.811H165.664a4.046,4.046,0,0,1,4.041,4.041V120.028a.224.224,0,0,1-.224.224M55.327,119.8h113.93V9.852a3.6,3.6,0,0,0-3.593-3.593H58.92a3.6,3.6,0,0,0-3.593,3.593Z" transform="translate(-54.879 -3.208)" fill="#263238"/>
          <path id="Trazado_882393" data-name="Trazado 882393" d="M175.569,114.493H61.191V4.317A3.817,3.817,0,0,1,65.008.5H171.752a3.817,3.817,0,0,1,3.817,3.817Z" transform="translate(-58.363 -0.276)" fill="#fff"/>
          <path id="Trazado_882394" data-name="Trazado 882394" d="M175.292,114.441H60.914a.224.224,0,0,1-.224-.224V4.041A4.046,4.046,0,0,1,64.731,0H171.475a4.046,4.046,0,0,1,4.041,4.041V114.217a.224.224,0,0,1-.224.224m-114.154-.448h113.93V4.041A3.6,3.6,0,0,0,171.475.448H64.731a3.6,3.6,0,0,0-3.593,3.593Z" transform="translate(-58.087)" fill="#263238"/>
          <path id="Trazado_882395" data-name="Trazado 882395" d="M175.569,11.4H61.191V4.317A3.817,3.817,0,0,1,65.008.5H171.752a3.817,3.817,0,0,1,3.817,3.817Z" transform="translate(-58.363 -0.276)" fill="#13de61"/>
          <path id="Trazado_882396" data-name="Trazado 882396" d="M175.292,11.344H60.914a.224.224,0,0,1-.224-.224V4.041A4.046,4.046,0,0,1,64.731,0H171.475a4.046,4.046,0,0,1,4.041,4.041V11.12a.224.224,0,0,1-.224.224M61.138,10.9h113.93V4.041A3.6,3.6,0,0,0,171.475.448H64.731a3.6,3.6,0,0,0-3.593,3.593Z" transform="translate(-58.087)" fill="#263238"/>
          <path id="Trazado_882397" data-name="Trazado 882397" d="M271.064,11.245a1.776,1.776,0,1,0-1.776,1.776,1.776,1.776,0,0,0,1.776-1.776" transform="translate(-172.254 -5.227)" fill="#fff"/>
          <path id="Trazado_882398" data-name="Trazado 882398" d="M269.012,12.969a2,2,0,1,1,2-2,2,2,0,0,1-2,2m0-3.552a1.552,1.552,0,1,0,1.552,1.552,1.554,1.554,0,0,0-1.552-1.552" transform="translate(-171.978 -4.951)" fill="#263238"/>
          <path id="Trazado_882399" data-name="Trazado 882399" d="M282.955,11.245a1.776,1.776,0,1,0-1.776,1.776,1.776,1.776,0,0,0,1.776-1.776" transform="translate(-178.819 -5.227)" fill="#fff"/>
          <path id="Trazado_882400" data-name="Trazado 882400" d="M280.9,12.969a2,2,0,1,1,2-2,2,2,0,0,1-2,2m0-3.552a1.552,1.552,0,1,0,1.552,1.552A1.553,1.553,0,0,0,280.9,9.417" transform="translate(-178.543 -4.951)" fill="#263238"/>
          <path id="Trazado_882401" data-name="Trazado 882401" d="M294.846,11.245a1.776,1.776,0,1,0-1.776,1.776,1.776,1.776,0,0,0,1.776-1.776" transform="translate(-185.382 -5.227)" fill="#263238"/>
          <path id="Trazado_882402" data-name="Trazado 882402" d="M292.795,12.969a2,2,0,1,1,2-2,2,2,0,0,1-2,2m0-3.552a1.552,1.552,0,1,0,1.551,1.552,1.554,1.554,0,0,0-1.551-1.552" transform="translate(-185.106 -4.951)" fill="#263238"/>
          <path id="Trazado_882403" data-name="Trazado 882403" d="M94.969,39.2h-8.41a.672.672,0,0,1,0-1.344h8.41a.672.672,0,0,1,0,1.344" transform="translate(-71.996 -20.898)" fill="#263238"/>
          <path id="Trazado_882404" data-name="Trazado 882404" d="M118.155,50.23h-31.6a.672.672,0,0,1,0-1.344h31.6a.672.672,0,1,1,0,1.344" transform="translate(-71.996 -26.985)" fill="#c4c4c4"/>
          <path id="Trazado_882405" data-name="Trazado 882405" d="M227.244,50.23h-31.6a.672.672,0,0,1,0-1.344h31.6a.672.672,0,0,1,0,1.344" transform="translate(-132.214 -26.985)" fill="#c4c4c4"/>
          <path id="Trazado_882406" data-name="Trazado 882406" d="M174.155,50.23h-12.5a.672.672,0,0,1,0-1.344h12.5a.672.672,0,0,1,0,1.344" transform="translate(-113.448 -26.985)" fill="#263238"/>
          <path id="Trazado_882407" data-name="Trazado 882407" d="M104.743,61.258H86.559a.672.672,0,0,1,0-1.344h18.184a.672.672,0,1,1,0,1.344" transform="translate(-71.996 -33.073)" fill="#263238"/>
          <path id="Trazado_882408" data-name="Trazado 882408" d="M150.409,61.258H132.225a.672.672,0,0,1,0-1.344h18.184a.672.672,0,0,1,0,1.344" transform="translate(-97.204 -33.073)" fill="#263238"/>
          <path id="Trazado_882409" data-name="Trazado 882409" d="M196.074,61.258H177.889a.672.672,0,0,1,0-1.344h18.185a.672.672,0,1,1,0,1.344" transform="translate(-122.411 -33.073)" fill="#263238"/>
          <path id="Trazado_882410" data-name="Trazado 882410" d="M231.283,61.258h-7.728a.672.672,0,1,1,0-1.344h7.728a.672.672,0,0,1,0,1.344" transform="translate(-147.618 -33.073)" fill="#263238"/>
          <path id="Trazado_882411" data-name="Trazado 882411" d="M118.816,39.2h-8.41a.672.672,0,0,1,0-1.344h8.41a.672.672,0,1,1,0,1.344" transform="translate(-85.159 -20.898)" fill="#263238"/>
          <path id="Trazado_882412" data-name="Trazado 882412" d="M230.443,39.2h-8.41a.672.672,0,1,1,0-1.344h8.41a.672.672,0,1,1,0,1.344" transform="translate(-146.778 -20.898)" fill="#263238"/>
          <path id="Trazado_882413" data-name="Trazado 882413" d="M205.581,39.2h-8.41a.672.672,0,0,1,0-1.344h8.41a.672.672,0,1,1,0,1.344" transform="translate(-133.054 -20.898)" fill="#c4c4c4"/>
          <path id="Trazado_882414" data-name="Trazado 882414" d="M158.8,39.2H134.254a.672.672,0,1,1,0-1.344H158.8a.672.672,0,0,1,0,1.344" transform="translate(-98.324 -20.898)" fill="#263238"/>
          <path id="Trazado_882415" data-name="Trazado 882415" d="M94.969,106.53h-8.41a.672.672,0,1,1,0-1.344h8.41a.672.672,0,0,1,0,1.344" transform="translate(-71.996 -58.063)" fill="#263238"/>
          <path id="Trazado_882416" data-name="Trazado 882416" d="M118.155,117.558h-31.6a.672.672,0,1,1,0-1.344h31.6a.672.672,0,1,1,0,1.344" transform="translate(-71.996 -64.151)" fill="#c4c4c4"/>
          <path id="Trazado_882417" data-name="Trazado 882417" d="M227.244,117.558h-31.6a.672.672,0,0,1,0-1.344h31.6a.672.672,0,0,1,0,1.344" transform="translate(-132.214 -64.151)" fill="#263238"/>
          <path id="Trazado_882418" data-name="Trazado 882418" d="M174.155,117.558h-12.5a.672.672,0,0,1,0-1.344h12.5a.672.672,0,0,1,0,1.344" transform="translate(-113.448 -64.151)" fill="#263238"/>
          <path id="Trazado_882419" data-name="Trazado 882419" d="M104.743,128.586H86.559a.672.672,0,1,1,0-1.344h18.184a.672.672,0,1,1,0,1.344" transform="translate(-71.996 -70.239)" fill="#263238"/>
          <path id="Trazado_882420" data-name="Trazado 882420" d="M150.409,128.586H132.225a.672.672,0,0,1,0-1.344h18.184a.672.672,0,0,1,0,1.344" transform="translate(-97.204 -70.239)" fill="#263238"/>
          <path id="Trazado_882421" data-name="Trazado 882421" d="M196.074,128.586H177.889a.672.672,0,0,1,0-1.344h18.185a.672.672,0,1,1,0,1.344" transform="translate(-122.411 -70.239)" fill="#c4c4c4"/>
          <path id="Trazado_882422" data-name="Trazado 882422" d="M231.283,128.586h-7.728a.672.672,0,1,1,0-1.344h7.728a.672.672,0,0,1,0,1.344" transform="translate(-147.618 -70.239)" fill="#263238"/>
          <path id="Trazado_882423" data-name="Trazado 882423" d="M118.816,106.53h-8.41a.672.672,0,0,1,0-1.344h8.41a.672.672,0,1,1,0,1.344" transform="translate(-85.159 -58.063)" fill="#263238"/>
          <path id="Trazado_882424" data-name="Trazado 882424" d="M230.443,106.53h-8.41a.672.672,0,1,1,0-1.344h8.41a.672.672,0,1,1,0,1.344" transform="translate(-146.778 -58.063)" fill="#263238"/>
          <path id="Trazado_882425" data-name="Trazado 882425" d="M205.581,106.53h-8.41a.672.672,0,0,1,0-1.344h8.41a.672.672,0,1,1,0,1.344" transform="translate(-133.054 -58.063)" fill="#c4c4c4"/>
          <path id="Trazado_882426" data-name="Trazado 882426" d="M158.8,106.53H134.254a.672.672,0,1,1,0-1.344H158.8a.672.672,0,0,1,0,1.344" transform="translate(-98.324 -58.063)" fill="#263238"/>
          <path id="Trazado_882427" data-name="Trazado 882427" d="M94.969,205.78h-8.41a.672.672,0,1,1,0-1.344h8.41a.672.672,0,1,1,0,1.344" transform="translate(-71.996 -112.85)" fill="#263238"/>
          <path id="Trazado_882428" data-name="Trazado 882428" d="M118.155,216.808h-31.6a.672.672,0,1,1,0-1.344h31.6a.672.672,0,1,1,0,1.344" transform="translate(-71.996 -118.938)" fill="#c4c4c4"/>
          <path id="Trazado_882429" data-name="Trazado 882429" d="M227.244,216.808h-31.6a.672.672,0,0,1,0-1.344h31.6a.672.672,0,0,1,0,1.344" transform="translate(-132.214 -118.938)" fill="#263238"/>
          <path id="Trazado_882430" data-name="Trazado 882430" d="M174.155,216.808h-12.5a.672.672,0,0,1,0-1.344h12.5a.672.672,0,0,1,0,1.344" transform="translate(-113.448 -118.938)" fill="#263238"/>
          <path id="Trazado_882431" data-name="Trazado 882431" d="M104.743,227.836H86.559a.672.672,0,1,1,0-1.344h18.184a.672.672,0,1,1,0,1.344" transform="translate(-71.996 -125.025)" fill="#263238"/>
          <path id="Trazado_882432" data-name="Trazado 882432" d="M150.409,227.836H132.225a.672.672,0,0,1,0-1.344h18.184a.672.672,0,0,1,0,1.344" transform="translate(-97.204 -125.025)" fill="#263238"/>
          <path id="Trazado_882433" data-name="Trazado 882433" d="M196.074,227.836H177.889a.672.672,0,0,1,0-1.344h18.185a.672.672,0,1,1,0,1.344" transform="translate(-122.411 -125.025)" fill="#c4c4c4"/>
          <path id="Trazado_882434" data-name="Trazado 882434" d="M231.283,227.836h-7.728a.672.672,0,1,1,0-1.344h7.728a.672.672,0,0,1,0,1.344" transform="translate(-147.618 -125.025)" fill="#263238"/>
          <path id="Trazado_882435" data-name="Trazado 882435" d="M118.816,205.78h-8.41a.672.672,0,0,1,0-1.344h8.41a.672.672,0,1,1,0,1.344" transform="translate(-85.159 -112.85)" fill="#263238"/>
          <path id="Trazado_882436" data-name="Trazado 882436" d="M230.443,205.78h-8.41a.672.672,0,1,1,0-1.344h8.41a.672.672,0,1,1,0,1.344" transform="translate(-146.778 -112.85)" fill="#263238"/>
          <path id="Trazado_882437" data-name="Trazado 882437" d="M205.581,205.78h-8.41a.672.672,0,1,1,0-1.344h8.41a.672.672,0,1,1,0,1.344" transform="translate(-133.054 -112.85)" fill="#c4c4c4"/>
          <path id="Trazado_882438" data-name="Trazado 882438" d="M158.8,205.78H134.254a.672.672,0,1,1,0-1.344H158.8a.672.672,0,0,1,0,1.344" transform="translate(-98.324 -112.85)" fill="#263238"/>
          <path id="Trazado_882439" data-name="Trazado 882439" d="M200.507,72.867H192.1a.672.672,0,0,1,0-1.344h8.411a.672.672,0,1,1,0,1.344" transform="translate(-130.253 -39.481)" fill="#263238"/>
          <path id="Trazado_882440" data-name="Trazado 882440" d="M175.645,72.867h-8.411a.672.672,0,1,1,0-1.344h8.411a.672.672,0,0,1,0,1.344" transform="translate(-116.529 -39.481)" fill="#263238"/>
          <path id="Trazado_882441" data-name="Trazado 882441" d="M128.867,72.867H104.318a.672.672,0,1,1,0-1.344h24.549a.672.672,0,1,1,0,1.344" transform="translate(-81.799 -39.481)" fill="#263238"/>
          <path id="Trazado_882442" data-name="Trazado 882442" d="M200.507,92.6H192.1a.672.672,0,0,1,0-1.344h8.411a.672.672,0,0,1,0,1.344" transform="translate(-130.253 -50.375)" fill="#263238"/>
          <path id="Trazado_882443" data-name="Trazado 882443" d="M175.645,92.6h-8.411a.672.672,0,1,1,0-1.344h8.411a.672.672,0,0,1,0,1.344" transform="translate(-116.529 -50.375)" fill="#263238"/>
          <path id="Trazado_882444" data-name="Trazado 882444" d="M128.867,92.6H104.318a.672.672,0,0,1,0-1.344h24.549a.672.672,0,1,1,0,1.344" transform="translate(-81.799 -50.375)" fill="#c4c4c4"/>
          <path id="Trazado_882445" data-name="Trazado 882445" d="M112.728,82.733h-8.41a.672.672,0,1,1,0-1.344h8.41a.672.672,0,0,1,0,1.344" transform="translate(-81.799 -44.927)" fill="#263238"/>
          <path id="Trazado_882446" data-name="Trazado 882446" d="M137.59,82.733h-8.411a.672.672,0,0,1,0-1.344h8.411a.672.672,0,0,1,0,1.344" transform="translate(-95.522 -44.927)" fill="#263238"/>
          <path id="Trazado_882447" data-name="Trazado 882447" d="M180.621,82.733h-24.55a.672.672,0,0,1,0-1.344h24.55a.672.672,0,1,1,0,1.344" transform="translate(-110.367 -44.927)" fill="#c4c4c4"/>
          <path id="Trazado_882448" data-name="Trazado 882448" d="M200.507,141.935H192.1a.672.672,0,0,1,0-1.344h8.411a.672.672,0,0,1,0,1.344" transform="translate(-130.253 -77.607)" fill="#263238"/>
          <path id="Trazado_882449" data-name="Trazado 882449" d="M175.645,141.935h-8.411a.672.672,0,1,1,0-1.344h8.411a.672.672,0,0,1,0,1.344" transform="translate(-116.529 -77.607)" fill="#263238"/>
          <path id="Trazado_882450" data-name="Trazado 882450" d="M128.867,141.935H104.318a.672.672,0,1,1,0-1.344h24.549a.672.672,0,1,1,0,1.344" transform="translate(-81.799 -77.607)" fill="#263238"/>
          <path id="Trazado_882451" data-name="Trazado 882451" d="M200.507,161.669H192.1a.672.672,0,0,1,0-1.344h8.411a.672.672,0,0,1,0,1.344" transform="translate(-130.253 -88.501)" fill="#263238"/>
          <path id="Trazado_882452" data-name="Trazado 882452" d="M175.645,161.669h-8.411a.672.672,0,1,1,0-1.344h8.411a.672.672,0,0,1,0,1.344" transform="translate(-116.529 -88.501)" fill="#263238"/>
          <path id="Trazado_882453" data-name="Trazado 882453" d="M128.867,161.669H104.318a.672.672,0,1,1,0-1.344h24.549a.672.672,0,1,1,0,1.344" transform="translate(-81.799 -88.501)" fill="#c4c4c4"/>
          <path id="Trazado_882454" data-name="Trazado 882454" d="M112.728,151.8h-8.41a.672.672,0,0,1,0-1.344h8.41a.672.672,0,0,1,0,1.344" transform="translate(-81.799 -83.054)" fill="#263238"/>
          <path id="Trazado_882455" data-name="Trazado 882455" d="M137.59,151.8h-8.411a.672.672,0,0,1,0-1.344h8.411a.672.672,0,0,1,0,1.344" transform="translate(-95.522 -83.054)" fill="#263238"/>
          <path id="Trazado_882456" data-name="Trazado 882456" d="M180.621,151.8h-24.55a.672.672,0,0,1,0-1.344h24.55a.672.672,0,0,1,0,1.344" transform="translate(-110.367 -83.054)" fill="#c4c4c4"/>
          <path id="Trazado_882457" data-name="Trazado 882457" d="M112.728,173.277h-8.41a.672.672,0,1,1,0-1.344h8.41a.672.672,0,0,1,0,1.344" transform="translate(-81.799 -94.908)" fill="#263238"/>
          <path id="Trazado_882458" data-name="Trazado 882458" d="M137.59,173.277h-8.411a.672.672,0,0,1,0-1.344h8.411a.672.672,0,0,1,0,1.344" transform="translate(-95.522 -94.908)" fill="#263238"/>
          <path id="Trazado_882459" data-name="Trazado 882459" d="M180.621,173.277h-24.55a.672.672,0,0,1,0-1.344h24.55a.672.672,0,1,1,0,1.344" transform="translate(-110.367 -94.908)" fill="#c4c4c4"/>
          <path id="Trazado_882460" data-name="Trazado 882460" d="M112.728,193.011h-8.41a.672.672,0,1,1,0-1.344h8.41a.672.672,0,0,1,0,1.344" transform="translate(-81.799 -105.802)" fill="#263238"/>
          <path id="Trazado_882461" data-name="Trazado 882461" d="M137.59,193.011h-8.411a.672.672,0,0,1,0-1.344h8.411a.672.672,0,0,1,0,1.344" transform="translate(-95.522 -105.802)" fill="#263238"/>
          <path id="Trazado_882462" data-name="Trazado 882462" d="M180.621,193.011h-24.55a.672.672,0,0,1,0-1.344h24.55a.672.672,0,1,1,0,1.344" transform="translate(-110.367 -105.802)" fill="#c4c4c4"/>
          <path id="Trazado_882463" data-name="Trazado 882463" d="M200.507,183.144H192.1a.672.672,0,1,1,0-1.344h8.411a.672.672,0,1,1,0,1.344" transform="translate(-130.253 -100.355)" fill="#263238"/>
          <path id="Trazado_882464" data-name="Trazado 882464" d="M175.645,183.144h-8.411a.672.672,0,1,1,0-1.344h8.411a.672.672,0,1,1,0,1.344" transform="translate(-116.529 -100.355)" fill="#263238"/>
          <path id="Trazado_882465" data-name="Trazado 882465" d="M128.867,183.144H104.318a.672.672,0,1,1,0-1.344h24.549a.672.672,0,1,1,0,1.344" transform="translate(-81.799 -100.355)" fill="#c4c4c4"/>
          <rect id="Rectángulo_406398" data-name="Rectángulo 406398" width="2.685" height="3.034" transform="translate(8.758 15.917)" fill="#263238"/>
          <rect id="Rectángulo_406399" data-name="Rectángulo 406399" width="2.685" height="3.034" transform="translate(8.758 20.901)" fill="#263238"/>
          <rect id="Rectángulo_406400" data-name="Rectángulo 406400" width="2.685" height="3.034" transform="translate(8.758 25.885)" fill="#263238"/>
          <rect id="Rectángulo_406401" data-name="Rectángulo 406401" width="2.685" height="3.034" transform="translate(8.758 30.869)" fill="#263238"/>
          <rect id="Rectángulo_406402" data-name="Rectángulo 406402" width="2.685" height="3.034" transform="translate(8.758 35.854)" fill="#263238"/>
          <rect id="Rectángulo_406403" data-name="Rectángulo 406403" width="2.685" height="3.034" transform="translate(8.758 40.838)" fill="#263238"/>
          <rect id="Rectángulo_406404" data-name="Rectángulo 406404" width="2.685" height="3.034" transform="translate(8.758 45.822)" fill="#263238"/>
          <rect id="Rectángulo_406405" data-name="Rectángulo 406405" width="2.685" height="3.034" transform="translate(8.758 50.806)" fill="#263238"/>
          <rect id="Rectángulo_406406" data-name="Rectángulo 406406" width="2.685" height="3.034" transform="translate(8.758 55.79)" fill="#263238"/>
          <rect id="Rectángulo_406407" data-name="Rectángulo 406407" width="2.685" height="3.034" transform="translate(8.758 60.775)" fill="#263238"/>
          <rect id="Rectángulo_406408" data-name="Rectángulo 406408" width="2.685" height="3.034" transform="translate(8.758 65.759)" fill="#263238"/>
          <rect id="Rectángulo_406409" data-name="Rectángulo 406409" width="2.685" height="3.034" transform="translate(8.758 70.743)" fill="#263238"/>
          <rect id="Rectángulo_406410" data-name="Rectángulo 406410" width="2.685" height="3.034" transform="translate(8.758 75.727)" fill="#263238"/>
          <rect id="Rectángulo_406411" data-name="Rectángulo 406411" width="2.685" height="3.034" transform="translate(8.758 80.712)" fill="#263238"/>
          <rect id="Rectángulo_406412" data-name="Rectángulo 406412" width="2.685" height="3.034" transform="translate(8.758 85.696)" fill="#263238"/>
          <rect id="Rectángulo_406413" data-name="Rectángulo 406413" width="2.685" height="3.034" transform="translate(8.758 90.68)" fill="#263238"/>
          <rect id="Rectángulo_406414" data-name="Rectángulo 406414" width="2.685" height="3.034" transform="translate(8.758 95.664)" fill="#263238"/>
          <rect id="Rectángulo_406415" data-name="Rectángulo 406415" width="2.685" height="3.034" transform="translate(8.758 100.648)" fill="#263238"/>
        </g>
      </g>
      <g id="Grupo_1102885" data-name="Grupo 1102885" transform="translate(106.212 27.306)">
        <g id="Grupo_1102888" data-name="Grupo 1102888">
          <path id="Trazado_882466" data-name="Trazado 882466" d="M303.7,222.237l-3.619,50.613-.975,30.871s-1.533.279-1.533,1.254.139,2.647.139,3.9-2.229,7.524-2.229,7.524h10.311s-.139-3.622,0-5.852.139-3.344.418-3.9a7.921,7.921,0,0,0,.975-3.2c0-1.254.279-4.04.418-5.434S317.077,250,317.077,250s1.951,25.636,2.368,29.4.139,9.783.279,13.963,2.787,16.58,2.787,16.58-.558,5.852-.558,6.548h18.809s.7-.975,0-1.254-2.09-.557-2.508-.7-7.384-5.573-7.384-5.573a22.271,22.271,0,0,0,0-3.065c-.139-.418-1.393-1.951-1.393-3.344s1.811-15.077,1.811-22.183V265.048c0-2.926.279-32.324.279-32.324l-.279-11.285Z" transform="translate(-268.491 -149.541)" fill="#263238"/>
          <path id="Trazado_882467" data-name="Trazado 882467" d="M340.486,316.437H321.677a.224.224,0,0,1-.224-.224c0-.679.5-6.007.555-6.535-.153-.723-2.649-12.541-2.784-16.586-.052-1.568-.046-3.359-.039-5.257a85.829,85.829,0,0,0-.238-8.689c-.352-3.171-1.809-22.087-2.245-27.785-1.64,8.2-9.03,45.171-9.152,46.392-.135,1.354-.417,4.169-.417,5.411a8.048,8.048,0,0,1-1,3.3,8.731,8.731,0,0,0-.324,2.605c-.02.362-.043.764-.071,1.21-.137,2.192,0,5.793,0,5.829a.224.224,0,0,1-.224.233H295.2a.224.224,0,0,1-.211-.3c.767-2.156,2.217-6.487,2.217-7.448,0-.661-.039-1.431-.076-2.175-.032-.65-.063-1.264-.063-1.727,0-.938,1.1-1.318,1.538-1.434l.97-30.7,3.619-50.622a.224.224,0,0,1,.217-.208l27.591-.8a.22.22,0,0,1,.16.061.224.224,0,0,1,.07.157l.279,11.285c0,.3-.279,29.439-.279,32.33V280.1c0,4.937-.88,13.112-1.405,18-.236,2.189-.406,3.771-.406,4.186a5.8,5.8,0,0,0,1.051,2.67,3.7,3.7,0,0,1,.331.6,18.158,18.158,0,0,1,.017,3.031c2.745,2.14,6.87,5.311,7.231,5.468.14.047.425.116.755.2a15.514,15.514,0,0,1,1.759.5.672.672,0,0,1,.421.44,1.6,1.6,0,0,1-.322,1.152.225.225,0,0,1-.182.094m-18.577-.448h18.456a1.047,1.047,0,0,0,.195-.672.228.228,0,0,0-.157-.15,15.17,15.17,0,0,0-1.7-.482c-.34-.083-.633-.155-.8-.21-.421-.14-5.81-4.329-7.451-5.609a.224.224,0,0,1-.086-.189,20.2,20.2,0,0,0,.011-2.982,4.124,4.124,0,0,0-.288-.511,6.136,6.136,0,0,1-1.117-2.9c0-.44.172-2.032.409-4.235.525-4.875,1.4-13.035,1.4-17.948V264.77c0-2.893.276-32.032.279-32.326l-.273-11.053-27.164.788-3.6,50.411-.974,30.862a.225.225,0,0,1-.184.213c-.013,0-1.349.257-1.349,1.034,0,.452.03,1.06.063,1.7.038.749.077,1.525.077,2.2,0,1.132-1.688,6.02-2.137,7.3h9.762c-.028-.838-.11-3.752.008-5.642.028-.445.05-.846.07-1.206a8.471,8.471,0,0,1,.371-2.781,7.787,7.787,0,0,0,.952-3.1c0-1.265.283-4.095.419-5.455.139-1.389,9.1-46.128,9.478-48.031a.22.22,0,0,1,.233-.179.224.224,0,0,1,.21.207c.02.256,1.955,25.675,2.368,29.39a86.043,86.043,0,0,1,.241,8.74c-.007,1.893-.013,3.681.039,5.24.138,4.113,2.756,16.417,2.782,16.541a.22.22,0,0,1,0,.069c-.005.054-.479,5.039-.548,6.3m-23.082-12.545h0Z" transform="translate(-268.214 -149.264)" fill="#263238"/>
          <path id="Trazado_882468" data-name="Trazado 882468" d="M310.76,218.543s.112,3.127.807,3.706,11.013,1.739,18.085,1.507,9.886-1.665,10.35-3.056-.436-3.62-.436-3.62l-27.883-.511a4.063,4.063,0,0,0-.923,1.974" transform="translate(-276.925 -146.854)" fill="#13de61"/>
          <path id="Trazado_882469" data-name="Trazado 882469" d="M327.441,223.736c-6.791,0-15.563-.981-16.293-1.589-.751-.626-.876-3.54-.887-3.871a.223.223,0,0,1,0-.049,4.269,4.269,0,0,1,.983-2.09.242.242,0,0,1,.164-.067l27.883.511a.224.224,0,0,1,.2.14c.038.094.925,2.322.441,3.775-.613,1.839-4.461,3.01-10.555,3.209-.622.02-1.273.03-1.943.03m-16.732-5.451c.044,1.174.278,3.145.725,3.518.586.478,10.659,1.693,17.934,1.455,8.609-.282,9.941-2.294,10.145-2.9a6.122,6.122,0,0,0-.38-3.329l-27.626-.506a4.012,4.012,0,0,0-.8,1.765" transform="translate(-276.649 -146.578)" fill="#263238"/>
          <path id="Trazado_882470" data-name="Trazado 882470" d="M280.592,113.419s-11.065,4.024-12.253,4.573-2.195,1.1-2.378,1.738-6.127,15.362-6.127,15.362l-12.619-12.345s-1.463-1.463-2.286-2.1-2.286-.549-3.292-.732-1.738-1.737-2.1-.823-.275,1.371.091,1.646a6.4,6.4,0,0,1,.823.823,18.394,18.394,0,0,1-2.56-.823c-.732-.366-1.646-2.743-2.1-1.555s2.286,4.115,3.018,4.755,1.189.548,2.652.732,3.749.274,3.749.274,11.705,21.215,12.62,21.855,1.463,1.28,2.195,1.006,8.139-8.046,8.139-8.046.915,20.026,1.189,21.032,1.006.914,1.372,1.006,10.15,1.1,14.265,1.1a52.6,52.6,0,0,0,11.248-1.28c1.189-.457,1.921-.914,1.921-2.286s.64-13.717.64-13.717,5.669,4.938,7.041,5.03a2.68,2.68,0,0,0,2.744-1.463c.457-.914,6.95-23.227,6.95-23.227a30.993,30.993,0,0,0,3.2-2.927c0-.274.457-7.773-.457-7.5s-3.109,1.006-3.109,1.006a3.936,3.936,0,0,0,.274-3.109c-.64-1.463-1.829-1.92-1.829-1.006a28.918,28.918,0,0,1-.183,4.024,16.3,16.3,0,0,0-.823,4.3c.091,1.463.091,1.829.091,2.378s-8.139,14.174-8.139,14.174-5.029-16.277-5.578-17.1-9.236-5.121-9.236-5.121Z" transform="translate(-235.509 -89.099)" fill="#fff"/>
          <path id="Trazado_882471" data-name="Trazado 882471" d="M284.706,162.84c-4.036,0-13.915-1-14.32-1.1a1.9,1.9,0,0,0-.189-.032,1.4,1.4,0,0,1-1.345-1.132c-.256-.938-1.023-17.327-1.172-20.558-1.79,1.873-7.174,7.466-7.86,7.723s-1.243-.158-1.878-.644c-.162-.124-.335-.256-.524-.388-.916-.641-11.169-19.18-12.626-21.821-.5-.022-2.383-.113-3.641-.27-.285-.036-.532-.061-.749-.083a2.965,2.965,0,0,1-2.022-.7c-.037-.033-3.674-3.459-3.079-5,.11-.286.269-.444.471-.47.4-.052.751.44,1.157,1.009a3.355,3.355,0,0,0,.785.9,12.217,12.217,0,0,0,1.763.6,3.04,3.04,0,0,0-.26-.225c-.633-.474-.42-1.269-.165-1.908a.606.606,0,0,1,.4-.414c.305-.073.592.176.924.464a2.445,2.445,0,0,0,1.026.637c.278.05.595.079.93.11a4.781,4.781,0,0,1,2.46.665c.824.641,2.247,2.061,2.307,2.122l12.379,12.109c2.084-5.164,5.854-14.543,5.994-15.03.2-.694,1.142-1.253,2.5-1.879,1.184-.547,11.819-4.415,12.271-4.579a.226.226,0,0,1,.116-.01l9.144,1.646a.235.235,0,0,1,.06.019c.9.443,8.757,4.349,9.323,5.2.515.773,4.519,13.649,5.457,16.678,3.183-5.335,7.726-13.079,7.851-13.651,0-.522,0-.883-.093-2.339a11.969,11.969,0,0,1,.623-3.6c.087-.306.162-.568.2-.763a29.289,29.289,0,0,0,.177-3.975.623.623,0,0,1,.457-.683c.564-.117,1.357.584,1.8,1.6a3.807,3.807,0,0,1-.066,2.826c.7-.232,1.989-.655,2.632-.848a.378.378,0,0,1,.35.068c.337.263.689,1.335.409,7.34-.008.169-.014.277-.014.305,0,.112,0,.377-3.229,3.054-.461,1.585-6.492,22.293-6.945,23.2a2.918,2.918,0,0,1-2.959,1.586c-1.253-.084-5.5-3.645-6.826-4.785-.116,2.248-.616,12.048-.616,13.248,0,1.573-.934,2.061-2.064,2.495a52.111,52.111,0,0,1-11.328,1.3M267.88,139.256a.216.216,0,0,1,.078.014.223.223,0,0,1,.145.2c.316,6.918.97,20.207,1.181,20.984a.974.974,0,0,0,.975.806c.087.013.166.024.235.041.4.092,10.15,1.09,14.211,1.09a52.638,52.638,0,0,0,11.167-1.265c1.229-.473,1.777-.884,1.777-2.077,0-1.362.614-13.224.64-13.729a.224.224,0,0,1,.371-.157c2.257,1.965,5.958,4.911,6.909,4.975a2.458,2.458,0,0,0,2.528-1.34c.354-.709,4.691-15.479,6.935-23.189a.23.23,0,0,1,.072-.11,33.846,33.846,0,0,0,3.121-2.8c0-.055.006-.151.012-.281.274-5.872-.1-6.8-.218-6.948-.921.278-3.045.986-3.066.993a.224.224,0,0,1-.267-.321,3.739,3.739,0,0,0,.265-2.911c-.43-.982-1.063-1.388-1.3-1.34-.083.017-.1.142-.1.244a28.668,28.668,0,0,1-.188,4.072c-.045.2-.121.472-.211.788a11.619,11.619,0,0,0-.607,3.447c.091,1.47.091,1.837.091,2.392s-5.714,10.176-8.171,14.289a.22.22,0,0,1-.219.108.223.223,0,0,1-.187-.156c-2.018-6.53-5.161-16.458-5.551-17.042-.374-.562-5.78-3.377-9.12-5.031l-9.054-1.629c-.858.312-11.056,4.026-12.18,4.544-1.077.5-2.1,1.034-2.256,1.6-.184.644-5.891,14.784-6.134,15.385a.225.225,0,0,1-.162.135.222.222,0,0,1-.2-.059l-12.62-12.345c-.016-.016-1.464-1.463-2.267-2.087a4.426,4.426,0,0,0-2.226-.572c-.346-.032-.672-.062-.969-.116a2.8,2.8,0,0,1-1.24-.738c-.166-.144-.444-.385-.525-.367,0,0-.039.02-.09.145-.371.929-.2,1.221.017,1.384a6.5,6.5,0,0,1,.861.858.224.224,0,0,1,.017.263.221.221,0,0,1-.244.1,18.277,18.277,0,0,1-2.606-.84,3.343,3.343,0,0,1-.948-1.036c-.207-.29-.592-.81-.736-.825,0,0-.047.026-.109.186-.359.933,1.938,3.615,2.956,4.506a2.565,2.565,0,0,0,1.772.594c.221.022.471.048.76.084,1.437.18,3.708.272,3.73.273a.223.223,0,0,1,.187.115c4.675,8.473,11.876,21.266,12.553,21.781.193.135.371.271.538.4.648.5,1.008.746,1.448.58.518-.207,5.216-5.012,8.055-7.992a.225.225,0,0,1,.163-.069" transform="translate(-235.233 -88.823)" fill="#263238"/>
          <path id="Trazado_882472" data-name="Trazado 882472" d="M413.182,125.714a.228.228,0,0,1-.087-.017.224.224,0,0,1-.12-.293,3.724,3.724,0,0,0-.407-3.368.224.224,0,1,1,.362-.263,4.126,4.126,0,0,1,.457,3.8.223.223,0,0,1-.206.137" transform="translate(-333.1 -94.474)" fill="#263238"/>
          <path id="Trazado_882473" data-name="Trazado 882473" d="M419.7,118.06s-2.2.914-2.287,1.28-.274,1.28.549,1.28a4.181,4.181,0,0,0,2.757-1.224.879.879,0,0,0-1.02-1.336" transform="translate(-335.752 -92.459)" fill="#fff"/>
          <path id="Trazado_882474" data-name="Trazado 882474" d="M417.685,120.569a.8.8,0,0,1-.672-.289,1.459,1.459,0,0,1-.094-1.269c.1-.393,1.369-1,2.417-1.433a.284.284,0,0,1,.038-.012,1.2,1.2,0,0,1,1.239.383,1.156,1.156,0,0,1,.028,1.276c-.375.715-2.108,1.344-2.956,1.344m1.8-2.57a8.673,8.673,0,0,0-2.142,1.137c-.137.555-.047.783.019.867.022.029.091.117.319.117a4.031,4.031,0,0,0,2.559-1.1.729.729,0,0,0,.013-.8.753.753,0,0,0-.768-.222" transform="translate(-335.475 -92.183)" fill="#263238"/>
          <path id="Trazado_882475" data-name="Trazado 882475" d="M419.385,123.95s-2.195.914-2.286,1.28-.274,1.28.549,1.28a4.181,4.181,0,0,0,2.757-1.224.879.879,0,0,0-1.02-1.336" transform="translate(-335.578 -95.71)" fill="#fff"/>
          <path id="Trazado_882476" data-name="Trazado 882476" d="M417.373,126.458a.8.8,0,0,1-.672-.289,1.461,1.461,0,0,1-.094-1.269c.1-.393,1.368-1,2.417-1.433a.2.2,0,0,1,.038-.012,1.2,1.2,0,0,1,1.239.383,1.156,1.156,0,0,1,.028,1.276c-.375.716-2.107,1.344-2.956,1.344m1.8-2.57a8.671,8.671,0,0,0-2.142,1.138c-.137.555-.047.782.019.867.023.029.091.116.319.116a4.032,4.032,0,0,0,2.559-1.1.73.73,0,0,0,.013-.8.756.756,0,0,0-.767-.222" transform="translate(-335.303 -95.434)" fill="#263238"/>
          <path id="Trazado_882477" data-name="Trazado 882477" d="M418.914,128.583s-2.195.914-2.286,1.28-.274,1.28.549,1.28a4.179,4.179,0,0,0,2.757-1.224.879.879,0,0,0-1.02-1.336" transform="translate(-335.319 -98.267)" fill="#fff"/>
          <path id="Trazado_882478" data-name="Trazado 882478" d="M416.9,131.092a.8.8,0,0,1-.672-.289,1.461,1.461,0,0,1-.094-1.269c.1-.393,1.369-1,2.417-1.433l.038-.012a1.2,1.2,0,0,1,1.239.383,1.157,1.157,0,0,1,.028,1.276c-.375.716-2.108,1.344-2.956,1.344m1.8-2.57a8.675,8.675,0,0,0-2.142,1.137c-.137.555-.047.783.019.867.023.029.091.117.319.117a4.034,4.034,0,0,0,2.559-1.1.73.73,0,0,0,.013-.8.753.753,0,0,0-.768-.222" transform="translate(-335.042 -97.992)" fill="#263238"/>
          <path id="Trazado_882479" data-name="Trazado 882479" d="M419.459,133.721s-1.6.667-1.667.933-.2.933.4.933a3.049,3.049,0,0,0,2.01-.892.641.641,0,0,0-.744-.974" transform="translate(-335.974 -101.108)" fill="#fff"/>
          <path id="Trazado_882480" data-name="Trazado 882480" d="M417.916,135.536a.644.644,0,0,1-.537-.234,1.118,1.118,0,0,1-.08-.978c.023-.093.094-.376,1.8-1.086a.284.284,0,0,1,.038-.012.938.938,0,0,1,.965.3.9.9,0,0,1,.026.995,3.21,3.21,0,0,1-2.209,1.012m1.334-1.876a6.667,6.667,0,0,0-1.529.8c-.089.377-.023.52.011.562.012.015.048.062.184.062a2.908,2.908,0,0,0,1.812-.772.468.468,0,0,0,.015-.515.49.49,0,0,0-.493-.141" transform="translate(-335.698 -100.833)" fill="#263238"/>
          <path id="Trazado_882481" data-name="Trazado 882481" d="M332.134,139.18l-5.085-4.359c-1.415,2.4-2.543,4.286-2.543,4.286s-5.03-16.277-5.578-17.1-9.236-5.121-9.236-5.121l-9.144-1.646s-11.065,4.023-12.254,4.572-2.195,1.1-2.377,1.737-6.127,15.363-6.127,15.363l-3.442-3.367-4.466,5.242c2.788,4.917,5.476,9.536,5.9,9.83.914.64,1.463,1.28,2.195,1.006s8.139-8.047,8.139-8.047.914,20.027,1.189,21.033,1.006.914,1.371,1.006,10.151,1.1,14.266,1.1a56.6,56.6,0,0,0,12.35-1.9c1.189-.457,1.921-.915,1.921-2.287s-.462-13.1-.462-13.1,5.67,4.938,7.042,5.03A2.679,2.679,0,0,0,328.529,151c.227-.453,1.938-6.169,3.605-11.816" transform="translate(-255.463 -90.92)" fill="#13de61"/>
          <path id="Trazado_882482" data-name="Trazado 882482" d="M304.659,164.661c-4.036,0-13.915-1-14.32-1.1a1.9,1.9,0,0,0-.189-.032,1.4,1.4,0,0,1-1.345-1.132c-.256-.938-1.023-17.327-1.172-20.558-1.79,1.873-7.174,7.466-7.86,7.723s-1.243-.159-1.878-.644c-.162-.124-.335-.256-.524-.388-.157-.11-.574-.4-5.962-9.9a.224.224,0,0,1,.024-.255l4.466-5.242a.227.227,0,0,1,.161-.078.216.216,0,0,1,.167.064l3.2,3.133c2.084-5.164,5.854-14.543,5.994-15.03.2-.694,1.142-1.253,2.5-1.879,1.184-.547,11.818-4.415,12.271-4.579a.227.227,0,0,1,.116-.01l9.144,1.646a.236.236,0,0,1,.06.019c.9.443,8.757,4.349,9.323,5.2.515.773,4.519,13.648,5.457,16.678.412-.691,1.275-2.142,2.285-3.853a.224.224,0,0,1,.339-.056L332,138.734a.224.224,0,0,1,.069.233c-2.207,7.476-3.424,11.464-3.619,11.853a2.918,2.918,0,0,1-2.959,1.586c-1.239-.083-5.406-3.568-6.782-4.747.09,2.3.442,11.382.442,12.594,0,1.573-.935,2.061-2.064,2.5a57.062,57.062,0,0,1-12.431,1.912m-16.826-23.584a.216.216,0,0,1,.078.014.223.223,0,0,1,.145.2c.316,6.918.97,20.207,1.181,20.984a.974.974,0,0,0,.975.807c.087.013.166.024.235.041.4.092,10.15,1.09,14.211,1.09a56.3,56.3,0,0,0,12.27-1.882c1.229-.472,1.777-.884,1.777-2.077,0-1.352-.457-12.974-.462-13.091a.224.224,0,0,1,.371-.178c2.257,1.965,5.958,4.911,6.909,4.975a2.46,2.46,0,0,0,2.528-1.34c.1-.2.7-1.992,3.549-11.64l-4.772-4.091c-1.352,2.288-2.408,4.057-2.408,4.057a.224.224,0,0,1-.406-.049c-2.018-6.53-5.161-16.458-5.551-17.042-.374-.562-5.78-3.377-9.12-5.031l-9.054-1.629c-.858.312-11.056,4.026-12.18,4.544-1.077.5-2.1,1.034-2.256,1.6-.184.644-5.891,14.783-6.134,15.385a.225.225,0,0,1-.162.135.222.222,0,0,1-.2-.059l-3.27-3.2-4.208,4.94c4.552,8.024,5.559,9.474,5.753,9.622s.371.271.538.4c.649.5,1.008.746,1.449.58.517-.208,5.216-5.012,8.055-7.992a.225.225,0,0,1,.163-.069" transform="translate(-255.187 -90.644)" fill="#263238"/>
          <path id="Trazado_882483" data-name="Trazado 882483" d="M305.915,156.736a.225.225,0,0,1-.223-.2l-1.555-13.991a.224.224,0,1,1,.445-.049l1.555,13.991a.224.224,0,0,1-.2.247h-.025" transform="translate(-273.268 -105.855)" fill="#263238"/>
          <path id="Trazado_882484" data-name="Trazado 882484" d="M376.212,164.617h0a.224.224,0,0,1-.219-.228l.366-18.2a.233.233,0,0,1,.229-.22.224.224,0,0,1,.219.229l-.366,18.2a.224.224,0,0,1-.224.22" transform="translate(-312.931 -107.883)" fill="#263238"/>
          <path id="Trazado_882485" data-name="Trazado 882485" d="M334.5,125.208c2.56,3.109,4.846,5.67,4.846,5.67s3.9-8.433,5-12.526c-1.612-.829-2.9-1.465-2.9-1.465l-9.144-1.646s-1.22.444-2.89,1.055a48.532,48.532,0,0,0,5.085,8.912" transform="translate(-287.223 -90.92)" fill="#263238"/>
          <path id="Trazado_882486" data-name="Trazado 882486" d="M339.072,130.826a.224.224,0,0,1-.167-.075c-.023-.026-2.318-2.6-4.852-5.677a48.4,48.4,0,0,1-5.116-8.962.224.224,0,0,1,0-.18.226.226,0,0,1,.129-.124c1.671-.612,2.891-1.055,2.891-1.055a.227.227,0,0,1,.116-.01l9.144,1.646a.252.252,0,0,1,.06.02s1.287.637,2.9,1.467a.224.224,0,0,1,.114.257c-1.09,4.066-4.975,12.478-5.014,12.563a.224.224,0,0,1-.17.127l-.033,0m-9.626-14.679a47.044,47.044,0,0,0,4.953,8.643c2.066,2.509,3.973,4.682,4.613,5.406a112.581,112.581,0,0,0,4.8-12c-1.4-.716-2.515-1.272-2.7-1.366L332.05,115.2c-.245.089-1.259.458-2.605.951" transform="translate(-286.947 -90.644)" fill="#263238"/>
          <path id="Trazado_882487" data-name="Trazado 882487" d="M303.475,154.063a.224.224,0,0,1-.214-.159l-2.19-7.266a.224.224,0,0,1,.429-.129l2.19,7.266a.223.223,0,0,1-.15.279.217.217,0,0,1-.065.01" transform="translate(-271.571 -108.091)" fill="#263238"/>
          <path id="Trazado_882488" data-name="Trazado 882488" d="M376.608,161.418a.221.221,0,0,1-.038,0,.224.224,0,0,1-.183-.258l1.693-9.954a.227.227,0,0,1,.259-.183.224.224,0,0,1,.183.258l-1.692,9.954a.224.224,0,0,1-.221.186" transform="translate(-313.15 -110.669)" fill="#263238"/>
          <path id="Trazado_882489" data-name="Trazado 882489" d="M385.718,171.5a.224.224,0,0,1-.2-.323l1.5-3.034a.224.224,0,0,1,.4.2l-1.5,3.034a.225.225,0,0,1-.2.125" transform="translate(-318.179 -120.053)" fill="#263238"/>
          <path id="Trazado_882490" data-name="Trazado 882490" d="M291.261,166.306a.224.224,0,0,1-.181-.092l-2.005-2.74a.224.224,0,0,1,.362-.265l2.005,2.741a.224.224,0,0,1-.048.313.22.22,0,0,1-.132.043" transform="translate(-264.93 -117.348)" fill="#263238"/>
          <path id="Trazado_882491" data-name="Trazado 882491" d="M248.959,135.28a.224.224,0,0,1-.144-.053c-.509-.428-2.011-1.54-2.842-1.54a13.775,13.775,0,0,0-3.3.881.224.224,0,0,1-.209-.025l-1.294-.9a.224.224,0,1,1,.255-.368l1.2.828a13.034,13.034,0,0,1,3.354-.868c1.163,0,3.051,1.578,3.131,1.645a.224.224,0,0,1-.145.4" transform="translate(-238.456 -100.855)" fill="#263238"/>
          <path id="Trazado_882492" data-name="Trazado 882492" d="M350.915,76.538a39.883,39.883,0,0,1,1.335,5.173c.083,1.251-.5,2-.418,2.837s1.168,2.5.835,3-2.42.918-2.42.918-.918,4.589-1.919,4.755a35.117,35.117,0,0,1-4.255,0s-2.837,9.094-3.254,9.344-7.259-8.343-7.259-9.678,1.919-7.926,1.919-7.926l-2.17-6.841s-1.418-2.253,1.669-4.172,9.428-.918,11.43-.668,4.505,3.254,4.505,3.254" transform="translate(-289.193 -67.492)" fill="#fff"/>
          <path id="Trazado_882493" data-name="Trazado 882493" d="M340.523,102.521a.4.4,0,0,1-.2-.059c-1-.569-7.267-8.433-7.267-9.848,0-1.3,1.7-7.193,1.909-7.923l-2.141-6.752a2.839,2.839,0,0,1-.272-1.986,4.11,4.11,0,0,1,2.028-2.468c2.946-1.831,8.669-1.08,11.113-.759l.463.06c2.067.258,4.545,3.207,4.65,3.333a.234.234,0,0,1,.042.075,39.14,39.14,0,0,1,1.345,5.226,4.883,4.883,0,0,1-.246,1.754,2.946,2.946,0,0,0-.172,1.075,5.5,5.5,0,0,0,.428,1.253c.34.806.633,1.5.37,1.9-.331.5-1.854.863-2.416.983-.258,1.253-1.045,4.616-2.072,4.787a31.418,31.418,0,0,1-4.13.011c-1.076,3.444-2.881,9.053-3.3,9.3a.258.258,0,0,1-.135.038m-.2-29.777a10.916,10.916,0,0,0-5.5,1.121c-2.849,1.771-1.649,3.778-1.6,3.863a.237.237,0,0,1,.024.051l2.169,6.842a.223.223,0,0,1,0,.13c-.019.065-1.91,6.576-1.91,7.864,0,1.09,5.905,8.666,6.966,9.415.413-.744,2.1-5.919,3.109-9.148a.225.225,0,0,1,.225-.157,35.278,35.278,0,0,0,4.207,0c.524-.087,1.309-2.445,1.736-4.578a.224.224,0,0,1,.176-.176,5.749,5.749,0,0,0,2.277-.823c.129-.194-.2-.965-.41-1.475a5.545,5.545,0,0,1-.461-1.382,3.316,3.316,0,0,1,.187-1.241,4.447,4.447,0,0,0,.23-1.6,38.65,38.65,0,0,0-1.311-5.077c-.277-.323-2.551-2.919-4.333-3.142l-.465-.06a41.191,41.191,0,0,0-5.315-.425" transform="translate(-288.917 -67.215)" fill="#263238"/>
          <path id="Trazado_882494" data-name="Trazado 882494" d="M370.951,91.647a.225.225,0,0,1-.213-.155,1.272,1.272,0,0,0-.7-.758,1.694,1.694,0,0,0-1.453.452.224.224,0,1,1-.266-.36,2.088,2.088,0,0,1,1.86-.517,1.709,1.709,0,0,1,.99,1.047.224.224,0,0,1-.145.28.228.228,0,0,1-.069.011" transform="translate(-308.645 -77.121)" fill="#263238"/>
          <path id="Trazado_882495" data-name="Trazado 882495" d="M370.64,96.256c0,.573-.255,1.037-.57,1.037s-.57-.464-.57-1.037.255-1.037.57-1.037.57.464.57,1.037" transform="translate(-309.35 -79.867)" fill="#263238"/>
          <path id="Trazado_882496" data-name="Trazado 882496" d="M366.039,108.1h-.021a2.687,2.687,0,0,1-1.65-.827.224.224,0,0,1,.336-.3,2.269,2.269,0,0,0,1.354.676.224.224,0,0,1-.02.447" transform="translate(-306.486 -86.318)" fill="#263238"/>
          <path id="Trazado_882497" data-name="Trazado 882497" d="M354.652,117.26l-2.5-.918,1.669,3.087Z" transform="translate(-299.772 -91.527)" fill="#263238"/>
          <path id="Trazado_882498" data-name="Trazado 882498" d="M353.542,119.377a.224.224,0,0,1-.2-.117l-1.669-3.087a.224.224,0,0,1,.274-.317l2.5.917a.225.225,0,0,1,.132.291l-.834,2.169a.225.225,0,0,1-.195.143h-.014m-1.19-2.9,1.156,2.138.578-1.5Z" transform="translate(-299.496 -91.251)" fill="#263238"/>
          <path id="Trazado_882499" data-name="Trazado 882499" d="M346.034,102.9h-.019a.224.224,0,0,1-.2-.242l.149-1.784a7.222,7.222,0,0,1-1.248-.238,2.5,2.5,0,0,1-1.029-.833.224.224,0,0,1,.365-.261,2.078,2.078,0,0,0,.806.669,8.063,8.063,0,0,0,1.368.24.224.224,0,0,1,.2.242l-.167,2a.224.224,0,0,1-.223.205" transform="translate(-295.075 -82.205)" fill="#263238"/>
          <path id="Trazado_882500" data-name="Trazado 882500" d="M337.194,75.245a1.591,1.591,0,0,1,2.277.579c.089.151.185.265.281.289.334.083,1,.5,1.335-.167s-.083-2.169.334-2.586,1.919-.417,2.086-1.085-1.335-2.5-.918-2.92,5.757,1.251,6.674,1.418,4.339-1.669,4.589-4.422-2.253-5.34-4.171-4.839a33.421,33.421,0,0,0-6.007,2c-2.67,1.168-8.677.668-11.013,3.921s-.5,8.093.083,8.844,1.585,3.755,2.586,3.588a3.654,3.654,0,0,0,1.835-1.168s-1.312-2.473.028-3.454" transform="translate(-288.377 -61.227)" fill="#263238"/>
          <path id="Trazado_882501" data-name="Trazado 882501" d="M334.968,79.823c-.8,0-1.469-1.349-2.06-2.545a8.351,8.351,0,0,0-.621-1.135c-.585-.752-2.532-5.708-.088-9.112,1.6-2.235,4.788-2.744,7.6-3.193a15.983,15.983,0,0,0,3.508-.8,32.059,32.059,0,0,1,5.659-1.915l.381-.1a3.007,3.007,0,0,1,2.645.8A5.178,5.178,0,0,1,353.8,66.1a5.291,5.291,0,0,1-2.206,3.521,4.383,4.383,0,0,1-2.646,1.1c-.27-.049-.883-.216-1.658-.428-1.443-.394-4.444-1.212-4.84-1.036-.069.116.3.839.477,1.187a2.916,2.916,0,0,1,.521,1.613c-.13.519-.778.7-1.349.869a2.245,2.245,0,0,0-.8.32c-.151.151-.141.663-.131,1.114a3.249,3.249,0,0,1-.161,1.414c-.363.726-1.065.47-1.4.346-.07-.026-.133-.049-.187-.063a.738.738,0,0,1-.42-.393,1.515,1.515,0,0,0-.98-.714,1.207,1.207,0,0,0-.972.2c-1.168.855.026,3.146.038,3.169a.224.224,0,0,1-.026.248,3.846,3.846,0,0,1-1.971,1.245.716.716,0,0,1-.119.01M349.9,61.4a1.723,1.723,0,0,0-.44.056l-.382.1a31.693,31.693,0,0,0-5.592,1.891,16.233,16.233,0,0,1-3.617.835c-2.723.435-5.809.929-7.3,3.012-2.291,3.191-.4,7.957.078,8.575a8.259,8.259,0,0,1,.669,1.212c.44.89,1.18,2.373,1.7,2.292a3.242,3.242,0,0,0,1.6-.984c-.27-.567-1.134-2.647.164-3.6a1.651,1.651,0,0,1,1.327-.28,1.945,1.945,0,0,1,1.276.926c.094.16.147.187.148.187.061.015.14.043.226.075.469.171.69.191.848-.126a3.016,3.016,0,0,0,.114-1.2c-.013-.593-.025-1.153.262-1.44a2.363,2.363,0,0,1,.989-.435c.455-.13.971-.278,1.038-.547a3.188,3.188,0,0,0-.486-1.3c-.38-.745-.708-1.388-.373-1.723.307-.307,1.436-.105,5.253.937.735.2,1.369.374,1.62.419a4.1,4.1,0,0,0,2.3-1.017,4.855,4.855,0,0,0,2.031-3.2,4.718,4.718,0,0,0-1.65-3.893,2.876,2.876,0,0,0-1.8-.765M336.914,74.97h0Z" transform="translate(-288.096 -60.951)" fill="#263238"/>
        </g>
      </g>
    </g>
    <g id="Enmascarar_grupo_1098709" data-name="Enmascarar grupo 1098709" clip-path="url(#clip-path)">
      <path id="Rectángulo_401740" data-name="Rectángulo 401740" d="M44.495,14.2A30.328,30.328,0,0,0,14.2,44.495v2.84a30.294,30.294,0,0,0,60.588,0v-2.84A30.328,30.328,0,0,0,44.495,14.2m0-14.2A44.494,44.494,0,0,1,88.989,44.495v2.84A44.495,44.495,0,1,1,0,47.335v-2.84A44.5,44.5,0,0,1,44.495,0Z" transform="translate(170.334 1801.02)" fill="#fff"/>
    </g>
  </g>
</svg>
