<svg xmlns="http://www.w3.org/2000/svg" xmlns:xlink="http://www.w3.org/1999/xlink" width="505" height="322.99" viewBox="0 0 505 322.99">
  <defs>
    <clipPath id="clip-path">
      <rect id="Rectángulo_401742" data-name="Rectángulo 401742" width="505" height="313" transform="translate(914.523 1817)" fill="#2b5cf9"/>
    </clipPath>
  </defs>
  <g id="Grupo_1102937" data-name="Grupo 1102937" transform="translate(-914.523 -1807.01)">
    <rect id="Rectángulo_401743" data-name="Rectángulo 401743" width="505" height="313" rx="10" transform="translate(914.523 1817)" fill="#e6f0fc"/>
    <rect id="Rectángulo_401666" data-name="Rectángulo 401666" width="505" height="234" rx="117" transform="translate(914.523 1895)" fill="#2b5cf9"/>
    <g id="Enmascarar_grupo_1098690" data-name="Enmascarar grupo 1098690" clip-path="url(#clip-path)">
      <rect id="Rectángulo_401739" data-name="Rectángulo 401739" width="170" height="175" rx="85" transform="translate(1223.523 1817)" fill="#9fc3f4"/>
      <path id="Rectángulo_401740" data-name="Rectángulo 401740" d="M94,30A64.072,64.072,0,0,0,30,94v6a64,64,0,0,0,128,0V94A64.072,64.072,0,0,0,94,30M94,0a94,94,0,0,1,94,94v6A94,94,0,0,1,0,100V94A94,94,0,0,1,94,0Z" transform="translate(836.523 2012)" fill="#fff"/>
      <path id="Rectángulo_401741" data-name="Rectángulo 401741" d="M94,30A64.072,64.072,0,0,0,30,94v6a64,64,0,0,0,128,0V94A64.072,64.072,0,0,0,94,30M94,0a94,94,0,0,1,94,94v6A94,94,0,0,1,0,100V94A94,94,0,0,1,94,0Z" transform="translate(1286.523 1864)" fill="#fff"/>
    </g>
    <g id="Hand_coding-rafiki" data-name="Hand coding-rafiki" transform="translate(915 1714)">
      <g id="freepik--program-icons--inject-5">
        <rect id="Rectángulo_405364" data-name="Rectángulo 405364" width="34.37" height="34.37" rx="2.27" transform="translate(293.83 93.01)" fill="#1169e3"/>
        <g id="Grupo_1102137" data-name="Grupo 1102137" opacity="0.4">
          <rect id="Rectángulo_405365" data-name="Rectángulo 405365" width="34.37" height="34.37" rx="2.27" transform="translate(293.83 93.01)" fill="#fff"/>
        </g>
        <path id="Trazado_880301" data-name="Trazado 880301" d="M306.4,108.38l-6,2.19,6,2.17V115l-8.52-3.25v-2.32l8.52-3.25Z" fill="#fff"/>
        <path id="Trazado_880302" data-name="Trazado 880302" d="M312.82,101.76h2.49l-5.92,16.87H306.9Z" fill="#fff"/>
        <path id="Trazado_880303" data-name="Trazado 880303" d="M324.15,109.41v2.32L315.63,115v-2.24l6-2.17-6-2.19v-2.22Z" fill="#fff"/>
        <path id="Trazado_880304" data-name="Trazado 880304" d="M301.4,133.66V142h-1.93v-3.43h-3.8V142h-1.93v-8.35h1.93V137h3.8v-3.29Z" fill="#263238"/>
        <path id="Trazado_880305" data-name="Trazado 880305" d="M305.12,135.23h-2.68v-1.57h7.28v1.57h-2.67V142h-1.93Z" fill="#263238"/>
        <path id="Trazado_880306" data-name="Trazado 880306" d="M318.37,142v-5l-2.46,4.13H315l-2.45-4V142h-1.81v-8.35h1.6l3.12,5.19,3.08-5.19h1.59V142Z" fill="#263238"/>
        <path id="Trazado_880307" data-name="Trazado 880307" d="M322.17,133.66h1.93v6.77h4.19V142h-6.12Z" fill="#263238"/>
        <g id="Grupo_1102138" data-name="Grupo 1102138" opacity="0.6">
          <path id="Trazado_880308" data-name="Trazado 880308" d="M301.4,133.66V142h-1.93v-3.43h-3.8V142h-1.93v-8.35h1.93V137h3.8v-3.29Z" fill="#fff"/>
          <path id="Trazado_880309" data-name="Trazado 880309" d="M305.12,135.23h-2.68v-1.57h7.28v1.57h-2.67V142h-1.93Z" fill="#fff"/>
          <path id="Trazado_880310" data-name="Trazado 880310" d="M318.37,142v-5l-2.46,4.13H315l-2.45-4V142h-1.81v-8.35h1.6l3.12,5.19,3.08-5.19h1.59V142Z" fill="#fff"/>
          <path id="Trazado_880311" data-name="Trazado 880311" d="M322.17,133.66h1.93v6.77h4.19V142h-6.12Z" fill="#fff"/>
        </g>
        <rect id="Rectángulo_405366" data-name="Rectángulo 405366" width="34.37" height="34.37" rx="2.27" transform="translate(367.34 111.33)" fill="#1169e3"/>
        <g id="Grupo_1102139" data-name="Grupo 1102139" opacity="0.4">
          <rect id="Rectángulo_405367" data-name="Rectángulo 405367" width="34.37" height="34.37" rx="2.27" transform="translate(367.34 111.33)" fill="#fff"/>
        </g>
        <path id="Trazado_880312" data-name="Trazado 880312" d="M378.89,128.51c.82.25,1.2.77,1.2,2v2.87a1.18,1.18,0,0,0,1.31,1.32h.32v2.19h-1c-2.24,0-3.38-1.15-3.38-3.21v-3.24a.74.74,0,0,0-.79-.84h-.59v-2.19h.59a.74.74,0,0,0,.79-.84v-3.24c0-2.06,1.14-3.21,3.38-3.21h1v2.19h-.32a1.18,1.18,0,0,0-1.31,1.32v2.87C380.09,127.74,379.71,128.26,378.89,128.51Z" fill="#fff"/>
        <path id="Trazado_880313" data-name="Trazado 880313" d="M393.13,127.42v2.19h-.59a.74.74,0,0,0-.79.84v3.24c0,2.06-1.15,3.21-3.38,3.21h-1v-2.19h.32a1.18,1.18,0,0,0,1.31-1.32v-2.87c0-1.24.37-1.76,1.2-2-.83-.25-1.2-.77-1.2-2v-2.87a1.18,1.18,0,0,0-1.31-1.32h-.32v-2.19h1c2.23,0,3.38,1.15,3.38,3.21v3.24a.74.74,0,0,0,.79.84Z" fill="#fff"/>
        <path id="Trazado_880314" data-name="Trazado 880314" d="M373,156.28a4.6,4.6,0,0,1,8-2.84l-1.24,1.15a2.675,2.675,0,1,0,0,3.35l1.24,1.14a4.59,4.59,0,0,1-8-2.83Z" fill="#263238"/>
        <path id="Trazado_880315" data-name="Trazado 880315" d="M381.52,159.64l.65-1.46a5,5,0,0,0,2.76.87c1.14,0,1.61-.38,1.61-.89,0-1.57-4.86-.49-4.86-3.59,0-1.42,1.15-2.61,3.52-2.61a5.68,5.68,0,0,1,2.9.74l-.59,1.47a4.75,4.75,0,0,0-2.32-.65c-1.14,0-1.59.42-1.59.95,0,1.54,4.86.48,4.86,3.54,0,1.4-1.16,2.59-3.54,2.59a6,6,0,0,1-3.4-.96Z" fill="#263238"/>
        <path id="Trazado_880316" data-name="Trazado 880316" d="M389.13,159.64l.66-1.46a4.92,4.92,0,0,0,2.76.87c1.14,0,1.61-.38,1.61-.89,0-1.57-4.86-.49-4.86-3.59,0-1.42,1.15-2.61,3.52-2.61a5.71,5.71,0,0,1,2.9.74l-.6,1.47a4.69,4.69,0,0,0-2.31-.65c-1.15,0-1.59.42-1.59.95,0,1.54,4.86.48,4.86,3.54,0,1.4-1.16,2.59-3.55,2.59a6,6,0,0,1-3.4-.96Z" fill="#263238"/>
        <g id="Grupo_1102140" data-name="Grupo 1102140" opacity="0.6">
          <path id="Trazado_880317" data-name="Trazado 880317" d="M373,156.28a4.6,4.6,0,0,1,8-2.84l-1.24,1.15a2.675,2.675,0,1,0,0,3.35l1.24,1.14a4.59,4.59,0,0,1-8-2.83Z" fill="#fff"/>
          <path id="Trazado_880318" data-name="Trazado 880318" d="M381.52,159.64l.65-1.46a5,5,0,0,0,2.76.87c1.14,0,1.61-.38,1.61-.89,0-1.57-4.86-.49-4.86-3.59,0-1.42,1.15-2.61,3.52-2.61a5.68,5.68,0,0,1,2.9.74l-.59,1.47a4.75,4.75,0,0,0-2.32-.65c-1.14,0-1.59.42-1.59.95,0,1.54,4.86.48,4.86,3.54,0,1.4-1.16,2.59-3.54,2.59a6,6,0,0,1-3.4-.96Z" fill="#fff"/>
          <path id="Trazado_880319" data-name="Trazado 880319" d="M389.13,159.64l.66-1.46a4.92,4.92,0,0,0,2.76.87c1.14,0,1.61-.38,1.61-.89,0-1.57-4.86-.49-4.86-3.59,0-1.42,1.15-2.61,3.52-2.61a5.71,5.71,0,0,1,2.9.74l-.6,1.47a4.69,4.69,0,0,0-2.31-.65c-1.15,0-1.59.42-1.59.95,0,1.54,4.86.48,4.86,3.54,0,1.4-1.16,2.59-3.55,2.59a6,6,0,0,1-3.4-.96Z" fill="#fff"/>
        </g>
      </g>
      <g id="freepik--Tabs--inject-5">
        <rect id="Rectángulo_405368" data-name="Rectángulo 405368" width="122.51" height="88.68" transform="translate(148.55 107.98)"/>
        <rect id="Rectángulo_405369" data-name="Rectángulo 405369" width="122.51" height="88.68" transform="translate(148.55 107.98)" fill="#fff" opacity="0.9"/>
        <rect id="Rectángulo_405370" data-name="Rectángulo 405370" width="17.06" height="88.68" transform="translate(148.55 107.98)" opacity="0.1"/>
        <rect id="Rectángulo_405371" data-name="Rectángulo 405371" width="122.51" height="8.29" transform="translate(148.55 107.98)" fill="#1169e3"/>
        <g id="Grupo_1102141" data-name="Grupo 1102141" opacity="0.2">
          <path id="Trazado_880320" data-name="Trazado 880320" d="M197.71,128.78H175.4a1,1,0,0,1,0-2h22.31a1,1,0,0,1,0,2Z"/>
          <path id="Trazado_880321" data-name="Trazado 880321" d="M247,128.78H203.65a1,1,0,0,1,0-2H247a1,1,0,0,1,0,2Z"/>
          <path id="Trazado_880322" data-name="Trazado 880322" d="M236.68,135.31H178.4a1,1,0,0,1,0-2h58.28a1,1,0,0,1,0,2Z"/>
          <path id="Trazado_880323" data-name="Trazado 880323" d="M212.94,141.83H175.4a1,1,0,1,1,0-2h37.54a1,1,0,0,1,0,2Z"/>
          <path id="Trazado_880324" data-name="Trazado 880324" d="M247,141.83H220.1a1,1,0,0,1,0-2H247a1,1,0,0,1,0,2Z"/>
          <path id="Trazado_880325" data-name="Trazado 880325" d="M196.13,148.36H175.4a1,1,0,0,1,0-2h20.73a1,1,0,0,1,0,2Z"/>
          <path id="Trazado_880326" data-name="Trazado 880326" d="M235.49,148.36H202.85a1,1,0,0,1,0-2h32.64a1,1,0,0,1,0,2Z"/>
          <path id="Trazado_880327" data-name="Trazado 880327" d="M206.29,154.89H178.4a1,1,0,0,1,0-2h27.89a1,1,0,0,1,0,2Z"/>
          <path id="Trazado_880328" data-name="Trazado 880328" d="M209.78,161.42H178.4a1,1,0,1,1,0-2h31.38a1,1,0,0,1,0,2Z"/>
          <path id="Trazado_880329" data-name="Trazado 880329" d="M247,161.42H215a1,1,0,0,1,0-2h32a1,1,0,0,1,0,2Z"/>
          <path id="Trazado_880330" data-name="Trazado 880330" d="M193.36,167.94h-18a1,1,0,0,1,0-2h18a1,1,0,1,1,0,2Z"/>
          <path id="Trazado_880331" data-name="Trazado 880331" d="M247,167.94H199.49a1,1,0,0,1,0-2H247a1,1,0,0,1,0,2Z"/>
          <path id="Trazado_880332" data-name="Trazado 880332" d="M209.58,174.47H178.4a1,1,0,0,1,0-2h31.18a1,1,0,0,1,0,2Z"/>
          <path id="Trazado_880333" data-name="Trazado 880333" d="M234.11,174.47H213.93a1,1,0,0,1,0-2h20.18a1,1,0,0,1,0,2Z"/>
          <path id="Trazado_880334" data-name="Trazado 880334" d="M214.29,181H178.4a1,1,0,1,1,0-2h35.89a1,1,0,0,1,0,2Z"/>
        </g>
        <circle id="Elipse_11537" data-name="Elipse 11537" cx="1.71" cy="1.71" r="1.71" transform="translate(264.08 110.47)" fill="#fff" opacity="0.4"/>
        <circle id="Elipse_11538" data-name="Elipse 11538" cx="1.71" cy="1.71" r="1.71" transform="translate(258.07 110.47)" fill="#fff" opacity="0.4"/>
        <circle id="Elipse_11539" data-name="Elipse 11539" cx="1.71" cy="1.71" r="1.71" transform="translate(252.07 110.47)" fill="#fff" opacity="0.4"/>
        <g id="Grupo_1102142" data-name="Grupo 1102142" opacity="0.2">
          <path id="Trazado_880335" data-name="Trazado 880335" d="M157.38,128.78h0a1,1,0,1,1,1-1A1,1,0,0,1,157.38,128.78Z"/>
          <path id="Trazado_880336" data-name="Trazado 880336" d="M157.38,135.31h0a1,1,0,1,1,1-1A1,1,0,0,1,157.38,135.31Z"/>
          <path id="Trazado_880337" data-name="Trazado 880337" d="M157.38,141.83h0a1,1,0,1,1,1-1A1,1,0,0,1,157.38,141.83Z"/>
          <path id="Trazado_880338" data-name="Trazado 880338" d="M157.38,148.36h0a1,1,0,1,1,1-1A1,1,0,0,1,157.38,148.36Z"/>
          <path id="Trazado_880339" data-name="Trazado 880339" d="M157.38,154.89h0a1,1,0,1,1,1-1A1,1,0,0,1,157.38,154.89Z"/>
          <path id="Trazado_880340" data-name="Trazado 880340" d="M157.38,161.42h0a1,1,0,1,1,1-1A1,1,0,0,1,157.38,161.42Z"/>
          <path id="Trazado_880341" data-name="Trazado 880341" d="M157.38,167.94h0a1,1,0,1,1,1-1A1,1,0,0,1,157.38,167.94Z"/>
          <path id="Trazado_880342" data-name="Trazado 880342" d="M157.38,174.47h0a1,1,0,1,1,1-1A1,1,0,0,1,157.38,174.47Z"/>
          <path id="Trazado_880343" data-name="Trazado 880343" d="M157.38,181h0a1,1,0,1,1,1-1A1,1,0,0,1,157.38,181Z"/>
        </g>
        <rect id="Rectángulo_405372" data-name="Rectángulo 405372" width="160.53" height="102.79" transform="translate(221.49 180.34)" fill="#263238"/>
        <rect id="Rectángulo_405373" data-name="Rectángulo 405373" width="160.53" height="102.79" transform="translate(221.49 180.34)" fill="#fff" opacity="0.9"/>
        <rect id="Rectángulo_405374" data-name="Rectángulo 405374" width="25.04" height="102.79" transform="translate(221.49 180.34)" opacity="0.1"/>
        <rect id="Rectángulo_405375" data-name="Rectángulo 405375" width="160.53" height="8.29" transform="translate(221.49 180.34)" fill="#1169e3"/>
        <path id="Trazado_880344" data-name="Trazado 880344" d="M232.83,197.72l-2.66,1,2.66,1v1l-3.8-1.45v-1l3.8-1.44Z" fill="#fff"/>
        <path id="Trazado_880345" data-name="Trazado 880345" d="M235.7,194.76h1.11l-2.64,7.53h-1.11Z" fill="#fff"/>
        <path id="Trazado_880346" data-name="Trazado 880346" d="M240.76,198.17v1l-3.8,1.45v-1l2.66-1-2.66-1v-1Z" fill="#fff"/>
        <g id="Grupo_1102143" data-name="Grupo 1102143" opacity="0.2">
          <path id="Trazado_880347" data-name="Trazado 880347" d="M240.2,209.15H229.32a1,1,0,0,1,0-2H240.2a1,1,0,0,1,0,2Z"/>
          <path id="Trazado_880348" data-name="Trazado 880348" d="M240.2,215.67H229.32a1,1,0,0,1,0-2H240.2a1,1,0,0,1,0,2Z"/>
          <path id="Trazado_880349" data-name="Trazado 880349" d="M240.2,222.2H229.32a1,1,0,0,1,0-2H240.2a1,1,0,0,1,0,2Z"/>
          <path id="Trazado_880350" data-name="Trazado 880350" d="M240.2,228.73H229.32a1,1,0,0,1,0-2H240.2a1,1,0,0,1,0,2Z"/>
          <path id="Trazado_880351" data-name="Trazado 880351" d="M240.2,235.26H229.32a1,1,0,0,1,0-2H240.2a1,1,0,0,1,0,2Z"/>
          <path id="Trazado_880352" data-name="Trazado 880352" d="M240.2,241.78H229.32a1,1,0,0,1,0-2H240.2a1,1,0,0,1,0,2Z"/>
          <path id="Trazado_880353" data-name="Trazado 880353" d="M240.2,248.31H229.32a1,1,0,0,1,0-2H240.2a1,1,0,0,1,0,2Z"/>
          <path id="Trazado_880354" data-name="Trazado 880354" d="M240.2,254.84H229.32a1,1,0,0,1,0-2H240.2a1,1,0,0,1,0,2Z"/>
          <path id="Trazado_880355" data-name="Trazado 880355" d="M240.2,261.37H229.32a1,1,0,0,1,0-2H240.2a1,1,0,0,1,0,2Z"/>
        </g>
        <path id="Trazado_880356" data-name="Trazado 880356" d="M271.65,209.15H249.34a1,1,0,0,1,0-2h22.31a1,1,0,0,1,0,2Z" fill="#1169e3"/>
        <path id="Trazado_880357" data-name="Trazado 880357" d="M335.74,209.15H277.59a1,1,0,0,1,0-2h58.15a1,1,0,0,1,0,2Z" fill="#263238"/>
        <g id="Grupo_1102144" data-name="Grupo 1102144" opacity="0.2">
          <path id="Trazado_880358" data-name="Trazado 880358" d="M362.28,209.15H345.43a1,1,0,0,1,0-2h16.85a1,1,0,0,1,0,2Z" fill="#263238"/>
        </g>
        <g id="Grupo_1102145" data-name="Grupo 1102145" opacity="0.2">
          <path id="Trazado_880359" data-name="Trazado 880359" d="M310.62,215.67H252.34a1,1,0,0,1,0-2h58.28a1,1,0,0,1,0,2Z" fill="#263238"/>
        </g>
        <path id="Trazado_880360" data-name="Trazado 880360" d="M370.28,215.67H316a1,1,0,0,1,0-2h54.32a1,1,0,0,1,0,2Z" fill="#1169e3"/>
        <path id="Trazado_880361" data-name="Trazado 880361" d="M286.88,222.2H252.34a1,1,0,0,1,0-2h34.54a1,1,0,0,1,0,2Z" fill="#263238"/>
        <path id="Trazado_880362" data-name="Trazado 880362" d="M328,222.2H294a1,1,0,0,1,0-2h34a1,1,0,0,1,0,2Z" fill="#1169e3"/>
        <path id="Trazado_880363" data-name="Trazado 880363" d="M370.28,222.2H333.56a1,1,0,1,1,0-2h36.72a1,1,0,0,1,0,2Z" fill="#263238"/>
        <path id="Trazado_880364" data-name="Trazado 880364" d="M290.08,228.73H269.35a1,1,0,0,1,0-2h20.73a1,1,0,0,1,0,2Z" fill="#263238"/>
        <path id="Trazado_880365" data-name="Trazado 880365" d="M319.44,228.73H296.81a1,1,0,0,1,0-2h22.63a1,1,0,0,1,0,2Z" fill="#263238"/>
        <g id="Grupo_1102146" data-name="Grupo 1102146" opacity="0.2">
          <path id="Trazado_880366" data-name="Trazado 880366" d="M361.28,228.73h-36.7a1,1,0,0,1,0-2h36.7a1,1,0,0,1,0,2Z" fill="#263238"/>
        </g>
        <g id="Grupo_1102147" data-name="Grupo 1102147" opacity="0.2">
          <path id="Trazado_880367" data-name="Trazado 880367" d="M280.23,235.26H252.34a1,1,0,0,1,0-2h27.89a1,1,0,0,1,0,2Z" fill="#263238"/>
        </g>
        <path id="Trazado_880368" data-name="Trazado 880368" d="M283.72,241.78H252.34a1,1,0,0,1,0-2h31.38a1,1,0,0,1,0,2Z" fill="#1169e3"/>
        <path id="Trazado_880369" data-name="Trazado 880369" d="M336.14,241.78H288.86a1,1,0,0,1,0-2h47.28a1,1,0,0,1,0,2Z" fill="#263238"/>
        <path id="Trazado_880370" data-name="Trazado 880370" d="M370.28,241.78H341.87a1,1,0,0,1,0-2h28.41a1,1,0,0,1,0,2Z" fill="#263238"/>
        <g id="Grupo_1102148" data-name="Grupo 1102148" opacity="0.2">
          <path id="Trazado_880371" data-name="Trazado 880371" d="M280.31,248.31h-18a1,1,0,0,1,0-2h18a1,1,0,0,1,0,2Z" fill="#263238"/>
        </g>
        <g id="Grupo_1102149" data-name="Grupo 1102149" opacity="0.2">
          <path id="Trazado_880372" data-name="Trazado 880372" d="M320.9,248.31H286.44a1,1,0,0,1,0-2H320.9a1,1,0,0,1,0,2Z" fill="#263238"/>
        </g>
        <path id="Trazado_880373" data-name="Trazado 880373" d="M361.28,248.31H327.63a1,1,0,0,1,0-2h33.65a1,1,0,0,1,0,2Z" fill="#263238"/>
        <path id="Trazado_880374" data-name="Trazado 880374" d="M293.53,254.84H272.35a1,1,0,0,1,0-2h21.18a1,1,0,0,1,0,2Z" fill="#263238"/>
        <g id="Grupo_1102150" data-name="Grupo 1102150" opacity="0.2">
          <path id="Trazado_880375" data-name="Trazado 880375" d="M318.05,254.84H297.88a1,1,0,0,1,0-2h20.17a1,1,0,0,1,0,2Z" fill="#263238"/>
        </g>
        <path id="Trazado_880376" data-name="Trazado 880376" d="M361.28,254.84h-36.9a1,1,0,0,1,0-2h36.9a1,1,0,0,1,0,2Z" fill="#1169e3"/>
        <g id="Grupo_1102151" data-name="Grupo 1102151" opacity="0.2">
          <path id="Trazado_880377" data-name="Trazado 880377" d="M298.24,261.37H272.35a1,1,0,0,1,0-2h25.89a1,1,0,0,1,0,2Z" fill="#263238"/>
        </g>
        <path id="Trazado_880378" data-name="Trazado 880378" d="M375,184.55a1.71,1.71,0,1,0,.5-1.216,1.72,1.72,0,0,0-.5,1.216Z" fill="#fff" opacity="0.4"/>
        <circle id="Elipse_11540" data-name="Elipse 11540" cx="1.71" cy="1.71" r="1.71" transform="translate(369.04 182.84)" fill="#fff" opacity="0.4"/>
        <circle id="Elipse_11541" data-name="Elipse 11541" cx="1.71" cy="1.71" r="1.71" transform="translate(363.03 182.84)" fill="#fff" opacity="0.4"/>
      </g>
      <g id="freepik--speech-bubble--inject-5">
        <path id="Trazado_880379" data-name="Trazado 880379" d="M113.26,186.42H84.54a8.84,8.84,0,0,0-8.85,8.84v25a8.84,8.84,0,0,0,8.84,8.85H104.9l6,7.89v-7.89h2.35a8.85,8.85,0,0,0,8.85-8.85v-25a8.84,8.84,0,0,0-8.84-8.84Z" fill="#1169e3"/>
        <path id="Trazado_880380" data-name="Trazado 880380" d="M113.26,186.42H84.54a8.84,8.84,0,0,0-8.85,8.84v25a8.84,8.84,0,0,0,8.84,8.85H104.9l6,7.89v-7.89h2.35a8.85,8.85,0,0,0,8.85-8.85v-25a8.84,8.84,0,0,0-8.84-8.84Z" fill="#fff" opacity="0.7"/>
        <path id="Trazado_880381" data-name="Trazado 880381" d="M97.4,214a1.33,1.33,0,0,1-1-.46L90.81,207a1.312,1.312,0,1,1,2-1.7l4.59,5.42,7.59-8.94a1.31,1.31,0,0,1,2,1.69L98.4,213.56a1.31,1.31,0,0,1-1,.44Z" fill="#fff"/>
        <circle id="Elipse_11542" data-name="Elipse 11542" cx="14.26" cy="14.26" r="14.26" transform="translate(78.728 207.648) rotate(-45)" fill="#1169e3"/>
      </g>
      <g id="freepik--Character--inject-5">
        <path id="Trazado_880382" data-name="Trazado 880382" d="M204.72,363.48l21.47-1.05L224.1,381.1s-14.9,2.84-21.55-7.76Z" fill="#ebb376"/>
        <path id="Trazado_880383" data-name="Trazado 880383" d="M240.03,368.94l-4.89,13.54L224.1,381.1l2.09-18.67Z" fill="#ebb376"/>
        <path id="Trazado_880384" data-name="Trazado 880384" d="M184.11,393.78a87.77,87.77,0,0,0,22.08-16.39l-1.47-13.91c-20.29,3-32,7.29-32,7.29s7.52-26.95.64-36.77l-18.89,3.42s-20.07,41.72-6.57,56.36Z" fill="#1169e3"/>
        <path id="Trazado_880385" data-name="Trazado 880385" d="M184.08,393.78a88,88,0,0,0,22.1-16.38l-1.46-13.93c-19.64,2.88-31.25,7-32,7.27.25-1,7.36-27.11.62-36.75l-18.89,3.42a146.631,146.631,0,0,0-9.21,26.06c-2.7,11.39-3.49,23.66,2.65,30.31Z" fill="#fff" opacity="0.7"/>
        <path id="Trazado_880386" data-name="Trazado 880386" d="M168.55,393.78c6.67-42.26.76-53,.76-53l-24,22.67c-2.7,11.39-3.49,23.66,2.65,30.31Z" opacity="0.2"/>
        <path id="Trazado_880387" data-name="Trazado 880387" d="M164.38,393.78c4.5-21.36,9.55-54.8,9-59.78-.8-7.24-40.18-38.26-74.36-15.68-7,4.61-10.57,54.34-11.79,75.46Z" fill="#1169e3"/>
        <path id="Trazado_880388" data-name="Trazado 880388" d="M164.38,393.78c4.5-21.36,9.55-54.81,9-59.79-.8-7.23-40.19-38.25-74.37-15.66-2.53,1.69-4.61,9.32-6.33,19.4-2.28,13.72-3.86,31.94-4.8,45.68-.26,3.89-.48,7.41-.65,10.37Z" fill="#fff" opacity="0.7"/>
        <path id="Trazado_880389" data-name="Trazado 880389" d="M147.51,226.55c-11.85-4.79-39.79,12.4-42.24,43.05s13.09,22.16,13.09,22.16,2.77,11.69,14.09,8.08c0,0,9.35,10.59,18.05,6.28,0,0,10.83,11.28,16.64,5.33,0,0,6.32,7.21,12.09,1.75s22.26-61.2-3.61-74.09S147.51,226.55,147.51,226.55Z" fill="#263238"/>
        <path id="Trazado_880390" data-name="Trazado 880390" d="M147.53,352l-1.14-.1c1.32-14.76-1.93-21.29-2-21.35l1-.53C145.58,330.25,148.88,336.82,147.53,352Z" fill="#263238"/>
        <path id="Trazado_880391" data-name="Trazado 880391" d="M152.89,352.13c-7.85-18.49,1-22.8,1.36-23l.47,1-.24-.52.24.52c-.08,0-8.16,4.09-.78,21.49Z" fill="#263238"/>
        <path id="Trazado_880392" data-name="Trazado 880392" d="M145.22,333.54s-15.15-12-38.67-18.76L99,318.32s-12.66-15.67,8.44-20.8,49.8,9,57,21.1-12.52,16-12.52,16S150.11,332.16,145.22,333.54Z" fill="#1169e3"/>
        <path id="Trazado_880393" data-name="Trazado 880393" d="M145.22,333.54s-15.15-12-38.67-18.76L99,318.32s-12.66-15.67,8.44-20.8,49.8,9,57,21.1-12.52,16-12.52,16S150.11,332.16,145.22,333.54Z" fill="#fff" opacity="0.6"/>
        <path id="Trazado_880394" data-name="Trazado 880394" d="M154.36,351.91a1,1,0,1,1-1-1A1,1,0,0,1,154.36,351.91Z" fill="#fff"/>
        <path id="Trazado_880395" data-name="Trazado 880395" d="M147.87,351.91a1,1,0,1,1-1-1A1,1,0,0,1,147.87,351.91Z" fill="#fff"/>
        <path id="Trazado_880396" data-name="Trazado 880396" d="M137.17,277c-.92,10.73-4.21,29.83-12.94,34,0,0,9.76,2,25,21.31,8.67-6.08,5.39-10.23,5.39-10.23-10.14-6.65-7.51-14.85-3.41-22Z" fill="#ebb376"/>
        <path id="Trazado_880397" data-name="Trazado 880397" d="M142.88,286.41l8.31,13.7a31.854,31.854,0,0,0-2.51,5.2c-4-2.14-8.38-8.92-7.55-13.56A15.76,15.76,0,0,1,142.88,286.41Z" opacity="0.2"/>
        <path id="Trazado_880398" data-name="Trazado 880398" d="M136,254.31c-2.79,16.86-4.33,23.92,1.92,34.77,9.39,16.33,30.2,17.1,37.85,1.66,6.88-13.9,10.29-39.14-4.07-50.28C157.53,229.48,138.77,237.44,136,254.31Z" fill="#ebb376"/>
        <path id="Trazado_880399" data-name="Trazado 880399" d="M170.53,231.07c10.93,6.06,21.34,25,5.79,20.27-2.35,4.55-10.72.38-15.59-5.08-.82,3.79-9.78,7.59-16.38,1.72,3.19,4.6-2.24,16.21-7.89,14.21s-18.33-4.63-7.1-22.53S158.86,224.58,170.53,231.07Z" fill="#263238"/>
        <path id="Trazado_880400" data-name="Trazado 880400" d="M166.55,270.22s1,6.69,2.9,10.32c-2.13,1.23-5-.41-5-.41Z" fill="#d58745"/>
        <path id="Trazado_880401" data-name="Trazado 880401" d="M155.65,283.13a13,13,0,0,0,2.21.84.38.38,0,0,0,.48-.3.43.43,0,0,0-.31-.52,11.94,11.94,0,0,1-7.76-6.81.41.41,0,0,0-.52-.28.42.42,0,0,0-.23.54,12.55,12.55,0,0,0,6.13,6.53Z" fill="#263238"/>
        <path id="Trazado_880402" data-name="Trazado 880402" d="M127.49,266.43a13.71,13.71,0,0,0,6.38,8.31c4.07,2.23,7-1.59,6.7-6.34-.31-4.29-2.81-10.61-7.27-10.86S126.28,262,127.49,266.43Z" fill="#ebb376"/>
        <path id="Trazado_880403" data-name="Trazado 880403" d="M154.5,254.77a.76.76,0,0,0,.64,0,6.19,6.19,0,0,1,5.82-.1.76.76,0,0,0,1.09-.3.91.91,0,0,0-.33-1.17,7.66,7.66,0,0,0-7.36,0,.86.86,0,0,0-.32,1.14.91.91,0,0,0,.46.43Z" fill="#263238"/>
        <path id="Trazado_880404" data-name="Trazado 880404" d="M181.37,261.35a.74.74,0,0,0,.6.06.82.82,0,0,0,.51-1.06,8.77,8.77,0,0,0-5.21-5.78.76.76,0,0,0-1,.57.9.9,0,0,0,.58,1.06,7,7,0,0,1,4.08,4.63A.88.88,0,0,0,181.37,261.35Z" fill="#263238"/>
        <path id="Trazado_880405" data-name="Trazado 880405" d="M159.88,265.8c-.49,1.34-1.61,2.15-2.5,1.82s-1.21-1.67-.72-3,1.61-2.15,2.49-1.82S160.36,264.47,159.88,265.8Z" fill="#263238"/>
        <path id="Trazado_880406" data-name="Trazado 880406" d="M158.76,262.73l3.32-.07S159.74,264.56,158.76,262.73Z" fill="#263238"/>
        <path id="Trazado_880407" data-name="Trazado 880407" d="M176.67,271.13c-.49,1.33-1.61,2.14-2.49,1.82s-1.22-1.68-.73-3,1.61-2.14,2.5-1.82S177.16,269.79,176.67,271.13Z" fill="#263238"/>
        <path id="Trazado_880408" data-name="Trazado 880408" d="M175.56,268.05l3.31-.07S176.53,269.89,175.56,268.05Z" fill="#263238"/>
        <path id="Trazado_880409" data-name="Trazado 880409" d="M158.3,275.25a7.35,7.35,0,0,1-3-.63,7.59,7.59,0,0,1-4.14-4.84,10.13,10.13,0,0,1,5.29-11.85,7.46,7.46,0,0,1,10.53,4.7,9.85,9.85,0,0,1-.51,6.88h0a9.84,9.84,0,0,1-4.79,5A8,8,0,0,1,158.3,275.25Zm1.57-16.95a7,7,0,0,0-2.87.7,9,9,0,0,0-4.68,10.48,6.3,6.3,0,0,0,8.95,4,8.71,8.71,0,0,0,4.23-4.39l.52.23-.52-.23a8.72,8.72,0,0,0,.45-6.09,6.44,6.44,0,0,0-3.52-4.13,6,6,0,0,0-2.56-.57Z" fill="#263238"/>
        <path id="Trazado_880410" data-name="Trazado 880410" d="M174.94,280.35a7.16,7.16,0,0,1-3-.63,7.63,7.63,0,0,1-4.15-4.84,10.15,10.15,0,0,1,5.3-11.85,7.44,7.44,0,0,1,10.52,4.7,9.79,9.79,0,0,1-.5,6.88h0a9.3,9.3,0,0,1-8.17,5.74Zm1.59-17a7,7,0,0,0-2.92.66,8.77,8.77,0,0,0-4.23,4.4,8.63,8.63,0,0,0-.45,6.08,6.46,6.46,0,0,0,3.52,4.14c3.5,1.57,7.84-.47,9.66-4.53h0a8.77,8.77,0,0,0,.45-6.09,6.47,6.47,0,0,0-3.52-4.13,6.25,6.25,0,0,0-2.51-.48Z" fill="#263238"/>
        <path id="Trazado_880411" data-name="Trazado 880411" d="M167.8,269.92a.51.51,0,0,0-.29-.32,2.08,2.08,0,0,0-1.29.19l-.5-1a3.07,3.07,0,0,1,2.2-.23,1.64,1.64,0,0,1,1,1Z" fill="#263238"/>
        <rect id="Rectángulo_405376" data-name="Rectángulo 405376" width="1.147" height="14.182" transform="translate(140.11 260.314) rotate(-72.646)" fill="#263238"/>
        <path id="Trazado_880412" data-name="Trazado 880412" d="M137.28,364.46s-26.31,20.16-49.4,19c.94-13.74,2.52-32,4.8-45.68,2.36-2.6,3.91-4.18,3.91-4.18l14,10.47-3.41,4.28s21.19-1.08,28.57,0Z" opacity="0.2"/>
        <path id="Trazado_880413" data-name="Trazado 880413" d="M140,348.3l21.06-4.3.75,18.78s-14.29,5.06-22.47-4.41Z" fill="#ebb376"/>
        <path id="Trazado_880414" data-name="Trazado 880414" d="M175.72,348.36l-2.78,14.12-11.13.31-.75-18.78Z" fill="#ebb376"/>
        <path id="Trazado_880415" data-name="Trazado 880415" d="M140,348.3l1.03,14.49-5.24,2.35-2.24-16.84Z" fill="#1169e3"/>
        <path id="Trazado_880416" data-name="Trazado 880416" d="M140,348.3l1.03,14.49-5.24,2.35-2.24-16.84Z" fill="#fff" opacity="0.6"/>
        <path id="Trazado_880417" data-name="Trazado 880417" d="M106.55,314.78a24.36,24.36,0,0,0-14.45,8.36c-6.35,7.46-28.73,29.62-23.76,47.71s52.83,4.63,67.45-5.71l-2.24-16.84-33.15,2.43L110.62,344C117.63,324.5,106.55,314.78,106.55,314.78Z" fill="#1169e3"/>
        <path id="Trazado_880418" data-name="Trazado 880418" d="M106.55,314.78a24.36,24.36,0,0,0-14.45,8.36c-6.35,7.46-28.73,29.62-23.76,47.71s52.83,4.63,67.45-5.71l-2.24-16.84-33.15,2.43L110.62,344C117.63,324.5,106.55,314.78,106.55,314.78Z" fill="#fff" opacity="0.7"/>
        <path id="Trazado_880419" data-name="Trazado 880419" d="M202.56,363.8l6.03-1.01v16.16l-4.78.78Z" fill="#1169e3"/>
        <path id="Trazado_880420" data-name="Trazado 880420" d="M202.56,363.8l6.03-1.01v16.16l-4.78.78Z" fill="#fff" opacity="0.6"/>
        <path id="Trazado_880421" data-name="Trazado 880421" d="M190.37,378.79a19.44,19.44,0,0,1,.13-2.65l.18-1.33-1.29.76-.77.46a6.166,6.166,0,0,1-.78.29,2.32,2.32,0,0,1-1.4,0,2.57,2.57,0,0,1-1.12-.81,4.69,4.69,0,0,1-.79-1.36L183.4,371l-.8,3.34c-.08.33-.13.67-.19,1a9.151,9.151,0,0,1-.29.93,3,3,0,0,1-.93,1.27,2,2,0,0,1-1.51.13,6.23,6.23,0,0,1-1.78-.78l-1.74-1.09.7,1.77a14.881,14.881,0,0,1,.72,2.32,7.05,7.05,0,0,1,.16,1.2,1.9,1.9,0,0,1-.26,1.18,1.92,1.92,0,0,0,.68-1.12,5.38,5.38,0,0,0,.18-1.32,9.13,9.13,0,0,0,0-1.05,8.344,8.344,0,0,0,.9.44,3.55,3.55,0,0,0,2.85-.07,4.28,4.28,0,0,0,1.87-2.12v-.13a3.81,3.81,0,0,0,4.45.95,6.859,6.859,0,0,0,.85-.46s0,.07,0,.11a13.369,13.369,0,0,0,.29,1.4,7.3,7.3,0,0,0,.5,1.35,3.11,3.11,0,0,0,.87,1.12,3.48,3.48,0,0,1-.43-1.27,9.819,9.819,0,0,1-.12-1.31Z" fill="#1169e3"/>
        <path id="Trazado_880422" data-name="Trazado 880422" d="M226.14,356.23a5.72,5.72,0,0,1-2.31-.25,8.382,8.382,0,0,1-2.17-1,6.5,6.5,0,0,1-1.61-1.73,9,9,0,0,1-1.07-2.15l-.66-2-1.12,1.77a9.62,9.62,0,0,1-1.72,2,3.22,3.22,0,0,1-2,.92h-.24l-.3-.06a2.8,2.8,0,0,1-.62-.15,7.481,7.481,0,0,1-1.21-.52,10.369,10.369,0,0,1-2.15-1.6l-1.74-1.67.36,2.29a18.361,18.361,0,0,1,.23,3.7,5.14,5.14,0,0,1-.35,1.7,1.13,1.13,0,0,1-1.22.7h-.45l.14.37q.44,1.13.9,2.25c-.09-.67-.2-1.34-.32-2h.19a3.168,3.168,0,0,0,.59-.1,4.663,4.663,0,0,0,.53-.32c.13-.14.27-.29.39-.44a5.27,5.27,0,0,0,.75-2,12.729,12.729,0,0,0,.22-2h0a11.4,11.4,0,0,0,1,.74,8.859,8.859,0,0,0,1.48.73,5.18,5.18,0,0,0,1.73.39,5.07,5.07,0,0,0,3.34-1.32,9.28,9.28,0,0,0,1.09-1.08,11.411,11.411,0,0,0,.64,1,8.28,8.28,0,0,0,2.2,2.09,8.58,8.58,0,0,0,2.77,1.08,8.08,8.08,0,0,0,1.91.14c-.08.2-.17.4-.24.61a13.588,13.588,0,0,0-.41,1.76,6.881,6.881,0,0,0-.08,1.81,3.58,3.58,0,0,0,.53,1.7,3.74,3.74,0,0,1-.13-1.69,8.6,8.6,0,0,1,.39-1.65,17,17,0,0,1,1.45-3l.63-1.07Z" fill="#1169e3"/>
      </g>
      <g id="freepik--Table--inject-5">
        <path id="Trazado_880423" data-name="Trazado 880423" d="M75.5,400.08H426.2a4.44,4.44,0,0,1,4.44,4.44v10.8H71.06v-10.8a4.44,4.44,0,0,1,4.44-4.44Z" transform="translate(501.7 815.41) rotate(180)" fill="#1169e3"/>
        <rect id="Rectángulo_405377" data-name="Rectángulo 405377" width="359.59" height="7.62" transform="translate(430.64 407.7) rotate(180)" opacity="0.2"/>
        <path id="Trazado_880424" data-name="Trazado 880424" d="M63.52,402.07H438.18a4.3,4.3,0,0,0,4.3-4.29h0a4.3,4.3,0,0,0-4.3-4.3H63.52a4.3,4.3,0,0,0-4.3,4.3h0A4.3,4.3,0,0,0,63.52,402.07Z" fill="#1169e3"/>
      </g>
      <g id="freepik--device-2--inject-5">
        <path id="Trazado_880425" data-name="Trazado 880425" d="M412.79,341l-10.94,49.62a3.73,3.73,0,0,1-3.55,2.82H338.54a2.41,2.41,0,0,1-2.24-3.12l10.92-49.24a3.42,3.42,0,0,1,3.55-2.43h59.76C412.13,338.69,413.14,339.42,412.79,341Z" fill="#263238"/>
        <path id="Trazado_880426" data-name="Trazado 880426" d="M412.79,341l-10.94,49.62a3.73,3.73,0,0,1-3.55,2.82H340.57a2.41,2.41,0,0,1-2.25-3.12l10.94-49.24a3.39,3.39,0,0,1,3.55-2.43h57.72C412.13,338.69,413.14,339.42,412.79,341Z" fill="#fff" opacity="0.4"/>
        <path id="Trazado_880427" data-name="Trazado 880427" d="M403.26,391.91l10.88-49.36c.36-1.62-.65-2.35-2.26-2.35H354.16a3.41,3.41,0,0,0-3.55,2.43l-11.05,49.93Z" fill="#1169e3"/>
        <path id="Trazado_880428" data-name="Trazado 880428" d="M414.14,342.54l-5.74,26.08-5.15,23.29-34.1.35-29.58.29,11-49.92a3.39,3.39,0,0,1,3.54-2.43H411.9C413.5,340.2,414.5,340.94,414.14,342.54Z" fill="#fff" opacity="0.4"/>
        <path id="Trazado_880429" data-name="Trazado 880429" d="M408.4,368.62l-5.15,23.29-34.1.35H340.83l4.63-21.3a3,3,0,0,1,2.9-2.34Z" opacity="0.2"/>
        <path id="Trazado_880430" data-name="Trazado 880430" d="M409.38,371.86a3.39,3.39,0,0,0-3.55-2.42H348.11c-1.6,0-2.61.72-2.26,2.34l4.38,19.86h-9.75a.92.92,0,1,0,0,1.84h71.1a2.09,2.09,0,0,0,2-2.55Z" fill="#1169e3"/>
        <path id="Trazado_880431" data-name="Trazado 880431" d="M409.38,371.86a3.39,3.39,0,0,0-3.55-2.42H348.11c-1.6,0-2.61.72-2.26,2.34l4.38,19.86h-9.75a.92.92,0,1,0,0,1.84h71.1a2.09,2.09,0,0,0,2-2.55Z" fill="#fff" opacity="0.4"/>
        <path id="Trazado_880432" data-name="Trazado 880432" d="M338.75,383.91H335.4l-.42,1.81h3.26Z"/>
        <path id="Trazado_880433" data-name="Trazado 880433" d="M317.58,393.71h-9.65a.56.56,0,0,1-.57-.57.57.57,0,0,1,.57-.57h9.65a10.55,10.55,0,0,0,8.25-3.95,11.68,11.68,0,0,1,9.15-4.38h1.7a.58.58,0,0,1,.57.57.57.57,0,0,1-.57.57H335a10.55,10.55,0,0,0-8.25,3.95A11.69,11.69,0,0,1,317.58,393.71Z"/>
      </g>
      <g id="freepik--device-1--inject-5">
        <path id="Trazado_880434" data-name="Trazado 880434" d="M156.78,386.65v4.17c0,1.88,2.27,2.66,4.15,2.66H307.51c1.86,0,4.07-.78,4.07-2.66v-4.17Z" fill="#263238"/>
        <path id="Trazado_880435" data-name="Trazado 880435" d="M156.78,386.65v4.17c0,1.88,2.27,2.66,4.15,2.66H307.51c1.86,0,4.07-.78,4.07-2.66v-4.17Z" fill="#fff" opacity="0.4"/>
        <path id="Trazado_880436" data-name="Trazado 880436" d="M206.72,386.65v4.17c0,1.88,2.23,2.66,4.11,2.66h96.68c1.86,0,4.07-.78,4.07-2.66v-4.17Z" opacity="0.2"/>
        <path id="Trazado_880437" data-name="Trazado 880437" d="M336.11,307.33l-17.45,79.15A5.94,5.94,0,0,1,313,391H217.67c-2.53,0-4.17-2.37-3.58-5l17.43-78.55c.59-2.58,3.11-3.87,5.67-3.87h95.32C335.07,303.59,336.68,304.75,336.11,307.33Z" fill="#263238"/>
        <path id="Trazado_880438" data-name="Trazado 880438" d="M336.11,307.33l-17.45,79.15A5.94,5.94,0,0,1,313,391H220.91c-2.56,0-4.17-2.37-3.6-5l17.45-78.55c.57-2.58,3.11-3.87,5.67-3.87h92.08C335.07,303.59,336.68,304.75,336.11,307.33Z" fill="#fff" opacity="0.4"/>
        <path id="Trazado_880439" data-name="Trazado 880439" d="M289.11,347.56h0c0,6.78-7.26,12.29-12.59,12.29s-8.48-5.51-7-12.29,6.81-12.05,12-12.26c-1.52,6.78,1.73,12.26,7,12.26A3.118,3.118,0,0,0,289.11,347.56Z" opacity="0.2"/>
      </g>
    </g>
  </g>
</svg>
