<svg id="Grupo_1099868" data-name="Grupo 1099868" xmlns="http://www.w3.org/2000/svg" width="90" height="90" viewBox="0 0 90 90">
  <circle id="Elipse_11505" data-name="Elipse 11505" cx="45" cy="45" r="45" fill="#13de61"/>
  <g id="algoritmos" transform="translate(18.066 17)">
    <path id="Trazado_873723" data-name="Trazado 873723" d="M10.946,112.373v-8.153a7.373,7.373,0,0,0-.813-3.346A47.328,47.328,0,0,1,6.024,85.887c-.6-15.168,9.269-23.006,21.059-23.006,9.681,0,17.853,4.086,17.317,17.836-.061,1.572,1.881,5.748,6.69,14.628.259.478-.217,1.044-.77,1.044h-5.87c-.139,5.6,1.353,10.161-9.617,8.689v7.3" transform="translate(1.173 -56.595)" fill="#3f8fd5"/>
    <path id="Trazado_873724" data-name="Trazado 873724" d="M4.956,106.971h1.2V98.817A8.015,8.015,0,0,0,5.277,95.2,46.5,46.5,0,0,1,1.233,80.461c-.269-6.793,1.614-12.49,5.445-16.475a20.486,20.486,0,0,1,15.014-5.907c5.769,0,10.109,1.472,12.9,4.376,2.753,2.862,4.037,7.181,3.816,12.837-.066,1.689,1.7,5.6,6.762,14.938a.274.274,0,0,1-.242.158H38.475l-.014.585c-.016.664-.01,1.309,0,1.932.023,2.41.041,4.314-1.174,5.386s-3.751,1.33-7.76.791l-.68-.091v7.981h1.2v-6.616c4.041.471,6.6.1,8.034-1.166,1.625-1.435,1.6-3.688,1.579-6.3,0-.427-.008-.863,0-1.306h5.28a1.492,1.492,0,0,0,1.26-.716,1.218,1.218,0,0,0,.038-1.213c-3.477-6.42-6.685-12.6-6.618-14.319.234-5.994-1.163-10.609-4.15-13.715-3.027-3.148-7.659-4.744-13.766-4.744A21.67,21.67,0,0,0,5.814,63.154C1.752,67.381-.247,73.381.035,80.508A48.039,48.039,0,0,0,4.209,95.742a6.812,6.812,0,0,1,.748,3.074Z" transform="translate(6.563 -51.193)"/>
    <path id="Trazado_873725" data-name="Trazado 873725" d="M83.268,87.243h22.427a7.579,7.579,0,0,0,7.128-5.98c2.16-12.524-6.413-18.655-14.323-18.655l-2.479.027c-8.975,0-20.6,7.249-20.6,16.224v.533a7.851,7.851,0,0,0,7.851,7.851Z" transform="translate(-67.765 -56.35)" fill="#fdc00f"/>
    <path id="Trazado_873726" data-name="Trazado 873726" d="M77.86,82.444h22.427a8.176,8.176,0,0,0,7.719-6.478c1.225-7.106-1.016-11.565-3.113-14.053a15.524,15.524,0,0,0-11.8-5.3l-2.486.027A24.9,24.9,0,0,0,76.592,61.5a19.75,19.75,0,0,0-5.132,5.32,12.316,12.316,0,0,0-2.051,6.642v.533A8.46,8.46,0,0,0,77.86,82.444ZM93.1,57.808a14.308,14.308,0,0,1,10.877,4.877c2.771,3.289,3.756,7.811,2.848,13.077a6.958,6.958,0,0,1-6.537,5.482H77.86a7.259,7.259,0,0,1-7.251-7.251V73.46c0-3.947,2.376-7.851,6.689-10.993a23.663,23.663,0,0,1,13.314-4.631Z" transform="translate(-62.357 -50.95)"/>
    <path id="Trazado_873727" data-name="Trazado 873727" d="M160.663,229.826h12.042a4.733,4.733,0,0,0,0-9.465h-9.058v1.2h9.058a3.533,3.533,0,1,1,0,7.066H160.663Z" transform="translate(-140.564 -198.333)"/>
    <rect id="Rectángulo_401744" data-name="Rectángulo 401744" width="8.766" height="1.2" transform="translate(22.928 26.161)"/>
    <path id="Trazado_873728" data-name="Trazado 873728" d="M125.939,140.21a3.887,3.887,0,0,0-4.5-4.841l.231,1.177a2.688,2.688,0,0,1,3.11,3.346Z" transform="translate(-85.282 -121.772)"/>
    <path id="Trazado_873729" data-name="Trazado 873729" d="M339.208,255.182a3.888,3.888,0,0,0,.8-6.559l-.751.935a2.688,2.688,0,0,1-.555,4.535Z" transform="translate(-322.387 -223.77)"/>
    <path id="Trazado_873730" data-name="Trazado 873730" d="M89.845,134.144a2.622,2.622,0,0,1,3.59-.93l.608-1.034a3.822,3.822,0,0,0-5.232,1.355Z" transform="translate(-49.986 -118.492)"/>
    <path id="Trazado_873731" data-name="Trazado 873731" d="M202.994,99.381a2.688,2.688,0,0,1,4.563-.23l.987-.682a3.888,3.888,0,0,0-6.6.333Z" transform="translate(-175.796 -87.118)"/>
    <path id="Trazado_873732" data-name="Trazado 873732" d="M212.676,61.831l1.131-.4a2.622,2.622,0,0,1,1.6-3.347l-.4-1.131a3.821,3.821,0,0,0-2.326,4.878Z" transform="translate(-183.706 -51.26)"/>
    <path id="Trazado_873733" data-name="Trazado 873733" d="M106.784,209.848a3.888,3.888,0,0,0-2.946-5.915l-.11,1.194a2.688,2.688,0,0,1,2.037,4.089Z" transform="translate(-64.799 -183.547)"/>
    <path id="Trazado_873734" data-name="Trazado 873734" d="M172.219,161.607a3.871,3.871,0,0,0,2-.556l-.62-1.027a2.688,2.688,0,0,1-4.065-2.085l-1.2.1a3.886,3.886,0,0,0,3.879,3.572Z" transform="translate(-138.113 -142.151)"/>
    <path id="Trazado_873735" data-name="Trazado 873735" d="M260.576,17.439l.24-.028,2.277-.266a10.815,10.815,0,0,1,.661-2.182l-1.748-1.483-.185-.157a13.12,13.12,0,0,1,1.351-2.176l.223.1,2.1.907a10.113,10.113,0,0,1,1.664-1.553L266.4,8.43l-.081-.229q.524-.35,1.089-.655T268.569,7l.145.2,1.374,1.842A10.8,10.8,0,0,1,272.3,8.51l.41-2.249.043-.239a13.147,13.147,0,0,1,2.564.088l.028.241.262,2.274a10.4,10.4,0,0,1,2.184.66l1.48-1.743.157-.185a13.232,13.232,0,0,1,2.181,1.351l-.1.223-.905,2.093a10.81,10.81,0,0,1,1.554,1.671l2.16-.77.229-.081c.235.352.455.718.66,1.1a12.417,12.417,0,0,1,.553,1.158l-.194.144-1.846,1.372a11.266,11.266,0,0,1,.332,1.136,10.927,10.927,0,0,1,.185,1.078l2.256.415.238.043a13.068,13.068,0,0,1-.086,2.557l-.241.028-2.275.268a10.745,10.745,0,0,1-.66,2.184l1.744,1.48.184.157a13.1,13.1,0,0,1-1.353,2.178l-.221-.1-2.1-.905a11.2,11.2,0,0,1-1.662,1.552l.768,2.155.081.229q-.53.353-1.1.659t-1.162.551l-.144-.194-1.363-1.831a10.873,10.873,0,0,1-2.215.517l-.415,2.251-.044.237a12.975,12.975,0,0,1-2.556-.083l-.028-.24-.27-2.277a11.187,11.187,0,0,1-2.179-.656l-1.484,1.744a12.686,12.686,0,0,1-2.237-1.388l.91-2.107a10.393,10.393,0,0,1-1.559-1.664l-2.158.767-.229.081q-.353-.53-.659-1.106c-.2-.378-.382-.764-.543-1.155l.194-.144,1.827-1.364a10.853,10.853,0,0,1-.322-1.123c-.086-.364-.146-.732-.2-1.1l-2.249-.412L260.493,20A13,13,0,0,1,260.576,17.439Z" transform="translate(-259.866 -5.397)" fill="#d22732"/>
    <path id="Trazado_873736" data-name="Trazado 873736" d="M268.216,27.5q.448,0,.9-.029a.6.6,0,0,0,.55-.488l.382-2.068a11.5,11.5,0,0,0,1.479-.345l1.25,1.679a.6.6,0,0,0,.711.2c.405-.168.814-.362,1.215-.576s.778-.441,1.151-.689a.6.6,0,0,0,.233-.7l-.7-1.978a11.842,11.842,0,0,0,1.109-1.035l1.927.83a.6.6,0,0,0,.714-.186,13.733,13.733,0,0,0,1.415-2.278.6.6,0,0,0-.149-.722l-1.6-1.359a11.408,11.408,0,0,0,.443-1.46l2.087-.246a.6.6,0,0,0,.525-.517,13.709,13.709,0,0,0,.09-2.674.6.6,0,0,0-.491-.551l-2.068-.38c-.037-.226-.081-.459-.134-.7-.06-.258-.13-.516-.213-.783l1.694-1.259a.6.6,0,0,0,.2-.711,13.111,13.111,0,0,0-.58-1.214c-.209-.39-.441-.776-.689-1.147a.6.6,0,0,0-.7-.232l-1.981.706a11.479,11.479,0,0,0-1.041-1.115l.832-1.923a.6.6,0,0,0-.186-.714A13.865,13.865,0,0,0,274.3,1.423a.6.6,0,0,0-.723.15l-1.357,1.6a11.028,11.028,0,0,0-1.461-.442L270.517.645A.6.6,0,0,0,270,.12a13.785,13.785,0,0,0-2.681-.092.6.6,0,0,0-.552.491l-.376,2.064a11.468,11.468,0,0,0-1.477.349l-1.26-1.69a.6.6,0,0,0-.71-.2c-.413.171-.823.364-1.218.575s-.767.437-1.14.685a.6.6,0,0,0-.232.7l.7,1.986a10.786,10.786,0,0,0-1.113,1.04L258.011,5.2a.6.6,0,0,0-.712.187,13.751,13.751,0,0,0-1.413,2.276.6.6,0,0,0,.15.723l1.6,1.361A11.381,11.381,0,0,0,257.2,11.2l-2.089.244a.6.6,0,0,0-.525.518,13.638,13.638,0,0,0-.086,2.677.6.6,0,0,0,.49.55l2.064.378c.043.262.089.5.142.721.062.266.129.519.2.763l-1.675,1.25a.6.6,0,0,0-.2.711c.174.42.365.827.568,1.207.211.4.443.786.689,1.156a.6.6,0,0,0,.7.233l1.978-.7a11.085,11.085,0,0,0,1.045,1.112l-.739,1.711a.6.6,0,0,0,.183.712,13.307,13.307,0,0,0,2.343,1.453.6.6,0,0,0,.718-.151l1.207-1.418a11.892,11.892,0,0,0,1.455.44l.247,2.089a.6.6,0,0,0,.517.525A13.579,13.579,0,0,0,268.216,27.5Zm.353-1.2a12.514,12.514,0,0,1-1.513-.049l-.243-2.045a.6.6,0,0,0-.484-.519,10.642,10.642,0,0,1-2.063-.621.6.6,0,0,0-.684.166L262.4,24.608a12.115,12.115,0,0,1-1.348-.836l.722-1.671a.6.6,0,0,0-.158-.692,9.83,9.83,0,0,1-1.469-1.568.6.6,0,0,0-.682-.208l-1.937.688c-.132-.216-.259-.438-.378-.662s-.227-.443-.333-.676l1.64-1.225a.6.6,0,0,0,.207-.678,10.215,10.215,0,0,1-.3-1.061c-.071-.3-.13-.634-.186-1.042a.6.6,0,0,0-.486-.509l-2.017-.37a12.485,12.485,0,0,1,.049-1.515l2.043-.238a.6.6,0,0,0,.52-.483,10.171,10.171,0,0,1,.624-2.06.6.6,0,0,0-.164-.691l-1.569-1.332a12.584,12.584,0,0,1,.8-1.289l1.89.814a.6.6,0,0,0,.692-.16,9.56,9.56,0,0,1,1.566-1.461A.6.6,0,0,0,262.332,5l-.691-1.947c.215-.133.432-.258.648-.374s.453-.232.685-.338L264.209,4a.6.6,0,0,0,.68.207,10.242,10.242,0,0,1,2.091-.494.6.6,0,0,0,.514-.487l.368-2.017a12.628,12.628,0,0,1,1.519.052l.236,2.041a.6.6,0,0,0,.486.521,9.789,9.789,0,0,1,2.059.622.6.6,0,0,0,.693-.163l1.328-1.566a12.725,12.725,0,0,1,1.292.8l-.812,1.878a.6.6,0,0,0,.155.689,10.241,10.241,0,0,1,1.468,1.578.6.6,0,0,0,.683.208l1.94-.691c.133.216.26.437.38.658s.235.451.34.678L277.97,9.739a.6.6,0,0,0-.209.678,10.677,10.677,0,0,1,.314,1.076c.077.349.136.691.174,1.012a.6.6,0,0,0,.487.52l2.025.373a12.54,12.54,0,0,1-.051,1.513l-2.043.241a.6.6,0,0,0-.52.486,10.193,10.193,0,0,1-.624,2.062.6.6,0,0,0,.165.689l1.565,1.328a12.548,12.548,0,0,1-.8,1.291l-1.883-.812a.6.6,0,0,0-.689.156,10.607,10.607,0,0,1-1.573,1.468.6.6,0,0,0-.2.68l.689,1.934c-.217.133-.438.26-.659.378s-.455.234-.683.34l-1.223-1.643a.6.6,0,0,0-.68-.208,10.288,10.288,0,0,1-2.093.488.6.6,0,0,0-.514.486Z" transform="translate(-254.468 -0.001)"/>
    <path id="Trazado_873737" data-name="Trazado 873737" d="M322.24,64.768a7.377,7.377,0,0,1,9.967,3.02,7.027,7.027,0,0,1,.685,1.835,7.359,7.359,0,0,1-13.666,5.1,7.55,7.55,0,0,1-.68-1.809A7.362,7.362,0,0,1,322.24,64.768Z" transform="translate(-311.966 -57.513)" fill="#b22732"/>
    <path id="Trazado_873738" data-name="Trazado 873738" d="M320.348,73.876a7.973,7.973,0,0,0,7.757-9.732,7.615,7.615,0,0,0-.742-1.986,8,8,0,0,0-10.777-3.265h0a7.976,7.976,0,0,0-3.992,8.812,8.132,8.132,0,0,0,.733,1.954,7.89,7.89,0,0,0,4.7,3.868A7.982,7.982,0,0,0,320.348,73.876Zm-.027-14.716a6.79,6.79,0,0,1,5.986,3.567,6.431,6.431,0,0,1,.628,1.679A6.759,6.759,0,0,1,314.384,69.1a6.925,6.925,0,0,1-.625-1.664,6.738,6.738,0,0,1,6.561-8.274Z" transform="translate(-306.594 -52.168)"/>
    <path id="Trazado_873739" data-name="Trazado 873739" d="M365.945,110.349a2.754,2.754,0,0,1,3.721,1.127,2.627,2.627,0,0,1,.256.685,2.747,2.747,0,0,1-5.1,1.9,2.814,2.814,0,0,1-.254-.676A2.748,2.748,0,0,1,365.945,110.349Z" transform="translate(-353.492 -99.027)" fill="#d1d3d4"/>
    <path id="Trazado_873740" data-name="Trazado 873740" d="M361.854,110.741a3.352,3.352,0,0,0,3.262-4.092,3.213,3.213,0,0,0-.313-.836,3.361,3.361,0,0,0-4.53-1.372l0,0a3.354,3.354,0,0,0-1.678,3.706,3.407,3.407,0,0,0,.308.82,3.319,3.319,0,0,0,1.977,1.628A3.353,3.353,0,0,0,361.854,110.741Zm-.01-5.494a2.158,2.158,0,0,1,1.9,1.134,2.021,2.021,0,0,1,.2.53,2.149,2.149,0,0,1-2.719,2.537,2.127,2.127,0,0,1-1.267-1.043,2.2,2.2,0,0,1-.2-.53,2.14,2.14,0,0,1,2.084-2.628Z" transform="translate(-348.102 -93.647)"/>
  </g>
</svg>
