<svg xmlns="http://www.w3.org/2000/svg" xmlns:xlink="http://www.w3.org/1999/xlink" width="85" height="85" viewBox="0 0 85 85">
  <defs>
    <clipPath id="clip-path">
      <rect id="Rectángulo_405943" data-name="Rectángulo 405943" width="56" height="56" transform="translate(-0.333 -0.333)" fill="none"/>
    </clipPath>
  </defs>
  <g id="Grupo_1102847" data-name="Grupo 1102847" transform="translate(-179.523 -2649)">
    <circle id="Elipse_11504" data-name="Elipse 11504" cx="42.5" cy="42.5" r="42.5" transform="translate(179.523 2649)" fill="#13de61"/>
    <g id="Grupo_1102846" data-name="Grupo 1102846" transform="translate(194.857 2664.334)">
      <path id="Trazado_881983" data-name="Trazado 881983" d="M63.864,362.663v3.81H10.4v-3.81l30.312-1.934Z" transform="translate(-9.268 -321.466)" fill="#756e78"/>
      <path id="Trazado_881984" data-name="Trazado 881984" d="M63.864,116.46v28.522H57.649l-19.369-1.32-21.666,1.32H10.4V116.46Z" transform="translate(-9.268 -103.784)" fill="#b2e5fb"/>
      <g id="Grupo_1102845" data-name="Grupo 1102845">
        <g id="Grupo_1102844" data-name="Grupo 1102844" clip-path="url(#clip-path)">
          <path id="Trazado_881985" data-name="Trazado 881985" d="M469.073,370.716v3.81H465.1a3.571,3.571,0,0,0,.956-2.334v-1.476l1.439-.951Z" transform="translate(-414.477 -329.518)" fill="#655f66"/>
          <path id="Trazado_881986" data-name="Trazado 881986" d="M468.066,116.46v28.522h-3.017v-25.42a4.523,4.523,0,0,0-1.079-3.1h4.1" transform="translate(-413.469 -103.784)" fill="#90d8f9"/>
          <path id="Trazado_881987" data-name="Trazado 881987" d="M178.029,419.512l-3.192.405a10.451,10.451,0,0,0-15.238,0l-3.225-.345,3.253-6.073h15.181Z" transform="translate(-139.354 -368.493)" fill="#cee0ea"/>
          <path id="Trazado_881988" data-name="Trazado 881988" d="M145.713,471.31l-2.272.218h-26.9a.569.569,0,0,1-.544-.592v-2.844a.569.569,0,0,1,.544-.592h27.473l1.7.218a.569.569,0,0,1,.544.592v2.409a.569.569,0,0,1-.544.592" transform="translate(-103.372 -416.615)" fill="#e6edf4"/>
          <path id="Trazado_881989" data-name="Trazado 881989" d="M370.273,468.092v2.844a.57.57,0,0,1-.544.592h-2.6c.632,0,.683-.611.683-.892V467.5h1.915a.57.57,0,0,1,.544.592" transform="translate(-327.17 -416.615)" fill="#cee0ea"/>
          <path id="Trazado_881990" data-name="Trazado 881990" d="M107.446,12.238V49.6l-2.674,1.135H67.5V17.355l1.088-5.022A1.633,1.633,0,0,1,70.221,10.7l34.432.332.4,0c.9,0,2.389.731,2.389,1.2" transform="translate(-60.153 -9.535)" fill="#f5f8f9"/>
          <path id="Trazado_881991" data-name="Trazado 881991" d="M108.105,9.527v4.619l-3.333.347L67.5,14.5V9.133A1.633,1.633,0,0,1,69.133,7.5h34.256l2.8.113a2.153,2.153,0,0,1,1.913,1.914" transform="translate(-60.153 -6.684)" fill="#756e78"/>
          <path id="Trazado_881992" data-name="Trazado 881992" d="M413.693,64.024V97.412H409.93V64.023l2.428-.943.245.173Z" transform="translate(-365.311 -56.214)" fill="#e6edf4"/>
          <path id="Trazado_881993" data-name="Trazado 881993" d="M400.955,9.133v5.36h-3.762V9.616a2.138,2.138,0,0,0-1.122-1.881l-.435-.235h3.686a1.633,1.633,0,0,1,1.633,1.633" transform="translate(-352.574 -6.684)" fill="#655f66"/>
          <path id="Trazado_881994" data-name="Trazado 881994" d="M139,468.3H118.89a.816.816,0,1,1,0-1.633h19.842v-2.072h-28.59v2.072h4.938a.816.816,0,1,1,0,1.633h-5.21a1.362,1.362,0,0,1-1.361-1.361v-2.617a1.362,1.362,0,0,1,1.361-1.361H139a1.362,1.362,0,0,1,1.361,1.361v2.617A1.362,1.362,0,0,1,139,468.3" transform="translate(-96.699 -412.569)"/>
          <path id="Trazado_881995" data-name="Trazado 881995" d="M434.436,141.246h-6.52a.816.816,0,1,1,0-1.633h6.52a.272.272,0,0,0,.272-.272V108.865a.272.272,0,0,0-.272-.272h-5.082a.816.816,0,0,1,0-1.633h5.082a1.907,1.907,0,0,1,1.9,1.9v30.476a1.907,1.907,0,0,1-1.9,1.9" transform="translate(-380.613 -95.318)"/>
          <path id="Trazado_881996" data-name="Trazado 881996" d="M43.494,141.246H1.9a1.907,1.907,0,0,1-1.9-1.9V108.865a1.907,1.907,0,0,1,1.9-1.9H7.093a.816.816,0,0,1,0,1.633H1.9a.272.272,0,0,0-.272.272v30.476a.272.272,0,0,0,.272.272H43.494a.816.816,0,1,1,0,1.633" transform="translate(0 -95.318)"/>
          <path id="Trazado_881997" data-name="Trazado 881997" d="M323.232,415.9a.816.816,0,0,1-.72-.431l-3.1-5.794a.816.816,0,1,1,1.439-.771l3.1,5.794a.817.817,0,0,1-.719,1.2" transform="translate(-284.555 -364.015)"/>
          <path id="Trazado_881998" data-name="Trazado 881998" d="M179.694,437.556a.816.816,0,0,1-.592-1.378,11.269,11.269,0,0,1,16.318-.023.816.816,0,0,1-1.181,1.127,9.636,9.636,0,0,0-13.953.02.814.814,0,0,1-.592.254" transform="translate(-159.408 -385.576)"/>
          <path id="Trazado_881999" data-name="Trazado 881999" d="M149.688,415.964a.817.817,0,0,1-.719-1.2l3.136-5.854a.816.816,0,0,1,1.439.771l-3.136,5.854a.816.816,0,0,1-.72.431" transform="translate(-132.669 -364.016)"/>
          <path id="Trazado_882000" data-name="Trazado 882000" d="M56.177,372.634H2.486a.816.816,0,0,1,0-1.633h53.69a.816.816,0,0,1,0,1.633" transform="translate(-1.488 -330.62)"/>
          <path id="Trazado_882001" data-name="Trazado 882001" d="M60.816,41.781A.816.816,0,0,1,60,40.965V24.894a.816.816,0,1,1,1.633,0V40.965a.816.816,0,0,1-.816.816m41.034-.111a.816.816,0,0,1-.816-.816V2.592a.96.96,0,0,0-.959-.959H62.592a.96.96,0,0,0-.959.959V21.084a.816.816,0,0,1-1.633,0V2.592A2.6,2.6,0,0,1,62.592,0h37.484a2.594,2.594,0,0,1,2.592,2.592V40.854a.816.816,0,0,1-.816.816" transform="translate(-53.469)"/>
          <path id="Trazado_882002" data-name="Trazado 882002" d="M80.444,65.283H63.526a.816.816,0,1,1,0-1.633H80.444a.816.816,0,0,1,0,1.633" transform="translate(-55.884 -56.722)"/>
          <path id="Trazado_882003" data-name="Trazado 882003" d="M273.673,65.283H253.956a.816.816,0,0,1,0-1.633h19.717a.816.816,0,0,1,0,1.633" transform="translate(-225.587 -56.722)"/>
          <path id="Trazado_882004" data-name="Trazado 882004" d="M163.626,33.45a.822.822,0,0,1-.577-.239.788.788,0,0,1-.1-.124.706.706,0,0,1-.075-.142.749.749,0,0,1-.047-.152.787.787,0,0,1,0-.319.749.749,0,0,1,.047-.152.706.706,0,0,1,.075-.141.787.787,0,0,1,.1-.124.816.816,0,0,1,1.393.578.789.789,0,0,1-.016.159.821.821,0,0,1-.046.152.836.836,0,0,1-.075.142.86.86,0,0,1-.1.124.824.824,0,0,1-.577.239" transform="translate(-145.089 -28.353)"/>
          <path id="Trazado_882005" data-name="Trazado 882005" d="M129.506,33.456a.8.8,0,0,1-.16-.015.847.847,0,0,1-.152-.047.826.826,0,0,1-.14-.075.8.8,0,0,1-.124-.1.862.862,0,0,1-.1-.124.76.76,0,0,1-.074-.141.747.747,0,0,1-.047-.152.787.787,0,0,1,0-.319.747.747,0,0,1,.047-.152.76.76,0,0,1,.074-.141.862.862,0,0,1,.1-.124.8.8,0,0,1,.124-.1.826.826,0,0,1,.14-.075.848.848,0,0,1,.152-.047.817.817,0,0,1,.976.8.789.789,0,0,1-.016.16.749.749,0,0,1-.047.152.762.762,0,0,1-.074.141.861.861,0,0,1-.1.124.821.821,0,0,1-.577.238" transform="translate(-114.683 -28.36)"/>
          <path id="Trazado_882006" data-name="Trazado 882006" d="M95.386,33.456a.8.8,0,0,1-.16-.016.848.848,0,0,1-.152-.047.827.827,0,0,1-.14-.075.8.8,0,0,1-.124-.1.861.861,0,0,1-.1-.124.837.837,0,0,1-.075-.141.819.819,0,0,1-.046-.152.787.787,0,0,1,0-.319.819.819,0,0,1,.046-.152.837.837,0,0,1,.075-.141.861.861,0,0,1,.1-.124.8.8,0,0,1,.124-.1.827.827,0,0,1,.14-.075.849.849,0,0,1,.152-.047.833.833,0,0,1,.32,0,.849.849,0,0,1,.152.047.827.827,0,0,1,.14.075.8.8,0,0,1,.124.1.861.861,0,0,1,.1.124.837.837,0,0,1,.075.141.819.819,0,0,1,.046.152.787.787,0,0,1,0,.319.819.819,0,0,1-.046.152.837.837,0,0,1-.075.141.861.861,0,0,1-.1.124.8.8,0,0,1-.124.1.826.826,0,0,1-.14.075.848.848,0,0,1-.152.047.8.8,0,0,1-.16.016" transform="translate(-84.277 -28.36)"/>
          <path id="Trazado_882007" data-name="Trazado 882007" d="M174.154,193.193a.814.814,0,0,1-.577-.239l-3.334-3.335a.816.816,0,0,1,0-1.154l3.334-3.334a.816.816,0,0,1,1.154,1.154l-2.757,2.757,2.757,2.757a.816.816,0,0,1-.577,1.394" transform="translate(-151.499 -164.767)"/>
          <path id="Trazado_882008" data-name="Trazado 882008" d="M297.178,193.193a.816.816,0,0,1-.577-1.394l2.757-2.757-2.757-2.757a.816.816,0,1,1,1.155-1.154l3.334,3.334a.816.816,0,0,1,0,1.154l-3.334,3.335a.814.814,0,0,1-.577.239" transform="translate(-264.105 -164.767)"/>
          <path id="Trazado_882009" data-name="Trazado 882009" d="M235.54,187.309a.817.817,0,0,1-.768-1.094l3-8.306a.816.816,0,1,1,1.536.554l-3,8.306a.817.817,0,0,1-.768.539" transform="translate(-209.175 -158.064)"/>
          <path id="Trazado_882010" data-name="Trazado 882010" d="M105.264,141.684H95.386a.816.816,0,1,1,0-1.633h9.878a.816.816,0,0,1,0,1.633" transform="translate(-84.277 -124.807)"/>
          <path id="Trazado_882011" data-name="Trazado 882011" d="M240.958,141.684H221.136a.816.816,0,1,1,0-1.633h19.822a.816.816,0,1,1,0,1.633" transform="translate(-196.339 -124.807)"/>
          <path id="Trazado_882012" data-name="Trazado 882012" d="M120.907,106.684H95.386a.816.816,0,0,1,0-1.633h25.521a.816.816,0,0,1,0,1.633" transform="translate(-84.277 -93.617)"/>
          <path id="Trazado_882013" data-name="Trazado 882013" d="M369.034,106.684h-4.179a.816.816,0,0,1,0-1.633h4.179a.816.816,0,1,1,0,1.633" transform="translate(-324.415 -93.617)"/>
          <path id="Trazado_882014" data-name="Trazado 882014" d="M106.931,327.634H95.386a.816.816,0,1,1,0-1.633h11.545a.816.816,0,1,1,0,1.633" transform="translate(-84.277 -290.518)"/>
          <path id="Trazado_882015" data-name="Trazado 882015" d="M254.609,327.634H236.454a.816.816,0,1,1,0-1.633h18.154a.816.816,0,0,1,0,1.633" transform="translate(-209.99 -290.518)"/>
          <path id="Trazado_882016" data-name="Trazado 882016" d="M114.957,292.634H95.386a.816.816,0,1,1,0-1.633h19.57a.816.816,0,0,1,0,1.633" transform="translate(-84.277 -259.327)"/>
          <path id="Trazado_882017" data-name="Trazado 882017" d="M320.315,292.634H310.186a.816.816,0,1,1,0-1.633h10.129a.816.816,0,1,1,0,1.633" transform="translate(-275.697 -259.327)"/>
        </g>
      </g>
    </g>
  </g>
</svg>
