<svg xmlns="http://www.w3.org/2000/svg" width="163.389" height="163.984" viewBox="0 0 163.389 163.984">
  <g id="Version_control-bro" data-name="Version control-bro" transform="translate(-25.415 -174.485)">
    <g id="freepik--Graphics--inject-9" transform="translate(25.93 175)">
      <rect id="Rectángulo_406364" data-name="Rectángulo 406364" width="110.135" height="110.135" rx="11.22" transform="translate(52.225 52.82)" fill="#fff" stroke="#263238" stroke-miterlimit="10" stroke-width="1.029"/>
      <path id="Trazado_882324" data-name="Trazado 882324" d="M126.772,301.39,112.51,329.118h64.647" transform="translate(-33.252 -185.689)" fill="none" stroke="#263238" stroke-linecap="round" stroke-linejoin="round" stroke-width="1.029"/>
      <path id="Trazado_882325" data-name="Trazado 882325" d="M180.342,255.63,150.17,275.687l30.172,9.081" transform="translate(-36.437 -181.819)" fill="none" stroke="#263238" stroke-linecap="round" stroke-linejoin="round" stroke-width="1.029"/>
      <rect id="Rectángulo_406365" data-name="Rectángulo 406365" width="14.262" height="14.262" transform="translate(136.774 66.68)" fill="#1169e3" stroke="#263238" stroke-miterlimit="10" stroke-width="1.029"/>
      <rect id="Rectángulo_406366" data-name="Rectángulo 406366" width="14.262" height="14.262" transform="translate(136.774 95.818)" fill="#1169e3" stroke="#263238" stroke-miterlimit="10" stroke-width="1.029"/>
      <rect id="Rectángulo_406367" data-name="Rectángulo 406367" width="14.262" height="14.262" transform="translate(106.601 86.737)" fill="#1169e3" stroke="#263238" stroke-miterlimit="10" stroke-width="1.029"/>
      <rect id="Rectángulo_406368" data-name="Rectángulo 406368" width="14.262" height="14.262" transform="translate(86.389 108.57)" fill="#1169e3" stroke="#263238" stroke-miterlimit="10" stroke-width="1.029"/>
      <rect id="Rectángulo_406369" data-name="Rectángulo 406369" width="14.262" height="14.262" transform="translate(72.126 136.289)" fill="#1169e3" stroke="#263238" stroke-miterlimit="10" stroke-width="1.029"/>
      <rect id="Rectángulo_406370" data-name="Rectángulo 406370" width="14.262" height="14.262" transform="translate(136.774 136.289)" fill="#1169e3" stroke="#263238" stroke-miterlimit="10" stroke-width="1.029"/>
      <rect id="Rectángulo_406371" data-name="Rectángulo 406371" width="110.135" height="110.135" rx="11.22" transform="translate(0 9.658)" fill="#fff" stroke="#263238" stroke-miterlimit="10" stroke-width="1.029"/>
      <rect id="Rectángulo_406372" data-name="Rectángulo 406372" width="73.262" height="5.676" transform="translate(11.653 20.313)" fill="#1169e3"/>
      <rect id="Rectángulo_406373" data-name="Rectángulo 406373" width="42.329" height="5.676" transform="translate(11.653 29.66)" fill="#1169e3"/>
      <rect id="Rectángulo_406374" data-name="Rectángulo 406374" width="24.652" height="5.676" transform="translate(11.653 39.006)" fill="#1169e3"/>
      <rect id="Rectángulo_406375" data-name="Rectángulo 406375" width="40.572" height="5.676" transform="translate(11.653 48.344)" fill="#1169e3"/>
      <rect id="Rectángulo_406376" data-name="Rectángulo 406376" width="63.247" height="5.676" transform="translate(11.653 57.69)" fill="#1169e3"/>
      <rect id="Rectángulo_406377" data-name="Rectángulo 406377" width="42.329" height="5.676" transform="translate(11.653 67.028)" fill="#1169e3"/>
      <rect id="Rectángulo_406378" data-name="Rectángulo 406378" width="29.532" height="5.676" transform="translate(11.653 76.374)" fill="#1169e3"/>
      <rect id="Rectángulo_406379" data-name="Rectángulo 406379" width="47.813" height="5.676" transform="translate(11.653 85.721)" fill="#1169e3"/>
      <rect id="Rectángulo_406380" data-name="Rectángulo 406380" width="57.965" height="5.676" transform="translate(11.653 95.058)" fill="#1169e3"/>
      <rect id="Rectángulo_406381" data-name="Rectángulo 406381" width="73.262" height="5.676" transform="translate(11.653 104.404)" fill="#1169e3"/>
      <rect id="Rectángulo_406382" data-name="Rectángulo 406382" width="73.262" height="5.676" transform="translate(11.653 20.313)" opacity="0.3"/>
      <rect id="Rectángulo_406383" data-name="Rectángulo 406383" width="42.329" height="5.676" transform="translate(11.653 29.66)" opacity="0.3"/>
      <rect id="Rectángulo_406384" data-name="Rectángulo 406384" width="24.652" height="5.676" transform="translate(11.653 39.006)" opacity="0.3"/>
      <rect id="Rectángulo_406385" data-name="Rectángulo 406385" width="40.572" height="5.676" transform="translate(11.653 48.344)" opacity="0.3"/>
      <rect id="Rectángulo_406386" data-name="Rectángulo 406386" width="63.247" height="5.676" transform="translate(11.653 57.69)" opacity="0.3"/>
      <rect id="Rectángulo_406387" data-name="Rectángulo 406387" width="42.329" height="5.676" transform="translate(11.653 67.028)" opacity="0.3"/>
      <rect id="Rectángulo_406388" data-name="Rectángulo 406388" width="29.532" height="5.676" transform="translate(11.653 76.374)" opacity="0.3"/>
      <rect id="Rectángulo_406389" data-name="Rectángulo 406389" width="47.813" height="5.676" transform="translate(11.653 85.721)" opacity="0.3"/>
      <rect id="Rectángulo_406390" data-name="Rectángulo 406390" width="57.965" height="5.676" transform="translate(11.653 95.058)" opacity="0.3"/>
      <rect id="Rectángulo_406391" data-name="Rectángulo 406391" width="73.262" height="5.676" transform="translate(11.653 104.404)" opacity="0.3"/>
      <path id="Trazado_882326" data-name="Trazado 882326" d="M89.742,175H116.4a4.852,4.852,0,0,1,4.852,4.852v4.824H84.89v-4.824A4.852,4.852,0,0,1,89.742,175Z" transform="translate(-30.916 -175)" fill="#fff" stroke="#263238" stroke-miterlimit="10" stroke-width="1.029"/>
      <path id="Trazado_882327" data-name="Trazado 882327" d="M70.035,175H96.381a5.017,5.017,0,0,1,5.017,5.017v4.669H65v-4.669A5.017,5.017,0,0,1,70.035,175Z" transform="translate(-29.234 -175)" fill="#1169e3" stroke="#263238" stroke-miterlimit="10" stroke-width="1.029"/>
      <path id="Trazado_882328" data-name="Trazado 882328" d="M47.937,175H74.924a4.7,4.7,0,0,1,4.714,4.669v4.989H43.25v-4.989A4.7,4.7,0,0,1,47.937,175Z" transform="translate(-27.395 -175)" fill="#fff" stroke="#263238" stroke-miterlimit="10" stroke-width="1.029"/>
    </g>
  </g>
</svg>
