<svg xmlns="http://www.w3.org/2000/svg" width="85" height="85" viewBox="0 0 85 85">
  <g id="Grupo_1102426" data-name="Grupo 1102426" transform="translate(-199.523 -839)">
    <g id="Grupo_1102425" data-name="Grupo 1102425">
      <circle id="Elipse_11537" data-name="Elipse 11537" cx="42.5" cy="42.5" r="42.5" transform="translate(199.523 839)" fill="#1169e3"/>
      <g id="back-end" transform="translate(209.523 849)">
        <g id="Grupo_1102422" data-name="Grupo 1102422" transform="translate(0.956 0.956)">
          <path id="Trazado_880513" data-name="Trazado 880513" d="M59.634,52.635H11.324A3.824,3.824,0,0,1,7.5,48.811V11.324A3.824,3.824,0,0,1,11.324,7.5h48.31a3.824,3.824,0,0,1,3.824,3.824V49.07A3.612,3.612,0,0,1,59.634,52.635Z" transform="translate(-7.5 -7.5)" fill="#6987a0"/>
          <path id="Trazado_880514" data-name="Trazado 880514" d="M235.607,214.5l1.291,3.63,3.82,1.582,3.479-1.654,3.711,3.711-1.654,3.479,1.582,3.82,3.63,1.291v5.248l-3.63,1.291-1.582,3.82,1.654,3.479-3.711,3.711-3.479-1.654-3.82,1.582-1.291,3.629h-5.248l-1.291-3.63-3.82-1.582-3.479,1.654-3.711-3.711,1.654-3.479-1.582-3.82-3.629-1.291v-5.248l3.63-1.291,1.582-3.82-1.654-3.479,3.711-3.711,3.479,1.654,3.82-1.582,1.291-3.63Z" transform="translate(-188.114 -188.113)" fill="#ffaa81"/>
          <path id="Trazado_880515" data-name="Trazado 880515" d="M10.687,48.811V11.324A3.824,3.824,0,0,1,14.511,7.5H11.324A3.824,3.824,0,0,0,7.5,11.324V48.811a3.824,3.824,0,0,0,3.824,3.824h3.187A3.824,3.824,0,0,1,10.687,48.811Z" transform="translate(-7.5 -7.5)" fill="#57758d"/>
          <path id="Trazado_880516" data-name="Trazado 880516" d="M219.947,257.337a16.992,16.992,0,0,1,7.825-14.317l-2.524,1.045-3.479-1.654-3.711,3.711,1.654,3.479-1.582,3.82-3.63,1.291v5.248l3.63,1.291,1.582,3.82-1.654,3.479,3.711,3.711,3.479-1.654,2.524,1.045A16.993,16.993,0,0,1,219.947,257.337Z" transform="translate(-188.114 -212.468)" fill="#ff905b"/>
        </g>
        <g id="Grupo_1102423" data-name="Grupo 1102423" transform="translate(6.002 4.315)">
          <path id="Trazado_880517" data-name="Trazado 880517" d="M47.088,33.853H49v1.912H47.088Z" transform="translate(-47.088 -33.853)" fill="#fff"/>
          <path id="Trazado_880518" data-name="Trazado 880518" d="M77.088,33.853H79v1.912H77.088Z" transform="translate(-73.264 -33.853)" fill="#fff"/>
        </g>
        <g id="Grupo_1102424" data-name="Grupo 1102424">
          <path id="Trazado_880519" data-name="Trazado 880519" d="M79.975,130.284l4.5-4.5-4.5-4.5-1.352,1.352,3.148,3.148-3.148,3.148Z" transform="translate(-68.601 -105.824)"/>
          <path id="Trazado_880520" data-name="Trazado 880520" d="M0,0H1.912V28.415H0Z" transform="translate(18.746 22.826) rotate(-89.484)"/>
          <path id="Trazado_880521" data-name="Trazado 880521" d="M0,0H1.912V28.415H0Z" transform="translate(18.746 19.002) rotate(-89.484)"/>
          <path id="Trazado_880522" data-name="Trazado 880522" d="M79.975,231.284l4.5-4.5-4.5-4.5-1.352,1.352,3.148,3.148-3.148,3.148Z" transform="translate(-68.601 -193.95)"/>
          <path id="Trazado_880523" data-name="Trazado 880523" d="M147.162,265.088h8.019V267h-8.019Z" transform="translate(-128.404 -231.298)"/>
          <path id="Trazado_880524" data-name="Trazado 880524" d="M147.162,235.088h8.019V237h-8.019Z" transform="translate(-128.404 -205.122)"/>
          <path id="Trazado_880525" data-name="Trazado 880525" d="M277.929,326.067l-4.4,4.121,4.4,4.121,1.308-1.4-2.907-2.726,2.907-2.726Z" transform="translate(-238.667 -284.504)"/>
          <path id="Trazado_880526" data-name="Trazado 880526" d="M400.725,327.462l2.907,2.726-2.907,2.726,1.308,1.4,4.4-4.121-4.4-4.121Z" transform="translate(-349.645 -284.504)"/>
          <path id="Trazado_880527" data-name="Trazado 880527" d="M0,0H9.337V1.912H0Z" transform="matrix(0.628, -0.778, 0.778, 0.628, 42.14, 48.868)"/>
          <path id="Trazado_880528" data-name="Trazado 880528" d="M65.264,49.124v-6.6L61.4,41.152l-1.257-3.035,1.761-3.7L57.871,30.38V4.78A4.785,4.785,0,0,0,53.09,0H47.737V1.912H53.09A2.871,2.871,0,0,1,55.959,4.78V8.289H1.912V4.78A2.871,2.871,0,0,1,4.78,1.912H45.825V0H4.78A4.785,4.785,0,0,0,0,4.78V42.267a4.785,4.785,0,0,0,4.78,4.78h8.786V45.135H4.78a2.871,2.871,0,0,1-2.868-2.868V10.2H55.959V30.355l-2.426,1.153L50.5,30.251l-1.374-3.865h-6.6l-1.374,3.865-3.035,1.257-3.7-1.761-4.665,4.665,1.761,3.7-1.257,3.035-3.865,1.374v2.609H15.478v1.912H26.386v2.076L30.251,50.5l1.257,3.035-1.761,3.7L34.412,61.9l3.7-1.761L41.151,61.4l1.374,3.865h6.6L50.5,61.4l3.035-1.257,3.7,1.761L61.9,57.238l-1.761-3.7L61.4,50.5Zm-5.306-.142-1.908,4.6L59.6,56.84,56.84,59.6,53.586,58.05l-4.6,1.908-1.207,3.394h-3.9l-1.207-3.394-4.6-1.908L34.81,59.6,32.053,56.84,33.6,53.586l-1.907-4.6L28.3,47.774v-3.9l3.394-1.207,1.907-4.6L32.053,34.81l2.757-2.757L38.063,33.6l4.6-1.908L43.875,28.3h3.9l1.207,3.394,4.6,1.908,3.253-1.547L59.6,34.81,58.05,38.063l1.908,4.6,3.394,1.207v3.9Z"/>
        </g>
      </g>
    </g>
  </g>
</svg>
