<svg xmlns="http://www.w3.org/2000/svg" xmlns:xlink="http://www.w3.org/1999/xlink" width="183" height="179" viewBox="0 0 183 179">
  <defs>
    <clipPath id="clip-path">
      <rect id="Rectángulo_406447" data-name="Rectángulo 406447" width="183" height="179" transform="translate(201.523 1698)" fill="#fff" stroke="#707070" stroke-width="1"/>
    </clipPath>
    <clipPath id="clip-path-2">
      <rect id="Rectángulo_406419" data-name="Rectángulo 406419" width="145.222" height="155.794" fill="#1169e3"/>
    </clipPath>
    <clipPath id="clip-path-3">
      <rect id="Rectángulo_406438" data-name="Rectángulo 406438" width="145.222" height="155.794" fill="none"/>
    </clipPath>
  </defs>
  <g id="Grupo_1102939" data-name="Grupo 1102939" transform="translate(-194.523 -2411)">
    <rect id="Rectángulo_406445" data-name="Rectángulo 406445" width="183" height="179" rx="20" transform="translate(194.523 2411)" fill="#cff8de"/>
    <g id="Grupo_1102933" data-name="Grupo 1102933">
      <rect id="Rectángulo_406446" data-name="Rectángulo 406446" width="157" height="40" rx="20" transform="translate(194.523 2501)" fill="#1169e3"/>
      <g id="Enmascarar_grupo_1098710" data-name="Enmascarar grupo 1098710" transform="translate(-7 713)" clip-path="url(#clip-path)">
        <path id="Rectángulo_401740" data-name="Rectángulo 401740" d="M44.495,14.2A30.328,30.328,0,0,0,14.2,44.495v2.84a30.294,30.294,0,0,0,60.588,0v-2.84A30.328,30.328,0,0,0,44.495,14.2m0-14.2A44.494,44.494,0,0,1,88.989,44.495v2.84A44.495,44.495,0,1,1,0,47.335v-2.84A44.5,44.5,0,0,1,44.495,0Z" transform="translate(164.334 1813.02)" fill="#fff"/>
        <path id="Rectángulo_401740-2" data-name="Rectángulo 401740" d="M44.495,14.2A30.328,30.328,0,0,0,14.2,44.495v2.84a30.294,30.294,0,0,0,60.588,0v-2.84A30.328,30.328,0,0,0,44.495,14.2m0-14.2A44.494,44.494,0,0,1,88.989,44.495v2.84A44.495,44.495,0,1,1,0,47.335v-2.84A44.5,44.5,0,0,1,44.495,0Z" transform="translate(330.029 1661.02)" fill="#5e3552"/>
      </g>
      <g id="Grupo_1102898" data-name="Grupo 1102898" transform="translate(224.659 2432.206)">
        <path id="Trazado_882502" data-name="Trazado 882502" d="M0,287.9v3.21l8.581,6.061v-3.21L2.43,289.488l6.151-4.47v-3.24Z" transform="translate(0 -171.752)" fill="#263238"/>
        <path id="Trazado_882503" data-name="Trazado 882503" d="M28.661,286.025l6.541-24.3h2.79l-6.571,24.3Z" transform="translate(-17.47 -159.528)" fill="#263238"/>
        <path id="Trazado_882504" data-name="Trazado 882504" d="M59.244,297.169v-3.21l6.181-4.5-6.181-4.441v-3.24l8.612,6.091v3.21Z" transform="translate(-36.111 -171.752)" fill="#263238"/>
        <g id="Grupo_1102899" data-name="Grupo 1102899">
          <path id="Trazado_882505" data-name="Trazado 882505" d="M288.512,72.07l-4.092-2.89V67.649l4.092-2.919v1.545l-2.933,2.132,2.933,2.132Z" transform="translate(-173.363 -39.456)" fill="#1169e3"/>
          <g id="Grupo_1102890" data-name="Grupo 1102890" clip-path="url(#clip-path-2)">
            <path id="Trazado_882506" data-name="Trazado 882506" d="M301.018,71.874a2.466,2.466,0,0,1-1.538-.408,2,2,0,0,1-.7-1.152,7.444,7.444,0,0,1-.179-1.731v-1.9a7.382,7.382,0,0,1,.186-1.781,1.963,1.963,0,0,1,.708-1.131,2.5,2.5,0,0,1,1.524-.393,2.748,2.748,0,0,1,1.4.293,1.514,1.514,0,0,1,.68.873,4.769,4.769,0,0,1,.186,1.437v.487h-1.388v-.5a4.056,4.056,0,0,0-.071-.858.771.771,0,0,0-.258-.458,1.047,1.047,0,0,0-1.1.029.93.93,0,0,0-.264.58,7.412,7.412,0,0,0-.064,1.109v2.6a3.305,3.305,0,0,0,.2,1.417.748.748,0,0,0,.716.358.773.773,0,0,0,.565-.179.883.883,0,0,0,.228-.508,5.016,5.016,0,0,0,.05-.744V68.64h1.388v.572a4.694,4.694,0,0,1-.193,1.431,1.638,1.638,0,0,1-.687.916,2.56,2.56,0,0,1-1.381.315" transform="translate(-182.006 -38.629)" fill="#1169e3"/>
            <path id="Trazado_882507" data-name="Trazado 882507" d="M316.115,71.875a2.475,2.475,0,0,1-1.445-.372,2,2,0,0,1-.751-1.059,5.259,5.259,0,0,1-.222-1.617v-2.4a5.261,5.261,0,0,1,.222-1.617,2,2,0,0,1,.751-1.059,2.475,2.475,0,0,1,1.445-.372,2.442,2.442,0,0,1,1.438.372,2.016,2.016,0,0,1,.744,1.059,5.274,5.274,0,0,1,.222,1.617v2.4a5.272,5.272,0,0,1-.222,1.617,2.015,2.015,0,0,1-.744,1.059,2.442,2.442,0,0,1-1.438.372m0-1.13a.705.705,0,0,0,.622-.257,1.384,1.384,0,0,0,.214-.68q.036-.422.036-.88v-2.59q0-.472-.036-.887a1.414,1.414,0,0,0-.214-.679.7.7,0,0,0-.622-.265.715.715,0,0,0-.629.265,1.365,1.365,0,0,0-.222.679q-.036.415-.036.887v2.59q0,.458.036.88a1.336,1.336,0,0,0,.222.68.724.724,0,0,0,.629.257" transform="translate(-191.208 -38.63)" fill="#1169e3"/>
            <path id="Trazado_882508" data-name="Trazado 882508" d="M331.306,66.87a1.752,1.752,0,0,1-1.56-.765,4.856,4.856,0,0,1-.515-2.6v-1.6a9.164,9.164,0,0,1,.158-1.752,2.653,2.653,0,0,1,.594-1.295,1.631,1.631,0,0,1,1.28-.487,1.574,1.574,0,0,1,.759.186,2.657,2.657,0,0,1,.615.458V55.167h1.531V66.756h-1.531v-.529a2.476,2.476,0,0,1-.594.465,1.486,1.486,0,0,1-.736.179m.386-1.2a1.485,1.485,0,0,0,.458-.078,2.061,2.061,0,0,0,.486-.236V59.931a2.493,2.493,0,0,0-.444-.25,1.291,1.291,0,0,0-.529-.107.7.7,0,0,0-.715.508,3.568,3.568,0,0,0-.186,1.223v2.332a7.6,7.6,0,0,0,.064,1.037,1.55,1.55,0,0,0,.265.729.705.705,0,0,0,.6.265" transform="translate(-200.677 -33.626)" fill="#1169e3"/>
            <path id="Trazado_882509" data-name="Trazado 882509" d="M347.874,71.874a2.552,2.552,0,0,1-1.5-.379,1.976,1.976,0,0,1-.737-1.116,6.785,6.785,0,0,1-.207-1.809V66.68a6.612,6.612,0,0,1,.215-1.832,1.958,1.958,0,0,1,.751-1.1,2.567,2.567,0,0,1,1.481-.372,2.3,2.3,0,0,1,1.538.429,2.112,2.112,0,0,1,.651,1.238,10.281,10.281,0,0,1,.158,1.938v.672h-3.262v1.66a2.946,2.946,0,0,0,.093.816.845.845,0,0,0,.3.465.89.89,0,0,0,.537.15.748.748,0,0,0,.522-.164.863.863,0,0,0,.243-.472,3.554,3.554,0,0,0,.064-.722v-.5h1.488V69.2a3.233,3.233,0,0,1-.529,1.96,2.1,2.1,0,0,1-1.8.715m-.916-5.051h1.76v-.744a5.485,5.485,0,0,0-.057-.866.94.94,0,0,0-.236-.529.774.774,0,0,0-.565-.179.826.826,0,0,0-.565.172.982.982,0,0,0-.264.579,6.814,6.814,0,0,0-.072,1.123Z" transform="translate(-210.549 -38.629)" fill="#1169e3"/>
            <path id="Trazado_882510" data-name="Trazado 882510" d="M361.4,72.07V70.539l2.948-2.146L361.4,66.276V64.731l4.107,2.9v1.53Z" transform="translate(-220.286 -39.455)" fill="#1169e3"/>
          </g>
        </g>
        <g id="Grupo_1102893" data-name="Grupo 1102893">
          <g id="Grupo_1102892" data-name="Grupo 1102892" clip-path="url(#clip-path-3)">
            <path id="Trazado_882511" data-name="Trazado 882511" d="M23.692,3.5h-7.33a.586.586,0,0,1,0-1.171h7.33a.586.586,0,1,1,0,1.171" transform="translate(-9.616 -1.42)" fill="#263238"/>
            <path id="Trazado_882512" data-name="Trazado 882512" d="M43.9,14.528H16.362a.586.586,0,0,1,0-1.171H43.9a.586.586,0,0,1,0,1.171" transform="translate(-9.616 -8.142)" fill="#c4c4c4"/>
            <path id="Trazado_882513" data-name="Trazado 882513" d="M152.99,14.528H125.451a.586.586,0,1,1,0-1.171H152.99a.586.586,0,1,1,0,1.171" transform="translate(-76.109 -8.142)" fill="#c4c4c4"/>
            <path id="Trazado_882514" data-name="Trazado 882514" d="M102.351,14.528h-10.9a.586.586,0,0,1,0-1.171h10.9a.586.586,0,1,1,0,1.171" transform="translate(-55.388 -8.142)" fill="#263238"/>
            <path id="Trazado_882515" data-name="Trazado 882515" d="M32.211,25.556H16.362a.586.586,0,0,1,0-1.171H32.211a.586.586,0,0,1,0,1.171" transform="translate(-9.616 -14.863)" fill="#263238"/>
            <path id="Trazado_882516" data-name="Trazado 882516" d="M77.876,25.556H62.027a.586.586,0,1,1,0-1.171H77.876a.586.586,0,0,1,0,1.171" transform="translate(-37.45 -14.863)" fill="#263238"/>
            <path id="Trazado_882517" data-name="Trazado 882517" d="M123.542,25.556h-15.85a.586.586,0,1,1,0-1.171h15.85a.586.586,0,1,1,0,1.171" transform="translate(-65.285 -14.863)" fill="#263238"/>
            <path id="Trazado_882518" data-name="Trazado 882518" d="M160.093,25.556h-6.736a.586.586,0,0,1,0-1.171h6.736a.586.586,0,0,1,0,1.171" transform="translate(-93.119 -14.863)" fill="#263238"/>
            <path id="Trazado_882519" data-name="Trazado 882519" d="M47.539,3.5h-7.33a.586.586,0,0,1,0-1.171h7.33a.586.586,0,0,1,0,1.171" transform="translate(-24.151 -1.42)" fill="#263238"/>
            <path id="Trazado_882520" data-name="Trazado 882520" d="M159.166,3.5h-7.33a.586.586,0,1,1,0-1.171h7.33a.586.586,0,0,1,0,1.171" transform="translate(-92.192 -1.42)" fill="#263238"/>
            <path id="Trazado_882521" data-name="Trazado 882521" d="M134.3,3.5h-7.33a.586.586,0,1,1,0-1.171h7.33a.586.586,0,0,1,0,1.171" transform="translate(-77.038 -1.42)" fill="#c4c4c4"/>
            <path id="Trazado_882522" data-name="Trazado 882522" d="M85.454,3.5h-21.4a.586.586,0,0,1,0-1.171h21.4a.586.586,0,1,1,0,1.171" transform="translate(-38.688 -1.42)" fill="#263238"/>
            <path id="Trazado_882523" data-name="Trazado 882523" d="M23.692,70.828h-7.33a.586.586,0,1,1,0-1.171h7.33a.586.586,0,1,1,0,1.171" transform="translate(-9.616 -42.458)" fill="#263238"/>
            <path id="Trazado_882524" data-name="Trazado 882524" d="M43.9,81.856H16.362a.586.586,0,0,1,0-1.171H43.9a.586.586,0,0,1,0,1.171" transform="translate(-9.616 -49.18)" fill="#c4c4c4"/>
            <path id="Trazado_882525" data-name="Trazado 882525" d="M152.99,81.856H125.451a.586.586,0,1,1,0-1.171H152.99a.586.586,0,1,1,0,1.171" transform="translate(-76.109 -49.18)" fill="#263238"/>
            <path id="Trazado_882526" data-name="Trazado 882526" d="M102.351,81.856h-10.9a.586.586,0,0,1,0-1.171h10.9a.586.586,0,1,1,0,1.171" transform="translate(-55.388 -49.18)" fill="#263238"/>
            <path id="Trazado_882527" data-name="Trazado 882527" d="M32.211,92.884H16.362a.586.586,0,1,1,0-1.171H32.211a.586.586,0,1,1,0,1.171" transform="translate(-9.616 -55.902)" fill="#263238"/>
            <path id="Trazado_882528" data-name="Trazado 882528" d="M77.876,92.884H62.027a.586.586,0,1,1,0-1.171H77.876a.586.586,0,0,1,0,1.171" transform="translate(-37.45 -55.902)" fill="#263238"/>
            <path id="Trazado_882529" data-name="Trazado 882529" d="M123.542,92.884h-15.85a.586.586,0,1,1,0-1.171h15.85a.586.586,0,1,1,0,1.171" transform="translate(-65.285 -55.902)" fill="#c4c4c4"/>
            <path id="Trazado_882530" data-name="Trazado 882530" d="M160.093,92.884h-6.736a.586.586,0,0,1,0-1.171h6.736a.586.586,0,0,1,0,1.171" transform="translate(-93.119 -55.902)" fill="#263238"/>
            <path id="Trazado_882531" data-name="Trazado 882531" d="M47.539,70.828h-7.33a.586.586,0,0,1,0-1.171h7.33a.586.586,0,1,1,0,1.171" transform="translate(-24.151 -42.458)" fill="#263238"/>
            <path id="Trazado_882532" data-name="Trazado 882532" d="M159.166,70.828h-7.33a.586.586,0,1,1,0-1.171h7.33a.586.586,0,0,1,0,1.171" transform="translate(-92.192 -42.458)" fill="#263238"/>
            <path id="Trazado_882533" data-name="Trazado 882533" d="M134.3,70.828h-7.33a.586.586,0,1,1,0-1.171h7.33a.586.586,0,0,1,0,1.171" transform="translate(-77.038 -42.458)" fill="#c4c4c4"/>
            <path id="Trazado_882534" data-name="Trazado 882534" d="M85.454,70.828h-21.4a.586.586,0,0,1,0-1.171h21.4a.586.586,0,1,1,0,1.171" transform="translate(-38.688 -42.458)" fill="#263238"/>
            <path id="Trazado_882535" data-name="Trazado 882535" d="M23.692,170.078h-7.33a.586.586,0,0,1,0-1.171h7.33a.586.586,0,0,1,0,1.171" transform="translate(-9.616 -102.954)" fill="#263238"/>
            <path id="Trazado_882536" data-name="Trazado 882536" d="M43.9,181.106H16.362a.586.586,0,1,1,0-1.171H43.9a.586.586,0,1,1,0,1.171" transform="translate(-9.616 -109.676)" fill="#c4c4c4"/>
            <path id="Trazado_882537" data-name="Trazado 882537" d="M152.99,181.106H125.451a.586.586,0,1,1,0-1.171H152.99a.586.586,0,1,1,0,1.171" transform="translate(-76.109 -109.676)" fill="#263238"/>
            <path id="Trazado_882538" data-name="Trazado 882538" d="M102.351,181.106h-10.9a.586.586,0,0,1,0-1.171h10.9a.586.586,0,1,1,0,1.171" transform="translate(-55.388 -109.676)" fill="#263238"/>
            <path id="Trazado_882539" data-name="Trazado 882539" d="M32.211,192.134H16.362a.586.586,0,0,1,0-1.171H32.211a.586.586,0,0,1,0,1.171" transform="translate(-9.616 -116.398)" fill="#263238"/>
            <path id="Trazado_882540" data-name="Trazado 882540" d="M77.876,192.134H62.027a.586.586,0,1,1,0-1.171H77.876a.586.586,0,0,1,0,1.171" transform="translate(-37.45 -116.398)" fill="#263238"/>
            <path id="Trazado_882541" data-name="Trazado 882541" d="M123.542,192.134h-15.85a.586.586,0,1,1,0-1.171h15.85a.586.586,0,1,1,0,1.171" transform="translate(-65.285 -116.398)" fill="#c4c4c4"/>
            <path id="Trazado_882542" data-name="Trazado 882542" d="M160.093,192.134h-6.736a.586.586,0,0,1,0-1.171h6.736a.586.586,0,0,1,0,1.171" transform="translate(-93.119 -116.398)" fill="#263238"/>
            <path id="Trazado_882543" data-name="Trazado 882543" d="M47.539,170.078h-7.33a.586.586,0,0,1,0-1.171h7.33a.586.586,0,0,1,0,1.171" transform="translate(-24.151 -102.954)" fill="#263238"/>
            <path id="Trazado_882544" data-name="Trazado 882544" d="M159.166,170.078h-7.33a.586.586,0,1,1,0-1.171h7.33a.586.586,0,0,1,0,1.171" transform="translate(-92.192 -102.954)" fill="#263238"/>
            <path id="Trazado_882545" data-name="Trazado 882545" d="M134.3,170.078h-7.33a.586.586,0,1,1,0-1.171h7.33a.586.586,0,0,1,0,1.171" transform="translate(-77.038 -102.954)" fill="#c4c4c4"/>
            <path id="Trazado_882546" data-name="Trazado 882546" d="M85.454,170.078h-21.4a.586.586,0,0,1,0-1.171h21.4a.586.586,0,1,1,0,1.171" transform="translate(-38.688 -102.954)" fill="#263238"/>
            <path id="Trazado_882547" data-name="Trazado 882547" d="M129.229,37.165H121.9a.586.586,0,0,1,0-1.171h7.331a.586.586,0,0,1,0,1.171" transform="translate(-73.944 -21.939)" fill="#263238"/>
            <path id="Trazado_882548" data-name="Trazado 882548" d="M104.367,37.165H97.037a.586.586,0,0,1,0-1.171h7.331a.586.586,0,1,1,0,1.171" transform="translate(-58.79 -21.939)" fill="#263238"/>
            <path id="Trazado_882549" data-name="Trazado 882549" d="M55.518,37.165h-21.4a.586.586,0,1,1,0-1.171h21.4a.586.586,0,1,1,0,1.171" transform="translate(-20.441 -21.939)" fill="#263238"/>
            <path id="Trazado_882550" data-name="Trazado 882550" d="M129.229,56.9H121.9a.586.586,0,0,1,0-1.171h7.331a.586.586,0,0,1,0,1.171" transform="translate(-73.944 -33.968)" fill="#263238"/>
            <path id="Trazado_882551" data-name="Trazado 882551" d="M104.367,56.9H97.037a.586.586,0,0,1,0-1.171h7.331a.586.586,0,1,1,0,1.171" transform="translate(-58.79 -33.968)" fill="#263238"/>
            <path id="Trazado_882552" data-name="Trazado 882552" d="M55.518,56.9h-21.4a.586.586,0,0,1,0-1.171h21.4a.586.586,0,1,1,0,1.171" transform="translate(-20.441 -33.968)" fill="#c4c4c4"/>
            <path id="Trazado_882553" data-name="Trazado 882553" d="M41.451,47.031h-7.33a.586.586,0,1,1,0-1.171h7.33a.586.586,0,1,1,0,1.171" transform="translate(-20.441 -27.953)" fill="#263238"/>
            <path id="Trazado_882554" data-name="Trazado 882554" d="M66.312,47.031H58.982a.586.586,0,1,1,0-1.171h7.331a.586.586,0,0,1,0,1.171" transform="translate(-35.594 -27.953)" fill="#263238"/>
            <path id="Trazado_882555" data-name="Trazado 882555" d="M107.271,47.031h-21.4a.586.586,0,1,1,0-1.171h21.4a.586.586,0,0,1,0,1.171" transform="translate(-51.986 -27.953)" fill="#c4c4c4"/>
            <path id="Trazado_882556" data-name="Trazado 882556" d="M129.229,106.234H121.9a.586.586,0,0,1,0-1.171h7.331a.586.586,0,0,1,0,1.171" transform="translate(-73.944 -64.039)" fill="#263238"/>
            <path id="Trazado_882557" data-name="Trazado 882557" d="M104.367,106.234H97.037a.586.586,0,0,1,0-1.171h7.331a.586.586,0,1,1,0,1.171" transform="translate(-58.79 -64.039)" fill="#263238"/>
            <path id="Trazado_882558" data-name="Trazado 882558" d="M55.518,106.234h-21.4a.586.586,0,1,1,0-1.171h21.4a.586.586,0,1,1,0,1.171" transform="translate(-20.441 -64.039)" fill="#263238"/>
            <path id="Trazado_882559" data-name="Trazado 882559" d="M129.229,125.967H121.9a.586.586,0,0,1,0-1.171h7.331a.586.586,0,0,1,0,1.171" transform="translate(-73.944 -76.067)" fill="#263238"/>
            <path id="Trazado_882560" data-name="Trazado 882560" d="M104.367,125.967H97.037a.586.586,0,0,1,0-1.171h7.331a.586.586,0,1,1,0,1.171" transform="translate(-58.79 -76.067)" fill="#263238"/>
            <path id="Trazado_882561" data-name="Trazado 882561" d="M55.518,125.967h-21.4a.586.586,0,1,1,0-1.171h21.4a.586.586,0,1,1,0,1.171" transform="translate(-20.441 -76.067)" fill="#c4c4c4"/>
            <path id="Trazado_882562" data-name="Trazado 882562" d="M41.451,116.1h-7.33a.586.586,0,1,1,0-1.171h7.33a.586.586,0,1,1,0,1.171" transform="translate(-20.441 -70.053)" fill="#263238"/>
            <path id="Trazado_882563" data-name="Trazado 882563" d="M66.312,116.1H58.982a.586.586,0,1,1,0-1.171h7.331a.586.586,0,1,1,0,1.171" transform="translate(-35.594 -70.053)" fill="#263238"/>
            <path id="Trazado_882564" data-name="Trazado 882564" d="M107.271,116.1h-21.4a.586.586,0,1,1,0-1.171h21.4a.586.586,0,0,1,0,1.171" transform="translate(-51.986 -70.053)" fill="#c4c4c4"/>
            <path id="Trazado_882565" data-name="Trazado 882565" d="M41.451,137.575h-7.33a.586.586,0,0,1,0-1.171h7.33a.586.586,0,0,1,0,1.171" transform="translate(-20.441 -83.143)" fill="#263238"/>
            <path id="Trazado_882566" data-name="Trazado 882566" d="M66.312,137.575H58.982a.586.586,0,1,1,0-1.171h7.331a.586.586,0,0,1,0,1.171" transform="translate(-35.594 -83.143)" fill="#263238"/>
            <path id="Trazado_882567" data-name="Trazado 882567" d="M107.271,137.575h-21.4a.586.586,0,0,1,0-1.171h21.4a.586.586,0,0,1,0,1.171" transform="translate(-51.986 -83.143)" fill="#c4c4c4"/>
            <path id="Trazado_882568" data-name="Trazado 882568" d="M41.451,157.309h-7.33a.586.586,0,1,1,0-1.171h7.33a.586.586,0,1,1,0,1.171" transform="translate(-20.441 -95.171)" fill="#263238"/>
            <path id="Trazado_882569" data-name="Trazado 882569" d="M66.312,157.309H58.982a.586.586,0,1,1,0-1.171h7.331a.586.586,0,1,1,0,1.171" transform="translate(-35.594 -95.171)" fill="#263238"/>
            <path id="Trazado_882570" data-name="Trazado 882570" d="M107.271,157.309h-21.4a.586.586,0,1,1,0-1.171h21.4a.586.586,0,0,1,0,1.171" transform="translate(-51.986 -95.171)" fill="#c4c4c4"/>
            <path id="Trazado_882571" data-name="Trazado 882571" d="M129.229,147.442H121.9a.586.586,0,0,1,0-1.171h7.331a.586.586,0,0,1,0,1.171" transform="translate(-73.944 -89.157)" fill="#263238"/>
            <path id="Trazado_882572" data-name="Trazado 882572" d="M104.367,147.442H97.037a.586.586,0,0,1,0-1.171h7.331a.586.586,0,1,1,0,1.171" transform="translate(-58.79 -89.157)" fill="#263238"/>
            <path id="Trazado_882573" data-name="Trazado 882573" d="M55.518,147.442h-21.4a.586.586,0,0,1,0-1.171h21.4a.586.586,0,0,1,0,1.171" transform="translate(-20.441 -89.157)" fill="#c4c4c4"/>
            <rect id="Rectángulo_406420" data-name="Rectángulo 406420" width="2.34" height="2.644" transform="translate(1.686)" fill="#263238"/>
            <rect id="Rectángulo_406421" data-name="Rectángulo 406421" width="2.34" height="2.644" transform="translate(1.686 4.344)" fill="#263238"/>
            <rect id="Rectángulo_406422" data-name="Rectángulo 406422" width="2.34" height="2.644" transform="translate(1.686 8.689)" fill="#263238"/>
            <rect id="Rectángulo_406423" data-name="Rectángulo 406423" width="2.34" height="2.644" transform="translate(1.686 13.033)" fill="#263238"/>
            <rect id="Rectángulo_406424" data-name="Rectángulo 406424" width="2.34" height="2.644" transform="translate(1.686 17.377)" fill="#263238"/>
            <rect id="Rectángulo_406425" data-name="Rectángulo 406425" width="2.34" height="2.644" transform="translate(1.686 21.721)" fill="#263238"/>
            <rect id="Rectángulo_406426" data-name="Rectángulo 406426" width="2.34" height="2.644" transform="translate(1.686 26.065)" fill="#263238"/>
            <rect id="Rectángulo_406427" data-name="Rectángulo 406427" width="2.34" height="2.644" transform="translate(1.686 30.41)" fill="#263238"/>
            <rect id="Rectángulo_406428" data-name="Rectángulo 406428" width="2.34" height="2.644" transform="translate(1.686 34.754)" fill="#263238"/>
            <rect id="Rectángulo_406429" data-name="Rectángulo 406429" width="2.34" height="2.644" transform="translate(1.686 39.098)" fill="#263238"/>
            <rect id="Rectángulo_406430" data-name="Rectángulo 406430" width="2.34" height="2.644" transform="translate(1.686 43.442)" fill="#263238"/>
            <rect id="Rectángulo_406431" data-name="Rectángulo 406431" width="2.34" height="2.644" transform="translate(1.686 47.786)" fill="#263238"/>
            <rect id="Rectángulo_406432" data-name="Rectángulo 406432" width="2.34" height="2.644" transform="translate(1.686 52.131)" fill="#263238"/>
            <rect id="Rectángulo_406433" data-name="Rectángulo 406433" width="2.34" height="2.644" transform="translate(1.686 56.475)" fill="#263238"/>
            <rect id="Rectángulo_406434" data-name="Rectángulo 406434" width="2.34" height="2.644" transform="translate(1.686 60.819)" fill="#263238"/>
            <rect id="Rectángulo_406435" data-name="Rectángulo 406435" width="2.34" height="2.644" transform="translate(1.686 65.163)" fill="#263238"/>
            <rect id="Rectángulo_406436" data-name="Rectángulo 406436" width="2.34" height="2.644" transform="translate(1.686 69.508)" fill="#263238"/>
            <rect id="Rectángulo_406437" data-name="Rectángulo 406437" width="2.34" height="2.644" transform="translate(1.686 73.852)" fill="#263238"/>
          </g>
        </g>
        <g id="Grupo_1102895" data-name="Grupo 1102895">
          <g id="Grupo_1102894" data-name="Grupo 1102894" clip-path="url(#clip-path-3)">
            <path id="Trazado_882574" data-name="Trazado 882574" d="M171.095,167.24l2.3,8.746a50.4,50.4,0,0,0-3.223,4.511c-1.841,2.854-5.248,8.194-6.721,9.667a8.724,8.724,0,0,1-2.118,1.749,18.017,18.017,0,0,0-4.788.184,11.43,11.43,0,0,0-3.5,2.21c-.276.276,11.417,0,11.417,0s.736,0,1.473-1.2,8.562-6.169,11.232-9.851a26.485,26.485,0,0,0,3.5-6.076s-5.984-8.378-6.629-9.207-2.762-1.749-2.946-.736" transform="translate(-93.286 -101.667)" fill="#bababa"/>
            <path id="Trazado_882575" data-name="Trazado 882575" d="M156.011,194.326c-3.347,0-3.4-.132-3.446-.231a.218.218,0,0,1,.045-.228,11.659,11.659,0,0,1,3.578-2.258,17.463,17.463,0,0,1,4.807-.2,9.918,9.918,0,0,0,2.018-1.688c1.367-1.367,4.477-6.194,6.336-9.078l.359-.557a53.025,53.025,0,0,1,3.172-4.452l-2.276-8.65a.2.2,0,0,1,0-.085.7.7,0,0,1,.547-.574,3.491,3.491,0,0,1,2.745,1.225c.64.822,6.389,8.871,6.634,9.213a.2.2,0,0,1,.026.177,26.469,26.469,0,0,1-3.525,6.128c-1.663,2.294-5.32,5.093-7.989,7.136a22.469,22.469,0,0,0-3.235,2.7c-.785,1.276-1.6,1.29-1.64,1.29-3.87.091-6.442.126-8.154.126m-2.845-.434c1.461.094,7.138.009,10.994-.082.008,0,.652-.032,1.312-1.1a20.419,20.419,0,0,1,3.33-2.808c2.651-2.029,6.28-4.807,7.91-7.056a27.8,27.8,0,0,0,3.437-5.933c-.63-.882-5.964-8.345-6.563-9.116a3.187,3.187,0,0,0-2.344-1.086.3.3,0,0,0-.247.225l2.289,8.7a.2.2,0,0,1-.039.175,50.908,50.908,0,0,0-3.208,4.492l-.358.556c-1.867,2.9-4.991,7.746-6.388,9.143a8.838,8.838,0,0,1-2.178,1.791.2.2,0,0,1-.094.015,17.916,17.916,0,0,0-4.713.176,10.835,10.835,0,0,0-3.14,1.911" transform="translate(-92.984 -101.364)" fill="#263238"/>
            <path id="Trazado_882576" data-name="Trazado 882576" d="M207.429,175.2c-1.812-2.532-4.769-6.656-5.211-7.224-.644-.829-2.762-1.749-2.946-.736l1.987,7.551c1.285.538,3.913,1.372,6.17.41" transform="translate(-121.463 -101.667)" fill="#1169e3"/>
            <path id="Trazado_882577" data-name="Trazado 882577" d="M204.812,175.535a10.567,10.567,0,0,1-3.933-.867.2.2,0,0,1-.113-.13l-1.987-7.551a.2.2,0,0,1,0-.085.7.7,0,0,1,.547-.574,3.491,3.491,0,0,1,2.746,1.225c.446.574,3.459,4.777,5.215,7.23a.2.2,0,0,1-.082.293,6.059,6.059,0,0,1-2.389.458m-3.693-1.191a8.263,8.263,0,0,0,5.7.463c-1.771-2.474-4.631-6.462-5.061-7.015a3.187,3.187,0,0,0-2.344-1.086.3.3,0,0,0-.247.225Z" transform="translate(-121.158 -101.364)" fill="#263238"/>
            <path id="Trazado_882578" data-name="Trazado 882578" d="M156.3,234.848c-.16,0-.976-.018-1.278-.375a.487.487,0,0,1-.111-.4c.08-.481.776-.716,2.126-.716a3.784,3.784,0,0,0,.857-.287,5.67,5.67,0,0,1,1.044-.355,17.423,17.423,0,0,1,2.536.09.2.2,0,0,1,.176.213.2.2,0,0,1-.213.176A16.574,16.574,0,0,0,159,233.1a5.528,5.528,0,0,0-.961.331,3.439,3.439,0,0,1-1,.316c-1.629,0-1.735.349-1.741.389a.1.1,0,0,0,.023.088,1.7,1.7,0,0,0,.981.237.2.2,0,0,1,0,.39" transform="translate(-94.419 -141.827)" fill="#263238"/>
            <path id="Trazado_882579" data-name="Trazado 882579" d="M191.931,213.047s-10.258,27.872-10.647,29.558-1.816,21.926-1.946,22.314-1.3,11.157-1.3,11.157a39.194,39.194,0,0,1-3.5,3.114c-1.427,1.038-4.411,1.427-4.93,2.854s2.984,1.427,3.5,1.3,10.249-.519,10.249-.519,2.984.649,3.244-.779-.908-7.265-.908-7.265,1.3-3.373,1.557-4.411.259-2.465.389-2.854,5.449-22.314,5.449-22.314l9.341-16.773,3.243,1.427,7.265,16.643,15.438,25.3L227.21,274l1.167,2.854s-1.686,5.708-1.167,6.357,9.6,0,9.6,0,.908.259,1.038-1.3a7.907,7.907,0,0,0-.389-2.984s-1.038-2.205-1.168-2.595,0-2.076-.13-2.984-1.427-2.854-1.816-3.892-9.73-25.558-9.73-25.558l-6.1-33.053-24.91-.908Z" transform="translate(-103.349 -127.966)" fill="#263238"/>
            <path id="Trazado_882580" data-name="Trazado 882580" d="M229.836,283.392c-1.589,0-2.865-.09-3.084-.362-.532-.665.691-5.034,1.114-6.469l-1.142-2.791a.2.2,0,0,1,.008-.166l1.116-2.107-15.381-25.2-7.247-16.6-3.011-1.325-9.242,16.594c-.294,1.21-5.318,21.915-5.447,22.3a6.112,6.112,0,0,0-.117.919,13.072,13.072,0,0,1-.268,1.921c-.244.979-1.372,3.932-1.544,4.381.126.637,1.15,5.895.9,7.283a1.1,1.1,0,0,1-.494.739c-.9.6-2.712.251-2.958.2-3.9.157-9.82.421-10.186.513-.4.1-2.833.168-3.577-.658a.839.839,0,0,1-.156-.9c.349-.96,1.659-1.469,2.927-1.961a9.729,9.729,0,0,0,2.072-.984,38.13,38.13,0,0,0,3.431-3.046c.15-1.385,1.169-10.739,1.3-11.129.049-.214.308-3.508.581-6.995.5-6.348,1.117-14.248,1.36-15.3.388-1.679,10.235-28.444,10.654-29.582a.148.148,0,0,1,.012-.025l1.678-3.105a.192.192,0,0,1,.179-.1l24.909.908a.2.2,0,0,1,.185.16l6.1,33.053c.084.211,9.336,24.5,9.721,25.525a15.048,15.048,0,0,0,.777,1.566,9.425,9.425,0,0,1,1.05,2.367,13.762,13.762,0,0,1,.067,1.715,6.893,6.893,0,0,0,.055,1.236c.1.3.8,1.814,1.159,2.573a8,8,0,0,1,.407,3.083,1.714,1.714,0,0,1-.582,1.335.892.892,0,0,1-.665.143c-1.3.093-4.317.287-6.656.287m-2.716-9.684,1.133,2.77a.193.193,0,0,1,.006.129c-.8,2.7-1.483,5.828-1.2,6.18.383.347,5.1.237,9.434-.073a.188.188,0,0,1,.068.007.492.492,0,0,0,.381-.084,1.4,1.4,0,0,0,.409-1.042,7.778,7.778,0,0,0-.378-2.9c-.036-.074-1.037-2.2-1.169-2.6a5.866,5.866,0,0,1-.075-1.359,13.447,13.447,0,0,0-.063-1.659,9.551,9.551,0,0,0-1.007-2.237,15.12,15.12,0,0,1-.8-1.614c-.384-1.026-9.636-25.312-9.73-25.557l-6.079-32.933-24.631-.9-1.613,2.986c-.271.736-10.256,27.881-10.635,29.522-.237,1.026-.881,9.243-1.352,15.244-.394,5.019-.547,6.931-.6,7.088-.1.333-.824,6.831-1.289,11.117a.2.2,0,0,1-.056.117,38.762,38.762,0,0,1-3.526,3.133,10,10,0,0,1-2.16,1.032c-1.186.461-2.413.937-2.7,1.731a.452.452,0,0,0,.08.5c.554.614,2.745.652,3.192.54.523-.131,9.291-.485,10.289-.525a.247.247,0,0,1,.049,0c.018,0,1.878.4,2.684-.139a.712.712,0,0,0,.326-.484c.25-1.374-.9-7.133-.907-7.192a.194.194,0,0,1,.009-.108c.013-.034,1.3-3.374,1.549-4.388a12.74,12.74,0,0,0,.258-1.861,5.716,5.716,0,0,1,.135-1.008c.11-.344,3.61-14.736,5.445-22.3a.181.181,0,0,1,.019-.049l9.341-16.773a.2.2,0,0,1,.249-.084l3.243,1.427a.2.2,0,0,1,.1.1l7.265,16.643,15.427,25.275a.2.2,0,0,1,.006.193Zm-49.385,2.065h0Z" transform="translate(-103.044 -127.662)" fill="#263238"/>
            <path id="Trazado_882581" data-name="Trazado 882581" d="M195.385,120.357s-3.867,1.841-4.143,7.55,6.445,9.667,6.445,9.667,3.682,4.327,6.076,7,1.364,3.1,1.548,3.561a44.733,44.733,0,0,1-.167,5.174s10.772,2.762,17.309,2.21,9.575-2.3,9.575-2.3a13.212,13.212,0,0,0-.5-6.584c-1.2-3.775-2.352-5.742-2.444-6.571s-4.788-15.191-4.788-15.191,6.353,1.1,9.391,1.381l3.038.276s1.841,8.378,3.222,12.8,2.118,9.483,2.946,10.035,2.578.553,3.13.829,1.473,2.3,2.3,2.762.829-.46.829-.46,1.013.092,1.105-.46,1.2-1.749.552-2.854-6.721-2.946-6.721-2.946-.829-20.531-1.289-23.109l-.46-2.578s-6.813-3.5-8.746-4.051-7.274-1.934-7.274-1.934a14.429,14.429,0,0,0-9.023-2.578A54.8,54.8,0,0,0,207.078,114a18.9,18.9,0,0,0-2.946,1.565Z" transform="translate(-116.563 -68.226)" fill="#bababa"/>
            <path id="Trazado_882582" data-name="Trazado 882582" d="M220.3,155.48c-6.5,0-15.406-2.263-15.5-2.288a.2.2,0,0,1-.146-.2,40.643,40.643,0,0,0,.181-5.088.744.744,0,0,1,0-.468c.091-.4.244-1.073-1.515-3.035-2.276-2.539-5.759-6.624-6.06-6.977-.485-.3-6.781-4.262-6.511-9.827.273-5.648,4.064-7.622,4.248-7.713l8.743-4.786a18.615,18.615,0,0,1,2.984-1.581,54.738,54.738,0,0,1,10.257-2.033,14.717,14.717,0,0,1,9.125,2.593c.472.122,5.412,1.4,7.243,1.925a95.034,95.034,0,0,1,8.782,4.065.194.194,0,0,1,.1.139l.46,2.578c.443,2.479,1.207,21.045,1.286,23,1.047.322,6.07,1.914,6.7,2.995a2.477,2.477,0,0,1-.286,2.429,2.53,2.53,0,0,0-.242.555c-.083.5-.677.632-1.122.632h0a.732.732,0,0,1-.313.506.773.773,0,0,1-.784-.078,5.484,5.484,0,0,1-1.426-1.667,4.318,4.318,0,0,0-.868-1.091,4.741,4.741,0,0,0-1.048-.234,5.659,5.659,0,0,1-2.1-.607c-.532-.354-.92-1.89-1.617-4.8-.4-1.665-.85-3.552-1.408-5.337-1.27-4.065-2.948-11.559-3.2-12.674l-2.9-.264c-2.621-.238-7.758-1.1-9.087-1.328.7,2.146,4.609,14.142,4.7,14.923a8.994,8.994,0,0,0,.651,1.79c.472,1.115,1.118,2.642,1.784,4.743a13.293,13.293,0,0,1,.506,6.69.2.2,0,0,1-.092.122c-.126.072-3.151,1.777-9.656,2.327-.591.05-1.219.073-1.87.073m-15.249-2.627c1.357.335,11.086,2.671,17.086,2.165,5.859-.5,8.916-1.974,9.42-2.237a13.41,13.41,0,0,0-.517-6.4,50.2,50.2,0,0,0-1.772-4.709,8.757,8.757,0,0,1-.68-1.9c-.071-.64-3.157-10.191-4.779-15.152a.2.2,0,0,1,.219-.253c.063.011,6.379,1.107,9.375,1.379l3.038.276a.2.2,0,0,1,.173.153c.018.084,1.856,8.42,3.219,12.781.562,1.8,1.015,3.692,1.415,5.362.526,2.2,1.024,4.283,1.453,4.568a5.54,5.54,0,0,0,1.949.546,4.711,4.711,0,0,1,1.16.27,4.021,4.021,0,0,1,1.018,1.223,5.442,5.442,0,0,0,1.291,1.544c.179.1.32.129.4.084.106-.062.142-.279.143-.374a.2.2,0,0,1,.064-.143.2.2,0,0,1,.149-.05c.217.021.844.005.895-.3a2.6,2.6,0,0,1,.281-.67,2.114,2.114,0,0,0,.3-2.053c-.445-.762-4.2-2.127-6.609-2.858a.2.2,0,0,1-.139-.179c-.008-.205-.833-20.547-1.286-23.083l-.443-2.483a93.624,93.624,0,0,0-8.625-3.993c-1.909-.545-7.215-1.918-7.269-1.932a.191.191,0,0,1-.068-.033,14.313,14.313,0,0,0-8.888-2.54,54.286,54.286,0,0,0-10.181,2.018,18.806,18.806,0,0,0-2.9,1.543l-8.757,4.794-.009,0c-.038.018-3.766,1.868-4.033,7.383s6.283,9.451,6.349,9.49a.205.205,0,0,1,.05.042c.037.043,3.709,4.356,6.073,6.993,1.895,2.113,1.713,2.908,1.6,3.383a.439.439,0,0,0-.021.236,35.674,35.674,0,0,1-.141,5.1m-9.966-32.8h0Z" transform="translate(-116.259 -67.922)" fill="#263238"/>
            <path id="Trazado_882583" data-name="Trazado 882583" d="M335.238,210.23a.2.2,0,0,1-.19-.148l-.624-2.5a8.248,8.248,0,0,0-1.764-.852.2.2,0,1,1,0-.39,8.134,8.134,0,0,1,2.033.948.2.2,0,0,1,.09.121l.644,2.578a.2.2,0,0,1-.189.242" transform="translate(-202.648 -125.771)" fill="#263238"/>
            <path id="Trazado_882584" data-name="Trazado 882584" d="M229.082,140.06c-.092-.829-4.788-15.191-4.788-15.191s3.087.536,5.987.955l1.081-9.944c-2.272-.607-5.042-1.324-5.042-1.324a14.429,14.429,0,0,0-9.023-2.578A54.8,54.8,0,0,0,207.078,114a18.9,18.9,0,0,0-2.946,1.565l-8.746,4.788s-3.867,1.841-4.143,7.55,6.445,9.667,6.445,9.667,3.682,4.327,6.076,7,1.364,3.1,1.548,3.561a44.733,44.733,0,0,1-.167,5.174s10.772,2.762,17.309,2.21,9.575-2.3,9.575-2.3a13.21,13.21,0,0,0-.5-6.584c-1.2-3.775-2.351-5.742-2.444-6.571" transform="translate(-116.563 -68.226)" fill="#1169e3"/>
            <path id="Trazado_882585" data-name="Trazado 882585" d="M220.3,155.48c-6.5,0-15.406-2.263-15.5-2.288a.2.2,0,0,1-.146-.2,40.713,40.713,0,0,0,.181-5.088.745.745,0,0,1,0-.468c.092-.4.244-1.073-1.514-3.035-2.276-2.539-5.759-6.624-6.06-6.977-.485-.3-6.781-4.262-6.512-9.827.279-5.758,4.215-7.7,4.255-7.717l8.736-4.782a18.608,18.608,0,0,1,2.984-1.581,54.737,54.737,0,0,1,10.258-2.033,14.719,14.719,0,0,1,9.125,2.593c.331.086,2.886.748,5.008,1.315a.2.2,0,0,1,.144.21l-1.08,9.944a.2.2,0,0,1-.222.172c-2.33-.337-4.807-.754-5.673-.9.7,2.146,4.609,14.142,4.7,14.923a8.989,8.989,0,0,0,.651,1.79c.472,1.115,1.118,2.642,1.785,4.743a13.293,13.293,0,0,1,.506,6.69.2.2,0,0,1-.093.122c-.125.072-3.15,1.777-9.655,2.327-.592.05-1.219.073-1.87.073m-15.249-2.627c1.358.335,11.087,2.671,17.086,2.165,5.859-.5,8.916-1.974,9.42-2.237a13.41,13.41,0,0,0-.517-6.4,50.305,50.305,0,0,0-1.772-4.709,8.763,8.763,0,0,1-.68-1.9c-.071-.64-3.157-10.191-4.779-15.152a.2.2,0,0,1,.219-.253c.03.005,2.976.517,5.781.926l1.041-9.576c-2.239-.6-4.879-1.28-4.879-1.28a.194.194,0,0,1-.068-.033,14.314,14.314,0,0,0-8.887-2.54,54.283,54.283,0,0,0-10.181,2.018,18.826,18.826,0,0,0-2.9,1.543l-8.757,4.794c-.047.023-3.775,1.872-4.043,7.388s6.283,9.451,6.349,9.49a.205.205,0,0,1,.05.042c.037.043,3.709,4.356,6.073,6.993,1.894,2.113,1.713,2.908,1.6,3.383a.442.442,0,0,0-.021.236,35.678,35.678,0,0,1-.141,5.1" transform="translate(-116.259 -67.922)" fill="#263238"/>
            <path id="Trazado_882586" data-name="Trazado 882586" d="M183.87,91.225s2.9,6.542,3.458,7.944,4.426,5.661,5.138,6.353c1.221,1.187,3.647.469,3.647.469s2.71,1.776,4.766.561a4.76,4.76,0,0,0,2.243-5.608,24.183,24.183,0,0,0-1.963-5.047,9.329,9.329,0,0,0,1.2-1.43,4.829,4.829,0,0,0-.142-3.339,1.428,1.428,0,0,0-.865-.886,4.516,4.516,0,0,0-.565-.046s-2.243-5.514-3.832-7.2-5.867-1.763-9.418.667-4.6,5.221-3.666,7.558" transform="translate(-111.878 -49.85)" fill="#bababa"/>
            <path id="Trazado_882587" data-name="Trazado 882587" d="M198.915,106.879a6.583,6.583,0,0,1-3.146-.973c-.461.121-2.583.6-3.752-.541-.671-.652-4.605-4.975-5.183-6.421-.553-1.383-3.426-7.872-3.455-7.937a.024.024,0,0,1,0-.007c-1.045-2.612.317-5.452,3.737-7.791,3.678-2.517,8.048-2.357,9.67-.64,1.382,1.463,3.435,6.1,3.822,7.132a2.756,2.756,0,0,1,.492.059,1.639,1.639,0,0,1,.985.995,5.052,5.052,0,0,1,.142,3.494,11.955,11.955,0,0,1-1.131,1.4A24.12,24.12,0,0,1,203,100.6a4.932,4.932,0,0,1-2.334,5.82,3.4,3.4,0,0,1-1.751.456M195.8,105.5a.194.194,0,0,1,.107.032c.026.017,2.634,1.695,4.561.556a4.57,4.57,0,0,0,2.152-5.4,23.935,23.935,0,0,0-1.945-5h0a.2.2,0,0,1,.078-.264.2.2,0,0,1,.033-.014,13.274,13.274,0,0,0,1.082-1.328,4.613,4.613,0,0,0-.144-3.178,1.225,1.225,0,0,0-.744-.777c-.043-.007-.39-.039-.475-.041a.177.177,0,0,1-.05,0,.2.2,0,0,1-.163-.121c-.022-.055-2.244-5.5-3.793-7.135-1.514-1.6-5.65-1.712-9.167.694-3.254,2.226-4.565,4.895-3.6,7.321.079.178,2.909,6.571,3.459,7.948.525,1.312,4.277,5.492,5.093,6.286,1.124,1.092,3.433.43,3.456.423a.192.192,0,0,1,.055-.008" transform="translate(-111.564 -49.552)" fill="#263238"/>
            <path id="Trazado_882588" data-name="Trazado 882588" d="M200.786,90.2s-2.243-5.514-3.832-7.2-5.867-1.764-9.418.667-4.6,5.221-3.666,7.558l.2.463h0s.073-1.03.736-.883,3.532,1.324,5.372.074,2.5-2.428,3.753-2.428,2.5,2.134,3.164,3.311,2.281.442,2.281.442.525-1.731,1.4-2.006" transform="translate(-111.877 -49.85)" fill="#263238"/>
            <path id="Trazado_882589" data-name="Trazado 882589" d="M198.033,92.328a1.524,1.524,0,0,1-1.413-.768c-.494-.879-1.807-3.212-2.994-3.212-.729,0-1.242.443-2.018,1.113a16.987,16.987,0,0,1-1.626,1.282c-1.649,1.12-3.99.412-5.116.071-.175-.053-.314-.1-.408-.116a.262.262,0,0,0-.232.039,1.092,1.092,0,0,0-.267.668.2.2,0,0,1-.068.134.187.187,0,0,1-.143.046.2.2,0,0,1-.164-.115l-.2-.463c-1.048-2.618.314-5.458,3.734-7.8,3.678-2.517,8.048-2.357,9.671-.64,1.53,1.62,3.885,7.136,3.885,7.331a.2.2,0,0,1-.137.186c-.638.2-1.136,1.422-1.274,1.876a.2.2,0,0,1-.106.121,2.83,2.83,0,0,1-1.119.244m-4.407-4.37c1.255,0,2.441,1.823,3.334,3.411.5.884,1.642.513,1.953.391a3.837,3.837,0,0,1,1.307-1.963c-.4-.952-2.33-5.487-3.72-6.96-1.514-1.6-5.65-1.712-9.166.694-3.228,2.208-4.543,4.852-3.619,7.263a.926.926,0,0,1,.278-.369.656.656,0,0,1,.55-.107c.1.022.249.067.437.123,1.068.323,3.289.995,4.783-.021a16.641,16.641,0,0,0,1.59-1.254,3.5,3.5,0,0,1,2.273-1.208" transform="translate(-111.565 -49.553)" fill="#263238"/>
            <path id="Trazado_882590" data-name="Trazado 882590" d="M215.732,137.994a4.651,4.651,0,0,0,2.019-1.132,10.219,10.219,0,0,0,1.4-2.576l-.221,4.489s-.147.147-1.177,0a5.9,5.9,0,0,1-2.019-.781" transform="translate(-131.496 -81.852)" fill="#263238"/>
            <path id="Trazado_882591" data-name="Trazado 882591" d="M218.208,138.732a5.889,5.889,0,0,1-.79-.067,6.033,6.033,0,0,1-2.1-.81.2.2,0,0,1,.058-.354,4.489,4.489,0,0,0,1.922-1.074,10.1,10.1,0,0,0,1.36-2.513.2.2,0,0,1,.378.078l-.221,4.488a.194.194,0,0,1-.057.129.866.866,0,0,1-.554.122m-2.3-.993a5.213,5.213,0,0,0,1.561.539,3.655,3.655,0,0,0,.962.05l.161-3.273a7.18,7.18,0,0,1-1.005,1.634,4.378,4.378,0,0,1-1.678,1.05" transform="translate(-131.191 -81.548)" fill="#263238"/>
            <path id="Trazado_882592" data-name="Trazado 882592" d="M204.189,129.389a1.144,1.144,0,0,1-.552-.109c-.574-.328-.734-1.778-.76-2.065a.2.2,0,0,1,.177-.212.2.2,0,0,1,.212.177c.057.63.271,1.593.565,1.761a2.66,2.66,0,0,0,1.615-.2,1.428,1.428,0,0,0,.825-.575.2.2,0,1,1,.371.124c-.13.391-.647.659-1.057.816a4.241,4.241,0,0,1-1.4.283" transform="translate(-123.659 -77.412)" fill="#263238"/>
            <path id="Trazado_882593" data-name="Trazado 882593" d="M206.683,133.756a3.167,3.167,0,0,1-.437-.026.2.2,0,0,1,.057-.386,3.4,3.4,0,0,0,2.981-1.176.2.2,0,1,1,.31.237,3.6,3.6,0,0,1-2.911,1.352" transform="translate(-125.612 -80.514)" fill="#263238"/>
            <path id="Trazado_882594" data-name="Trazado 882594" d="M210.267,119.524a2.58,2.58,0,0,1-.448-.035.2.2,0,0,1,.073-.383,2.325,2.325,0,0,0,2.233-.877.195.195,0,0,1,.319.225,2.589,2.589,0,0,1-2.176,1.071" transform="translate(-127.795 -72.014)" fill="#263238"/>
            <path id="Trazado_882595" data-name="Trazado 882595" d="M206.725,115.351a.39.39,0,0,1-.266-.676,4.762,4.762,0,0,1,3.135-.986.39.39,0,1,1,0,.781,4.087,4.087,0,0,0-2.607.781.393.393,0,0,1-.262.1" transform="translate(-125.767 -69.296)" fill="#263238"/>
            <path id="Trazado_882596" data-name="Trazado 882596" d="M192.212,119.4a.39.39,0,0,1-.315-.621c.986-1.344,2.969-.457,3.053-.419a.391.391,0,0,1-.325.71c-.028-.012-1.492-.658-2.1.17a.391.391,0,0,1-.316.16" transform="translate(-116.922 -71.95)" fill="#263238"/>
            <path id="Trazado_882597" data-name="Trazado 882597" d="M195.1,124.33a1.2,1.2,0,0,1-.837-.28.2.2,0,0,1,.274-.278c.027.025.593.526,1.891-.318a.2.2,0,0,1,.213.328,2.872,2.872,0,0,1-1.542.549" transform="translate(-118.375 -75.23)" fill="#263238"/>
          </g>
        </g>
        <g id="Grupo_1102897" data-name="Grupo 1102897">
          <g id="Grupo_1102896" data-name="Grupo 1102896" clip-path="url(#clip-path-3)">
            <path id="Trazado_882598" data-name="Trazado 882598" d="M304.852,282.607a8.3,8.3,0,0,1-4.5-1.545.889.889,0,0,1,1.067-1.422c.124.091,3.1,2.258,5.591.5,1.83-1.3,2.078-10.024,1.67-15.808a.889.889,0,1,1,1.773-.126c.177,2.492.889,15.044-2.415,17.384a5.41,5.41,0,0,1-3.19,1.02" transform="translate(-182.86 -160.537)" fill="#263238"/>
            <rect id="Rectángulo_406440" data-name="Rectángulo 406440" width="2.959" height="21.769" transform="translate(108.061 121.91)" fill="#263238"/>
            <path id="Trazado_882599" data-name="Trazado 882599" d="M279.4,333.874h-2.959a.2.2,0,0,1-.2-.2V311.909a.2.2,0,0,1,.2-.2H279.4a.2.2,0,0,1,.2.2v21.769a.2.2,0,0,1-.2.2m-2.764-.39h2.569V312.1h-2.569Z" transform="translate(-168.381 -190)" fill="#263238"/>
            <path id="Trazado_882600" data-name="Trazado 882600" d="M271.631,296.884H248.191a1.493,1.493,0,0,1-1.493-1.493v-3.4a1.493,1.493,0,0,1,1.493-1.493h23.439a1.493,1.493,0,0,1,1.493,1.493v3.4a1.493,1.493,0,0,1-1.493,1.493" transform="translate(-150.37 -177.07)" fill="#8c8c8c"/>
            <path id="Trazado_882601" data-name="Trazado 882601" d="M271.326,296.774H247.887a1.69,1.69,0,0,1-1.688-1.688v-3.4A1.69,1.69,0,0,1,247.887,290h23.439a1.69,1.69,0,0,1,1.688,1.688v3.4a1.69,1.69,0,0,1-1.688,1.688m-23.439-6.383a1.3,1.3,0,0,0-1.3,1.3v3.4a1.3,1.3,0,0,0,1.3,1.3h23.439a1.3,1.3,0,0,0,1.3-1.3v-3.4a1.3,1.3,0,0,0-1.3-1.3Z" transform="translate(-150.066 -176.765)" fill="#263238"/>
            <path id="Trazado_882602" data-name="Trazado 882602" d="M317.265,210.25a12.5,12.5,0,0,0-.578,1.622c-1.117,3.858-1.2,8.033-1.243,12.025-.017,1.588-.431,4.158.185,5.631.768,1.836,4.229,2.677,5.184.608,1.2-2.608.476-6.072,1.055-8.882.643-3.116,2.415-6.972,1.641-10.125-.738-3.008-3.158-5.424-5.512-2.168a7.2,7.2,0,0,0-.733,1.29" transform="translate(-192.181 -126.42)" fill="#8c8c8c"/>
            <path id="Trazado_882603" data-name="Trazado 882603" d="M318.422,231.234h-.063a3.648,3.648,0,0,1-3.215-1.937,10.645,10.645,0,0,1-.268-4.328c.032-.5.063-.975.068-1.379.038-3.586.085-8.049,1.25-12.077a12.653,12.653,0,0,1,.588-1.647h0a7.332,7.332,0,0,1,.753-1.325c1.132-1.565,2.2-1.733,2.895-1.6,1.292.252,2.456,1.756,2.964,3.832.569,2.317-.185,4.929-.915,7.454-.28.971-.545,1.888-.725,2.756a20.012,20.012,0,0,0-.271,3.589,13.364,13.364,0,0,1-.8,5.336,2.353,2.353,0,0,1-2.263,1.322m1.619-23.937a2.915,2.915,0,0,0-2.191,1.472,6.969,6.969,0,0,0-.712,1.256h0a12.285,12.285,0,0,0-.568,1.6c-1.151,3.978-1.2,8.411-1.235,11.973,0,.415-.035.894-.068,1.4a10.437,10.437,0,0,0,.238,4.153,3.239,3.239,0,0,0,2.862,1.7,1.99,1.99,0,0,0,1.965-1.1,13.1,13.1,0,0,0,.761-5.179,20.188,20.188,0,0,1,.28-3.661c.182-.884.449-1.807.731-2.786.715-2.476,1.454-5.037.911-7.253-.466-1.9-1.535-3.323-2.661-3.542a1.594,1.594,0,0,0-.313-.03m-3.082,2.648h0Z" transform="translate(-191.875 -126.116)" fill="#263238"/>
            <rect id="Rectángulo_406441" data-name="Rectángulo 406441" width="10.886" height="2.959" transform="translate(104.097 119.877)" fill="#263238"/>
            <path id="Trazado_882604" data-name="Trazado 882604" d="M277.178,309.86H266.292a.2.2,0,0,1-.2-.2v-2.959a.2.2,0,0,1,.2-.2h10.886a.2.2,0,0,1,.2.2v2.959a.2.2,0,0,1-.2.2m-10.691-.39h10.5V306.9h-10.5Z" transform="translate(-162.195 -186.828)" fill="#263238"/>
            <path id="Trazado_882605" data-name="Trazado 882605" d="M243.438,392.171a1.393,1.393,0,1,1-1.393-1.393,1.393,1.393,0,0,1,1.393,1.393" transform="translate(-146.685 -238.192)" fill="#fff"/>
            <path id="Trazado_882606" data-name="Trazado 882606" d="M241.74,393.453a1.588,1.588,0,1,1,1.588-1.588,1.59,1.59,0,0,1-1.588,1.588m0-2.786a1.2,1.2,0,1,0,1.2,1.2,1.2,1.2,0,0,0-1.2-1.2" transform="translate(-146.38 -237.886)" fill="#263238"/>
            <path id="Trazado_882607" data-name="Trazado 882607" d="M316.722,392.171a1.393,1.393,0,1,1-1.393-1.393,1.393,1.393,0,0,1,1.393,1.393" transform="translate(-191.354 -238.192)" fill="#fff"/>
            <path id="Trazado_882608" data-name="Trazado 882608" d="M315.025,393.453a1.588,1.588,0,1,1,1.588-1.588,1.59,1.59,0,0,1-1.588,1.588m0-2.786a1.2,1.2,0,1,0,1.2,1.2,1.2,1.2,0,0,0-1.2-1.2" transform="translate(-191.05 -237.886)" fill="#263238"/>
            <path id="Trazado_882609" data-name="Trazado 882609" d="M279.648,392.171a1.393,1.393,0,1,1-1.393-1.393,1.393,1.393,0,0,1,1.393,1.393" transform="translate(-168.756 -238.192)" fill="#fff"/>
            <path id="Trazado_882610" data-name="Trazado 882610" d="M277.95,393.453a1.588,1.588,0,1,1,1.588-1.588,1.59,1.59,0,0,1-1.588,1.588m0-2.786a1.2,1.2,0,1,0,1.2,1.2,1.2,1.2,0,0,0-1.2-1.2" transform="translate(-168.451 -237.886)" fill="#263238"/>
            <path id="Trazado_882611" data-name="Trazado 882611" d="M256.109,367.966l-.938.036-.938-.036-15.311,8.654v1.266h2.07v-1.1l14.179-4.985,14.179,4.985v1.1h2.07v-1.266Z" transform="translate(-145.631 -224.287)" fill="#263238"/>
            <path id="Trazado_882612" data-name="Trazado 882612" d="M271.116,377.777h-2.071a.2.2,0,0,1-.2-.2v-.959l-13.984-4.917-13.983,4.917v.959a.2.2,0,0,1-.2.2h-2.071a.2.2,0,0,1-.2-.2v-1.266a.2.2,0,0,1,.1-.17l15.311-8.654a.2.2,0,0,1,.1-.025l.938.036.923-.036a.206.206,0,0,1,.1.025l15.311,8.654a.2.2,0,0,1,.1.17v1.266a.2.2,0,0,1-.2.2m-1.875-.391h1.68v-.957l-15.164-8.571-.883.034-.9-.034-15.164,8.571v.957h1.68v-.9a.2.2,0,0,1,.13-.184l14.178-4.986a.2.2,0,0,1,.13,0L269.11,376.3a.2.2,0,0,1,.13.184Z" transform="translate(-145.326 -223.982)" fill="#263238"/>
            <path id="Trazado_882613" data-name="Trazado 882613" d="M277.066,367.863h2.71l-.406,9.96h-1.9Z" transform="translate(-168.881 -224.224)" fill="#263238"/>
            <path id="Trazado_882614" data-name="Trazado 882614" d="M279.065,377.713h-1.9a.2.2,0,0,1-.2-.187l-.406-9.96a.2.2,0,0,1,.2-.2h2.71a.2.2,0,0,1,.2.2l-.406,9.96a.2.2,0,0,1-.2.187m-1.709-.391h1.522l.39-9.57h-2.3Z" transform="translate(-168.576 -223.919)" fill="#263238"/>
            <path id="Trazado_882615" data-name="Trazado 882615" d="M240.376,129.617s-.379,2.971.759,4.615,1.454,2.592,1.454,3.351-.506,2.023,0,2.4,2.023,0,2.023,0,2.719,2.782,3.667,2.529a6.191,6.191,0,0,0,1.9-1.012,31.879,31.879,0,0,1,3.224,3.73c.379.822.632,1.455.632,1.455l4.236-6.7a13.267,13.267,0,0,1-4.11-5.563c-1.328-3.541-1.328-8.219-5.374-9.231s-7.966,2.718-8.409,4.426" transform="translate(-146.48 -76.204)" fill="#fff"/>
            <path id="Trazado_882616" data-name="Trazado 882616" d="M253.725,146.585h-.018a.2.2,0,0,1-.163-.122c0-.006-.256-.638-.629-1.445a28.013,28.013,0,0,0-3.067-3.552,6.061,6.061,0,0,1-1.827.94c-.961.256-3.171-1.888-3.779-2.5-.389.087-1.581.314-2.078-.059-.437-.327-.309-1.043-.185-1.734a5.083,5.083,0,0,0,.106-.825c0-.554-.161-1.422-1.419-3.24-1.168-1.686-.808-4.627-.792-4.751,0-.008,0-.016,0-.024.489-1.884,4.6-5.578,8.645-4.566,3.167.791,3.946,3.761,4.7,6.633a28.355,28.355,0,0,0,.81,2.718,13.156,13.156,0,0,0,4.042,5.474.2.2,0,0,1,.05.262l-4.236,6.7a.2.2,0,0,1-.165.091m-3.856-5.575a.2.2,0,0,1,.139.059,30.978,30.978,0,0,1,3.262,3.785c.208.45.379.847.491,1.113l3.94-6.232a13.413,13.413,0,0,1-4.032-5.542,28.586,28.586,0,0,1-.822-2.757c-.758-2.889-1.473-5.618-4.417-6.353-4.016-1-7.756,2.738-8.169,4.273-.024.206-.319,2.957.727,4.467a6.431,6.431,0,0,1,1.488,3.462,5.331,5.331,0,0,1-.112.893c-.1.549-.209,1.17.034,1.353a3.166,3.166,0,0,0,1.859-.033.194.194,0,0,1,.186.053c1.021,1.044,2.871,2.633,3.478,2.477a6.035,6.035,0,0,0,1.825-.976.194.194,0,0,1,.122-.043" transform="translate(-146.172 -75.906)" fill="#263238"/>
            <path id="Trazado_882617" data-name="Trazado 882617" d="M253.652,159.44a.2.2,0,0,1-.084-.372,1.938,1.938,0,0,0,1.09-1.531.2.2,0,1,1,.39,0,2.3,2.3,0,0,1-1.313,1.884.2.2,0,0,1-.083.019" transform="translate(-154.49 -95.905)" fill="#263238"/>
            <path id="Trazado_882618" data-name="Trazado 882618" d="M245.554,147.487a.194.194,0,0,1-.194-.186,1.289,1.289,0,0,1,1.681-1.34.2.2,0,0,1-.064.385,1.093,1.093,0,0,0-.93.17,1.08,1.08,0,0,0-.3.768.2.2,0,0,1-.187.2h-.008" transform="translate(-149.554 -88.948)" fill="#263238"/>
            <path id="Trazado_882619" data-name="Trazado 882619" d="M248.666,151.75c.237.367.274.764.084.887s-.537-.074-.774-.441-.274-.764-.084-.887.537.074.774.441" transform="translate(-151.024 -92.205)" fill="#263238"/>
            <path id="Trazado_882620" data-name="Trazado 882620" d="M265.568,165.213l1.7-1.294v2.869Z" transform="translate(-161.872 -99.913)" fill="#263238"/>
            <path id="Trazado_882621" data-name="Trazado 882621" d="M266.969,166.678a.2.2,0,0,1-.132-.052l-1.7-1.574a.193.193,0,0,1-.062-.153.2.2,0,0,1,.077-.146l1.7-1.294a.2.2,0,0,1,.314.155v2.869a.2.2,0,0,1-.2.2m-1.4-1.755,1.206,1.114v-2.029Z" transform="translate(-161.568 -99.609)" fill="#263238"/>
            <path id="Trazado_882622" data-name="Trazado 882622" d="M176.071,280.926l-3.689,37.046s-5.229.109-7.408-.109-4.248-1.089-4.031.109,3.486,3.159,4.684,3.7,2.724.871,3.7,1.416,3.05,2.07,3.921,1.852,2.832-8.17,2.832-8.17l10.116-32.58,11.329-.871s-17.1-4.576-18.846-4.793-2.615,2.4-2.615,2.4" transform="translate(-98.091 -169.764)" fill="#fff"/>
            <path id="Trazado_882623" data-name="Trazado 882623" d="M172.769,324.855a7.749,7.749,0,0,1-3.019-1.4c-.311-.195-.592-.371-.817-.5A11.925,11.925,0,0,0,167,322.2a17.88,17.88,0,0,1-1.758-.651c-.984-.447-4.544-2.464-4.8-3.846a.679.679,0,0,1,.15-.638c.357-.355,1.165-.2,2.282.012.554.105,1.182.225,1.81.288,1.92.192,6.288.127,7.212.111l3.672-36.874a.173.173,0,0,1,.009-.042c.037-.113.946-2.761,2.824-2.529,1.736.217,18.174,4.611,18.872,4.8a.2.2,0,0,1-.036.383l-11.2.862-10.077,32.453c-.463,1.881-2.057,8.073-2.971,8.3a.944.944,0,0,1-.228.026m-11.485-7.612a.61.61,0,0,0-.412.1.325.325,0,0,0-.04.29c.194,1.067,3.293,2.98,4.573,3.561a17.844,17.844,0,0,0,1.719.636,12.217,12.217,0,0,1,2,.788c.229.127.516.307.834.506.939.587,2.357,1.474,2.945,1.327.488-.176,1.752-4.22,2.69-8.028l10.119-32.591a.2.2,0,0,1,.171-.137l10.186-.784c-3.817-1.016-16.259-4.311-17.712-4.493-1.493-.192-2.316,2.014-2.4,2.245l-3.687,37.024a.194.194,0,0,1-.19.176c-.053,0-5.266.107-7.431-.11-.645-.064-1.282-.186-1.845-.293a9.673,9.673,0,0,0-1.523-.217m10.794.424h0Z" transform="translate(-97.787 -169.46)" fill="#263238"/>
            <path id="Trazado_882624" data-name="Trazado 882624" d="M170.422,381.648c-3.7-.872-5.011-1.961-5.011-1.961l.987-1.11c-.54-.021-1.031-.049-1.423-.088-2.178-.218-4.248-1.089-4.03.109s3.486,3.159,4.684,3.7,2.723.872,3.7,1.416,3.05,2.07,3.922,1.852c.362-.091.911-1.515,1.43-3.149a36.932,36.932,0,0,1-4.263-.773" transform="translate(-98.091 -230.39)" fill="#92e3a9"/>
            <path id="Trazado_882625" data-name="Trazado 882625" d="M172.768,385.48a7.75,7.75,0,0,1-3.017-1.4c-.312-.2-.594-.372-.818-.5a11.953,11.953,0,0,0-1.932-.759,17.928,17.928,0,0,1-1.758-.651c-.985-.447-4.544-2.464-4.8-3.846a.679.679,0,0,1,.15-.638c.357-.355,1.165-.2,2.283.012.554.105,1.182.225,1.81.288.357.036.832.065,1.41.087a.2.2,0,0,1,.139.325l-.843.948a14.985,14.985,0,0,0,4.766,1.8,36.91,36.91,0,0,0,4.24.769.195.195,0,0,1,.164.253c-.878,2.763-1.286,3.208-1.569,3.279a.944.944,0,0,1-.228.026m-11.485-7.612a.612.612,0,0,0-.412.1.326.326,0,0,0-.04.291c.194,1.067,3.293,2.98,4.573,3.561a17.821,17.821,0,0,0,1.719.636,12.223,12.223,0,0,1,2,.788c.229.127.517.308.836.507.937.586,2.353,1.471,2.943,1.326.06-.022.4-.261,1.219-2.793a38.4,38.4,0,0,1-4.049-.749c-3.706-.872-5.037-1.955-5.092-2a.195.195,0,0,1-.021-.28l.714-.8c-.405-.02-.742-.043-1.023-.071-.645-.065-1.282-.186-1.845-.293a9.669,9.669,0,0,0-1.522-.217" transform="translate(-97.786 -230.085)" fill="#263238"/>
            <path id="Trazado_882626" data-name="Trazado 882626" d="M222.321,240.826l-1.438,5.65a92.944,92.944,0,0,0-13.944,1.743c-7.408,1.525-14.27,3.6-14.488,4.9s8.279,16.885,14.924,28.869c1.437,2.591,4.576,9.151,4.576,9.151a32.56,32.56,0,0,1-2.4,5.12,15.568,15.568,0,0,1-3.486,3.813c-.436.218-1.743.763-1.307,1.307s4.9,0,5.229,0a48.305,48.305,0,0,0,4.793-3.922c.98-.871,4.793-3.7,4.684-4.793s-3.486-3.486-3.7-4.249-4.576-10.24-4.793-11.112-5.991-17.974-5.991-17.974,23.639,1.307,28.759.872,5.882-2.4,6.209-4.14-1.961-15.9-1.961-15.9l-15.251-.109Z" transform="translate(-117.302 -146.318)" fill="#fff"/>
            <path id="Trazado_882627" data-name="Trazado 882627" d="M205.922,301.512c-.954,0-1.449-.1-1.618-.314a.537.537,0,0,1-.117-.467c.1-.438.717-.766,1.342-1.066l.147-.071a15.423,15.423,0,0,0,3.409-3.744,31.755,31.755,0,0,0,2.349-5c-.352-.735-3.2-6.657-4.534-9.066-13.631-24.581-15.058-28.321-14.946-28.994.261-1.565,8.051-3.7,14.642-5.061a94.608,94.608,0,0,1,13.83-1.741l1.4-5.509a.222.222,0,0,1,.017-.044l.414-.777a.2.2,0,0,1,.172-.1h0l15.251.109a.2.2,0,0,1,.191.164c.094.58,2.289,14.216,1.96,15.972-.346,1.846-1.153,3.853-6.385,4.3-4.768.407-25.782-.708-28.5-.855.767,2.274,5.7,16.9,5.9,17.717.114.456,1.472,3.512,2.672,6.208,1.082,2.433,2.016,4.535,2.119,4.9a7.629,7.629,0,0,0,1.465,1.565c1.07.995,2.176,2.023,2.245,2.718.091.906-1.8,2.53-3.9,4.255-.355.291-.654.535-.844.7-1.668,1.483-4.527,3.971-4.923,3.971-.059,0-.254.019-.537.045-1.413.13-2.466.2-3.227.2M222.2,240.593l-1.432,5.627a.2.2,0,0,1-.182.147,93.568,93.568,0,0,0-13.911,1.739c-8,1.646-14.159,3.686-14.336,4.743-.109.655,2.388,6.173,14.9,28.741,1.423,2.567,4.549,9.1,4.581,9.161a.2.2,0,0,1,.007.152,32.269,32.269,0,0,1-2.416,5.159,15.513,15.513,0,0,1-3.563,3.881l-.153.074c-.319.153-1.064.51-1.13.8a.148.148,0,0,0,.041.136c.135.165,1.027.294,4.5-.027.34-.031.506-.046.573-.046a56.474,56.474,0,0,0,4.663-3.872c.193-.171.5-.419.856-.714,1.247-1.02,3.841-3.142,3.764-3.914-.055-.548-1.2-1.614-2.123-2.471s-1.471-1.381-1.574-1.743c-.1-.336-1.115-2.629-2.1-4.846-1.264-2.844-2.572-5.784-2.694-6.272-.213-.854-5.93-17.788-5.987-17.959a.2.2,0,0,1,.029-.181.18.18,0,0,1,.166-.077c.236.013,23.683,1.3,28.732.872,4.958-.422,5.714-2.276,6.034-3.981.3-1.591-1.683-14.094-1.936-15.675l-14.968-.107Zm-1.621,5.579h0Z" transform="translate(-116.999 -146.013)" fill="#263238"/>
            <path id="Trazado_882628" data-name="Trazado 882628" d="M216.072,285.921a.2.2,0,0,1-.075-.015l-5.229-2.179a.2.2,0,1,1,.15-.361l5.229,2.179a.2.2,0,0,1-.075.376" transform="translate(-128.397 -172.712)" fill="#263238"/>
            <path id="Trazado_882629" data-name="Trazado 882629" d="M238.552,371.365c-.053-.535-.895-1.384-1.763-2.2-.349.444-.752.941-1.178,1.439-1.307,1.525-6.863,6.972-6.863,6.972l-1.775-.484a10.265,10.265,0,0,1-1.82,1.683c-.436.218-1.743.763-1.307,1.307s4.9,0,5.229,0a48.3,48.3,0,0,0,4.793-3.921c.98-.872,4.793-3.7,4.684-4.793" transform="translate(-136.387 -225.017)" fill="#92e3a9"/>
            <path id="Trazado_882630" data-name="Trazado 882630" d="M225.006,380.211c-.954,0-1.449-.1-1.618-.314a.537.537,0,0,1-.117-.467c.1-.437.717-.766,1.342-1.066l.147-.071a10.179,10.179,0,0,0,1.762-1.639.2.2,0,0,1,.2-.057l1.667.455c.687-.674,5.57-5.479,6.771-6.881.375-.437.77-.919,1.174-1.433a.2.2,0,0,1,.287-.021c1.084,1.021,1.767,1.765,1.823,2.324.091.906-1.8,2.529-3.9,4.255-.355.291-.654.535-.844.7-1.668,1.483-4.527,3.971-4.923,3.971-.059,0-.254.019-.537.045-1.413.13-2.466.2-3.227.2M226.73,377a10,10,0,0,1-1.8,1.637l-.153.075c-.319.152-1.064.51-1.13.8a.148.148,0,0,0,.041.136c.135.165,1.027.294,4.5-.027.34-.031.506-.046.573-.046a56.569,56.569,0,0,0,4.663-3.872c.193-.172.5-.419.856-.714,1.247-1.02,3.841-3.142,3.764-3.914-.048-.479-.978-1.392-1.547-1.932-.361.455-.714.884-1.051,1.277-1.3,1.514-6.648,6.762-6.875,6.985a.2.2,0,0,1-.188.049Z" transform="translate(-136.082 -224.712)" fill="#263238"/>
            <path id="Trazado_882631" data-name="Trazado 882631" d="M235.445,240.049l-.414.777-1.438,5.65a92.936,92.936,0,0,0-13.944,1.743c-2.221.458-4.392.964-6.351,1.484l5.059,9.664c3.872.208,23.482,1.228,28.09.835,5.12-.436,5.882-2.4,6.209-4.14s-1.961-15.9-1.961-15.9Z" transform="translate(-130.012 -146.318)" fill="#13de61"/>
            <path id="Trazado_882632" data-name="Trazado 882632" d="M242.948,260.181c-7.237,0-21.637-.749-24.906-.924a.2.2,0,0,1-.163-.1l-5.059-9.664a.2.2,0,0,1,.123-.279c1.939-.515,4.139-1.029,6.361-1.486a94.608,94.608,0,0,1,13.83-1.741l1.4-5.509a.222.222,0,0,1,.017-.044l.414-.777a.2.2,0,0,1,.172-.1h0l15.251.109a.2.2,0,0,1,.191.164c.094.58,2.289,14.216,1.96,15.972-.346,1.846-1.153,3.853-6.385,4.3-.732.063-1.844.089-3.211.089m-24.774-1.308c4.131.221,23.411,1.216,27.952.83,4.958-.422,5.714-2.276,6.034-3.981.3-1.591-1.683-14.094-1.936-15.675l-14.968-.107-.348.652-1.432,5.627a.2.2,0,0,1-.182.147,93.567,93.567,0,0,0-13.911,1.739c-2.126.438-4.23.927-6.1,1.419Zm15.114-12.7h0Z" transform="translate(-129.707 -146.013)" fill="#263238"/>
            <path id="Trazado_882633" data-name="Trazado 882633" d="M279.537,261.826a.194.194,0,0,1-.126-.046c-3.4-2.871-11.045-3.976-11.122-3.987a.2.2,0,0,1-.166-.221.2.2,0,0,1,.22-.166c.318.045,7.83,1.131,11.319,4.075a.2.2,0,0,1-.126.344" transform="translate(-163.429 -156.897)" fill="#263238"/>
            <path id="Trazado_882634" data-name="Trazado 882634" d="M281.719,258.42a.2.2,0,0,1-.114-.036c-1.468-1.048-6.29-1.7-6.339-1.709a.2.2,0,0,1,.052-.387c.2.027,4.968.673,6.515,1.777a.2.2,0,0,1-.114.354" transform="translate(-167.68 -156.215)" fill="#263238"/>
            <path id="Trazado_882635" data-name="Trazado 882635" d="M202.338,211.318a5.185,5.185,0,0,0-2.516.37c-.815.518-4.736,3.182-5.772,4.07a10.232,10.232,0,0,0-2.073,2.664c-.074.222.444.3.667.222s1.184-.814.888-.444.225.46.225.46,5.473-3.2,5.917-3.125a3.177,3.177,0,0,0,1.925-.666,23.327,23.327,0,0,1,2.146-1.258l17.465,3.4,2.664-2.442-.592-5.92-3.922,3.256Z" transform="translate(-117.012 -127.181)" fill="#fff"/>
            <path id="Trazado_882636" data-name="Trazado 882636" d="M192.125,218.564a.821.821,0,0,1-.557-.176.314.314,0,0,1-.08-.33,10.228,10.228,0,0,1,2.13-2.751c1.042-.893,4.962-3.558,5.795-4.087a5.252,5.252,0,0,1,2.633-.4l16.942.589,3.865-3.209a.2.2,0,0,1,.319.131l.592,5.92a.194.194,0,0,1-.062.163l-2.664,2.442a.2.2,0,0,1-.169.048l-17.4-3.391a22.007,22.007,0,0,0-2.059,1.21,3.308,3.308,0,0,1-2.073.7,52.024,52.024,0,0,0-5.787,3.1.193.193,0,0,1-.132.024.6.6,0,0,1-.454-.314c0-.011-.008-.023-.011-.035l-.033.021a3.09,3.09,0,0,1-.52.3.924.924,0,0,1-.276.038m-.246-.432a.729.729,0,0,0,.4.024,4.034,4.034,0,0,0,.43-.261c.447-.292.581-.38.718-.229s0,.3-.046.353a.2.2,0,0,0-.048.085.309.309,0,0,0,.092.044c1.672-.976,5.392-3.109,5.952-3.109l.027,0a3.048,3.048,0,0,0,1.775-.629,23.21,23.21,0,0,1,2.172-1.275.2.2,0,0,1,.128-.019l17.369,3.385,2.52-2.309-.546-5.458-3.64,3.021a.228.228,0,0,1-.132.045l-17.021-.592h-.01a5.029,5.029,0,0,0-2.395.34c-.827.526-4.721,3.171-5.75,4.053a10.511,10.511,0,0,0-1.993,2.529" transform="translate(-116.707 -126.877)" fill="#263238"/>
            <path id="Trazado_882637" data-name="Trazado 882637" d="M272.1,165.464a105.655,105.655,0,0,0-4.877,11.666c-1.626,5.068-.765,6.216-.382,6.5s1.243.956,1.243.956-1.434,9.754-.765,10.519,6.215,1.052,10.71,1.052,5.546-1.817,5.546-2.773-2.008-16.352-3.538-21.324-5.642-8.224-7.937-6.6" transform="translate(-162.298 -100.598)" fill="#fff"/>
            <path id="Trazado_882638" data-name="Trazado 882638" d="M277.712,196.048c-1.65,0-9.926-.054-10.857-1.119-.679-.776.428-8.687.7-10.563-.23-.178-.844-.654-1.15-.885-.677-.507-1.172-2.085.314-6.718a106.6,106.6,0,0,1,4.887-11.693.2.2,0,0,1,.062-.073,2.8,2.8,0,0,1,2.614-.257c2.29.779,4.6,3.64,5.622,6.957,1.5,4.89,3.547,20.23,3.547,21.382,0,1.1-1.209,2.968-5.741,2.968m-5.776-30.759a105.392,105.392,0,0,0-4.843,11.594c-1.59,4.955-.747,6.064-.452,6.287.384.288,1.246.959,1.246.959a.2.2,0,0,1,.073.182c-.7,4.751-1.193,9.926-.811,10.362.5.57,4.941.985,10.563.985,4.224,0,5.351-1.62,5.351-2.578,0-.827-1.963-16.178-3.529-21.267-.986-3.2-3.2-5.96-5.376-6.7a2.445,2.445,0,0,0-2.222.178" transform="translate(-161.984 -100.292)" fill="#263238"/>
            <path id="Trazado_882639" data-name="Trazado 882639" d="M228.72,180.7l-2.043,14.367s-21.133-1.148-21.516-1.148a49.142,49.142,0,0,0-6.311,2.869c-1.721.956-2.869,1.626-3.155,2.3l-.287.669a6.8,6.8,0,0,0,2.582,0,11,11,0,0,0,2.2-.765,11.212,11.212,0,0,0,3.347-.861c.861-.574,2.773-2.2,2.773-2.2s16.639,4.494,18.36,4.781,5.833,2.008,6.789,1.052c.8-.8,3.183-14.715,3.96-19.355a4.1,4.1,0,0,0-.811-3.226,3.733,3.733,0,0,0-2.288-1.517c-2.812-.373-3.6,3.036-3.6,3.036" transform="translate(-119.107 -108.276)" fill="#fff"/>
            <path id="Trazado_882640" data-name="Trazado 882640" d="M230.156,201.936a16.014,16.014,0,0,1-3.839-.82,20.227,20.227,0,0,0-1.984-.518c-1.661-.277-16.771-4.351-18.28-4.759-.373.315-1.942,1.633-2.713,2.147a10.866,10.866,0,0,1-3.4.888,11.213,11.213,0,0,1-2.212.765,6.94,6.94,0,0,1-2.667,0,.2.2,0,0,1-.139-.268l.287-.669c.309-.721,1.431-1.383,3.24-2.389a47.8,47.8,0,0,1,6.406-2.893c.369,0,19.159,1.02,21.347,1.138l2.018-14.19c0-.005,0-.011,0-.016.009-.036.866-3.581,3.815-3.186a3.958,3.958,0,0,1,2.416,1.59,4.306,4.306,0,0,1,.85,3.379c-1.16,6.929-3.225,18.671-4.014,19.461a1.576,1.576,0,0,1-1.136.34M206,195.429a.193.193,0,0,1,.051.007c.166.045,16.648,4.5,18.341,4.777a20.359,20.359,0,0,1,2.03.528c1.687.494,4,1.17,4.589.578.5-.5,2-7.881,3.905-19.249a3.914,3.914,0,0,0-.772-3.073,3.582,3.582,0,0,0-2.161-1.444c-2.568-.339-3.33,2.664-3.381,2.879l-2.042,14.358a.19.19,0,0,1-.2.168c-7.306-.4-21.2-1.147-21.505-1.147a52.7,52.7,0,0,0-6.216,2.845c-1.687.937-2.812,1.6-3.071,2.2l-.189.442a6.423,6.423,0,0,0,2.261-.04,10.932,10.932,0,0,0,2.156-.749.185.185,0,0,1,.065-.02,11.115,11.115,0,0,0,3.261-.829c.841-.561,2.736-2.17,2.755-2.186a.2.2,0,0,1,.127-.046" transform="translate(-118.802 -107.97)" fill="#263238"/>
            <path id="Trazado_882641" data-name="Trazado 882641" d="M201.715,230.949a.2.2,0,0,1-.194-.184,1.164,1.164,0,0,1,.472-1.02c.407-.233,2.462-1.175,2.659-1.241a.2.2,0,0,1,.124.371c-.15.05-2.176.973-2.589,1.209-.3.169-.276.654-.276.66a.2.2,0,0,1-.185.2h-.011" transform="translate(-122.832 -139.275)" fill="#263238"/>
            <path id="Trazado_882642" data-name="Trazado 882642" d="M198.792,230.374a.188.188,0,0,1-.058-.009.2.2,0,0,1-.128-.244,3.252,3.252,0,0,1,.594-1.206c.236-.177,2.451-1.444,2.7-1.588a.2.2,0,1,1,.194.339c-.98.56-2.5,1.438-2.661,1.561a3.274,3.274,0,0,0-.456,1.01.2.2,0,0,1-.187.137" transform="translate(-121.051 -138.548)" fill="#263238"/>
            <path id="Trazado_882643" data-name="Trazado 882643" d="M239.568,115.267s-7.286,4.007-7.165,6.315,9.958,3.765,10.808,3.765.972-2.186,2.064-1.579a2.768,2.768,0,0,1,1.214,2.672,13.339,13.339,0,0,1-.364,1.336s2.429,7.043,4.858,8.258,5.649,2.22,7.835-.574,1.626-6.12.3-7.563c-1.836-2-6.072-1.943-7.165-4.493s-.729-6.436-3.157-8.865-9.23.729-9.23.729" transform="translate(-141.657 -69.255)" fill="#263238"/>
            <path id="Trazado_882644" data-name="Trazado 882644" d="M254.927,137.134a9.956,9.956,0,0,1-4.335-1.236c-2.472-1.236-4.855-8.078-4.955-8.369a.2.2,0,0,1,0-.125,13.111,13.111,0,0,0,.358-1.313,2.591,2.591,0,0,0-1.118-2.462c-.4-.224-.6.032-.964.672-.257.458-.522.931-1.006.931-.556,0-10.868-1.376-11-3.95-.127-2.4,6.964-6.33,7.265-6.5l.012-.006c.283-.131,6.953-3.187,9.45-.69,1.6,1.6,2.01,3.759,2.4,5.845a15.155,15.155,0,0,0,.8,3.082c.581,1.355,2.107,1.936,3.722,2.55a8.759,8.759,0,0,1,3.407,1.888,6.283,6.283,0,0,1-.291,7.815,4.533,4.533,0,0,1-3.741,1.864m-8.9-9.671c.245.692,2.526,6.979,4.739,8.085,3.524,1.762,5.937,1.6,7.594-.519a5.882,5.882,0,0,0,.311-7.31,8.5,8.5,0,0,0-3.258-1.788c-1.62-.616-3.3-1.253-3.942-2.761a15.426,15.426,0,0,1-.82-3.163c-.383-2.027-.778-4.124-2.3-5.641-2.276-2.276-8.773.66-9,.765-2,1.1-7.152,4.34-7.058,6.13.107,2.034,9.4,3.58,10.613,3.58.255,0,.463-.372.665-.731.3-.531.7-1.26,1.494-.823a2.975,2.975,0,0,1,1.311,2.88,13.1,13.1,0,0,1-.349,1.3" transform="translate(-141.352 -68.946)" fill="#263238"/>
            <path id="Trazado_882645" data-name="Trazado 882645" d="M137.395,206.682h-8.7a1.522,1.522,0,0,1-1.333-2.257l9.559-17.325a.543.543,0,1,1,.951.525l-9.559,17.324a.436.436,0,0,0,.382.646h8.7a.543.543,0,0,1,0,1.086" transform="translate(-77.514 -113.873)" fill="#263238"/>
            <rect id="Rectángulo_406442" data-name="Rectángulo 406442" width="1.942" height="32.114" transform="matrix(0.982, -0.19, 0.19, 0.982, 56.845, 57.782)" fill="#fff"/>
            <path id="Trazado_882646" data-name="Trazado 882646" d="M151.384,178.822a.2.2,0,0,1-.191-.158l-6.106-31.528a.2.2,0,0,1,.03-.146.193.193,0,0,1,.125-.082l1.907-.369a.2.2,0,0,1,.229.155l6.106,31.528a.2.2,0,0,1-.03.146.2.2,0,0,1-.125.082l-1.907.369a.2.2,0,0,1-.037,0m-5.877-31.568,6.032,31.144,1.524-.295-6.032-31.145Z" transform="translate(-88.433 -89.317)" fill="#263238"/>
            <path id="Trazado_882647" data-name="Trazado 882647" d="M198.2,235.15l-15.625-.444v1.04H198.2Z" transform="translate(-111.284 -143.061)" fill="#fff"/>
            <path id="Trazado_882648" data-name="Trazado 882648" d="M197.894,235.636H182.268a.2.2,0,0,1-.2-.2V234.4a.2.2,0,0,1,.059-.14.2.2,0,0,1,.142-.055l15.625.445a.2.2,0,0,1,.19.2v.6a.2.2,0,0,1-.2.2m-15.43-.39H197.7v-.21l-15.235-.433Z" transform="translate(-110.979 -142.755)" fill="#263238"/>
            <path id="Trazado_882649" data-name="Trazado 882649" d="M102.634,306.044h-2.545l-.545-59.223h3.636Z" transform="translate(-60.675 -150.445)" fill="#fff"/>
            <path id="Trazado_882650" data-name="Trazado 882650" d="M102.329,305.935H99.784a.2.2,0,0,1-.2-.193l-.545-59.223a.2.2,0,0,1,.2-.2h3.636a.2.2,0,0,1,.2.2l-.545,59.223a.2.2,0,0,1-.2.193m-2.351-.391h2.158l.542-58.833H99.435Z" transform="translate(-60.37 -150.141)" fill="#263238"/>
            <path id="Trazado_882651" data-name="Trazado 882651" d="M222.069,306.044h-2.545l-.546-59.223h3.636Z" transform="translate(-133.474 -150.445)" fill="#fff"/>
            <path id="Trazado_882652" data-name="Trazado 882652" d="M221.764,305.935h-2.545a.2.2,0,0,1-.2-.193l-.546-59.223a.2.2,0,0,1,.2-.2h3.636a.2.2,0,0,1,.2.2l-.546,59.223a.2.2,0,0,1-.2.193m-2.352-.391h2.159l.542-58.833H218.87Z" transform="translate(-133.169 -150.141)" fill="#263238"/>
            <rect id="Rectángulo_406443" data-name="Rectángulo 406443" width="57.904" height="3.905" transform="translate(35.269 92.778)" fill="#263238"/>
            <path id="Trazado_882653" data-name="Trazado 882653" d="M147.925,241.4h-57.9a.2.2,0,0,1-.2-.2v-3.9a.2.2,0,0,1,.2-.2h57.9a.2.2,0,0,1,.2.2v3.9a.2.2,0,0,1-.2.2m-57.709-.39H147.73V237.5H90.216Z" transform="translate(-54.752 -144.524)" fill="#263238"/>
          </g>
        </g>
      </g>
    </g>
  </g>
</svg>
