<svg xmlns="http://www.w3.org/2000/svg" xmlns:xlink="http://www.w3.org/1999/xlink" width="491" height="284" viewBox="0 0 491 284">
  <defs>
    <clipPath id="clip-path">
      <rect id="Rectángulo_405886" data-name="Rectángulo 405886" width="347.444" height="284" fill="none"/>
    </clipPath>
  </defs>
  <g id="Grupo_1102843" data-name="Grupo 1102843" transform="translate(-915.523 -2443)">
    <rect id="Rectángulo_405637" data-name="Rectángulo 405637" width="491" height="236" rx="9" transform="translate(915.523 2491)" fill="#cff8de"/>
    <g id="Grupo_1102842" data-name="Grupo 1102842" transform="translate(987.302 2443)">
      <g id="Grupo_1102837" data-name="Grupo 1102837">
        <g id="Grupo_1102836" data-name="Grupo 1102836" clip-path="url(#clip-path)">
          <path id="Trazado_881951" data-name="Trazado 881951" d="M377.52,74.522A74.522,74.522,0,1,1,303,0,74.523,74.523,0,0,1,377.52,74.522" transform="translate(-30.076 0)" fill="#e5f1ff"/>
          <path id="Trazado_881952" data-name="Trazado 881952" d="M130.126,260.133a43.557,43.557,0,1,1-43.557-43.557,43.557,43.557,0,0,1,43.557,43.557" transform="translate(-5.662 -28.51)" fill="#e5f1ff"/>
          <path id="Trazado_881953" data-name="Trazado 881953" d="M86.466,28.61a39.82,39.82,0,1,0,39.82,39.82,39.821,39.821,0,0,0-39.82-39.82m0,65.279A25.459,25.459,0,1,1,111.925,68.43,25.458,25.458,0,0,1,86.466,93.889" transform="translate(-6.14 -3.766)" fill="#a9ccea"/>
          <path id="Trazado_881954" data-name="Trazado 881954" d="M246.849,319.515a4.569,4.569,0,0,1-4.569,4.569H126.736a4.569,4.569,0,1,1,0-9.139h41.016l5.658-10.445h22.194l5.657,10.445H242.28a4.569,4.569,0,0,1,4.569,4.569" transform="translate(-16.082 -40.084)" fill="#0f3157"/>
          <rect id="Rectángulo_405849" data-name="Rectángulo 405849" width="18.931" height="5.549" transform="translate(158.007 254.951)" fill="#ff4d6b"/>
          <rect id="Rectángulo_405850" data-name="Rectángulo 405850" width="18.931" height="5.549" transform="translate(158.007 245.812)" fill="#ff4d6b"/>
          <path id="Trazado_881955" data-name="Trazado 881955" d="M360.342,252.773a29.584,29.584,0,1,1,16.337-15.367" transform="translate(-42.142 -25.738)" fill="none" stroke="#ff4d6b" stroke-linecap="round" stroke-linejoin="round" stroke-width="1.128" stroke-dasharray="0 5.638"/>
          <path id="Trazado_881956" data-name="Trazado 881956" d="M256.627,63.861H251.9a38.936,38.936,0,0,0-4.845-11.7l3.341-3.341a3.689,3.689,0,0,0,0-5.217l-7.424-7.424a3.688,3.688,0,0,0-5.216,0l-3.341,3.341a38.922,38.922,0,0,0-11.7-4.845V29.952a3.69,3.69,0,0,0-3.69-3.69h-10.5a3.69,3.69,0,0,0-3.69,3.69v4.726a38.921,38.921,0,0,0-11.7,4.845L189.8,36.18a3.689,3.689,0,0,0-5.217,0L177.159,43.6a3.689,3.689,0,0,0,0,5.217l3.341,3.341a38.911,38.911,0,0,0-4.844,11.7H170.93a3.689,3.689,0,0,0-3.689,3.689v10.5a3.689,3.689,0,0,0,3.689,3.689h4.727a38.911,38.911,0,0,0,4.844,11.7l-3.341,3.341a3.689,3.689,0,0,0,0,5.217l7.424,7.424a3.691,3.691,0,0,0,5.217,0l3.341-3.341a38.921,38.921,0,0,0,11.7,4.845v4.726a3.689,3.689,0,0,0,3.69,3.689h10.5a3.69,3.69,0,0,0,3.69-3.689v-4.726a38.921,38.921,0,0,0,11.7-4.845l3.341,3.341a3.69,3.69,0,0,0,5.216,0l7.424-7.424a3.689,3.689,0,0,0,0-5.217l-3.341-3.341a38.935,38.935,0,0,0,4.845-11.7h4.727a3.689,3.689,0,0,0,3.689-3.689V67.55a3.689,3.689,0,0,0-3.689-3.689M213.778,91.528A18.728,18.728,0,1,1,232.506,72.8a18.729,18.729,0,0,1-18.728,18.728" transform="translate(-22.015 -3.457)" fill="#289df2"/>
          <path id="Rectángulo_405851" data-name="Rectángulo 405851" d="M11.468,0h257.1a11.468,11.468,0,0,1,11.468,11.468v152.82a11.467,11.467,0,0,1-11.467,11.467H11.467A11.467,11.467,0,0,1,0,164.288V11.468A11.468,11.468,0,0,1,11.468,0Z" transform="translate(28.409 67.563)" fill="#0f3775"/>
          <rect id="Rectángulo_405852" data-name="Rectángulo 405852" width="28.886" height="6.365" transform="translate(48.829 89.306)" fill="#284d89"/>
          <rect id="Rectángulo_405853" data-name="Rectángulo 405853" width="28.886" height="6.365" transform="translate(83.589 89.306)" fill="#284d89"/>
          <rect id="Rectángulo_405854" data-name="Rectángulo 405854" width="28.886" height="6.365" transform="translate(171.716 89.306)" fill="#284d89"/>
          <rect id="Rectángulo_405855" data-name="Rectángulo 405855" width="28.886" height="6.365" transform="translate(259.842 89.306)" fill="#284d89"/>
          <rect id="Rectángulo_405856" data-name="Rectángulo 405856" width="51.652" height="6.365" transform="translate(116.392 89.306)" fill="#ff4d6b"/>
          <rect id="Rectángulo_405857" data-name="Rectángulo 405857" width="51.652" height="6.365" transform="translate(204.029 89.306)" fill="#2889db"/>
          <rect id="Rectángulo_405858" data-name="Rectángulo 405858" width="5.059" height="3.101" transform="translate(48.992 84.248)" fill="#2889db"/>
          <rect id="Rectángulo_405859" data-name="Rectángulo 405859" width="52.794" height="3.101" transform="translate(48.992 100.893)" fill="#fff"/>
          <rect id="Rectángulo_405860" data-name="Rectángulo 405860" width="15.667" height="3.101" transform="translate(48.992 106.36)" fill="#fff"/>
          <path id="Trazado_881957" data-name="Trazado 881957" d="M112.363,239.072H63.4a6.609,6.609,0,0,1-6.609-6.609V143.847a6.608,6.608,0,0,1,6.609-6.609h48.959a6.608,6.608,0,0,1,6.609,6.609v88.616a6.609,6.609,0,0,1-6.609,6.609" transform="translate(-7.476 -18.066)" fill="#284d89"/>
          <rect id="Rectángulo_405861" data-name="Rectángulo 405861" width="20.808" height="3.183" transform="translate(57.152 134.104)" fill="#fff"/>
          <rect id="Rectángulo_405862" data-name="Rectángulo 405862" width="20.808" height="3.183" transform="translate(57.152 141.203)" fill="#fff"/>
          <rect id="Rectángulo_405863" data-name="Rectángulo 405863" width="20.808" height="3.183" transform="translate(57.152 148.302)" fill="#fff"/>
          <rect id="Rectángulo_405864" data-name="Rectángulo 405864" width="12.729" height="3.183" transform="translate(57.152 177.922)" fill="#fff"/>
          <rect id="Rectángulo_405865" data-name="Rectángulo 405865" width="12.729" height="3.183" transform="translate(57.152 185.021)" fill="#fff"/>
          <rect id="Rectángulo_405866" data-name="Rectángulo 405866" width="12.729" height="3.183" transform="translate(79.02 185.021)" fill="#fff"/>
          <rect id="Rectángulo_405867" data-name="Rectángulo 405867" width="7.997" height="3.183" transform="translate(57.152 169.844)" fill="#fff"/>
          <rect id="Rectángulo_405868" data-name="Rectángulo 405868" width="4.243" height="3.183" transform="translate(91.424 169.844)" fill="#fff"/>
          <rect id="Rectángulo_405869" data-name="Rectángulo 405869" width="21.868" height="3.183" transform="translate(67.923 169.844)" fill="#ff4d6b"/>
          <rect id="Rectángulo_405870" data-name="Rectángulo 405870" width="3.06" height="3.183" transform="translate(57.151 157.849)" fill="#2889db"/>
          <rect id="Rectángulo_405871" data-name="Rectángulo 405871" width="3.06" height="3.183" transform="translate(57.151 163.479)" fill="#ff4d6b"/>
          <path id="Trazado_881958" data-name="Trazado 881958" d="M85.188,216.868H84.045l2.734-4.08h1.143Z" transform="translate(-11.064 -28.011)" fill="#fff"/>
          <rect id="Rectángulo_405872" data-name="Rectángulo 405872" width="47.246" height="2.693" transform="translate(57.151 194.324)" fill="#282e5c"/>
          <rect id="Rectángulo_405873" data-name="Rectángulo 405873" width="47.246" height="2.693" transform="translate(57.151 200.444)" fill="#282e5c"/>
          <path id="Trazado_881959" data-name="Trazado 881959" d="M361.342,178.6H231.436a5.875,5.875,0,0,1-5.874-5.875v-35.25a5.875,5.875,0,0,1,5.874-5.875H361.342a5.875,5.875,0,0,1,5.875,5.875v35.25a5.875,5.875,0,0,1-5.875,5.875" transform="translate(-29.693 -17.323)" fill="#289df2"/>
          <path id="Trazado_881960" data-name="Trazado 881960" d="M274.049,164.426s7.18-17.625,27.743-13.382,31.007,27.417,57.446,8.487" transform="translate(-36.075 -19.796)" fill="none" stroke="#fff" stroke-miterlimit="10" stroke-width="1.128"/>
          <rect id="Rectángulo_405874" data-name="Rectángulo 405874" width="2.938" height="2.938" transform="translate(301.62 145.609)" fill="#289df2"/>
          <rect id="Rectángulo_405875" data-name="Rectángulo 405875" width="2.938" height="2.938" transform="translate(301.62 145.609)" fill="none" stroke="#fff" stroke-miterlimit="10" stroke-width="1.128"/>
          <line id="Línea_3819" data-name="Línea 3819" x2="37.209" transform="translate(241.564 130.432)" fill="#289df2"/>
          <line id="Línea_3820" data-name="Línea 3820" x2="37.209" transform="translate(241.564 130.432)" fill="none" stroke="#fff" stroke-miterlimit="10" stroke-width="0.564"/>
          <line id="Línea_3821" data-name="Línea 3821" x2="37.209" transform="translate(284.485 147.894)" fill="#289df2"/>
          <line id="Línea_3822" data-name="Línea 3822" x2="37.209" transform="translate(284.485 147.894)" fill="none" stroke="#fff" stroke-miterlimit="10" stroke-width="0.564"/>
          <rect id="Rectángulo_405876" data-name="Rectángulo 405876" width="2.938" height="2.938" transform="translate(257.231 128.963)" fill="#289df2"/>
          <rect id="Rectángulo_405877" data-name="Rectángulo 405877" width="2.938" height="2.938" transform="translate(257.231 128.963)" fill="none" stroke="#fff" stroke-miterlimit="10" stroke-width="1.128"/>
          <path id="Trazado_881961" data-name="Trazado 881961" d="M249.229,191.963H221.16a4.244,4.244,0,0,1-4.244-4.243V145.615a4.243,4.243,0,0,1,4.244-4.243h28.07a4.242,4.242,0,0,1,4.243,4.243V187.72a4.243,4.243,0,0,1-4.243,4.243" transform="translate(-28.554 -18.61)" fill="#284d89"/>
          <rect id="Rectángulo_405878" data-name="Rectángulo 405878" width="20.808" height="2.869" transform="translate(194.074 129.943)" fill="#fff"/>
          <rect id="Rectángulo_405879" data-name="Rectángulo 405879" width="20.808" height="2.869" transform="translate(194.074 136.341)" fill="#fff"/>
          <rect id="Rectángulo_405880" data-name="Rectángulo 405880" width="7.833" height="2.869" transform="translate(194.074 142.741)" fill="#fff"/>
          <rect id="Rectángulo_405881" data-name="Rectángulo 405881" width="13.546" height="2.869" transform="translate(194.074 149.362)" fill="#289df2"/>
          <rect id="Rectángulo_405882" data-name="Rectángulo 405882" width="9.14" height="2.869" transform="translate(194.074 155.762)" fill="#289df2"/>
          <rect id="Rectángulo_405883" data-name="Rectángulo 405883" width="9.14" height="2.869" transform="translate(194.074 162.16)" fill="#fff"/>
          <line id="Línea_3823" data-name="Línea 3823" x2="14.687" transform="translate(314.676 107.911)" fill="none" stroke="#284d89" stroke-linecap="round" stroke-linejoin="round" stroke-width="2.255"/>
          <path id="Trazado_881962" data-name="Trazado 881962" d="M300.464,219.375l-5.07,3.968-7.273,1.323s-6.833-.441-7.494-.441-5.29-3.747-5.29-3.747l-8.6-3.085-5.951,2.2-7.053-1.543-10.579-.661-10.138,3.967-8.375,1.323-7.494,2.424-8.375.662-9.036-7.053-8.375-1.543-8.6,4.849-6.833,2.2L168.181,224l-9.776,5.951h-5.829l-9.845,3.453" transform="translate(-18.789 -28.588)" fill="none" stroke="#ff5c66" stroke-miterlimit="10" stroke-width="1.015"/>
          <line id="Línea_3824" data-name="Línea 3824" x2="157.806" transform="translate(124.088 204.966)" fill="none" stroke="#f7f7f7" stroke-miterlimit="10" stroke-width="0.254"/>
          <rect id="Rectángulo_405884" data-name="Rectángulo 405884" width="1.616" height="3.968" transform="translate(122.546 202.981)" fill="#f7f7f7"/>
          <rect id="Rectángulo_405885" data-name="Rectángulo 405885" width="1.616" height="3.968" transform="translate(280.94 202.981)" fill="#f7f7f7"/>
          <line id="Línea_3825" data-name="Línea 3825" y1="13.297" transform="translate(281.748 191.668)" fill="none" stroke="#f7f7f7" stroke-miterlimit="10" stroke-width="0.254"/>
          <path id="Trazado_881963" data-name="Trazado 881963" d="M325.1,219.773a1.249,1.249,0,1,1-1.249-1.249,1.249,1.249,0,0,1,1.249,1.249" transform="translate(-42.466 -28.766)" fill="#f7f7f7"/>
        </g>
      </g>
      <text id="beta_test" data-name="beta test" transform="translate(124.308 213.326)" fill="#f7f7f7" font-size="6" font-family="BebasNeueRegular, Bebas Neue"><tspan x="0" y="0" letter-spacing="0.06em">bet</tspan><tspan y="0" letter-spacing="0.059em">a</tspan><tspan y="0" letter-spacing="0.06em"> </tspan><tspan y="0" letter-spacing="0.053em">t</tspan><tspan y="0" letter-spacing="0.06em">es</tspan><tspan y="0">t</tspan></text>
      <g id="Grupo_1102839" data-name="Grupo 1102839">
        <g id="Grupo_1102838" data-name="Grupo 1102838" clip-path="url(#clip-path)">
          <rect id="Rectángulo_405887" data-name="Rectángulo 405887" width="98.152" height="1.764" transform="translate(160.528 210.696)" fill="#28385e"/>
          <rect id="Rectángulo_405888" data-name="Rectángulo 405888" width="60.243" height="1.764" transform="translate(160.528 210.696)" fill="#ff4d6b"/>
          <rect id="Rectángulo_405889" data-name="Rectángulo 405889" width="48.268" height="1.764" transform="translate(160.528 214.075)" fill="#28385e"/>
          <path id="Trazado_881964" data-name="Trazado 881964" d="M148.824,252.327h5.951l.771-1.653H143.535v2.755h4.187Z" transform="translate(-18.895 -32.998)" fill="#ff4d6b"/>
          <rect id="Rectángulo_405890" data-name="Rectángulo 405890" width="0.662" height="0.661" transform="translate(141.6 217.657)" fill="#f7f7f7"/>
          <rect id="Rectángulo_405891" data-name="Rectángulo 405891" width="0.661" height="0.661" transform="translate(145.707 217.657)" fill="#f7f7f7"/>
          <rect id="Rectángulo_405892" data-name="Rectángulo 405892" width="0.662" height="0.661" transform="translate(149.811 217.657)" fill="#f7f7f7"/>
        </g>
      </g>
      <text id="_500" data-name="500" transform="translate(274.032 185.654)" fill="#f7f7f7" font-size="6" font-family="BebasNeueRegular, Bebas Neue"><tspan x="0" y="0" letter-spacing="0.06em">50</tspan><tspan y="0">0</tspan></text>
      <g id="Grupo_1102841" data-name="Grupo 1102841">
        <g id="Grupo_1102840" data-name="Grupo 1102840" clip-path="url(#clip-path)">
          <path id="Trazado_881965" data-name="Trazado 881965" d="M305.437,247.926h-1.469l-2.351-5.289h1.469Z" transform="translate(-39.704 -31.94)" fill="#28385e"/>
          <path id="Trazado_881966" data-name="Trazado 881966" d="M309.836,247.926h-1.469l-2.351-5.289h1.469Z" transform="translate(-40.283 -31.94)" fill="#28385e"/>
          <path id="Trazado_881967" data-name="Trazado 881967" d="M314.235,247.926h-1.469l-2.351-5.289h1.469Z" transform="translate(-40.863 -31.94)" fill="#28385e"/>
          <path id="Trazado_881968" data-name="Trazado 881968" d="M318.635,247.926h-1.469l-2.351-5.289h1.469Z" transform="translate(-41.442 -31.94)" fill="#28385e"/>
          <path id="Trazado_881969" data-name="Trazado 881969" d="M322.95,247.926H321.48l-2.351-5.289H320.6Z" transform="translate(-42.01 -31.94)" fill="#28385e"/>
          <rect id="Rectángulo_405894" data-name="Rectángulo 405894" width="23.891" height="4.279" transform="translate(250.671 33.868)" fill="#a9ccea"/>
          <rect id="Rectángulo_405895" data-name="Rectángulo 405895" width="36.023" height="4.278" transform="translate(250.671 41.525)" fill="#a9ccea"/>
          <rect id="Rectángulo_405896" data-name="Rectángulo 405896" width="44.423" height="4.279" transform="translate(250.671 49.182)" fill="#a9ccea"/>
          <rect id="Rectángulo_405897" data-name="Rectángulo 405897" width="16.985" height="4.279" transform="translate(250.671 56.839)" fill="#a9ccea"/>
          <rect id="Rectángulo_405898" data-name="Rectángulo 405898" width="23.891" height="4.279" transform="translate(0 85.438)" fill="#2889db"/>
          <rect id="Rectángulo_405899" data-name="Rectángulo 405899" width="36.023" height="4.278" transform="translate(0 93.095)" fill="#a9ccea"/>
          <rect id="Rectángulo_405900" data-name="Rectángulo 405900" width="44.423" height="4.279" transform="translate(0 100.753)" fill="#a9ccea"/>
          <rect id="Rectángulo_405901" data-name="Rectángulo 405901" width="16.985" height="4.279" transform="translate(0 108.41)" fill="#a9ccea"/>
          <rect id="Rectángulo_405902" data-name="Rectángulo 405902" width="101.835" height="13.219" transform="translate(59.6 235.694)" fill="none" stroke="#289df2" stroke-miterlimit="10" stroke-width="1.128"/>
          <rect id="Rectángulo_405903" data-name="Rectángulo 405903" width="4.896" height="30.028" transform="translate(108.722 131.575)" fill="none" stroke="#289df2" stroke-miterlimit="10" stroke-width="1.128"/>
          <path id="Trazado_881970" data-name="Trazado 881970" d="M368.54,227.055a16.874,16.874,0,1,1-16.874-16.875,16.874,16.874,0,0,1,16.874,16.875" transform="translate(-44.071 -27.668)" fill="#ff4d6b"/>
          <path id="Trazado_881971" data-name="Trazado 881971" d="M351.363,227.412l-6.7,2.456,6.7,2.435v2.517l-9.581-3.643v-2.617l9.581-3.643Z" transform="translate(-44.992 -29.608)" fill="#f9fbfc"/>
          <path id="Trazado_881972" data-name="Trazado 881972" d="M355.336,224.917l9.581,3.643v2.616l-9.581,3.644V232.3l6.7-2.436-6.7-2.455Z" transform="translate(-46.776 -29.608)" fill="#f9fbfc"/>
          <circle id="Elipse_11561" data-name="Elipse 11561" cx="2.203" cy="2.203" r="2.203" transform="translate(331.323 210.97)" fill="none" stroke="#ff4d6b" stroke-miterlimit="10" stroke-width="1.128"/>
          <rect id="Rectángulo_405904" data-name="Rectángulo 405904" width="79.803" height="8.323" transform="translate(54.214 53.567)" fill="none" stroke="#289df2" stroke-miterlimit="10" stroke-width="1.128"/>
          <rect id="Rectángulo_405905" data-name="Rectángulo 405905" width="49.449" height="2.448" transform="translate(57.641 56.259)" fill="#289df2"/>
          <rect id="Rectángulo_405906" data-name="Rectángulo 405906" width="58.424" height="2.938" transform="translate(122.105 118.518)" fill="#284d89"/>
          <rect id="Rectángulo_405907" data-name="Rectángulo 405907" width="26.479" height="2.938" transform="translate(122.104 118.518)" fill="#2889db"/>
          <rect id="Rectángulo_405908" data-name="Rectángulo 405908" width="58.424" height="2.938" transform="translate(122.105 126.107)" fill="#284d89"/>
          <rect id="Rectángulo_405909" data-name="Rectángulo 405909" width="40.677" height="2.938" transform="translate(122.105 126.107)" fill="#ff4d6b"/>
          <rect id="Rectángulo_405910" data-name="Rectángulo 405910" width="58.424" height="2.938" transform="translate(122.105 133.696)" fill="#284d89"/>
          <rect id="Rectángulo_405911" data-name="Rectángulo 405911" width="11.913" height="2.938" transform="translate(122.105 133.696)" fill="#1ae5ff"/>
          <rect id="Rectángulo_405912" data-name="Rectángulo 405912" width="1.143" height="1.143" transform="translate(122.349 113.378)" fill="#284d89"/>
          <rect id="Rectángulo_405913" data-name="Rectángulo 405913" width="1.143" height="1.143" transform="translate(126.265 113.378)" fill="#284d89"/>
          <rect id="Rectángulo_405914" data-name="Rectángulo 405914" width="1.142" height="1.143" transform="translate(130.183 113.378)" fill="#284d89"/>
          <rect id="Rectángulo_405915" data-name="Rectángulo 405915" width="1.904" height="1.904" transform="translate(231.065 153.388)" fill="#fff"/>
          <rect id="Rectángulo_405916" data-name="Rectángulo 405916" width="1.904" height="1.904" transform="translate(237.592 153.388)" fill="#fff"/>
          <rect id="Rectángulo_405917" data-name="Rectángulo 405917" width="1.904" height="1.904" transform="translate(244.121 153.388)" fill="#fff"/>
          <rect id="Rectángulo_405918" data-name="Rectángulo 405918" width="3.57" height="3.57" transform="translate(258.547 77.73)" fill="#fff"/>
          <rect id="Rectángulo_405919" data-name="Rectángulo 405919" width="3.57" height="3.57" transform="translate(270.786 77.73)" fill="#fff"/>
          <rect id="Rectángulo_405920" data-name="Rectángulo 405920" width="3.57" height="3.57" transform="translate(283.027 77.73)" fill="#fff"/>
          <rect id="Rectángulo_405921" data-name="Rectángulo 405921" width="3.57" height="3.57" transform="translate(207.956 225.26)" fill="#fff"/>
          <rect id="Rectángulo_405922" data-name="Rectángulo 405922" width="3.57" height="3.57" transform="translate(220.196 225.26)" fill="#fff"/>
          <rect id="Rectángulo_405923" data-name="Rectángulo 405923" width="3.57" height="3.57" transform="translate(232.435 225.26)" fill="#fff"/>
          <rect id="Rectángulo_405924" data-name="Rectángulo 405924" width="1.903" height="1.904" transform="translate(58.186 126.407)" fill="#fff"/>
          <rect id="Rectángulo_405925" data-name="Rectángulo 405925" width="1.904" height="1.904" transform="translate(64.713 126.407)" fill="#fff"/>
          <rect id="Rectángulo_405926" data-name="Rectángulo 405926" width="1.904" height="1.904" transform="translate(71.241 126.407)" fill="#fff"/>
          <rect id="Rectángulo_405927" data-name="Rectángulo 405927" width="31.66" height="3.101" transform="translate(293.46 124.067)" fill="#fff"/>
          <rect id="Rectángulo_405928" data-name="Rectángulo 405928" width="9.396" height="3.101" transform="translate(293.46 129.534)" fill="#287dd1"/>
          <path id="Trazado_881973" data-name="Trazado 881973" d="M40.784,149.166H33.93v-6.854H27.565v6.854H20.711v6.364h6.854v6.855H33.93V155.53h6.854Z" transform="translate(-2.726 -18.734)" fill="#1ae5ff"/>
          <path id="Trazado_881974" data-name="Trazado 881974" d="M20.849,171.56H16.67V167.38H12.789v4.179H8.61v3.881h4.179v4.179H16.67v-4.179h4.179Z" transform="translate(-1.133 -22.034)" fill="#2889db"/>
          <path id="Trazado_881975" data-name="Trazado 881975" d="M152.815,167.991a10.719,10.719,0,1,0,10.719,10.719,10.72,10.72,0,0,0-10.719-10.719m0,16.305a5.586,5.586,0,1,1,5.586-5.586,5.586,5.586,0,0,1-5.586,5.586" transform="translate(-18.705 -22.114)" fill="#284d89"/>
          <path id="Trazado_881976" data-name="Trazado 881976" d="M145.645,177.653a2.625,2.625,0,0,0,2.322-1.48,5.583,5.583,0,0,1,9.951,0,2.622,2.622,0,0,0,2.321,1.48A2.563,2.563,0,0,0,162.572,174a10.72,10.72,0,0,0-19.262,0,2.562,2.562,0,0,0,2.334,3.65" transform="translate(-18.832 -22.114)" fill="#289df2"/>
          <path id="Trazado_881977" data-name="Trazado 881977" d="M175.172,178.71a10.719,10.719,0,1,0,10.719-10.719,10.72,10.72,0,0,0-10.719,10.719m16.305,0a5.586,5.586,0,1,1-5.586-5.586,5.586,5.586,0,0,1,5.586,5.586" transform="translate(-23.059 -22.114)" fill="#284d89"/>
          <path id="Trazado_881978" data-name="Trazado 881978" d="M184.835,186.133a2.625,2.625,0,0,0-1.48-2.322,5.583,5.583,0,0,1,0-9.951,2.623,2.623,0,0,0,1.48-2.321,2.563,2.563,0,0,0-3.651-2.334,10.721,10.721,0,0,0,0,19.262,2.563,2.563,0,0,0,3.651-2.334" transform="translate(-23.059 -22.24)" fill="#ff4d6b"/>
          <rect id="Rectángulo_405929" data-name="Rectángulo 405929" width="19.583" height="47.001" transform="translate(83.917 114.276)" fill="none" stroke="#289df2" stroke-miterlimit="10" stroke-width="1.128"/>
          <rect id="Rectángulo_405930" data-name="Rectángulo 405930" width="5.712" height="1.688" transform="translate(86.69 123.333)" fill="#1ae5ff"/>
          <rect id="Rectángulo_405931" data-name="Rectángulo 405931" width="5.712" height="1.688" transform="translate(86.69 127.099)" fill="#1ae5ff"/>
          <rect id="Rectángulo_405932" data-name="Rectángulo 405932" width="5.712" height="1.688" transform="translate(86.69 130.866)" fill="#1ae5ff"/>
          <rect id="Rectángulo_405933" data-name="Rectángulo 405933" width="5.712" height="1.688" transform="translate(86.69 150.449)" fill="#1ae5ff"/>
          <rect id="Rectángulo_405934" data-name="Rectángulo 405934" width="8.323" height="1.688" transform="translate(86.69 136.389)" fill="#1ae5ff"/>
          <rect id="Rectángulo_405935" data-name="Rectángulo 405935" width="8.323" height="1.688" transform="translate(86.69 140.155)" fill="#fff"/>
          <rect id="Rectángulo_405936" data-name="Rectángulo 405936" width="8.323" height="1.688" transform="translate(86.69 143.921)" fill="#fff"/>
          <rect id="Rectángulo_405937" data-name="Rectángulo 405937" width="24.806" height="24.806" transform="translate(13.742 173.027)" fill="#289df2"/>
          <rect id="Rectángulo_405938" data-name="Rectángulo 405938" width="24.806" height="24.806" transform="translate(0.686 178.902)" fill="none" stroke="#289df2" stroke-miterlimit="10" stroke-width="1.128"/>
          <rect id="Rectángulo_405939" data-name="Rectángulo 405939" width="10.445" height="10.445" transform="translate(308.802 244.833)" fill="none" stroke="#289df2" stroke-miterlimit="10" stroke-width="1.128"/>
          <path id="Trazado_881979" data-name="Trazado 881979" d="M211.279,262.521h8.813l4.9,4.9H275.9l7.833-7.833h27.417" transform="translate(-27.812 -34.171)" fill="none" stroke="#fff" stroke-miterlimit="10" stroke-width="1.128"/>
          <circle id="Elipse_11562" data-name="Elipse 11562" cx="2.57" cy="2.57" r="2.57" transform="translate(178.325 225.902)" fill="none" stroke="#fff" stroke-miterlimit="10" stroke-width="1.128"/>
          <circle id="Elipse_11563" data-name="Elipse 11563" cx="2.57" cy="2.57" r="2.57" transform="translate(283.424 222.72)" fill="none" stroke="#fff" stroke-miterlimit="10" stroke-width="1.128"/>
          <path id="Trazado_881980" data-name="Trazado 881980" d="M368.155,103.29a3.264,3.264,0,1,1-3.264-3.264,3.264,3.264,0,0,1,3.264,3.264" transform="translate(-47.604 -13.167)" fill="#289df2"/>
          <path id="Trazado_881981" data-name="Trazado 881981" d="M20.848,249.88a3.264,3.264,0,1,1-3.264-3.264,3.264,3.264,0,0,1,3.264,3.264" transform="translate(-1.885 -32.464)" fill="#ff4d6b"/>
          <path id="Trazado_881982" data-name="Trazado 881982" d="M37.4,263.416a5.712,5.712,0,1,1-5.712-5.712,5.712,5.712,0,0,1,5.712,5.712" transform="translate(-3.419 -33.924)" fill="#ff4d6b"/>
          <rect id="Rectángulo_405940" data-name="Rectángulo 405940" width="22.847" height="5.222" transform="translate(205.661 248.75)" fill="none" stroke="#289df2" stroke-miterlimit="10" stroke-width="1.128"/>
          <rect id="Rectángulo_405941" data-name="Rectángulo 405941" width="50.102" height="5.222" transform="translate(205.66 258.542)" fill="none" stroke="#289df2" stroke-miterlimit="10" stroke-width="1.128"/>
          <line id="Línea_3826" data-name="Línea 3826" x1="5.538" y2="5.538" transform="translate(60.157 253.751)" fill="none" stroke="#289df2" stroke-linecap="round" stroke-linejoin="round" stroke-width="1.128"/>
          <line id="Línea_3827" data-name="Línea 3827" x1="5.538" y2="5.538" transform="translate(65.482 253.751)" fill="none" stroke="#289df2" stroke-linecap="round" stroke-linejoin="round" stroke-width="1.128"/>
          <line id="Línea_3828" data-name="Línea 3828" x1="5.538" y2="5.538" transform="translate(70.806 253.751)" fill="none" stroke="#289df2" stroke-linecap="round" stroke-linejoin="round" stroke-width="1.128"/>
          <line id="Línea_3829" data-name="Línea 3829" x1="5.538" y2="5.538" transform="translate(76.131 253.751)" fill="none" stroke="#289df2" stroke-linecap="round" stroke-linejoin="round" stroke-width="1.128"/>
          <line id="Línea_3830" data-name="Línea 3830" x1="5.538" y2="5.538" transform="translate(81.455 253.751)" fill="none" stroke="#289df2" stroke-linecap="round" stroke-linejoin="round" stroke-width="1.128"/>
        </g>
      </g>
    </g>
  </g>
</svg>
