<svg xmlns="http://www.w3.org/2000/svg" width="505" height="392.307" viewBox="0 0 505 392.307">
  <g id="Grupo_1102940" data-name="Grupo 1102940" transform="translate(-915 -2308.686)">
    <path id="Trazado_882727" data-name="Trazado 882727" d="M13,0H492a13,13,0,0,1,13,13V339.41a13,13,0,0,1-13,13H13a13,13,0,0,1-13-13V13A13,13,0,0,1,13,0Z" transform="translate(915 2348.582)" fill="#110628"/>
    <path id="Trazado_882728" data-name="Trazado 882728" d="M3.734,19.852A3.249,3.249,0,0,1,1.922,18.5a3.487,3.487,0,0,1-.43-2.277l.219-1.617a2.968,2.968,0,0,0,.008-.711A1.2,1.2,0,0,0,.438,12.773l.125-1.133A1.925,1.925,0,0,0,2.508,9.727L2.75,7.945a4.125,4.125,0,0,1,3.2-3.437l.211.914A3.018,3.018,0,0,0,4.156,8.055L3.891,9.93a3.024,3.024,0,0,1-1.648,2.3,2.218,2.218,0,0,1,.883,1.711,4.224,4.224,0,0,1-.008.68l-.242,1.9-.016.555.016.242a1.839,1.839,0,0,0,1.18,1.656Zm7.18,10.289-.648,2.719-.859.008.625-3.93,1.063.07Zm2.047,0-.648,2.719h-.859l.625-3.922,1.063.07Zm2.813,2.4-.2,1.07a3.333,3.333,0,0,1,2.594-1.219,2.1,2.1,0,0,1,1.766.828,3.217,3.217,0,0,1,.422,2.242L19.43,41H18.016l.93-5.557a2.962,2.962,0,0,0,.008-.71,1.168,1.168,0,0,0-1.289-1.116,2.661,2.661,0,0,0-2.234,1.358L14.383,41H12.969l1.469-8.453ZM26.781,41a1.894,1.894,0,0,1-.055-.445l.023-.445a3.465,3.465,0,0,1-2.469,1.047,2.526,2.526,0,0,1-1.816-.707,2.14,2.14,0,0,1-.637-1.73A2.6,2.6,0,0,1,23,36.621a5.005,5.005,0,0,1,2.887-.754l1.477.008.094-.672a1.545,1.545,0,0,0-.293-1.2,1.414,1.414,0,0,0-1.113-.457,2.181,2.181,0,0,0-1.285.355,1.513,1.513,0,0,0-.684.98l-1.422.008a2.266,2.266,0,0,1,.578-1.316,3.363,3.363,0,0,1,1.3-.891,4.215,4.215,0,0,1,1.648-.3,2.8,2.8,0,0,1,2.055.8,2.484,2.484,0,0,1,.617,2.043l-.687,4.188-.039.6a2.949,2.949,0,0,0,.094.852L28.219,41Zm-2.219-1.094a2.466,2.466,0,0,0,1.285-.324,3.254,3.254,0,0,0,1.043-.941l.3-1.742-1.07-.008a4.054,4.054,0,0,0-2.047.422,1.554,1.554,0,0,0-.8,1.2,1.21,1.21,0,0,0,.277.988A1.321,1.321,0,0,0,24.563,39.906Zm8.359-7.367-.18.945a3.305,3.305,0,0,1,2.57-1.094,2.608,2.608,0,0,1,1.363.367,1.8,1.8,0,0,1,.77.992,3.49,3.49,0,0,1,2.8-1.359,2.235,2.235,0,0,1,1.867.852,3.042,3.042,0,0,1,.445,2.2L41.633,41H40.227l.922-5.57a2.943,2.943,0,0,0,0-.742Q41,33.625,39.758,33.6a2.136,2.136,0,0,0-1.4.48,2.222,2.222,0,0,0-.809,1.3L36.586,41H35.164l.938-5.562A1.786,1.786,0,0,0,35.84,34.1a1.377,1.377,0,0,0-1.129-.484,2.315,2.315,0,0,0-2.1,1.2L31.539,41H30.125l1.469-8.453Zm14.547,8.617A3.048,3.048,0,0,1,45,39.992a4.006,4.006,0,0,1-.75-2.9l.039-.336a5.624,5.624,0,0,1,.746-2.3,4.339,4.339,0,0,1,1.5-1.566,3.491,3.491,0,0,1,1.906-.5,2.688,2.688,0,0,1,2.047.867,3.566,3.566,0,0,1,.813,2.266,6.621,6.621,0,0,1-.031,1.016l-.086.648H45.656a2.856,2.856,0,0,0,.379,1.953,1.8,1.8,0,0,0,1.551.836A3.007,3.007,0,0,0,49.9,38.852l.813.688a3.718,3.718,0,0,1-1.371,1.2A3.886,3.886,0,0,1,47.469,41.156Zm.9-7.586a2.066,2.066,0,0,0-1.527.594A4.22,4.22,0,0,0,45.8,36l4.109.008.031-.125a2.313,2.313,0,0,0-.316-1.637A1.488,1.488,0,0,0,48.367,33.57Zm6.461-3.43-.648,2.719-.859.008.625-3.93,1.063.07Zm2.047,0-.648,2.719h-.859l.625-3.922,1.063.07ZM58,39.359a.846.846,0,0,1,.633.234.807.807,0,0,1,.242.625.844.844,0,0,1-.258.621.929.929,0,0,1-.625.254.788.788,0,0,1-.859-.828A.874.874,0,0,1,58,39.359Zm1.2-6.9a.846.846,0,0,1,.633.234.807.807,0,0,1,.242.625.844.844,0,0,1-.258.621.929.929,0,0,1-.625.254.788.788,0,0,1-.859-.828.874.874,0,0,1,.867-.906Zm8.43-2.32-.648,2.719-.859.008.625-3.93,1.063.07Zm2.047,0-.648,2.719h-.859l.625-3.922,1.063.07Zm2.953,2.4-.18.945a3.305,3.305,0,0,1,2.57-1.094,2.608,2.608,0,0,1,1.363.367,1.8,1.8,0,0,1,.77.992,3.49,3.49,0,0,1,2.8-1.359,2.235,2.235,0,0,1,1.867.852,3.042,3.042,0,0,1,.445,2.2L81.336,41H79.93l.922-5.57a2.943,2.943,0,0,0,0-.742Q80.7,33.625,79.461,33.6a2.136,2.136,0,0,0-1.4.48,2.222,2.222,0,0,0-.809,1.3L76.289,41H74.867l.938-5.562a1.786,1.786,0,0,0-.262-1.336,1.377,1.377,0,0,0-1.129-.484,2.315,2.315,0,0,0-2.1,1.2L71.242,41H69.828L71.3,32.547ZM85.047,41H83.641l1.469-8.453h1.406Zm1.164-11.539a.774.774,0,0,1,.6.215.8.8,0,0,1,.238.605.834.834,0,0,1-.836.852.779.779,0,0,1-.6-.211.764.764,0,0,1-.227-.594.886.886,0,0,1,.234-.609A.826.826,0,0,1,86.211,29.461Zm4.813,7.3H87.313l.211-1.18h3.711Zm8.352.055a6.706,6.706,0,0,1-.7,2.32,3.949,3.949,0,0,1-1.336,1.543,3.058,3.058,0,0,1-1.766.488,2.815,2.815,0,0,1-2.25-.992L92.57,44.25H91.156l2.031-11.7,1.281-.008-.156.945a3.207,3.207,0,0,1,2.508-1.094,2.358,2.358,0,0,1,1.9.9,3.954,3.954,0,0,1,.719,2.391,8.412,8.412,0,0,1-.039.969Zm-1.391-.16L98.023,36a2.969,2.969,0,0,0-.434-1.744,1.525,1.525,0,0,0-1.254-.636,2.508,2.508,0,0,0-2.117,1.163l-.711,4.05a1.769,1.769,0,0,0,1.711,1.155,2.224,2.224,0,0,0,1.793-.823A4.777,4.777,0,0,0,97.984,36.652Zm7.781-2.817-.664-.07a2.42,2.42,0,0,0-2.141,1.227L101.922,41h-1.414l1.469-8.453,1.367-.008-.211.984a2.527,2.527,0,0,1,2.117-1.148,2.594,2.594,0,0,1,.672.117Zm4.609-1.445a3.047,3.047,0,0,1,1.82.578,3.285,3.285,0,0,1,1.121,1.551,4.8,4.8,0,0,1,.246,2.16l-.016.172a5.685,5.685,0,0,1-.734,2.23,4.309,4.309,0,0,1-1.516,1.551,3.7,3.7,0,0,1-2.039.523,3.052,3.052,0,0,1-1.816-.578,3.21,3.21,0,0,1-1.113-1.531,4.931,4.931,0,0,1-.25-2.133,5.76,5.76,0,0,1,.711-2.359,4.409,4.409,0,0,1,1.527-1.621A3.652,3.652,0,0,1,110.375,32.391ZM107.5,36.922a4.8,4.8,0,0,0,0,1.023,2.507,2.507,0,0,0,.551,1.469,1.653,1.653,0,0,0,1.262.57,2.253,2.253,0,0,0,1.3-.348,2.919,2.919,0,0,0,1-1.121,4.721,4.721,0,0,0,.523-1.664,7.5,7.5,0,0,0,.023-1.211,2.6,2.6,0,0,0-.57-1.492,1.69,1.69,0,0,0-1.266-.578,2.3,2.3,0,0,0-1.859.859,4.245,4.245,0,0,0-.945,2.313Zm10.141,1.945,3.008-6.32h1.563L117.2,42.406q-1.047,2.055-2.687,2.031a4.6,4.6,0,0,1-.852-.141l.125-1.172.367.039a1.853,1.853,0,0,0,1.16-.3,2.772,2.772,0,0,0,.863-1.074l.508-.969-1.461-8.273H116.7Zm8.047,2.289a3.048,3.048,0,0,1-2.469-1.164,4.006,4.006,0,0,1-.75-2.9l.039-.336a5.624,5.624,0,0,1,.746-2.3,4.339,4.339,0,0,1,1.5-1.566,3.491,3.491,0,0,1,1.906-.5,2.688,2.688,0,0,1,2.047.867,3.566,3.566,0,0,1,.813,2.266,6.621,6.621,0,0,1-.031,1.016l-.086.648h-5.523a2.856,2.856,0,0,0,.379,1.953,1.8,1.8,0,0,0,1.551.836,3.007,3.007,0,0,0,2.313-1.125l.813.688a3.718,3.718,0,0,1-1.371,1.2A3.886,3.886,0,0,1,125.688,41.156Zm.9-7.586a2.066,2.066,0,0,0-1.527.594A4.22,4.22,0,0,0,124.023,36l4.109.008.031-.125a2.313,2.313,0,0,0-.316-1.637A1.488,1.488,0,0,0,126.586,33.57Zm7.313,6.414a2.145,2.145,0,0,0,1.367-.441,2.1,2.1,0,0,0,.8-1.2l1.336-.008a3.014,3.014,0,0,1-.637,1.453,3.68,3.68,0,0,1-2.926,1.367,3.017,3.017,0,0,1-1.785-.551,3.084,3.084,0,0,1-1.074-1.492,4.972,4.972,0,0,1-.234-2.152l.039-.391a5.605,5.605,0,0,1,.711-2.18,4.11,4.11,0,0,1,1.469-1.5,3.648,3.648,0,0,1,2-.5,2.857,2.857,0,0,1,2.125.891,3.08,3.08,0,0,1,.8,2.18l-1.32-.008a2.029,2.029,0,0,0-.461-1.34,1.607,1.607,0,0,0-1.2-.543,2.254,2.254,0,0,0-1.832.82,4.3,4.3,0,0,0-.91,2.359l-.023.2a6.777,6.777,0,0,0-.016,1.031,2.355,2.355,0,0,0,.516,1.445A1.656,1.656,0,0,0,133.9,39.984Zm8.367-9.484-.359,2.047h1.539l-.2,1.117h-1.531l-.883,5.258a1.833,1.833,0,0,0-.008.375.6.6,0,0,0,.664.609,4.05,4.05,0,0,0,.688-.078l-.109,1.18a3.847,3.847,0,0,1-1.031.141,1.476,1.476,0,0,1-1.266-.621,2.4,2.4,0,0,1-.328-1.629l.859-5.234h-1.492l.2-1.117H140.5l.359-2.047Zm5.953,1.891a3.047,3.047,0,0,1,1.82.578,3.285,3.285,0,0,1,1.121,1.551,4.8,4.8,0,0,1,.246,2.16l-.016.172a5.685,5.685,0,0,1-.734,2.23,4.309,4.309,0,0,1-1.516,1.551,3.7,3.7,0,0,1-2.039.523,3.052,3.052,0,0,1-1.816-.578,3.21,3.21,0,0,1-1.113-1.531,4.931,4.931,0,0,1-.25-2.133,5.76,5.76,0,0,1,.711-2.359,4.409,4.409,0,0,1,1.527-1.621A3.652,3.652,0,0,1,148.219,32.391Zm-2.875,4.531a4.8,4.8,0,0,0,0,1.023,2.507,2.507,0,0,0,.551,1.469,1.653,1.653,0,0,0,1.262.57,2.253,2.253,0,0,0,1.3-.348,2.919,2.919,0,0,0,1-1.121,4.721,4.721,0,0,0,.523-1.664A7.493,7.493,0,0,0,150,35.641a2.6,2.6,0,0,0-.57-1.492,1.69,1.69,0,0,0-1.266-.578,2.3,2.3,0,0,0-1.859.859,4.245,4.245,0,0,0-.945,2.313Zm8.875-6.781-.648,2.719-.859.008.625-3.93,1.063.07Zm2.047,0-.648,2.719h-.859l.625-3.922,1.063.07Zm-.148,13.133-.812-.586a5.16,5.16,0,0,0,1.125-2.219l.2-1.18h1.383l-.164,1.055A4.521,4.521,0,0,1,156.117,43.273ZM10.914,54.141l-.648,2.719-.859.008.625-3.93,1.063.07Zm2.047,0-.648,2.719h-.859l.625-3.922,1.063.07ZM16.2,63.023l3.047-6.477h1.492L16.477,65H15.4l-1.656-8.453h1.391Zm8.18,2.133a3.048,3.048,0,0,1-2.469-1.164,4.006,4.006,0,0,1-.75-2.9l.039-.336a5.624,5.624,0,0,1,.746-2.3,4.339,4.339,0,0,1,1.5-1.566,3.491,3.491,0,0,1,1.906-.5,2.688,2.688,0,0,1,2.047.867,3.566,3.566,0,0,1,.813,2.266,6.621,6.621,0,0,1-.031,1.016l-.086.648H22.563a2.856,2.856,0,0,0,.379,1.953,1.8,1.8,0,0,0,1.551.836A3.007,3.007,0,0,0,26.8,62.852l.813.688a3.718,3.718,0,0,1-1.371,1.2A3.886,3.886,0,0,1,24.375,65.156Zm.9-7.586a2.066,2.066,0,0,0-1.527.594A4.22,4.22,0,0,0,22.711,60l4.109.008.031-.125a2.313,2.313,0,0,0-.316-1.637A1.488,1.488,0,0,0,25.273,57.57Zm9,.266-.664-.07a2.42,2.42,0,0,0-2.141,1.227L30.43,65H29.016l1.469-8.453,1.367-.008-.211.984a2.527,2.527,0,0,1,2.117-1.148,2.594,2.594,0,0,1,.672.117Zm5.3,4.875q.117-.875-.961-1.234l-1.469-.43q-1.859-.641-1.8-2.125a2.341,2.341,0,0,1,1.02-1.832,3.631,3.631,0,0,1,2.27-.7,3.027,3.027,0,0,1,2.082.746,2.363,2.363,0,0,1,.77,1.9l-1.406-.008a1.319,1.319,0,0,0-.4-1.031,1.576,1.576,0,0,0-1.1-.414,2.059,2.059,0,0,0-1.266.359,1.316,1.316,0,0,0-.57.922q-.1.734.9,1.07l.711.2a4.577,4.577,0,0,1,2.063.977,1.865,1.865,0,0,1,.563,1.492,2.37,2.37,0,0,1-.516,1.375,2.948,2.948,0,0,1-1.25.895,4.18,4.18,0,0,1-1.664.285,3.3,3.3,0,0,1-2.219-.785,2.427,2.427,0,0,1-.844-1.98l1.414.008a1.5,1.5,0,0,0,.453,1.141,1.732,1.732,0,0,0,1.242.43,2.436,2.436,0,0,0,1.336-.324A1.247,1.247,0,0,0,39.578,62.711ZM43.953,65H42.547l1.469-8.453h1.406Zm1.164-11.539a.774.774,0,0,1,.6.215.8.8,0,0,1,.238.605.834.834,0,0,1-.836.852.779.779,0,0,1-.6-.211.764.764,0,0,1-.227-.594.886.886,0,0,1,.234-.609A.826.826,0,0,1,45.117,53.461Zm5.844,2.93a3.047,3.047,0,0,1,1.82.578A3.285,3.285,0,0,1,53.9,58.52a4.8,4.8,0,0,1,.246,2.16l-.016.172a5.685,5.685,0,0,1-.734,2.23,4.309,4.309,0,0,1-1.516,1.551,3.7,3.7,0,0,1-2.039.523,3.052,3.052,0,0,1-1.816-.578,3.21,3.21,0,0,1-1.113-1.531,4.931,4.931,0,0,1-.25-2.133,5.76,5.76,0,0,1,.711-2.359A4.409,4.409,0,0,1,48.9,56.934,3.652,3.652,0,0,1,50.961,56.391Zm-2.875,4.531a4.8,4.8,0,0,0,0,1.023,2.507,2.507,0,0,0,.551,1.469,1.653,1.653,0,0,0,1.262.57,2.253,2.253,0,0,0,1.3-.348,2.919,2.919,0,0,0,1-1.121,4.721,4.721,0,0,0,.523-1.664,7.494,7.494,0,0,0,.023-1.211,2.6,2.6,0,0,0-.57-1.492,1.69,1.69,0,0,0-1.266-.578,2.3,2.3,0,0,0-1.859.859,4.245,4.245,0,0,0-.945,2.313ZM58,56.539l-.2,1.07a3.333,3.333,0,0,1,2.594-1.219,2.1,2.1,0,0,1,1.766.828,3.217,3.217,0,0,1,.422,2.242L61.656,65H60.242l.93-5.557a2.962,2.962,0,0,0,.008-.71,1.168,1.168,0,0,0-1.289-1.116,2.661,2.661,0,0,0-2.234,1.358L56.609,65H55.2l1.469-8.453Zm7.852-2.4L65.2,56.859l-.859.008.625-3.93,1.063.07Zm2.047,0-.648,2.719h-.859l.625-3.922,1.063.07Zm1.125,9.219a.846.846,0,0,1,.633.234.807.807,0,0,1,.242.625.844.844,0,0,1-.258.621.929.929,0,0,1-.625.254.788.788,0,0,1-.859-.828.874.874,0,0,1,.867-.906Zm1.2-6.9a.846.846,0,0,1,.633.234.807.807,0,0,1,.242.625.844.844,0,0,1-.258.621.929.929,0,0,1-.625.254.788.788,0,0,1-.859-.828.874.874,0,0,1,.867-.906Zm8.43-2.32L78,56.859l-.859.008.625-3.93,1.063.07Zm2.047,0-.648,2.719h-.859l.625-3.922,1.063.07ZM85.336,65H83.914l1.672-9.594-3.023,1.063.242-1.375,4.219-1.523h.25ZM90.7,63.359a.846.846,0,0,1,.633.234.807.807,0,0,1,.242.625.844.844,0,0,1-.258.621.929.929,0,0,1-.625.254.788.788,0,0,1-.859-.828.874.874,0,0,1,.867-.906Zm6.57,1.8a2.567,2.567,0,0,1-2.156-1.02,4.526,4.526,0,0,1-.656-2.848q.016-.578.086-1.141l.281-1.9a7.043,7.043,0,0,1,1.43-3.625,3.418,3.418,0,0,1,2.781-1.156,2.6,2.6,0,0,1,2.168,1,4.426,4.426,0,0,1,.66,2.8q-.023.586-.094,1.148l-.273,1.836a7.463,7.463,0,0,1-1.461,3.758A3.4,3.4,0,0,1,97.266,65.156Zm3.133-7a12.092,12.092,0,0,0,.1-1.469q-.039-1.984-1.539-2.039a2.053,2.053,0,0,0-1.77.809,5.606,5.606,0,0,0-.941,2.66l-.336,2.266a11.525,11.525,0,0,0-.1,1.477q.039,2.07,1.531,2.125a2.007,2.007,0,0,0,1.715-.766,5.429,5.429,0,0,0,.965-2.578Zm3.258,5.2a.846.846,0,0,1,.633.234.807.807,0,0,1,.242.625.844.844,0,0,1-.258.621.929.929,0,0,1-.625.254.788.788,0,0,1-.859-.828.874.874,0,0,1,.867-.906Zm6.57,1.8a2.567,2.567,0,0,1-2.156-1.02,4.526,4.526,0,0,1-.656-2.848q.016-.578.086-1.141l.281-1.9a7.043,7.043,0,0,1,1.43-3.625,3.418,3.418,0,0,1,2.781-1.156,2.6,2.6,0,0,1,2.168,1,4.426,4.426,0,0,1,.66,2.8q-.023.586-.094,1.148l-.273,1.836a7.463,7.463,0,0,1-1.461,3.758A3.4,3.4,0,0,1,110.227,65.156Zm3.133-7a12.092,12.092,0,0,0,.1-1.469q-.039-1.984-1.539-2.039a2.053,2.053,0,0,0-1.77.809,5.606,5.606,0,0,0-.941,2.66l-.336,2.266a11.525,11.525,0,0,0-.1,1.477q.039,2.07,1.531,2.125a2.007,2.007,0,0,0,1.715-.766,5.429,5.429,0,0,0,.965-2.578Zm5.047-4.016-.648,2.719-.859.008.625-3.93,1.063.07Zm2.047,0-.648,2.719h-.859l.625-3.922,1.063.07ZM120.3,67.273l-.812-.586a5.16,5.16,0,0,0,1.125-2.219l.2-1.18H122.2l-.164,1.055A4.521,4.521,0,0,1,120.3,67.273ZM10.914,78.141l-.648,2.719-.859.008.625-3.93,1.063.07Zm2.047,0-.648,2.719h-.859l.625-3.922,1.063.07Zm.57,6.617a6.578,6.578,0,0,1,.711-2.328,4.03,4.03,0,0,1,1.367-1.555,3.127,3.127,0,0,1,1.789-.492,2.641,2.641,0,0,1,2.172,1.031L20.383,77H21.8L19.719,89H18.43l.148-.906a3.116,3.116,0,0,1-2.469,1.063,2.335,2.335,0,0,1-1.867-.918,4,4,0,0,1-.75-2.379A7.6,7.6,0,0,1,13.531,84.758Zm1.359.808a2.929,2.929,0,0,0,.4,1.732,1.437,1.437,0,0,0,1.234.632A2.554,2.554,0,0,0,18.7,86.7l.672-3.9a1.754,1.754,0,0,0-1.7-1.186,2.143,2.143,0,0,0-1.473.5,3.256,3.256,0,0,0-.969,1.475A6.082,6.082,0,0,0,14.891,85.565Zm10.719,3.591a3.048,3.048,0,0,1-2.469-1.164,4.006,4.006,0,0,1-.75-2.9l.039-.336a5.624,5.624,0,0,1,.746-2.3,4.339,4.339,0,0,1,1.5-1.566,3.491,3.491,0,0,1,1.906-.5,2.688,2.688,0,0,1,2.047.867,3.566,3.566,0,0,1,.813,2.266,6.621,6.621,0,0,1-.031,1.016l-.086.648H23.8a2.856,2.856,0,0,0,.379,1.953,1.8,1.8,0,0,0,1.551.836,3.007,3.007,0,0,0,2.313-1.125l.813.688a3.718,3.718,0,0,1-1.371,1.2A3.886,3.886,0,0,1,25.609,89.156Zm.9-7.586a2.066,2.066,0,0,0-1.527.594A4.22,4.22,0,0,0,23.945,84l4.109.008.031-.125a2.313,2.313,0,0,0-.316-1.637A1.488,1.488,0,0,0,26.508,81.57Zm11.4,3.242a6.707,6.707,0,0,1-.7,2.32,3.949,3.949,0,0,1-1.336,1.543,3.058,3.058,0,0,1-1.766.488,2.815,2.815,0,0,1-2.25-.992L31.1,92.25H29.688l2.031-11.7L33,80.539l-.156.945a3.207,3.207,0,0,1,2.508-1.094,2.358,2.358,0,0,1,1.9.9,3.954,3.954,0,0,1,.719,2.391,8.413,8.413,0,0,1-.039.969Zm-1.391-.16L36.555,84a2.969,2.969,0,0,0-.434-1.744,1.525,1.525,0,0,0-1.254-.636A2.508,2.508,0,0,0,32.75,82.78l-.711,4.05a1.769,1.769,0,0,0,1.711,1.155,2.224,2.224,0,0,0,1.793-.823A4.777,4.777,0,0,0,36.516,84.652Zm6.18,4.5a3.048,3.048,0,0,1-2.469-1.164,4.006,4.006,0,0,1-.75-2.9l.039-.336a5.624,5.624,0,0,1,.746-2.3,4.339,4.339,0,0,1,1.5-1.566,3.491,3.491,0,0,1,1.906-.5,2.688,2.688,0,0,1,2.047.867,3.566,3.566,0,0,1,.813,2.266,6.621,6.621,0,0,1-.031,1.016l-.086.648H40.883a2.856,2.856,0,0,0,.379,1.953,1.8,1.8,0,0,0,1.551.836,3.007,3.007,0,0,0,2.313-1.125l.813.688a3.718,3.718,0,0,1-1.371,1.2A3.886,3.886,0,0,1,42.7,89.156Zm.9-7.586a2.066,2.066,0,0,0-1.527.594A4.22,4.22,0,0,0,41.031,84l4.109.008.031-.125a2.313,2.313,0,0,0-.316-1.637A1.488,1.488,0,0,0,43.594,81.57Zm6.547-1.031-.2,1.07a3.333,3.333,0,0,1,2.594-1.219,2.1,2.1,0,0,1,1.766.828,3.217,3.217,0,0,1,.422,2.242L53.8,89H52.383l.93-5.557a2.962,2.962,0,0,0,.008-.71,1.168,1.168,0,0,0-1.289-1.116A2.661,2.661,0,0,0,49.8,82.975L48.75,89H47.336L48.8,80.547Zm6.242,4.219a6.578,6.578,0,0,1,.711-2.328,4.03,4.03,0,0,1,1.367-1.555,3.127,3.127,0,0,1,1.789-.492,2.641,2.641,0,0,1,2.172,1.031L63.234,77h1.414L62.57,89H61.281l.148-.906a3.116,3.116,0,0,1-2.469,1.063,2.335,2.335,0,0,1-1.867-.918,4,4,0,0,1-.75-2.379A7.6,7.6,0,0,1,56.383,84.758Zm1.359.808a2.929,2.929,0,0,0,.4,1.732,1.437,1.437,0,0,0,1.234.632,2.554,2.554,0,0,0,2.18-1.233l.672-3.9a1.754,1.754,0,0,0-1.7-1.186,2.143,2.143,0,0,0-1.473.5,3.256,3.256,0,0,0-.969,1.475A6.082,6.082,0,0,0,57.742,85.565Zm10.719,3.591a3.048,3.048,0,0,1-2.469-1.164,4.006,4.006,0,0,1-.75-2.9l.039-.336a5.624,5.624,0,0,1,.746-2.3,4.339,4.339,0,0,1,1.5-1.566,3.491,3.491,0,0,1,1.906-.5,2.688,2.688,0,0,1,2.047.867,3.566,3.566,0,0,1,.813,2.266,6.62,6.62,0,0,1-.031,1.016l-.086.648H66.648a2.856,2.856,0,0,0,.379,1.953,1.8,1.8,0,0,0,1.551.836,3.007,3.007,0,0,0,2.313-1.125l.813.688a3.718,3.718,0,0,1-1.371,1.2A3.886,3.886,0,0,1,68.461,89.156Zm.9-7.586a2.066,2.066,0,0,0-1.527.594A4.22,4.22,0,0,0,66.8,84l4.109.008.031-.125a2.313,2.313,0,0,0-.316-1.637A1.488,1.488,0,0,0,69.359,81.57Zm6.547-1.031-.2,1.07A3.333,3.333,0,0,1,78.3,80.391a2.1,2.1,0,0,1,1.766.828,3.217,3.217,0,0,1,.422,2.242L79.563,89H78.148l.93-5.557a2.962,2.962,0,0,0,.008-.71A1.168,1.168,0,0,0,77.8,81.617a2.661,2.661,0,0,0-2.234,1.358L74.516,89H73.1l1.469-8.453Zm9.406,7.445a2.145,2.145,0,0,0,1.367-.441,2.1,2.1,0,0,0,.8-1.2l1.336-.008a3.014,3.014,0,0,1-.637,1.453,3.68,3.68,0,0,1-2.926,1.367,3.017,3.017,0,0,1-1.785-.551,3.084,3.084,0,0,1-1.074-1.492,4.972,4.972,0,0,1-.234-2.152l.039-.391a5.605,5.605,0,0,1,.711-2.18,4.11,4.11,0,0,1,1.469-1.5,3.648,3.648,0,0,1,2-.5,2.857,2.857,0,0,1,2.125.891,3.08,3.08,0,0,1,.8,2.18l-1.32-.008a2.029,2.029,0,0,0-.461-1.34,1.607,1.607,0,0,0-1.2-.543,2.254,2.254,0,0,0-1.832.82,4.3,4.3,0,0,0-.91,2.359l-.023.2a6.776,6.776,0,0,0-.016,1.031,2.355,2.355,0,0,0,.516,1.445A1.656,1.656,0,0,0,85.313,87.984ZM91.477,89H90.07l1.469-8.453h1.406Zm1.164-11.539a.774.774,0,0,1,.6.215.8.8,0,0,1,.238.605.834.834,0,0,1-.836.852.779.779,0,0,1-.6-.211.764.764,0,0,1-.227-.594.886.886,0,0,1,.234-.609A.826.826,0,0,1,92.641,77.461Zm4.8,11.7a3.048,3.048,0,0,1-2.469-1.164,4.006,4.006,0,0,1-.75-2.9l.039-.336a5.624,5.624,0,0,1,.746-2.3,4.339,4.339,0,0,1,1.5-1.566,3.491,3.491,0,0,1,1.906-.5,2.688,2.688,0,0,1,2.047.867,3.566,3.566,0,0,1,.813,2.266,6.62,6.62,0,0,1-.031,1.016l-.086.648H95.633a2.856,2.856,0,0,0,.379,1.953,1.8,1.8,0,0,0,1.551.836,3.007,3.007,0,0,0,2.313-1.125l.813.688a3.718,3.718,0,0,1-1.371,1.2A3.886,3.886,0,0,1,97.445,89.156Zm.9-7.586a2.066,2.066,0,0,0-1.527.594A4.22,4.22,0,0,0,95.781,84l4.109.008.031-.125a2.313,2.313,0,0,0-.316-1.637A1.488,1.488,0,0,0,98.344,81.57Zm8.977,5.141q.117-.875-.961-1.234l-1.469-.43q-1.859-.641-1.8-2.125a2.341,2.341,0,0,1,1.02-1.832,3.631,3.631,0,0,1,2.27-.7,3.027,3.027,0,0,1,2.082.746,2.363,2.363,0,0,1,.77,1.9l-1.406-.008a1.319,1.319,0,0,0-.4-1.031,1.576,1.576,0,0,0-1.1-.414,2.059,2.059,0,0,0-1.266.359,1.316,1.316,0,0,0-.57.922q-.1.734.9,1.07l.711.2a4.578,4.578,0,0,1,2.063.977,1.865,1.865,0,0,1,.563,1.492,2.37,2.37,0,0,1-.516,1.375,2.948,2.948,0,0,1-1.25.895,4.18,4.18,0,0,1-1.664.285,3.3,3.3,0,0,1-2.219-.785,2.427,2.427,0,0,1-.844-1.98l1.414.008a1.5,1.5,0,0,0,.453,1.141,1.732,1.732,0,0,0,1.242.43,2.436,2.436,0,0,0,1.336-.324A1.247,1.247,0,0,0,107.32,86.711Zm5.672-8.57-.648,2.719-.859.008.625-3.93,1.063.07Zm2.047,0-.648,2.719h-.859l.625-3.922,1.063.07Zm1.125,9.219a.846.846,0,0,1,.633.234.807.807,0,0,1,.242.625.844.844,0,0,1-.258.621.929.929,0,0,1-.625.254.788.788,0,0,1-.859-.828.874.874,0,0,1,.867-.906Zm1.2-6.9a.846.846,0,0,1,.633.234.807.807,0,0,1,.242.625.844.844,0,0,1-.258.621.929.929,0,0,1-.625.254.788.788,0,0,1-.859-.828.874.874,0,0,1,.867-.906Zm9.094,11.391a3.249,3.249,0,0,1-1.812-1.348,3.487,3.487,0,0,1-.43-2.277l.219-1.617a2.968,2.968,0,0,0,.008-.711,1.2,1.2,0,0,0-1.281-1.125l.125-1.133a1.925,1.925,0,0,0,1.945-1.914l.242-1.781a4.125,4.125,0,0,1,3.2-3.437l.211.914a3.018,3.018,0,0,0-2.008,2.633l-.266,1.875a3.024,3.024,0,0,1-1.648,2.3,2.218,2.218,0,0,1,.883,1.711,4.224,4.224,0,0,1-.008.68l-.242,1.9-.016.555.016.242a1.839,1.839,0,0,0,1.18,1.656Zm-107.7,10.289-.648,2.719-.859.008.625-3.93,1.063.07Zm2.047,0-.648,2.719H19.3l.625-3.922,1.063.07Zm3.82,11.016a3.048,3.048,0,0,1-2.469-1.164,4.006,4.006,0,0,1-.75-2.9l.039-.336a5.624,5.624,0,0,1,.746-2.3,4.339,4.339,0,0,1,1.5-1.566,3.491,3.491,0,0,1,1.906-.5,2.688,2.688,0,0,1,2.047.867,3.566,3.566,0,0,1,.813,2.266,6.621,6.621,0,0,1-.031,1.016l-.086.648H22.813a2.856,2.856,0,0,0,.379,1.953,1.8,1.8,0,0,0,1.551.836,3.007,3.007,0,0,0,2.313-1.125l.813.688a3.718,3.718,0,0,1-1.371,1.2A3.886,3.886,0,0,1,24.625,113.156Zm.9-7.586a2.066,2.066,0,0,0-1.527.594A4.22,4.22,0,0,0,22.961,108l4.109.008.031-.125a2.313,2.313,0,0,0-.316-1.637A1.488,1.488,0,0,0,25.523,105.57Zm7.375,2.055,2.3-3.078H36.93l-3.391,4.25L35.6,113H34.063l-1.4-3.156L30.281,113H28.555l3.492-4.344-2-4.109h1.547Zm11.8,1.188a6.707,6.707,0,0,1-.7,2.32,3.949,3.949,0,0,1-1.336,1.543,3.058,3.058,0,0,1-1.766.488,2.815,2.815,0,0,1-2.25-.992l-.758,4.078H36.477l2.031-11.7,1.281-.008-.156.945a3.207,3.207,0,0,1,2.508-1.094,2.358,2.358,0,0,1,1.9.9,3.954,3.954,0,0,1,.719,2.391,8.413,8.413,0,0,1-.039.969Zm-1.391-.16.039-.655a2.969,2.969,0,0,0-.434-1.744,1.525,1.525,0,0,0-1.254-.636,2.508,2.508,0,0,0-2.117,1.163l-.711,4.05a1.769,1.769,0,0,0,1.711,1.155,2.224,2.224,0,0,0,1.793-.823A4.777,4.777,0,0,0,43.3,108.652Zm7.781-2.817-.664-.07a2.42,2.42,0,0,0-2.141,1.227L47.242,113H45.828l1.469-8.453,1.367-.008-.211.984a2.527,2.527,0,0,1,2.117-1.148,2.594,2.594,0,0,1,.672.117Zm3.727,7.32a3.048,3.048,0,0,1-2.469-1.164,4.006,4.006,0,0,1-.75-2.9l.039-.336a5.624,5.624,0,0,1,.746-2.3,4.339,4.339,0,0,1,1.5-1.566,3.491,3.491,0,0,1,1.906-.5,2.688,2.688,0,0,1,2.047.867,3.566,3.566,0,0,1,.813,2.266,6.621,6.621,0,0,1-.031,1.016l-.086.648H53a2.856,2.856,0,0,0,.379,1.953,1.8,1.8,0,0,0,1.551.836,3.007,3.007,0,0,0,2.313-1.125l.813.688a3.718,3.718,0,0,1-1.371,1.2A3.886,3.886,0,0,1,54.813,113.156Zm.9-7.586a2.066,2.066,0,0,0-1.527.594A4.22,4.22,0,0,0,53.148,108l4.109.008.031-.125a2.313,2.313,0,0,0-.316-1.637A1.488,1.488,0,0,0,55.711,105.57Zm8.977,5.141q.117-.875-.961-1.234l-1.469-.43q-1.859-.641-1.8-2.125a2.341,2.341,0,0,1,1.02-1.832,3.631,3.631,0,0,1,2.27-.7,3.027,3.027,0,0,1,2.082.746,2.363,2.363,0,0,1,.77,1.9l-1.406-.008A1.319,1.319,0,0,0,64.8,106a1.576,1.576,0,0,0-1.1-.414,2.059,2.059,0,0,0-1.266.359,1.316,1.316,0,0,0-.57.922q-.1.734.9,1.07l.711.2a4.578,4.578,0,0,1,2.063.977,1.865,1.865,0,0,1,.563,1.492,2.37,2.37,0,0,1-.516,1.375,2.948,2.948,0,0,1-1.25.895,4.18,4.18,0,0,1-1.664.285,3.3,3.3,0,0,1-2.219-.785,2.427,2.427,0,0,1-.844-1.98l1.414.008a1.5,1.5,0,0,0,.453,1.141,1.732,1.732,0,0,0,1.242.43,2.436,2.436,0,0,0,1.336-.324A1.247,1.247,0,0,0,64.688,110.711Zm8.078,0q.117-.875-.961-1.234l-1.469-.43q-1.859-.641-1.8-2.125a2.341,2.341,0,0,1,1.02-1.832,3.631,3.631,0,0,1,2.27-.7,3.027,3.027,0,0,1,2.082.746,2.363,2.363,0,0,1,.77,1.9l-1.406-.008a1.319,1.319,0,0,0-.4-1.031,1.576,1.576,0,0,0-1.1-.414,2.059,2.059,0,0,0-1.266.359,1.316,1.316,0,0,0-.57.922q-.1.734.9,1.07l.711.2a4.578,4.578,0,0,1,2.063.977,1.865,1.865,0,0,1,.563,1.492,2.37,2.37,0,0,1-.516,1.375,2.948,2.948,0,0,1-1.25.895,4.18,4.18,0,0,1-1.664.285,3.3,3.3,0,0,1-2.219-.785,2.427,2.427,0,0,1-.844-1.98l1.414.008a1.5,1.5,0,0,0,.453,1.141,1.732,1.732,0,0,0,1.242.43,2.436,2.436,0,0,0,1.336-.324A1.247,1.247,0,0,0,72.766,110.711Zm5.672-8.57-.648,2.719-.859.008.625-3.93,1.063.07Zm2.047,0-.648,2.719h-.859l.625-3.922,1.063.07Zm1.125,9.219a.846.846,0,0,1,.633.234.807.807,0,0,1,.242.625.844.844,0,0,1-.258.621.929.929,0,0,1-.625.254.788.788,0,0,1-.859-.828.874.874,0,0,1,.867-.906Zm1.2-6.9a.846.846,0,0,1,.633.234.807.807,0,0,1,.242.625.844.844,0,0,1-.258.621.929.929,0,0,1-.625.254.788.788,0,0,1-.859-.828.874.874,0,0,1,.867-.906Zm8.43-2.32-.648,2.719-.859.008.625-3.93,1.063.07Zm2.047,0-.648,2.719h-.859l.625-3.922,1.063.07Zm4.016,1.414L95.2,107.3H93.82l3.258-5.68h.969l1.273,5.68H98.086Zm9.164,5.625h1.531l-.211,1.18h-1.523L105.8,113h-1.422l.461-2.641H99.8l.164-.93,6.25-7.8h1.547Zm-4.8,0h3.375l1.016-5.594-.227.328Zm8.18,2.18a.846.846,0,0,1,.633.234.807.807,0,0,1,.242.625.844.844,0,0,1-.258.621.929.929,0,0,1-.625.254.788.788,0,0,1-.859-.828.874.874,0,0,1,.867-.906Zm7.6,1.641h-1.422l1.672-9.594-3.023,1.063.242-1.375,4.219-1.523h.25Zm13.031-10.484L124.3,113H122.75l6.148-10.187h-5.937l.188-1.187h7.469Zm1.125,8.844a.846.846,0,0,1,.633.234.807.807,0,0,1,.242.625.844.844,0,0,1-.258.621.929.929,0,0,1-.625.254.788.788,0,0,1-.859-.828.874.874,0,0,1,.867-.906ZM139.2,113h-1.422l1.672-9.594-3.023,1.063.242-1.375,4.219-1.523h.25Zm7.148-10.859-.648,2.719-.859.008.625-3.93,1.063.07Zm2.047,0-.648,2.719h-.859l.625-3.922,1.063.07Zm-.148,13.133-.812-.586a5.16,5.16,0,0,0,1.125-2.219l.2-1.18h1.383l-.164,1.055A4.521,4.521,0,0,1,148.25,115.273ZM18.758,126.141l-.648,2.719-.859.008.625-3.93,1.063.07Zm2.047,0-.648,2.719H19.3l.625-3.922,1.063.07ZM22.5,137H21.094l2.078-12h1.414Zm7.008-8.609a3.047,3.047,0,0,1,1.82.578,3.285,3.285,0,0,1,1.121,1.551,4.8,4.8,0,0,1,.246,2.16l-.016.172a5.685,5.685,0,0,1-.734,2.23,4.309,4.309,0,0,1-1.516,1.551,3.7,3.7,0,0,1-2.039.523,3.052,3.052,0,0,1-1.816-.578,3.21,3.21,0,0,1-1.113-1.531,4.931,4.931,0,0,1-.25-2.133,5.76,5.76,0,0,1,.711-2.359,4.409,4.409,0,0,1,1.527-1.621A3.652,3.652,0,0,1,29.508,128.391Zm-2.875,4.531a4.8,4.8,0,0,0,0,1.023,2.507,2.507,0,0,0,.551,1.469,1.653,1.653,0,0,0,1.262.57,2.253,2.253,0,0,0,1.3-.348,2.919,2.919,0,0,0,1-1.121,4.721,4.721,0,0,0,.523-1.664,7.494,7.494,0,0,0,.023-1.211,2.6,2.6,0,0,0-.57-1.492,1.69,1.69,0,0,0-1.266-.578,2.3,2.3,0,0,0-1.859.859,4.245,4.245,0,0,0-.945,2.313Zm7.516-.164a6.577,6.577,0,0,1,.711-2.328,4.03,4.03,0,0,1,1.367-1.555,3.127,3.127,0,0,1,1.789-.492,2.64,2.64,0,0,1,2.172,1.031L41,125h1.414l-2.078,12H39.047l.148-.906a3.116,3.116,0,0,1-2.469,1.063,2.335,2.335,0,0,1-1.867-.918,4,4,0,0,1-.75-2.379A7.6,7.6,0,0,1,34.148,132.758Zm1.359.808a2.929,2.929,0,0,0,.4,1.732,1.437,1.437,0,0,0,1.234.632,2.554,2.554,0,0,0,2.18-1.233l.672-3.9a1.754,1.754,0,0,0-1.7-1.186,2.143,2.143,0,0,0-1.473.5,3.256,3.256,0,0,0-.969,1.475A6.082,6.082,0,0,0,35.508,133.565ZM47.742,137a1.894,1.894,0,0,1-.055-.445l.023-.445a3.465,3.465,0,0,1-2.469,1.047,2.526,2.526,0,0,1-1.816-.707,2.14,2.14,0,0,1-.637-1.73,2.6,2.6,0,0,1,1.176-2.1,5.005,5.005,0,0,1,2.887-.754l1.477.008.094-.672a1.545,1.545,0,0,0-.293-1.2,1.414,1.414,0,0,0-1.113-.457,2.181,2.181,0,0,0-1.285.355,1.513,1.513,0,0,0-.684.98l-1.422.008a2.266,2.266,0,0,1,.578-1.316,3.363,3.363,0,0,1,1.3-.891,4.215,4.215,0,0,1,1.648-.3,2.8,2.8,0,0,1,2.055.8,2.484,2.484,0,0,1,.617,2.043l-.687,4.188-.039.6a2.949,2.949,0,0,0,.094.852L49.18,137Zm-2.219-1.094a2.466,2.466,0,0,0,1.285-.324,3.254,3.254,0,0,0,1.043-.941l.3-1.742-1.07-.008a4.054,4.054,0,0,0-2.047.422,1.554,1.554,0,0,0-.8,1.2,1.21,1.21,0,0,0,.277.988A1.321,1.321,0,0,0,45.523,135.906Zm10.8-1.2q.117-.875-.961-1.234l-1.469-.43q-1.859-.641-1.8-2.125a2.341,2.341,0,0,1,1.02-1.832,3.631,3.631,0,0,1,2.27-.7,3.027,3.027,0,0,1,2.082.746,2.363,2.363,0,0,1,.77,1.9l-1.406-.008a1.319,1.319,0,0,0-.4-1.031,1.576,1.576,0,0,0-1.1-.414,2.059,2.059,0,0,0-1.266.359,1.316,1.316,0,0,0-.57.922q-.1.734.9,1.07l.711.2a4.577,4.577,0,0,1,2.063.977,1.865,1.865,0,0,1,.563,1.492,2.37,2.37,0,0,1-.516,1.375,2.948,2.948,0,0,1-1.25.895,4.18,4.18,0,0,1-1.664.285,3.3,3.3,0,0,1-2.219-.785,2.427,2.427,0,0,1-.844-1.98l1.414.008a1.5,1.5,0,0,0,.453,1.141,1.732,1.732,0,0,0,1.242.43,2.436,2.436,0,0,0,1.336-.324A1.247,1.247,0,0,0,56.328,134.711Zm5.484-5.133a3.275,3.275,0,0,1,2.555-1.18,2.058,2.058,0,0,1,1.762.816,3.217,3.217,0,0,1,.426,2.246L65.633,137H64.219l.93-5.562a2.968,2.968,0,0,0,.008-.711,1.168,1.168,0,0,0-1.289-1.117,2.6,2.6,0,0,0-2.234,1.359L60.586,137H59.172l2.086-12h1.414Zm8.813-3.437-.648,2.719-.859.008.625-3.93,1.063.07Zm2.047,0-.648,2.719h-.859l.625-3.922,1.063.07Zm1.125,9.219a.846.846,0,0,1,.633.234.807.807,0,0,1,.242.625.844.844,0,0,1-.258.621.929.929,0,0,1-.625.254.788.788,0,0,1-.859-.828.874.874,0,0,1,.867-.906Zm1.2-6.9a.846.846,0,0,1,.633.234.807.807,0,0,1,.242.625.844.844,0,0,1-.258.621.929.929,0,0,1-.625.254.788.788,0,0,1-.859-.828.874.874,0,0,1,.867-.906Zm8.43-2.32-.648,2.719-.859.008.625-3.93,1.063.07Zm2.047,0-.648,2.719h-.859l.625-3.922,1.063.07Zm4.016,1.414-2.094,3.75H86.008l3.258-5.68h.969l1.273,5.68H90.273Zm9.164,5.625h1.531l-.211,1.18H98.445L97.984,137H96.563l.461-2.641H91.992l.164-.93,6.25-7.8h1.547Zm-4.8,0h3.375l1.016-5.594-.227.328Zm8.18,2.18a.846.846,0,0,1,.633.234.807.807,0,0,1,.242.625.844.844,0,0,1-.258.621.929.929,0,0,1-.625.254.788.788,0,0,1-.859-.828.874.874,0,0,1,.867-.906Zm7.6,1.641h-1.422l1.672-9.594-3.023,1.063.242-1.375,4.219-1.523h.25Zm13.031-10.484L116.484,137h-1.547l6.148-10.187h-5.937l.188-1.187H122.8Zm1.125,8.844a.846.846,0,0,1,.633.234.807.807,0,0,1,.242.625.844.844,0,0,1-.258.621.929.929,0,0,1-.625.254.788.788,0,0,1-.859-.828.874.874,0,0,1,.867-.906Zm10.3,1.641h-7.242l.172-1.1,4.2-4.078.766-.758a4.483,4.483,0,0,0,1.461-2.437,1.807,1.807,0,0,0-.336-1.4,1.58,1.58,0,0,0-1.234-.574,2.328,2.328,0,0,0-1.711.6,2.745,2.745,0,0,0-.836,1.723l-1.4.008a3.956,3.956,0,0,1,.645-1.855,3.59,3.59,0,0,1,1.43-1.242,4.108,4.108,0,0,1,1.926-.41,3.156,3.156,0,0,1,2.246.855,2.535,2.535,0,0,1,.715,2.137,5.445,5.445,0,0,1-1.727,3.156l-.719.727-3.656,3.477h5.492Zm6.094,0h-1.422l1.672-9.594-3.023,1.063.242-1.375,4.219-1.523h.25Zm7.148-10.859-.648,2.719-.859.008.625-3.93,1.063.07Zm2.047,0-.648,2.719h-.859l.625-3.922,1.063.07ZM6.938,162.961a3.032,3.032,0,0,0,2.031-2.687l.242-1.766a2.96,2.96,0,0,1,1.766-2.352,2.064,2.064,0,0,1-.984-1.687,3.306,3.306,0,0,1,.008-.68l.242-1.922.016-.555a1.856,1.856,0,0,0-1.187-1.891l.352-.883a3.174,3.174,0,0,1,1.781,1.348,3.534,3.534,0,0,1,.414,2.27l-.211,1.625a2.971,2.971,0,0,0-.008.711,1.187,1.187,0,0,0,1.273,1.117l-.117,1.133A1.938,1.938,0,0,0,10.6,158.68l-.219,1.617a4.117,4.117,0,0,1-3.227,3.578Zm6.164.313-.812-.586a5.16,5.16,0,0,0,1.125-2.219l.2-1.18H15l-.164,1.055A4.521,4.521,0,0,1,13.1,163.273Zm-2.187,10.867-.648,2.719-.859.008.625-3.93,1.063.07Zm2.047,0-.648,2.719h-.859l.625-3.922,1.063.07Zm.57,6.617a6.577,6.577,0,0,1,.711-2.328,4.03,4.03,0,0,1,1.367-1.555,3.127,3.127,0,0,1,1.789-.492,2.64,2.64,0,0,1,2.172,1.031L20.383,173H21.8l-2.078,12H18.43l.148-.906a3.116,3.116,0,0,1-2.469,1.063,2.335,2.335,0,0,1-1.867-.918,4,4,0,0,1-.75-2.379A7.6,7.6,0,0,1,13.531,180.758Zm1.359.808a2.929,2.929,0,0,0,.4,1.732,1.437,1.437,0,0,0,1.234.632A2.554,2.554,0,0,0,18.7,182.7l.672-3.9a1.754,1.754,0,0,0-1.7-1.186,2.143,2.143,0,0,0-1.473.5,3.256,3.256,0,0,0-.969,1.475A6.082,6.082,0,0,0,14.891,181.565Zm10.719,3.591a3.048,3.048,0,0,1-2.469-1.164,4.006,4.006,0,0,1-.75-2.9l.039-.336a5.624,5.624,0,0,1,.746-2.3,4.339,4.339,0,0,1,1.5-1.566,3.491,3.491,0,0,1,1.906-.5,2.688,2.688,0,0,1,2.047.867,3.566,3.566,0,0,1,.813,2.266,6.621,6.621,0,0,1-.031,1.016l-.086.648H23.8a2.856,2.856,0,0,0,.379,1.953,1.8,1.8,0,0,0,1.551.836,3.007,3.007,0,0,0,2.313-1.125l.813.688a3.718,3.718,0,0,1-1.371,1.2A3.886,3.886,0,0,1,25.609,185.156Zm.9-7.586a2.066,2.066,0,0,0-1.527.594A4.22,4.22,0,0,0,23.945,180l4.109.008.031-.125a2.313,2.313,0,0,0-.316-1.637A1.488,1.488,0,0,0,26.508,177.57Zm6.711,5.453,3.047-6.477h1.492L33.5,185H32.422l-1.656-8.453h1.391ZM37.961,185l1.977-11.375,2.953.008a4.1,4.1,0,0,1,2.395.7,3.835,3.835,0,0,1,1.441,1.918,5.962,5.962,0,0,1,.258,2.738l-.078.57a6.432,6.432,0,0,1-1.93,3.965A5.611,5.611,0,0,1,40.992,185Zm3.227-10.148-1.547,8.914,1.445.008a4.061,4.061,0,0,0,2.809-1.031,4.9,4.9,0,0,0,1.5-2.828,9.2,9.2,0,0,0,.188-2.445,2.978,2.978,0,0,0-.8-1.895,2.605,2.605,0,0,0-1.844-.715Zm10.469,10.3a3.048,3.048,0,0,1-2.469-1.164,4.006,4.006,0,0,1-.75-2.9l.039-.336a5.624,5.624,0,0,1,.746-2.3,4.339,4.339,0,0,1,1.5-1.566,3.491,3.491,0,0,1,1.906-.5,2.688,2.688,0,0,1,2.047.867,3.566,3.566,0,0,1,.813,2.266,6.621,6.621,0,0,1-.031,1.016l-.086.648H49.844a2.855,2.855,0,0,0,.379,1.953,1.8,1.8,0,0,0,1.551.836,3.007,3.007,0,0,0,2.313-1.125l.813.688a3.718,3.718,0,0,1-1.371,1.2A3.886,3.886,0,0,1,51.656,185.156Zm.9-7.586a2.066,2.066,0,0,0-1.527.594A4.22,4.22,0,0,0,49.992,180l4.109.008.031-.125a2.313,2.313,0,0,0-.316-1.637A1.488,1.488,0,0,0,52.555,177.57Zm11.4,3.242a6.707,6.707,0,0,1-.7,2.32,3.949,3.949,0,0,1-1.336,1.543,3.058,3.058,0,0,1-1.766.488,2.815,2.815,0,0,1-2.25-.992l-.758,4.078H55.734l2.031-11.7,1.281-.008-.156.945a3.207,3.207,0,0,1,2.508-1.094,2.358,2.358,0,0,1,1.9.9,3.954,3.954,0,0,1,.719,2.391,8.412,8.412,0,0,1-.039.969Zm-1.391-.16L62.6,180a2.969,2.969,0,0,0-.434-1.744,1.525,1.525,0,0,0-1.254-.636A2.508,2.508,0,0,0,58.8,178.78l-.711,4.05a1.769,1.769,0,0,0,1.711,1.155,2.224,2.224,0,0,0,1.793-.823A4.777,4.777,0,0,0,62.563,180.652Zm6.18,4.5a3.048,3.048,0,0,1-2.469-1.164,4.006,4.006,0,0,1-.75-2.9l.039-.336a5.624,5.624,0,0,1,.746-2.3,4.339,4.339,0,0,1,1.5-1.566,3.491,3.491,0,0,1,1.906-.5,2.688,2.688,0,0,1,2.047.867,3.566,3.566,0,0,1,.813,2.266,6.62,6.62,0,0,1-.031,1.016l-.086.648H66.93a2.856,2.856,0,0,0,.379,1.953,1.8,1.8,0,0,0,1.551.836,3.007,3.007,0,0,0,2.313-1.125l.813.688a3.718,3.718,0,0,1-1.371,1.2A3.886,3.886,0,0,1,68.742,185.156Zm.9-7.586a2.066,2.066,0,0,0-1.527.594A4.22,4.22,0,0,0,67.078,180l4.109.008.031-.125a2.313,2.313,0,0,0-.316-1.637A1.488,1.488,0,0,0,69.641,177.57Zm6.547-1.031-.2,1.07a3.333,3.333,0,0,1,2.594-1.219,2.1,2.1,0,0,1,1.766.828,3.217,3.217,0,0,1,.422,2.242L79.844,185H78.43l.93-5.557a2.962,2.962,0,0,0,.008-.71,1.168,1.168,0,0,0-1.289-1.116,2.661,2.661,0,0,0-2.234,1.358L74.8,185H73.383l1.469-8.453Zm6.242,4.219a6.577,6.577,0,0,1,.711-2.328,4.03,4.03,0,0,1,1.367-1.555,3.127,3.127,0,0,1,1.789-.492,2.64,2.64,0,0,1,2.172,1.031L89.281,173H90.7l-2.078,12H87.328l.148-.906a3.116,3.116,0,0,1-2.469,1.063,2.335,2.335,0,0,1-1.867-.918,4,4,0,0,1-.75-2.379A7.6,7.6,0,0,1,82.43,180.758Zm1.359.808a2.929,2.929,0,0,0,.4,1.732,1.437,1.437,0,0,0,1.234.632A2.554,2.554,0,0,0,87.6,182.7l.672-3.9a1.754,1.754,0,0,0-1.7-1.186,2.143,2.143,0,0,0-1.473.5,3.256,3.256,0,0,0-.969,1.475A6.082,6.082,0,0,0,83.789,181.565Zm10.719,3.591a3.048,3.048,0,0,1-2.469-1.164,4.006,4.006,0,0,1-.75-2.9l.039-.336a5.624,5.624,0,0,1,.746-2.3,4.339,4.339,0,0,1,1.5-1.566,3.491,3.491,0,0,1,1.906-.5,2.688,2.688,0,0,1,2.047.867,3.566,3.566,0,0,1,.813,2.266,6.62,6.62,0,0,1-.031,1.016l-.086.648H92.7a2.856,2.856,0,0,0,.379,1.953,1.8,1.8,0,0,0,1.551.836,3.007,3.007,0,0,0,2.313-1.125l.813.688a3.718,3.718,0,0,1-1.371,1.2A3.886,3.886,0,0,1,94.508,185.156Zm.9-7.586a2.066,2.066,0,0,0-1.527.594A4.22,4.22,0,0,0,92.844,180l4.109.008.031-.125a2.313,2.313,0,0,0-.316-1.637A1.488,1.488,0,0,0,95.406,177.57Zm6.547-1.031-.2,1.07a3.333,3.333,0,0,1,2.594-1.219,2.1,2.1,0,0,1,1.766.828,3.217,3.217,0,0,1,.422,2.242L105.609,185H104.2l.93-5.557a2.962,2.962,0,0,0,.008-.71,1.168,1.168,0,0,0-1.289-1.116,2.661,2.661,0,0,0-2.234,1.358L100.563,185H99.148l1.469-8.453Zm9.406,7.445a2.145,2.145,0,0,0,1.367-.441,2.1,2.1,0,0,0,.8-1.2l1.336-.008a3.014,3.014,0,0,1-.637,1.453,3.68,3.68,0,0,1-2.926,1.367,3.017,3.017,0,0,1-1.785-.551,3.084,3.084,0,0,1-1.074-1.492,4.972,4.972,0,0,1-.234-2.152l.039-.391a5.605,5.605,0,0,1,.711-2.18,4.11,4.11,0,0,1,1.469-1.5,3.649,3.649,0,0,1,2-.5,2.857,2.857,0,0,1,2.125.891,3.08,3.08,0,0,1,.8,2.18l-1.32-.008a2.029,2.029,0,0,0-.461-1.34,1.607,1.607,0,0,0-1.2-.543,2.254,2.254,0,0,0-1.832.82,4.3,4.3,0,0,0-.91,2.359l-.023.2a6.776,6.776,0,0,0-.016,1.031,2.355,2.355,0,0,0,.516,1.445A1.656,1.656,0,0,0,111.359,183.984ZM117.523,185h-1.406l1.469-8.453h1.406Zm1.164-11.539a.774.774,0,0,1,.6.215.8.8,0,0,1,.238.605.834.834,0,0,1-.836.852.779.779,0,0,1-.6-.211.764.764,0,0,1-.227-.594.886.886,0,0,1,.234-.609A.826.826,0,0,1,118.688,173.461Zm4.8,11.7a3.048,3.048,0,0,1-2.469-1.164,4.006,4.006,0,0,1-.75-2.9l.039-.336a5.624,5.624,0,0,1,.746-2.3,4.339,4.339,0,0,1,1.5-1.566,3.491,3.491,0,0,1,1.906-.5,2.688,2.688,0,0,1,2.047.867,3.566,3.566,0,0,1,.813,2.266,6.62,6.62,0,0,1-.031,1.016l-.086.648H121.68a2.856,2.856,0,0,0,.379,1.953,1.8,1.8,0,0,0,1.551.836,3.007,3.007,0,0,0,2.313-1.125l.813.688a3.718,3.718,0,0,1-1.371,1.2A3.886,3.886,0,0,1,123.492,185.156Zm.9-7.586a2.066,2.066,0,0,0-1.527.594A4.22,4.22,0,0,0,121.828,180l4.109.008.031-.125a2.313,2.313,0,0,0-.316-1.637A1.488,1.488,0,0,0,124.391,177.57Zm8.977,5.141q.117-.875-.961-1.234l-1.469-.43q-1.859-.641-1.8-2.125a2.341,2.341,0,0,1,1.02-1.832,3.631,3.631,0,0,1,2.27-.7,3.027,3.027,0,0,1,2.082.746,2.363,2.363,0,0,1,.77,1.9l-1.406-.008a1.319,1.319,0,0,0-.4-1.031,1.576,1.576,0,0,0-1.1-.414,2.059,2.059,0,0,0-1.266.359,1.316,1.316,0,0,0-.57.922q-.1.734.9,1.07l.711.2a4.577,4.577,0,0,1,2.063.977,1.865,1.865,0,0,1,.563,1.492,2.37,2.37,0,0,1-.516,1.375,2.948,2.948,0,0,1-1.25.895,4.18,4.18,0,0,1-1.664.285,3.3,3.3,0,0,1-2.219-.785,2.427,2.427,0,0,1-.844-1.98l1.414.008a1.5,1.5,0,0,0,.453,1.141,1.732,1.732,0,0,0,1.242.43,2.436,2.436,0,0,0,1.336-.324A1.247,1.247,0,0,0,133.367,182.711Zm5.672-8.57-.648,2.719-.859.008.625-3.93,1.063.07Zm2.047,0-.648,2.719h-.859l.625-3.922,1.063.07Zm1.125,9.219a.846.846,0,0,1,.633.234.807.807,0,0,1,.242.625.844.844,0,0,1-.258.621.929.929,0,0,1-.625.254.788.788,0,0,1-.859-.828.874.874,0,0,1,.867-.906Zm1.2-6.9a.846.846,0,0,1,.633.234.807.807,0,0,1,.242.625.844.844,0,0,1-.258.621.929.929,0,0,1-.625.254.788.788,0,0,1-.859-.828.874.874,0,0,1,.867-.906Zm9.094,11.391a3.249,3.249,0,0,1-1.812-1.348,3.487,3.487,0,0,1-.43-2.277l.219-1.617a2.968,2.968,0,0,0,.008-.711,1.2,1.2,0,0,0-1.281-1.125l.125-1.133a1.925,1.925,0,0,0,1.945-1.914l.242-1.781a4.125,4.125,0,0,1,3.2-3.437l.211.914a3.018,3.018,0,0,0-2.008,2.633l-.266,1.875a3.024,3.024,0,0,1-1.648,2.3,2.218,2.218,0,0,1,.883,1.711,4.225,4.225,0,0,1-.008.68l-.242,1.9-.016.555.016.242a1.839,1.839,0,0,0,1.18,1.656ZM18.758,198.141l-.648,2.719-.859.008.625-3.93,1.063.07Zm2.047,0-.648,2.719H19.3l.625-3.922,1.063.07Zm3.094,2.406-1.6,9.461a2.989,2.989,0,0,1-.8,1.82,2.264,2.264,0,0,1-1.684.609,4.171,4.171,0,0,1-.93-.156l.125-1.156a3.372,3.372,0,0,0,.648.086q1.008,0,1.211-1.2l1.617-9.461Zm-1.172-2.219a.9.9,0,0,1,.23-.609.822.822,0,0,1,.6-.258.761.761,0,0,1,.6.223.811.811,0,0,1,.238.6.841.841,0,0,1-.242.6.87.87,0,0,1-.6.25.745.745,0,0,1-.586-.219A.8.8,0,0,1,22.727,198.328Zm5.68,10.828a3.048,3.048,0,0,1-2.469-1.164,4.006,4.006,0,0,1-.75-2.9l.039-.336a5.624,5.624,0,0,1,.746-2.3,4.339,4.339,0,0,1,1.5-1.566,3.491,3.491,0,0,1,1.906-.5,2.688,2.688,0,0,1,2.047.867,3.566,3.566,0,0,1,.813,2.266,6.621,6.621,0,0,1-.031,1.016l-.086.648H26.594a2.856,2.856,0,0,0,.379,1.953,1.8,1.8,0,0,0,1.551.836,3.007,3.007,0,0,0,2.313-1.125l.813.688a3.718,3.718,0,0,1-1.371,1.2A3.886,3.886,0,0,1,28.406,209.156Zm.9-7.586a2.066,2.066,0,0,0-1.527.594A4.22,4.22,0,0,0,26.742,204l4.109.008.031-.125a2.313,2.313,0,0,0-.316-1.637A1.488,1.488,0,0,0,29.3,201.57Zm8.977,5.141q.117-.875-.961-1.234l-1.469-.43q-1.859-.641-1.8-2.125a2.341,2.341,0,0,1,1.02-1.832,3.631,3.631,0,0,1,2.27-.7,3.027,3.027,0,0,1,2.082.746,2.363,2.363,0,0,1,.77,1.9l-1.406-.008a1.319,1.319,0,0,0-.4-1.031,1.576,1.576,0,0,0-1.1-.414,2.059,2.059,0,0,0-1.266.359,1.316,1.316,0,0,0-.57.922q-.1.734.9,1.07l.711.2a4.577,4.577,0,0,1,2.063.977,1.865,1.865,0,0,1,.563,1.492,2.37,2.37,0,0,1-.516,1.375,2.948,2.948,0,0,1-1.25.895,4.18,4.18,0,0,1-1.664.285,3.3,3.3,0,0,1-2.219-.785,2.427,2.427,0,0,1-.844-1.98l1.414.008a1.5,1.5,0,0,0,.453,1.141,1.732,1.732,0,0,0,1.242.43,2.436,2.436,0,0,0,1.336-.324A1.247,1.247,0,0,0,38.281,206.711Zm6.578-8.211-.359,2.047h1.539l-.2,1.117H44.313l-.883,5.258a1.833,1.833,0,0,0-.008.375.6.6,0,0,0,.664.609,4.05,4.05,0,0,0,.688-.078l-.109,1.18a3.847,3.847,0,0,1-1.031.141,1.476,1.476,0,0,1-1.266-.621,2.4,2.4,0,0,1-.328-1.629l.859-5.234H41.406l.2-1.117h1.492l.359-2.047Zm4.242-.359-.648,2.719-.859.008.625-3.93,1.063.07Zm2.047,0-.648,2.719h-.859l.625-3.922,1.063.07Zm1.125,9.219a.846.846,0,0,1,.633.234.807.807,0,0,1,.242.625.844.844,0,0,1-.258.621.929.929,0,0,1-.625.254.788.788,0,0,1-.859-.828.874.874,0,0,1,.867-.906Zm1.2-6.9a.846.846,0,0,1,.633.234.807.807,0,0,1,.242.625.844.844,0,0,1-.258.621.929.929,0,0,1-.625.254.788.788,0,0,1-.859-.828.874.874,0,0,1,.867-.906Zm8.43-2.32-.648,2.719-.859.008.625-3.93,1.063.07Zm2.047,0-.648,2.719h-.859l.625-3.922,1.063.07Zm4.016,1.414-2.094,3.75H64.484l3.258-5.68h.969l1.273,5.68H68.75ZM77.852,209H70.609l.172-1.1,4.2-4.078.766-.758a4.483,4.483,0,0,0,1.461-2.437,1.807,1.807,0,0,0-.336-1.4,1.58,1.58,0,0,0-1.234-.574,2.328,2.328,0,0,0-1.711.6,2.745,2.745,0,0,0-.836,1.723l-1.4.008a3.956,3.956,0,0,1,.645-1.855,3.59,3.59,0,0,1,1.43-1.242,4.108,4.108,0,0,1,1.926-.41,3.156,3.156,0,0,1,2.246.855,2.535,2.535,0,0,1,.715,2.137,5.445,5.445,0,0,1-1.727,3.156l-.719.727-3.656,3.477h5.492ZM88.18,198.516,82,209H80.453L86.6,198.813H80.664l.188-1.187H88.32Zm1.125,8.844a.846.846,0,0,1,.633.234.807.807,0,0,1,.242.625.844.844,0,0,1-.258.621.929.929,0,0,1-.625.254.788.788,0,0,1-.859-.828.874.874,0,0,1,.867-.906Zm6.57,1.8a2.567,2.567,0,0,1-2.156-1.02,4.526,4.526,0,0,1-.656-2.848q.016-.578.086-1.141l.281-1.9a7.043,7.043,0,0,1,1.43-3.625,3.418,3.418,0,0,1,2.781-1.156,2.6,2.6,0,0,1,2.168,1,4.426,4.426,0,0,1,.66,2.8q-.023.586-.094,1.148l-.273,1.836a7.463,7.463,0,0,1-1.461,3.758A3.4,3.4,0,0,1,95.875,209.156Zm3.133-7a12.092,12.092,0,0,0,.1-1.469q-.039-1.984-1.539-2.039a2.053,2.053,0,0,0-1.77.809,5.606,5.606,0,0,0-.941,2.66l-.336,2.266a11.525,11.525,0,0,0-.1,1.477q.039,2.07,1.531,2.125a2.007,2.007,0,0,0,1.715-.766,5.429,5.429,0,0,0,.965-2.578Zm3.258,5.2a.846.846,0,0,1,.633.234.807.807,0,0,1,.242.625.844.844,0,0,1-.258.621.929.929,0,0,1-.625.254.788.788,0,0,1-.859-.828.874.874,0,0,1,.867-.906Zm10.344-9.75-.125,1.227h-.273a4.137,4.137,0,0,0-2.672.969,6,6,0,0,0-1.719,2.766,3.294,3.294,0,0,1,2.484-1.031,2.57,2.57,0,0,1,1.539.5,2.765,2.765,0,0,1,.941,1.328,4.353,4.353,0,0,1,.207,1.871,4.554,4.554,0,0,1-1.238,2.848,3.4,3.4,0,0,1-2.66,1.074,2.775,2.775,0,0,1-2.078-.93,3.927,3.927,0,0,1-.93-2.406,9.107,9.107,0,0,1,.2-2.219,8.049,8.049,0,0,1,2.129-4.453,5.574,5.574,0,0,1,4.043-1.539ZM110,202.734a2.386,2.386,0,0,0-1.422.438,3.076,3.076,0,0,0-1.023,1.156l-.055.523-.016.633a4,4,0,0,0,.2,1.242,1.9,1.9,0,0,0,.578.914,1.413,1.413,0,0,0,.9.32,2,2,0,0,0,1.621-.7,3.748,3.748,0,0,0,.723-3.242,1.894,1.894,0,0,0-.543-.926A1.441,1.441,0,0,0,110,202.734Zm7.016-4.594-.648,2.719-.859.008.625-3.93,1.063.07Zm2.047,0-.648,2.719h-.859l.625-3.922,1.063.07Zm-.148,13.133-.812-.586a5.16,5.16,0,0,0,1.125-2.219l.2-1.18h1.383l-.164,1.055A4.521,4.521,0,0,1,118.914,211.273ZM18.758,222.141l-.648,2.719-.859.008.625-3.93,1.063.07Zm2.047,0-.648,2.719H19.3l.625-3.922,1.063.07Zm3.82,11.016a3.048,3.048,0,0,1-2.469-1.164,4.006,4.006,0,0,1-.75-2.9l.039-.336a5.624,5.624,0,0,1,.746-2.3,4.339,4.339,0,0,1,1.5-1.566,3.491,3.491,0,0,1,1.906-.5,2.688,2.688,0,0,1,2.047.867,3.566,3.566,0,0,1,.813,2.266,6.621,6.621,0,0,1-.031,1.016l-.086.648H22.813a2.856,2.856,0,0,0,.379,1.953,1.8,1.8,0,0,0,1.551.836,3.007,3.007,0,0,0,2.313-1.125l.813.688a3.718,3.718,0,0,1-1.371,1.2A3.886,3.886,0,0,1,24.625,233.156Zm.9-7.586a2.066,2.066,0,0,0-1.527.594A4.22,4.22,0,0,0,22.961,228l4.109.008.031-.125a2.313,2.313,0,0,0-.316-1.637A1.488,1.488,0,0,0,25.523,225.57Zm8.977,5.141q.117-.875-.961-1.234l-1.469-.43q-1.859-.641-1.8-2.125a2.341,2.341,0,0,1,1.02-1.832,3.631,3.631,0,0,1,2.27-.7,3.027,3.027,0,0,1,2.082.746,2.363,2.363,0,0,1,.77,1.9l-1.406-.008a1.319,1.319,0,0,0-.4-1.031,1.576,1.576,0,0,0-1.1-.414,2.059,2.059,0,0,0-1.266.359,1.316,1.316,0,0,0-.57.922q-.1.734.9,1.07l.711.2a4.577,4.577,0,0,1,2.063.977,1.865,1.865,0,0,1,.563,1.492,2.37,2.37,0,0,1-.516,1.375,2.948,2.948,0,0,1-1.25.895,4.18,4.18,0,0,1-1.664.285,3.3,3.3,0,0,1-2.219-.785,2.427,2.427,0,0,1-.844-1.98l1.414.008a1.5,1.5,0,0,0,.453,1.141,1.732,1.732,0,0,0,1.242.43,2.436,2.436,0,0,0,1.336-.324A1.247,1.247,0,0,0,34.5,230.711ZM38.875,233H37.469l2.078-12h1.414Zm3.844,0H41.313l1.469-8.453h1.406Zm1.164-11.539a.774.774,0,0,1,.6.215.8.8,0,0,1,.238.605.834.834,0,0,1-.836.852.779.779,0,0,1-.6-.211.764.764,0,0,1-.227-.594.886.886,0,0,1,.234-.609A.826.826,0,0,1,43.883,221.461Zm3.953,3.078-.2,1.07a3.333,3.333,0,0,1,2.594-1.219,2.1,2.1,0,0,1,1.766.828,3.217,3.217,0,0,1,.422,2.242L51.492,233H50.078l.93-5.557a2.962,2.962,0,0,0,.008-.71,1.168,1.168,0,0,0-1.289-1.116,2.661,2.661,0,0,0-2.234,1.358L46.445,233H45.031l1.469-8.453Zm9.57-2.039-.359,2.047h1.539l-.2,1.117H56.859l-.883,5.258a1.833,1.833,0,0,0-.008.375.6.6,0,0,0,.664.609,4.05,4.05,0,0,0,.688-.078l-.109,1.18a3.847,3.847,0,0,1-1.031.141,1.476,1.476,0,0,1-1.266-.621,2.4,2.4,0,0,1-.328-1.629l.859-5.234H53.953l.2-1.117h1.492L56,222.5Zm4.242-.359L61,224.859l-.859.008.625-3.93,1.063.07Zm2.047,0-.648,2.719h-.859l.625-3.922,1.063.07Zm1.125,9.219a.846.846,0,0,1,.633.234.807.807,0,0,1,.242.625.844.844,0,0,1-.258.621.929.929,0,0,1-.625.254.788.788,0,0,1-.859-.828.874.874,0,0,1,.867-.906Zm1.2-6.9a.846.846,0,0,1,.633.234.807.807,0,0,1,.242.625.844.844,0,0,1-.258.621.929.929,0,0,1-.625.254.788.788,0,0,1-.859-.828.874.874,0,0,1,.867-.906Zm8.43-2.32-.648,2.719-.859.008.625-3.93,1.063.07Zm2.047,0-.648,2.719h-.859l.625-3.922,1.063.07Zm4.016,1.414-2.094,3.75H77.031l3.258-5.68h.969l1.273,5.68H81.3Zm11.422-1.039L85.75,233H84.2l6.148-10.187H84.414l.188-1.187H92.07Zm1.125,8.844a.846.846,0,0,1,.633.234.807.807,0,0,1,.242.625.844.844,0,0,1-.258.621.929.929,0,0,1-.625.254.788.788,0,0,1-.859-.828.874.874,0,0,1,.867-.906Zm6.133-4.75.938.008a2.769,2.769,0,0,0,1.738-.543,2.058,2.058,0,0,0,.809-1.473,1.814,1.814,0,0,0-.336-1.426,1.613,1.613,0,0,0-1.273-.535,2.175,2.175,0,0,0-1.512.52,2.294,2.294,0,0,0-.762,1.441l-1.4.008a3.241,3.241,0,0,1,1.2-2.285,3.8,3.8,0,0,1,2.543-.863,3.04,3.04,0,0,1,2.246.895,2.838,2.838,0,0,1,.707,2.277,2.631,2.631,0,0,1-.617,1.469,4.112,4.112,0,0,1-1.516,1.1,2.248,2.248,0,0,1,1.156.988,2.757,2.757,0,0,1,.32,1.582,3.491,3.491,0,0,1-1.223,2.477,3.844,3.844,0,0,1-2.668.906,3.234,3.234,0,0,1-2.328-.906,2.874,2.874,0,0,1-.8-2.258L97.82,230a1.9,1.9,0,0,0,.422,1.41,1.8,1.8,0,0,0,1.359.566,2.273,2.273,0,0,0,1.664-.57,2.38,2.38,0,0,0,.758-1.609,1.741,1.741,0,0,0-.422-1.449,2.127,2.127,0,0,0-1.516-.551L99,227.789ZM112.156,233h-7.242l.172-1.1,4.2-4.078.766-.758a4.483,4.483,0,0,0,1.461-2.437,1.807,1.807,0,0,0-.336-1.4,1.58,1.58,0,0,0-1.234-.574,2.328,2.328,0,0,0-1.711.6,2.745,2.745,0,0,0-.836,1.723l-1.4.008a3.956,3.956,0,0,1,.645-1.855,3.59,3.59,0,0,1,1.43-1.242,4.108,4.108,0,0,1,1.926-.41,3.156,3.156,0,0,1,2.246.855,2.535,2.535,0,0,1,.715,2.137,5.445,5.445,0,0,1-1.727,3.156l-.719.727-3.656,3.477h5.492Zm2.656-1.641a.846.846,0,0,1,.633.234.807.807,0,0,1,.242.625.844.844,0,0,1-.258.621.929.929,0,0,1-.625.254.788.788,0,0,1-.859-.828.874.874,0,0,1,.867-.906Zm6.57,1.8a2.567,2.567,0,0,1-2.156-1.02,4.526,4.526,0,0,1-.656-2.848q.016-.578.086-1.141l.281-1.9a7.043,7.043,0,0,1,1.43-3.625,3.418,3.418,0,0,1,2.781-1.156,2.6,2.6,0,0,1,2.168,1,4.426,4.426,0,0,1,.66,2.8q-.023.586-.094,1.148l-.273,1.836a7.463,7.463,0,0,1-1.461,3.758A3.4,3.4,0,0,1,121.383,233.156Zm3.133-7a12.092,12.092,0,0,0,.1-1.469q-.039-1.984-1.539-2.039a2.053,2.053,0,0,0-1.77.809,5.606,5.606,0,0,0-.941,2.66l-.336,2.266a11.525,11.525,0,0,0-.1,1.477q.039,2.07,1.531,2.125a2.007,2.007,0,0,0,1.715-.766,5.429,5.429,0,0,0,.965-2.578Zm5.047-4.016-.648,2.719-.859.008.625-3.93,1.063.07Zm2.047,0-.648,2.719H130.1l.625-3.922,1.063.07ZM6.938,258.961a3.032,3.032,0,0,0,2.031-2.687l.242-1.766a2.96,2.96,0,0,1,1.766-2.352,2.064,2.064,0,0,1-.984-1.687,3.306,3.306,0,0,1,.008-.68l.242-1.922.016-.555a1.856,1.856,0,0,0-1.187-1.891l.352-.883a3.174,3.174,0,0,1,1.781,1.348,3.534,3.534,0,0,1,.414,2.27l-.211,1.625a2.971,2.971,0,0,0-.008.711,1.187,1.187,0,0,0,1.273,1.117l-.117,1.133A1.938,1.938,0,0,0,10.6,254.68l-.219,1.617a4.117,4.117,0,0,1-3.227,3.578Zm-7.844,24a3.032,3.032,0,0,0,2.031-2.687l.242-1.766a2.96,2.96,0,0,1,1.766-2.352,2.064,2.064,0,0,1-.984-1.687,3.306,3.306,0,0,1,.008-.68l.242-1.922.016-.555a1.856,1.856,0,0,0-1.187-1.891l.352-.883a3.173,3.173,0,0,1,1.781,1.348,3.534,3.534,0,0,1,.414,2.27l-.211,1.625a2.971,2.971,0,0,0-.008.711,1.187,1.187,0,0,0,1.273,1.117l-.117,1.133a1.938,1.938,0,0,0-1.953,1.938L2.539,280.3a4.117,4.117,0,0,1-3.227,3.578Z" transform="translate(941.751 2379.582)" fill="#fff"/>
    <path id="Trazado_882729" data-name="Trazado 882729" d="M9,0H496a9,9,0,0,1,9,9V55H0V9A9,9,0,0,1,9,0Z" transform="translate(915 2308.686)" fill="#3a1d71"/>
    <path id="Trazado_882730" data-name="Trazado 882730" d="M8,0A8,8,0,1,1,0,8,8,8,0,0,1,8,0Z" transform="translate(947 2327.686)" fill="#fb130d"/>
    <path id="Trazado_882731" data-name="Trazado 882731" d="M8,0A8,8,0,1,1,0,8,8,8,0,0,1,8,0Z" transform="translate(978 2327.686)" fill="#fecd02"/>
    <path id="Trazado_882732" data-name="Trazado 882732" d="M8,0A8,8,0,1,1,0,8,8,8,0,0,1,8,0Z" transform="translate(1008.578 2327.686)" fill="#43dfaa"/>
  </g>
</svg>
