<svg xmlns="http://www.w3.org/2000/svg" width="190" height="188.782" viewBox="0 0 190 188.782">
  <g id="Grupo_1099850" data-name="Grupo 1099850" transform="translate(-1230 -1201)">
    <rect id="Rectángulo_35929" data-name="Rectángulo 35929" width="190" height="188.782" rx="13" transform="translate(1230 1201)" fill="#a0f2c0"/>
    <g id="programador" transform="translate(1246.958 1226.033)">
      <path id="Trazado_881483" data-name="Trazado 881483" d="M130.145,223.9v17.693l19.486.612a.07.07,0,0,0,0-.008l.022-.013V223.817A23.35,23.35,0,0,1,130.145,223.9Z" transform="translate(-90.455 -155.611)" fill="#eab883"/>
      <path id="Trazado_881484" data-name="Trazado 881484" d="M139.29,226.173a22.553,22.553,0,0,1-9.145-2.091v17.693l11.187.351-1.416-3.915C138.905,235.417,139.44,233.884,139.29,226.173Z" transform="translate(-90.455 -155.795)" fill="#dda36f"/>
      <path id="Trazado_881485" data-name="Trazado 881485" d="M151.5,268.893a13.947,13.947,0,0,1-16.363-.1l-.126-.092v19.514H151.76V268.7Z" transform="translate(-93.836 -186.819)" fill="#efefef"/>
      <path id="Trazado_881486" data-name="Trazado 881486" d="M148.792,284.424l-4.684-12.948a14.529,14.529,0,0,1-9.1-2.771v19.514h9.2C145.809,287.052,148.792,284.424,148.792,284.424Z" transform="translate(-93.836 -186.82)" fill="#ddd"/>
      <path id="Trazado_881487" data-name="Trazado 881487" d="M101.671,326.381,93.633,276.42c-1.435-7.189-8.1-8.4-8.384-8.522h0l-8.978-2.484-1.1-.646-18,16.136,0-.012a2.687,2.687,0,0,1-5.027,0l0,.012-18-16.137-1.1.646L24.084,267.9h0c-.282.127-6.949,1.333-8.384,8.522L7.661,326.381a9.694,9.694,0,0,0,9.505,11.442h75A9.694,9.694,0,0,0,101.671,326.381Z" transform="translate(-5.201 -184.082)" fill="#70b5e8"/>
      <g id="Grupo_1102617" data-name="Grupo 1102617" transform="translate(2.322 74.352)">
        <path id="Trazado_881488" data-name="Trazado 881488" d="M16.785,331.444l8.038-54.227a10.536,10.536,0,0,1,2.554-5.168l-3.294.911h0c-.282.127-6.949,1.333-8.384,8.522L7.661,331.444a9.694,9.694,0,0,0,9.506,11.442h9.124A9.694,9.694,0,0,1,16.785,331.444Z" transform="translate(-7.524 -263.496)" fill="#52a5d8"/>
        <path id="Trazado_881489" data-name="Trazado 881489" d="M110.422,266.455l-19.1-15.491,11.83-6.979v3.706Z" transform="translate(-65.788 -243.985)" fill="#52a5d8"/>
        <path id="Trazado_881490" data-name="Trazado 881490" d="M170.455,266.455l19.1-15.491-11.871-6.979v3.706Z" transform="translate(-120.803 -243.985)" fill="#52a5d8"/>
      </g>
      <path id="Trazado_881491" data-name="Trazado 881491" d="M112.414,426.855V437.98h23.6V426.855A6.586,6.586,0,0,1,141,420.477c-4.226-2.14-5.791-6.719-6.362-9.457a2.747,2.747,0,0,0-2.684-2.2H116.3a2.748,2.748,0,0,0-2.685,2.2c-.568,2.726-2.122,7.273-6.3,9.425A6.587,6.587,0,0,1,112.414,426.855Z" transform="translate(-74.577 -284.239)" fill="#a4d9f4"/>
      <path id="Trazado_881492" data-name="Trazado 881492" d="M120.3,437.98V427.115a7.026,7.026,0,0,0-1.331-4.123,5.746,5.746,0,0,1,.053-6.579,17.97,17.97,0,0,0,2.565-6.324,2.984,2.984,0,0,1,.6-1.266H116.3a2.748,2.748,0,0,0-2.685,2.2c-.568,2.726-2.122,7.273-6.3,9.425a6.587,6.587,0,0,1,5.105,6.407V437.98Z" transform="translate(-74.578 -284.239)" fill="#84c7ef"/>
      <g id="Grupo_1102618" data-name="Grupo 1102618" transform="translate(36.16 140.999)">
        <path id="Trazado_881493" data-name="Trazado 881493" d="M175.563,462.688h-.6a12.78,12.78,0,0,0-12.742,12.742h13.341V462.688Z" transform="translate(-148.917 -462.688)" fill="#eab883"/>
        <path id="Trazado_881494" data-name="Trazado 881494" d="M118.563,462.688V475.43h13.3a12.779,12.779,0,0,0-12.742-12.742Z" transform="translate(-118.563 -462.688)" fill="#eab883"/>
      </g>
      <g id="Grupo_1102619" data-name="Grupo 1102619" transform="translate(36.16 147.37)">
        <path id="Trazado_881495" data-name="Trazado 881495" d="M162.222,489.965h13.341v-6.371H163.945A12.63,12.63,0,0,0,162.222,489.965Z" transform="translate(-148.917 -483.594)" fill="#dda36f"/>
        <path id="Trazado_881496" data-name="Trazado 881496" d="M118.563,483.594v6.371h13.3a12.634,12.634,0,0,0-1.723-6.371Z" transform="translate(-118.563 -483.594)" fill="#dda36f"/>
      </g>
      <path id="Trazado_881497" data-name="Trazado 881497" d="M113.844,15.723a3.562,3.562,0,0,1-2.025-1.239c-7.928-9.881-29.011-9.062-39.974,1.9-10.1,10.1-4.513,26.219-4.513,26.219h55.858C128.07,22.113,117.59,16.543,113.844,15.723Z" transform="translate(-45.712 -5.274)" fill="#93482b"/>
      <path id="Trazado_881498" data-name="Trazado 881498" d="M85.7,16.387a31,31,0,0,1,15.513-8.052c-9.537-2.221-21.84.523-29.37,8.052-10.1,10.1-4.513,26.219-4.513,26.219H81.188S75.6,26.488,85.7,16.387Z" transform="translate(-45.712 -5.275)" fill="#843d26"/>
      <g id="Grupo_1102620" data-name="Grupo 1102620" transform="translate(18.929 34.576)">
        <path id="Trazado_881499" data-name="Trazado 881499" d="M64.746,114.8l-.009-.009a5.518,5.518,0,0,0,0,9.512l.009-.009a8.161,8.161,0,0,0,4.546,1.338V113.462h0A8.161,8.161,0,0,0,64.746,114.8Z" transform="translate(-62.018 -113.462)" fill="#eab883"/>
        <path id="Trazado_881500" data-name="Trazado 881500" d="M243.62,114.8l.009-.009a5.962,5.962,0,0,1,2.634,3.826l0,.025c.016.09.03.181.041.272,0,.025.005.051.008.076.008.078.016.156.021.235s.005.139.007.208c0,.035,0,.07,0,.105,0,0,0,0,0,.007s0,0,0,.007c0,.035,0,.07,0,.105,0,.069,0,.139-.007.208s-.013.157-.021.235c0,.025,0,.051-.008.076-.011.091-.026.182-.041.272l0,.025a5.96,5.96,0,0,1-2.634,3.826l-.009-.009a8.161,8.161,0,0,1-4.546,1.337V113.464A8.241,8.241,0,0,1,243.62,114.8Z" transform="translate(-185.118 -113.463)" fill="#eab883"/>
      </g>
      <g id="Grupo_1102621" data-name="Grupo 1102621" transform="translate(18.927 37.923)">
        <path id="Trazado_881501" data-name="Trazado 881501" d="M64.733,126.464a6.456,6.456,0,0,1-1.94-2.018,5.468,5.468,0,0,0,1.94,7.493l.009-.009a8.161,8.161,0,0,0,4.546,1.338v-5.475a8.158,8.158,0,0,1-4.546-1.338Z" transform="translate(-62.013 -124.446)" fill="#dda36f"/>
        <path id="Trazado_881502" data-name="Trazado 881502" d="M246.345,127.07c0-.07,0-.139-.007-.208s-.013-.157-.021-.235c0-.025,0-.051-.008-.076-.011-.091-.025-.182-.041-.272l0-.025a5.378,5.378,0,0,0-.695-1.808,6.447,6.447,0,0,1-1.94,2.018l-.009-.009a8.161,8.161,0,0,1-4.546,1.338v5.475a8.161,8.161,0,0,0,4.546-1.338l.009.009a5.958,5.958,0,0,0,2.634-3.827l0-.025c.016-.09.03-.181.041-.272,0-.025.005-.051.008-.076.008-.078.016-.156.021-.235s.005-.139.007-.208c0-.035,0-.07,0-.105,0,0,0,0,0-.007s0,0,0-.007C246.348,127.14,246.345,127.105,246.345,127.07Z" transform="translate(-185.116 -124.445)" fill="#dda36f"/>
      </g>
      <path id="Trazado_881503" data-name="Trazado 881503" d="M132.447,111.183v-7.836a10.058,10.058,0,0,1-9.284-3.621,2.073,2.073,0,0,0-2.851-.424c-5.525,4-21.094,10.2-34.614,4.045v4.477h-.026c-.051,4.9,0,12.407.655,15.183a23.248,23.248,0,0,0,5,9.812c14.191,16.5,41.113,6.257,41.113-15.219,0-2.645-.005-4.741,0-6.417h.007Z" transform="translate(-59.525 -68.77)" fill="#f7cf9c"/>
      <path id="Trazado_881504" data-name="Trazado 881504" d="M95.389,133.123c-.656-2.776-.706-10.287-.655-15.183h.026v-2.056a29.015,29.015,0,0,1-9.061-2.42v4.477h-.026c-.051,4.9,0,12.407.655,15.183a23.2,23.2,0,0,0,27.033,17.53A23.487,23.487,0,0,1,95.389,133.123Z" transform="translate(-59.525 -78.886)" fill="#eab883"/>
      <path id="Trazado_881505" data-name="Trazado 881505" d="M309.674,229.276c-82.376,0-76.89-.16-78.018.453a3.754,3.754,0,0,0-1.965,3.3v60.014a3.756,3.756,0,0,0,3.756,3.756h76.228a3.756,3.756,0,0,0,3.756-3.756V233.032C313.429,231.606,311.743,229.276,309.674,229.276Z" transform="translate(-159.666 -159.394)" fill="#efefef"/>
      <path id="Trazado_881506" data-name="Trazado 881506" d="M242.755,293.054V233.04a3.755,3.755,0,0,1,3.756-3.756c-13.234.152-13.387-.344-14.855.453a3.754,3.754,0,0,0-1.965,3.3v60.014a3.756,3.756,0,0,0,3.756,3.756h13.064A3.756,3.756,0,0,1,242.755,293.054Z" transform="translate(-159.666 -159.401)" fill="#ddd"/>
      <path id="Trazado_881507" data-name="Trazado 881507" d="M352.049,79.936H303.235a3.667,3.667,0,0,0-3.657,3.657v24.68a3.667,3.667,0,0,0,3.657,3.657H346.2a4.016,4.016,0,0,1,2.7,1.044l3.562,3.236a1.938,1.938,0,0,0,3.241-1.434V83.593A3.668,3.668,0,0,0,352.049,79.936Z" transform="translate(-208.255 -55.576)" fill="#ffb70d"/>
      <path id="Trazado_881508" data-name="Trazado 881508" d="M309.737,108.272V83.593a3.667,3.667,0,0,1,3.657-3.657H303.236a3.667,3.667,0,0,0-3.657,3.657v24.68a3.667,3.667,0,0,0,3.657,3.657h10.158A3.667,3.667,0,0,1,309.737,108.272Z" transform="translate(-208.256 -55.576)" fill="#f4a403"/>
      <circle id="Elipse_11560" data-name="Elipse 11560" cx="4.957" cy="4.957" r="4.957" transform="translate(106.881 82.143)" fill="#ccc"/>
      <path id="Trazado_881509" data-name="Trazado 881509" d="M355.579,269.56a4.955,4.955,0,1,0,4.289,7.428A4.951,4.951,0,0,1,355.579,269.56Z" transform="translate(-243.738 -187.414)" fill="#bcbbb8"/>
      <path id="Trazado_881510" data-name="Trazado 881510" d="M356.99,384.9V338.431a.008.008,0,0,0-.008-.009H339.839a.008.008,0,0,0-.008.009V384.9Z" transform="translate(-236.242 -235.292)" fill="#ddd"/>
      <path id="Trazado_881511" data-name="Trazado 881511" d="M348.41,338.431a.008.008,0,0,1,.008-.009h-8.579a.008.008,0,0,0-.008.009V384.9h8.579Z" transform="translate(-236.242 -235.292)" fill="#ccc"/>
      <path id="Trazado_881512" data-name="Trazado 881512" d="M346.369,481.494h0a4.136,4.136,0,0,0-4.136-4.136H318.176a4.136,4.136,0,0,0-4.136,4.136h0a4.136,4.136,0,0,0,4.136,4.136h24.057A4.136,4.136,0,0,0,346.369,481.494Z" transform="translate(-218.31 -331.888)" fill="#efefef"/>
      <path id="Trazado_881513" data-name="Trazado 881513" d="M326.339,481.494h0a4.136,4.136,0,0,1,4.136-4.136h-12.3a4.136,4.136,0,0,0-4.136,4.136h0a4.136,4.136,0,0,0,4.136,4.136h12.3A4.136,4.136,0,0,1,326.339,481.494Z" transform="translate(-218.311 -331.888)" fill="#ddd"/>
      <path id="Trazado_881514" data-name="Trazado 881514" d="M343.117,269.29a7.243,7.243,0,1,0,7.243-7.242A7.251,7.251,0,0,0,343.117,269.29Zm9.914,0a2.672,2.672,0,1,1-2.672-2.672A2.675,2.675,0,0,1,353.031,269.29Z" transform="translate(-238.526 -182.192)"/>
      <path id="Trazado_881515" data-name="Trazado 881515" d="M255.786,410.5a2.285,2.285,0,1,0,0,4.57h7.034a2.285,2.285,0,0,0,0-4.57Z" transform="translate(-176.22 -285.407)"/>
      <path id="Trazado_881516" data-name="Trazado 881516" d="M305.853,411.173a2.307,2.307,0,0,0-2.062-.625,2.27,2.27,0,0,0-.427.131,2.343,2.343,0,0,0-.4.21,2.227,2.227,0,0,0-.631.631,2.353,2.353,0,0,0-.341.823,2.276,2.276,0,0,0,1.368,2.556,2.28,2.28,0,0,0,2.983-2.983A3.049,3.049,0,0,0,305.853,411.173Z" transform="translate(-209.908 -285.408)"/>
      <path id="Trazado_881517" data-name="Trazado 881517" d="M342.435,105.439a2.285,2.285,0,0,0-3.232,0l-5.64,5.64a2.285,2.285,0,0,0,0,3.232l5.64,5.64a2.285,2.285,0,1,0,3.232-3.232l-4.024-4.024,4.024-4.024A2.285,2.285,0,0,0,342.435,105.439Z" transform="translate(-231.418 -72.842)"/>
      <path id="Trazado_881518" data-name="Trazado 881518" d="M415.521,120.62c1.636,0,1.768-1.12,7.256-6.309a2.285,2.285,0,0,0,0-3.232l-5.64-5.64a2.285,2.285,0,1,0-3.232,3.232l4.024,4.024-4.024,4.024A2.288,2.288,0,0,0,415.521,120.62Z" transform="translate(-287.275 -72.842)"/>
      <path id="Trazado_881519" data-name="Trazado 881519" d="M377.588,97.877l-6.334,17.4a2.285,2.285,0,1,0,4.295,1.563l6.334-17.4a2.285,2.285,0,1,0-4.3-1.563Z" transform="translate(-257.993 -67.004)"/>
      <path id="Trazado_881520" data-name="Trazado 881520" d="M150,67.6c-79.439.257-76.591-.638-79.109.73a6.04,6.04,0,0,0-3.16,5.31V76.87l-6.254-3.8V71.457A25.172,25.172,0,0,0,75.158,48.826v-.035a10.131,10.131,0,0,0,3.314-1.341,2.266,2.266,0,0,0,.235-.139,8.048,8.048,0,0,0,3.724-6.449,7.692,7.692,0,0,0-2.464-5.834c1.813-8.528,1.2-15.294-1.827-20.118a15.023,15.023,0,0,0-9.566-6.694,1.284,1.284,0,0,1-.731-.437C61.4-.245,47.1-2.366,34.584,2.847a2.285,2.285,0,0,0,1.757,4.22C46.876,2.68,59.148,4.249,64.276,10.641A5.869,5.869,0,0,0,67.6,12.682a10.481,10.481,0,0,1,6.673,4.66c2.225,3.543,2.727,8.7,1.506,15.339a9.7,9.7,0,0,0-3.481-.329,7.705,7.705,0,0,1-6.908-2.812,4.355,4.355,0,0,0-5.987-.859c-5.083,3.684-19.533,9.433-32.022,3.945a2.26,2.26,0,0,0-1.218-.333,1.49,1.49,0,0,0-.192,0,10.774,10.774,0,0,0-2.93.442C21.314,25.275,22.5,17.7,28.05,12.388h0a2.285,2.285,0,1,0-3.164-3.3c-7.157,6.862-8.6,16.73-5.961,26.047-4.723,4.723-2.019,12.236,5,13.674a36.671,36.671,0,0,0,.608,5.955,25.368,25.368,0,0,0,5.5,10.776,26.147,26.147,0,0,0,7.374,5.98v1.528L26.955,79.209c-.031.009-9.459,2.619-8.856,2.453A13.061,13.061,0,0,0,8.253,91.89c-.005.028-.011.056-.015.084L.2,141.936a12.161,12.161,0,0,0,12,14.09H86.961a11.9,11.9,0,0,0,7.629-2.764,6.416,6.416,0,0,0,5.271,2.764h24.057a6.421,6.421,0,0,0,0-12.842h-.89v-3.492h9.167a2.285,2.285,0,0,0,0-4.57h-9.167V105.109a2.286,2.286,0,0,0-1.127-4.272H102.156a2.287,2.287,0,0,0-.858,4.4v29.883c-30.383,0-28,.133-28.564-.431-.623-.623-.43,3.057-.43-61.053a1.469,1.469,0,0,1,1.47-1.47c81.21.063,76.312-.158,76.927.176a1.472,1.472,0,0,1,.771,1.294v60.014a1.47,1.47,0,0,1-.771,1.294c-.568.309-.391.118-7.843.176a2.285,2.285,0,0,0,0,4.57c6.8-.188,8.923.723,11.415-1.769a6,6,0,0,0,1.77-4.272V73.638A6.04,6.04,0,0,0,150,67.6ZM61.225,138.749a15.034,15.034,0,0,0-11.764,7.04,15.036,15.036,0,0,0-11.726-7.037,6.62,6.62,0,0,0-1.664-2.1,17,17,0,0,0,5.186-9.781H57.664a16.985,16.985,0,0,0,5.206,9.8A6.614,6.614,0,0,0,61.225,138.749ZM49.073,95.971c-.013-.032-3.684-9.513-3.7-9.548a16.114,16.114,0,0,0,8.3.009l-3.76,9.555a.41.41,0,0,1-.419.285C49.189,96.271,49.149,96.16,49.073,95.971Zm7.836-22.629v4.873l-.863,2.193a11.633,11.633,0,0,1-13,.01L41.971,77.63v-4.2A25.554,25.554,0,0,0,56.909,73.341Zm10.244,8.524-9.86,7.852c4.3-10.929,4.242-10.5,4.186-11.3Zm8.006-37.837V37.293C78.7,38.711,78.808,42.568,75.159,44.028ZM23.84,37.293c-.032,1.785-.058,4.207-.035,6.719C20.186,42.536,20.3,38.709,23.84,37.293ZM33.493,62.56C27.213,55.245,28.58,48.517,28.411,37.9c11.389,3.661,25.554.227,33.495-5.4a11.937,11.937,0,0,0,8.683,4.426c0,1.113-.014,5.277,0,11.9C70.587,68.254,46.251,77.392,33.493,62.56Zm3.926,15.783c.08.638.319.849,4.3,11.29l-9.867-8ZM18.126,81.657q-.1.033-.189.076A1.629,1.629,0,0,1,18.126,81.657ZM4.712,142.662l8.031-49.916c1.42-6.971,7.953-6.669,14.588-8.9l7.788,6.318v14.679a2.285,2.285,0,0,0,4.57,0V93.873l5.427,4.4a5.022,5.022,0,0,0,8.756.011L59.3,93.96v10.884a2.285,2.285,0,0,0,4.57,0V90.32l3.858-3.073c.022,49.527-.047,46.354.051,47.152a8.65,8.65,0,0,1-4.282-4.3,16.235,16.235,0,0,1-1.562-5.631,2.285,2.285,0,0,0-2.282-2.169H39.265a2.291,2.291,0,0,0-2.282,2.162A16.236,16.236,0,0,1,35.42,130.1c-3.377,6.709-9.508,4.636-11.913,5.023L27.876,105.6a2.285,2.285,0,0,0-4.521-.669l-4.468,30.2H16.531a2.285,2.285,0,1,0,0,4.57H31.862a2.011,2.011,0,0,1,2.009,2v9.76H12.2A7.59,7.59,0,0,1,4.712,142.662Zm33.73,8.794v-8.029a10.487,10.487,0,0,1,8.482,8.029Zm22.075-8.036v8.036H52A10.487,10.487,0,0,1,60.517,143.42Zm65.25,6.186a1.852,1.852,0,0,1-1.85,1.85H99.86a1.85,1.85,0,1,1,0-3.7h24.057A1.852,1.852,0,0,1,125.767,149.606Zm-19.9-6.421V105.416h12.588v37.769Zm-4.57,0a14.849,14.849,0,0,0-2.455.088c-.068-.961-.162-1.235-.524-3.58H101.3Zm-7.608-3.492.523,3.251a7.347,7.347,0,0,1-7.252,8.513H65.088V141.7a2.011,2.011,0,0,1,2.009-2Z" transform="translate(0 0)"/>
      <path id="Trazado_881521" data-name="Trazado 881521" d="M298,109h42.967c1.134,0,1.363.8,4.726,3.686a4.223,4.223,0,0,0,7.063-3.126V96.356a2.285,2.285,0,0,0-4.57,0v12.42c-2.21-1.7-3.665-4.346-7.219-4.346H298a1.39,1.39,0,0,1-1.371-1.371V78.379A1.39,1.39,0,0,1,298,77.007h48.815a1.39,1.39,0,0,1,1.371,1.371v7.312a2.285,2.285,0,1,0,4.57,0V78.379a5.949,5.949,0,0,0-5.942-5.942H298a5.949,5.949,0,0,0-5.942,5.942v24.68A5.949,5.949,0,0,0,298,109Z" transform="translate(-203.028 -50.363)"/>
    </g>
  </g>
</svg>
