<svg xmlns="http://www.w3.org/2000/svg" xmlns:xlink="http://www.w3.org/1999/xlink" width="399.764" height="336.492" viewBox="0 0 399.764 336.492">
  <defs>
    <clipPath id="clip-path">
      <rect id="Rectángulo_383403" data-name="Rectángulo 383403" width="295" height="329" rx="15" transform="translate(0 0.005)" fill="#273a89"/>
    </clipPath>
    <clipPath id="clip-path-2">
      <rect id="Rectángulo_383401" data-name="Rectángulo 383401" width="246.782" height="257.6" fill="none"/>
    </clipPath>
    <clipPath id="clip-path-3">
      <rect id="Rectángulo_383301" data-name="Rectángulo 383301" width="38.857" height="6.228" fill="none"/>
    </clipPath>
    <clipPath id="clip-path-4">
      <rect id="Rectángulo_383302" data-name="Rectángulo 383302" width="20.523" height="23.415" fill="none"/>
    </clipPath>
    <clipPath id="clip-path-5">
      <rect id="Rectángulo_383303" data-name="Rectángulo 383303" width="6.046" height="23.327" fill="none"/>
    </clipPath>
  </defs>
  <g id="Grupo_1099974" data-name="Grupo 1099974" transform="translate(-180.569 -341)">
    <rect id="Rectángulo_35205" data-name="Rectángulo 35205" width="399.764" height="336.491" rx="17" transform="translate(180.569 341)" fill="#a0f2c0"/>
    <g id="Grupo_1074425" data-name="Grupo 1074425" transform="translate(4.333 -3734.151)">
      <g id="Grupo_1074422" data-name="Grupo 1074422" transform="translate(180 4082.146)">
        <rect id="Rectángulo_383270" data-name="Rectángulo 383270" width="83" height="329" rx="15" transform="translate(0 0.005)" fill="#273a89"/>
        <g id="Enmascarar_grupo_172" data-name="Enmascarar grupo 172" transform="translate(0 0)" clip-path="url(#clip-path)">
          <g id="Grupo_1074421" data-name="Grupo 1074421" transform="translate(-47.71 -13.52)" opacity="0.089">
            <g id="Grupo_1074423" data-name="Grupo 1074423" transform="translate(0 0)">
              <path id="Trazado_818450" data-name="Trazado 818450" d="M57.907,0,111.33,54.3,161.625,3.176,212.206,54.59,265.06.866l52.285,53.146L364.576,6l7.831,7.96L317.345,69.931,265.06,16.788,212.206,70.509,161.625,19.1,111.33,70.222l-53.423-54.3L7.834,66.817,0,58.861Z" transform="translate(0 274.396)" fill="#1682fb"/>
              <path id="Trazado_818451" data-name="Trazado 818451" d="M57.907,16.8l53.423,54.3,50.295-51.12,50.581,51.411L265.06,17.661l52.285,53.146,47.232-48.013,7.831,7.963L317.345,86.726,265.06,33.58,212.206,87.3,161.625,35.89,111.33,87.014l-53.423-54.3L7.834,83.612,0,75.656Z" transform="translate(0 202.722)" fill="#1682fb"/>
              <path id="Trazado_818452" data-name="Trazado 818452" d="M57.907,33.59l53.423,54.3,50.295-51.123,50.581,51.411L265.06,34.456,317.345,87.6,364.576,39.59l7.831,7.963-55.062,55.969L265.06,50.376,212.206,104.1,161.625,52.686,111.33,103.809,57.907,49.51l-50.073,50.9L0,92.448Z" transform="translate(0 131.048)" fill="#1682fb"/>
              <path id="Trazado_818453" data-name="Trazado 818453" d="M57.907,50.387l53.423,54.3,50.295-51.123,50.581,51.411L265.06,51.252,317.345,104.4l47.232-48.013,7.831,7.96-55.062,55.969L265.06,67.172,212.206,120.9,161.625,69.482,111.33,120.608l-53.423-54.3-50.073,50.9L0,109.247Z" transform="translate(0 59.371)" fill="#1682fb"/>
              <path id="Trazado_818454" data-name="Trazado 818454" d="M57.907,67.182l53.423,54.3,50.295-51.123,50.581,51.411L265.06,68.048l52.285,53.146,47.232-48.013,7.831,7.96-55.062,55.972L265.06,83.967l-52.854,53.724L161.625,86.277,111.33,137.4,57.907,83.1,7.834,134,0,126.039Z" transform="translate(0 -12.303)" fill="#1682fb"/>
              <path id="Trazado_818455" data-name="Trazado 818455" d="M57.907,83.977l53.423,54.3,50.295-51.123,50.581,51.411L265.06,84.843l52.285,53.146,47.232-48.013,7.831,7.963-55.062,55.969L265.06,100.762l-52.854,53.724-50.581-51.414L111.33,154.2,57.907,99.9l-50.073,50.9L0,142.835Z" transform="translate(0 -83.977)" fill="#1682fb"/>
            </g>
          </g>
        </g>
        <g id="Grupo_1074420" data-name="Grupo 1074420" transform="translate(12.851 20.82)">
          <rect id="Rectángulo_383402" data-name="Rectángulo 383402" width="146" height="258" rx="13" transform="translate(10.149 0.185)" fill="#dcecfe"/>
          <g id="Grupo_1074419" data-name="Grupo 1074419" transform="translate(0 0)">
            <path id="Rectángulo_383306" data-name="Rectángulo 383306" d="M-1.819-2.154H1.262a.334.334,0,0,1,.334.334V41.445a.334.334,0,0,1-.334.334H-1.819a.334.334,0,0,1-.334-.334V-1.819A.334.334,0,0,1-1.819-2.154Zm2.747.668H-1.485v42.6H.928Z" transform="translate(156.77 22.553)" fill="#b4daef"/>
            <g id="Grupo_1074418" data-name="Grupo 1074418">
              <g id="Grupo_1074417" data-name="Grupo 1074417" clip-path="url(#clip-path-2)">
                <path id="Rectángulo_383307" data-name="Rectángulo 383307" d="M6.167-2.153H133.742a8.314,8.314,0,0,1,8.321,8.321V247.126a8.314,8.314,0,0,1-8.321,8.321H6.167a8.314,8.314,0,0,1-8.321-8.321V6.167A8.314,8.314,0,0,1,6.167-2.153ZM133.742,254.778a7.646,7.646,0,0,0,7.652-7.652V6.167a7.646,7.646,0,0,0-7.652-7.652H6.167A7.646,7.646,0,0,0-1.485,6.167V247.126a7.646,7.646,0,0,0,7.652,7.652Z" transform="translate(13.222 2.153)" fill="#b4daef"/>
                <path id="Rectángulo_383308" data-name="Rectángulo 383308" d="M5.946-2.154H129.993a8.093,8.093,0,0,1,8.1,8.1V240.24a8.093,8.093,0,0,1-8.1,8.1H5.946a8.093,8.093,0,0,1-8.1-8.1V5.946a8.094,8.094,0,0,1,8.1-8.1ZM129.993,247.672a7.425,7.425,0,0,0,7.431-7.431V5.946a7.425,7.425,0,0,0-7.431-7.431H5.946A7.425,7.425,0,0,0-1.485,5.946V240.24a7.425,7.425,0,0,0,7.431,7.431Z" transform="translate(15.207 5.707)" fill="#b4daef"/>
                <path id="Trazado_827320" data-name="Trazado 827320" d="M509.667,64.446a4.581,4.581,0,1,1-4.581-4.581,4.581,4.581,0,0,1,4.581,4.581" transform="translate(-422.825 -50.574)" fill="#231f20"/>
                <path id="Trazado_827321" data-name="Trazado 827321" d="M471.385,204.666h-89.03a15.589,15.589,0,0,1-15.589-15.588h0a15.589,15.589,0,0,1,15.589-15.588h89.03a15.588,15.588,0,0,1,15.588,15.588h0a15.588,15.588,0,0,1-15.588,15.588" transform="translate(-309.843 -146.563)" fill="#5959d8"/>
                <path id="Trazado_827322" data-name="Trazado 827322" d="M31.457,301.906H14.688A14.688,14.688,0,0,1,0,287.218v-1.8a14.688,14.688,0,0,1,14.688-14.688H31.457a14.688,14.688,0,0,1,14.688,14.688v1.8a14.688,14.688,0,0,1-14.688,14.688" transform="translate(0 -228.711)" fill="#718ef4"/>
                <rect id="Rectángulo_383309" data-name="Rectángulo 383309" width="61.322" height="56.33" transform="translate(38.993 78.763)" fill="#b4daef"/>
                <path id="Trazado_827323" data-name="Trazado 827323" d="M256.434,1058.679H197a21.2,21.2,0,0,1-21.2-21.2v-1.9a21.2,21.2,0,0,1,21.2-21.2h59.438a21.2,21.2,0,0,1,21.2,21.2v1.9a21.2,21.2,0,0,1-21.2,21.2" transform="translate(-148.514 -856.947)" fill="#718ef4"/>
                <path id="Trazado_827324" data-name="Trazado 827324" d="M400.986,581.552a8.438,8.438,0,1,1-8.438-8.438,8.438,8.438,0,0,1,8.438,8.438" transform="translate(-324.496 -484.166)" fill="#fff"/>
                <path id="Trazado_827325" data-name="Trazado 827325" d="M365.948,712.872a16.4,16.4,0,0,0-32.648,0Z" transform="translate(-281.571 -589.735)" fill="#fff"/>
                <path id="Rectángulo_383310" data-name="Rectángulo 383310" d="M12.216-2.154H98.855a14.475,14.475,0,0,1,2.9.292A14.293,14.293,0,0,1,106.889.3,14.411,14.411,0,0,1,112.1,6.623a14.3,14.3,0,0,1,.837,2.7,14.474,14.474,0,0,1,.292,2.9v3.106a14.474,14.474,0,0,1-.292,2.9,14.293,14.293,0,0,1-2.162,5.139,14.411,14.411,0,0,1-6.322,5.206,14.3,14.3,0,0,1-2.7.837,14.475,14.475,0,0,1-2.9.292H12.216a14.475,14.475,0,0,1-2.9-.292,14.293,14.293,0,0,1-5.139-2.162,14.411,14.411,0,0,1-5.206-6.322,14.3,14.3,0,0,1-.837-2.7,14.475,14.475,0,0,1-.292-2.9V12.216a14.475,14.475,0,0,1,.292-2.9A14.293,14.293,0,0,1,.3,4.182,14.411,14.411,0,0,1,6.623-1.024a14.3,14.3,0,0,1,2.7-.837A14.475,14.475,0,0,1,12.216-2.154ZM98.855,29.023a13.8,13.8,0,0,0,2.762-.278,13.624,13.624,0,0,0,4.9-2.061,13.742,13.742,0,0,0,4.964-6.029,13.63,13.63,0,0,0,.8-2.571,13.805,13.805,0,0,0,.278-2.762V12.216a13.805,13.805,0,0,0-.278-2.762,13.625,13.625,0,0,0-2.061-4.9,13.742,13.742,0,0,0-6.029-4.964,13.631,13.631,0,0,0-2.571-.8,13.8,13.8,0,0,0-2.762-.278H12.216a13.8,13.8,0,0,0-2.762.278A13.624,13.624,0,0,0,4.556.855,13.742,13.742,0,0,0-.409,6.883a13.631,13.631,0,0,0-.8,2.571,13.8,13.8,0,0,0-.278,2.762v3.106a13.8,13.8,0,0,0,.278,2.762,13.624,13.624,0,0,0,2.061,4.9,13.743,13.743,0,0,0,6.029,4.964,13.631,13.631,0,0,0,2.571.8,13.805,13.805,0,0,0,2.762.278Z" transform="translate(122.482 75.153)" fill="#b4daef"/>
                <path id="Trazado_827326" data-name="Trazado 827326" d="M854.62,525.863l1.3,4h4.2a1.153,1.153,0,0,1,.678,2.086l-3.4,2.47,1.3,4a1.153,1.153,0,0,1-1.774,1.289l-3.4-2.47-3.4,2.47a1.153,1.153,0,0,1-1.774-1.289l1.3-4-3.4-2.47a1.153,1.153,0,0,1,.678-2.086h4.2l1.3-4a1.153,1.153,0,0,1,2.193,0" transform="translate(-714.505 -443.575)" fill="#b4daef"/>
                <path id="Trazado_827327" data-name="Trazado 827327" d="M991.352,525.863l1.3,4h4.2a1.153,1.153,0,0,1,.678,2.086l-3.4,2.47,1.3,4a1.153,1.153,0,0,1-1.774,1.289l-3.4-2.47-3.4,2.47a1.153,1.153,0,0,1-1.774-1.289l1.3-4-3.4-2.47a1.153,1.153,0,0,1,.677-2.086h4.2l1.3-4a1.153,1.153,0,0,1,2.193,0" transform="translate(-830.016 -443.575)" fill="#b4daef"/>
                <path id="Trazado_827328" data-name="Trazado 827328" d="M1107.685,525.863l1.3,4h4.2a1.153,1.153,0,0,1,.678,2.086l-3.4,2.47,1.3,4a1.153,1.153,0,0,1-1.774,1.289l-3.4-2.47-3.4,2.47a1.153,1.153,0,0,1-1.774-1.289l1.3-4-3.4-2.47a1.153,1.153,0,0,1,.678-2.086h4.2l1.3-4a1.153,1.153,0,0,1,2.193,0" transform="translate(-928.295 -443.575)" fill="#b4daef"/>
                <path id="Trazado_827329" data-name="Trazado 827329" d="M1232.155,525.863l1.3,4h4.2a1.153,1.153,0,0,1,.678,2.086l-3.4,2.47,1.3,4a1.153,1.153,0,0,1-1.774,1.289l-3.4-2.47-3.4,2.47a1.153,1.153,0,0,1-1.774-1.289l1.3-4-3.4-2.47a1.153,1.153,0,0,1,.678-2.086h4.2l1.3-4a1.153,1.153,0,0,1,2.193,0" transform="translate(-1033.447 -443.575)" fill="#b4daef"/>
                <path id="Trazado_827330" data-name="Trazado 827330" d="M1359.349,525.863l1.3,4h4.2a1.153,1.153,0,0,1,.677,2.086l-3.4,2.47,1.3,4a1.153,1.153,0,0,1-1.774,1.289l-3.4-2.47-3.4,2.47a1.153,1.153,0,0,1-1.774-1.289l1.3-4-3.4-2.47a1.153,1.153,0,0,1,.678-2.086h4.2l1.3-4a1.153,1.153,0,0,1,2.193,0" transform="translate(-1140.9 -443.575)" fill="#b4daef"/>
                <path id="Trazado_827331" data-name="Trazado 827331" d="M457.5,233.7a.334.334,0,0,1-.253-.553,46.422,46.422,0,0,1,11.07-9.357,11.211,11.211,0,0,1,1.806-.883,8.052,8.052,0,0,1,1.967-.493,3.434,3.434,0,0,1,3.414,1.31,5.469,5.469,0,0,1,.752,2.306,7.467,7.467,0,0,0,.36,1.514,3.442,3.442,0,0,0,1.008,1.383,4.6,4.6,0,0,0,1.565.839,6.468,6.468,0,0,0,3.745.021,11.332,11.332,0,0,0,2.565-1.177c.823-.494,1.632-1.074,2.414-1.635.539-.387,1.1-.786,1.658-1.158a16.54,16.54,0,0,1,3.923-1.886,15.943,15.943,0,0,1,2.135-.542,13.74,13.74,0,0,1,2.15-.219,9.745,9.745,0,0,1,4.039.716,7.042,7.042,0,0,1,3.132,2.571,13.868,13.868,0,0,1,.809,1.432,8.541,8.541,0,0,0,1.222,1.942,4.3,4.3,0,0,0,1.018.82,4.455,4.455,0,0,0,1.168.463,6.83,6.83,0,0,0,2.691.046,13.86,13.86,0,0,0,2.9-.837A23.907,23.907,0,0,0,517.508,229l11.334-6.315a30.786,30.786,0,0,1,2.9-1.478,10.173,10.173,0,0,1,3.17-.834,6.419,6.419,0,0,1,3.322.63,5.041,5.041,0,0,1,1.365.979,4.109,4.109,0,0,1,.916,1.422,7.922,7.922,0,0,1,.361,1.548,5.143,5.143,0,0,0,.531,1.838,2.89,2.89,0,0,0,2.137,1.289,5.844,5.844,0,0,0,2.838-.348,19.819,19.819,0,0,0,2.059-.975,12.608,12.608,0,0,1,3.47-1.39.334.334,0,0,1,.122.657,11.93,11.93,0,0,0-3.283,1.326,20.3,20.3,0,0,1-2.13,1.007,6.794,6.794,0,0,1-1.559.39,5.932,5.932,0,0,1-1.615-.006,4.137,4.137,0,0,1-1.486-.5,3.126,3.126,0,0,1-1.128-1.108,5.721,5.721,0,0,1-.617-2.073,7.29,7.29,0,0,0-.326-1.419,3.444,3.444,0,0,0-.769-1.191,4.373,4.373,0,0,0-1.185-.848,5.522,5.522,0,0,0-1.445-.478,5.8,5.8,0,0,0-1.526-.083,9.523,9.523,0,0,0-2.962.784,29.252,29.252,0,0,0-2.836,1.446l-11.334,6.315A24.56,24.56,0,0,1,515,230.946a14.526,14.526,0,0,1-3.041.877,7.488,7.488,0,0,1-2.956-.056,4.961,4.961,0,0,1-2.52-1.479,9.164,9.164,0,0,1-1.325-2.09,13.376,13.376,0,0,0-.768-1.363,6.383,6.383,0,0,0-2.84-2.33,9.085,9.085,0,0,0-3.764-.662,13.066,13.066,0,0,0-2.045.208,15.263,15.263,0,0,0-2.045.519,15.866,15.866,0,0,0-3.762,1.809c-.551.364-1.1.76-1.637,1.143a18.058,18.058,0,0,1-5.176,2.91,7.152,7.152,0,0,1-4.142-.025,5.262,5.262,0,0,1-1.791-.964,4.1,4.1,0,0,1-1.2-1.65,8.083,8.083,0,0,1-.4-1.649,4.9,4.9,0,0,0-.642-2.035,2.327,2.327,0,0,0-1.186-.892,3.741,3.741,0,0,0-1.608-.135,7.386,7.386,0,0,0-1.8.454,10.533,10.533,0,0,0-1.7.829,45.757,45.757,0,0,0-10.91,9.222A.333.333,0,0,1,457.5,233.7Z" transform="translate(-386.212 -186.154)" fill="#b4daef"/>
                <path id="Trazado_827332" data-name="Trazado 827332" d="M625.118,1398.5H539.948a14.953,14.953,0,1,1,0-29.906h85.169a14.953,14.953,0,1,1,0,29.906" transform="translate(-443.515 -1156.182)" fill="#6f6ff7"/>
                <path id="Trazado_827333" data-name="Trazado 827333" d="M611.954,1447.473h-.1a5.522,5.522,0,0,1-3.953-1.534,9.253,9.253,0,0,1-1.23-1.676,10.277,10.277,0,0,0-.949-1.357,5.566,5.566,0,0,0-3.532-1.778,8.275,8.275,0,0,0-4.151.551,13.614,13.614,0,0,0-3.573,2.236,42.232,42.232,0,0,0-3.137,3.006.334.334,0,1,1-.479-.466,42.779,42.779,0,0,1,3.188-3.053,14.257,14.257,0,0,1,3.75-2.342,8.952,8.952,0,0,1,4.492-.594,6.974,6.974,0,0,1,2.153.638,5.7,5.7,0,0,1,1.793,1.362,10.918,10.918,0,0,1,1.013,1.444,8.629,8.629,0,0,0,1.137,1.558,4.3,4.3,0,0,0,1.583,1,5.72,5.72,0,0,0,1.9.331h.089a8.8,8.8,0,0,0,3.874-.964,26.245,26.245,0,0,0,3.573-2.32,28.424,28.424,0,0,1,3.446-2.263,9.826,9.826,0,0,1,4.237-1.155,6.541,6.541,0,0,1,2.139.285,5.081,5.081,0,0,1,1.882,1.069,10.118,10.118,0,0,1,1.6,2.055,5.509,5.509,0,0,0,2.419,2.466,2.866,2.866,0,0,0,1.229.168,4.52,4.52,0,0,0,1.276-.3,15.015,15.015,0,0,0,2.56-1.381l.122-.076a31.97,31.97,0,0,1,8.461-3.705,3.767,3.767,0,0,1,2.032-.142,2.6,2.6,0,0,1,1.258.838,8.557,8.557,0,0,1,.837,1.217,9.274,9.274,0,0,0,.692,1.036,4.391,4.391,0,0,0,2.972,1.51,7.556,7.556,0,0,0,3.593-.5,21.67,21.67,0,0,0,3.882-2.188c.828-.545,1.684-1.108,2.576-1.586a5.951,5.951,0,0,1,1.4-.57,2.711,2.711,0,0,1,1.553.034,3.969,3.969,0,0,1,2.022,2.31,11.037,11.037,0,0,0,.567,1.045,3,3,0,0,0,.7.794,2.735,2.735,0,0,0,2.074.435,9.774,9.774,0,0,0,2.388-.715l4.916-2.032,4.914-2.032a.334.334,0,0,1,.255.618l-4.914,2.031-4.916,2.033a10.376,10.376,0,0,1-2.56.76,4.236,4.236,0,0,1-1.326-.024,2.966,2.966,0,0,1-1.234-.539,5.507,5.507,0,0,1-1.466-2.075,8.056,8.056,0,0,0-.708-1.242,1.967,1.967,0,0,0-.936-.733,2.029,2.029,0,0,0-1.174-.017,5.333,5.333,0,0,0-1.241.51c-.865.464-1.709,1.019-2.524,1.556a22.172,22.172,0,0,1-4,2.252,8.24,8.24,0,0,1-3.917.538,5.043,5.043,0,0,1-3.41-1.751,9.763,9.763,0,0,1-.745-1.112c-.48-.792-.933-1.541-1.7-1.758a3.222,3.222,0,0,0-1.674.144,31.3,31.3,0,0,0-8.283,3.627l-.121.076a15.744,15.744,0,0,1-2.679,1.44,4.122,4.122,0,0,1-2.973.132,6.075,6.075,0,0,1-2.747-2.727,9.628,9.628,0,0,0-1.491-1.924,4.415,4.415,0,0,0-1.636-.928,5.862,5.862,0,0,0-1.921-.254,9.15,9.15,0,0,0-3.941,1.078,27.974,27.974,0,0,0-3.363,2.212,26.772,26.772,0,0,1-3.667,2.377A9.488,9.488,0,0,1,611.954,1447.473Z" transform="translate(-499.071 -1216.595)" fill="#231f20"/>
                <path id="Trazado_827334" data-name="Trazado 827334" d="M1015.5,889.584H913.01a1.4,1.4,0,0,1-1.4-1.4V818.432a1.4,1.4,0,0,1,1.4-1.4H1015.5a1.4,1.4,0,0,1,1.4,1.4v69.748a1.4,1.4,0,0,1-1.4,1.4" transform="translate(-770.123 -690.223)" fill="#97b2ff"/>
                <path id="Rectángulo_383311" data-name="Rectángulo 383311" d="M.334,0H1.86a.334.334,0,0,1,.334.334V2.179a.334.334,0,0,1-.334.334H.334A.334.334,0,0,1,0,2.179V.334A.334.334,0,0,1,.334,0ZM1.526.668H.668V1.845h.858Z" transform="matrix(1, -0.003, 0.003, 1, 145.237, 131.658)" fill="#b4daef"/>
                <path id="Rectángulo_383312" data-name="Rectángulo 383312" d="M.334,0H3.759a.334.334,0,0,1,.334.334V2.179a.334.334,0,0,1-.334.334H.334A.334.334,0,0,1,0,2.179V.334A.334.334,0,0,1,.334,0ZM3.425.668H.668V1.845H3.425Z" transform="translate(148.171 131.649) rotate(-0.174)" fill="#b4daef"/>
                <path id="Rectángulo_383313" data-name="Rectángulo 383313" d="M.334,0H5.378a.334.334,0,0,1,.334.334V2.179a.334.334,0,0,1-.334.334H.334A.334.334,0,0,1,0,2.179V.334A.334.334,0,0,1,.334,0ZM5.043.668H.668V1.845H5.043Z" transform="translate(153.35 131.633) rotate(-0.175)" fill="#b4daef"/>
                <path id="Rectángulo_383314" data-name="Rectángulo 383314" d="M.334,0H5.79a.334.334,0,0,1,.334.334V2.179a.334.334,0,0,1-.334.334H.334A.334.334,0,0,1,0,2.179V.334A.334.334,0,0,1,.334,0ZM5.456.668H.668V1.845H5.456Z" transform="translate(180.683 131.55) rotate(-0.174)" fill="#b4daef"/>
                <path id="Rectángulo_383315" data-name="Rectángulo 383315" d="M.334,0h9.9a.334.334,0,0,1,.334.334V2.179a.334.334,0,0,1-.334.334H.334A.334.334,0,0,1,0,2.179V.334A.334.334,0,0,1,.334,0ZM9.9.668H.668V1.845H9.9Z" transform="translate(163.85 131.601) rotate(-0.174)" fill="#b4daef"/>
                <path id="Rectángulo_383316" data-name="Rectángulo 383316" d="M.334,0H3.805a.334.334,0,0,1,.334.334V2.179a.334.334,0,0,1-.334.334H.334A.334.334,0,0,1,0,2.179V.334A.334.334,0,0,1,.334,0ZM3.471.668H.668V1.845h2.8Z" transform="translate(159.27 131.615) rotate(-0.174)" fill="#b4daef"/>
                <path id="Rectángulo_383317" data-name="Rectángulo 383317" d="M.334,0H3.805a.334.334,0,0,1,.334.334V2.179a.334.334,0,0,1-.334.334H.334A.334.334,0,0,1,0,2.179V.334A.334.334,0,0,1,.334,0ZM3.471.668H.668V1.845h2.8Z" transform="translate(175.55 131.565) rotate(-0.174)" fill="#b4daef"/>
                <path id="Rectángulo_383318" data-name="Rectángulo 383318" d="M.334,0H2.662A.334.334,0,0,1,3,.334V2.179a.334.334,0,0,1-.334.334H.334A.334.334,0,0,1,0,2.179V.334A.334.334,0,0,1,.334,0ZM2.328.668H.668V1.845H2.328Z" transform="translate(212.822 131.452) rotate(-0.176)" fill="#b4daef"/>
                <path id="Rectángulo_383319" data-name="Rectángulo 383319" d="M.334,0H16.381a.334.334,0,0,1,.334.334V2.179a.334.334,0,0,1-.334.334H.334A.334.334,0,0,1,0,2.179V.334A.334.334,0,0,1,.334,0ZM16.047.668H.668V1.845H16.047Z" transform="translate(216.661 131.44) rotate(-0.175)" fill="#b4daef"/>
                <path id="Rectángulo_383320" data-name="Rectángulo 383320" d="M.334,0H9.213a.334.334,0,0,1,.334.334V2.179a.334.334,0,0,1-.334.334H.334A.334.334,0,0,1,0,2.179V.334A.334.334,0,0,1,.334,0ZM8.879.668H.668V1.845h8.21Z" transform="translate(202.417 131.484) rotate(-0.174)" fill="#b4daef"/>
                <path id="Rectángulo_383321" data-name="Rectángulo 383321" d="M.334,0H11.777a.334.334,0,0,1,.334.334V2.179a.334.334,0,0,1-.334.334H.334A.334.334,0,0,1,0,2.179V.334A.334.334,0,0,1,.334,0ZM11.442.668H.668V1.845H11.442Z" transform="translate(188.154 131.527) rotate(-0.175)" fill="#b4daef"/>
                <path id="Rectángulo_383322" data-name="Rectángulo 383322" d="M.334,0H1.86a.334.334,0,0,1,.334.334V2.179a.334.334,0,0,1-.334.334H.334A.334.334,0,0,1,0,2.179V.334A.334.334,0,0,1,.334,0ZM1.526.668H.668V1.845h.858Z" transform="matrix(1, -0.003, 0.003, 1, 145.252, 136.407)" fill="#b4daef"/>
                <path id="Rectángulo_383323" data-name="Rectángulo 383323" d="M.334,0H9.216A.334.334,0,0,1,9.55.334V2.179a.334.334,0,0,1-.334.334H.334A.334.334,0,0,1,0,2.179V.334A.334.334,0,0,1,.334,0ZM8.882.668H.668V1.845H8.882Z" transform="translate(148.186 136.398) rotate(-0.174)" fill="#b4daef"/>
                <path id="Rectángulo_383324" data-name="Rectángulo 383324" d="M.334,0H19.8a.334.334,0,0,1,.334.334V2.179a.334.334,0,0,1-.334.334H.334A.334.334,0,0,1,0,2.179V.334A.334.334,0,0,1,.334,0ZM19.47.668H.668V1.845h18.8Z" transform="translate(166.683 136.341) rotate(-0.174)" fill="#b4daef"/>
                <path id="Rectángulo_383325" data-name="Rectángulo 383325" d="M.334,0H5.886a.334.334,0,0,1,.334.334V2.179a.334.334,0,0,1-.334.334H.334A.334.334,0,0,1,0,2.179V.334A.334.334,0,0,1,.334,0ZM5.552.668H.668V1.845H5.552Z" transform="matrix(1, -0.003, 0.003, 1, 159.284, 136.364)" fill="#b4daef"/>
                <path id="Rectángulo_383326" data-name="Rectángulo 383326" d="M.334,0H34.39a.334.334,0,0,1,.334.334V2.179a.334.334,0,0,1-.334.334H.334A.334.334,0,0,1,0,2.179V.334A.334.334,0,0,1,.334,0ZM34.055.668H.668V1.845H34.055Z" transform="translate(188.169 136.276) rotate(-0.174)" fill="#b4daef"/>
                <path id="Rectángulo_383327" data-name="Rectángulo 383327" d="M.334,0H1.86a.334.334,0,0,1,.334.334V2.179a.334.334,0,0,1-.334.334H.334A.334.334,0,0,1,0,2.179V.334A.334.334,0,0,1,.334,0ZM1.526.668H.668V1.845h.858Z" transform="matrix(1, -0.003, 0.003, 1, 145.266, 141.203)" fill="#b4daef"/>
                <path id="Rectángulo_383328" data-name="Rectángulo 383328" d="M.334,0H4.775a.334.334,0,0,1,.334.334V2.179a.334.334,0,0,1-.334.334H.334A.334.334,0,0,1,0,2.179V.334A.334.334,0,0,1,.334,0ZM4.441.668H.668V1.845H4.441Z" transform="translate(148.2 141.194) rotate(-0.174)" fill="#b4daef"/>
                <path id="Rectángulo_383329" data-name="Rectángulo 383329" d="M.334,0H11.758a.334.334,0,0,1,.334.334V2.179a.334.334,0,0,1-.334.334H.334A.334.334,0,0,1,0,2.179V.334A.334.334,0,0,1,.334,0ZM11.424.668H.668V1.845H11.424Z" transform="translate(171.138 141.124) rotate(-0.174)" fill="#b4daef"/>
                <path id="Rectángulo_383330" data-name="Rectángulo 383330" d="M.334,0H3.3a.334.334,0,0,1,.334.334V2.179a.334.334,0,0,1-.334.334H.334A.334.334,0,0,1,0,2.179V.334A.334.334,0,0,1,.334,0ZM2.962.668H.668V1.845H2.962Z" transform="translate(166.698 141.137) rotate(-0.174)" fill="#b4daef"/>
                <path id="Rectángulo_383331" data-name="Rectángulo 383331" d="M.334,0H10.97A.334.334,0,0,1,11.3.334V2.179a.334.334,0,0,1-.334.334H.334A.334.334,0,0,1,0,2.179V.334A.334.334,0,0,1,.334,0Zm10.3.668H.668V1.845h9.968Z" transform="translate(154.215 141.175) rotate(-0.175)" fill="#b4daef"/>
                <path id="Rectángulo_383332" data-name="Rectángulo 383332" d="M.334,0H11.941a.334.334,0,0,1,.334.334V2.179a.334.334,0,0,1-.334.334H.334A.334.334,0,0,1,0,2.179V.334A.334.334,0,0,1,.334,0ZM11.607.668H.668V1.845H11.607Z" transform="translate(196.759 141.046) rotate(-0.175)" fill="#b4daef"/>
                <path id="Rectángulo_383333" data-name="Rectángulo 383333" d="M.334,0H5.1a.334.334,0,0,1,.334.334V2.179a.334.334,0,0,1-.334.334H.334A.334.334,0,0,1,0,2.179V.334A.334.334,0,0,1,.334,0ZM4.763.668H.668V1.845H4.763Z" transform="translate(183.949 141.085) rotate(-0.176)" fill="#b4daef"/>
                <path id="Rectángulo_383334" data-name="Rectángulo 383334" d="M.334,0H5.1a.334.334,0,0,1,.334.334V2.179a.334.334,0,0,1-.334.334H.334A.334.334,0,0,1,0,2.179V.334A.334.334,0,0,1,.334,0ZM4.763.668H.668V1.845H4.763Z" transform="translate(190.405 141.065) rotate(-0.176)" fill="#b4daef"/>
                <path id="Rectángulo_383335" data-name="Rectángulo 383335" d="M.334,0H1.86a.334.334,0,0,1,.334.334V2.179a.334.334,0,0,1-.334.334H.334A.334.334,0,0,1,0,2.179V.334A.334.334,0,0,1,.334,0ZM1.526.668H.668V1.845h.858Z" transform="matrix(1, -0.003, 0.003, 1, 145.297, 151.225)" fill="#b4daef"/>
                <path id="Rectángulo_383336" data-name="Rectángulo 383336" d="M.334,0H9.216A.334.334,0,0,1,9.55.334V2.179a.334.334,0,0,1-.334.334H.334A.334.334,0,0,1,0,2.179V.334A.334.334,0,0,1,.334,0ZM8.882.668H.668V1.845H8.882Z" transform="translate(148.231 151.216) rotate(-0.174)" fill="#b4daef"/>
                <path id="Rectángulo_383337" data-name="Rectángulo 383337" d="M.334,0H9.216A.334.334,0,0,1,9.55.334V2.179a.334.334,0,0,1-.334.334H.334A.334.334,0,0,1,0,2.179V.334A.334.334,0,0,1,.334,0ZM8.882.668H.668V1.845H8.882Z" transform="matrix(1, -0.003, 0.003, 1, 177.317, 151.127)" fill="#b4daef"/>
                <path id="Rectángulo_383338" data-name="Rectángulo 383338" d="M.334,0H9.216A.334.334,0,0,1,9.55.334V2.179a.334.334,0,0,1-.334.334H.334A.334.334,0,0,1,0,2.179V.334A.334.334,0,0,1,.334,0ZM8.882.668H.668V1.845H8.882Z" transform="matrix(1, -0.003, 0.003, 1, 166.728, 151.159)" fill="#b4daef"/>
                <path id="Rectángulo_383339" data-name="Rectángulo 383339" d="M.334,0H5.886a.334.334,0,0,1,.334.334V2.179a.334.334,0,0,1-.334.334H.334A.334.334,0,0,1,0,2.179V.334A.334.334,0,0,1,.334,0ZM5.552.668H.668V1.845H5.552Z" transform="matrix(1, -0.003, 0.003, 1, 159.329, 151.182)" fill="#b4daef"/>
                <path id="Rectángulo_383340" data-name="Rectángulo 383340" d="M.334,0H1.86a.334.334,0,0,1,.334.334V2.179a.334.334,0,0,1-.334.334H.334A.334.334,0,0,1,0,2.179V.334A.334.334,0,0,1,.334,0ZM1.526.668H.668V1.845h.858Z" transform="matrix(1, -0.003, 0.003, 1, 153.518, 179.136)" fill="#b4daef"/>
                <path id="Rectángulo_383341" data-name="Rectángulo 383341" d="M.334,0H9.216A.334.334,0,0,1,9.55.334V2.179a.334.334,0,0,1-.334.334H.334A.334.334,0,0,1,0,2.179V.334A.334.334,0,0,1,.334,0ZM8.882.668H.668V1.845H8.882Z" transform="translate(156.452 179.127) rotate(-0.174)" fill="#b4daef"/>
                <path id="Rectángulo_383342" data-name="Rectángulo 383342" d="M.334,0H9.216A.334.334,0,0,1,9.55.334V2.179a.334.334,0,0,1-.334.334H.334A.334.334,0,0,1,0,2.179V.334A.334.334,0,0,1,.334,0ZM8.882.668H.668V1.845H8.882Z" transform="matrix(1, -0.003, 0.003, 1, 185.538, 179.038)" fill="#b4daef"/>
                <path id="Rectángulo_383343" data-name="Rectángulo 383343" d="M.334,0H9.216A.334.334,0,0,1,9.55.334V2.179a.334.334,0,0,1-.334.334H.334A.334.334,0,0,1,0,2.179V.334A.334.334,0,0,1,.334,0ZM8.882.668H.668V1.845H8.882Z" transform="matrix(1, -0.003, 0.003, 1, 174.949, 179.071)" fill="#b4daef"/>
                <path id="Rectángulo_383344" data-name="Rectángulo 383344" d="M.334,0H5.886A.334.334,0,0,1,6.22.334V2.179a.334.334,0,0,1-.334.334H.334A.334.334,0,0,1,0,2.179V.334A.334.334,0,0,1,.334,0ZM5.552.668H.668V1.845H5.552Z" transform="matrix(1, -0.003, 0.003, 1, 167.55, 179.093)" fill="#b4daef"/>
                <path id="Rectángulo_383345" data-name="Rectángulo 383345" d="M.334,0H15.061A.334.334,0,0,1,15.4.334V2.179a.334.334,0,0,1-.334.334H.334A.334.334,0,0,1,0,2.179V.334A.334.334,0,0,1,.334,0ZM14.727.668H.668V1.845H14.727Z" transform="translate(226.261 178.914) rotate(-0.175)" fill="#b4daef"/>
                <path id="Rectángulo_383346" data-name="Rectángulo 383346" d="M.334,0H15.061A.334.334,0,0,1,15.4.334V2.179a.334.334,0,0,1-.334.334H.334A.334.334,0,0,1,0,2.179V.334A.334.334,0,0,1,.334,0ZM14.727.668H.668V1.845H14.727Z" transform="translate(208.704 178.968) rotate(-0.175)" fill="#b4daef"/>
                <path id="Rectángulo_383347" data-name="Rectángulo 383347" d="M.334,0H9.54a.334.334,0,0,1,.334.334V2.179a.334.334,0,0,1-.334.334H.334A.334.334,0,0,1,0,2.179V.334A.334.334,0,0,1,.334,0ZM9.206.668H.668V1.845H9.206Z" transform="translate(196.435 179.005) rotate(-0.175)" fill="#b4daef"/>
                <path id="Rectángulo_383348" data-name="Rectángulo 383348" d="M.334,0H1.86a.334.334,0,0,1,.334.334V2.179a.334.334,0,0,1-.334.334H.334A.334.334,0,0,1,0,2.179V.334A.334.334,0,0,1,.334,0ZM1.526.668H.668V1.845h.858Z" transform="matrix(1, -0.003, 0.003, 1, 145.311, 155.974)" fill="#b4daef"/>
                <path id="Rectángulo_383349" data-name="Rectángulo 383349" d="M.334,0h2.22a.334.334,0,0,1,.334.334V2.179a.334.334,0,0,1-.334.334H.334A.334.334,0,0,1,0,2.179V.334A.334.334,0,0,1,.334,0ZM2.22.668H.668V1.845H2.22Z" transform="matrix(1, -0.003, 0.003, 1, 148.245, 155.965)" fill="#b4daef"/>
                <path id="Rectángulo_383350" data-name="Rectángulo 383350" d="M.334,0H9.216A.334.334,0,0,1,9.55.334V2.179a.334.334,0,0,1-.334.334H.334A.334.334,0,0,1,0,2.179V.334A.334.334,0,0,1,.334,0ZM8.882.668H.668V1.845H8.882Z" transform="translate(173.447 155.888) rotate(-0.174)" fill="#b4daef"/>
                <path id="Rectángulo_383351" data-name="Rectángulo 383351" d="M.334,0H12.868A.334.334,0,0,1,13.2.334V2.179a.334.334,0,0,1-.334.334H.334A.334.334,0,0,1,0,2.179V.334A.334.334,0,0,1,.334,0Zm12.2.668H.668V1.845H12.533Z" transform="translate(159.484 155.93) rotate(-0.175)" fill="#b4daef"/>
                <path id="Rectángulo_383352" data-name="Rectángulo 383352" d="M.334,0H5.886A.334.334,0,0,1,6.22.334V2.179a.334.334,0,0,1-.334.334H.334A.334.334,0,0,1,0,2.179V.334A.334.334,0,0,1,.334,0ZM5.552.668H.668V1.845H5.552Z" transform="translate(152.069 155.953) rotate(-0.175)" fill="#b4daef"/>
                <path id="Rectángulo_383353" data-name="Rectángulo 383353" d="M.334,0H1.86a.334.334,0,0,1,.334.334V2.179a.334.334,0,0,1-.334.334H.334A.334.334,0,0,1,0,2.179V.334A.334.334,0,0,1,.334,0ZM1.526.668H.668V1.845h.858Z" transform="matrix(1, -0.003, 0.003, 1, 145.326, 160.77)" fill="#b4daef"/>
                <path id="Rectángulo_383354" data-name="Rectángulo 383354" d="M.334,0H9.216A.334.334,0,0,1,9.55.334V2.179a.334.334,0,0,1-.334.334H.334A.334.334,0,0,1,0,2.179V.334A.334.334,0,0,1,.334,0ZM8.882.668H.668V1.845H8.882Z" transform="matrix(1, -0.003, 0.003, 1, 148.26, 160.761)" fill="#b4daef"/>
                <path id="Rectángulo_383355" data-name="Rectángulo 383355" d="M.334,0H7.779a.334.334,0,0,1,.334.334V2.179a.334.334,0,0,1-.334.334H.334A.334.334,0,0,1,0,2.179V.334A.334.334,0,0,1,.334,0ZM7.445.668H.668V1.845H7.445Z" transform="translate(176.286 160.675) rotate(-0.174)" fill="#b4daef"/>
                <path id="Rectángulo_383356" data-name="Rectángulo 383356" d="M.334,0H5.222a.334.334,0,0,1,.334.334V2.179a.334.334,0,0,1-.334.334H.334A.334.334,0,0,1,0,2.179V.334A.334.334,0,0,1,.334,0ZM4.888.668H.668V1.845H4.888Z" transform="matrix(1, -0.003, 0.003, 1, 163.953, 160.713)" fill="#b4daef"/>
                <path id="Rectángulo_383357" data-name="Rectángulo 383357" d="M.334,0H5.222a.334.334,0,0,1,.334.334V2.179a.334.334,0,0,1-.334.334H.334A.334.334,0,0,1,0,2.179V.334A.334.334,0,0,1,.334,0ZM4.888.668H.668V1.845H4.888Z" transform="matrix(1, -0.003, 0.003, 1, 170.109, 160.694)" fill="#b4daef"/>
                <path id="Rectángulo_383358" data-name="Rectángulo 383358" d="M.334,0H2.949a.334.334,0,0,1,.334.334V2.179a.334.334,0,0,1-.334.334H.334A.334.334,0,0,1,0,2.179V.334A.334.334,0,0,1,.334,0ZM2.615.668H.668V1.845H2.615Z" transform="matrix(1, -0.003, 0.003, 1, 159.358, 160.727)" fill="#b4daef"/>
                <path id="Rectángulo_383359" data-name="Rectángulo 383359" d="M.334,0H10.1a.334.334,0,0,1,.334.334V2.179a.334.334,0,0,1-.334.334H.334A.334.334,0,0,1,0,2.179V.334A.334.334,0,0,1,.334,0Zm9.43.668H.668V1.845h9.1Z" transform="translate(230.53 160.51) rotate(-0.175)" fill="#b4daef"/>
                <path id="Rectángulo_383360" data-name="Rectángulo 383360" d="M.334,0H1.86a.334.334,0,0,1,.334.334V2.179a.334.334,0,0,1-.334.334H.334A.334.334,0,0,1,0,2.179V.334A.334.334,0,0,1,.334,0ZM1.526.668H.668V1.845h.858Z" transform="matrix(1, -0.003, 0.003, 1, 145.341, 165.518)" fill="#b4daef"/>
                <path id="Rectángulo_383361" data-name="Rectángulo 383361" d="M.334,0H9.216A.334.334,0,0,1,9.55.334V2.179a.334.334,0,0,1-.334.334H.334A.334.334,0,0,1,0,2.179V.334A.334.334,0,0,1,.334,0ZM8.882.668H.668V1.845H8.882Z" transform="matrix(1, -0.003, 0.003, 1, 148.274, 165.51)" fill="#b4daef"/>
                <path id="Rectángulo_383362" data-name="Rectángulo 383362" d="M.334,0H20.962A.334.334,0,0,1,21.3.334V2.179a.334.334,0,0,1-.334.334H.334A.334.334,0,0,1,0,2.179V.334A.334.334,0,0,1,.334,0ZM20.627.668H.668V1.845H20.627Z" transform="translate(166.772 165.453) rotate(-0.175)" fill="#b4daef"/>
                <path id="Rectángulo_383363" data-name="Rectángulo 383363" d="M.334,0H5.886A.334.334,0,0,1,6.22.334V2.179a.334.334,0,0,1-.334.334H.334A.334.334,0,0,1,0,2.179V.334A.334.334,0,0,1,.334,0ZM5.552.668H.668V1.845H5.552Z" transform="matrix(1, -0.003, 0.003, 1, 159.373, 165.476)" fill="#b4daef"/>
                <path id="Rectángulo_383364" data-name="Rectángulo 383364" d="M.334,0H1.86a.334.334,0,0,1,.334.334V2.179a.334.334,0,0,1-.334.334H.334A.334.334,0,0,1,0,2.179V.334A.334.334,0,0,1,.334,0ZM1.526.668H.668V1.845h.858Z" transform="matrix(1, -0.003, 0.003, 1, 153.667, 175.195)" fill="#b4daef"/>
                <path id="Rectángulo_383365" data-name="Rectángulo 383365" d="M.334,0H9.216A.334.334,0,0,1,9.55.334V2.179a.334.334,0,0,1-.334.334H.334A.334.334,0,0,1,0,2.179V.334A.334.334,0,0,1,.334,0ZM8.882.668H.668V1.845H8.882Z" transform="translate(156.601 175.186) rotate(-0.174)" fill="#b4daef"/>
                <path id="Rectángulo_383366" data-name="Rectángulo 383366" d="M.334,0H4.775a.334.334,0,0,1,.334.334V2.179a.334.334,0,0,1-.334.334H.334A.334.334,0,0,1,0,2.179V.334A.334.334,0,0,1,.334,0ZM4.441.668H.668V1.845H4.441Z" transform="translate(185.687 175.097) rotate(-0.174)" fill="#b4daef"/>
                <path id="Rectángulo_383367" data-name="Rectángulo 383367" d="M.334,0H9.216A.334.334,0,0,1,9.55.334V2.179a.334.334,0,0,1-.334.334H.334A.334.334,0,0,1,0,2.179V.334A.334.334,0,0,1,.334,0ZM8.882.668H.668V1.845H8.882Z" transform="matrix(1, -0.003, 0.003, 1, 175.098, 175.129)" fill="#b4daef"/>
                <path id="Rectángulo_383368" data-name="Rectángulo 383368" d="M.334,0H5.886A.334.334,0,0,1,6.22.334V2.179a.334.334,0,0,1-.334.334H.334A.334.334,0,0,1,0,2.179V.334A.334.334,0,0,1,.334,0ZM5.552.668H.668V1.845H5.552Z" transform="matrix(1, -0.003, 0.003, 1, 167.699, 175.152)" fill="#b4daef"/>
                <path id="Rectángulo_383369" data-name="Rectángulo 383369" d="M.334,0h13a.334.334,0,0,1,.334.334V2.179a.334.334,0,0,1-.334.334h-13A.334.334,0,0,1,0,2.179V.334A.334.334,0,0,1,.334,0ZM13,.668H.668V1.845H13Z" transform="matrix(1, -0.003, 0.003, 1, 210.963, 175.02)" fill="#b4daef"/>
                <path id="Rectángulo_383370" data-name="Rectángulo 383370" d="M.334,0H10.817a.334.334,0,0,1,.334.334V2.179a.334.334,0,0,1-.334.334H.334A.334.334,0,0,1,0,2.179V.334A.334.334,0,0,1,.334,0ZM10.483.668H.668V1.845h9.814Z" transform="translate(198.885 175.057) rotate(-0.175)" fill="#b4daef"/>
                <path id="Rectángulo_383371" data-name="Rectángulo 383371" d="M.334,0H6.089a.334.334,0,0,1,.334.334V2.179a.334.334,0,0,1-.334.334H.334A.334.334,0,0,1,0,2.179V.334A.334.334,0,0,1,.334,0Zm5.42.668H.668V1.845H5.754Z" transform="translate(191.359 175.08) rotate(-0.175)" fill="#b4daef"/>
                <path id="Rectángulo_383372" data-name="Rectángulo 383372" d="M.334,0H1.86a.334.334,0,0,1,.334.334V2.179a.334.334,0,0,1-.334.334H.334A.334.334,0,0,1,0,2.179V.334A.334.334,0,0,1,.334,0ZM1.526.668H.668V1.845h.858Z" transform="matrix(1, -0.003, 0.003, 1, 151.354, 146.195)" fill="#b4daef"/>
                <path id="Rectángulo_383373" data-name="Rectángulo 383373" d="M.334,0h6.6a.334.334,0,0,1,.334.334V2.179a.334.334,0,0,1-.334.334H.334A.334.334,0,0,1,0,2.179V.334A.334.334,0,0,1,.334,0ZM6.6.668H.668V1.845H6.6Z" transform="translate(154.288 146.186) rotate(-0.175)" fill="#b4daef"/>
                <path id="Rectángulo_383374" data-name="Rectángulo 383374" d="M.334,0H9.216A.334.334,0,0,1,9.55.334V2.179a.334.334,0,0,1-.334.334H.334A.334.334,0,0,1,0,2.179V.334A.334.334,0,0,1,.334,0ZM8.882.668H.668V1.845H8.882Z" transform="matrix(1, -0.003, 0.003, 1, 169.496, 146.14)" fill="#b4daef"/>
                <path id="Rectángulo_383375" data-name="Rectángulo 383375" d="M.334,0H6.4a.334.334,0,0,1,.334.334V2.179a.334.334,0,0,1-.334.334H.334A.334.334,0,0,1,0,2.179V.334A.334.334,0,0,1,.334,0ZM6.068.668H.668V1.845h5.4Z" transform="translate(162.194 146.162) rotate(-0.174)" fill="#b4daef"/>
                <path id="Rectángulo_383376" data-name="Rectángulo 383376" d="M.334,0H1.86a.334.334,0,0,1,.334.334V2.179a.334.334,0,0,1-.334.334H.334A.334.334,0,0,1,0,2.179V.334A.334.334,0,0,1,.334,0ZM1.526.668H.668V1.845h.858Z" transform="matrix(1, -0.003, 0.003, 1, 145.396, 183.604)" fill="#b4daef"/>
                <path id="Rectángulo_383377" data-name="Rectángulo 383377" d="M.334,0H4.775a.334.334,0,0,1,.334.334V2.179a.334.334,0,0,1-.334.334H.334A.334.334,0,0,1,0,2.179V.334A.334.334,0,0,1,.334,0ZM4.441.668H.668V1.845H4.441Z" transform="translate(148.329 183.595) rotate(-0.174)" fill="#b4daef"/>
                <path id="Rectángulo_383378" data-name="Rectángulo 383378" d="M.334,0H11.758a.334.334,0,0,1,.334.334V2.179a.334.334,0,0,1-.334.334H.334A.334.334,0,0,1,0,2.179V.334A.334.334,0,0,1,.334,0ZM11.424.668H.668V1.845H11.424Z" transform="translate(171.268 183.525) rotate(-0.174)" fill="#b4daef"/>
                <path id="Rectángulo_383379" data-name="Rectángulo 383379" d="M.334,0H3.3a.334.334,0,0,1,.334.334V2.179a.334.334,0,0,1-.334.334H.334A.334.334,0,0,1,0,2.179V.334A.334.334,0,0,1,.334,0ZM2.962.668H.668V1.845H2.962Z" transform="matrix(1, -0.003, 0.003, 1, 166.827, 183.538)" fill="#b4daef"/>
                <path id="Rectángulo_383380" data-name="Rectángulo 383380" d="M.334,0H10.97A.334.334,0,0,1,11.3.334V2.179a.334.334,0,0,1-.334.334H.334A.334.334,0,0,1,0,2.179V.334A.334.334,0,0,1,.334,0Zm10.3.668H.668V1.845h9.968Z" transform="translate(154.344 183.576) rotate(-0.175)" fill="#b4daef"/>
                <path id="Rectángulo_383381" data-name="Rectángulo 383381" d="M.334,0H11.941a.334.334,0,0,1,.334.334V2.179a.334.334,0,0,1-.334.334H.334A.334.334,0,0,1,0,2.179V.334A.334.334,0,0,1,.334,0ZM11.607.668H.668V1.845H11.607Z" transform="translate(196.888 183.447) rotate(-0.175)" fill="#b4daef"/>
                <path id="Rectángulo_383382" data-name="Rectángulo 383382" d="M.334,0H5.1a.334.334,0,0,1,.334.334V2.179a.334.334,0,0,1-.334.334H.334A.334.334,0,0,1,0,2.179V.334A.334.334,0,0,1,.334,0ZM4.763.668H.668V1.845H4.763Z" transform="translate(184.078 183.486) rotate(-0.176)" fill="#b4daef"/>
                <path id="Rectángulo_383383" data-name="Rectángulo 383383" d="M.334,0H5.1a.334.334,0,0,1,.334.334V2.179a.334.334,0,0,1-.334.334H.334A.334.334,0,0,1,0,2.179V.334A.334.334,0,0,1,.334,0ZM4.763.668H.668V1.845H4.763Z" transform="translate(190.534 183.466) rotate(-0.176)" fill="#b4daef"/>
                <path id="Rectángulo_383384" data-name="Rectángulo 383384" d="M.334,0H1.86a.334.334,0,0,1,.334.334V2.179a.334.334,0,0,1-.334.334H.334A.334.334,0,0,1,0,2.179V.334A.334.334,0,0,1,.334,0ZM1.526.668H.668V1.845h.858Z" transform="matrix(1, -0.003, 0.003, 1, 145.421, 191.935)" fill="#b4daef"/>
                <path id="Rectángulo_383385" data-name="Rectángulo 383385" d="M.334,0H9.216A.334.334,0,0,1,9.55.334V2.179a.334.334,0,0,1-.334.334H.334A.334.334,0,0,1,0,2.179V.334A.334.334,0,0,1,.334,0ZM8.882.668H.668V1.845H8.882Z" transform="translate(148.355 191.926) rotate(-0.174)" fill="#b4daef"/>
                <path id="Rectángulo_383386" data-name="Rectángulo 383386" d="M.334,0H9.216A.334.334,0,0,1,9.55.334V2.179a.334.334,0,0,1-.334.334H.334A.334.334,0,0,1,0,2.179V.334A.334.334,0,0,1,.334,0ZM8.882.668H.668V1.845H8.882Z" transform="matrix(1, -0.003, 0.003, 1, 177.441, 191.837)" fill="#b4daef"/>
                <path id="Rectángulo_383387" data-name="Rectángulo 383387" d="M.334,0H9.216A.334.334,0,0,1,9.55.334V2.179a.334.334,0,0,1-.334.334H.334A.334.334,0,0,1,0,2.179V.334A.334.334,0,0,1,.334,0ZM8.882.668H.668V1.845H8.882Z" transform="translate(166.852 191.87) rotate(-0.174)" fill="#b4daef"/>
                <path id="Rectángulo_383388" data-name="Rectángulo 383388" d="M.334,0H5.886A.334.334,0,0,1,6.22.334V2.179a.334.334,0,0,1-.334.334H.334A.334.334,0,0,1,0,2.179V.334A.334.334,0,0,1,.334,0ZM5.552.668H.668V1.845H5.552Z" transform="matrix(1, -0.003, 0.003, 1, 159.453, 191.892)" fill="#b4daef"/>
                <path id="Rectángulo_383389" data-name="Rectángulo 383389" d="M.334,0H5.886a.334.334,0,0,1,.334.334V2.179a.334.334,0,0,1-.334.334H.334A.334.334,0,0,1,0,2.179V.334A.334.334,0,0,1,.334,0ZM5.552.668H.668V1.845H5.552Z" transform="matrix(1, -0.003, 0.003, 1, 234.837, 191.662)" fill="#b4daef"/>
                <path id="Rectángulo_383390" data-name="Rectángulo 383390" d="M.334,0H15.061A.334.334,0,0,1,15.4.334V2.179a.334.334,0,0,1-.334.334H.334A.334.334,0,0,1,0,2.179V.334A.334.334,0,0,1,.334,0ZM14.727.668H.668V1.845H14.727Z" transform="translate(218.164 191.713) rotate(-0.175)" fill="#b4daef"/>
                <path id="Rectángulo_383391" data-name="Rectángulo 383391" d="M.334,0H15.061A.334.334,0,0,1,15.4.334V2.179a.334.334,0,0,1-.334.334H.334A.334.334,0,0,1,0,2.179V.334A.334.334,0,0,1,.334,0ZM14.727.668H.668V1.845H14.727Z" transform="translate(200.607 191.767) rotate(-0.175)" fill="#b4daef"/>
                <path id="Rectángulo_383392" data-name="Rectángulo 383392" d="M.334,0H9.54a.334.334,0,0,1,.334.334V2.179a.334.334,0,0,1-.334.334H.334A.334.334,0,0,1,0,2.179V.334A.334.334,0,0,1,.334,0ZM9.206.668H.668V1.845H9.206Z" transform="translate(188.338 191.804) rotate(-0.175)" fill="#b4daef"/>
                <path id="Rectángulo_383393" data-name="Rectángulo 383393" d="M.334,0H1.86a.334.334,0,0,1,.334.334V2.179a.334.334,0,0,1-.334.334H.334A.334.334,0,0,1,0,2.179V.334A.334.334,0,0,1,.334,0ZM1.526.668H.668V1.845h.858Z" transform="matrix(1, -0.003, 0.003, 1, 145.409, 187.876)" fill="#b4daef"/>
                <path id="Rectángulo_383394" data-name="Rectángulo 383394" d="M.334,0h6.6a.334.334,0,0,1,.334.334V2.179a.334.334,0,0,1-.334.334H.334A.334.334,0,0,1,0,2.179V.334A.334.334,0,0,1,.334,0ZM6.6.668H.668V1.845H6.6Z" transform="translate(148.343 187.867) rotate(-0.174)" fill="#b4daef"/>
                <path id="Rectángulo_383395" data-name="Rectángulo 383395" d="M.334,0H9.216A.334.334,0,0,1,9.55.334V2.179a.334.334,0,0,1-.334.334H.334A.334.334,0,0,1,0,2.179V.334A.334.334,0,0,1,.334,0ZM8.882.668H.668V1.845H8.882Z" transform="matrix(1, -0.003, 0.003, 1, 163.551, 187.821)" fill="#b4daef"/>
                <path id="Rectángulo_383396" data-name="Rectángulo 383396" d="M.334,0H6.4a.334.334,0,0,1,.334.334V2.179a.334.334,0,0,1-.334.334H.334A.334.334,0,0,1,0,2.179V.334A.334.334,0,0,1,.334,0ZM6.068.668H.668V1.845h5.4Z" transform="matrix(1, -0.003, 0.003, 1, 156.248, 187.843)" fill="#b4daef"/>
                <path id="Rectángulo_383397" data-name="Rectángulo 383397" d="M.334,0H1.86a.334.334,0,0,1,.334.334V2.179a.334.334,0,0,1-.334.334H.334A.334.334,0,0,1,0,2.179V.334A.334.334,0,0,1,.334,0ZM1.526.668H.668V1.845h.858Z" transform="matrix(1, -0.003, 0.003, 1, 145.354, 169.874)" fill="#b4daef"/>
                <path id="Rectángulo_383398" data-name="Rectángulo 383398" d="M.334,0H9.216A.334.334,0,0,1,9.55.334V2.179a.334.334,0,0,1-.334.334H.334A.334.334,0,0,1,0,2.179V.334A.334.334,0,0,1,.334,0ZM8.882.668H.668V1.845H8.882Z" transform="translate(148.288 169.865) rotate(-0.174)" fill="#b4daef"/>
                <path id="Rectángulo_383399" data-name="Rectángulo 383399" d="M.334,0H9.216A.334.334,0,0,1,9.55.334V2.179a.334.334,0,0,1-.334.334H.334A.334.334,0,0,1,0,2.179V.334A.334.334,0,0,1,.334,0ZM8.882.668H.668V1.845H8.882Z" transform="matrix(1, -0.003, 0.003, 1, 166.785, 169.809)" fill="#b4daef"/>
                <path id="Rectángulo_383400" data-name="Rectángulo 383400" d="M.334,0H5.886A.334.334,0,0,1,6.22.334V2.179a.334.334,0,0,1-.334.334H.334A.334.334,0,0,1,0,2.179V.334A.334.334,0,0,1,.334,0ZM5.552.668H.668V1.845H5.552Z" transform="matrix(1, -0.003, 0.003, 1, 159.386, 169.831)" fill="#b4daef"/>
              </g>
            </g>
          </g>
        </g>
      </g>
      <g id="Grupo_1074424" data-name="Grupo 1074424" transform="translate(436.322 4093.62)">
        <path id="Trazado_827285" data-name="Trazado 827285" d="M75.43,32.786c7.977,2.331,14.2,10.706,17.279,24.443,1.549,6.911,1.836,13.983,5.525,18.325S102.5,86.165,102.208,89.7s.478,8.84,2.808,11.734l-54.136-.045s3.019-7.551,2.441-13.98-2.42-10.77-1.054-17.357,3.211-9.55.6-15.106c-3.783-8.039,2.162-28.122,22.568-22.159" transform="translate(-22.119 -8.619)" fill="#1c1318"/>
        <path id="Trazado_827286" data-name="Trazado 827286" d="M80.242,27.59A6.852,6.852,0,1,0,89.1,23.656a6.853,6.853,0,0,0-8.857,3.934" transform="translate(-31.638 -6.308)" fill="#1c1318"/>
        <path id="Trazado_827287" data-name="Trazado 827287" d="M96.513,42.117c0,1.346,1.131,9.005,7.338,12.012l.462,4.3,4.18,13.872-9.787,7.184-6.048-7.094.005-6.262c-4.037.359-7.4-1.978-7.654-6.324s-.044-8.12-1.284-10.45c0,0,6.313-.1,12.788-7.234" transform="translate(-49.511 -11.452)" fill="#f0956d"/>
        <path id="Trazado_827288" data-name="Trazado 827288" d="M99.949,62.937a2.225,2.225,0,1,1-2.224-2.224,2.225,2.225,0,0,1,2.224,2.224" transform="translate(-49.541 -16.508)" fill="#e25e59"/>
        <path id="Trazado_827289" data-name="Trazado 827289" d="M94.694,73.546a9.845,9.845,0,0,0,7.184-3.759" transform="translate(-50.882 -18.975)" fill="none" stroke="#1c1318" stroke-miterlimit="10" stroke-width="0.464"/>
        <path id="Trazado_827290" data-name="Trazado 827290" d="M90.864,57.775c-1.085,2.457-3.5,3.772-5.4,2.934S82.914,57.2,84,54.744s3.5-3.771,5.4-2.934,2.552,3.508,1.467,5.965" transform="translate(-32.224 -14.019)" fill="#f0956d"/>
        <path id="Trazado_827291" data-name="Trazado 827291" d="M86.632,58.582s.7-3.725,3.924-4.46" transform="translate(-33.69 -14.716)" fill="none" stroke="#1c1318" stroke-miterlimit="10" stroke-width="0.464"/>
        <line id="Línea_279" data-name="Línea 279" x1="0.489" y1="2.307" transform="translate(55.21 40.164)" fill="none" stroke="#1c1318" stroke-miterlimit="10" stroke-width="0.464"/>
        <path id="Trazado_827292" data-name="Trazado 827292" d="M87.579,62.891a1.5,1.5,0,1,1-1.5-1.5A1.5,1.5,0,0,1,87.579,62.891Z" transform="translate(-29.218 -16.692)" fill="none" stroke="#fff" stroke-miterlimit="10" stroke-width="0.464"/>
        <path id="Trazado_827293" data-name="Trazado 827293" d="M112.132,59.319l.5-.724a1.117,1.117,0,0,0-.986-.351,1.138,1.138,0,1,0,1.3.946,1.081,1.081,0,0,0-.047-.125Z" transform="translate(-73.612 -15.833)" fill="#121f32"/>
        <path id="Trazado_827294" data-name="Trazado 827294" d="M102.481,57.786l.5-.724A1.119,1.119,0,0,0,102,56.71a1.139,1.139,0,1,0,1.3.947.983.983,0,0,0-.047-.125Z" transform="translate(-56.934 -15.416)" fill="#121f32"/>
        <path id="Trazado_827295" data-name="Trazado 827295" d="M104.926,59.416s.025,1.216,0,2.225,1.164,1.554,2.457.7" transform="translate(-63.833 -16.155)" fill="none" stroke="#1c1318" stroke-miterlimit="10" stroke-width="0.464"/>
        <path id="Trazado_827296" data-name="Trazado 827296" d="M99.877,65.4a5.357,5.357,0,0,0,5.746-1.962" transform="translate(-58.4 -17.249)" fill="none" stroke="#1c1318" stroke-miterlimit="10" stroke-width="0.464"/>
        <line id="Línea_280" data-name="Línea 280" x2="1.311" y2="0.803" transform="translate(46.376 45.698)" fill="none" stroke="#1c1318" stroke-miterlimit="10" stroke-width="0.464"/>
        <path id="Trazado_827297" data-name="Trazado 827297" d="M99.229,53.479s2.821-.929,4.787-.229" transform="translate(-56.322 -14.408)" fill="none" stroke="#7b2a27" stroke-linecap="round" stroke-linejoin="round" stroke-width="0.971"/>
        <path id="Trazado_827298" data-name="Trazado 827298" d="M109.535,55.306a5.049,5.049,0,0,1,3.778-.411" transform="translate(-73.123 -14.869)" fill="none" stroke="#7b2a27" stroke-linecap="round" stroke-linejoin="round" stroke-width="0.971"/>
        <path id="Trazado_827299" data-name="Trazado 827299" d="M134.285,384.961l-.015,17.245a10.6,10.6,0,0,0,.621,3.6,47.2,47.2,0,0,1,2.777,16.828L97.926,422.6s2.325-5.263,12.851-8.492a14.391,14.391,0,0,0,5.077-2.834l3.877-3.3a7.913,7.913,0,0,0,2.659-7.423l-2.8-15.606Z" transform="translate(-89.046 -104.665)" fill="#f0956d"/>
        <path id="Trazado_827300" data-name="Trazado 827300" d="M135.8,417.431l-9.637,4.591-7.1-4.658-3.2,2.727a14.369,14.369,0,0,1-5.076,2.833c-10.526,3.229-12.851,8.493-12.851,8.493l39.742.033a46.243,46.243,0,0,0-1.869-14.019" transform="translate(-89.044 -113.478)" fill="#1c1318"/>
        <path id="Trazado_827301" data-name="Trazado 827301" d="M15.083,385l3.448,19.348a9.05,9.05,0,0,1,.043,2.923l-2.281,15.4,30.428.026s-.41-4.554-1.858-5.8-5.585-4.352-5.585-4.352l-6.21-6.451a8.536,8.536,0,0,1-2.369-5.365l-1.024-15.721Z" transform="translate(62.241 -104.679)" fill="#f0956d"/>
        <path id="Trazado_827302" data-name="Trazado 827302" d="M32.092,414.316A14.878,14.878,0,0,0,21.561,419.6l-4.493-2.358-1.985,13.4,30.428.026s-.41-4.554-1.858-5.8-5.585-4.351-5.585-4.351Z" transform="translate(63.451 -112.649)" fill="#1c1318"/>
        <path id="Trazado_827303" data-name="Trazado 827303" d="M71.588,97.617,84.64,83.656l15.835-.09,8.837,14.083L101.8,144.33l-29.472-.025Z" transform="translate(-41.493 -22.721)" fill="#306ff3"/>
        <path id="Trazado_827304" data-name="Trazado 827304" d="M82.254,102.118l9.064-7.548,10.753,10.566" transform="translate(-42.017 -25.714)" fill="none" stroke="#fff" stroke-miterlimit="10" stroke-width="0.464"/>
        <line id="Línea_281" data-name="Línea 281" x1="5.81" y2="44.705" transform="translate(43.488 72.428)" fill="none" stroke="#fff" stroke-miterlimit="10" stroke-width="0.464"/>
        <path id="Trazado_827305" data-name="Trazado 827305" d="M87.077,190.855,111.49,328.008l-27.944-.023L54.852,205.007,63.363,329.52,35.109,329.5,27.266,184.957l12.87-17.643,40.543,1.07Z" transform="translate(-11.399 -45.492)" fill="#ea513b"/>
        <path id="Trazado_827306" data-name="Trazado 827306" d="M118.507,190.856l-6.4-22.471-40.544-1.07L58.7,184.958l.2,3.6c8.8.182,37.77,1.507,61.144,10.888Z" transform="translate(-42.829 -45.492)" fill="#d83b2b"/>
        <path id="Trazado_827307" data-name="Trazado 827307" d="M108.036,206.058l-2.982-11.825,2.106-23.053" transform="translate(-64.584 -46.543)" fill="none" stroke="#1c1318" stroke-miterlimit="10" stroke-width="0.464"/>
        <line id="Línea_282" data-name="Línea 282" x2="26.601" y2="0.023" transform="translate(31.429 150.035)" fill="none" stroke="#1c1318" stroke-miterlimit="10" stroke-width="0.464"/>
        <line id="Línea_283" data-name="Línea 283" x2="1.522" y2="20.701" transform="translate(39.163 124.633)" fill="none" stroke="#1c1318" stroke-miterlimit="10" stroke-width="0.464"/>
        <line id="Línea_284" data-name="Línea 284" x2="7.325" y2="150.489" transform="translate(25.078 133.522)" fill="none" stroke="#1c1318" stroke-miterlimit="10" stroke-width="0.464"/>
        <line id="Línea_285" data-name="Línea 285" x2="27.067" y2="148.954" transform="translate(60.294 133.552)" fill="none" stroke="#1c1318" stroke-miterlimit="10" stroke-width="0.464"/>
        <g id="Grupo_1074406" data-name="Grupo 1074406" transform="translate(27.983 119.759)" opacity="0.2">
          <g id="Grupo_1074405" data-name="Grupo 1074405">
            <g id="Grupo_1074404" data-name="Grupo 1074404" clip-path="url(#clip-path-3)">
              <rect id="Rectángulo_383300" data-name="Rectángulo 383300" width="38.852" height="6.195" transform="translate(0.002 0.016)" fill="#4f454d"/>
            </g>
          </g>
        </g>
        <path id="Trazado_827308" data-name="Trazado 827308" d="M64.425,83.566l-9.517,58.351a16.068,16.068,0,0,0,.574,7.543l3.767,11.616a3.221,3.221,0,0,0,4.672,1.8l18.61-10.726-8.062-12.271,10.68-37.654a10.787,10.787,0,0,0-6.4-12.969Z" transform="translate(-5.442 -22.722)" fill="#ea513b"/>
        <line id="Línea_286" data-name="Línea 286" x1="9.839" y2="8.257" transform="translate(55.098 117.721)" fill="none" stroke="#1c1318" stroke-miterlimit="10" stroke-width="0.464"/>
        <path id="Trazado_827309" data-name="Trazado 827309" d="M86.932,86.522l.9,1.375a13.827,13.827,0,0,1,.5,14.268l-1.73,3.112,1.931,5.716a9.827,9.827,0,0,1-.547,7.593L77.489,139.268" transform="translate(-26.547 -23.525)" fill="none" stroke="#1c1318" stroke-miterlimit="10" stroke-width="0.464"/>
        <g id="Grupo_1074409" data-name="Grupo 1074409" transform="translate(56.565 117.155)" opacity="0.2">
          <g id="Grupo_1074408" data-name="Grupo 1074408">
            <g id="Grupo_1074407" data-name="Grupo 1074407" clip-path="url(#clip-path-4)">
              <path id="Trazado_827310" data-name="Trazado 827310" d="M71.319,160.9,58.858,184.3a3.177,3.177,0,0,0,1.913-.4l18.61-10.726Z" transform="translate(-58.858 -160.904)" fill="#4f454d"/>
            </g>
          </g>
        </g>
        <g id="Grupo_1074412" data-name="Grupo 1074412" transform="translate(69.309 88.228)" opacity="0.2">
          <g id="Grupo_1074411" data-name="Grupo 1074411">
            <g id="Grupo_1074410" data-name="Grupo 1074410" clip-path="url(#clip-path-5)">
              <path id="Trazado_827311" data-name="Trazado 827311" d="M61.239,121.175,62.545,144.5l4.74-16.714Z" transform="translate(-61.239 -121.175)" fill="#4f454d"/>
            </g>
          </g>
        </g>
        <path id="Trazado_827312" data-name="Trazado 827312" d="M64.869,189.146l12.708,2.834-7.788-8.551Z" transform="translate(-4.866 -49.873)" fill="#f0956d"/>
        <path id="Trazado_827313" data-name="Trazado 827313" d="M148.62,83.69l-7.605,74.82a4.142,4.142,0,0,1-4.125,3.724l-18.764-.015s7.467-18.027,13.53-27.946l-.151-5.421-8.818,9.289a9.978,9.978,0,0,1-15.615-12.287l19.051-29.467a19.017,19.017,0,0,1,8.991-7.366Z" transform="translate(-105.473 -22.755)" fill="#ea513b"/>
        <path id="Trazado_827314" data-name="Trazado 827314" d="M114.609,85.288c-2.176,3.258-8,8.144-3.508,18.316-4.665,8.224-5.6,19.317-2.2,32.908" transform="translate(-72.471 -23.19)" fill="none" stroke="#1c1318" stroke-miterlimit="10" stroke-width="0.464"/>
        <line id="Línea_287" data-name="Línea 287" y1="15.264" x2="1.71" transform="translate(16.508 94.757)" fill="none" stroke="#1c1318" stroke-miterlimit="10" stroke-width="0.464"/>
        <path id="Trazado_827315" data-name="Trazado 827315" d="M142.368,133.344l-29.547-.025-14.5-41.7,29.547.025Z" transform="translate(-94.015 -24.912)" fill="#f0f3f9"/>
        <path id="Trazado_827316" data-name="Trazado 827316" d="M25.92,111.3l13.538,23.919L23.294,157.767l10.753,11.808,22.524-20.9a14.947,14.947,0,0,0,3.1-17.842l-15.049-29a22.617,22.617,0,0,0-11.731-10.6l-5.481-2.176Z" transform="translate(41.63 -24.212)" fill="#ea513b"/>
        <line id="Línea_288" data-name="Línea 288" y1="4.862" x2="3.678" transform="translate(81.088 106.146)" fill="none" stroke="#1c1318" stroke-miterlimit="10" stroke-width="0.464"/>
        <path id="Trazado_827317" data-name="Trazado 827317" d="M139.815,120.919a16.8,16.8,0,0,1,3.884-3.994,26.011,26.011,0,0,1,3.093-1.812,1.466,1.466,0,0,1,1.723.3L150,116.977a1.472,1.472,0,0,1,.2,1.763l-3.436,5.793s5.087-2.712,5.436-2.479c.207.138-1.735,2.313-3.347,4.058a4.363,4.363,0,0,1-5.248.919c-2.126-1.136-4.421-3.1-3.785-6.112" transform="translate(-133.989 -31.256)" fill="#f0956d"/>
        <line id="Línea_289" data-name="Línea 289" y1="4.629" x2="5.952" transform="translate(8.853 84.454)" fill="none" stroke="#1c1318" stroke-miterlimit="10" stroke-width="0.464"/>
        <line id="Línea_290" data-name="Línea 290" y1="5.984" x2="4.926" transform="translate(10.986 85.74)" fill="none" stroke="#1c1318" stroke-miterlimit="10" stroke-width="0.464"/>
        <path id="Trazado_827318" data-name="Trazado 827318" d="M47.745,17.938c0,9.907-10.688,17.937-23.873,17.937S0,27.845,0,17.938,10.688,0,23.873,0s23.873,8.03,23.873,17.937" transform="translate(72.198 -0.001)" fill="#306ff3"/>
        <path id="Trazado_827319" data-name="Trazado 827319" d="M23.2,42.963l-.917,14.874L38.061,42.963Z" transform="translate(65.656 -11.682)" fill="#306ff3"/>
        <line id="Línea_291" data-name="Línea 291" x2="17.907" transform="translate(87.117 9.4)" fill="none" stroke="#fff" stroke-miterlimit="10" stroke-width="0.971"/>
        <line id="Línea_292" data-name="Línea 292" x2="17.907" transform="translate(87.117 14.172)" fill="none" stroke="#fff" stroke-miterlimit="10" stroke-width="0.971"/>
        <line id="Línea_293" data-name="Línea 293" x2="17.907" transform="translate(87.117 18.945)" fill="none" stroke="#fff" stroke-miterlimit="10" stroke-width="0.971"/>
        <line id="Línea_294" data-name="Línea 294" x2="17.907" transform="translate(87.117 23.717)" fill="none" stroke="#fff" stroke-miterlimit="10" stroke-width="0.971"/>
      </g>
    </g>
  </g>
</svg>
